<svg xmlns="http://www.w3.org/2000/svg" xmlns:xlink="http://www.w3.org/1999/xlink" contentStyleType="text/css" height="151px" preserveAspectRatio="none" style="width:940px;height:151px;background:#FFFFFF;" version="1.1" viewBox="0 0 940 151" width="940px" zoomAndPan="magnify"><defs/><g><rect fill="#F1F1F1" height="101.4844" rx="5" ry="5" style="stroke:#F1F1F1;stroke-width:1.5;" width="252.1348" x="10" y="37.7578"/><text fill="#000000" font-family="sans-serif" font-size="14" font-weight="bold" lengthAdjust="spacing" textLength="43.4971" x="15" y="52.7529">name</text><text fill="#000000" font-family="sans-serif" font-size="14" lengthAdjust="spacing" textLength="108.8281" x="148.3066" y="52.7529">NetworkIntent1</text><line style="stroke:#000000;stroke-width:1.0;" x1="143.3066" x2="143.3066" y1="37.7578" y2="58.0547"/><line style="stroke:#000000;stroke-width:1.0;" x1="10" x2="262.1348" y1="58.0547" y2="58.0547"/><text fill="#000000" font-family="sans-serif" font-size="14" font-weight="bold" lengthAdjust="spacing" textLength="52.6162" x="15" y="73.0498">source</text><text fill="#000000" font-family="sans-serif" font-size="14" lengthAdjust="spacing" textLength="13.3506" x="148.3066" y="73.0498">&#160;&#160;&#160;</text><line style="stroke:#000000;stroke-width:1.0;" x1="143.3066" x2="143.3066" y1="58.0547" y2="78.3516"/><line style="stroke:#000000;stroke-width:1.0;" x1="10" x2="262.1348" y1="78.3516" y2="78.3516"/><text fill="#000000" font-family="sans-serif" font-size="14" font-weight="bold" lengthAdjust="spacing" textLength="89.8311" x="15" y="93.3467">destination</text><text fill="#000000" font-family="sans-serif" font-size="14" lengthAdjust="spacing" textLength="13.3506" x="148.3066" y="93.3467">&#160;&#160;&#160;</text><line style="stroke:#000000;stroke-width:1.0;" x1="143.3066" x2="143.3066" y1="78.3516" y2="98.6484"/><line style="stroke:#000000;stroke-width:1.0;" x1="10" x2="262.1348" y1="98.6484" y2="98.6484"/><text fill="#000000" font-family="sans-serif" font-size="14" font-weight="bold" lengthAdjust="spacing" textLength="123.3066" x="15" y="113.6436">destinationPort</text><text fill="#000000" font-family="sans-serif" font-size="14" lengthAdjust="spacing" textLength="26.7217" x="148.3066" y="113.6436">443</text><line style="stroke:#000000;stroke-width:1.0;" x1="143.3066" x2="143.3066" y1="98.6484" y2="118.9453"/><line style="stroke:#000000;stroke-width:1.0;" x1="10" x2="262.1348" y1="118.9453" y2="118.9453"/><text fill="#000000" font-family="sans-serif" font-size="14" font-weight="bold" lengthAdjust="spacing" textLength="103.7627" x="15" y="133.9404">protocolType</text><text fill="#000000" font-family="sans-serif" font-size="14" lengthAdjust="spacing" textLength="44.96" x="148.3066" y="133.9404">HTTPS</text><line style="stroke:#000000;stroke-width:1.0;" x1="143.3066" x2="143.3066" y1="118.9453" y2="139.2422"/><rect fill="none" height="101.4844" rx="5" ry="5" style="stroke:#000000;stroke-width:1.5;" width="252.1348" x="10" y="37.7578"/><rect fill="#F1F1F1" height="40.5938" rx="5" ry="5" style="stroke:#F1F1F1;stroke-width:1.5;" width="200.1338" x="316.5" y="29"/><text fill="#000000" font-family="sans-serif" font-size="14" font-weight="bold" lengthAdjust="spacing" textLength="105.957" x="321.5" y="43.9951">isHostCluster</text><text fill="#000000" font-family="sans-serif" font-size="14" lengthAdjust="spacing" textLength="45.7324" x="465.9014" y="43.9951">&#9745; true</text><line style="stroke:#000000;stroke-width:1.0;" x1="460.9014" x2="460.9014" y1="29" y2="49.2969"/><line style="stroke:#000000;stroke-width:1.0;" x1="316.5" x2="516.6338" y1="49.2969" y2="49.2969"/><text fill="#000000" font-family="sans-serif" font-size="14" font-weight="bold" lengthAdjust="spacing" textLength="134.4014" x="321.5" y="64.292">resourceSelector</text><text fill="#000000" font-family="sans-serif" font-size="14" lengthAdjust="spacing" textLength="13.3506" x="465.9014" y="64.292">&#160;&#160;&#160;</text><line style="stroke:#000000;stroke-width:1.0;" x1="460.9014" x2="460.9014" y1="49.2969" y2="69.5938"/><rect fill="none" height="40.5938" rx="5" ry="5" style="stroke:#000000;stroke-width:1.5;" width="200.1338" x="316.5" y="29"/><rect fill="#F1F1F1" height="40.5938" rx="5" ry="5" style="stroke:#F1F1F1;stroke-width:1.5;" width="122.4434" x="571" y="39"/><text fill="#000000" font-family="sans-serif" font-size="14" font-weight="bold" lengthAdjust="spacing" textLength="29.6611" x="576" y="53.9951">pod</text><text fill="#000000" font-family="sans-serif" font-size="14" lengthAdjust="spacing" textLength="13.3506" x="675.0928" y="53.9951">&#160;&#160;&#160;</text><line style="stroke:#000000;stroke-width:1.0;" x1="670.0928" x2="670.0928" y1="39" y2="59.2969"/><line style="stroke:#000000;stroke-width:1.0;" x1="571" x2="693.4434" y1="59.2969" y2="59.2969"/><text fill="#000000" font-family="sans-serif" font-size="14" font-weight="bold" lengthAdjust="spacing" textLength="89.0928" x="576" y="74.292">namespace</text><text fill="#000000" font-family="sans-serif" font-size="14" lengthAdjust="spacing" textLength="13.3506" x="675.0928" y="74.292">&#160;&#160;&#160;</text><line style="stroke:#000000;stroke-width:1.0;" x1="670.0928" x2="670.0928" y1="59.2969" y2="79.5938"/><rect fill="none" height="40.5938" rx="5" ry="5" style="stroke:#000000;stroke-width:1.5;" width="122.4434" x="571" y="39"/><rect fill="#F1F1F1" height="20.2969" rx="5" ry="5" style="stroke:#F1F1F1;stroke-width:1.5;" width="23.3506" x="730" y="25.3516"/><text fill="#000000" font-family="sans-serif" font-size="14" lengthAdjust="spacing" textLength="13.3506" x="735" y="40.3467">&#160;&#160;&#160;</text><rect fill="none" height="20.2969" rx="5" ry="5" style="stroke:#000000;stroke-width:1.5;" width="23.3506" x="730" y="25.3516"/><rect fill="#F1F1F1" height="40.5938" rx="5" ry="5" style="stroke:#F1F1F1;stroke-width:1.5;" width="89.1865" x="814.5" y="10"/><text fill="#000000" font-family="sans-serif" font-size="14" font-weight="bold" lengthAdjust="spacing" textLength="27.9316" x="819.5" y="24.9951">key</text><text fill="#000000" font-family="sans-serif" font-size="14" lengthAdjust="spacing" textLength="26.3525" x="872.334" y="24.9951">app</text><line style="stroke:#000000;stroke-width:1.0;" x1="867.334" x2="867.334" y1="10" y2="30.2969"/><line style="stroke:#000000;stroke-width:1.0;" x1="814.5" x2="903.6865" y1="30.2969" y2="30.2969"/><text fill="#000000" font-family="sans-serif" font-size="14" font-weight="bold" lengthAdjust="spacing" textLength="42.834" x="819.5" y="45.292">value</text><text fill="#000000" font-family="sans-serif" font-size="14" lengthAdjust="spacing" textLength="7" x="872.334" y="45.292">*</text><line style="stroke:#000000;stroke-width:1.0;" x1="867.334" x2="867.334" y1="30.2969" y2="50.5938"/><rect fill="none" height="40.5938" rx="5" ry="5" style="stroke:#000000;stroke-width:1.5;" width="89.1865" x="814.5" y="10"/><rect fill="#F1F1F1" height="20.2969" rx="5" ry="5" style="stroke:#F1F1F1;stroke-width:1.5;" width="23.3506" x="730" y="73.3516"/><text fill="#000000" font-family="sans-serif" font-size="14" lengthAdjust="spacing" textLength="13.3506" x="735" y="88.3467">&#160;&#160;&#160;</text><rect fill="none" height="20.2969" rx="5" ry="5" style="stroke:#000000;stroke-width:1.5;" width="23.3506" x="730" y="73.3516"/><rect fill="#F1F1F1" height="40.5938" rx="5" ry="5" style="stroke:#F1F1F1;stroke-width:1.5;" width="138.3164" x="790" y="69"/><text fill="#000000" font-family="sans-serif" font-size="14" font-weight="bold" lengthAdjust="spacing" textLength="27.9316" x="795" y="83.9951">key</text><text fill="#000000" font-family="sans-serif" font-size="14" lengthAdjust="spacing" textLength="25.7715" x="847.834" y="83.9951">env</text><line style="stroke:#000000;stroke-width:1.0;" x1="842.834" x2="842.834" y1="69" y2="89.2969"/><line style="stroke:#000000;stroke-width:1.0;" x1="790" x2="928.3164" y1="89.2969" y2="89.2969"/><text fill="#000000" font-family="sans-serif" font-size="14" font-weight="bold" lengthAdjust="spacing" textLength="42.834" x="795" y="104.292">value</text><text fill="#000000" font-family="sans-serif" font-size="14" lengthAdjust="spacing" textLength="75.4824" x="847.834" y="104.292">production</text><line style="stroke:#000000;stroke-width:1.0;" x1="842.834" x2="842.834" y1="89.2969" y2="109.5938"/><rect fill="none" height="40.5938" rx="5" ry="5" style="stroke:#000000;stroke-width:1.5;" width="138.3164" x="790" y="69"/><rect fill="#F1F1F1" height="40.5938" rx="5" ry="5" style="stroke:#F1F1F1;stroke-width:1.5;" width="234.8193" x="299" y="88"/><text fill="#000000" font-family="sans-serif" font-size="14" font-weight="bold" lengthAdjust="spacing" textLength="105.957" x="304" y="102.9951">isHostCluster</text><text fill="#000000" font-family="sans-serif" font-size="14" lengthAdjust="spacing" textLength="50.3057" x="448.4014" y="102.9951">&#9744; false</text><line style="stroke:#000000;stroke-width:1.0;" x1="443.4014" x2="443.4014" y1="88" y2="108.2969"/><line style="stroke:#000000;stroke-width:1.0;" x1="299" x2="533.8193" y1="108.2969" y2="108.2969"/><text fill="#000000" font-family="sans-serif" font-size="14" font-weight="bold" lengthAdjust="spacing" textLength="134.4014" x="304" y="123.292">resourceSelector</text><text fill="#000000" font-family="sans-serif" font-size="14" lengthAdjust="spacing" textLength="80.418" x="448.4014" y="123.292">10.0.0.0/16</text><line style="stroke:#000000;stroke-width:1.0;" x1="443.4014" x2="443.4014" y1="108.2969" y2="128.5938"/><rect fill="none" height="40.5938" rx="5" ry="5" style="stroke:#000000;stroke-width:1.5;" width="234.8193" x="299" y="88"/><path d="M740.6083,35.5597 L753.5964,35.0023 C766.2527,34.4591 787.3891,33.552 807.3864,32.6937 " fill="none" style="stroke:#000000;stroke-width:1.0;stroke-dasharray:3.0,3.0;"/><path d="M807.5167,35.729 L809.6629,32.596 L807.2562,29.6584 L814.9747,32.368 L807.5167,35.729 " fill="#000000" style="stroke:#000000;stroke-width:1.0;"/><ellipse cx="740.6083" cy="35.5597" fill="#000000" rx="3" ry="3" style="stroke:#000000;stroke-width:1.0;"/><path d="M680.5,49.5 L693.5,49.5 C703.6071,49.5 714.4486,46.5475 723.2185,43.3543 " fill="none" style="stroke:#000000;stroke-width:1.0;stroke-dasharray:3.0,3.0;"/><path d="M724.3385,46.1955 L725.3494,42.5143 L722.0985,40.5131 L730.3215,40.5543 L724.3385,46.1955 " fill="#000000" style="stroke:#000000;stroke-width:1.0;"/><ellipse cx="680.5" cy="49.5" fill="#000000" rx="3" ry="3" style="stroke:#000000;stroke-width:1.0;"/><path d="M740.6136,83.4286 L753.5964,84.0972 C761.0558,84.4814 771.461,85.0173 782.8426,85.6035 " fill="none" style="stroke:#000000;stroke-width:1.0;stroke-dasharray:3.0,3.0;"/><path d="M782.6861,88.6431 L785.1224,85.7209 L782.9992,82.5638 L790.4418,85.9949 L782.6861,88.6431 " fill="#000000" style="stroke:#000000;stroke-width:1.0;"/><ellipse cx="740.6136" cy="83.4286" fill="#000000" rx="3" ry="3" style="stroke:#000000;stroke-width:1.0;"/><path d="M680.5,69.5 L693.5,69.5 C703.6071,69.5 714.4486,72.4525 723.2185,75.6457 " fill="none" style="stroke:#000000;stroke-width:1.0;stroke-dasharray:3.0,3.0;"/><path d="M722.0985,78.4869 L725.3494,76.4857 L724.3385,72.8045 L730.3215,78.4457 L722.0985,78.4869 " fill="#000000" style="stroke:#000000;stroke-width:1.0;"/><ellipse cx="680.5" cy="69.5" fill="#000000" rx="3" ry="3" style="stroke:#000000;stroke-width:1.0;"/><path d="M504,59.5 L517,59.5 C532.0657,59.5 548.2465,59.5 563.5616,59.5 " fill="none" style="stroke:#000000;stroke-width:1.0;stroke-dasharray:3.0,3.0;"/><path d="M563.5616,62.6678 L565.9374,59.5 L563.5616,56.3322 L571.481,59.5 L563.5616,62.6678 " fill="#000000" style="stroke:#000000;stroke-width:1.0;"/><ellipse cx="504" cy="59.5" fill="#000000" rx="3" ry="3" style="stroke:#000000;stroke-width:1.0;"/><path d="M249.5,68.5 L262.5,68.5 C277.6151,68.5 293.5045,67.5814 309.0968,66.1482 " fill="none" style="stroke:#000000;stroke-width:1.0;stroke-dasharray:3.0,3.0;"/><path d="M309.3941,69.1985 L311.3846,65.9252 L308.7996,63.0978 L316.7227,65.405 L309.3941,69.1985 " fill="#000000" style="stroke:#000000;stroke-width:1.0;"/><ellipse cx="249.5" cy="68.5" fill="#000000" rx="3" ry="3" style="stroke:#000000;stroke-width:1.0;"/><path d="M249.5,88.5 L262.5,88.5 C272.03,88.5 281.8651,88.8838 291.7379,89.5449 " fill="none" style="stroke:#000000;stroke-width:1.0;stroke-dasharray:3.0,3.0;"/><path d="M291.5147,92.566 L294.0037,89.7123 L291.9611,86.5238 L299.2906,90.1029 L291.5147,92.566 " fill="#000000" style="stroke:#000000;stroke-width:1.0;"/><ellipse cx="249.5" cy="88.5" fill="#000000" rx="3" ry="3" style="stroke:#000000;stroke-width:1.0;"/><!--SRC=[bLB1JW8n4BttAvgUm02oiY6w9oAeYA341I_6GzqTI7LfD-rq3J7ykzqY8HjKOdjxxytCUvdf6UGQtuoIv9DGzvZaAs0HPVU07qg_tqe4YG5hR5cZh4vAVglsc313PR2VMOEW7ONQGcDFQzWMnP11WafNYhqYLwa3dojW-JuF42z_XtLfaESvQ_oiA7XcVOWJTY3OL92NQWUVtkJSH_ol8P35KKEvLgbDK2Xvr1cfufll3QHWK4ZkM_ovXWNFp94ziA3TylyqwBBVfaoLnb8RXftT5RWKg1ALpTQvJpMSpQOn8nlI0vdwOoBJZ4kSJyQq06rS5ngqpjfdOQjRYpdIaSrekqlR5r4GHfrpEf_rQKdNIUrcEgPRepGL1hLujQMBEXdnWjD7Ar6i8A8FESZHu6u7q2jP2AtaoXqh6JrDze9ksBmKI6FGpWbzcf01BBZDq5KaAXLo6RdfryrpCkPoQVdIzGP9-ihrrMl7nLy0]--></g></svg>