<svg xmlns="http://www.w3.org/2000/svg" xmlns:xlink="http://www.w3.org/1999/xlink" contentStyleType="text/css" height="202px" preserveAspectRatio="none" style="width:1524px;height:202px;background:#FFFFFF;" version="1.1" viewBox="0 0 1524 202" width="1524px" zoomAndPan="magnify"><defs/><g><rect fill="#F1F1F1" height="121.7813" rx="5" ry="5" style="stroke:#F1F1F1;stroke-width:1.5;" width="473.4141" x="10" y="47.5938"/><text fill="#000000" font-family="sans-serif" font-size="14" font-weight="bold" lengthAdjust="spacing" textLength="69.8701" x="15" y="62.5889">$schema</text><text fill="#000000" font-family="sans-serif" font-size="14" lengthAdjust="spacing" textLength="291.2793" x="187.1348" y="62.5889">http://json-schema.org/draft-07/schema#</text><line style="stroke:#000000;stroke-width:1.0;" x1="182.1348" x2="182.1348" y1="47.5938" y2="67.8906"/><line style="stroke:#000000;stroke-width:1.0;" x1="10" x2="483.4141" y1="67.8906" y2="67.8906"/><text fill="#000000" font-family="sans-serif" font-size="14" font-weight="bold" lengthAdjust="spacing" textLength="35.335" x="15" y="82.8857">type</text><text fill="#000000" font-family="sans-serif" font-size="14" lengthAdjust="spacing" textLength="43.1416" x="187.1348" y="82.8857">object</text><line style="stroke:#000000;stroke-width:1.0;" x1="182.1348" x2="182.1348" y1="67.8906" y2="88.1875"/><line style="stroke:#000000;stroke-width:1.0;" x1="10" x2="483.4141" y1="88.1875" y2="88.1875"/><text fill="#000000" font-family="sans-serif" font-size="14" font-weight="bold" lengthAdjust="spacing" textLength="32.4775" x="15" y="103.1826">title</text><text fill="#000000" font-family="sans-serif" font-size="14" lengthAdjust="spacing" textLength="92.8662" x="187.1348" y="103.1826">configuration</text><line style="stroke:#000000;stroke-width:1.0;" x1="182.1348" x2="182.1348" y1="88.1875" y2="108.4844"/><line style="stroke:#000000;stroke-width:1.0;" x1="10" x2="483.4141" y1="108.4844" y2="108.4844"/><text fill="#000000" font-family="sans-serif" font-size="14" font-weight="bold" lengthAdjust="spacing" textLength="82.2842" x="15" y="123.4795">properties</text><text fill="#000000" font-family="sans-serif" font-size="14" lengthAdjust="spacing" textLength="13.3506" x="187.1348" y="123.4795">&#160;&#160;&#160;</text><line style="stroke:#000000;stroke-width:1.0;" x1="182.1348" x2="182.1348" y1="108.4844" y2="128.7813"/><line style="stroke:#000000;stroke-width:1.0;" x1="10" x2="483.4141" y1="128.7813" y2="128.7813"/><text fill="#000000" font-family="sans-serif" font-size="14" font-weight="bold" lengthAdjust="spacing" textLength="67.6074" x="15" y="143.7764">required</text><text fill="#000000" font-family="sans-serif" font-size="14" lengthAdjust="spacing" textLength="13.3506" x="187.1348" y="143.7764">&#160;&#160;&#160;</text><line style="stroke:#000000;stroke-width:1.0;" x1="182.1348" x2="182.1348" y1="128.7813" y2="149.0781"/><line style="stroke:#000000;stroke-width:1.0;" x1="10" x2="483.4141" y1="149.0781" y2="149.0781"/><text fill="#000000" font-family="sans-serif" font-size="14" font-weight="bold" lengthAdjust="spacing" textLength="162.1348" x="15" y="164.0732">additionalProperties</text><text fill="#000000" font-family="sans-serif" font-size="14" lengthAdjust="spacing" textLength="50.3057" x="187.1348" y="164.0732">&#9744; false</text><line style="stroke:#000000;stroke-width:1.0;" x1="182.1348" x2="182.1348" y1="149.0781" y2="169.375"/><rect fill="none" height="121.7813" rx="5" ry="5" style="stroke:#000000;stroke-width:1.5;" width="473.4141" x="10" y="47.5938"/><rect fill="#F1F1F1" height="40.5938" rx="5" ry="5" style="stroke:#F1F1F1;stroke-width:1.5;" width="68.959" x="520" y="79.0938"/><text fill="#000000" font-family="sans-serif" font-size="14" font-weight="bold" lengthAdjust="spacing" textLength="35.335" x="525" y="94.0889">type</text><text fill="#000000" font-family="sans-serif" font-size="14" lengthAdjust="spacing" textLength="13.3506" x="570.6084" y="94.0889">&#160;&#160;&#160;</text><line style="stroke:#000000;stroke-width:1.0;" x1="565.6084" x2="565.6084" y1="79.0938" y2="99.3906"/><line style="stroke:#000000;stroke-width:1.0;" x1="520" x2="588.959" y1="99.3906" y2="99.3906"/><text fill="#000000" font-family="sans-serif" font-size="14" font-weight="bold" lengthAdjust="spacing" textLength="35.6084" x="525" y="114.3857">data</text><text fill="#000000" font-family="sans-serif" font-size="14" lengthAdjust="spacing" textLength="13.3506" x="570.6084" y="114.3857">&#160;&#160;&#160;</text><line style="stroke:#000000;stroke-width:1.0;" x1="565.6084" x2="565.6084" y1="99.3906" y2="119.6875"/><rect fill="none" height="40.5938" rx="5" ry="5" style="stroke:#000000;stroke-width:1.5;" width="68.959" x="520" y="79.0938"/><rect fill="#F1F1F1" height="81.1875" rx="5" ry="5" style="stroke:#F1F1F1;stroke-width:1.5;" width="313.3984" x="626" y="10"/><text fill="#000000" font-family="sans-serif" font-size="14" font-weight="bold" lengthAdjust="spacing" textLength="35.335" x="631" y="24.9951">type</text><text fill="#000000" font-family="sans-serif" font-size="14" lengthAdjust="spacing" textLength="40.1885" x="729.9492" y="24.9951">string</text><line style="stroke:#000000;stroke-width:1.0;" x1="724.9492" x2="724.9492" y1="10" y2="30.2969"/><line style="stroke:#000000;stroke-width:1.0;" x1="626" x2="939.3984" y1="30.2969" y2="30.2969"/><text fill="#000000" font-family="sans-serif" font-size="14" font-weight="bold" lengthAdjust="spacing" textLength="32.4775" x="631" y="45.292">title</text><text fill="#000000" font-family="sans-serif" font-size="14" lengthAdjust="spacing" textLength="34.3369" x="729.9492" y="45.292">Type</text><line style="stroke:#000000;stroke-width:1.0;" x1="724.9492" x2="724.9492" y1="30.2969" y2="50.5938"/><line style="stroke:#000000;stroke-width:1.0;" x1="626" x2="939.3984" y1="50.5938" y2="50.5938"/><text fill="#000000" font-family="sans-serif" font-size="14" font-weight="bold" lengthAdjust="spacing" textLength="88.9492" x="631" y="65.5889">description</text><text fill="#000000" font-family="sans-serif" font-size="14" lengthAdjust="spacing" textLength="204.4492" x="729.9492" y="65.5889">The type of the configuration</text><line style="stroke:#000000;stroke-width:1.0;" x1="724.9492" x2="724.9492" y1="50.5938" y2="70.8906"/><line style="stroke:#000000;stroke-width:1.0;" x1="626" x2="939.3984" y1="70.8906" y2="70.8906"/><text fill="#000000" font-family="sans-serif" font-size="14" font-weight="bold" lengthAdjust="spacing" textLength="44.0166" x="631" y="85.8857">enum</text><text fill="#000000" font-family="sans-serif" font-size="14" lengthAdjust="spacing" textLength="13.3506" x="729.9492" y="85.8857">&#160;&#160;&#160;</text><line style="stroke:#000000;stroke-width:1.0;" x1="724.9492" x2="724.9492" y1="70.8906" y2="91.1875"/><rect fill="none" height="81.1875" rx="5" ry="5" style="stroke:#000000;stroke-width:1.5;" width="313.3984" x="626" y="10"/><rect fill="#F1F1F1" height="81.1875" rx="5" ry="5" style="stroke:#F1F1F1;stroke-width:1.5;" width="60.1484" x="976" y="40"/><text fill="#000000" font-family="sans-serif" font-size="14" lengthAdjust="spacing" textLength="48.3984" x="981" y="54.9951">k8slice</text><line style="stroke:#000000;stroke-width:1.0;" x1="976" x2="1036.1484" y1="60.2969" y2="60.2969"/><text fill="#000000" font-family="sans-serif" font-size="14" lengthAdjust="spacing" textLength="21.9229" x="981" y="75.292">vm</text><line style="stroke:#000000;stroke-width:1.0;" x1="976" x2="1036.1484" y1="80.5938" y2="80.5938"/><text fill="#000000" font-family="sans-serif" font-size="14" lengthAdjust="spacing" textLength="50.1484" x="981" y="95.5889">service</text><line style="stroke:#000000;stroke-width:1.0;" x1="976" x2="1036.1484" y1="100.8906" y2="100.8906"/><text fill="#000000" font-family="sans-serif" font-size="14" lengthAdjust="spacing" textLength="46.3955" x="981" y="115.8857">sensor</text><rect fill="none" height="81.1875" rx="5" ry="5" style="stroke:#000000;stroke-width:1.5;" width="60.1484" x="976" y="40"/><rect fill="#F1F1F1" height="81.1875" rx="5" ry="5" style="stroke:#F1F1F1;stroke-width:1.5;" width="268.2881" x="648.5" y="109"/><text fill="#000000" font-family="sans-serif" font-size="14" font-weight="bold" lengthAdjust="spacing" textLength="35.335" x="653.5" y="123.9951">type</text><text fill="#000000" font-family="sans-serif" font-size="14" lengthAdjust="spacing" textLength="43.1416" x="752.4492" y="123.9951">object</text><line style="stroke:#000000;stroke-width:1.0;" x1="747.4492" x2="747.4492" y1="109" y2="129.2969"/><line style="stroke:#000000;stroke-width:1.0;" x1="648.5" x2="916.7881" y1="129.2969" y2="129.2969"/><text fill="#000000" font-family="sans-serif" font-size="14" font-weight="bold" lengthAdjust="spacing" textLength="32.4775" x="653.5" y="144.292">title</text><text fill="#000000" font-family="sans-serif" font-size="14" lengthAdjust="spacing" textLength="33.4277" x="752.4492" y="144.292">Data</text><line style="stroke:#000000;stroke-width:1.0;" x1="747.4492" x2="747.4492" y1="129.2969" y2="149.5938"/><line style="stroke:#000000;stroke-width:1.0;" x1="648.5" x2="916.7881" y1="149.5938" y2="149.5938"/><text fill="#000000" font-family="sans-serif" font-size="14" font-weight="bold" lengthAdjust="spacing" textLength="88.9492" x="653.5" y="164.5889">description</text><text fill="#000000" font-family="sans-serif" font-size="14" lengthAdjust="spacing" textLength="159.3389" x="752.4492" y="164.5889">The configuration data</text><line style="stroke:#000000;stroke-width:1.0;" x1="747.4492" x2="747.4492" y1="149.5938" y2="169.8906"/><line style="stroke:#000000;stroke-width:1.0;" x1="648.5" x2="916.7881" y1="169.8906" y2="169.8906"/><text fill="#000000" font-family="sans-serif" font-size="14" font-weight="bold" lengthAdjust="spacing" textLength="47.0723" x="653.5" y="184.8857">oneOf</text><text fill="#000000" font-family="sans-serif" font-size="14" lengthAdjust="spacing" textLength="13.3506" x="752.4492" y="184.8857">&#160;&#160;&#160;</text><line style="stroke:#000000;stroke-width:1.0;" x1="747.4492" x2="747.4492" y1="169.8906" y2="190.1875"/><rect fill="none" height="81.1875" rx="5" ry="5" style="stroke:#000000;stroke-width:1.5;" width="268.2881" x="648.5" y="109"/><rect fill="#F1F1F1" height="20.2969" rx="5" ry="5" style="stroke:#F1F1F1;stroke-width:1.5;" width="23.3506" x="994.5" y="169.4453"/><text fill="#000000" font-family="sans-serif" font-size="14" lengthAdjust="spacing" textLength="13.3506" x="999.5" y="184.4404">&#160;&#160;&#160;</text><rect fill="none" height="20.2969" rx="5" ry="5" style="stroke:#000000;stroke-width:1.5;" width="23.3506" x="994.5" y="169.4453"/><rect fill="#F1F1F1" height="20.2969" rx="5" ry="5" style="stroke:#F1F1F1;stroke-width:1.5;" width="439.1455" x="1073" y="169.4453"/><text fill="#000000" font-family="sans-serif" font-size="14" font-weight="bold" lengthAdjust="spacing" textLength="32.2314" x="1078" y="184.4404">$ref</text><text fill="#000000" font-family="sans-serif" font-size="14" lengthAdjust="spacing" textLength="386.9141" x="1120.2314" y="184.4404">./configurationTypes/k8slice-configuration.schema.json</text><line style="stroke:#000000;stroke-width:1.0;" x1="1115.2314" x2="1115.2314" y1="169.4453" y2="189.7422"/><rect fill="none" height="20.2969" rx="5" ry="5" style="stroke:#000000;stroke-width:1.5;" width="439.1455" x="1073" y="169.4453"/><rect fill="#F1F1F1" height="40.5938" rx="5" ry="5" style="stroke:#F1F1F1;stroke-width:1.5;" width="41.5342" x="533.5" y="138.0938"/><text fill="#000000" font-family="sans-serif" font-size="14" lengthAdjust="spacing" textLength="31.2744" x="538.5" y="153.0889">type</text><line style="stroke:#000000;stroke-width:1.0;" x1="533.5" x2="575.0342" y1="158.3906" y2="158.3906"/><text fill="#000000" font-family="sans-serif" font-size="14" lengthAdjust="spacing" textLength="31.5342" x="538.5" y="173.3857">data</text><rect fill="none" height="40.5938" rx="5" ry="5" style="stroke:#000000;stroke-width:1.5;" width="41.5342" x="533.5" y="138.0938"/><path d="M927,80.5938 L940,80.5938 C949.3282,80.5938 959.4037,80.5938 968.7897,80.5938 " fill="none" style="stroke:#000000;stroke-width:1.0;stroke-dasharray:3.0,3.0;"/><path d="M968.7897,83.67 L971.0969,80.5938 L968.7897,77.5175 L976.4803,80.5938 L968.7897,83.67 " fill="#000000" style="stroke:#000000;stroke-width:1.0;"/><ellipse cx="927" cy="80.5938" fill="#000000" rx="3" ry="3" style="stroke:#000000;stroke-width:1.0;"/><path d="M577,89.5938 L590,89.5938 C599.3937,89.5938 608.9952,89.1399 618.6502,88.33 " fill="none" style="stroke:#000000;stroke-width:1.0;stroke-dasharray:3.0,3.0;"/><path d="M618.9397,91.4307 L620.9757,88.1129 L618.3606,85.2294 L626.4018,87.6061 L618.9397,91.4307 " fill="#000000" style="stroke:#000000;stroke-width:1.0;"/><ellipse cx="577" cy="89.5938" fill="#000000" rx="3" ry="3" style="stroke:#000000;stroke-width:1.0;"/><path d="M1005.0455,179.5938 L1018.0455,179.5938 C1028.498,179.5938 1045.351,179.5938 1065.699,179.5938 " fill="none" style="stroke:#000000;stroke-width:1.0;stroke-dasharray:3.0,3.0;"/><path d="M1065.699,182.6535 L1067.9938,179.5938 L1065.699,176.534 L1073.3483,179.5938 L1065.699,182.6535 " fill="#000000" style="stroke:#000000;stroke-width:1.0;"/><ellipse cx="1005.0455" cy="179.5938" fill="#000000" rx="3" ry="3" style="stroke:#000000;stroke-width:1.0;"/><path d="M904,179.5938 L917,179.5938 C941.1632,179.5938 969.0374,179.5938 986.9442,179.5938 " fill="none" style="stroke:#000000;stroke-width:1.0;stroke-dasharray:3.0,3.0;"/><path d="M986.9442,182.7658 L989.3232,179.5938 L986.9442,176.4217 L994.8742,179.5938 L986.9442,182.7658 " fill="#000000" style="stroke:#000000;stroke-width:1.0;"/><ellipse cx="904" cy="179.5938" fill="#000000" rx="3" ry="3" style="stroke:#000000;stroke-width:1.0;"/><path d="M577,109.5938 L590,109.5938 C606.6827,109.5938 624.0126,111.059 641.1309,113.4286 " fill="none" style="stroke:#000000;stroke-width:1.0;stroke-dasharray:3.0,3.0;"/><path d="M640.6708,116.5674 L643.4851,113.7737 L641.5911,110.2897 L648.9781,114.5789 L640.6708,116.5674 " fill="#000000" style="stroke:#000000;stroke-width:1.0;"/><ellipse cx="577" cy="109.5938" fill="#000000" rx="3" ry="3" style="stroke:#000000;stroke-width:1.0;"/><path d="M471,118.5938 L484,118.5938 C493.5388,118.5938 503.5615,116.9302 512.9465,114.5876 " fill="none" style="stroke:#000000;stroke-width:1.0;stroke-dasharray:3.0,3.0;"/><path d="M513.7487,117.5349 L515.1571,113.9859 L512.1443,111.6402 L520.315,112.582 L513.7487,117.5349 " fill="#000000" style="stroke:#000000;stroke-width:1.0;"/><ellipse cx="471" cy="118.5938" fill="#000000" rx="3" ry="3" style="stroke:#000000;stroke-width:1.0;"/><path d="M471,138.5938 L484,138.5938 C498.4747,138.5938 514.0077,142.5963 526.7553,147.0203 " fill="none" style="stroke:#000000;stroke-width:1.0;stroke-dasharray:3.0,3.0;"/><path d="M525.7047,149.8822 L528.9017,147.8082 L527.8058,144.1584 L533.9099,149.6467 L525.7047,149.8822 " fill="#000000" style="stroke:#000000;stroke-width:1.0;"/><ellipse cx="471" cy="138.5938" fill="#000000" rx="3" ry="3" style="stroke:#000000;stroke-width:1.0;"/><!--SRC=[XLFBRjim4BppAnPg3mbGIqvgkAvEGUEsW6iZHftaKkJ0Y2kPgKIgv4f04FZVGqf-oGzK9t9cPtOnMjvOuePUh5RiZO7xWeysMMB1WnY29L4PHv5dUoqQQfD5ml2KUlqlKOjz23wrIdejqSlqymicj4KbvGsSQ9NAh3ASf5ORjZIwH4CIhIjf9zZtsY6T3fQCLDdQOyTkEjtxiWDIe4sCB9lUlcI9uDr0fq3kV6guhHPLLJZHdmxQC7z7DfV9ORE6gejJg4LJdn5OL5QRe4CyRM-hdI8GdFZvS3hn7uSpzkB_XzC91CG9aLPubvwCvUq8QJVBeAyFmgXZxl-MZTP9zZfKkDuwlu71aUdgN5HiBx30uBzA6XITITkm3YDjhazh7HT2-XbuFj_VqPJd5jcAiHjKedatR9vpHG-pATHeh4_hAhpkNm_2uSM24qog7Ff3w7-DhmRnvn4ytD-2fo_PnS_v5AokJ88WfD_fvyftl6GJNdFuNIcI1SPmLwAQZ7zj0FYkQccqAb0HcppETWN3GU-R95Yu7KC3ZpCsnfHNEJb5eeLxCR7h_gCtObEkiefdpXiLkzNErxmwRl4E]--></g></svg>