<svg xmlns="http://www.w3.org/2000/svg" xmlns:xlink="http://www.w3.org/1999/xlink" contentStyleType="text/css" height="416px" preserveAspectRatio="none" style="width:1244px;height:416px;background:#FFFFFF;" version="1.1" viewBox="0 0 1244 416" width="1244px" zoomAndPan="magnify"><defs/><g><rect fill="#F1F1F1" height="81.1875" rx="5" ry="5" style="stroke:#F1F1F1;stroke-width:1.5;" width="393.5635" x="10" y="136.9063"/><text fill="#000000" font-family="sans-serif" font-size="14" font-weight="bold" lengthAdjust="spacing" textLength="69.8701" x="15" y="151.9014">$schema</text><text fill="#000000" font-family="sans-serif" font-size="14" lengthAdjust="spacing" textLength="291.2793" x="107.2842" y="151.9014">http://json-schema.org/draft-07/schema#</text><line style="stroke:#000000;stroke-width:1.0;" x1="102.2842" x2="102.2842" y1="136.9063" y2="157.2031"/><line style="stroke:#000000;stroke-width:1.0;" x1="10" x2="403.5635" y1="157.2031" y2="157.2031"/><text fill="#000000" font-family="sans-serif" font-size="14" font-weight="bold" lengthAdjust="spacing" textLength="35.335" x="15" y="172.1982">type</text><text fill="#000000" font-family="sans-serif" font-size="14" lengthAdjust="spacing" textLength="43.1416" x="107.2842" y="172.1982">object</text><line style="stroke:#000000;stroke-width:1.0;" x1="102.2842" x2="102.2842" y1="157.2031" y2="177.5"/><line style="stroke:#000000;stroke-width:1.0;" x1="10" x2="403.5635" y1="177.5" y2="177.5"/><text fill="#000000" font-family="sans-serif" font-size="14" font-weight="bold" lengthAdjust="spacing" textLength="32.4775" x="15" y="192.4951">title</text><text fill="#000000" font-family="sans-serif" font-size="14" lengthAdjust="spacing" textLength="60.2246" x="107.2842" y="192.4951">Contract</text><line style="stroke:#000000;stroke-width:1.0;" x1="102.2842" x2="102.2842" y1="177.5" y2="197.7969"/><line style="stroke:#000000;stroke-width:1.0;" x1="10" x2="403.5635" y1="197.7969" y2="197.7969"/><text fill="#000000" font-family="sans-serif" font-size="14" font-weight="bold" lengthAdjust="spacing" textLength="82.2842" x="15" y="212.792">properties</text><text fill="#000000" font-family="sans-serif" font-size="14" lengthAdjust="spacing" textLength="13.3506" x="107.2842" y="212.792">&#160;&#160;&#160;</text><line style="stroke:#000000;stroke-width:1.0;" x1="102.2842" x2="102.2842" y1="197.7969" y2="218.0938"/><rect fill="none" height="81.1875" rx="5" ry="5" style="stroke:#000000;stroke-width:1.5;" width="393.5635" x="10" y="136.9063"/><rect fill="#F1F1F1" height="142.0781" rx="5" ry="5" style="stroke:#F1F1F1;stroke-width:1.5;" width="173.1387" x="441" y="136.4609"/><text fill="#000000" font-family="sans-serif" font-size="14" font-weight="bold" lengthAdjust="spacing" textLength="84.7246" x="446" y="151.4561">ContractID</text><text fill="#000000" font-family="sans-serif" font-size="14" lengthAdjust="spacing" textLength="13.3506" x="595.7881" y="151.4561">&#160;&#160;&#160;</text><line style="stroke:#000000;stroke-width:1.0;" x1="590.7881" x2="590.7881" y1="136.4609" y2="156.7578"/><line style="stroke:#000000;stroke-width:1.0;" x1="441" x2="614.1387" y1="156.7578" y2="156.7578"/><text fill="#000000" font-family="sans-serif" font-size="14" font-weight="bold" lengthAdjust="spacing" textLength="49.458" x="446" y="171.7529">Flavor</text><text fill="#000000" font-family="sans-serif" font-size="14" lengthAdjust="spacing" textLength="13.3506" x="595.7881" y="171.7529">&#160;&#160;&#160;</text><line style="stroke:#000000;stroke-width:1.0;" x1="590.7881" x2="590.7881" y1="156.7578" y2="177.0547"/><line style="stroke:#000000;stroke-width:1.0;" x1="441" x2="614.1387" y1="177.0547" y2="177.0547"/><text fill="#000000" font-family="sans-serif" font-size="14" font-weight="bold" lengthAdjust="spacing" textLength="46.1631" x="446" y="192.0498">Buyer</text><text fill="#000000" font-family="sans-serif" font-size="14" lengthAdjust="spacing" textLength="13.3506" x="595.7881" y="192.0498">&#160;&#160;&#160;</text><line style="stroke:#000000;stroke-width:1.0;" x1="590.7881" x2="590.7881" y1="177.0547" y2="197.3516"/><line style="stroke:#000000;stroke-width:1.0;" x1="441" x2="614.1387" y1="197.3516" y2="197.3516"/><text fill="#000000" font-family="sans-serif" font-size="14" font-weight="bold" lengthAdjust="spacing" textLength="45.5752" x="446" y="212.3467">Seller</text><text fill="#000000" font-family="sans-serif" font-size="14" lengthAdjust="spacing" textLength="13.3506" x="595.7881" y="212.3467">&#160;&#160;&#160;</text><line style="stroke:#000000;stroke-width:1.0;" x1="590.7881" x2="590.7881" y1="197.3516" y2="217.6484"/><line style="stroke:#000000;stroke-width:1.0;" x1="441" x2="614.1387" y1="217.6484" y2="217.6484"/><text fill="#000000" font-family="sans-serif" font-size="14" font-weight="bold" lengthAdjust="spacing" textLength="119.2734" x="446" y="232.6436">ExpirationTime</text><text fill="#000000" font-family="sans-serif" font-size="14" lengthAdjust="spacing" textLength="13.3506" x="595.7881" y="232.6436">&#160;&#160;&#160;</text><line style="stroke:#000000;stroke-width:1.0;" x1="590.7881" x2="590.7881" y1="217.6484" y2="237.9453"/><line style="stroke:#000000;stroke-width:1.0;" x1="441" x2="614.1387" y1="237.9453" y2="237.9453"/><text fill="#000000" font-family="sans-serif" font-size="14" font-weight="bold" lengthAdjust="spacing" textLength="90.2275" x="446" y="252.9404">Credentials</text><text fill="#000000" font-family="sans-serif" font-size="14" lengthAdjust="spacing" textLength="13.3506" x="595.7881" y="252.9404">&#160;&#160;&#160;</text><line style="stroke:#000000;stroke-width:1.0;" x1="590.7881" x2="590.7881" y1="237.9453" y2="258.2422"/><line style="stroke:#000000;stroke-width:1.0;" x1="441" x2="614.1387" y1="258.2422" y2="258.2422"/><text fill="#000000" font-family="sans-serif" font-size="14" font-weight="bold" lengthAdjust="spacing" textLength="139.7881" x="446" y="273.2373">NetworkRequests</text><text fill="#000000" font-family="sans-serif" font-size="14" lengthAdjust="spacing" textLength="13.3506" x="595.7881" y="273.2373">&#160;&#160;&#160;</text><line style="stroke:#000000;stroke-width:1.0;" x1="590.7881" x2="590.7881" y1="258.2422" y2="278.5391"/><rect fill="none" height="142.0781" rx="5" ry="5" style="stroke:#000000;stroke-width:1.5;" width="173.1387" x="441" y="136.4609"/><rect fill="#F1F1F1" height="40.5938" rx="5" ry="5" style="stroke:#F1F1F1;stroke-width:1.5;" width="216.9434" x="833" y="10"/><text fill="#000000" font-family="sans-serif" font-size="14" font-weight="bold" lengthAdjust="spacing" textLength="35.335" x="838" y="24.9951">type</text><text fill="#000000" font-family="sans-serif" font-size="14" lengthAdjust="spacing" textLength="40.1885" x="936.9492" y="24.9951">string</text><line style="stroke:#000000;stroke-width:1.0;" x1="931.9492" x2="931.9492" y1="10" y2="30.2969"/><line style="stroke:#000000;stroke-width:1.0;" x1="833" x2="1049.9434" y1="30.2969" y2="30.2969"/><text fill="#000000" font-family="sans-serif" font-size="14" font-weight="bold" lengthAdjust="spacing" textLength="88.9492" x="838" y="45.292">description</text><text fill="#000000" font-family="sans-serif" font-size="14" lengthAdjust="spacing" textLength="107.9941" x="936.9492" y="45.292">The contract ID</text><line style="stroke:#000000;stroke-width:1.0;" x1="931.9492" x2="931.9492" y1="30.2969" y2="50.5938"/><rect fill="none" height="40.5938" rx="5" ry="5" style="stroke:#000000;stroke-width:1.5;" width="216.9434" x="833" y="10"/><rect fill="#F1F1F1" height="40.5938" rx="5" ry="5" style="stroke:#F1F1F1;stroke-width:1.5;" width="287.4082" x="798" y="69"/><text fill="#000000" font-family="sans-serif" font-size="14" font-weight="bold" lengthAdjust="spacing" textLength="32.2314" x="803" y="83.9951">$ref</text><text fill="#000000" font-family="sans-serif" font-size="14" lengthAdjust="spacing" textLength="141.3877" x="901.9492" y="83.9951">./flavor.schema.json</text><line style="stroke:#000000;stroke-width:1.0;" x1="896.9492" x2="896.9492" y1="69" y2="89.2969"/><line style="stroke:#000000;stroke-width:1.0;" x1="798" x2="1085.4082" y1="89.2969" y2="89.2969"/><text fill="#000000" font-family="sans-serif" font-size="14" font-weight="bold" lengthAdjust="spacing" textLength="88.9492" x="803" y="104.292">description</text><text fill="#000000" font-family="sans-serif" font-size="14" lengthAdjust="spacing" textLength="178.459" x="901.9492" y="104.292">The flavor of the contract</text><line style="stroke:#000000;stroke-width:1.0;" x1="896.9492" x2="896.9492" y1="89.2969" y2="109.5938"/><rect fill="none" height="40.5938" rx="5" ry="5" style="stroke:#000000;stroke-width:1.5;" width="287.4082" x="798" y="69"/><rect fill="#F1F1F1" height="40.5938" rx="5" ry="5" style="stroke:#F1F1F1;stroke-width:1.5;" width="294.5723" x="794" y="128"/><text fill="#000000" font-family="sans-serif" font-size="14" font-weight="bold" lengthAdjust="spacing" textLength="32.2314" x="799" y="142.9951">$ref</text><text fill="#000000" font-family="sans-serif" font-size="14" lengthAdjust="spacing" textLength="185.623" x="897.9492" y="142.9951">node-identity.schema.json</text><line style="stroke:#000000;stroke-width:1.0;" x1="892.9492" x2="892.9492" y1="128" y2="148.2969"/><line style="stroke:#000000;stroke-width:1.0;" x1="794" x2="1088.5723" y1="148.2969" y2="148.2969"/><text fill="#000000" font-family="sans-serif" font-size="14" font-weight="bold" lengthAdjust="spacing" textLength="88.9492" x="799" y="163.292">description</text><text fill="#000000" font-family="sans-serif" font-size="14" lengthAdjust="spacing" textLength="178.8691" x="897.9492" y="163.292">The buyer of the contract</text><line style="stroke:#000000;stroke-width:1.0;" x1="892.9492" x2="892.9492" y1="148.2969" y2="168.5938"/><rect fill="none" height="40.5938" rx="5" ry="5" style="stroke:#000000;stroke-width:1.5;" width="294.5723" x="794" y="128"/><rect fill="#F1F1F1" height="40.5938" rx="5" ry="5" style="stroke:#F1F1F1;stroke-width:1.5;" width="294.5723" x="794" y="187"/><text fill="#000000" font-family="sans-serif" font-size="14" font-weight="bold" lengthAdjust="spacing" textLength="32.2314" x="799" y="201.9951">$ref</text><text fill="#000000" font-family="sans-serif" font-size="14" lengthAdjust="spacing" textLength="185.623" x="897.9492" y="201.9951">node-identity.schema.json</text><line style="stroke:#000000;stroke-width:1.0;" x1="892.9492" x2="892.9492" y1="187" y2="207.2969"/><line style="stroke:#000000;stroke-width:1.0;" x1="794" x2="1088.5723" y1="207.2969" y2="207.2969"/><text fill="#000000" font-family="sans-serif" font-size="14" font-weight="bold" lengthAdjust="spacing" textLength="88.9492" x="799" y="222.292">description</text><text fill="#000000" font-family="sans-serif" font-size="14" lengthAdjust="spacing" textLength="176.5107" x="897.9492" y="222.292">The seller of the contract</text><line style="stroke:#000000;stroke-width:1.0;" x1="892.9492" x2="892.9492" y1="207.2969" y2="227.5938"/><rect fill="none" height="40.5938" rx="5" ry="5" style="stroke:#000000;stroke-width:1.5;" width="294.5723" x="794" y="187"/><rect fill="#F1F1F1" height="60.8906" rx="5" ry="5" style="stroke:#F1F1F1;stroke-width:1.5;" width="354.3115" x="764.5" y="246"/><text fill="#000000" font-family="sans-serif" font-size="14" font-weight="bold" lengthAdjust="spacing" textLength="35.335" x="769.5" y="260.9951">type</text><text fill="#000000" font-family="sans-serif" font-size="14" lengthAdjust="spacing" textLength="40.1885" x="868.4492" y="260.9951">string</text><line style="stroke:#000000;stroke-width:1.0;" x1="863.4492" x2="863.4492" y1="246" y2="266.2969"/><line style="stroke:#000000;stroke-width:1.0;" x1="764.5" x2="1118.8115" y1="266.2969" y2="266.2969"/><text fill="#000000" font-family="sans-serif" font-size="14" font-weight="bold" lengthAdjust="spacing" textLength="53.3408" x="769.5" y="281.292">format</text><text fill="#000000" font-family="sans-serif" font-size="14" lengthAdjust="spacing" textLength="68.25" x="868.4492" y="281.292">date-time</text><line style="stroke:#000000;stroke-width:1.0;" x1="863.4492" x2="863.4492" y1="266.2969" y2="286.5938"/><line style="stroke:#000000;stroke-width:1.0;" x1="764.5" x2="1118.8115" y1="286.5938" y2="286.5938"/><text fill="#000000" font-family="sans-serif" font-size="14" font-weight="bold" lengthAdjust="spacing" textLength="88.9492" x="769.5" y="301.5889">description</text><text fill="#000000" font-family="sans-serif" font-size="14" lengthAdjust="spacing" textLength="245.3623" x="868.4492" y="301.5889">The expiration time of the contract</text><line style="stroke:#000000;stroke-width:1.0;" x1="863.4492" x2="863.4492" y1="286.5938" y2="306.8906"/><rect fill="none" height="60.8906" rx="5" ry="5" style="stroke:#000000;stroke-width:1.5;" width="354.3115" x="764.5" y="246"/><rect fill="#F1F1F1" height="20.2969" rx="5" ry="5" style="stroke:#F1F1F1;stroke-width:1.5;" width="334.6104" x="774" y="325.3516"/><text fill="#000000" font-family="sans-serif" font-size="14" font-weight="bold" lengthAdjust="spacing" textLength="32.2314" x="779" y="340.3467">$ref</text><text fill="#000000" font-family="sans-serif" font-size="14" lengthAdjust="spacing" textLength="282.3789" x="821.2314" y="340.3467">credentials/liqo-credentials.schema.json</text><line style="stroke:#000000;stroke-width:1.0;" x1="816.2314" x2="816.2314" y1="325.3516" y2="345.6484"/><rect fill="none" height="20.2969" rx="5" ry="5" style="stroke:#000000;stroke-width:1.5;" width="334.6104" x="774" y="325.3516"/><rect fill="#F1F1F1" height="40.5938" rx="5" ry="5" style="stroke:#F1F1F1;stroke-width:1.5;" width="581.1689" x="651" y="364"/><text fill="#000000" font-family="sans-serif" font-size="14" font-weight="bold" lengthAdjust="spacing" textLength="35.335" x="656" y="378.9951">type</text><text fill="#000000" font-family="sans-serif" font-size="14" lengthAdjust="spacing" textLength="40.1885" x="754.9492" y="378.9951">string</text><line style="stroke:#000000;stroke-width:1.0;" x1="749.9492" x2="749.9492" y1="364" y2="384.2969"/><line style="stroke:#000000;stroke-width:1.0;" x1="651" x2="1232.1689" y1="384.2969" y2="384.2969"/><text fill="#000000" font-family="sans-serif" font-size="14" font-weight="bold" lengthAdjust="spacing" textLength="88.9492" x="656" y="399.292">description</text><text fill="#000000" font-family="sans-serif" font-size="14" lengthAdjust="spacing" textLength="472.2197" x="754.9492" y="399.292">The name of the ConfigMap containing the network request intents</text><line style="stroke:#000000;stroke-width:1.0;" x1="749.9492" x2="749.9492" y1="384.2969" y2="404.5938"/><rect fill="none" height="40.5938" rx="5" ry="5" style="stroke:#000000;stroke-width:1.5;" width="581.1689" x="651" y="364"/><path d="M602,146.5 L615,146.5 C656.8463,146.5 617.4119,84.4589 651,59.5 C700.2651,22.8917 767.9552,14.4653 825.5478,15.7327 " fill="none" style="stroke:#000000;stroke-width:1.0;stroke-dasharray:3.0,3.0;"/><path d="M825.4567,18.8102 L827.8559,15.801 L825.6389,12.6552 L833.2415,15.9604 L825.4567,18.8102 " fill="#000000" style="stroke:#000000;stroke-width:1.0;"/><ellipse cx="602" cy="146.5" fill="#000000" rx="3" ry="3" style="stroke:#000000;stroke-width:1.0;"/><path d="M602,166.5 L615,166.5 C641.6667,166.5 627.7723,131.599 651,118.5 C692.8351,94.9076 743.5166,84.8237 790.7326,81.4744 " fill="none" style="stroke:#000000;stroke-width:1.0;stroke-dasharray:3.0,3.0;"/><path d="M790.9249,84.4929 L792.9965,81.3301 L790.5403,78.4559 L798.2789,80.9936 L790.9249,84.4929 " fill="#000000" style="stroke:#000000;stroke-width:1.0;"/><ellipse cx="602" cy="166.5" fill="#000000" rx="3" ry="3" style="stroke:#000000;stroke-width:1.0;"/><path d="M602,187.5 L615,187.5 C631.6058,187.5 634.6785,180.5596 651,177.5 C694.7215,169.304 742.6145,163.3172 786.6577,158.9888 " fill="none" style="stroke:#000000;stroke-width:1.0;stroke-dasharray:3.0,3.0;"/><path d="M786.9515,162.0303 L788.9388,158.7684 L786.3638,155.9474 L794.2613,158.2542 L786.9515,162.0303 " fill="#000000" style="stroke:#000000;stroke-width:1.0;"/><ellipse cx="602" cy="187.5" fill="#000000" rx="3" ry="3" style="stroke:#000000;stroke-width:1.0;"/><path d="M602,207.5 L615,207.5 C670.9467,207.5 732.2941,207.5 786.5298,207.5 " fill="none" style="stroke:#000000;stroke-width:1.0;stroke-dasharray:3.0,3.0;"/><path d="M786.5298,210.5418 L788.8111,207.5 L786.5298,204.4582 L794.1342,207.5 L786.5298,210.5418 " fill="#000000" style="stroke:#000000;stroke-width:1.0;"/><ellipse cx="602" cy="207.5" fill="#000000" rx="3" ry="3" style="stroke:#000000;stroke-width:1.0;"/><path d="M602,227.5 L615,227.5 C631.6058,227.5 634.7329,234.1633 651,237.5 C685.1479,244.5044 721.8252,250.5559 757.2226,255.6621 " fill="none" style="stroke:#000000;stroke-width:1.0;stroke-dasharray:3.0,3.0;"/><path d="M756.7925,258.6751 L759.4824,255.9846 L757.6527,252.649 L764.7553,256.7373 L756.7925,258.6751 " fill="#000000" style="stroke:#000000;stroke-width:1.0;"/><ellipse cx="602" cy="227.5" fill="#000000" rx="3" ry="3" style="stroke:#000000;stroke-width:1.0;"/><path d="M602,248.5 L615,248.5 C649.1962,248.5 622.2965,297.9126 651,316.5 C721.465,362.1306 822.8356,356.4731 885.1727,346.9204 " fill="none" style="stroke:#000000;stroke-width:1.0;stroke-dasharray:3.0,3.0;"/><path d="M885.6701,350.0319 L887.5063,346.5474 L884.6754,343.8089 L892.9515,345.677 L885.6701,350.0319 " fill="#000000" style="stroke:#000000;stroke-width:1.0;"/><ellipse cx="602" cy="248.5" fill="#000000" rx="3" ry="3" style="stroke:#000000;stroke-width:1.0;"/><path d="M602,268.5 L615,268.5 C656.436,268.5 617.7327,329.7973 651,354.5 C653.4287,356.3035 655.9021,358.0391 658.4167,359.709 " fill="none" style="stroke:#000000;stroke-width:1.0;stroke-dasharray:3.0,3.0;"/><path d="M656.7093,362.4091 L660.4419,360.9896 L660.1242,357.0088 L665.1671,363.9775 L656.7093,362.4091 " fill="#000000" style="stroke:#000000;stroke-width:1.0;"/><ellipse cx="602" cy="268.5" fill="#000000" rx="3" ry="3" style="stroke:#000000;stroke-width:1.0;"/><path d="M392,207.5 L405,207.5 C414.2756,207.5 423.9479,207.5 433.6097,207.5 " fill="none" style="stroke:#000000;stroke-width:1.0;stroke-dasharray:3.0,3.0;"/><path d="M433.6097,210.5954 L435.9312,207.5 L433.6097,204.4046 L441.3482,207.5 L433.6097,210.5954 " fill="#000000" style="stroke:#000000;stroke-width:1.0;"/><ellipse cx="392" cy="207.5" fill="#000000" rx="3" ry="3" style="stroke:#000000;stroke-width:1.0;"/><!--SRC=[jLJ1Jjj04BtlLunS3Y3XED0efJuX4gYQ9WMHm7rZZvEbpgwP7OT65V_UNJl4YKhR8BK-xE6zcVVUZBq-joo97wpHueS0zmG7DfdZGWOn17Fc8euYpuOrsZ8qYrAI6OVj3r6DlGkEwqvU5UZRpFG14zwWYlCAxXdD91kY85CWiKBhsDgymb_gFlTty1qBowJqRAsqOLEq2Qc2bT6-Q397IDPYuDGsnSzDNt2LowMXNvqE23ClqegoggArNe1VnXw-THEO37WhnUiHBieL_Y61DYc6AaNjDhbwOuofbzulnHZp_7_5i9NsVZaklnUAfE-Ug0M-zHF832qaUpwLZ25xYR_dmuqd-8xzWlO8gst8tFv-QqbJ5ENgqOHRmCuINxNuYlnawDijFfPesVw3-w1bCvwxQ9cQZMHH3IgLTX8LeMjReDeNb6ONsMvb5FNvBCvHfzNVGzpaKlFTQ0XB9EitUT8wRPzsMjt3iMGOb3cqkz3-69zqulTdS3VfWQUFnE6dco5OKrA2a2e_oBJqYO_4G2ubt9RQlv8OhWlKW_wN5m0kzLAHqGkNJ0pkHqr1jnDUA8Onaai2zoFHnqoMERkEnAHknjYvNuLdOYZrh9GpfurQz8pJfPNZnZy1]--></g></svg>