<svg xmlns="http://www.w3.org/2000/svg" xmlns:xlink="http://www.w3.org/1999/xlink" contentStyleType="text/css" height="357px" preserveAspectRatio="none" style="width:997px;height:357px;background:#FFFFFF;" version="1.1" viewBox="0 0 997 357" width="997px" zoomAndPan="magnify"><defs/><g><rect fill="#F1F1F1" height="81.1875" rx="5" ry="5" style="stroke:#F1F1F1;stroke-width:1.5;" width="393.5635" x="10" y="106.9063"/><text fill="#000000" font-family="sans-serif" font-size="14" font-weight="bold" lengthAdjust="spacing" textLength="69.8701" x="15" y="121.9014">$schema</text><text fill="#000000" font-family="sans-serif" font-size="14" lengthAdjust="spacing" textLength="291.2793" x="107.2842" y="121.9014">http://json-schema.org/draft-07/schema#</text><line style="stroke:#000000;stroke-width:1.0;" x1="102.2842" x2="102.2842" y1="106.9063" y2="127.2031"/><line style="stroke:#000000;stroke-width:1.0;" x1="10" x2="403.5635" y1="127.2031" y2="127.2031"/><text fill="#000000" font-family="sans-serif" font-size="14" font-weight="bold" lengthAdjust="spacing" textLength="35.335" x="15" y="142.1982">type</text><text fill="#000000" font-family="sans-serif" font-size="14" lengthAdjust="spacing" textLength="43.1416" x="107.2842" y="142.1982">object</text><line style="stroke:#000000;stroke-width:1.0;" x1="102.2842" x2="102.2842" y1="127.2031" y2="147.5"/><line style="stroke:#000000;stroke-width:1.0;" x1="10" x2="403.5635" y1="147.5" y2="147.5"/><text fill="#000000" font-family="sans-serif" font-size="14" font-weight="bold" lengthAdjust="spacing" textLength="32.4775" x="15" y="162.4951">title</text><text fill="#000000" font-family="sans-serif" font-size="14" lengthAdjust="spacing" textLength="60.2246" x="107.2842" y="162.4951">Contract</text><line style="stroke:#000000;stroke-width:1.0;" x1="102.2842" x2="102.2842" y1="147.5" y2="167.7969"/><line style="stroke:#000000;stroke-width:1.0;" x1="10" x2="403.5635" y1="167.7969" y2="167.7969"/><text fill="#000000" font-family="sans-serif" font-size="14" font-weight="bold" lengthAdjust="spacing" textLength="82.2842" x="15" y="182.792">properties</text><text fill="#000000" font-family="sans-serif" font-size="14" lengthAdjust="spacing" textLength="13.3506" x="107.2842" y="182.792">&#160;&#160;&#160;</text><line style="stroke:#000000;stroke-width:1.0;" x1="102.2842" x2="102.2842" y1="167.7969" y2="188.0938"/><rect fill="none" height="81.1875" rx="5" ry="5" style="stroke:#000000;stroke-width:1.5;" width="393.5635" x="10" y="106.9063"/><rect fill="#F1F1F1" height="121.7813" rx="5" ry="5" style="stroke:#F1F1F1;stroke-width:1.5;" width="152.624" x="441" y="116.5"/><text fill="#000000" font-family="sans-serif" font-size="14" font-weight="bold" lengthAdjust="spacing" textLength="84.7246" x="446" y="131.4951">ContractID</text><text fill="#000000" font-family="sans-serif" font-size="14" lengthAdjust="spacing" textLength="13.3506" x="575.2734" y="131.4951">&#160;&#160;&#160;</text><line style="stroke:#000000;stroke-width:1.0;" x1="570.2734" x2="570.2734" y1="116.5" y2="136.7969"/><line style="stroke:#000000;stroke-width:1.0;" x1="441" x2="593.624" y1="136.7969" y2="136.7969"/><text fill="#000000" font-family="sans-serif" font-size="14" font-weight="bold" lengthAdjust="spacing" textLength="49.458" x="446" y="151.792">Flavor</text><text fill="#000000" font-family="sans-serif" font-size="14" lengthAdjust="spacing" textLength="13.3506" x="575.2734" y="151.792">&#160;&#160;&#160;</text><line style="stroke:#000000;stroke-width:1.0;" x1="570.2734" x2="570.2734" y1="136.7969" y2="157.0938"/><line style="stroke:#000000;stroke-width:1.0;" x1="441" x2="593.624" y1="157.0938" y2="157.0938"/><text fill="#000000" font-family="sans-serif" font-size="14" font-weight="bold" lengthAdjust="spacing" textLength="46.1631" x="446" y="172.0889">Buyer</text><text fill="#000000" font-family="sans-serif" font-size="14" lengthAdjust="spacing" textLength="13.3506" x="575.2734" y="172.0889">&#160;&#160;&#160;</text><line style="stroke:#000000;stroke-width:1.0;" x1="570.2734" x2="570.2734" y1="157.0938" y2="177.3906"/><line style="stroke:#000000;stroke-width:1.0;" x1="441" x2="593.624" y1="177.3906" y2="177.3906"/><text fill="#000000" font-family="sans-serif" font-size="14" font-weight="bold" lengthAdjust="spacing" textLength="45.5752" x="446" y="192.3857">Seller</text><text fill="#000000" font-family="sans-serif" font-size="14" lengthAdjust="spacing" textLength="13.3506" x="575.2734" y="192.3857">&#160;&#160;&#160;</text><line style="stroke:#000000;stroke-width:1.0;" x1="570.2734" x2="570.2734" y1="177.3906" y2="197.6875"/><line style="stroke:#000000;stroke-width:1.0;" x1="441" x2="593.624" y1="197.6875" y2="197.6875"/><text fill="#000000" font-family="sans-serif" font-size="14" font-weight="bold" lengthAdjust="spacing" textLength="119.2734" x="446" y="212.6826">ExpirationTime</text><text fill="#000000" font-family="sans-serif" font-size="14" lengthAdjust="spacing" textLength="13.3506" x="575.2734" y="212.6826">&#160;&#160;&#160;</text><line style="stroke:#000000;stroke-width:1.0;" x1="570.2734" x2="570.2734" y1="197.6875" y2="217.9844"/><line style="stroke:#000000;stroke-width:1.0;" x1="441" x2="593.624" y1="217.9844" y2="217.9844"/><text fill="#000000" font-family="sans-serif" font-size="14" font-weight="bold" lengthAdjust="spacing" textLength="90.2275" x="446" y="232.9795">Credentials</text><text fill="#000000" font-family="sans-serif" font-size="14" lengthAdjust="spacing" textLength="13.3506" x="575.2734" y="232.9795">&#160;&#160;&#160;</text><line style="stroke:#000000;stroke-width:1.0;" x1="570.2734" x2="570.2734" y1="217.9844" y2="238.2813"/><rect fill="none" height="121.7813" rx="5" ry="5" style="stroke:#000000;stroke-width:1.5;" width="152.624" x="441" y="116.5"/><rect fill="#F1F1F1" height="40.5938" rx="5" ry="5" style="stroke:#F1F1F1;stroke-width:1.5;" width="216.9434" x="699.5" y="10"/><text fill="#000000" font-family="sans-serif" font-size="14" font-weight="bold" lengthAdjust="spacing" textLength="35.335" x="704.5" y="24.9951">type</text><text fill="#000000" font-family="sans-serif" font-size="14" lengthAdjust="spacing" textLength="40.1885" x="803.4492" y="24.9951">string</text><line style="stroke:#000000;stroke-width:1.0;" x1="798.4492" x2="798.4492" y1="10" y2="30.2969"/><line style="stroke:#000000;stroke-width:1.0;" x1="699.5" x2="916.4434" y1="30.2969" y2="30.2969"/><text fill="#000000" font-family="sans-serif" font-size="14" font-weight="bold" lengthAdjust="spacing" textLength="88.9492" x="704.5" y="45.292">description</text><text fill="#000000" font-family="sans-serif" font-size="14" lengthAdjust="spacing" textLength="107.9941" x="803.4492" y="45.292">The contract ID</text><line style="stroke:#000000;stroke-width:1.0;" x1="798.4492" x2="798.4492" y1="30.2969" y2="50.5938"/><rect fill="none" height="40.5938" rx="5" ry="5" style="stroke:#000000;stroke-width:1.5;" width="216.9434" x="699.5" y="10"/><rect fill="#F1F1F1" height="40.5938" rx="5" ry="5" style="stroke:#F1F1F1;stroke-width:1.5;" width="287.4082" x="664.5" y="69"/><text fill="#000000" font-family="sans-serif" font-size="14" font-weight="bold" lengthAdjust="spacing" textLength="32.2314" x="669.5" y="83.9951">$ref</text><text fill="#000000" font-family="sans-serif" font-size="14" lengthAdjust="spacing" textLength="141.3877" x="768.4492" y="83.9951">./flavor.schema.json</text><line style="stroke:#000000;stroke-width:1.0;" x1="763.4492" x2="763.4492" y1="69" y2="89.2969"/><line style="stroke:#000000;stroke-width:1.0;" x1="664.5" x2="951.9082" y1="89.2969" y2="89.2969"/><text fill="#000000" font-family="sans-serif" font-size="14" font-weight="bold" lengthAdjust="spacing" textLength="88.9492" x="669.5" y="104.292">description</text><text fill="#000000" font-family="sans-serif" font-size="14" lengthAdjust="spacing" textLength="178.459" x="768.4492" y="104.292">The flavor of the contract</text><line style="stroke:#000000;stroke-width:1.0;" x1="763.4492" x2="763.4492" y1="89.2969" y2="109.5938"/><rect fill="none" height="40.5938" rx="5" ry="5" style="stroke:#000000;stroke-width:1.5;" width="287.4082" x="664.5" y="69"/><rect fill="#F1F1F1" height="40.5938" rx="5" ry="5" style="stroke:#F1F1F1;stroke-width:1.5;" width="294.5723" x="660.5" y="128"/><text fill="#000000" font-family="sans-serif" font-size="14" font-weight="bold" lengthAdjust="spacing" textLength="32.2314" x="665.5" y="142.9951">$ref</text><text fill="#000000" font-family="sans-serif" font-size="14" lengthAdjust="spacing" textLength="185.623" x="764.4492" y="142.9951">node-identity.schema.json</text><line style="stroke:#000000;stroke-width:1.0;" x1="759.4492" x2="759.4492" y1="128" y2="148.2969"/><line style="stroke:#000000;stroke-width:1.0;" x1="660.5" x2="955.0723" y1="148.2969" y2="148.2969"/><text fill="#000000" font-family="sans-serif" font-size="14" font-weight="bold" lengthAdjust="spacing" textLength="88.9492" x="665.5" y="163.292">description</text><text fill="#000000" font-family="sans-serif" font-size="14" lengthAdjust="spacing" textLength="178.8691" x="764.4492" y="163.292">The buyer of the contract</text><line style="stroke:#000000;stroke-width:1.0;" x1="759.4492" x2="759.4492" y1="148.2969" y2="168.5938"/><rect fill="none" height="40.5938" rx="5" ry="5" style="stroke:#000000;stroke-width:1.5;" width="294.5723" x="660.5" y="128"/><rect fill="#F1F1F1" height="40.5938" rx="5" ry="5" style="stroke:#F1F1F1;stroke-width:1.5;" width="294.5723" x="660.5" y="187"/><text fill="#000000" font-family="sans-serif" font-size="14" font-weight="bold" lengthAdjust="spacing" textLength="32.2314" x="665.5" y="201.9951">$ref</text><text fill="#000000" font-family="sans-serif" font-size="14" lengthAdjust="spacing" textLength="185.623" x="764.4492" y="201.9951">node-identity.schema.json</text><line style="stroke:#000000;stroke-width:1.0;" x1="759.4492" x2="759.4492" y1="187" y2="207.2969"/><line style="stroke:#000000;stroke-width:1.0;" x1="660.5" x2="955.0723" y1="207.2969" y2="207.2969"/><text fill="#000000" font-family="sans-serif" font-size="14" font-weight="bold" lengthAdjust="spacing" textLength="88.9492" x="665.5" y="222.292">description</text><text fill="#000000" font-family="sans-serif" font-size="14" lengthAdjust="spacing" textLength="176.5107" x="764.4492" y="222.292">The seller of the contract</text><line style="stroke:#000000;stroke-width:1.0;" x1="759.4492" x2="759.4492" y1="207.2969" y2="227.5938"/><rect fill="none" height="40.5938" rx="5" ry="5" style="stroke:#000000;stroke-width:1.5;" width="294.5723" x="660.5" y="187"/><rect fill="#F1F1F1" height="60.8906" rx="5" ry="5" style="stroke:#F1F1F1;stroke-width:1.5;" width="354.3115" x="631" y="246"/><text fill="#000000" font-family="sans-serif" font-size="14" font-weight="bold" lengthAdjust="spacing" textLength="35.335" x="636" y="260.9951">type</text><text fill="#000000" font-family="sans-serif" font-size="14" lengthAdjust="spacing" textLength="40.1885" x="734.9492" y="260.9951">string</text><line style="stroke:#000000;stroke-width:1.0;" x1="729.9492" x2="729.9492" y1="246" y2="266.2969"/><line style="stroke:#000000;stroke-width:1.0;" x1="631" x2="985.3115" y1="266.2969" y2="266.2969"/><text fill="#000000" font-family="sans-serif" font-size="14" font-weight="bold" lengthAdjust="spacing" textLength="53.3408" x="636" y="281.292">format</text><text fill="#000000" font-family="sans-serif" font-size="14" lengthAdjust="spacing" textLength="68.25" x="734.9492" y="281.292">date-time</text><line style="stroke:#000000;stroke-width:1.0;" x1="729.9492" x2="729.9492" y1="266.2969" y2="286.5938"/><line style="stroke:#000000;stroke-width:1.0;" x1="631" x2="985.3115" y1="286.5938" y2="286.5938"/><text fill="#000000" font-family="sans-serif" font-size="14" font-weight="bold" lengthAdjust="spacing" textLength="88.9492" x="636" y="301.5889">description</text><text fill="#000000" font-family="sans-serif" font-size="14" lengthAdjust="spacing" textLength="245.3623" x="734.9492" y="301.5889">The expiration time of the contract</text><line style="stroke:#000000;stroke-width:1.0;" x1="729.9492" x2="729.9492" y1="286.5938" y2="306.8906"/><rect fill="none" height="60.8906" rx="5" ry="5" style="stroke:#000000;stroke-width:1.5;" width="354.3115" x="631" y="246"/><rect fill="#F1F1F1" height="20.2969" rx="5" ry="5" style="stroke:#F1F1F1;stroke-width:1.5;" width="334.6104" x="640.5" y="325.3516"/><text fill="#000000" font-family="sans-serif" font-size="14" font-weight="bold" lengthAdjust="spacing" textLength="32.2314" x="645.5" y="340.3467">$ref</text><text fill="#000000" font-family="sans-serif" font-size="14" lengthAdjust="spacing" textLength="282.3789" x="687.7314" y="340.3467">credentials/liqo-credentials.schema.json</text><line style="stroke:#000000;stroke-width:1.0;" x1="682.7314" x2="682.7314" y1="325.3516" y2="345.6484"/><rect fill="none" height="20.2969" rx="5" ry="5" style="stroke:#000000;stroke-width:1.5;" width="334.6104" x="640.5" y="325.3516"/><path d="M582,126.5 L595,126.5 C628.8041,126.5 603.4934,79.1496 631,59.5 C648.9345,46.6883 670.4915,38.7516 692.2839,33.9715 " fill="none" style="stroke:#000000;stroke-width:1.0;stroke-dasharray:3.0,3.0;"/><path d="M692.8849,36.9293 L694.5022,33.5207 L691.6828,31.0136 L699.6784,32.4689 L692.8849,36.9293 " fill="#000000" style="stroke:#000000;stroke-width:1.0;"/><ellipse cx="582" cy="126.5" fill="#000000" rx="3" ry="3" style="stroke:#000000;stroke-width:1.0;"/><path d="M582,146.5 L595,146.5 C615.2698,146.5 612.4259,126.6159 631,118.5 C639.4199,114.8209 648.2514,111.6049 657.2869,108.7941 " fill="none" style="stroke:#000000;stroke-width:1.0;stroke-dasharray:3.0,3.0;"/><path d="M658.1543,111.7085 L659.4727,108.1435 L656.4195,105.8797 L664.5729,106.6256 L658.1543,111.7085 " fill="#000000" style="stroke:#000000;stroke-width:1.0;"/><ellipse cx="582" cy="146.5" fill="#000000" rx="3" ry="3" style="stroke:#000000;stroke-width:1.0;"/><path d="M582,167.5 L595,167.5 C613.8851,167.5 633.6769,166.7463 653.2651,165.5392 " fill="none" style="stroke:#000000;stroke-width:1.0;stroke-dasharray:3.0,3.0;"/><path d="M653.4588,168.5372 L655.5136,165.3939 L653.0714,162.5412 L660.7602,165.055 L653.4588,168.5372 " fill="#000000" style="stroke:#000000;stroke-width:1.0;"/><ellipse cx="582" cy="167.5" fill="#000000" rx="3" ry="3" style="stroke:#000000;stroke-width:1.0;"/><path d="M582,187.5 L595,187.5 C613.8932,187.5 633.6898,188.2933 653.2806,189.564 " fill="none" style="stroke:#000000;stroke-width:1.0;stroke-dasharray:3.0,3.0;"/><path d="M653.0768,192.5624 L655.5294,189.7169 L653.4845,186.5656 L660.7766,190.0737 L653.0768,192.5624 " fill="#000000" style="stroke:#000000;stroke-width:1.0;"/><ellipse cx="582" cy="187.5" fill="#000000" rx="3" ry="3" style="stroke:#000000;stroke-width:1.0;"/><path d="M582,207.5 L595,207.5 C615.8273,207.5 612.3017,228.3265 631,237.5 C634.9707,239.4481 639.0392,241.2998 643.1826,243.06 " fill="none" style="stroke:#000000;stroke-width:1.0;stroke-dasharray:3.0,3.0;"/><path d="M642.0319,245.8759 L645.2945,243.923 L644.3332,240.2441 L650.2224,245.9366 L642.0319,245.8759 " fill="#000000" style="stroke:#000000;stroke-width:1.0;"/><ellipse cx="582" cy="207.5" fill="#000000" rx="3" ry="3" style="stroke:#000000;stroke-width:1.0;"/><path d="M582,228.5 L595,228.5 C637.2573,228.5 597.2286,291.0998 631,316.5 C633.2899,318.2223 635.6462,319.8445 638.0611,321.3716 " fill="none" style="stroke:#000000;stroke-width:1.0;stroke-dasharray:3.0,3.0;"/><path d="M636.5315,323.9812 L640.0183,322.5188 L639.5907,318.7621 L644.5851,325.1956 L636.5315,323.9812 " fill="#000000" style="stroke:#000000;stroke-width:1.0;"/><ellipse cx="582" cy="228.5" fill="#000000" rx="3" ry="3" style="stroke:#000000;stroke-width:1.0;"/><path d="M392,177.5 L405,177.5 C414.2824,177.5 423.9976,177.5 433.6614,177.5 " fill="none" style="stroke:#000000;stroke-width:1.0;stroke-dasharray:3.0,3.0;"/><path d="M433.6614,180.5919 L435.9803,177.5 L433.6614,174.4081 L441.3912,177.5 L433.6614,180.5919 " fill="#000000" style="stroke:#000000;stroke-width:1.0;"/><ellipse cx="392" cy="177.5" fill="#000000" rx="3" ry="3" style="stroke:#000000;stroke-width:1.0;"/><!--SRC=[jLFBRjim4BppAnPg3WbGIKvgkAbEGUoag6kZGUtaJaihcm5DgikLKQF8lvUK72j6NywXEl0mipip74bNZYNnexD6_13Wd-Z4vIjSooY3QCLSPMaQsBX54qlBj21PSjnxdxROc-XjkydR2iEQNJnYpdjKiMxWeJLCiYCgiXKIAtIURSqR_7dkq-W0Fx1mJCeiTqfxja2NawfOMHE6vYk4V2S6Ncq__DJjHRTQRYpzwdH2M0QH92sRYMHNG2ZZ2Dzs2Mm9_2B5xoDSrrlyIm9Z2unLWSOtkNrbZ4MGFYx53BN-Np5SetrSZfllbI8PjkTgZQ_z14fBQyc1BoHZp47Yt_bmxmbXuxYWGyAc3QdTdrlBkw5KgsysVW4SbDXPYFPy4bTeYkRF57TQ6hwVJc23v4BAy-IYTz5F1gSpoJ2kDVG6qFkGdVUpTvTmFnz2eC_4wSUx2JXRKuvGgD3OeWwtF1DZkP7mjJRXkXbygT2CHv-V0RWn6qNMh7rGCNwOTWE3Vdoj66P8FWayJCK8IrbhzXkvBVpxoBpxRNmf9j8iQxdqscZ4q7fTsdfkzXC0]--></g></svg>