<svg xmlns="http://www.w3.org/2000/svg" xmlns:xlink="http://www.w3.org/1999/xlink" contentStyleType="text/css" height="269px" preserveAspectRatio="none" style="width:1561px;height:269px;background:#FFFFFF;" version="1.1" viewBox="0 0 1561 269" width="1561px" zoomAndPan="magnify"><defs/><g><rect fill="#F1F1F1" height="121.7813" rx="5" ry="5" style="stroke:#F1F1F1;stroke-width:1.5;" width="473.4141" x="10" y="81.5"/><text fill="#000000" font-family="sans-serif" font-size="14" font-weight="bold" lengthAdjust="spacing" textLength="69.8701" x="15" y="96.4951">$schema</text><text fill="#000000" font-family="sans-serif" font-size="14" lengthAdjust="spacing" textLength="291.2793" x="187.1348" y="96.4951">http://json-schema.org/draft-07/schema#</text><line style="stroke:#000000;stroke-width:1.0;" x1="182.1348" x2="182.1348" y1="81.5" y2="101.7969"/><line style="stroke:#000000;stroke-width:1.0;" x1="10" x2="483.4141" y1="101.7969" y2="101.7969"/><text fill="#000000" font-family="sans-serif" font-size="14" font-weight="bold" lengthAdjust="spacing" textLength="35.335" x="15" y="116.792">type</text><text fill="#000000" font-family="sans-serif" font-size="14" lengthAdjust="spacing" textLength="43.1416" x="187.1348" y="116.792">object</text><line style="stroke:#000000;stroke-width:1.0;" x1="182.1348" x2="182.1348" y1="101.7969" y2="122.0938"/><line style="stroke:#000000;stroke-width:1.0;" x1="10" x2="483.4141" y1="122.0938" y2="122.0938"/><text fill="#000000" font-family="sans-serif" font-size="14" font-weight="bold" lengthAdjust="spacing" textLength="32.4775" x="15" y="137.0889">title</text><text fill="#000000" font-family="sans-serif" font-size="14" lengthAdjust="spacing" textLength="90.1934" x="187.1348" y="137.0889">NodeIdentity</text><line style="stroke:#000000;stroke-width:1.0;" x1="182.1348" x2="182.1348" y1="122.0938" y2="142.3906"/><line style="stroke:#000000;stroke-width:1.0;" x1="10" x2="483.4141" y1="142.3906" y2="142.3906"/><text fill="#000000" font-family="sans-serif" font-size="14" font-weight="bold" lengthAdjust="spacing" textLength="82.2842" x="15" y="157.3857">properties</text><text fill="#000000" font-family="sans-serif" font-size="14" lengthAdjust="spacing" textLength="13.3506" x="187.1348" y="157.3857">&#160;&#160;&#160;</text><line style="stroke:#000000;stroke-width:1.0;" x1="182.1348" x2="182.1348" y1="142.3906" y2="162.6875"/><line style="stroke:#000000;stroke-width:1.0;" x1="10" x2="483.4141" y1="162.6875" y2="162.6875"/><text fill="#000000" font-family="sans-serif" font-size="14" font-weight="bold" lengthAdjust="spacing" textLength="67.6074" x="15" y="177.6826">required</text><text fill="#000000" font-family="sans-serif" font-size="14" lengthAdjust="spacing" textLength="13.3506" x="187.1348" y="177.6826">&#160;&#160;&#160;</text><line style="stroke:#000000;stroke-width:1.0;" x1="182.1348" x2="182.1348" y1="162.6875" y2="182.9844"/><line style="stroke:#000000;stroke-width:1.0;" x1="10" x2="483.4141" y1="182.9844" y2="182.9844"/><text fill="#000000" font-family="sans-serif" font-size="14" font-weight="bold" lengthAdjust="spacing" textLength="162.1348" x="15" y="197.9795">additionalProperties</text><text fill="#000000" font-family="sans-serif" font-size="14" lengthAdjust="spacing" textLength="50.3057" x="187.1348" y="197.9795">&#9744; false</text><line style="stroke:#000000;stroke-width:1.0;" x1="182.1348" x2="182.1348" y1="182.9844" y2="203.2813"/><rect fill="none" height="121.7813" rx="5" ry="5" style="stroke:#000000;stroke-width:1.5;" width="473.4141" x="10" y="81.5"/><rect fill="#F1F1F1" height="81.1875" rx="5" ry="5" style="stroke:#F1F1F1;stroke-width:1.5;" width="207.25" x="520" y="77.9063"/><text fill="#000000" font-family="sans-serif" font-size="14" font-weight="bold" lengthAdjust="spacing" textLength="60.04" x="525" y="92.9014">Domain</text><text fill="#000000" font-family="sans-serif" font-size="14" lengthAdjust="spacing" textLength="13.3506" x="708.8994" y="92.9014">&#160;&#160;&#160;</text><line style="stroke:#000000;stroke-width:1.0;" x1="703.8994" x2="703.8994" y1="77.9063" y2="98.2031"/><line style="stroke:#000000;stroke-width:1.0;" x1="520" x2="727.25" y1="98.2031" y2="98.2031"/><text fill="#000000" font-family="sans-serif" font-size="14" font-weight="bold" lengthAdjust="spacing" textLength="57.6816" x="525" y="113.1982">NodeID</text><text fill="#000000" font-family="sans-serif" font-size="14" lengthAdjust="spacing" textLength="13.3506" x="708.8994" y="113.1982">&#160;&#160;&#160;</text><line style="stroke:#000000;stroke-width:1.0;" x1="703.8994" x2="703.8994" y1="98.2031" y2="118.5"/><line style="stroke:#000000;stroke-width:1.0;" x1="520" x2="727.25" y1="118.5" y2="118.5"/><text fill="#000000" font-family="sans-serif" font-size="14" font-weight="bold" lengthAdjust="spacing" textLength="15.4697" x="525" y="133.4951">IP</text><text fill="#000000" font-family="sans-serif" font-size="14" lengthAdjust="spacing" textLength="13.3506" x="708.8994" y="133.4951">&#160;&#160;&#160;</text><line style="stroke:#000000;stroke-width:1.0;" x1="703.8994" x2="703.8994" y1="118.5" y2="138.7969"/><line style="stroke:#000000;stroke-width:1.0;" x1="520" x2="727.25" y1="138.7969" y2="138.7969"/><text fill="#000000" font-family="sans-serif" font-size="14" font-weight="bold" lengthAdjust="spacing" textLength="173.8994" x="525" y="153.792">AdditionalInformation</text><text fill="#000000" font-family="sans-serif" font-size="14" lengthAdjust="spacing" textLength="13.3506" x="708.8994" y="153.792">&#160;&#160;&#160;</text><line style="stroke:#000000;stroke-width:1.0;" x1="703.8994" x2="703.8994" y1="138.7969" y2="159.0938"/><rect fill="none" height="81.1875" rx="5" ry="5" style="stroke:#000000;stroke-width:1.5;" width="207.25" x="520" y="77.9063"/><rect fill="#F1F1F1" height="40.5938" rx="5" ry="5" style="stroke:#F1F1F1;stroke-width:1.5;" width="252.4834" x="828.5" y="10"/><text fill="#000000" font-family="sans-serif" font-size="14" font-weight="bold" lengthAdjust="spacing" textLength="35.335" x="833.5" y="24.9951">type</text><text fill="#000000" font-family="sans-serif" font-size="14" lengthAdjust="spacing" textLength="40.1885" x="932.4492" y="24.9951">string</text><line style="stroke:#000000;stroke-width:1.0;" x1="927.4492" x2="927.4492" y1="10" y2="30.2969"/><line style="stroke:#000000;stroke-width:1.0;" x1="828.5" x2="1080.9834" y1="30.2969" y2="30.2969"/><text fill="#000000" font-family="sans-serif" font-size="14" font-weight="bold" lengthAdjust="spacing" textLength="88.9492" x="833.5" y="45.292">description</text><text fill="#000000" font-family="sans-serif" font-size="14" lengthAdjust="spacing" textLength="143.5342" x="932.4492" y="45.292">Domain of the node.</text><line style="stroke:#000000;stroke-width:1.0;" x1="927.4492" x2="927.4492" y1="30.2969" y2="50.5938"/><rect fill="none" height="40.5938" rx="5" ry="5" style="stroke:#000000;stroke-width:1.5;" width="252.4834" x="828.5" y="10"/><rect fill="#F1F1F1" height="40.5938" rx="5" ry="5" style="stroke:#F1F1F1;stroke-width:1.5;" width="213.0674" x="848" y="69"/><text fill="#000000" font-family="sans-serif" font-size="14" font-weight="bold" lengthAdjust="spacing" textLength="35.335" x="853" y="83.9951">type</text><text fill="#000000" font-family="sans-serif" font-size="14" lengthAdjust="spacing" textLength="40.1885" x="951.9492" y="83.9951">string</text><line style="stroke:#000000;stroke-width:1.0;" x1="946.9492" x2="946.9492" y1="69" y2="89.2969"/><line style="stroke:#000000;stroke-width:1.0;" x1="848" x2="1061.0674" y1="89.2969" y2="89.2969"/><text fill="#000000" font-family="sans-serif" font-size="14" font-weight="bold" lengthAdjust="spacing" textLength="88.9492" x="853" y="104.292">description</text><text fill="#000000" font-family="sans-serif" font-size="14" lengthAdjust="spacing" textLength="104.1182" x="951.9492" y="104.292">ID of the node.</text><line style="stroke:#000000;stroke-width:1.0;" x1="946.9492" x2="946.9492" y1="89.2969" y2="109.5938"/><rect fill="none" height="40.5938" rx="5" ry="5" style="stroke:#000000;stroke-width:1.5;" width="213.0674" x="848" y="69"/><rect fill="#F1F1F1" height="40.5938" rx="5" ry="5" style="stroke:#F1F1F1;stroke-width:1.5;" width="210.7295" x="849" y="128"/><text fill="#000000" font-family="sans-serif" font-size="14" font-weight="bold" lengthAdjust="spacing" textLength="35.335" x="854" y="142.9951">type</text><text fill="#000000" font-family="sans-serif" font-size="14" lengthAdjust="spacing" textLength="40.1885" x="952.9492" y="142.9951">string</text><line style="stroke:#000000;stroke-width:1.0;" x1="947.9492" x2="947.9492" y1="128" y2="148.2969"/><line style="stroke:#000000;stroke-width:1.0;" x1="849" x2="1059.7295" y1="148.2969" y2="148.2969"/><text fill="#000000" font-family="sans-serif" font-size="14" font-weight="bold" lengthAdjust="spacing" textLength="88.9492" x="854" y="163.292">description</text><text fill="#000000" font-family="sans-serif" font-size="14" lengthAdjust="spacing" textLength="101.7803" x="952.9492" y="163.292">IP of the node.</text><line style="stroke:#000000;stroke-width:1.0;" x1="947.9492" x2="947.9492" y1="148.2969" y2="168.5938"/><rect fill="none" height="40.5938" rx="5" ry="5" style="stroke:#000000;stroke-width:1.5;" width="210.7295" x="849" y="128"/><rect fill="#F1F1F1" height="60.8906" rx="5" ry="5" style="stroke:#F1F1F1;stroke-width:1.5;" width="381.0811" x="764" y="187"/><text fill="#000000" font-family="sans-serif" font-size="14" font-weight="bold" lengthAdjust="spacing" textLength="35.335" x="769" y="201.9951">type</text><text fill="#000000" font-family="sans-serif" font-size="14" lengthAdjust="spacing" textLength="43.1416" x="867.9492" y="201.9951">object</text><line style="stroke:#000000;stroke-width:1.0;" x1="862.9492" x2="862.9492" y1="187" y2="207.2969"/><line style="stroke:#000000;stroke-width:1.0;" x1="764" x2="1145.0811" y1="207.2969" y2="207.2969"/><text fill="#000000" font-family="sans-serif" font-size="14" font-weight="bold" lengthAdjust="spacing" textLength="88.9492" x="769" y="222.292">description</text><text fill="#000000" font-family="sans-serif" font-size="14" lengthAdjust="spacing" textLength="272.1318" x="867.9492" y="222.292">Additional information about the node.</text><line style="stroke:#000000;stroke-width:1.0;" x1="862.9492" x2="862.9492" y1="207.2969" y2="227.5938"/><line style="stroke:#000000;stroke-width:1.0;" x1="764" x2="1145.0811" y1="227.5938" y2="227.5938"/><text fill="#000000" font-family="sans-serif" font-size="14" font-weight="bold" lengthAdjust="spacing" textLength="82.2842" x="769" y="242.5889">properties</text><text fill="#000000" font-family="sans-serif" font-size="14" lengthAdjust="spacing" textLength="13.3506" x="867.9492" y="242.5889">&#160;&#160;&#160;</text><line style="stroke:#000000;stroke-width:1.0;" x1="862.9492" x2="862.9492" y1="227.5938" y2="247.8906"/><rect fill="none" height="60.8906" rx="5" ry="5" style="stroke:#000000;stroke-width:1.5;" width="381.0811" x="764" y="187"/><rect fill="#F1F1F1" height="20.2969" rx="5" ry="5" style="stroke:#F1F1F1;stroke-width:1.5;" width="83.54" x="1182" y="227.3516"/><text fill="#000000" font-family="sans-serif" font-size="14" font-weight="bold" lengthAdjust="spacing" textLength="50.1895" x="1187" y="242.3467">LiqoID</text><text fill="#000000" font-family="sans-serif" font-size="14" lengthAdjust="spacing" textLength="13.3506" x="1247.1895" y="242.3467">&#160;&#160;&#160;</text><line style="stroke:#000000;stroke-width:1.0;" x1="1242.1895" x2="1242.1895" y1="227.3516" y2="247.6484"/><rect fill="none" height="20.2969" rx="5" ry="5" style="stroke:#000000;stroke-width:1.5;" width="83.54" x="1182" y="227.3516"/><rect fill="#F1F1F1" height="40.5938" rx="5" ry="5" style="stroke:#F1F1F1;stroke-width:1.5;" width="246.6592" x="1303" y="217"/><text fill="#000000" font-family="sans-serif" font-size="14" font-weight="bold" lengthAdjust="spacing" textLength="35.335" x="1308" y="231.9951">type</text><text fill="#000000" font-family="sans-serif" font-size="14" lengthAdjust="spacing" textLength="40.1885" x="1406.9492" y="231.9951">string</text><line style="stroke:#000000;stroke-width:1.0;" x1="1401.9492" x2="1401.9492" y1="217" y2="237.2969"/><line style="stroke:#000000;stroke-width:1.0;" x1="1303" x2="1549.6592" y1="237.2969" y2="237.2969"/><text fill="#000000" font-family="sans-serif" font-size="14" font-weight="bold" lengthAdjust="spacing" textLength="88.9492" x="1308" y="252.292">description</text><text fill="#000000" font-family="sans-serif" font-size="14" lengthAdjust="spacing" textLength="137.71" x="1406.9492" y="252.292">Liqo ID of the node.</text><line style="stroke:#000000;stroke-width:1.0;" x1="1401.9492" x2="1401.9492" y1="237.2969" y2="257.5938"/><rect fill="none" height="40.5938" rx="5" ry="5" style="stroke:#000000;stroke-width:1.5;" width="246.6592" x="1303" y="217"/><rect fill="#F1F1F1" height="60.8906" rx="5" ry="5" style="stroke:#F1F1F1;stroke-width:1.5;" width="64.3252" x="591.5" y="177"/><text fill="#000000" font-family="sans-serif" font-size="14" lengthAdjust="spacing" textLength="54.3252" x="596.5" y="191.9951">Domain</text><line style="stroke:#000000;stroke-width:1.0;" x1="591.5" x2="655.8252" y1="197.2969" y2="197.2969"/><text fill="#000000" font-family="sans-serif" font-size="14" lengthAdjust="spacing" textLength="51.4473" x="596.5" y="212.292">NodeID</text><line style="stroke:#000000;stroke-width:1.0;" x1="591.5" x2="655.8252" y1="217.5938" y2="217.5938"/><text fill="#000000" font-family="sans-serif" font-size="14" lengthAdjust="spacing" textLength="12.5713" x="596.5" y="232.5889">IP</text><rect fill="none" height="60.8906" rx="5" ry="5" style="stroke:#000000;stroke-width:1.5;" width="64.3252" x="591.5" y="177"/><path d="M715,88.5 L728,88.5 C748.2698,88.5 745.4007,68.5578 764,60.5 C781.9332,52.7308 801.5966,46.9459 821.2621,42.6442 " fill="none" style="stroke:#000000;stroke-width:1.0;stroke-dasharray:3.0,3.0;"/><path d="M821.893,45.6576 L823.5222,42.171 L820.6313,39.6308 L828.7956,41.0671 L821.893,45.6576 " fill="#000000" style="stroke:#000000;stroke-width:1.0;"/><ellipse cx="715" cy="88.5" fill="#000000" rx="3" ry="3" style="stroke:#000000;stroke-width:1.0;"/><path d="M715,108.5 L728,108.5 C764.7598,108.5 804.765,105.9731 840.7597,102.7623 " fill="none" style="stroke:#000000;stroke-width:1.0;stroke-dasharray:3.0,3.0;"/><path d="M841.0376,105.8093 L843.0449,102.5539 L840.4817,99.7154 L848.3771,102.0675 L841.0376,105.8093 " fill="#000000" style="stroke:#000000;stroke-width:1.0;"/><ellipse cx="715" cy="108.5" fill="#000000" rx="3" ry="3" style="stroke:#000000;stroke-width:1.0;"/><path d="M715,128.5 L728,128.5 C765.0495,128.5 805.383,131.2 841.5857,134.6158 " fill="none" style="stroke:#000000;stroke-width:1.0;stroke-dasharray:3.0,3.0;"/><path d="M841.2901,137.6798 L843.8837,134.8375 L841.8813,131.5519 L849.2456,135.3549 L841.2901,137.6798 " fill="#000000" style="stroke:#000000;stroke-width:1.0;"/><ellipse cx="715" cy="128.5" fill="#000000" rx="3" ry="3" style="stroke:#000000;stroke-width:1.0;"/><path d="M1254,237.5 L1267,237.5 C1276.2571,237.5 1285.8174,237.5 1295.4425,237.5 " fill="none" style="stroke:#000000;stroke-width:1.0;stroke-dasharray:3.0,3.0;"/><path d="M1295.4425,240.5914 L1297.7611,237.5 L1295.4425,234.4086 L1303.171,237.5 L1295.4425,240.5914 " fill="#000000" style="stroke:#000000;stroke-width:1.0;"/><ellipse cx="1254" cy="237.5" fill="#000000" rx="3" ry="3" style="stroke:#000000;stroke-width:1.0;"/><path d="M1133,237.5 L1146,237.5 C1155.3427,237.5 1165.319,237.5 1174.8977,237.5 " fill="none" style="stroke:#000000;stroke-width:1.0;stroke-dasharray:3.0,3.0;"/><path d="M1174.8977,240.5308 L1177.1708,237.5 L1174.8977,234.4692 L1182.4748,237.5 L1174.8977,240.5308 " fill="#000000" style="stroke:#000000;stroke-width:1.0;"/><ellipse cx="1133" cy="237.5" fill="#000000" rx="3" ry="3" style="stroke:#000000;stroke-width:1.0;"/><path d="M715,148.5 L728,148.5 C748.8273,148.5 745.2334,169.4672 764,178.5 C768.082,180.4647 772.2596,182.3307 776.5116,184.1028 " fill="none" style="stroke:#000000;stroke-width:1.0;stroke-dasharray:3.0,3.0;"/><path d="M775.3538,186.9917 L778.6783,184.9712 L777.6694,181.2139 L783.7338,186.9974 L775.3538,186.9917 " fill="#000000" style="stroke:#000000;stroke-width:1.0;"/><ellipse cx="715" cy="148.5" fill="#000000" rx="3" ry="3" style="stroke:#000000;stroke-width:1.0;"/><path d="M471,152.5 L484,152.5 C493.5026,152.5 503.2687,151.741 513.0073,150.4497 " fill="none" style="stroke:#000000;stroke-width:1.0;stroke-dasharray:3.0,3.0;"/><path d="M513.4423,153.4245 L515.2384,150.1235 L512.5724,147.4749 L520.4444,149.3623 L513.4423,153.4245 " fill="#000000" style="stroke:#000000;stroke-width:1.0;"/><ellipse cx="471" cy="152.5" fill="#000000" rx="3" ry="3" style="stroke:#000000;stroke-width:1.0;"/><path d="M471,172.5 L484,172.5 C518.8369,172.5 557.1388,182.9661 584.6989,192.4517 " fill="none" style="stroke:#000000;stroke-width:1.0;stroke-dasharray:3.0,3.0;"/><path d="M583.6944,195.3001 L586.8352,193.2051 L585.7034,189.6034 L591.8198,194.9631 L583.6944,195.3001 " fill="#000000" style="stroke:#000000;stroke-width:1.0;"/><ellipse cx="471" cy="172.5" fill="#000000" rx="3" ry="3" style="stroke:#000000;stroke-width:1.0;"/><!--SRC=[fLDDJ-Cm4BtxLuooUm1f-m5KNSY9NGAefTsDjWiNj0StdhH6YHtiIQKAyT-ncv3IXKYLo2b-u_VUw8tdt18tz62rOayCt1TyjSaISnw442o9Yh3NyzLEXNQrMVI4uIbr-jzx5VOb-5OnQLsWf-dv0oRKe9Ao3VnB2nm9L0vOlnOBemiq9D6w6rK36ppIEPTg1zkni6IaMjGgJLMWJOmiI6fFhKL0fq1B1ENikq53UDvogywYJxgDeZsSHl5dNU8zN7u88Js1PoELQfFpcjrYl3ElDkEj9iYjAF2vBkbDF_-9jCotgK_ae_uW-VsoQMlLYqBhE9h0sCUdwg-ECp3uM4g3mkdUltkUxv_GxgWtXt-r4cy2ZD-6alBC8djcvwZ4PWrPd755jzC9hD1Od_5HzxX_FEWE3sQSO5ncq1z2_omy6eGdft3xzm9y-P0TNCSJiBeq2OAGFh5vwGqFsPYlEFmftURb6CBl0jKukda5u5AjfD4gTvl9ndVJxONXeFDJ4ipGk4xWRieYJ7cPaMCaMhXvXCxzgdFA9bmjIhvmsgZOXNQwPkrginS0]--></g></svg>