<svg xmlns="http://www.w3.org/2000/svg" xmlns:xlink="http://www.w3.org/1999/xlink" contentStyleType="text/css" height="180px" preserveAspectRatio="none" style="width:1162px;height:180px;background:#FFFFFF;" version="1.1" viewBox="0 0 1162 180" width="1162px" zoomAndPan="magnify"><defs/><g><rect fill="#F1F1F1" height="121.7813" rx="5" ry="5" style="stroke:#F1F1F1;stroke-width:1.5;" width="473.4141" x="10" y="32.5"/><text fill="#000000" font-family="sans-serif" font-size="14" font-weight="bold" lengthAdjust="spacing" textLength="69.8701" x="15" y="47.4951">$schema</text><text fill="#000000" font-family="sans-serif" font-size="14" lengthAdjust="spacing" textLength="291.2793" x="187.1348" y="47.4951">http://json-schema.org/draft-07/schema#</text><line style="stroke:#000000;stroke-width:1.0;" x1="182.1348" x2="182.1348" y1="32.5" y2="52.7969"/><line style="stroke:#000000;stroke-width:1.0;" x1="10" x2="483.4141" y1="52.7969" y2="52.7969"/><text fill="#000000" font-family="sans-serif" font-size="14" font-weight="bold" lengthAdjust="spacing" textLength="35.335" x="15" y="67.792">type</text><text fill="#000000" font-family="sans-serif" font-size="14" lengthAdjust="spacing" textLength="43.1416" x="187.1348" y="67.792">object</text><line style="stroke:#000000;stroke-width:1.0;" x1="182.1348" x2="182.1348" y1="52.7969" y2="73.0938"/><line style="stroke:#000000;stroke-width:1.0;" x1="10" x2="483.4141" y1="73.0938" y2="73.0938"/><text fill="#000000" font-family="sans-serif" font-size="14" font-weight="bold" lengthAdjust="spacing" textLength="32.4775" x="15" y="88.0889">title</text><text fill="#000000" font-family="sans-serif" font-size="14" lengthAdjust="spacing" textLength="83.6855" x="187.1348" y="88.0889">Reservation</text><line style="stroke:#000000;stroke-width:1.0;" x1="182.1348" x2="182.1348" y1="73.0938" y2="93.3906"/><line style="stroke:#000000;stroke-width:1.0;" x1="10" x2="483.4141" y1="93.3906" y2="93.3906"/><text fill="#000000" font-family="sans-serif" font-size="14" font-weight="bold" lengthAdjust="spacing" textLength="82.2842" x="15" y="108.3857">properties</text><text fill="#000000" font-family="sans-serif" font-size="14" lengthAdjust="spacing" textLength="13.3506" x="187.1348" y="108.3857">&#160;&#160;&#160;</text><line style="stroke:#000000;stroke-width:1.0;" x1="182.1348" x2="182.1348" y1="93.3906" y2="113.6875"/><line style="stroke:#000000;stroke-width:1.0;" x1="10" x2="483.4141" y1="113.6875" y2="113.6875"/><text fill="#000000" font-family="sans-serif" font-size="14" font-weight="bold" lengthAdjust="spacing" textLength="67.6074" x="15" y="128.6826">required</text><text fill="#000000" font-family="sans-serif" font-size="14" lengthAdjust="spacing" textLength="13.3506" x="187.1348" y="128.6826">&#160;&#160;&#160;</text><line style="stroke:#000000;stroke-width:1.0;" x1="182.1348" x2="182.1348" y1="113.6875" y2="133.9844"/><line style="stroke:#000000;stroke-width:1.0;" x1="10" x2="483.4141" y1="133.9844" y2="133.9844"/><text fill="#000000" font-family="sans-serif" font-size="14" font-weight="bold" lengthAdjust="spacing" textLength="162.1348" x="15" y="148.9795">additionalProperties</text><text fill="#000000" font-family="sans-serif" font-size="14" lengthAdjust="spacing" textLength="50.3057" x="187.1348" y="148.9795">&#9744; false</text><line style="stroke:#000000;stroke-width:1.0;" x1="182.1348" x2="182.1348" y1="133.9844" y2="154.2813"/><rect fill="none" height="121.7813" rx="5" ry="5" style="stroke:#000000;stroke-width:1.5;" width="473.4141" x="10" y="32.5"/><rect fill="#F1F1F1" height="60.8906" rx="5" ry="5" style="stroke:#F1F1F1;stroke-width:1.5;" width="141.5156" x="520" y="49"/><text fill="#000000" font-family="sans-serif" font-size="14" font-weight="bold" lengthAdjust="spacing" textLength="66.2881" x="525" y="63.9951">FlavorID</text><text fill="#000000" font-family="sans-serif" font-size="14" lengthAdjust="spacing" textLength="13.3506" x="643.165" y="63.9951">&#160;&#160;&#160;</text><line style="stroke:#000000;stroke-width:1.0;" x1="638.165" x2="638.165" y1="49" y2="69.2969"/><line style="stroke:#000000;stroke-width:1.0;" x1="520" x2="661.5156" y1="69.2969" y2="69.2969"/><text fill="#000000" font-family="sans-serif" font-size="14" font-weight="bold" lengthAdjust="spacing" textLength="46.1631" x="525" y="84.292">Buyer</text><text fill="#000000" font-family="sans-serif" font-size="14" lengthAdjust="spacing" textLength="13.3506" x="643.165" y="84.292">&#160;&#160;&#160;</text><line style="stroke:#000000;stroke-width:1.0;" x1="638.165" x2="638.165" y1="69.2969" y2="89.5938"/><line style="stroke:#000000;stroke-width:1.0;" x1="520" x2="661.5156" y1="89.5938" y2="89.5938"/><text fill="#000000" font-family="sans-serif" font-size="14" font-weight="bold" lengthAdjust="spacing" textLength="108.165" x="525" y="104.5889">Configuration</text><text fill="#000000" font-family="sans-serif" font-size="14" lengthAdjust="spacing" textLength="13.3506" x="643.165" y="104.5889">&#160;&#160;&#160;</text><line style="stroke:#000000;stroke-width:1.0;" x1="638.165" x2="638.165" y1="89.5938" y2="109.8906"/><rect fill="none" height="60.8906" rx="5" ry="5" style="stroke:#000000;stroke-width:1.5;" width="141.5156" x="520" y="49"/><rect fill="#F1F1F1" height="40.5938" rx="5" ry="5" style="stroke:#F1F1F1;stroke-width:1.5;" width="451.2725" x="699" y="10"/><text fill="#000000" font-family="sans-serif" font-size="14" font-weight="bold" lengthAdjust="spacing" textLength="35.335" x="704" y="24.9951">type</text><text fill="#000000" font-family="sans-serif" font-size="14" lengthAdjust="spacing" textLength="40.1885" x="802.9492" y="24.9951">string</text><line style="stroke:#000000;stroke-width:1.0;" x1="797.9492" x2="797.9492" y1="10" y2="30.2969"/><line style="stroke:#000000;stroke-width:1.0;" x1="699" x2="1150.2725" y1="30.2969" y2="30.2969"/><text fill="#000000" font-family="sans-serif" font-size="14" font-weight="bold" lengthAdjust="spacing" textLength="88.9492" x="704" y="45.292">description</text><text fill="#000000" font-family="sans-serif" font-size="14" lengthAdjust="spacing" textLength="342.3232" x="802.9492" y="45.292">The unique identifier of the flavor to be reserved</text><line style="stroke:#000000;stroke-width:1.0;" x1="797.9492" x2="797.9492" y1="30.2969" y2="50.5938"/><rect fill="none" height="40.5938" rx="5" ry="5" style="stroke:#000000;stroke-width:1.5;" width="451.2725" x="699" y="10"/><rect fill="#F1F1F1" height="20.2969" rx="5" ry="5" style="stroke:#F1F1F1;stroke-width:1.5;" width="237.8545" x="805.5" y="69.3516"/><text fill="#000000" font-family="sans-serif" font-size="14" font-weight="bold" lengthAdjust="spacing" textLength="32.2314" x="810.5" y="84.3467">$ref</text><text fill="#000000" font-family="sans-serif" font-size="14" lengthAdjust="spacing" textLength="185.623" x="852.7314" y="84.3467">node-identity.schema.json</text><line style="stroke:#000000;stroke-width:1.0;" x1="847.7314" x2="847.7314" y1="69.3516" y2="89.6484"/><rect fill="none" height="20.2969" rx="5" ry="5" style="stroke:#000000;stroke-width:1.5;" width="237.8545" x="805.5" y="69.3516"/><rect fill="#F1F1F1" height="40.5938" rx="5" ry="5" style="stroke:#F1F1F1;stroke-width:1.5;" width="406.8867" x="721" y="108"/><text fill="#000000" font-family="sans-serif" font-size="14" font-weight="bold" lengthAdjust="spacing" textLength="32.2314" x="726" y="122.9951">$ref</text><text fill="#000000" font-family="sans-serif" font-size="14" lengthAdjust="spacing" textLength="185.083" x="824.9492" y="122.9951">configuration.schema.json</text><line style="stroke:#000000;stroke-width:1.0;" x1="819.9492" x2="819.9492" y1="108" y2="128.2969"/><line style="stroke:#000000;stroke-width:1.0;" x1="721" x2="1127.8867" y1="128.2969" y2="128.2969"/><text fill="#000000" font-family="sans-serif" font-size="14" font-weight="bold" lengthAdjust="spacing" textLength="88.9492" x="726" y="143.292">description</text><text fill="#000000" font-family="sans-serif" font-size="14" lengthAdjust="spacing" textLength="297.9375" x="824.9492" y="143.292">The configuration of the flavour to reserve</text><line style="stroke:#000000;stroke-width:1.0;" x1="819.9492" x2="819.9492" y1="128.2969" y2="148.5938"/><rect fill="none" height="40.5938" rx="5" ry="5" style="stroke:#000000;stroke-width:1.5;" width="406.8867" x="721" y="108"/><rect fill="#F1F1F1" height="40.5938" rx="5" ry="5" style="stroke:#F1F1F1;stroke-width:1.5;" width="68.0371" x="557" y="128"/><text fill="#000000" font-family="sans-serif" font-size="14" lengthAdjust="spacing" textLength="58.0371" x="562" y="142.9951">FlavorID</text><line style="stroke:#000000;stroke-width:1.0;" x1="557" x2="625.0371" y1="148.2969" y2="148.2969"/><text fill="#000000" font-family="sans-serif" font-size="14" lengthAdjust="spacing" textLength="41.1318" x="562" y="163.292">Buyer</text><rect fill="none" height="40.5938" rx="5" ry="5" style="stroke:#000000;stroke-width:1.5;" width="68.0371" x="557" y="128"/><path d="M650,59.5 L663,59.5 C702.1088,59.5 744.3135,56.2439 783.1481,51.9137 " fill="none" style="stroke:#000000;stroke-width:1.0;stroke-dasharray:3.0,3.0;"/><path d="M783.5,55.0018 L785.4641,51.6498 L782.7962,48.8257 L790.8682,51.034 L783.5,55.0018 " fill="#000000" style="stroke:#000000;stroke-width:1.0;"/><ellipse cx="650" cy="59.5" fill="#000000" rx="3" ry="3" style="stroke:#000000;stroke-width:1.0;"/><path d="M650,79.5 L663,79.5 C707.0284,79.5 755.2345,79.5 798.1042,79.5 " fill="none" style="stroke:#000000;stroke-width:1.0;stroke-dasharray:3.0,3.0;"/><path d="M798.1042,82.5648 L800.4029,79.5 L798.1042,76.4352 L805.7663,79.5 L798.1042,82.5648 " fill="#000000" style="stroke:#000000;stroke-width:1.0;"/><ellipse cx="650" cy="79.5" fill="#000000" rx="3" ry="3" style="stroke:#000000;stroke-width:1.0;"/><path d="M650,99.5 L663,99.5 C702.1088,99.5 744.3135,102.7561 783.1481,107.0863 " fill="none" style="stroke:#000000;stroke-width:1.0;stroke-dasharray:3.0,3.0;"/><path d="M782.7962,110.1743 L785.4641,107.3502 L783.5,103.9982 L790.8682,107.966 L782.7962,110.1743 " fill="#000000" style="stroke:#000000;stroke-width:1.0;"/><ellipse cx="650" cy="99.5" fill="#000000" rx="3" ry="3" style="stroke:#000000;stroke-width:1.0;"/><path d="M471,103.5 L484,103.5 C493.3471,103.5 503.0452,102.6093 512.6122,101.1712 " fill="none" style="stroke:#000000;stroke-width:1.0;stroke-dasharray:3.0,3.0;"/><path d="M513.1179,104.2253 L514.9028,100.7919 L512.1065,98.1171 L520.2474,99.907 L513.1179,104.2253 " fill="#000000" style="stroke:#000000;stroke-width:1.0;"/><ellipse cx="471" cy="103.5" fill="#000000" rx="3" ry="3" style="stroke:#000000;stroke-width:1.0;"/><path d="M471,123.5 L484,123.5 C506.2297,123.5 530.3953,128.7261 550.0794,134.3995 " fill="none" style="stroke:#000000;stroke-width:1.0;stroke-dasharray:3.0,3.0;"/><path d="M549.2049,137.324 L552.2728,135.0553 L550.9539,131.4749 L557.3908,136.5857 L549.2049,137.324 " fill="#000000" style="stroke:#000000;stroke-width:1.0;"/><ellipse cx="471" cy="123.5" fill="#000000" rx="3" ry="3" style="stroke:#000000;stroke-width:1.0;"/><!--SRC=[XL9DJzj04BtlhnYv742gaq2ZbFg4I4hLD54Z0bog7ZRUiRF8sJMpivQYYl_UzGSX5bJrpU_DlFTcPgySI-97Putu8o1yqObBjxYJKGBHbhbCXiEQZLjqO2aVAf8PnwFFmnRx47riEtbVOjrcDu-OyW7LN3JmBJgaIhAsveKhoPP8hD65WjQ_mMyAMLdwFkkXFG_7f4tUwHnOXIubNJOMeUXkY-2DVl88Mg5XdMaai1bm8BB60zZ21e6QRAYYWzxpgtHqxVT8RxES46QrZR4AuzQ0zuDkKVNItbURMfFft9FiOlv3DJqkwwd-V-XURszWtqpSZNkKJnobZ0YVlAQmZGH-lNEKDvjf_dztpL8fNTlAOdLytKmM3iMpk4AZckScLeKqVBzSG8NawfpdWulHnNWmELrBXhalO3I1qPVaV9nykeJxkodKz9au_RPQW0kJf0XArmzXusl3Cp6NbOHR7-wmmmH-bcZcinyl07mrbIPhTk5EOlwmV2sOZEDhpR2kLqBmi1GppAGlE7IaLeLdbWJtc_XIBAJ9lSo3DXenjK6Nze5R_mK0]--></g></svg>