<svg xmlns="http://www.w3.org/2000/svg" xmlns:xlink="http://www.w3.org/1999/xlink" contentStyleType="text/css" height="259px" preserveAspectRatio="none" style="width:1178px;height:259px;background:#FFFFFF;" version="1.1" viewBox="0 0 1178 259" width="1178px" zoomAndPan="magnify"><defs/><g><rect fill="#F1F1F1" height="81.1875" rx="5" ry="5" style="stroke:#F1F1F1;stroke-width:1.5;" width="393.5635" x="10" y="47.9063"/><text fill="#000000" font-family="sans-serif" font-size="14" font-weight="bold" lengthAdjust="spacing" textLength="69.8701" x="15" y="62.9014">$schema</text><text fill="#000000" font-family="sans-serif" font-size="14" lengthAdjust="spacing" textLength="291.2793" x="107.2842" y="62.9014">http://json-schema.org/draft-07/schema#</text><line style="stroke:#000000;stroke-width:1.0;" x1="102.2842" x2="102.2842" y1="47.9063" y2="68.2031"/><line style="stroke:#000000;stroke-width:1.0;" x1="10" x2="403.5635" y1="68.2031" y2="68.2031"/><text fill="#000000" font-family="sans-serif" font-size="14" font-weight="bold" lengthAdjust="spacing" textLength="35.335" x="15" y="83.1982">type</text><text fill="#000000" font-family="sans-serif" font-size="14" lengthAdjust="spacing" textLength="43.1416" x="107.2842" y="83.1982">object</text><line style="stroke:#000000;stroke-width:1.0;" x1="102.2842" x2="102.2842" y1="68.2031" y2="88.5"/><line style="stroke:#000000;stroke-width:1.0;" x1="10" x2="403.5635" y1="88.5" y2="88.5"/><text fill="#000000" font-family="sans-serif" font-size="14" font-weight="bold" lengthAdjust="spacing" textLength="32.4775" x="15" y="103.4951">title</text><text fill="#000000" font-family="sans-serif" font-size="14" lengthAdjust="spacing" textLength="82.1475" x="107.2842" y="103.4951">Transaction</text><line style="stroke:#000000;stroke-width:1.0;" x1="102.2842" x2="102.2842" y1="88.5" y2="108.7969"/><line style="stroke:#000000;stroke-width:1.0;" x1="10" x2="403.5635" y1="108.7969" y2="108.7969"/><text fill="#000000" font-family="sans-serif" font-size="14" font-weight="bold" lengthAdjust="spacing" textLength="82.2842" x="15" y="123.792">properties</text><text fill="#000000" font-family="sans-serif" font-size="14" lengthAdjust="spacing" textLength="13.3506" x="107.2842" y="123.792">&#160;&#160;&#160;</text><line style="stroke:#000000;stroke-width:1.0;" x1="102.2842" x2="102.2842" y1="108.7969" y2="129.0938"/><rect fill="none" height="81.1875" rx="5" ry="5" style="stroke:#000000;stroke-width:1.5;" width="393.5635" x="10" y="47.9063"/><rect fill="#F1F1F1" height="81.1875" rx="5" ry="5" style="stroke:#F1F1F1;stroke-width:1.5;" width="152.624" x="441" y="77.9063"/><text fill="#000000" font-family="sans-serif" font-size="14" font-weight="bold" lengthAdjust="spacing" textLength="109.8535" x="446" y="92.9014">TransactionID</text><text fill="#000000" font-family="sans-serif" font-size="14" lengthAdjust="spacing" textLength="13.3506" x="575.2734" y="92.9014">&#160;&#160;&#160;</text><line style="stroke:#000000;stroke-width:1.0;" x1="570.2734" x2="570.2734" y1="77.9063" y2="98.2031"/><line style="stroke:#000000;stroke-width:1.0;" x1="441" x2="593.624" y1="98.2031" y2="98.2031"/><text fill="#000000" font-family="sans-serif" font-size="14" font-weight="bold" lengthAdjust="spacing" textLength="66.2881" x="446" y="113.1982">FlavorID</text><text fill="#000000" font-family="sans-serif" font-size="14" lengthAdjust="spacing" textLength="13.3506" x="575.2734" y="113.1982">&#160;&#160;&#160;</text><line style="stroke:#000000;stroke-width:1.0;" x1="570.2734" x2="570.2734" y1="98.2031" y2="118.5"/><line style="stroke:#000000;stroke-width:1.0;" x1="441" x2="593.624" y1="118.5" y2="118.5"/><text fill="#000000" font-family="sans-serif" font-size="14" font-weight="bold" lengthAdjust="spacing" textLength="46.1631" x="446" y="133.4951">Buyer</text><text fill="#000000" font-family="sans-serif" font-size="14" lengthAdjust="spacing" textLength="13.3506" x="575.2734" y="133.4951">&#160;&#160;&#160;</text><line style="stroke:#000000;stroke-width:1.0;" x1="570.2734" x2="570.2734" y1="118.5" y2="138.7969"/><line style="stroke:#000000;stroke-width:1.0;" x1="441" x2="593.624" y1="138.7969" y2="138.7969"/><text fill="#000000" font-family="sans-serif" font-size="14" font-weight="bold" lengthAdjust="spacing" textLength="119.2734" x="446" y="153.792">ExpirationTime</text><text fill="#000000" font-family="sans-serif" font-size="14" lengthAdjust="spacing" textLength="13.3506" x="575.2734" y="153.792">&#160;&#160;&#160;</text><line style="stroke:#000000;stroke-width:1.0;" x1="570.2734" x2="570.2734" y1="138.7969" y2="159.0938"/><rect fill="none" height="81.1875" rx="5" ry="5" style="stroke:#000000;stroke-width:1.5;" width="152.624" x="441" y="77.9063"/><rect fill="#F1F1F1" height="40.5938" rx="5" ry="5" style="stroke:#F1F1F1;stroke-width:1.5;" width="389.3867" x="704.5" y="10"/><text fill="#000000" font-family="sans-serif" font-size="14" font-weight="bold" lengthAdjust="spacing" textLength="35.335" x="709.5" y="24.9951">type</text><text fill="#000000" font-family="sans-serif" font-size="14" lengthAdjust="spacing" textLength="40.1885" x="808.4492" y="24.9951">string</text><line style="stroke:#000000;stroke-width:1.0;" x1="803.4492" x2="803.4492" y1="10" y2="30.2969"/><line style="stroke:#000000;stroke-width:1.0;" x1="704.5" x2="1093.8867" y1="30.2969" y2="30.2969"/><text fill="#000000" font-family="sans-serif" font-size="14" font-weight="bold" lengthAdjust="spacing" textLength="88.9492" x="709.5" y="45.292">description</text><text fill="#000000" font-family="sans-serif" font-size="14" lengthAdjust="spacing" textLength="280.4375" x="808.4492" y="45.292">The unique identifier for the transaction</text><line style="stroke:#000000;stroke-width:1.0;" x1="803.4492" x2="803.4492" y1="30.2969" y2="50.5938"/><rect fill="none" height="40.5938" rx="5" ry="5" style="stroke:#000000;stroke-width:1.5;" width="389.3867" x="704.5" y="10"/><rect fill="#F1F1F1" height="40.5938" rx="5" ry="5" style="stroke:#F1F1F1;stroke-width:1.5;" width="416.5732" x="690.5" y="69"/><text fill="#000000" font-family="sans-serif" font-size="14" font-weight="bold" lengthAdjust="spacing" textLength="35.335" x="695.5" y="83.9951">type</text><text fill="#000000" font-family="sans-serif" font-size="14" lengthAdjust="spacing" textLength="40.1885" x="794.4492" y="83.9951">string</text><line style="stroke:#000000;stroke-width:1.0;" x1="789.4492" x2="789.4492" y1="69" y2="89.2969"/><line style="stroke:#000000;stroke-width:1.0;" x1="690.5" x2="1107.0732" y1="89.2969" y2="89.2969"/><text fill="#000000" font-family="sans-serif" font-size="14" font-weight="bold" lengthAdjust="spacing" textLength="88.9492" x="695.5" y="104.292">description</text><text fill="#000000" font-family="sans-serif" font-size="14" lengthAdjust="spacing" textLength="307.624" x="794.4492" y="104.292">The unique identifier for the flavor reserved</text><line style="stroke:#000000;stroke-width:1.0;" x1="789.4492" x2="789.4492" y1="89.2969" y2="109.5938"/><rect fill="none" height="40.5938" rx="5" ry="5" style="stroke:#000000;stroke-width:1.5;" width="416.5732" x="690.5" y="69"/><rect fill="#F1F1F1" height="40.5938" rx="5" ry="5" style="stroke:#F1F1F1;stroke-width:1.5;" width="535.9424" x="631" y="128"/><text fill="#000000" font-family="sans-serif" font-size="14" font-weight="bold" lengthAdjust="spacing" textLength="32.2314" x="636" y="142.9951">$ref</text><text fill="#000000" font-family="sans-serif" font-size="14" lengthAdjust="spacing" textLength="185.623" x="734.9492" y="142.9951">node-identity.schema.json</text><line style="stroke:#000000;stroke-width:1.0;" x1="729.9492" x2="729.9492" y1="128" y2="148.2969"/><line style="stroke:#000000;stroke-width:1.0;" x1="631" x2="1166.9424" y1="148.2969" y2="148.2969"/><text fill="#000000" font-family="sans-serif" font-size="14" font-weight="bold" lengthAdjust="spacing" textLength="88.9492" x="636" y="163.292">description</text><text fill="#000000" font-family="sans-serif" font-size="14" lengthAdjust="spacing" textLength="426.9932" x="734.9492" y="163.292">The node identity of the buyer that is reserverving the flavor</text><line style="stroke:#000000;stroke-width:1.0;" x1="729.9492" x2="729.9492" y1="148.2969" y2="168.5938"/><rect fill="none" height="40.5938" rx="5" ry="5" style="stroke:#000000;stroke-width:1.5;" width="535.9424" x="631" y="128"/><rect fill="#F1F1F1" height="60.8906" rx="5" ry="5" style="stroke:#F1F1F1;stroke-width:1.5;" width="375.25" x="711.5" y="187"/><text fill="#000000" font-family="sans-serif" font-size="14" font-weight="bold" lengthAdjust="spacing" textLength="35.335" x="716.5" y="201.9951">type</text><text fill="#000000" font-family="sans-serif" font-size="14" lengthAdjust="spacing" textLength="40.1885" x="815.4492" y="201.9951">string</text><line style="stroke:#000000;stroke-width:1.0;" x1="810.4492" x2="810.4492" y1="187" y2="207.2969"/><line style="stroke:#000000;stroke-width:1.0;" x1="711.5" x2="1086.75" y1="207.2969" y2="207.2969"/><text fill="#000000" font-family="sans-serif" font-size="14" font-weight="bold" lengthAdjust="spacing" textLength="53.3408" x="716.5" y="222.292">format</text><text fill="#000000" font-family="sans-serif" font-size="14" lengthAdjust="spacing" textLength="68.25" x="815.4492" y="222.292">date-time</text><line style="stroke:#000000;stroke-width:1.0;" x1="810.4492" x2="810.4492" y1="207.2969" y2="227.5938"/><line style="stroke:#000000;stroke-width:1.0;" x1="711.5" x2="1086.75" y1="227.5938" y2="227.5938"/><text fill="#000000" font-family="sans-serif" font-size="14" font-weight="bold" lengthAdjust="spacing" textLength="88.9492" x="716.5" y="242.5889">description</text><text fill="#000000" font-family="sans-serif" font-size="14" lengthAdjust="spacing" textLength="266.3008" x="815.4492" y="242.5889">The expiration time of the transaction</text><line style="stroke:#000000;stroke-width:1.0;" x1="810.4492" x2="810.4492" y1="227.5938" y2="247.8906"/><rect fill="none" height="60.8906" rx="5" ry="5" style="stroke:#000000;stroke-width:1.5;" width="375.25" x="711.5" y="187"/><path d="M582,88.5 L595,88.5 C615.5456,88.5 612.0211,67.3692 631,59.5 C651.9286,50.8224 674.5287,44.3919 697.4157,39.6686 " fill="none" style="stroke:#000000;stroke-width:1.0;stroke-dasharray:3.0,3.0;"/><path d="M698.0054,42.6442 L699.6475,39.2263 L696.826,36.6929 L704.8549,38.1943 L698.0054,42.6442 " fill="#000000" style="stroke:#000000;stroke-width:1.0;"/><ellipse cx="582" cy="88.5" fill="#000000" rx="3" ry="3" style="stroke:#000000;stroke-width:1.0;"/><path d="M582,108.5 L595,108.5 C623.5934,108.5 653.6725,107.6496 683.3289,106.3086 " fill="none" style="stroke:#000000;stroke-width:1.0;stroke-dasharray:3.0,3.0;"/><path d="M683.4694,109.3204 L685.5877,106.2032 L683.1884,103.2968 L690.8584,105.9573 L683.4694,109.3204 " fill="#000000" style="stroke:#000000;stroke-width:1.0;"/><ellipse cx="582" cy="108.5" fill="#000000" rx="3" ry="3" style="stroke:#000000;stroke-width:1.0;"/><path d="M582,128.5 L595,128.5 C604.375,128.5 613.9094,128.5962 623.5359,128.7752 " fill="none" style="stroke:#000000;stroke-width:1.0;stroke-dasharray:3.0,3.0;"/><path d="M623.4715,131.8707 L625.8576,128.8236 L623.6004,125.6797 L631.2747,128.9363 L623.4715,131.8707 " fill="#000000" style="stroke:#000000;stroke-width:1.0;"/><ellipse cx="582" cy="128.5" fill="#000000" rx="3" ry="3" style="stroke:#000000;stroke-width:1.0;"/><path d="M582,148.5 L595,148.5 C615.8273,148.5 611.9807,170.0121 631,178.5 C654.0143,188.7708 679.1435,196.4488 704.4879,202.1697 " fill="none" style="stroke:#000000;stroke-width:1.0;stroke-dasharray:3.0,3.0;"/><path d="M703.8329,205.1737 L706.7409,202.661 L705.143,199.1658 L711.9978,203.8073 L703.8329,205.1737 " fill="#000000" style="stroke:#000000;stroke-width:1.0;"/><ellipse cx="582" cy="148.5" fill="#000000" rx="3" ry="3" style="stroke:#000000;stroke-width:1.0;"/><path d="M392,118.5 L405,118.5 C414.2824,118.5 423.9976,118.5 433.6614,118.5 " fill="none" style="stroke:#000000;stroke-width:1.0;stroke-dasharray:3.0,3.0;"/><path d="M433.6614,121.5919 L435.9803,118.5 L433.6614,115.4081 L441.3912,118.5 L433.6614,121.5919 " fill="#000000" style="stroke:#000000;stroke-width:1.0;"/><ellipse cx="392" cy="118.5" fill="#000000" rx="3" ry="3" style="stroke:#000000;stroke-width:1.0;"/><!--SRC=[jLB1Jjj04BtlLunS3Y3LIQ1He3uX25HD4nKrWVl6EquMERlkxApL2F7ltRLn229IsqDziAptPjvxC-DBnvBuqLaZdWI49pbo-HetCiaWMJDNMRyVsRH5UvPMVKMou7Hmtc-n3yd7jfEt5SOsktp4d7UevhA15oIDapbhQpgk8biXiKON2bh_1jyh_Jf-GxqnSapQh5x4Tgn2bvEk6fzekqRmHl_q25gXOLre92Wi0GU6zqBjP9vV5PFRKjQM_dEAeZ41GeTKepgSvCflaTx7E28ieeEn2jDMcxUzbtF5q_r5ijWBNI_OeWcrZ7xXIp9ersMZEiowb_bmr9jVbIOP7HPwW_-wkh2LZUJ8AycOSfJuymouyuJOqKrn-C2YVJ-BIpIg-Vl5NIaDty-c48PqKUMqTpOu6_P6n_EmWOalOJ22mUViT9Xzke3xnJL4-aGSVxcRWhEUSWIbuqHB7zrEn4JM4dvu4-DayBr2Cnb_wm2uCRKcQpPXwMBoC7ij60tJAyqmRzOD3pCnnaBwaaD7RbNOLnRSRzCBCPLcvUKgQACHrpReqZPmyzy0]--></g></svg>