<svg xmlns="http://www.w3.org/2000/svg" xmlns:xlink="http://www.w3.org/1999/xlink" contentStyleType="text/css" height="394px" preserveAspectRatio="none" style="width:799px;height:394px;background:#FFFFFF;" version="1.1" viewBox="0 0 799 394" width="799px" zoomAndPan="magnify"><defs/><g><rect fill="#F1F1F1" height="81.1875" rx="5" ry="5" style="stroke:#F1F1F1;stroke-width:1.5;" width="248.5117" x="10" y="144.4063"/><text fill="#000000" font-family="sans-serif" font-size="14" font-weight="bold" lengthAdjust="spacing" textLength="43.4971" x="15" y="159.4014">name</text><text fill="#000000" font-family="sans-serif" font-size="14" lengthAdjust="spacing" textLength="111.8018" x="141.71" y="159.4014">ExampleK8Slice</text><line style="stroke:#000000;stroke-width:1.0;" x1="136.71" x2="136.71" y1="144.4063" y2="164.7031"/><line style="stroke:#000000;stroke-width:1.0;" x1="10" x2="258.5117" y1="164.7031" y2="164.7031"/><text fill="#000000" font-family="sans-serif" font-size="14" font-weight="bold" lengthAdjust="spacing" textLength="116.71" x="15" y="179.6982">characteristics</text><text fill="#000000" font-family="sans-serif" font-size="14" lengthAdjust="spacing" textLength="13.3506" x="141.71" y="179.6982">&#160;&#160;&#160;</text><line style="stroke:#000000;stroke-width:1.0;" x1="136.71" x2="136.71" y1="164.7031" y2="185"/><line style="stroke:#000000;stroke-width:1.0;" x1="10" x2="258.5117" y1="185" y2="185"/><text fill="#000000" font-family="sans-serif" font-size="14" font-weight="bold" lengthAdjust="spacing" textLength="82.2842" x="15" y="199.9951">properties</text><text fill="#000000" font-family="sans-serif" font-size="14" lengthAdjust="spacing" textLength="13.3506" x="141.71" y="199.9951">&#160;&#160;&#160;</text><line style="stroke:#000000;stroke-width:1.0;" x1="136.71" x2="136.71" y1="185" y2="205.2969"/><line style="stroke:#000000;stroke-width:1.0;" x1="10" x2="258.5117" y1="205.2969" y2="205.2969"/><text fill="#000000" font-family="sans-serif" font-size="14" font-weight="bold" lengthAdjust="spacing" textLength="60.1631" x="15" y="220.292">policies</text><text fill="#000000" font-family="sans-serif" font-size="14" lengthAdjust="spacing" textLength="13.3506" x="141.71" y="220.292">&#160;&#160;&#160;</text><line style="stroke:#000000;stroke-width:1.0;" x1="136.71" x2="136.71" y1="205.2969" y2="225.5938"/><rect fill="none" height="81.1875" rx="5" ry="5" style="stroke:#000000;stroke-width:1.5;" width="248.5117" x="10" y="144.4063"/><rect fill="#F1F1F1" height="121.7813" rx="5" ry="5" style="stroke:#F1F1F1;stroke-width:1.5;" width="158.4209" x="308" y="10"/><text fill="#000000" font-family="sans-serif" font-size="14" font-weight="bold" lengthAdjust="spacing" textLength="96.9609" x="313" y="24.9951">architecture</text><text fill="#000000" font-family="sans-serif" font-size="14" lengthAdjust="spacing" textLength="26.0996" x="419.9609" y="24.9951">x86</text><line style="stroke:#000000;stroke-width:1.0;" x1="414.9609" x2="414.9609" y1="10" y2="30.2969"/><line style="stroke:#000000;stroke-width:1.0;" x1="308" x2="466.4209" y1="30.2969" y2="30.2969"/><text fill="#000000" font-family="sans-serif" font-size="14" font-weight="bold" lengthAdjust="spacing" textLength="28.2871" x="313" y="45.292">cpu</text><text fill="#000000" font-family="sans-serif" font-size="14" lengthAdjust="spacing" textLength="8.9072" x="419.9609" y="45.292">2</text><line style="stroke:#000000;stroke-width:1.0;" x1="414.9609" x2="414.9609" y1="30.2969" y2="50.5938"/><line style="stroke:#000000;stroke-width:1.0;" x1="308" x2="466.4209" y1="50.5938" y2="50.5938"/><text fill="#000000" font-family="sans-serif" font-size="14" font-weight="bold" lengthAdjust="spacing" textLength="37.9941" x="313" y="65.5889">pods</text><text fill="#000000" font-family="sans-serif" font-size="14" lengthAdjust="spacing" textLength="8.9072" x="419.9609" y="65.5889">5</text><line style="stroke:#000000;stroke-width:1.0;" x1="414.9609" x2="414.9609" y1="50.5938" y2="70.8906"/><line style="stroke:#000000;stroke-width:1.0;" x1="308" x2="466.4209" y1="70.8906" y2="70.8906"/><text fill="#000000" font-family="sans-serif" font-size="14" font-weight="bold" lengthAdjust="spacing" textLength="64.3193" x="313" y="85.8857">memory</text><text fill="#000000" font-family="sans-serif" font-size="14" lengthAdjust="spacing" textLength="23.6455" x="419.9609" y="85.8857">4Gi</text><line style="stroke:#000000;stroke-width:1.0;" x1="414.9609" x2="414.9609" y1="70.8906" y2="91.1875"/><line style="stroke:#000000;stroke-width:1.0;" x1="308" x2="466.4209" y1="91.1875" y2="91.1875"/><text fill="#000000" font-family="sans-serif" font-size="14" font-weight="bold" lengthAdjust="spacing" textLength="30.0098" x="313" y="106.1826">gpu</text><text fill="#000000" font-family="sans-serif" font-size="14" lengthAdjust="spacing" textLength="13.3506" x="419.9609" y="106.1826">&#160;&#160;&#160;</text><line style="stroke:#000000;stroke-width:1.0;" x1="414.9609" x2="414.9609" y1="91.1875" y2="111.4844"/><line style="stroke:#000000;stroke-width:1.0;" x1="308" x2="466.4209" y1="111.4844" y2="111.4844"/><text fill="#000000" font-family="sans-serif" font-size="14" font-weight="bold" lengthAdjust="spacing" textLength="60.5117" x="313" y="126.4795">storage</text><text fill="#000000" font-family="sans-serif" font-size="14" lengthAdjust="spacing" textLength="41.46" x="419.9609" y="126.4795">100Gi</text><line style="stroke:#000000;stroke-width:1.0;" x1="414.9609" x2="414.9609" y1="111.4844" y2="131.7813"/><rect fill="none" height="121.7813" rx="5" ry="5" style="stroke:#000000;stroke-width:1.5;" width="158.4209" x="308" y="10"/><rect fill="#F1F1F1" height="60.8906" rx="5" ry="5" style="stroke:#F1F1F1;stroke-width:1.5;" width="205.8076" x="515" y="63.5"/><text fill="#000000" font-family="sans-serif" font-size="14" font-weight="bold" lengthAdjust="spacing" textLength="48.5215" x="520" y="78.4951">model</text><text fill="#000000" font-family="sans-serif" font-size="14" lengthAdjust="spacing" textLength="121.4883" x="594.3193" y="78.4951">NVIDIA Tesla K80</text><line style="stroke:#000000;stroke-width:1.0;" x1="589.3193" x2="589.3193" y1="63.5" y2="83.7969"/><line style="stroke:#000000;stroke-width:1.0;" x1="515" x2="720.8076" y1="83.7969" y2="83.7969"/><text fill="#000000" font-family="sans-serif" font-size="14" font-weight="bold" lengthAdjust="spacing" textLength="42.6494" x="520" y="98.792">cores</text><text fill="#000000" font-family="sans-serif" font-size="14" lengthAdjust="spacing" textLength="8.9072" x="594.3193" y="98.792">1</text><line style="stroke:#000000;stroke-width:1.0;" x1="589.3193" x2="589.3193" y1="83.7969" y2="104.0938"/><line style="stroke:#000000;stroke-width:1.0;" x1="515" x2="720.8076" y1="104.0938" y2="104.0938"/><text fill="#000000" font-family="sans-serif" font-size="14" font-weight="bold" lengthAdjust="spacing" textLength="64.3193" x="520" y="119.0889">memory</text><text fill="#000000" font-family="sans-serif" font-size="14" lengthAdjust="spacing" textLength="32.5527" x="594.3193" y="119.0889">12Gi</text><line style="stroke:#000000;stroke-width:1.0;" x1="589.3193" x2="589.3193" y1="104.0938" y2="124.3906"/><rect fill="none" height="60.8906" rx="5" ry="5" style="stroke:#000000;stroke-width:1.5;" width="205.8076" x="515" y="63.5"/><rect fill="#F1F1F1" height="60.8906" rx="5" ry="5" style="stroke:#F1F1F1;stroke-width:1.5;" width="182.3467" x="296" y="164.5"/><text fill="#000000" font-family="sans-serif" font-size="14" font-weight="bold" lengthAdjust="spacing" textLength="57.8252" x="301" y="179.4951">latency</text><text fill="#000000" font-family="sans-serif" font-size="14" lengthAdjust="spacing" textLength="17.8145" x="455.5322" y="179.4951">50</text><line style="stroke:#000000;stroke-width:1.0;" x1="450.5322" x2="450.5322" y1="164.5" y2="184.7969"/><line style="stroke:#000000;stroke-width:1.0;" x1="296" x2="478.3467" y1="184.7969" y2="184.7969"/><text fill="#000000" font-family="sans-serif" font-size="14" font-weight="bold" lengthAdjust="spacing" textLength="144.5322" x="301" y="199.792">securityStandards</text><text fill="#000000" font-family="sans-serif" font-size="14" lengthAdjust="spacing" textLength="13.3506" x="455.5322" y="199.792">&#160;&#160;&#160;</text><line style="stroke:#000000;stroke-width:1.0;" x1="450.5322" x2="450.5322" y1="184.7969" y2="205.0938"/><line style="stroke:#000000;stroke-width:1.0;" x1="296" x2="478.3467" y1="205.0938" y2="205.0938"/><text fill="#000000" font-family="sans-serif" font-size="14" font-weight="bold" lengthAdjust="spacing" textLength="128.1328" x="301" y="220.0889">carbonFootprint</text><text fill="#000000" font-family="sans-serif" font-size="14" lengthAdjust="spacing" textLength="13.3506" x="455.5322" y="220.0889">&#160;&#160;&#160;</text><line style="stroke:#000000;stroke-width:1.0;" x1="450.5322" x2="450.5322" y1="205.0938" y2="225.3906"/><rect fill="none" height="60.8906" rx="5" ry="5" style="stroke:#000000;stroke-width:1.5;" width="182.3467" x="296" y="164.5"/><rect fill="#F1F1F1" height="40.5938" rx="5" ry="5" style="stroke:#F1F1F1;stroke-width:1.5;" width="52.2529" x="592" y="142.5"/><text fill="#000000" font-family="sans-serif" font-size="14" lengthAdjust="spacing" textLength="39.7988" x="597" y="157.4951">GDPR</text><line style="stroke:#000000;stroke-width:1.0;" x1="592" x2="644.2529" y1="162.7969" y2="162.7969"/><text fill="#000000" font-family="sans-serif" font-size="14" lengthAdjust="spacing" textLength="42.2529" x="597" y="177.792">HIPAA</text><rect fill="none" height="40.5938" rx="5" ry="5" style="stroke:#000000;stroke-width:1.5;" width="52.2529" x="592" y="142.5"/><rect fill="#F1F1F1" height="40.5938" rx="5" ry="5" style="stroke:#F1F1F1;stroke-width:1.5;" width="146.4375" x="545" y="201.5"/><text fill="#000000" font-family="sans-serif" font-size="14" font-weight="bold" lengthAdjust="spacing" textLength="78.0596" x="550" y="216.4951">embodied</text><text fill="#000000" font-family="sans-serif" font-size="14" lengthAdjust="spacing" textLength="35.6289" x="650.8086" y="216.4951">2000</text><line style="stroke:#000000;stroke-width:1.0;" x1="645.8086" x2="645.8086" y1="201.5" y2="221.7969"/><line style="stroke:#000000;stroke-width:1.0;" x1="545" x2="691.4375" y1="221.7969" y2="221.7969"/><text fill="#000000" font-family="sans-serif" font-size="14" font-weight="bold" lengthAdjust="spacing" textLength="90.8086" x="550" y="236.792">operational</text><text fill="#000000" font-family="sans-serif" font-size="14" lengthAdjust="spacing" textLength="13.3506" x="650.8086" y="236.792">&#160;&#160;&#160;</text><line style="stroke:#000000;stroke-width:1.0;" x1="645.8086" x2="645.8086" y1="221.7969" y2="242.0938"/><rect fill="none" height="40.5938" rx="5" ry="5" style="stroke:#000000;stroke-width:1.5;" width="146.4375" x="545" y="201.5"/><rect fill="#F1F1F1" height="15" rx="5" ry="5" style="stroke:#F1F1F1;stroke-width:1.5;" width="30" x="758" y="224.5"/><rect fill="none" height="15" rx="5" ry="5" style="stroke:#000000;stroke-width:1.5;" width="30" x="758" y="224.5"/><rect fill="#F1F1F1" height="20.2969" rx="5" ry="5" style="stroke:#F1F1F1;stroke-width:1.5;" width="151.9746" x="311" y="287.8516"/><text fill="#000000" font-family="sans-serif" font-size="14" font-weight="bold" lengthAdjust="spacing" textLength="118.624" x="316" y="302.8467">partitionability</text><text fill="#000000" font-family="sans-serif" font-size="14" lengthAdjust="spacing" textLength="13.3506" x="444.624" y="302.8467">&#160;&#160;&#160;</text><line style="stroke:#000000;stroke-width:1.0;" x1="439.624" x2="439.624" y1="287.8516" y2="308.1484"/><rect fill="none" height="20.2969" rx="5" ry="5" style="stroke:#000000;stroke-width:1.5;" width="151.9746" x="311" y="287.8516"/><rect fill="#F1F1F1" height="121.7813" rx="5" ry="5" style="stroke:#F1F1F1;stroke-width:1.5;" width="163.3018" x="536.5" y="261"/><text fill="#000000" font-family="sans-serif" font-size="14" font-weight="bold" lengthAdjust="spacing" textLength="56.9844" x="541.5" y="275.9951">cpuMin</text><text fill="#000000" font-family="sans-serif" font-size="14" lengthAdjust="spacing" textLength="40.3594" x="652.1113" y="275.9951">500m</text><line style="stroke:#000000;stroke-width:1.0;" x1="647.1113" x2="647.1113" y1="261" y2="281.2969"/><line style="stroke:#000000;stroke-width:1.0;" x1="536.5" x2="699.8018" y1="281.2969" y2="281.2969"/><text fill="#000000" font-family="sans-serif" font-size="14" font-weight="bold" lengthAdjust="spacing" textLength="93.0166" x="541.5" y="296.292">memoryMin</text><text fill="#000000" font-family="sans-serif" font-size="14" lengthAdjust="spacing" textLength="23.6455" x="652.1113" y="296.292">1Gi</text><line style="stroke:#000000;stroke-width:1.0;" x1="647.1113" x2="647.1113" y1="281.2969" y2="301.5938"/><line style="stroke:#000000;stroke-width:1.0;" x1="536.5" x2="699.8018" y1="301.5938" y2="301.5938"/><text fill="#000000" font-family="sans-serif" font-size="14" font-weight="bold" lengthAdjust="spacing" textLength="66.6914" x="541.5" y="316.5889">podsMin</text><text fill="#000000" font-family="sans-serif" font-size="14" lengthAdjust="spacing" textLength="8.9072" x="652.1113" y="316.5889">1</text><line style="stroke:#000000;stroke-width:1.0;" x1="647.1113" x2="647.1113" y1="301.5938" y2="321.8906"/><line style="stroke:#000000;stroke-width:1.0;" x1="536.5" x2="699.8018" y1="321.8906" y2="321.8906"/><text fill="#000000" font-family="sans-serif" font-size="14" font-weight="bold" lengthAdjust="spacing" textLength="64.5791" x="541.5" y="336.8857">cpuStep</text><text fill="#000000" font-family="sans-serif" font-size="14" lengthAdjust="spacing" textLength="40.3594" x="652.1113" y="336.8857">250m</text><line style="stroke:#000000;stroke-width:1.0;" x1="647.1113" x2="647.1113" y1="321.8906" y2="342.1875"/><line style="stroke:#000000;stroke-width:1.0;" x1="536.5" x2="699.8018" y1="342.1875" y2="342.1875"/><text fill="#000000" font-family="sans-serif" font-size="14" font-weight="bold" lengthAdjust="spacing" textLength="100.6113" x="541.5" y="357.1826">memoryStep</text><text fill="#000000" font-family="sans-serif" font-size="14" lengthAdjust="spacing" textLength="42.6904" x="652.1113" y="357.1826">512Mi</text><line style="stroke:#000000;stroke-width:1.0;" x1="647.1113" x2="647.1113" y1="342.1875" y2="362.4844"/><line style="stroke:#000000;stroke-width:1.0;" x1="536.5" x2="699.8018" y1="362.4844" y2="362.4844"/><text fill="#000000" font-family="sans-serif" font-size="14" font-weight="bold" lengthAdjust="spacing" textLength="74.2861" x="541.5" y="377.4795">podsStep</text><text fill="#000000" font-family="sans-serif" font-size="14" lengthAdjust="spacing" textLength="8.9072" x="652.1113" y="377.4795">1</text><line style="stroke:#000000;stroke-width:1.0;" x1="647.1113" x2="647.1113" y1="362.4844" y2="382.7813"/><rect fill="none" height="121.7813" rx="5" ry="5" style="stroke:#000000;stroke-width:1.5;" width="163.3018" x="536.5" y="261"/><path d="M453.5,101 L466.5,101 C479.7857,101 493.722,100.7263 507.5318,100.287 " fill="none" style="stroke:#000000;stroke-width:1.0;stroke-dasharray:3.0,3.0;"/><path d="M507.636,103.3487 L509.8281,100.2089 L507.4277,97.2253 L515.1861,100.0267 L507.636,103.3487 " fill="#000000" style="stroke:#000000;stroke-width:1.0;"/><ellipse cx="453.5" cy="101" fill="#000000" rx="3" ry="3" style="stroke:#000000;stroke-width:1.0;"/><path d="M247,175 L260,175 C267.4357,175 289.9186,157.6329 313.9091,137.0927 " fill="none" style="stroke:#000000;stroke-width:1.0;stroke-dasharray:3.0,3.0;"/><path d="M315.9067,139.4095 L315.6467,135.5945 L311.9116,134.7759 L319.7011,132.0988 L315.9067,139.4095 " fill="#000000" style="stroke:#000000;stroke-width:1.0;"/><ellipse cx="247" cy="175" fill="#000000" rx="3" ry="3" style="stroke:#000000;stroke-width:1.0;"/><path d="M465.5,195 L478.5,195 C498.8745,195 550.4881,181.7782 584.7619,172.3323 " fill="none" style="stroke:#000000;stroke-width:1.0;stroke-dasharray:3.0,3.0;"/><path d="M585.5903,175.3155 L586.9993,171.711 L583.9335,169.3492 L592.2198,170.2613 L585.5903,175.3155 " fill="#000000" style="stroke:#000000;stroke-width:1.0;"/><ellipse cx="465.5" cy="195" fill="#000000" rx="3" ry="3" style="stroke:#000000;stroke-width:1.0;"/><path d="M678.5,232 L691.5,232 C711.905,232 735.4749,232 750.4282,232 " fill="none" style="stroke:#000000;stroke-width:1.0;stroke-dasharray:3.0,3.0;"/><path d="M750.4282,235.0878 L752.7441,232 L750.4282,228.9122 L758.1477,232 L750.4282,235.0878 " fill="#000000" style="stroke:#000000;stroke-width:1.0;"/><ellipse cx="678.5" cy="232" fill="#000000" rx="3" ry="3" style="stroke:#000000;stroke-width:1.0;"/><path d="M465.5,215 L478.5,215 C497.6979,215 518.3684,215.6743 537.7481,216.6043 " fill="none" style="stroke:#000000;stroke-width:1.0;stroke-dasharray:3.0,3.0;"/><path d="M537.595,219.6615 L540.041,216.7192 L537.9013,213.5471 L545.3911,216.9872 L537.595,219.6615 " fill="#000000" style="stroke:#000000;stroke-width:1.0;"/><ellipse cx="465.5" cy="215" fill="#000000" rx="3" ry="3" style="stroke:#000000;stroke-width:1.0;"/><path d="M247,195 L260,195 C269.2711,195 278.9245,195 288.5819,195 " fill="none" style="stroke:#000000;stroke-width:1.0;stroke-dasharray:3.0,3.0;"/><path d="M288.5819,198.0955 L290.9035,195 L288.5819,191.9045 L296.3206,195 L288.5819,198.0955 " fill="#000000" style="stroke:#000000;stroke-width:1.0;"/><ellipse cx="247" cy="195" fill="#000000" rx="3" ry="3" style="stroke:#000000;stroke-width:1.0;"/><path d="M451.5,298 L464.5,298 C485.6654,298 508.2809,300.2693 529.4535,303.4123 " fill="none" style="stroke:#000000;stroke-width:1.0;stroke-dasharray:3.0,3.0;"/><path d="M528.9951,306.3819 L531.6807,303.756 L529.9118,300.4426 L536.8775,304.5581 L528.9951,306.3819 " fill="#000000" style="stroke:#000000;stroke-width:1.0;"/><ellipse cx="451.5" cy="298" fill="#000000" rx="3" ry="3" style="stroke:#000000;stroke-width:1.0;"/><path d="M247,215 L260,215 C266.1564,215 331.1545,259.5247 365.4979,283.3523 " fill="none" style="stroke:#000000;stroke-width:1.0;stroke-dasharray:3.0,3.0;"/><path d="M363.7098,285.9257 L367.4279,284.6934 L367.286,280.779 L371.9313,287.8226 L363.7098,285.9257 " fill="#000000" style="stroke:#000000;stroke-width:1.0;"/><ellipse cx="247" cy="215" fill="#000000" rx="3" ry="3" style="stroke:#000000;stroke-width:1.0;"/><!--SRC=[TLDDRzim3BthLmW-jS1Qo5uIU3urQzei7zw2kisbw46nkLI3BHao5JGO-jydot7j99sEV8-Fv2DrKo7N-ATIalmbr3vFyWAyY7ftRxmeSrY4IIvIyBuqQFhADKyHjAXGf9KbDcaEv3fz5GWf6kqatiBH8Q_9BKqT3VgnKcMrY3Vi1miebDxNuS5Kz86jK-WgDcoLGLwJVwvdazcOFaALSxe8MI-pgQyqk6B-AT8Lz0DRyGDyxzMkK6c-TNFvZBMi0yChjIf1eu0JItAE8DDQUiZwOf0QBN2V89SPryw3v-EUffFLmscVFsQhyRXhxwLlBjSR9U-Lmb8BYUSsGR5HcO3C8W5Zx4IvxfwZK9BNLZw_T1OSZwdiCPmDMTeJ4Yvv8t8xrNbnk_fOIBTenehFxJyG_AELVnn9YvujjJG9GkaEQ_W_wPOnz8FuK_MMu7kdWvDtGcv0PkwBa5NE9Jx5Ixe3NTc1gNyTi61mFRf8EDAvoIaRKVOjyWVHrv0-FTxI6hua5zFLabRAw1HePh-E5XjJ6tP9vdp7wOEHA0g8wAyIv7ooQ0FqJkw4Lh80YMI-ZZl2Q73rNI1DGDjEw3ec4_ZDJOus8xLhbjl8Lh-_2icIowsnTnjHaEHMMLszjrZo3m00]--></g></svg>