<svg xmlns="http://www.w3.org/2000/svg" xmlns:xlink="http://www.w3.org/1999/xlink" contentStyleType="text/css" height="374px" preserveAspectRatio="none" style="width:799px;height:374px;background:#FFFFFF;" version="1.1" viewBox="0 0 799 374" width="799px" zoomAndPan="magnify"><defs/><g><rect fill="#F1F1F1" height="81.1875" rx="5" ry="5" style="stroke:#F1F1F1;stroke-width:1.5;" width="248.5117" x="10" y="123.1484"/><text fill="#000000" font-family="sans-serif" font-size="14" font-weight="bold" lengthAdjust="spacing" textLength="43.4971" x="15" y="138.1436">name</text><text fill="#000000" font-family="sans-serif" font-size="14" lengthAdjust="spacing" textLength="111.8018" x="141.71" y="138.1436">ExampleK8Slice</text><line style="stroke:#000000;stroke-width:1.0;" x1="136.71" x2="136.71" y1="123.1484" y2="143.4453"/><line style="stroke:#000000;stroke-width:1.0;" x1="10" x2="258.5117" y1="143.4453" y2="143.4453"/><text fill="#000000" font-family="sans-serif" font-size="14" font-weight="bold" lengthAdjust="spacing" textLength="116.71" x="15" y="158.4404">characteristics</text><text fill="#000000" font-family="sans-serif" font-size="14" lengthAdjust="spacing" textLength="13.3506" x="141.71" y="158.4404">&#160;&#160;&#160;</text><line style="stroke:#000000;stroke-width:1.0;" x1="136.71" x2="136.71" y1="143.4453" y2="163.7422"/><line style="stroke:#000000;stroke-width:1.0;" x1="10" x2="258.5117" y1="163.7422" y2="163.7422"/><text fill="#000000" font-family="sans-serif" font-size="14" font-weight="bold" lengthAdjust="spacing" textLength="82.2842" x="15" y="178.7373">properties</text><text fill="#000000" font-family="sans-serif" font-size="14" lengthAdjust="spacing" textLength="13.3506" x="141.71" y="178.7373">&#160;&#160;&#160;</text><line style="stroke:#000000;stroke-width:1.0;" x1="136.71" x2="136.71" y1="163.7422" y2="184.0391"/><line style="stroke:#000000;stroke-width:1.0;" x1="10" x2="258.5117" y1="184.0391" y2="184.0391"/><text fill="#000000" font-family="sans-serif" font-size="14" font-weight="bold" lengthAdjust="spacing" textLength="60.1631" x="15" y="199.0342">policies</text><text fill="#000000" font-family="sans-serif" font-size="14" lengthAdjust="spacing" textLength="13.3506" x="141.71" y="199.0342">&#160;&#160;&#160;</text><line style="stroke:#000000;stroke-width:1.0;" x1="136.71" x2="136.71" y1="184.0391" y2="204.3359"/><rect fill="none" height="81.1875" rx="5" ry="5" style="stroke:#000000;stroke-width:1.5;" width="248.5117" x="10" y="123.1484"/><rect fill="#F1F1F1" height="101.4844" rx="5" ry="5" style="stroke:#F1F1F1;stroke-width:1.5;" width="125.7793" x="324" y="10"/><text fill="#000000" font-family="sans-serif" font-size="14" font-weight="bold" lengthAdjust="spacing" textLength="28.2871" x="329" y="24.9951">cpu</text><text fill="#000000" font-family="sans-serif" font-size="14" lengthAdjust="spacing" textLength="8.9072" x="403.3193" y="24.9951">2</text><line style="stroke:#000000;stroke-width:1.0;" x1="398.3193" x2="398.3193" y1="10" y2="30.2969"/><line style="stroke:#000000;stroke-width:1.0;" x1="324" x2="449.7793" y1="30.2969" y2="30.2969"/><text fill="#000000" font-family="sans-serif" font-size="14" font-weight="bold" lengthAdjust="spacing" textLength="37.9941" x="329" y="45.292">pods</text><text fill="#000000" font-family="sans-serif" font-size="14" lengthAdjust="spacing" textLength="8.9072" x="403.3193" y="45.292">5</text><line style="stroke:#000000;stroke-width:1.0;" x1="398.3193" x2="398.3193" y1="30.2969" y2="50.5938"/><line style="stroke:#000000;stroke-width:1.0;" x1="324" x2="449.7793" y1="50.5938" y2="50.5938"/><text fill="#000000" font-family="sans-serif" font-size="14" font-weight="bold" lengthAdjust="spacing" textLength="64.3193" x="329" y="65.5889">memory</text><text fill="#000000" font-family="sans-serif" font-size="14" lengthAdjust="spacing" textLength="23.6455" x="403.3193" y="65.5889">4Gi</text><line style="stroke:#000000;stroke-width:1.0;" x1="398.3193" x2="398.3193" y1="50.5938" y2="70.8906"/><line style="stroke:#000000;stroke-width:1.0;" x1="324" x2="449.7793" y1="70.8906" y2="70.8906"/><text fill="#000000" font-family="sans-serif" font-size="14" font-weight="bold" lengthAdjust="spacing" textLength="30.0098" x="329" y="85.8857">gpu</text><text fill="#000000" font-family="sans-serif" font-size="14" lengthAdjust="spacing" textLength="13.3506" x="403.3193" y="85.8857">&#160;&#160;&#160;</text><line style="stroke:#000000;stroke-width:1.0;" x1="398.3193" x2="398.3193" y1="70.8906" y2="91.1875"/><line style="stroke:#000000;stroke-width:1.0;" x1="324" x2="449.7793" y1="91.1875" y2="91.1875"/><text fill="#000000" font-family="sans-serif" font-size="14" font-weight="bold" lengthAdjust="spacing" textLength="60.5117" x="329" y="106.1826">storage</text><text fill="#000000" font-family="sans-serif" font-size="14" lengthAdjust="spacing" textLength="41.46" x="403.3193" y="106.1826">100Gi</text><line style="stroke:#000000;stroke-width:1.0;" x1="398.3193" x2="398.3193" y1="91.1875" y2="111.4844"/><rect fill="none" height="101.4844" rx="5" ry="5" style="stroke:#000000;stroke-width:1.5;" width="125.7793" x="324" y="10"/><rect fill="#F1F1F1" height="60.8906" rx="5" ry="5" style="stroke:#F1F1F1;stroke-width:1.5;" width="205.8076" x="515" y="43.2422"/><text fill="#000000" font-family="sans-serif" font-size="14" font-weight="bold" lengthAdjust="spacing" textLength="48.5215" x="520" y="58.2373">model</text><text fill="#000000" font-family="sans-serif" font-size="14" lengthAdjust="spacing" textLength="121.4883" x="594.3193" y="58.2373">NVIDIA Tesla K80</text><line style="stroke:#000000;stroke-width:1.0;" x1="589.3193" x2="589.3193" y1="43.2422" y2="63.5391"/><line style="stroke:#000000;stroke-width:1.0;" x1="515" x2="720.8076" y1="63.5391" y2="63.5391"/><text fill="#000000" font-family="sans-serif" font-size="14" font-weight="bold" lengthAdjust="spacing" textLength="42.6494" x="520" y="78.5342">cores</text><text fill="#000000" font-family="sans-serif" font-size="14" lengthAdjust="spacing" textLength="8.9072" x="594.3193" y="78.5342">1</text><line style="stroke:#000000;stroke-width:1.0;" x1="589.3193" x2="589.3193" y1="63.5391" y2="83.8359"/><line style="stroke:#000000;stroke-width:1.0;" x1="515" x2="720.8076" y1="83.8359" y2="83.8359"/><text fill="#000000" font-family="sans-serif" font-size="14" font-weight="bold" lengthAdjust="spacing" textLength="64.3193" x="520" y="98.8311">memory</text><text fill="#000000" font-family="sans-serif" font-size="14" lengthAdjust="spacing" textLength="32.5527" x="594.3193" y="98.8311">12Gi</text><line style="stroke:#000000;stroke-width:1.0;" x1="589.3193" x2="589.3193" y1="83.8359" y2="104.1328"/><rect fill="none" height="60.8906" rx="5" ry="5" style="stroke:#000000;stroke-width:1.5;" width="205.8076" x="515" y="43.2422"/><rect fill="#F1F1F1" height="60.8906" rx="5" ry="5" style="stroke:#F1F1F1;stroke-width:1.5;" width="182.3467" x="296" y="143.2422"/><text fill="#000000" font-family="sans-serif" font-size="14" font-weight="bold" lengthAdjust="spacing" textLength="57.8252" x="301" y="158.2373">latency</text><text fill="#000000" font-family="sans-serif" font-size="14" lengthAdjust="spacing" textLength="17.8145" x="455.5322" y="158.2373">50</text><line style="stroke:#000000;stroke-width:1.0;" x1="450.5322" x2="450.5322" y1="143.2422" y2="163.5391"/><line style="stroke:#000000;stroke-width:1.0;" x1="296" x2="478.3467" y1="163.5391" y2="163.5391"/><text fill="#000000" font-family="sans-serif" font-size="14" font-weight="bold" lengthAdjust="spacing" textLength="144.5322" x="301" y="178.5342">securityStandards</text><text fill="#000000" font-family="sans-serif" font-size="14" lengthAdjust="spacing" textLength="13.3506" x="455.5322" y="178.5342">&#160;&#160;&#160;</text><line style="stroke:#000000;stroke-width:1.0;" x1="450.5322" x2="450.5322" y1="163.5391" y2="183.8359"/><line style="stroke:#000000;stroke-width:1.0;" x1="296" x2="478.3467" y1="183.8359" y2="183.8359"/><text fill="#000000" font-family="sans-serif" font-size="14" font-weight="bold" lengthAdjust="spacing" textLength="128.1328" x="301" y="198.8311">carbonFootprint</text><text fill="#000000" font-family="sans-serif" font-size="14" lengthAdjust="spacing" textLength="13.3506" x="455.5322" y="198.8311">&#160;&#160;&#160;</text><line style="stroke:#000000;stroke-width:1.0;" x1="450.5322" x2="450.5322" y1="183.8359" y2="204.1328"/><rect fill="none" height="60.8906" rx="5" ry="5" style="stroke:#000000;stroke-width:1.5;" width="182.3467" x="296" y="143.2422"/><rect fill="#F1F1F1" height="40.5938" rx="5" ry="5" style="stroke:#F1F1F1;stroke-width:1.5;" width="52.2529" x="592" y="122.2422"/><text fill="#000000" font-family="sans-serif" font-size="14" lengthAdjust="spacing" textLength="39.7988" x="597" y="137.2373">GDPR</text><line style="stroke:#000000;stroke-width:1.0;" x1="592" x2="644.2529" y1="142.5391" y2="142.5391"/><text fill="#000000" font-family="sans-serif" font-size="14" lengthAdjust="spacing" textLength="42.2529" x="597" y="157.5342">HIPAA</text><rect fill="none" height="40.5938" rx="5" ry="5" style="stroke:#000000;stroke-width:1.5;" width="52.2529" x="592" y="122.2422"/><rect fill="#F1F1F1" height="40.5938" rx="5" ry="5" style="stroke:#F1F1F1;stroke-width:1.5;" width="146.4375" x="545" y="181.2422"/><text fill="#000000" font-family="sans-serif" font-size="14" font-weight="bold" lengthAdjust="spacing" textLength="78.0596" x="550" y="196.2373">embodied</text><text fill="#000000" font-family="sans-serif" font-size="14" lengthAdjust="spacing" textLength="35.6289" x="650.8086" y="196.2373">2000</text><line style="stroke:#000000;stroke-width:1.0;" x1="645.8086" x2="645.8086" y1="181.2422" y2="201.5391"/><line style="stroke:#000000;stroke-width:1.0;" x1="545" x2="691.4375" y1="201.5391" y2="201.5391"/><text fill="#000000" font-family="sans-serif" font-size="14" font-weight="bold" lengthAdjust="spacing" textLength="90.8086" x="550" y="216.5342">operational</text><text fill="#000000" font-family="sans-serif" font-size="14" lengthAdjust="spacing" textLength="13.3506" x="650.8086" y="216.5342">&#160;&#160;&#160;</text><line style="stroke:#000000;stroke-width:1.0;" x1="645.8086" x2="645.8086" y1="201.5391" y2="221.8359"/><rect fill="none" height="40.5938" rx="5" ry="5" style="stroke:#000000;stroke-width:1.5;" width="146.4375" x="545" y="181.2422"/><rect fill="#F1F1F1" height="15" rx="5" ry="5" style="stroke:#F1F1F1;stroke-width:1.5;" width="30" x="758" y="204.2422"/><rect fill="none" height="15" rx="5" ry="5" style="stroke:#000000;stroke-width:1.5;" width="30" x="758" y="204.2422"/><rect fill="#F1F1F1" height="20.2969" rx="5" ry="5" style="stroke:#F1F1F1;stroke-width:1.5;" width="151.9746" x="311" y="267.5938"/><text fill="#000000" font-family="sans-serif" font-size="14" font-weight="bold" lengthAdjust="spacing" textLength="118.624" x="316" y="282.5889">partitionability</text><text fill="#000000" font-family="sans-serif" font-size="14" lengthAdjust="spacing" textLength="13.3506" x="444.624" y="282.5889">&#160;&#160;&#160;</text><line style="stroke:#000000;stroke-width:1.0;" x1="439.624" x2="439.624" y1="267.5938" y2="287.8906"/><rect fill="none" height="20.2969" rx="5" ry="5" style="stroke:#000000;stroke-width:1.5;" width="151.9746" x="311" y="267.5938"/><rect fill="#F1F1F1" height="121.7813" rx="5" ry="5" style="stroke:#F1F1F1;stroke-width:1.5;" width="163.3018" x="536.5" y="240.7422"/><text fill="#000000" font-family="sans-serif" font-size="14" font-weight="bold" lengthAdjust="spacing" textLength="56.9844" x="541.5" y="255.7373">cpuMin</text><text fill="#000000" font-family="sans-serif" font-size="14" lengthAdjust="spacing" textLength="40.3594" x="652.1113" y="255.7373">500m</text><line style="stroke:#000000;stroke-width:1.0;" x1="647.1113" x2="647.1113" y1="240.7422" y2="261.0391"/><line style="stroke:#000000;stroke-width:1.0;" x1="536.5" x2="699.8018" y1="261.0391" y2="261.0391"/><text fill="#000000" font-family="sans-serif" font-size="14" font-weight="bold" lengthAdjust="spacing" textLength="93.0166" x="541.5" y="276.0342">memoryMin</text><text fill="#000000" font-family="sans-serif" font-size="14" lengthAdjust="spacing" textLength="23.6455" x="652.1113" y="276.0342">1Gi</text><line style="stroke:#000000;stroke-width:1.0;" x1="647.1113" x2="647.1113" y1="261.0391" y2="281.3359"/><line style="stroke:#000000;stroke-width:1.0;" x1="536.5" x2="699.8018" y1="281.3359" y2="281.3359"/><text fill="#000000" font-family="sans-serif" font-size="14" font-weight="bold" lengthAdjust="spacing" textLength="66.6914" x="541.5" y="296.3311">podsMin</text><text fill="#000000" font-family="sans-serif" font-size="14" lengthAdjust="spacing" textLength="8.9072" x="652.1113" y="296.3311">1</text><line style="stroke:#000000;stroke-width:1.0;" x1="647.1113" x2="647.1113" y1="281.3359" y2="301.6328"/><line style="stroke:#000000;stroke-width:1.0;" x1="536.5" x2="699.8018" y1="301.6328" y2="301.6328"/><text fill="#000000" font-family="sans-serif" font-size="14" font-weight="bold" lengthAdjust="spacing" textLength="64.5791" x="541.5" y="316.6279">cpuStep</text><text fill="#000000" font-family="sans-serif" font-size="14" lengthAdjust="spacing" textLength="40.3594" x="652.1113" y="316.6279">250m</text><line style="stroke:#000000;stroke-width:1.0;" x1="647.1113" x2="647.1113" y1="301.6328" y2="321.9297"/><line style="stroke:#000000;stroke-width:1.0;" x1="536.5" x2="699.8018" y1="321.9297" y2="321.9297"/><text fill="#000000" font-family="sans-serif" font-size="14" font-weight="bold" lengthAdjust="spacing" textLength="100.6113" x="541.5" y="336.9248">memoryStep</text><text fill="#000000" font-family="sans-serif" font-size="14" lengthAdjust="spacing" textLength="42.6904" x="652.1113" y="336.9248">512Mi</text><line style="stroke:#000000;stroke-width:1.0;" x1="647.1113" x2="647.1113" y1="321.9297" y2="342.2266"/><line style="stroke:#000000;stroke-width:1.0;" x1="536.5" x2="699.8018" y1="342.2266" y2="342.2266"/><text fill="#000000" font-family="sans-serif" font-size="14" font-weight="bold" lengthAdjust="spacing" textLength="74.2861" x="541.5" y="357.2217">podsStep</text><text fill="#000000" font-family="sans-serif" font-size="14" lengthAdjust="spacing" textLength="8.9072" x="652.1113" y="357.2217">1</text><line style="stroke:#000000;stroke-width:1.0;" x1="647.1113" x2="647.1113" y1="342.2266" y2="362.5234"/><rect fill="none" height="121.7813" rx="5" ry="5" style="stroke:#000000;stroke-width:1.5;" width="163.3018" x="536.5" y="240.7422"/><path d="M438.5,80.7422 L451.5,80.7422 C469.5462,80.7422 488.6861,80.3241 507.3074,79.6923 " fill="none" style="stroke:#000000;stroke-width:1.0;stroke-dasharray:3.0,3.0;"/><path d="M507.4207,82.87 L509.6906,79.6073 L507.1941,76.5147 L515.2515,79.4091 L507.4207,82.87 " fill="#000000" style="stroke:#000000;stroke-width:1.0;"/><ellipse cx="438.5" cy="80.7422" fill="#000000" rx="3" ry="3" style="stroke:#000000;stroke-width:1.0;"/><path d="M247,153.7422 L260,153.7422 C267.5705,153.7422 292.3931,136.2283 318.0686,116.4012 " fill="none" style="stroke:#000000;stroke-width:1.0;stroke-dasharray:3.0,3.0;"/><path d="M319.9907,118.8744 L319.9235,114.9596 L316.1465,113.928 L324.2517,111.5959 L319.9907,118.8744 " fill="#000000" style="stroke:#000000;stroke-width:1.0;"/><ellipse cx="247" cy="153.7422" fill="#000000" rx="3" ry="3" style="stroke:#000000;stroke-width:1.0;"/><path d="M465.5,173.7422 L478.5,173.7422 C515.7224,173.7422 557.2363,163.0214 585.1215,154.1891 " fill="none" style="stroke:#000000;stroke-width:1.0;stroke-dasharray:3.0,3.0;"/><path d="M586.0469,157.0437 L587.2624,153.495 L584.1961,151.3346 L592.2579,151.8755 L586.0469,157.0437 " fill="#000000" style="stroke:#000000;stroke-width:1.0;"/><ellipse cx="465.5" cy="173.7422" fill="#000000" rx="3" ry="3" style="stroke:#000000;stroke-width:1.0;"/><path d="M678.5,211.7422 L691.5,211.7422 C711.905,211.7422 735.4749,211.7422 750.4282,211.7422 " fill="none" style="stroke:#000000;stroke-width:1.0;stroke-dasharray:3.0,3.0;"/><path d="M750.4282,214.83 L752.7441,211.7422 L750.4282,208.6544 L758.1477,211.7422 L750.4282,214.83 " fill="#000000" style="stroke:#000000;stroke-width:1.0;"/><ellipse cx="678.5" cy="211.7422" fill="#000000" rx="3" ry="3" style="stroke:#000000;stroke-width:1.0;"/><path d="M465.5,193.7422 L478.5,193.7422 C497.7053,193.7422 518.3786,194.5128 537.7588,195.5757 " fill="none" style="stroke:#000000;stroke-width:1.0;stroke-dasharray:3.0,3.0;"/><path d="M537.5837,198.6328 L540.0516,195.7069 L537.9338,192.5185 L545.4017,196.0133 L537.5837,198.6328 " fill="#000000" style="stroke:#000000;stroke-width:1.0;"/><ellipse cx="465.5" cy="193.7422" fill="#000000" rx="3" ry="3" style="stroke:#000000;stroke-width:1.0;"/><path d="M247,173.7422 L260,173.7422 C269.2711,173.7422 278.9245,173.7422 288.5819,173.7422 " fill="none" style="stroke:#000000;stroke-width:1.0;stroke-dasharray:3.0,3.0;"/><path d="M288.5819,176.8377 L290.9035,173.7422 L288.5819,170.6467 L296.3206,173.7422 L288.5819,176.8377 " fill="#000000" style="stroke:#000000;stroke-width:1.0;"/><ellipse cx="247" cy="173.7422" fill="#000000" rx="3" ry="3" style="stroke:#000000;stroke-width:1.0;"/><path d="M451.5,277.7422 L464.5,277.7422 C485.6654,277.7422 508.2809,280.0115 529.4535,283.1544 " fill="none" style="stroke:#000000;stroke-width:1.0;stroke-dasharray:3.0,3.0;"/><path d="M528.9951,286.1241 L531.6807,283.4982 L529.9118,280.1848 L536.8775,284.3003 L528.9951,286.1241 " fill="#000000" style="stroke:#000000;stroke-width:1.0;"/><ellipse cx="451.5" cy="277.7422" fill="#000000" rx="3" ry="3" style="stroke:#000000;stroke-width:1.0;"/><path d="M247,193.7422 L260,193.7422 C266.1788,193.7422 331.1665,238.8033 365.5027,262.918 " fill="none" style="stroke:#000000;stroke-width:1.0;stroke-dasharray:3.0,3.0;"/><path d="M363.6931,265.4909 L367.4323,264.2753 L367.3123,260.3452 L371.9347,267.4421 L363.6931,265.4909 " fill="#000000" style="stroke:#000000;stroke-width:1.0;"/><ellipse cx="247" cy="193.7422" fill="#000000" rx="3" ry="3" style="stroke:#000000;stroke-width:1.0;"/><!--SRC=[TLDDRzim3BthLmW-jS1Qo5uIP3urRTei7zw2kisbw46nsKo3BGao7ImO-jydsN7jE9sEV8-FV2HrKo0t-BjGalmbr3vFyXoya7htVtYkCrYEuqmau7sfqUGNDpn1CA90aHIMMAVLe2vTPd0aLp6jKiVoXjrW3hao1nSUp4GNs5KAhMJDLYbaZlnZCv_E9_G9YepJvPXrCklwoa1LpEyZRK4_i1K_mFTExGALuRlAkyzOmpeoF6sK1eC2UfupZY0J9praNJ58IYFm42ENAJVL35vEUvfDru_zFh_FrvD9szvhHp7XPglaWrAeZP1uFYR8joeLa5eaO8prb5tt78MIt8tovRKTmQbDPRTzPbBR6n5LybParjLvSRlwICXgqOpbdu__IF1FLlvn90rwjbHTnWYwEgpX_wGRnj0Fea_L6uBlzOsJTq9kGARL7o3hZ4jyZbPq3wQmXgb_7R1WS3swY3dIHPbHDgBiM-WFmgzZ-lnqHnryIIvcwnKjL6aIeAdz6qPiIpUmIxBWUquVIuaYXv3-r20NqsKJeFToBuoIEKWaYqtK4aQ3grk1D0PZEw6RY4pXZPSPsep4hbdkGblzuMfCLbpkIdkt8GL9xfJLDGUBnVy0]--></g></svg>