<svg xmlns="http://www.w3.org/2000/svg" xmlns:xlink="http://www.w3.org/1999/xlink" contentStyleType="text/css" height="446px" preserveAspectRatio="none" style="width:1152px;height:446px;background:#FFFFFF;" version="1.1" viewBox="0 0 1152 446" width="1152px" zoomAndPan="magnify"><defs/><g><rect fill="#F1F1F1" height="81.1875" rx="5" ry="5" style="stroke:#F1F1F1;stroke-width:1.5;" width="248.5117" x="10" y="154.4063"/><text fill="#000000" font-family="sans-serif" font-size="14" font-weight="bold" lengthAdjust="spacing" textLength="43.4971" x="15" y="169.4014">name</text><text fill="#000000" font-family="sans-serif" font-size="14" lengthAdjust="spacing" textLength="111.8018" x="141.71" y="169.4014">ExampleK8Slice</text><line style="stroke:#000000;stroke-width:1.0;" x1="136.71" x2="136.71" y1="154.4063" y2="174.7031"/><line style="stroke:#000000;stroke-width:1.0;" x1="10" x2="258.5117" y1="174.7031" y2="174.7031"/><text fill="#000000" font-family="sans-serif" font-size="14" font-weight="bold" lengthAdjust="spacing" textLength="116.71" x="15" y="189.6982">characteristics</text><text fill="#000000" font-family="sans-serif" font-size="14" lengthAdjust="spacing" textLength="13.3506" x="141.71" y="189.6982">&#160;&#160;&#160;</text><line style="stroke:#000000;stroke-width:1.0;" x1="136.71" x2="136.71" y1="174.7031" y2="195"/><line style="stroke:#000000;stroke-width:1.0;" x1="10" x2="258.5117" y1="195" y2="195"/><text fill="#000000" font-family="sans-serif" font-size="14" font-weight="bold" lengthAdjust="spacing" textLength="82.2842" x="15" y="209.9951">properties</text><text fill="#000000" font-family="sans-serif" font-size="14" lengthAdjust="spacing" textLength="13.3506" x="141.71" y="209.9951">&#160;&#160;&#160;</text><line style="stroke:#000000;stroke-width:1.0;" x1="136.71" x2="136.71" y1="195" y2="215.2969"/><line style="stroke:#000000;stroke-width:1.0;" x1="10" x2="258.5117" y1="215.2969" y2="215.2969"/><text fill="#000000" font-family="sans-serif" font-size="14" font-weight="bold" lengthAdjust="spacing" textLength="60.1631" x="15" y="230.292">policies</text><text fill="#000000" font-family="sans-serif" font-size="14" lengthAdjust="spacing" textLength="13.3506" x="141.71" y="230.292">&#160;&#160;&#160;</text><line style="stroke:#000000;stroke-width:1.0;" x1="136.71" x2="136.71" y1="215.2969" y2="235.5938"/><rect fill="none" height="81.1875" rx="5" ry="5" style="stroke:#000000;stroke-width:1.5;" width="248.5117" x="10" y="154.4063"/><rect fill="#F1F1F1" height="121.7813" rx="5" ry="5" style="stroke:#F1F1F1;stroke-width:1.5;" width="158.4209" x="326.5" y="10"/><text fill="#000000" font-family="sans-serif" font-size="14" font-weight="bold" lengthAdjust="spacing" textLength="96.9609" x="331.5" y="24.9951">architecture</text><text fill="#000000" font-family="sans-serif" font-size="14" lengthAdjust="spacing" textLength="26.0996" x="438.4609" y="24.9951">x86</text><line style="stroke:#000000;stroke-width:1.0;" x1="433.4609" x2="433.4609" y1="10" y2="30.2969"/><line style="stroke:#000000;stroke-width:1.0;" x1="326.5" x2="484.9209" y1="30.2969" y2="30.2969"/><text fill="#000000" font-family="sans-serif" font-size="14" font-weight="bold" lengthAdjust="spacing" textLength="28.2871" x="331.5" y="45.292">cpu</text><text fill="#000000" font-family="sans-serif" font-size="14" lengthAdjust="spacing" textLength="8.9072" x="438.4609" y="45.292">2</text><line style="stroke:#000000;stroke-width:1.0;" x1="433.4609" x2="433.4609" y1="30.2969" y2="50.5938"/><line style="stroke:#000000;stroke-width:1.0;" x1="326.5" x2="484.9209" y1="50.5938" y2="50.5938"/><text fill="#000000" font-family="sans-serif" font-size="14" font-weight="bold" lengthAdjust="spacing" textLength="37.9941" x="331.5" y="65.5889">pods</text><text fill="#000000" font-family="sans-serif" font-size="14" lengthAdjust="spacing" textLength="8.9072" x="438.4609" y="65.5889">5</text><line style="stroke:#000000;stroke-width:1.0;" x1="433.4609" x2="433.4609" y1="50.5938" y2="70.8906"/><line style="stroke:#000000;stroke-width:1.0;" x1="326.5" x2="484.9209" y1="70.8906" y2="70.8906"/><text fill="#000000" font-family="sans-serif" font-size="14" font-weight="bold" lengthAdjust="spacing" textLength="64.3193" x="331.5" y="85.8857">memory</text><text fill="#000000" font-family="sans-serif" font-size="14" lengthAdjust="spacing" textLength="23.6455" x="438.4609" y="85.8857">4Gi</text><line style="stroke:#000000;stroke-width:1.0;" x1="433.4609" x2="433.4609" y1="70.8906" y2="91.1875"/><line style="stroke:#000000;stroke-width:1.0;" x1="326.5" x2="484.9209" y1="91.1875" y2="91.1875"/><text fill="#000000" font-family="sans-serif" font-size="14" font-weight="bold" lengthAdjust="spacing" textLength="30.0098" x="331.5" y="106.1826">gpu</text><text fill="#000000" font-family="sans-serif" font-size="14" lengthAdjust="spacing" textLength="13.3506" x="438.4609" y="106.1826">&#160;&#160;&#160;</text><line style="stroke:#000000;stroke-width:1.0;" x1="433.4609" x2="433.4609" y1="91.1875" y2="111.4844"/><line style="stroke:#000000;stroke-width:1.0;" x1="326.5" x2="484.9209" y1="111.4844" y2="111.4844"/><text fill="#000000" font-family="sans-serif" font-size="14" font-weight="bold" lengthAdjust="spacing" textLength="60.5117" x="331.5" y="126.4795">storage</text><text fill="#000000" font-family="sans-serif" font-size="14" lengthAdjust="spacing" textLength="41.46" x="438.4609" y="126.4795">100Gi</text><line style="stroke:#000000;stroke-width:1.0;" x1="433.4609" x2="433.4609" y1="111.4844" y2="131.7813"/><rect fill="none" height="121.7813" rx="5" ry="5" style="stroke:#000000;stroke-width:1.5;" width="158.4209" x="326.5" y="10"/><rect fill="#F1F1F1" height="60.8906" rx="5" ry="5" style="stroke:#F1F1F1;stroke-width:1.5;" width="205.8076" x="574" y="56.5"/><text fill="#000000" font-family="sans-serif" font-size="14" font-weight="bold" lengthAdjust="spacing" textLength="48.5215" x="579" y="71.4951">model</text><text fill="#000000" font-family="sans-serif" font-size="14" lengthAdjust="spacing" textLength="121.4883" x="653.3193" y="71.4951">NVIDIA Tesla K80</text><line style="stroke:#000000;stroke-width:1.0;" x1="648.3193" x2="648.3193" y1="56.5" y2="76.7969"/><line style="stroke:#000000;stroke-width:1.0;" x1="574" x2="779.8076" y1="76.7969" y2="76.7969"/><text fill="#000000" font-family="sans-serif" font-size="14" font-weight="bold" lengthAdjust="spacing" textLength="42.6494" x="579" y="91.792">cores</text><text fill="#000000" font-family="sans-serif" font-size="14" lengthAdjust="spacing" textLength="8.9072" x="653.3193" y="91.792">1</text><line style="stroke:#000000;stroke-width:1.0;" x1="648.3193" x2="648.3193" y1="76.7969" y2="97.0938"/><line style="stroke:#000000;stroke-width:1.0;" x1="574" x2="779.8076" y1="97.0938" y2="97.0938"/><text fill="#000000" font-family="sans-serif" font-size="14" font-weight="bold" lengthAdjust="spacing" textLength="64.3193" x="579" y="112.0889">memory</text><text fill="#000000" font-family="sans-serif" font-size="14" lengthAdjust="spacing" textLength="32.5527" x="653.3193" y="112.0889">12Gi</text><line style="stroke:#000000;stroke-width:1.0;" x1="648.3193" x2="648.3193" y1="97.0938" y2="117.3906"/><rect fill="none" height="60.8906" rx="5" ry="5" style="stroke:#000000;stroke-width:1.5;" width="205.8076" x="574" y="56.5"/><rect fill="#F1F1F1" height="81.1875" rx="5" ry="5" style="stroke:#F1F1F1;stroke-width:1.5;" width="218.5225" x="296" y="164.4063"/><text fill="#000000" font-family="sans-serif" font-size="14" font-weight="bold" lengthAdjust="spacing" textLength="57.8252" x="301" y="179.4014">latency</text><text fill="#000000" font-family="sans-serif" font-size="14" lengthAdjust="spacing" textLength="17.8145" x="491.708" y="179.4014">50</text><line style="stroke:#000000;stroke-width:1.0;" x1="486.708" x2="486.708" y1="164.4063" y2="184.7031"/><line style="stroke:#000000;stroke-width:1.0;" x1="296" x2="514.5225" y1="184.7031" y2="184.7031"/><text fill="#000000" font-family="sans-serif" font-size="14" font-weight="bold" lengthAdjust="spacing" textLength="144.5322" x="301" y="199.6982">securityStandards</text><text fill="#000000" font-family="sans-serif" font-size="14" lengthAdjust="spacing" textLength="13.3506" x="491.708" y="199.6982">&#160;&#160;&#160;</text><line style="stroke:#000000;stroke-width:1.0;" x1="486.708" x2="486.708" y1="184.7031" y2="205"/><line style="stroke:#000000;stroke-width:1.0;" x1="296" x2="514.5225" y1="205" y2="205"/><text fill="#000000" font-family="sans-serif" font-size="14" font-weight="bold" lengthAdjust="spacing" textLength="128.1328" x="301" y="219.9951">carbonFootprint</text><text fill="#000000" font-family="sans-serif" font-size="14" lengthAdjust="spacing" textLength="13.3506" x="491.708" y="219.9951">&#160;&#160;&#160;</text><line style="stroke:#000000;stroke-width:1.0;" x1="486.708" x2="486.708" y1="205" y2="225.2969"/><line style="stroke:#000000;stroke-width:1.0;" x1="296" x2="514.5225" y1="225.2969" y2="225.2969"/><text fill="#000000" font-family="sans-serif" font-size="14" font-weight="bold" lengthAdjust="spacing" textLength="180.708" x="301" y="240.292">networkAuthorizations</text><text fill="#000000" font-family="sans-serif" font-size="14" lengthAdjust="spacing" textLength="13.3506" x="491.708" y="240.292">&#160;&#160;&#160;</text><line style="stroke:#000000;stroke-width:1.0;" x1="486.708" x2="486.708" y1="225.2969" y2="245.5938"/><rect fill="none" height="81.1875" rx="5" ry="5" style="stroke:#000000;stroke-width:1.5;" width="218.5225" x="296" y="164.4063"/><rect fill="#F1F1F1" height="40.5938" rx="5" ry="5" style="stroke:#F1F1F1;stroke-width:1.5;" width="52.2529" x="651" y="135.5"/><text fill="#000000" font-family="sans-serif" font-size="14" lengthAdjust="spacing" textLength="39.7988" x="656" y="150.4951">GDPR</text><line style="stroke:#000000;stroke-width:1.0;" x1="651" x2="703.2529" y1="155.7969" y2="155.7969"/><text fill="#000000" font-family="sans-serif" font-size="14" lengthAdjust="spacing" textLength="42.2529" x="656" y="170.792">HIPAA</text><rect fill="none" height="40.5938" rx="5" ry="5" style="stroke:#000000;stroke-width:1.5;" width="52.2529" x="651" y="135.5"/><rect fill="#F1F1F1" height="40.5938" rx="5" ry="5" style="stroke:#F1F1F1;stroke-width:1.5;" width="146.4375" x="604" y="194.5"/><text fill="#000000" font-family="sans-serif" font-size="14" font-weight="bold" lengthAdjust="spacing" textLength="78.0596" x="609" y="209.4951">embodied</text><text fill="#000000" font-family="sans-serif" font-size="14" lengthAdjust="spacing" textLength="35.6289" x="709.8086" y="209.4951">2000</text><line style="stroke:#000000;stroke-width:1.0;" x1="704.8086" x2="704.8086" y1="194.5" y2="214.7969"/><line style="stroke:#000000;stroke-width:1.0;" x1="604" x2="750.4375" y1="214.7969" y2="214.7969"/><text fill="#000000" font-family="sans-serif" font-size="14" font-weight="bold" lengthAdjust="spacing" textLength="90.8086" x="609" y="229.792">operational</text><text fill="#000000" font-family="sans-serif" font-size="14" lengthAdjust="spacing" textLength="13.3506" x="709.8086" y="229.792">&#160;&#160;&#160;</text><line style="stroke:#000000;stroke-width:1.0;" x1="704.8086" x2="704.8086" y1="214.7969" y2="235.0938"/><rect fill="none" height="40.5938" rx="5" ry="5" style="stroke:#000000;stroke-width:1.5;" width="146.4375" x="604" y="194.5"/><rect fill="#F1F1F1" height="15" rx="5" ry="5" style="stroke:#F1F1F1;stroke-width:1.5;" width="30" x="842.5" y="217.5"/><rect fill="none" height="15" rx="5" ry="5" style="stroke:#000000;stroke-width:1.5;" width="30" x="842.5" y="217.5"/><rect fill="#F1F1F1" height="40.5938" rx="5" ry="5" style="stroke:#F1F1F1;stroke-width:1.5;" width="250.1182" x="552" y="253.5"/><text fill="#000000" font-family="sans-serif" font-size="14" font-weight="bold" lengthAdjust="spacing" textLength="184.7549" x="557" y="268.4951">deniedCommunications</text><text fill="#000000" font-family="sans-serif" font-size="14" lengthAdjust="spacing" textLength="13.3506" x="783.7676" y="268.4951">&#160;&#160;&#160;</text><line style="stroke:#000000;stroke-width:1.0;" x1="778.7676" x2="778.7676" y1="253.5" y2="273.7969"/><line style="stroke:#000000;stroke-width:1.0;" x1="552" x2="802.1182" y1="273.7969" y2="273.7969"/><text fill="#000000" font-family="sans-serif" font-size="14" font-weight="bold" lengthAdjust="spacing" textLength="216.7676" x="557" y="288.792">mandatoryCommunications</text><text fill="#000000" font-family="sans-serif" font-size="14" lengthAdjust="spacing" textLength="13.3506" x="783.7676" y="288.792">&#160;&#160;&#160;</text><line style="stroke:#000000;stroke-width:1.0;" x1="778.7676" x2="778.7676" y1="273.7969" y2="294.0938"/><rect fill="none" height="40.5938" rx="5" ry="5" style="stroke:#000000;stroke-width:1.5;" width="250.1182" x="552" y="253.5"/><rect fill="#F1F1F1" height="20.2969" rx="5" ry="5" style="stroke:#F1F1F1;stroke-width:1.5;" width="23.3506" x="839" y="251.8516"/><text fill="#000000" font-family="sans-serif" font-size="14" lengthAdjust="spacing" textLength="13.3506" x="844" y="266.8467">&#160;&#160;&#160;</text><rect fill="none" height="20.2969" rx="5" ry="5" style="stroke:#000000;stroke-width:1.5;" width="23.3506" x="839" y="251.8516"/><rect fill="#F1F1F1" height="20.2969" rx="5" ry="5" style="stroke:#F1F1F1;stroke-width:1.5;" width="241.6758" x="899" y="251.8516"/><text fill="#000000" font-family="sans-serif" font-size="14" font-weight="bold" lengthAdjust="spacing" textLength="32.2314" x="904" y="266.8467">$ref</text><text fill="#000000" font-family="sans-serif" font-size="14" lengthAdjust="spacing" textLength="189.4443" x="946.2314" y="266.8467">intents/network-intent.json</text><line style="stroke:#000000;stroke-width:1.0;" x1="941.2314" x2="941.2314" y1="251.8516" y2="272.1484"/><rect fill="none" height="20.2969" rx="5" ry="5" style="stroke:#000000;stroke-width:1.5;" width="241.6758" x="899" y="251.8516"/><rect fill="#F1F1F1" height="20.2969" rx="5" ry="5" style="stroke:#F1F1F1;stroke-width:1.5;" width="23.3506" x="839" y="289.8516"/><text fill="#000000" font-family="sans-serif" font-size="14" lengthAdjust="spacing" textLength="13.3506" x="844" y="304.8467">&#160;&#160;&#160;</text><rect fill="none" height="20.2969" rx="5" ry="5" style="stroke:#000000;stroke-width:1.5;" width="23.3506" x="839" y="289.8516"/><rect fill="#F1F1F1" height="20.2969" rx="5" ry="5" style="stroke:#F1F1F1;stroke-width:1.5;" width="241.6758" x="899" y="289.8516"/><text fill="#000000" font-family="sans-serif" font-size="14" font-weight="bold" lengthAdjust="spacing" textLength="32.2314" x="904" y="304.8467">$ref</text><text fill="#000000" font-family="sans-serif" font-size="14" lengthAdjust="spacing" textLength="189.4443" x="946.2314" y="304.8467">intents/network-intent.json</text><line style="stroke:#000000;stroke-width:1.0;" x1="941.2314" x2="941.2314" y1="289.8516" y2="310.1484"/><rect fill="none" height="20.2969" rx="5" ry="5" style="stroke:#000000;stroke-width:1.5;" width="241.6758" x="899" y="289.8516"/><rect fill="#F1F1F1" height="20.2969" rx="5" ry="5" style="stroke:#F1F1F1;stroke-width:1.5;" width="151.9746" x="329.5" y="313.8516"/><text fill="#000000" font-family="sans-serif" font-size="14" font-weight="bold" lengthAdjust="spacing" textLength="118.624" x="334.5" y="328.8467">partitionability</text><text fill="#000000" font-family="sans-serif" font-size="14" lengthAdjust="spacing" textLength="13.3506" x="463.124" y="328.8467">&#160;&#160;&#160;</text><line style="stroke:#000000;stroke-width:1.0;" x1="458.124" x2="458.124" y1="313.8516" y2="334.1484"/><rect fill="none" height="20.2969" rx="5" ry="5" style="stroke:#000000;stroke-width:1.5;" width="151.9746" x="329.5" y="313.8516"/><rect fill="#F1F1F1" height="121.7813" rx="5" ry="5" style="stroke:#F1F1F1;stroke-width:1.5;" width="163.3018" x="595.5" y="313"/><text fill="#000000" font-family="sans-serif" font-size="14" font-weight="bold" lengthAdjust="spacing" textLength="56.9844" x="600.5" y="327.9951">cpuMin</text><text fill="#000000" font-family="sans-serif" font-size="14" lengthAdjust="spacing" textLength="40.3594" x="711.1113" y="327.9951">500m</text><line style="stroke:#000000;stroke-width:1.0;" x1="706.1113" x2="706.1113" y1="313" y2="333.2969"/><line style="stroke:#000000;stroke-width:1.0;" x1="595.5" x2="758.8018" y1="333.2969" y2="333.2969"/><text fill="#000000" font-family="sans-serif" font-size="14" font-weight="bold" lengthAdjust="spacing" textLength="93.0166" x="600.5" y="348.292">memoryMin</text><text fill="#000000" font-family="sans-serif" font-size="14" lengthAdjust="spacing" textLength="23.6455" x="711.1113" y="348.292">1Gi</text><line style="stroke:#000000;stroke-width:1.0;" x1="706.1113" x2="706.1113" y1="333.2969" y2="353.5938"/><line style="stroke:#000000;stroke-width:1.0;" x1="595.5" x2="758.8018" y1="353.5938" y2="353.5938"/><text fill="#000000" font-family="sans-serif" font-size="14" font-weight="bold" lengthAdjust="spacing" textLength="66.6914" x="600.5" y="368.5889">podsMin</text><text fill="#000000" font-family="sans-serif" font-size="14" lengthAdjust="spacing" textLength="8.9072" x="711.1113" y="368.5889">1</text><line style="stroke:#000000;stroke-width:1.0;" x1="706.1113" x2="706.1113" y1="353.5938" y2="373.8906"/><line style="stroke:#000000;stroke-width:1.0;" x1="595.5" x2="758.8018" y1="373.8906" y2="373.8906"/><text fill="#000000" font-family="sans-serif" font-size="14" font-weight="bold" lengthAdjust="spacing" textLength="64.5791" x="600.5" y="388.8857">cpuStep</text><text fill="#000000" font-family="sans-serif" font-size="14" lengthAdjust="spacing" textLength="40.3594" x="711.1113" y="388.8857">250m</text><line style="stroke:#000000;stroke-width:1.0;" x1="706.1113" x2="706.1113" y1="373.8906" y2="394.1875"/><line style="stroke:#000000;stroke-width:1.0;" x1="595.5" x2="758.8018" y1="394.1875" y2="394.1875"/><text fill="#000000" font-family="sans-serif" font-size="14" font-weight="bold" lengthAdjust="spacing" textLength="100.6113" x="600.5" y="409.1826">memoryStep</text><text fill="#000000" font-family="sans-serif" font-size="14" lengthAdjust="spacing" textLength="42.6904" x="711.1113" y="409.1826">512Mi</text><line style="stroke:#000000;stroke-width:1.0;" x1="706.1113" x2="706.1113" y1="394.1875" y2="414.4844"/><line style="stroke:#000000;stroke-width:1.0;" x1="595.5" x2="758.8018" y1="414.4844" y2="414.4844"/><text fill="#000000" font-family="sans-serif" font-size="14" font-weight="bold" lengthAdjust="spacing" textLength="74.2861" x="600.5" y="429.4795">podsStep</text><text fill="#000000" font-family="sans-serif" font-size="14" lengthAdjust="spacing" textLength="8.9072" x="711.1113" y="429.4795">1</text><line style="stroke:#000000;stroke-width:1.0;" x1="706.1113" x2="706.1113" y1="414.4844" y2="434.7813"/><rect fill="none" height="121.7813" rx="5" ry="5" style="stroke:#000000;stroke-width:1.5;" width="163.3018" x="595.5" y="313"/><path d="M472,101 L485,101 C511.5093,101 540.0281,99.6491 566.7497,97.7865 " fill="none" style="stroke:#000000;stroke-width:1.0;stroke-dasharray:3.0,3.0;"/><path d="M566.965,100.7809 L568.9956,97.625 L566.5345,94.792 L574.2358,97.2483 L566.965,100.7809 " fill="#000000" style="stroke:#000000;stroke-width:1.0;"/><ellipse cx="472" cy="101" fill="#000000" rx="3" ry="3" style="stroke:#000000;stroke-width:1.0;"/><path d="M247,185 L260,185 C280.8273,185 279.7486,168.0257 296,155 C303.8733,148.6895 312.1155,142.1748 320.3906,135.6952 " fill="none" style="stroke:#000000;stroke-width:1.0;stroke-dasharray:3.0,3.0;"/><path d="M322.3683,138.2268 L322.2892,134.212 L318.4129,133.1637 L326.7194,130.751 L322.3683,138.2268 " fill="#000000" style="stroke:#000000;stroke-width:1.0;"/><ellipse cx="247" cy="185" fill="#000000" rx="3" ry="3" style="stroke:#000000;stroke-width:1.0;"/><path d="M503,195 L516,195 C532.6058,195 535.91,189.1067 552,185 C582.9857,177.0914 618.5337,168.898 643.6912,163.2461 " fill="none" style="stroke:#000000;stroke-width:1.0;stroke-dasharray:3.0,3.0;"/><path d="M644.3589,166.229 L645.9284,162.7453 L643.0234,160.2631 L651.1486,161.5767 L644.3589,166.229 " fill="#000000" style="stroke:#000000;stroke-width:1.0;"/><ellipse cx="503" cy="195" fill="#000000" rx="3" ry="3" style="stroke:#000000;stroke-width:1.0;"/><path d="M737.5,225 L750.5,225 C780.5951,225 815.8104,225 835.2387,225 " fill="none" style="stroke:#000000;stroke-width:1.0;stroke-dasharray:3.0,3.0;"/><path d="M835.2387,228.0081 L837.4948,225 L835.2387,221.9919 L842.759,225 L835.2387,228.0081 " fill="#000000" style="stroke:#000000;stroke-width:1.0;"/><ellipse cx="737.5" cy="225" fill="#000000" rx="3" ry="3" style="stroke:#000000;stroke-width:1.0;"/><path d="M503,215 L516,215 C542.2488,215 570.9122,215 596.6591,215 " fill="none" style="stroke:#000000;stroke-width:1.0;stroke-dasharray:3.0,3.0;"/><path d="M596.6591,218.0137 L598.9194,215 L596.6591,211.9863 L604.1934,215 L596.6591,218.0137 " fill="#000000" style="stroke:#000000;stroke-width:1.0;"/><ellipse cx="503" cy="215" fill="#000000" rx="3" ry="3" style="stroke:#000000;stroke-width:1.0;"/><path d="M849.5817,262 L862.5817,262 C869.8474,262 880.0557,262 891.8186,262 " fill="none" style="stroke:#000000;stroke-width:1.0;stroke-dasharray:3.0,3.0;"/><path d="M891.8186,265.005 L894.0724,262 L891.8186,258.995 L899.3312,262 L891.8186,265.005 " fill="#000000" style="stroke:#000000;stroke-width:1.0;"/><ellipse cx="849.5817" cy="262" fill="#000000" rx="3" ry="3" style="stroke:#000000;stroke-width:1.0;"/><path d="M789.5,264 L802.5,264 C812.2318,264 823.0752,263.5757 831.9419,263.118 " fill="none" style="stroke:#000000;stroke-width:1.0;stroke-dasharray:3.0,3.0;"/><path d="M832.1093,266.1175 L834.1915,262.9925 L831.7745,260.1186 L839.4405,262.6995 L832.1093,266.1175 " fill="#000000" style="stroke:#000000;stroke-width:1.0;"/><ellipse cx="789.5" cy="264" fill="#000000" rx="3" ry="3" style="stroke:#000000;stroke-width:1.0;"/><path d="M849.5817,300 L862.5817,300 C869.8474,300 880.0557,300 891.8186,300 " fill="none" style="stroke:#000000;stroke-width:1.0;stroke-dasharray:3.0,3.0;"/><path d="M891.8186,303.005 L894.0724,300 L891.8186,296.995 L899.3312,300 L891.8186,303.005 " fill="#000000" style="stroke:#000000;stroke-width:1.0;"/><ellipse cx="849.5817" cy="300" fill="#000000" rx="3" ry="3" style="stroke:#000000;stroke-width:1.0;"/><path d="M789.5,284 L802.5,284 C812.7301,284 823.5816,287.3743 832.3263,291.0237 " fill="none" style="stroke:#000000;stroke-width:1.0;stroke-dasharray:3.0,3.0;"/><path d="M831.0463,293.8532 L834.4485,291.9836 L833.6063,288.1941 L839.4002,294.2236 L831.0463,293.8532 " fill="#000000" style="stroke:#000000;stroke-width:1.0;"/><ellipse cx="789.5" cy="284" fill="#000000" rx="3" ry="3" style="stroke:#000000;stroke-width:1.0;"/><path d="M503,235 L516,235 C532.4924,235 535.9831,240.0682 552,244 C562.1753,246.4978 572.8233,249.0926 583.4251,251.664 " fill="none" style="stroke:#000000;stroke-width:1.0;stroke-dasharray:3.0,3.0;"/><path d="M582.7151,254.5944 L585.6229,252.1965 L584.1351,248.7336 L590.751,253.439 L582.7151,254.5944 " fill="#000000" style="stroke:#000000;stroke-width:1.0;"/><ellipse cx="503" cy="235" fill="#000000" rx="3" ry="3" style="stroke:#000000;stroke-width:1.0;"/><path d="M247,205 L260,205 C269.2366,205 278.8041,205 288.4179,205 " fill="none" style="stroke:#000000;stroke-width:1.0;stroke-dasharray:3.0,3.0;"/><path d="M288.4179,208.0859 L290.7323,205 L288.4179,201.9141 L296.1325,205 L288.4179,208.0859 " fill="#000000" style="stroke:#000000;stroke-width:1.0;"/><ellipse cx="247" cy="205" fill="#000000" rx="3" ry="3" style="stroke:#000000;stroke-width:1.0;"/><path d="M470,324 L483,324 C518.1607,324 555.805,331.8346 588.4573,341.3013 " fill="none" style="stroke:#000000;stroke-width:1.0;stroke-dasharray:3.0,3.0;"/><path d="M587.5881,344.2291 L590.6532,341.9532 L589.3266,338.3734 L595.777,343.4745 L587.5881,344.2291 " fill="#000000" style="stroke:#000000;stroke-width:1.0;"/><ellipse cx="470" cy="324" fill="#000000" rx="3" ry="3" style="stroke:#000000;stroke-width:1.0;"/><path d="M247,225 L260,225 C280.8273,225 279.1654,242.7373 296,255 C324.054,275.435 358.0857,296.4142 380.5776,309.7904 " fill="none" style="stroke:#000000;stroke-width:1.0;stroke-dasharray:3.0,3.0;"/><path d="M379.0184,312.4265 L382.5548,310.9598 L382.1369,307.1542 L387.168,313.6885 L379.0184,312.4265 " fill="#000000" style="stroke:#000000;stroke-width:1.0;"/><ellipse cx="247" cy="225" fill="#000000" rx="3" ry="3" style="stroke:#000000;stroke-width:1.0;"/><!--SRC=[nLHDSzem4BthLsWyFIGpXSekCDIdK4WeNoqJ9rmo78Iz0RMsv94b6fhXlrUo-J0sFTStxxxTj_jsLtUPebBzp0H7xmYRp-4q0SV7plqRJT8O9jqWPY4u7mjlkA6IXWeaonGBCmCimd8dbU66AGYLbdcAjsxd45V4fjfQlR8j5P5DuhJBnWGI8NVMt1goicETPpWp5cWHGMp1tnUZmQY7do2BAPvqIIcou1SISZAtwZaJkfvXF3dt9UvC2KdNULyk8KVK0U6aKgGW5OEA935Lm4ERkatAoI3KagbTe2YFgCmrUBciQJYOFrRh_3QQzthdyfPbSQbS2VuWX4ebuwek4oGh4J68ZCSZX5Gos-gfOe9JA-NByge47DHl8N_rjDe8oVxa-ApE504tF7sH99gpy8IwxCz-xpLB7lz1mgkLsRG1N6MV3hIDuhzfbzMfHUulBClgWAtCPe2x_riLkhIVbaUO4wkjJceEa-KZMR7Ox4fTQ7DGCyRpyo4akRxK1u1xSKYdqpjwQwUIwa11cfzh-r-fZuYswyskPZy2NAVQEDeZT0SyoXyUD8yfLy-pATw2p4p3s6rwn6irEpS1LNYiOqmwc7pntPR_kOkVd_hOkc_HpN0-nPdGCWGScGT9ifMsWjsYCTrI_AYvOWdu-4SAV3oO70tudc-P53mnSqFZnUmCwBGQNvd20KXJ2LxCq01UgOwLYGZDyV2rRzWV6bqqfNojpMlWO-2eBqnUkJE-u2y0]--></g></svg>