<svg xmlns="http://www.w3.org/2000/svg" xmlns:xlink="http://www.w3.org/1999/xlink" contentStyleType="text/css" height="323px" preserveAspectRatio="none" style="width:854px;height:323px;background:#FFFFFF;" version="1.1" viewBox="0 0 854 323" width="854px" zoomAndPan="magnify"><defs/><g><rect fill="#F1F1F1" height="40.5938" rx="5" ry="5" style="stroke:#F1F1F1;stroke-width:1.5;" width="152.0361" x="10" y="178.1328"/><text fill="#000000" font-family="sans-serif" font-size="14" font-weight="bold" lengthAdjust="spacing" textLength="118.6855" x="15" y="193.1279">Characteristics</text><text fill="#000000" font-family="sans-serif" font-size="14" lengthAdjust="spacing" textLength="13.3506" x="143.6855" y="193.1279">&#160;&#160;&#160;</text><line style="stroke:#000000;stroke-width:1.0;" x1="138.6855" x2="138.6855" y1="178.1328" y2="198.4297"/><line style="stroke:#000000;stroke-width:1.0;" x1="10" x2="162.0361" y1="198.4297" y2="198.4297"/><text fill="#000000" font-family="sans-serif" font-size="14" font-weight="bold" lengthAdjust="spacing" textLength="91.7861" x="15" y="213.4248">AccessType</text><text fill="#000000" font-family="sans-serif" font-size="14" lengthAdjust="spacing" textLength="13.3506" x="143.6855" y="213.4248">&#160;&#160;&#160;</text><line style="stroke:#000000;stroke-width:1.0;" x1="138.6855" x2="138.6855" y1="198.4297" y2="218.7266"/><rect fill="none" height="40.5938" rx="5" ry="5" style="stroke:#000000;stroke-width:1.5;" width="152.0361" x="10" y="178.1328"/><rect fill="#F1F1F1" height="223.2656" rx="5" ry="5" style="stroke:#F1F1F1;stroke-width:1.5;" width="273.5039" x="199" y="10"/><text fill="#000000" font-family="sans-serif" font-size="14" font-weight="bold" lengthAdjust="spacing" textLength="92.5928" x="204" y="24.9951">SensorType</text><text fill="#000000" font-family="sans-serif" font-size="14" lengthAdjust="spacing" textLength="91.3691" x="376.1348" y="24.9951">Temperature</text><line style="stroke:#000000;stroke-width:1.0;" x1="371.1348" x2="371.1348" y1="10" y2="30.2969"/><line style="stroke:#000000;stroke-width:1.0;" x1="199" x2="472.5039" y1="30.2969" y2="30.2969"/><text fill="#000000" font-family="sans-serif" font-size="14" font-weight="bold" lengthAdjust="spacing" textLength="102.2656" x="204" y="45.292">SensorModel</text><text fill="#000000" font-family="sans-serif" font-size="14" lengthAdjust="spacing" textLength="44.1807" x="376.1348" y="45.292">T1000</text><line style="stroke:#000000;stroke-width:1.0;" x1="371.1348" x2="371.1348" y1="30.2969" y2="50.5938"/><line style="stroke:#000000;stroke-width:1.0;" x1="199" x2="472.5039" y1="50.5938" y2="50.5938"/><text fill="#000000" font-family="sans-serif" font-size="14" font-weight="bold" lengthAdjust="spacing" textLength="161.5127" x="204" y="65.5889">SensorManufacturer</text><text fill="#000000" font-family="sans-serif" font-size="14" lengthAdjust="spacing" textLength="80.9717" x="376.1348" y="65.5889">SensorCorp</text><line style="stroke:#000000;stroke-width:1.0;" x1="371.1348" x2="371.1348" y1="50.5938" y2="70.8906"/><line style="stroke:#000000;stroke-width:1.0;" x1="199" x2="472.5039" y1="70.8906" y2="70.8906"/><text fill="#000000" font-family="sans-serif" font-size="14" font-weight="bold" lengthAdjust="spacing" textLength="110.1816" x="204" y="85.8857">SensorMarket</text><text fill="#000000" font-family="sans-serif" font-size="14" lengthAdjust="spacing" textLength="65.6592" x="376.1348" y="85.8857">Industrial</text><line style="stroke:#000000;stroke-width:1.0;" x1="371.1348" x2="371.1348" y1="70.8906" y2="91.1875"/><line style="stroke:#000000;stroke-width:1.0;" x1="199" x2="472.5039" y1="91.1875" y2="91.1875"/><text fill="#000000" font-family="sans-serif" font-size="14" font-weight="bold" lengthAdjust="spacing" textLength="110.1406" x="204" y="106.1826">SamplingRate</text><text fill="#000000" font-family="sans-serif" font-size="14" lengthAdjust="spacing" textLength="35.6289" x="376.1348" y="106.1826">1000</text><line style="stroke:#000000;stroke-width:1.0;" x1="371.1348" x2="371.1348" y1="91.1875" y2="111.4844"/><line style="stroke:#000000;stroke-width:1.0;" x1="199" x2="472.5039" y1="111.4844" y2="111.4844"/><text fill="#000000" font-family="sans-serif" font-size="14" font-weight="bold" lengthAdjust="spacing" textLength="71.1758" x="204" y="126.4795">Accuracy</text><text fill="#000000" font-family="sans-serif" font-size="14" lengthAdjust="spacing" textLength="17.8145" x="376.1348" y="126.4795">95</text><line style="stroke:#000000;stroke-width:1.0;" x1="371.1348" x2="371.1348" y1="111.4844" y2="131.7813"/><line style="stroke:#000000;stroke-width:1.0;" x1="199" x2="472.5039" y1="131.7813" y2="131.7813"/><text fill="#000000" font-family="sans-serif" font-size="14" font-weight="bold" lengthAdjust="spacing" textLength="103.8447" x="204" y="146.7764">Consumption</text><text fill="#000000" font-family="sans-serif" font-size="14" lengthAdjust="spacing" textLength="17.8145" x="376.1348" y="146.7764">50</text><line style="stroke:#000000;stroke-width:1.0;" x1="371.1348" x2="371.1348" y1="131.7813" y2="152.0781"/><line style="stroke:#000000;stroke-width:1.0;" x1="199" x2="472.5039" y1="152.0781" y2="152.0781"/><text fill="#000000" font-family="sans-serif" font-size="14" font-weight="bold" lengthAdjust="spacing" textLength="71.5996" x="204" y="167.0732">Interface</text><text fill="#000000" font-family="sans-serif" font-size="14" lengthAdjust="spacing" textLength="22.8115" x="376.1348" y="167.0732">I2C</text><line style="stroke:#000000;stroke-width:1.0;" x1="371.1348" x2="371.1348" y1="152.0781" y2="172.375"/><line style="stroke:#000000;stroke-width:1.0;" x1="199" x2="472.5039" y1="172.375" y2="172.375"/><text fill="#000000" font-family="sans-serif" font-size="14" font-weight="bold" lengthAdjust="spacing" textLength="146.2822" x="204" y="187.3701">SecurityStandards</text><text fill="#000000" font-family="sans-serif" font-size="14" lengthAdjust="spacing" textLength="13.3506" x="376.1348" y="187.3701">&#160;&#160;&#160;</text><line style="stroke:#000000;stroke-width:1.0;" x1="371.1348" x2="371.1348" y1="172.375" y2="192.6719"/><line style="stroke:#000000;stroke-width:1.0;" x1="199" x2="472.5039" y1="192.6719" y2="192.6719"/><text fill="#000000" font-family="sans-serif" font-size="14" font-weight="bold" lengthAdjust="spacing" textLength="61.9473" x="204" y="207.667">Latency</text><text fill="#000000" font-family="sans-serif" font-size="14" lengthAdjust="spacing" textLength="17.8145" x="376.1348" y="207.667">10</text><line style="stroke:#000000;stroke-width:1.0;" x1="371.1348" x2="371.1348" y1="192.6719" y2="212.9688"/><line style="stroke:#000000;stroke-width:1.0;" x1="199" x2="472.5039" y1="212.9688" y2="212.9688"/><text fill="#000000" font-family="sans-serif" font-size="14" font-weight="bold" lengthAdjust="spacing" textLength="162.1348" x="204" y="227.9639">additionalProperties</text><text fill="#000000" font-family="sans-serif" font-size="14" lengthAdjust="spacing" textLength="13.3506" x="376.1348" y="227.9639">&#160;&#160;&#160;</text><line style="stroke:#000000;stroke-width:1.0;" x1="371.1348" x2="371.1348" y1="212.9688" y2="233.2656"/><rect fill="none" height="223.2656" rx="5" ry="5" style="stroke:#000000;stroke-width:1.5;" width="273.5039" x="199" y="10"/><rect fill="#F1F1F1" height="40.5938" rx="5" ry="5" style="stroke:#F1F1F1;stroke-width:1.5;" width="83.0215" x="593" y="123.1328"/><text fill="#000000" font-family="sans-serif" font-size="14" lengthAdjust="spacing" textLength="73.0215" x="598" y="138.1279">ISO 27001</text><line style="stroke:#000000;stroke-width:1.0;" x1="593" x2="676.0215" y1="143.4297" y2="143.4297"/><text fill="#000000" font-family="sans-serif" font-size="14" lengthAdjust="spacing" textLength="39.7988" x="598" y="158.4248">GDPR</text><rect fill="none" height="40.5938" rx="5" ry="5" style="stroke:#000000;stroke-width:1.5;" width="83.0215" x="593" y="123.1328"/><rect fill="#F1F1F1" height="81.1875" rx="5" ry="5" style="stroke:#F1F1F1;stroke-width:1.5;" width="249.3867" x="510" y="182.0391"/><text fill="#000000" font-family="sans-serif" font-size="14" font-weight="bold" lengthAdjust="spacing" textLength="141.1416" x="515" y="197.0342">MeasurementUnit</text><text fill="#000000" font-family="sans-serif" font-size="14" lengthAdjust="spacing" textLength="49.6289" x="667.9668" y="197.0342">Celsius</text><line style="stroke:#000000;stroke-width:1.0;" x1="662.9668" x2="662.9668" y1="182.0391" y2="202.3359"/><line style="stroke:#000000;stroke-width:1.0;" x1="510" x2="759.3867" y1="202.3359" y2="202.3359"/><text fill="#000000" font-family="sans-serif" font-size="14" font-weight="bold" lengthAdjust="spacing" textLength="136.6709" x="515" y="217.3311">ConsumptionUnit</text><text fill="#000000" font-family="sans-serif" font-size="14" lengthAdjust="spacing" textLength="27.4805" x="667.9668" y="217.3311">mW</text><line style="stroke:#000000;stroke-width:1.0;" x1="662.9668" x2="662.9668" y1="202.3359" y2="222.6328"/><line style="stroke:#000000;stroke-width:1.0;" x1="510" x2="759.3867" y1="222.6328" y2="222.6328"/><text fill="#000000" font-family="sans-serif" font-size="14" font-weight="bold" lengthAdjust="spacing" textLength="142.9668" x="515" y="237.6279">SamplingRateUnit</text><text fill="#000000" font-family="sans-serif" font-size="14" lengthAdjust="spacing" textLength="86.4199" x="667.9668" y="237.6279">milliseconds</text><line style="stroke:#000000;stroke-width:1.0;" x1="662.9668" x2="662.9668" y1="222.6328" y2="242.9297"/><line style="stroke:#000000;stroke-width:1.0;" x1="510" x2="759.3867" y1="242.9297" y2="242.9297"/><text fill="#000000" font-family="sans-serif" font-size="14" font-weight="bold" lengthAdjust="spacing" textLength="119.4033" x="515" y="257.9248">AccessProtocol</text><text fill="#000000" font-family="sans-serif" font-size="14" lengthAdjust="spacing" textLength="36.0732" x="667.9668" y="257.9248">HTTP</text><line style="stroke:#000000;stroke-width:1.0;" x1="662.9668" x2="662.9668" y1="242.9297" y2="263.2266"/><rect fill="none" height="81.1875" rx="5" ry="5" style="stroke:#000000;stroke-width:1.5;" width="249.3867" x="510" y="182.0391"/><rect fill="#F1F1F1" height="20.2969" rx="5" ry="5" style="stroke:#F1F1F1;stroke-width:1.5;" width="74.4277" x="299" y="266.4844"/><text fill="#000000" font-family="sans-serif" font-size="14" font-weight="bold" lengthAdjust="spacing" textLength="41.0771" x="304" y="281.4795">HTTP</text><text fill="#000000" font-family="sans-serif" font-size="14" lengthAdjust="spacing" textLength="13.3506" x="355.0771" y="281.4795">&#160;&#160;&#160;</text><line style="stroke:#000000;stroke-width:1.0;" x1="350.0771" x2="350.0771" y1="266.4844" y2="286.7813"/><rect fill="none" height="20.2969" rx="5" ry="5" style="stroke:#000000;stroke-width:1.5;" width="74.4277" x="299" y="266.4844"/><rect fill="#F1F1F1" height="20.2969" rx="5" ry="5" style="stroke:#F1F1F1;stroke-width:1.5;" width="93.7324" x="587.5" y="281.4844"/><text fill="#000000" font-family="sans-serif" font-size="14" font-weight="bold" lengthAdjust="spacing" textLength="60.3818" x="592.5" y="296.4795">method</text><text fill="#000000" font-family="sans-serif" font-size="14" lengthAdjust="spacing" textLength="13.3506" x="662.8818" y="296.4795">&#160;&#160;&#160;</text><line style="stroke:#000000;stroke-width:1.0;" x1="657.8818" x2="657.8818" y1="281.4844" y2="301.7813"/><rect fill="none" height="20.2969" rx="5" ry="5" style="stroke:#000000;stroke-width:1.5;" width="93.7324" x="587.5" y="281.4844"/><rect fill="#F1F1F1" height="40.5938" rx="5" ry="5" style="stroke:#F1F1F1;stroke-width:1.5;" width="46.9004" x="796" y="271.1328"/><text fill="#000000" font-family="sans-serif" font-size="14" lengthAdjust="spacing" textLength="28.2461" x="801" y="286.1279">GET</text><line style="stroke:#000000;stroke-width:1.0;" x1="796" x2="842.9004" y1="291.4297" y2="291.4297"/><text fill="#000000" font-family="sans-serif" font-size="14" lengthAdjust="spacing" textLength="36.9004" x="801" y="306.4248">POST</text><rect fill="none" height="40.5938" rx="5" ry="5" style="stroke:#000000;stroke-width:1.5;" width="46.9004" x="796" y="271.1328"/><path d="M461,182.6328 L474,182.6328 C490.6058,182.6328 493.9118,176.7467 510,172.6328 C534.9211,166.2603 562.8025,159.6901 585.8059,154.4181 " fill="none" style="stroke:#000000;stroke-width:1.0;stroke-dasharray:3.0,3.0;"/><path d="M586.5003,157.4593 L588.0868,153.8974 L585.1115,151.377 L593.4087,152.6822 L586.5003,157.4593 " fill="#000000" style="stroke:#000000;stroke-width:1.0;"/><ellipse cx="461" cy="182.6328" fill="#000000" rx="3" ry="3" style="stroke:#000000;stroke-width:1.0;"/><path d="M461,222.6328 L474,222.6328 C483.3153,222.6328 492.9357,222.6328 502.6214,222.6328 " fill="none" style="stroke:#000000;stroke-width:1.0;stroke-dasharray:3.0,3.0;"/><path d="M502.6214,225.7437 L504.9545,222.6328 L502.6214,219.522 L510.3985,222.6328 L502.6214,225.7437 " fill="#000000" style="stroke:#000000;stroke-width:1.0;"/><ellipse cx="461" cy="222.6328" fill="#000000" rx="3" ry="3" style="stroke:#000000;stroke-width:1.0;"/><path d="M149.5,188.6328 L162.5,188.6328 C172.2531,188.6328 182.1195,187.6954 191.9358,186.0423 " fill="none" style="stroke:#000000;stroke-width:1.0;stroke-dasharray:3.0,3.0;"/><path d="M192.4958,189.0399 L194.1841,185.6223 L191.3758,183.0446 L199.43,184.6423 L192.4958,189.0399 " fill="#000000" style="stroke:#000000;stroke-width:1.0;"/><ellipse cx="149.5" cy="188.6328" fill="#000000" rx="3" ry="3" style="stroke:#000000;stroke-width:1.0;"/><path d="M670,291.6328 L683,291.6328 C719.3178,291.6328 761.0909,291.6328 788.6524,291.6328 " fill="none" style="stroke:#000000;stroke-width:1.0;stroke-dasharray:3.0,3.0;"/><path d="M788.6524,294.7239 L790.9707,291.6328 L788.6524,288.5418 L796.3801,291.6328 L788.6524,294.7239 " fill="#000000" style="stroke:#000000;stroke-width:1.0;"/><ellipse cx="670" cy="291.6328" fill="#000000" rx="3" ry="3" style="stroke:#000000;stroke-width:1.0;"/><path d="M360.5,276.6328 L373.5,276.6328 C445.1741,276.6328 527.7577,282.3625 580.388,286.7394 " fill="none" style="stroke:#000000;stroke-width:1.0;stroke-dasharray:3.0,3.0;"/><path d="M580.1339,289.7566 L582.6508,286.93 L580.642,283.7222 L587.9309,287.3745 L580.1339,289.7566 " fill="#000000" style="stroke:#000000;stroke-width:1.0;"/><ellipse cx="360.5" cy="276.6328" fill="#000000" rx="3" ry="3" style="stroke:#000000;stroke-width:1.0;"/><path d="M149.5,208.6328 L162.5,208.6328 C184.6699,208.6328 179.5126,232.0617 199,242.6328 C227.8445,258.2798 264.0141,266.8681 291.873,271.497 " fill="none" style="stroke:#000000;stroke-width:1.0;stroke-dasharray:3.0,3.0;"/><path d="M291.3917,274.5467 L294.1603,271.8579 L292.3543,268.4473 L299.4972,272.7001 L291.3917,274.5467 " fill="#000000" style="stroke:#000000;stroke-width:1.0;"/><ellipse cx="149.5" cy="208.6328" fill="#000000" rx="3" ry="3" style="stroke:#000000;stroke-width:1.0;"/><!--SRC=[RL9DJzj04BtlhrZv1591TXfIy8dMeJHfh5YnWGFYiFKEOLjxrzgFI17AV-zu3S5nyCcQzzxicpTpRIpJzgzHahmIYb-Gl33DIWjQ62jA4yIq0poOWpHA5zi6i1uKK3UWcNKQWYz3KgeuL9uLXM7u2SwaUyQ7KAnRMbTDb6u-u-f_O5lMJ79dh1QiEc2nkgc4NA-OROsr3_RGxsNfSAGj8bSNlNgYf75rOuMI25tq9JE90Q0xF-Pib1nQmdR2RdFB96UQjn4zxk5EdY_fw5iOHZsT1swdsIhObvvwNHTeNNgFKTy8uroq1bcLQOLXMm67A_6i59Z176kGzauA7rG2bH7E30tqPdvdrWz3KZ_EFKjKbJ1GAicFccB0O0mQjAfKVkU_YYBxc7Fd_tQTwetzTaEzs_AQez5gi2-A7qNSfNbJ3ApuShRCY-2W_3IqGdQ4N8Fa_l19LZ4CBbtG3MY3oT3eV1IEnkUJavnPEdSL3ISql8gZSVprajuL2MtXKt9ocoseKKwNGBbep_AFQvCz9NEsONJbf1Krn7JPW9nFVxyNw8tS2Arakouolqy_29FnsGzXQGuQdT3xb4pXcRdAeg9K73SIu-i_pox9WicrOsli3P8a2llgBMBvVm00]--></g></svg>