<svg xmlns="http://www.w3.org/2000/svg" xmlns:xlink="http://www.w3.org/1999/xlink" contentStyleType="text/css" height="269px" preserveAspectRatio="none" style="width:1399px;height:269px;background:#FFFFFF;" version="1.1" viewBox="0 0 1399 269" width="1399px" zoomAndPan="magnify"><defs/><g><rect fill="#F1F1F1" height="20.2969" rx="5" ry="5" style="stroke:#F1F1F1;stroke-width:1.5;" width="152.0361" x="10" y="69.3516"/><text fill="#000000" font-family="sans-serif" font-size="14" font-weight="bold" lengthAdjust="spacing" textLength="118.6855" x="15" y="84.3467">Characteristics</text><text fill="#000000" font-family="sans-serif" font-size="14" lengthAdjust="spacing" textLength="13.3506" x="143.6855" y="84.3467">&#160;&#160;&#160;</text><line style="stroke:#000000;stroke-width:1.0;" x1="138.6855" x2="138.6855" y1="69.3516" y2="89.6484"/><rect fill="none" height="20.2969" rx="5" ry="5" style="stroke:#000000;stroke-width:1.5;" width="152.0361" x="10" y="69.3516"/><rect fill="#F1F1F1" height="121.7813" rx="5" ry="5" style="stroke:#F1F1F1;stroke-width:1.5;" width="514.7852" x="199" y="18.5"/><text fill="#000000" font-family="sans-serif" font-size="14" font-weight="bold" lengthAdjust="spacing" textLength="45.2471" x="204" y="33.4951">Name</text><text fill="#000000" font-family="sans-serif" font-size="14" lengthAdjust="spacing" textLength="122.9922" x="396.2529" y="33.4951">Database Service</text><line style="stroke:#000000;stroke-width:1.0;" x1="391.2529" x2="391.2529" y1="18.5" y2="38.7969"/><line style="stroke:#000000;stroke-width:1.0;" x1="199" x2="713.7852" y1="38.7969" y2="38.7969"/><text fill="#000000" font-family="sans-serif" font-size="14" font-weight="bold" lengthAdjust="spacing" textLength="90.5488" x="204" y="53.792">Description</text><text fill="#000000" font-family="sans-serif" font-size="14" lengthAdjust="spacing" textLength="312.5322" x="396.2529" y="53.792">A scalable database service for applications.</text><line style="stroke:#000000;stroke-width:1.0;" x1="391.2529" x2="391.2529" y1="38.7969" y2="59.0938"/><line style="stroke:#000000;stroke-width:1.0;" x1="199" x2="713.7852" y1="59.0938" y2="59.0938"/><text fill="#000000" font-family="sans-serif" font-size="14" font-weight="bold" lengthAdjust="spacing" textLength="71.5791" x="204" y="74.0889">Category</text><text fill="#000000" font-family="sans-serif" font-size="14" lengthAdjust="spacing" textLength="64.9072" x="396.2529" y="74.0889">database</text><line style="stroke:#000000;stroke-width:1.0;" x1="391.2529" x2="391.2529" y1="59.0938" y2="79.3906"/><line style="stroke:#000000;stroke-width:1.0;" x1="199" x2="713.7852" y1="79.3906" y2="79.3906"/><text fill="#000000" font-family="sans-serif" font-size="14" font-weight="bold" lengthAdjust="spacing" textLength="37.3516" x="204" y="94.3857">Tags</text><text fill="#000000" font-family="sans-serif" font-size="14" lengthAdjust="spacing" textLength="13.3506" x="396.2529" y="94.3857">&#160;&#160;&#160;</text><line style="stroke:#000000;stroke-width:1.0;" x1="391.2529" x2="391.2529" y1="79.3906" y2="99.6875"/><line style="stroke:#000000;stroke-width:1.0;" x1="199" x2="713.7852" y1="99.6875" y2="99.6875"/><text fill="#000000" font-family="sans-serif" font-size="14" font-weight="bold" lengthAdjust="spacing" textLength="121.5498" x="204" y="114.6826">HostingPolicies</text><text fill="#000000" font-family="sans-serif" font-size="14" lengthAdjust="spacing" textLength="13.3506" x="396.2529" y="114.6826">&#160;&#160;&#160;</text><line style="stroke:#000000;stroke-width:1.0;" x1="391.2529" x2="391.2529" y1="99.6875" y2="119.9844"/><line style="stroke:#000000;stroke-width:1.0;" x1="199" x2="713.7852" y1="119.9844" y2="119.9844"/><text fill="#000000" font-family="sans-serif" font-size="14" font-weight="bold" lengthAdjust="spacing" textLength="182.2529" x="204" y="134.9795">ConfigurationTemplate</text><text fill="#000000" font-family="sans-serif" font-size="14" lengthAdjust="spacing" textLength="13.3506" x="396.2529" y="134.9795">&#160;&#160;&#160;</text><line style="stroke:#000000;stroke-width:1.0;" x1="391.2529" x2="391.2529" y1="119.9844" y2="140.2813"/><rect fill="none" height="121.7813" rx="5" ry="5" style="stroke:#000000;stroke-width:1.5;" width="514.7852" x="199" y="18.5"/><rect fill="#F1F1F1" height="60.8906" rx="5" ry="5" style="stroke:#F1F1F1;stroke-width:1.5;" width="76.0557" x="785.5" y="10"/><text fill="#000000" font-family="sans-serif" font-size="14" lengthAdjust="spacing" textLength="64.9072" x="790.5" y="24.9951">database</text><line style="stroke:#000000;stroke-width:1.0;" x1="785.5" x2="861.5557" y1="30.2969" y2="30.2969"/><text fill="#000000" font-family="sans-serif" font-size="14" lengthAdjust="spacing" textLength="57.4287" x="790.5" y="45.292">scalable</text><line style="stroke:#000000;stroke-width:1.0;" x1="785.5" x2="861.5557" y1="50.5938" y2="50.5938"/><text fill="#000000" font-family="sans-serif" font-size="14" lengthAdjust="spacing" textLength="66.0557" x="790.5" y="65.5889">managed</text><rect fill="none" height="60.8906" rx="5" ry="5" style="stroke:#000000;stroke-width:1.5;" width="76.0557" x="785.5" y="10"/><rect fill="#F1F1F1" height="40.5938" rx="5" ry="5" style="stroke:#F1F1F1;stroke-width:1.5;" width="111.6641" x="767.5" y="89"/><text fill="#000000" font-family="sans-serif" font-size="14" lengthAdjust="spacing" textLength="88.4707" x="772.5" y="103.9951">ProviderSide</text><line style="stroke:#000000;stroke-width:1.0;" x1="767.5" x2="879.1641" y1="109.2969" y2="109.2969"/><text fill="#000000" font-family="sans-serif" font-size="14" lengthAdjust="spacing" textLength="101.6641" x="772.5" y="124.292">ConsumerSide</text><rect fill="none" height="40.5938" rx="5" ry="5" style="stroke:#000000;stroke-width:1.5;" width="111.6641" x="767.5" y="89"/><rect fill="#F1F1F1" height="40.5938" rx="5" ry="5" style="stroke:#F1F1F1;stroke-width:1.5;" width="145.4258" x="751" y="148"/><text fill="#000000" font-family="sans-serif" font-size="14" font-weight="bold" lengthAdjust="spacing" textLength="35.335" x="756" y="162.9951">type</text><text fill="#000000" font-family="sans-serif" font-size="14" lengthAdjust="spacing" textLength="43.1416" x="848.2842" y="162.9951">object</text><line style="stroke:#000000;stroke-width:1.0;" x1="843.2842" x2="843.2842" y1="148" y2="168.2969"/><line style="stroke:#000000;stroke-width:1.0;" x1="751" x2="896.4258" y1="168.2969" y2="168.2969"/><text fill="#000000" font-family="sans-serif" font-size="14" font-weight="bold" lengthAdjust="spacing" textLength="82.2842" x="756" y="183.292">properties</text><text fill="#000000" font-family="sans-serif" font-size="14" lengthAdjust="spacing" textLength="13.3506" x="848.2842" y="183.292">&#160;&#160;&#160;</text><line style="stroke:#000000;stroke-width:1.0;" x1="843.2842" x2="843.2842" y1="168.2969" y2="188.5938"/><rect fill="none" height="40.5938" rx="5" ry="5" style="stroke:#000000;stroke-width:1.5;" width="145.4258" x="751" y="148"/><rect fill="#F1F1F1" height="60.8906" rx="5" ry="5" style="stroke:#F1F1F1;stroke-width:1.5;" width="111.5469" x="933" y="148"/><text fill="#000000" font-family="sans-serif" font-size="14" font-weight="bold" lengthAdjust="spacing" textLength="78.1963" x="938" y="162.9951">username</text><text fill="#000000" font-family="sans-serif" font-size="14" lengthAdjust="spacing" textLength="13.3506" x="1026.1963" y="162.9951">&#160;&#160;&#160;</text><line style="stroke:#000000;stroke-width:1.0;" x1="1021.1963" x2="1021.1963" y1="148" y2="168.2969"/><line style="stroke:#000000;stroke-width:1.0;" x1="933" x2="1044.5469" y1="168.2969" y2="168.2969"/><text fill="#000000" font-family="sans-serif" font-size="14" font-weight="bold" lengthAdjust="spacing" textLength="75.6123" x="938" y="183.292">password</text><text fill="#000000" font-family="sans-serif" font-size="14" lengthAdjust="spacing" textLength="13.3506" x="1026.1963" y="183.292">&#160;&#160;&#160;</text><line style="stroke:#000000;stroke-width:1.0;" x1="1021.1963" x2="1021.1963" y1="168.2969" y2="188.5938"/><line style="stroke:#000000;stroke-width:1.0;" x1="933" x2="1044.5469" y1="188.5938" y2="188.5938"/><text fill="#000000" font-family="sans-serif" font-size="14" font-weight="bold" lengthAdjust="spacing" textLength="72.9053" x="938" y="203.5889">database</text><text fill="#000000" font-family="sans-serif" font-size="14" lengthAdjust="spacing" textLength="13.3506" x="1026.1963" y="203.5889">&#160;&#160;&#160;</text><line style="stroke:#000000;stroke-width:1.0;" x1="1021.1963" x2="1021.1963" y1="188.5938" y2="208.8906"/><rect fill="none" height="60.8906" rx="5" ry="5" style="stroke:#000000;stroke-width:1.5;" width="111.5469" x="933" y="148"/><rect fill="#F1F1F1" height="40.5938" rx="5" ry="5" style="stroke:#F1F1F1;stroke-width:1.5;" width="305.4961" x="1082" y="99"/><text fill="#000000" font-family="sans-serif" font-size="14" font-weight="bold" lengthAdjust="spacing" textLength="35.335" x="1087" y="113.9951">type</text><text fill="#000000" font-family="sans-serif" font-size="14" lengthAdjust="spacing" textLength="40.1885" x="1185.9492" y="113.9951">string</text><line style="stroke:#000000;stroke-width:1.0;" x1="1180.9492" x2="1180.9492" y1="99" y2="119.2969"/><line style="stroke:#000000;stroke-width:1.0;" x1="1082" x2="1387.4961" y1="119.2969" y2="119.2969"/><text fill="#000000" font-family="sans-serif" font-size="14" font-weight="bold" lengthAdjust="spacing" textLength="88.9492" x="1087" y="134.292">description</text><text fill="#000000" font-family="sans-serif" font-size="14" lengthAdjust="spacing" textLength="196.5469" x="1185.9492" y="134.292">Username for the database.</text><line style="stroke:#000000;stroke-width:1.0;" x1="1180.9492" x2="1180.9492" y1="119.2969" y2="139.5938"/><rect fill="none" height="40.5938" rx="5" ry="5" style="stroke:#000000;stroke-width:1.5;" width="305.4961" x="1082" y="99"/><rect fill="#F1F1F1" height="40.5938" rx="5" ry="5" style="stroke:#F1F1F1;stroke-width:1.5;" width="300.1504" x="1084.5" y="158"/><text fill="#000000" font-family="sans-serif" font-size="14" font-weight="bold" lengthAdjust="spacing" textLength="35.335" x="1089.5" y="172.9951">type</text><text fill="#000000" font-family="sans-serif" font-size="14" lengthAdjust="spacing" textLength="40.1885" x="1188.4492" y="172.9951">string</text><line style="stroke:#000000;stroke-width:1.0;" x1="1183.4492" x2="1183.4492" y1="158" y2="178.2969"/><line style="stroke:#000000;stroke-width:1.0;" x1="1084.5" x2="1384.6504" y1="178.2969" y2="178.2969"/><text fill="#000000" font-family="sans-serif" font-size="14" font-weight="bold" lengthAdjust="spacing" textLength="88.9492" x="1089.5" y="193.292">description</text><text fill="#000000" font-family="sans-serif" font-size="14" lengthAdjust="spacing" textLength="191.2012" x="1188.4492" y="193.292">Password for the database.</text><line style="stroke:#000000;stroke-width:1.0;" x1="1183.4492" x2="1183.4492" y1="178.2969" y2="198.5938"/><rect fill="none" height="40.5938" rx="5" ry="5" style="stroke:#000000;stroke-width:1.5;" width="300.1504" x="1084.5" y="158"/><rect fill="#F1F1F1" height="40.5938" rx="5" ry="5" style="stroke:#F1F1F1;stroke-width:1.5;" width="224.3535" x="1122.5" y="217"/><text fill="#000000" font-family="sans-serif" font-size="14" font-weight="bold" lengthAdjust="spacing" textLength="35.335" x="1127.5" y="231.9951">type</text><text fill="#000000" font-family="sans-serif" font-size="14" lengthAdjust="spacing" textLength="40.1885" x="1226.4492" y="231.9951">string</text><line style="stroke:#000000;stroke-width:1.0;" x1="1221.4492" x2="1221.4492" y1="217" y2="237.2969"/><line style="stroke:#000000;stroke-width:1.0;" x1="1122.5" x2="1346.8535" y1="237.2969" y2="237.2969"/><text fill="#000000" font-family="sans-serif" font-size="14" font-weight="bold" lengthAdjust="spacing" textLength="88.9492" x="1127.5" y="252.292">description</text><text fill="#000000" font-family="sans-serif" font-size="14" lengthAdjust="spacing" textLength="115.4043" x="1226.4492" y="252.292">Database name.</text><line style="stroke:#000000;stroke-width:1.0;" x1="1221.4492" x2="1221.4492" y1="237.2969" y2="257.5938"/><rect fill="none" height="40.5938" rx="5" ry="5" style="stroke:#000000;stroke-width:1.5;" width="224.3535" x="1122.5" y="217"/><path d="M702,89.5 L715,89.5 C728.2115,89.5 755.3175,77.1864 779.0674,64.9047 " fill="none" style="stroke:#000000;stroke-width:1.0;stroke-dasharray:3.0,3.0;"/><path d="M780.5171,67.6721 L781.143,63.8174 L777.6177,62.1373 L785.9859,61.2804 L780.5171,67.6721 " fill="#000000" style="stroke:#000000;stroke-width:1.0;"/><ellipse cx="702" cy="89.5" fill="#000000" rx="3" ry="3" style="stroke:#000000;stroke-width:1.0;"/><path d="M702,109.5 L715,109.5 C729.6096,109.5 745.3309,109.5 760.1337,109.5 " fill="none" style="stroke:#000000;stroke-width:1.0;stroke-dasharray:3.0,3.0;"/><path d="M760.1337,112.5586 L762.4277,109.5 L760.1337,106.4414 L767.7802,109.5 L760.1337,112.5586 " fill="#000000" style="stroke:#000000;stroke-width:1.0;"/><ellipse cx="702" cy="109.5" fill="#000000" rx="3" ry="3" style="stroke:#000000;stroke-width:1.0;"/><path d="M1033,158.5 L1046,158.5 C1062.4924,158.5 1065.9048,153.0979 1082,149.5 C1093.9592,146.8267 1106.4758,144.1547 1118.9726,141.5684 " fill="none" style="stroke:#000000;stroke-width:1.0;stroke-dasharray:3.0,3.0;"/><path d="M1119.5775,144.5089 L1121.178,141.1147 L1118.3676,138.6278 L1126.3239,140.0561 L1119.5775,144.5089 " fill="#000000" style="stroke:#000000;stroke-width:1.0;"/><ellipse cx="1033" cy="158.5" fill="#000000" rx="3" ry="3" style="stroke:#000000;stroke-width:1.0;"/><path d="M1033,178.5 L1046,178.5 C1056.1773,178.5 1066.6646,178.5 1077.2353,178.5 " fill="none" style="stroke:#000000;stroke-width:1.0;stroke-dasharray:3.0,3.0;"/><path d="M1077.2353,181.5834 L1079.5478,178.5 L1077.2353,175.4166 L1084.9439,178.5 L1077.2353,181.5834 " fill="#000000" style="stroke:#000000;stroke-width:1.0;"/><ellipse cx="1033" cy="178.5" fill="#000000" rx="3" ry="3" style="stroke:#000000;stroke-width:1.0;"/><path d="M1033,198.5 L1046,198.5 C1062.6058,198.5 1065.8305,204.7185 1082,208.5 C1092.8366,211.0343 1104.1462,213.5078 1115.4921,215.8737 " fill="none" style="stroke:#000000;stroke-width:1.0;stroke-dasharray:3.0,3.0;"/><path d="M1114.8766,218.8563 L1117.729,216.3354 L1116.1076,212.8912 L1122.9486,217.4126 L1114.8766,218.8563 " fill="#000000" style="stroke:#000000;stroke-width:1.0;"/><ellipse cx="1033" cy="198.5" fill="#000000" rx="3" ry="3" style="stroke:#000000;stroke-width:1.0;"/><path d="M884,178.5 L897,178.5 C906.2756,178.5 916.0801,178.5 925.6897,178.5 " fill="none" style="stroke:#000000;stroke-width:1.0;stroke-dasharray:3.0,3.0;"/><path d="M925.6897,181.5604 L927.985,178.5 L925.6897,175.4396 L933.3408,178.5 L925.6897,181.5604 " fill="#000000" style="stroke:#000000;stroke-width:1.0;"/><ellipse cx="884" cy="178.5" fill="#000000" rx="3" ry="3" style="stroke:#000000;stroke-width:1.0;"/><path d="M702,130.5 L715,130.5 C720.4255,130.5 740.8684,137.4122 762.532,145.3406 " fill="none" style="stroke:#000000;stroke-width:1.0;stroke-dasharray:3.0,3.0;"/><path d="M761.491,148.1642 L764.6497,146.1213 L763.5729,142.517 L769.591,147.943 L761.491,148.1642 " fill="#000000" style="stroke:#000000;stroke-width:1.0;"/><ellipse cx="702" cy="130.5" fill="#000000" rx="3" ry="3" style="stroke:#000000;stroke-width:1.0;"/><path d="M149.5,79.5 L162.5,79.5 C172.1436,79.5 181.9654,79.5 191.8865,79.5 " fill="none" style="stroke:#000000;stroke-width:1.0;stroke-dasharray:3.0,3.0;"/><path d="M191.8865,82.5419 L194.1679,79.5 L191.8865,76.4581 L199.4911,79.5 L191.8865,82.5419 " fill="#000000" style="stroke:#000000;stroke-width:1.0;"/><ellipse cx="149.5" cy="79.5" fill="#000000" rx="3" ry="3" style="stroke:#000000;stroke-width:1.0;"/><!--SRC=[hLHDRvj04BtlhrXnIgJ62b5KHvpIudx8jLjKsxbKEOnXJ3Q2NJIxK5cL_tk7nT_c58K3WdblthoPPNYq3iYzMgF5Fo7v2k8N84WTah9EfJQ8P0Tuy2UKo95W10wMO57Ea1gLOl3Xm1cXJKbLJXdTKZz9cq81om9bjikoNPPS6P9GLOLAeQNRmR5E30vpG-jMP9TvZCyXRztzsKTyj8VfupiJv_4IDEIO1Vleyr69xuPdeFF4i4E5FTKICetAa6PyErUEkQ6wt6AzyinOgRmct_mSowhWbay6xcbkNVcXc-KhfkwyJ4McGdATlTDCZzSyRDqTsoLwecyTSRDd-eV1dXxhOYlhpz2z70vt45paRoubWmgi_MieUsTRoLRshRRsdy_xsjhlIpkoFYkY_wrxseYD48-eCx-d8Yb0kyLq8XiaomLaEBYxlRiV3Azcu7WZAtaxb64OXGzHE9IBUInR-5fSVKicqfgQUFCorVfVrgt1Qp661kJlMZjLOYH_LQZ7en-xWFoY6qL6bwYT63zD3uIFzpUVbVF_02JvD1KZN45TECv8JSRJYRZwrvi7CG6TrxncaKGjOiEwj6PizXy0]--></g></svg>