<svg xmlns="http://www.w3.org/2000/svg" xmlns:xlink="http://www.w3.org/1999/xlink" contentStyleType="text/css" height="158px" preserveAspectRatio="none" style="width:810px;height:158px;background:#FFFFFF;" version="1.1" viewBox="0 0 810 158" width="810px" zoomAndPan="magnify"><defs/><g><rect fill="#F1F1F1" height="20.2969" rx="5" ry="5" style="stroke:#F1F1F1;stroke-width:1.5;" width="152.0361" x="10" y="60.8516"/><text fill="#000000" font-family="sans-serif" font-size="14" font-weight="bold" lengthAdjust="spacing" textLength="118.6855" x="15" y="75.8467">Characteristics</text><text fill="#000000" font-family="sans-serif" font-size="14" lengthAdjust="spacing" textLength="13.3506" x="143.6855" y="75.8467">&#160;&#160;&#160;</text><line style="stroke:#000000;stroke-width:1.0;" x1="138.6855" x2="138.6855" y1="60.8516" y2="81.1484"/><rect fill="none" height="20.2969" rx="5" ry="5" style="stroke:#000000;stroke-width:1.5;" width="152.0361" x="10" y="60.8516"/><rect fill="#F1F1F1" height="121.7813" rx="5" ry="5" style="stroke:#F1F1F1;stroke-width:1.5;" width="478.8145" x="199" y="10"/><text fill="#000000" font-family="sans-serif" font-size="14" font-weight="bold" lengthAdjust="spacing" textLength="45.2471" x="204" y="24.9951">Name</text><text fill="#000000" font-family="sans-serif" font-size="14" lengthAdjust="spacing" textLength="122.9922" x="360.2822" y="24.9951">Database Service</text><line style="stroke:#000000;stroke-width:1.0;" x1="355.2822" x2="355.2822" y1="10" y2="30.2969"/><line style="stroke:#000000;stroke-width:1.0;" x1="199" x2="677.8145" y1="30.2969" y2="30.2969"/><text fill="#000000" font-family="sans-serif" font-size="14" font-weight="bold" lengthAdjust="spacing" textLength="90.5488" x="204" y="45.292">Description</text><text fill="#000000" font-family="sans-serif" font-size="14" lengthAdjust="spacing" textLength="312.5322" x="360.2822" y="45.292">A scalable database service for applications.</text><line style="stroke:#000000;stroke-width:1.0;" x1="355.2822" x2="355.2822" y1="30.2969" y2="50.5938"/><line style="stroke:#000000;stroke-width:1.0;" x1="199" x2="677.8145" y1="50.5938" y2="50.5938"/><text fill="#000000" font-family="sans-serif" font-size="14" font-weight="bold" lengthAdjust="spacing" textLength="37.3516" x="204" y="65.5889">Tags</text><text fill="#000000" font-family="sans-serif" font-size="14" lengthAdjust="spacing" textLength="13.3506" x="360.2822" y="65.5889">&#160;&#160;&#160;</text><line style="stroke:#000000;stroke-width:1.0;" x1="355.2822" x2="355.2822" y1="50.5938" y2="70.8906"/><line style="stroke:#000000;stroke-width:1.0;" x1="199" x2="677.8145" y1="70.8906" y2="70.8906"/><text fill="#000000" font-family="sans-serif" font-size="14" font-weight="bold" lengthAdjust="spacing" textLength="34.4736" x="204" y="85.8857">Plan</text><text fill="#000000" font-family="sans-serif" font-size="14" lengthAdjust="spacing" textLength="62.8496" x="360.2822" y="85.8857">Premium</text><line style="stroke:#000000;stroke-width:1.0;" x1="355.2822" x2="355.2822" y1="70.8906" y2="91.1875"/><line style="stroke:#000000;stroke-width:1.0;" x1="199" x2="677.8145" y1="91.1875" y2="91.1875"/><text fill="#000000" font-family="sans-serif" font-size="14" font-weight="bold" lengthAdjust="spacing" textLength="61.9473" x="204" y="106.1826">Latency</text><text fill="#000000" font-family="sans-serif" font-size="14" lengthAdjust="spacing" textLength="17.8145" x="360.2822" y="106.1826">20</text><line style="stroke:#000000;stroke-width:1.0;" x1="355.2822" x2="355.2822" y1="91.1875" y2="111.4844"/><line style="stroke:#000000;stroke-width:1.0;" x1="199" x2="677.8145" y1="111.4844" y2="111.4844"/><text fill="#000000" font-family="sans-serif" font-size="14" font-weight="bold" lengthAdjust="spacing" textLength="146.2822" x="204" y="126.4795">SecurityStandards</text><text fill="#000000" font-family="sans-serif" font-size="14" lengthAdjust="spacing" textLength="13.3506" x="360.2822" y="126.4795">&#160;&#160;&#160;</text><line style="stroke:#000000;stroke-width:1.0;" x1="355.2822" x2="355.2822" y1="111.4844" y2="131.7813"/><rect fill="none" height="121.7813" rx="5" ry="5" style="stroke:#000000;stroke-width:1.5;" width="478.8145" x="199" y="10"/><rect fill="#F1F1F1" height="60.8906" rx="5" ry="5" style="stroke:#F1F1F1;stroke-width:1.5;" width="76.0557" x="718.5" y="26.5"/><text fill="#000000" font-family="sans-serif" font-size="14" lengthAdjust="spacing" textLength="64.9072" x="723.5" y="41.4951">database</text><line style="stroke:#000000;stroke-width:1.0;" x1="718.5" x2="794.5557" y1="46.7969" y2="46.7969"/><text fill="#000000" font-family="sans-serif" font-size="14" lengthAdjust="spacing" textLength="57.4287" x="723.5" y="61.792">scalable</text><line style="stroke:#000000;stroke-width:1.0;" x1="718.5" x2="794.5557" y1="67.0938" y2="67.0938"/><text fill="#000000" font-family="sans-serif" font-size="14" lengthAdjust="spacing" textLength="66.0557" x="723.5" y="82.0889">managed</text><rect fill="none" height="60.8906" rx="5" ry="5" style="stroke:#000000;stroke-width:1.5;" width="76.0557" x="718.5" y="26.5"/><rect fill="#F1F1F1" height="40.5938" rx="5" ry="5" style="stroke:#F1F1F1;stroke-width:1.5;" width="83.0215" x="715" y="105.5"/><text fill="#000000" font-family="sans-serif" font-size="14" lengthAdjust="spacing" textLength="73.0215" x="720" y="120.4951">ISO 27001</text><line style="stroke:#000000;stroke-width:1.0;" x1="715" x2="798.0215" y1="125.7969" y2="125.7969"/><text fill="#000000" font-family="sans-serif" font-size="14" lengthAdjust="spacing" textLength="39.7988" x="720" y="140.792">GDPR</text><rect fill="none" height="40.5938" rx="5" ry="5" style="stroke:#000000;stroke-width:1.5;" width="83.0215" x="715" y="105.5"/><path d="M666,61 L679,61 C689.4485,61 700.6837,60.6281 711.2546,60.1112 " fill="none" style="stroke:#000000;stroke-width:1.0;stroke-dasharray:3.0,3.0;"/><path d="M711.4142,63.1348 L713.5224,59.9915 L711.0951,57.0875 L718.8137,59.7124 L711.4142,63.1348 " fill="#000000" style="stroke:#000000;stroke-width:1.0;"/><ellipse cx="666" cy="61" fill="#000000" rx="3" ry="3" style="stroke:#000000;stroke-width:1.0;"/><path d="M666,122 L679,122 C688.295,122 698.2126,122.2943 707.7312,122.7232 " fill="none" style="stroke:#000000;stroke-width:1.0;stroke-dasharray:3.0,3.0;"/><path d="M707.5833,125.7347 L709.9898,122.8342 L707.8791,119.7117 L715.2599,123.093 L707.5833,125.7347 " fill="#000000" style="stroke:#000000;stroke-width:1.0;"/><ellipse cx="666" cy="122" fill="#000000" rx="3" ry="3" style="stroke:#000000;stroke-width:1.0;"/><path d="M149.5,71 L162.5,71 C172.1239,71 181.9369,71 191.8498,71 " fill="none" style="stroke:#000000;stroke-width:1.0;stroke-dasharray:3.0,3.0;"/><path d="M191.8498,74.0394 L194.1293,71 L191.8498,67.9606 L199.4483,71 L191.8498,74.0394 " fill="#000000" style="stroke:#000000;stroke-width:1.0;"/><ellipse cx="149.5" cy="71" fill="#000000" rx="3" ry="3" style="stroke:#000000;stroke-width:1.0;"/><!--SRC=[RL71Qi905BplLpnoKgWIKx4s9rlJIbEjOjHBwU6vUQPRaetiRWGf_ditaMYGxccPcVTcc3VI1fNvqRbalmpiSyRVg90RKa8RmRNZmvceo0_Co29EW0Qtg0aYKWV1oRcxQWBIN8cz4RaifK-WEQQuJGdYUagVfs2NAy3zFXKSIxdkDlUiC2dTFoz8XTOx6ieAhqrkyGmb9XGx5_IhOR58iSguK9I98ckwJz6Gv4VBUcu3ZeWNIfXZP536gE9_4hv5S_0UNBTt6sKIB9QD7DNln4wCZKZ6rGbO6SYiPrCuaDAs4UXrFTVhTmUj20s4HGhk0Dn7lzVtxuUmNesXfDkiDLbCGUU5igN6zd1AR8koqJOByO2mBAGH6VamtvCCW_SQW1Tv42gN6Kd3mitiAXZqEy_2LESb1PiP2sY7HMhi1CzZ8HFVkhzsXcoACYbimpwGPEFSxbL7oqL_]--></g></svg>