<svg xmlns="http://www.w3.org/2000/svg" xmlns:xlink="http://www.w3.org/1999/xlink" contentStyleType="text/css" height="306px" preserveAspectRatio="none" style="width:750px;height:306px;background:#FFFFFF;" version="1.1" viewBox="0 0 750 306" width="750px" zoomAndPan="magnify"><defs/><g><rect fill="#F1F1F1" height="60.8906" rx="5" ry="5" style="stroke:#F1F1F1;stroke-width:1.5;" width="152.0361" x="10" y="159.5"/><text fill="#000000" font-family="sans-serif" font-size="14" font-weight="bold" lengthAdjust="spacing" textLength="118.6855" x="15" y="174.4951">Characteristics</text><text fill="#000000" font-family="sans-serif" font-size="14" lengthAdjust="spacing" textLength="13.3506" x="143.6855" y="174.4951">&#160;&#160;&#160;</text><line style="stroke:#000000;stroke-width:1.0;" x1="138.6855" x2="138.6855" y1="159.5" y2="179.7969"/><line style="stroke:#000000;stroke-width:1.0;" x1="10" x2="162.0361" y1="179.7969" y2="179.7969"/><text fill="#000000" font-family="sans-serif" font-size="14" font-weight="bold" lengthAdjust="spacing" textLength="82.5234" x="15" y="194.792">Properties</text><text fill="#000000" font-family="sans-serif" font-size="14" lengthAdjust="spacing" textLength="13.3506" x="143.6855" y="194.792">&#160;&#160;&#160;</text><line style="stroke:#000000;stroke-width:1.0;" x1="138.6855" x2="138.6855" y1="179.7969" y2="200.0938"/><line style="stroke:#000000;stroke-width:1.0;" x1="10" x2="162.0361" y1="200.0938" y2="200.0938"/><text fill="#000000" font-family="sans-serif" font-size="14" font-weight="bold" lengthAdjust="spacing" textLength="46.9014" x="15" y="215.0889">Policy</text><text fill="#000000" font-family="sans-serif" font-size="14" lengthAdjust="spacing" textLength="13.3506" x="143.6855" y="215.0889">&#160;&#160;&#160;</text><line style="stroke:#000000;stroke-width:1.0;" x1="138.6855" x2="138.6855" y1="200.0938" y2="220.3906"/><rect fill="none" height="60.8906" rx="5" ry="5" style="stroke:#000000;stroke-width:1.5;" width="152.0361" x="10" y="159.5"/><rect fill="#F1F1F1" height="121.7813" rx="5" ry="5" style="stroke:#F1F1F1;stroke-width:1.5;" width="214.1201" x="199" y="10"/><text fill="#000000" font-family="sans-serif" font-size="14" font-weight="bold" lengthAdjust="spacing" textLength="98.3486" x="204" y="24.9951">Architecture</text><text fill="#000000" font-family="sans-serif" font-size="14" lengthAdjust="spacing" textLength="50.9141" x="312.3486" y="24.9951">x86_64</text><line style="stroke:#000000;stroke-width:1.0;" x1="307.3486" x2="307.3486" y1="10" y2="30.2969"/><line style="stroke:#000000;stroke-width:1.0;" x1="199" x2="413.1201" y1="30.2969" y2="30.2969"/><text fill="#000000" font-family="sans-serif" font-size="14" font-weight="bold" lengthAdjust="spacing" textLength="21.9844" x="204" y="45.292">OS</text><text fill="#000000" font-family="sans-serif" font-size="14" lengthAdjust="spacing" textLength="95.7715" x="312.3486" y="45.292">Ubuntu 20.04</text><line style="stroke:#000000;stroke-width:1.0;" x1="307.3486" x2="307.3486" y1="30.2969" y2="50.5938"/><line style="stroke:#000000;stroke-width:1.0;" x1="199" x2="413.1201" y1="50.5938" y2="50.5938"/><text fill="#000000" font-family="sans-serif" font-size="14" font-weight="bold" lengthAdjust="spacing" textLength="31.9033" x="204" y="65.5889">CPU</text><text fill="#000000" font-family="sans-serif" font-size="14" lengthAdjust="spacing" textLength="8.9072" x="312.3486" y="65.5889">4</text><line style="stroke:#000000;stroke-width:1.0;" x1="307.3486" x2="307.3486" y1="50.5938" y2="70.8906"/><line style="stroke:#000000;stroke-width:1.0;" x1="199" x2="413.1201" y1="70.8906" y2="70.8906"/><text fill="#000000" font-family="sans-serif" font-size="14" font-weight="bold" lengthAdjust="spacing" textLength="63.6631" x="204" y="85.8857">Memory</text><text fill="#000000" font-family="sans-serif" font-size="14" lengthAdjust="spacing" textLength="35.6289" x="312.3486" y="85.8857">8192</text><line style="stroke:#000000;stroke-width:1.0;" x1="307.3486" x2="307.3486" y1="70.8906" y2="91.1875"/><line style="stroke:#000000;stroke-width:1.0;" x1="199" x2="413.1201" y1="91.1875" y2="91.1875"/><text fill="#000000" font-family="sans-serif" font-size="14" font-weight="bold" lengthAdjust="spacing" textLength="33.1201" x="204" y="106.1826">GPU</text><text fill="#000000" font-family="sans-serif" font-size="14" lengthAdjust="spacing" textLength="13.3506" x="312.3486" y="106.1826">&#160;&#160;&#160;</text><line style="stroke:#000000;stroke-width:1.0;" x1="307.3486" x2="307.3486" y1="91.1875" y2="111.4844"/><line style="stroke:#000000;stroke-width:1.0;" x1="199" x2="413.1201" y1="111.4844" y2="111.4844"/><text fill="#000000" font-family="sans-serif" font-size="14" font-weight="bold" lengthAdjust="spacing" textLength="62.2617" x="204" y="126.4795">Storage</text><text fill="#000000" font-family="sans-serif" font-size="14" lengthAdjust="spacing" textLength="26.7217" x="312.3486" y="126.4795">100</text><line style="stroke:#000000;stroke-width:1.0;" x1="307.3486" x2="307.3486" y1="111.4844" y2="131.7813"/><rect fill="none" height="121.7813" rx="5" ry="5" style="stroke:#000000;stroke-width:1.5;" width="214.1201" x="199" y="10"/><rect fill="#F1F1F1" height="40.5938" rx="5" ry="5" style="stroke:#F1F1F1;stroke-width:1.5;" width="222.0498" x="450" y="76.5"/><text fill="#000000" font-family="sans-serif" font-size="14" font-weight="bold" lengthAdjust="spacing" textLength="80.9854" x="455" y="91.4951">GPUModel</text><text fill="#000000" font-family="sans-serif" font-size="14" lengthAdjust="spacing" textLength="121.0645" x="545.9854" y="91.4951">NVIDIA RTX 3080</text><line style="stroke:#000000;stroke-width:1.0;" x1="540.9854" x2="540.9854" y1="76.5" y2="96.7969"/><line style="stroke:#000000;stroke-width:1.0;" x1="450" x2="672.0498" y1="96.7969" y2="96.7969"/><text fill="#000000" font-family="sans-serif" font-size="14" font-weight="bold" lengthAdjust="spacing" textLength="77.7451" x="455" y="111.792">GPUCores</text><text fill="#000000" font-family="sans-serif" font-size="14" lengthAdjust="spacing" textLength="17.8145" x="545.9854" y="111.792">10</text><line style="stroke:#000000;stroke-width:1.0;" x1="540.9854" x2="540.9854" y1="96.7969" y2="117.0938"/><rect fill="none" height="40.5938" rx="5" ry="5" style="stroke:#000000;stroke-width:1.5;" width="222.0498" x="450" y="76.5"/><rect fill="#F1F1F1" height="60.8906" rx="5" ry="5" style="stroke:#F1F1F1;stroke-width:1.5;" width="184.0967" x="214" y="159.5"/><text fill="#000000" font-family="sans-serif" font-size="14" font-weight="bold" lengthAdjust="spacing" textLength="61.9473" x="219" y="174.4951">Latency</text><text fill="#000000" font-family="sans-serif" font-size="14" lengthAdjust="spacing" textLength="17.8145" x="375.2822" y="174.4951">30</text><line style="stroke:#000000;stroke-width:1.0;" x1="370.2822" x2="370.2822" y1="159.5" y2="179.7969"/><line style="stroke:#000000;stroke-width:1.0;" x1="214" x2="398.0967" y1="179.7969" y2="179.7969"/><text fill="#000000" font-family="sans-serif" font-size="14" font-weight="bold" lengthAdjust="spacing" textLength="146.2822" x="219" y="194.792">SecurityStandards</text><text fill="#000000" font-family="sans-serif" font-size="14" lengthAdjust="spacing" textLength="13.3506" x="375.2822" y="194.792">&#160;&#160;&#160;</text><line style="stroke:#000000;stroke-width:1.0;" x1="370.2822" x2="370.2822" y1="179.7969" y2="200.0938"/><line style="stroke:#000000;stroke-width:1.0;" x1="214" x2="398.0967" y1="200.0938" y2="200.0938"/><text fill="#000000" font-family="sans-serif" font-size="14" font-weight="bold" lengthAdjust="spacing" textLength="130.1084" x="219" y="215.0889">CarbonFootprint</text><text fill="#000000" font-family="sans-serif" font-size="14" lengthAdjust="spacing" textLength="13.3506" x="375.2822" y="215.0889">&#160;&#160;&#160;</text><line style="stroke:#000000;stroke-width:1.0;" x1="370.2822" x2="370.2822" y1="200.0938" y2="220.3906"/><rect fill="none" height="60.8906" rx="5" ry="5" style="stroke:#000000;stroke-width:1.5;" width="184.0967" x="214" y="159.5"/><rect fill="#F1F1F1" height="40.5938" rx="5" ry="5" style="stroke:#F1F1F1;stroke-width:1.5;" width="83.0215" x="519.5" y="135.5"/><text fill="#000000" font-family="sans-serif" font-size="14" lengthAdjust="spacing" textLength="39.7988" x="524.5" y="150.4951">GDPR</text><line style="stroke:#000000;stroke-width:1.0;" x1="519.5" x2="602.5215" y1="155.7969" y2="155.7969"/><text fill="#000000" font-family="sans-serif" font-size="14" lengthAdjust="spacing" textLength="73.0215" x="524.5" y="170.792">ISO 27001</text><rect fill="none" height="40.5938" rx="5" ry="5" style="stroke:#000000;stroke-width:1.5;" width="83.0215" x="519.5" y="135.5"/><rect fill="#F1F1F1" height="40.5938" rx="5" ry="5" style="stroke:#F1F1F1;stroke-width:1.5;" width="148.7207" x="486.5" y="194.5"/><text fill="#000000" font-family="sans-serif" font-size="14" font-weight="bold" lengthAdjust="spacing" textLength="78.1279" x="491.5" y="209.4951">Embodied</text><text fill="#000000" font-family="sans-serif" font-size="14" lengthAdjust="spacing" textLength="35.6289" x="594.5918" y="209.4951">1500</text><line style="stroke:#000000;stroke-width:1.0;" x1="589.5918" x2="589.5918" y1="194.5" y2="214.7969"/><line style="stroke:#000000;stroke-width:1.0;" x1="486.5" x2="635.2207" y1="214.7969" y2="214.7969"/><text fill="#000000" font-family="sans-serif" font-size="14" font-weight="bold" lengthAdjust="spacing" textLength="93.0918" x="491.5" y="229.792">Operational</text><text fill="#000000" font-family="sans-serif" font-size="14" lengthAdjust="spacing" textLength="13.3506" x="594.5918" y="229.792">&#160;&#160;&#160;</text><line style="stroke:#000000;stroke-width:1.0;" x1="589.5918" x2="589.5918" y1="214.7969" y2="235.0938"/><rect fill="none" height="40.5938" rx="5" ry="5" style="stroke:#000000;stroke-width:1.5;" width="148.7207" x="486.5" y="194.5"/><rect fill="#F1F1F1" height="15" rx="5" ry="5" style="stroke:#F1F1F1;stroke-width:1.5;" width="30" x="709" y="217.5"/><rect fill="none" height="15" rx="5" ry="5" style="stroke:#000000;stroke-width:1.5;" width="30" x="709" y="217.5"/><rect fill="#F1F1F1" height="20.2969" rx="5" ry="5" style="stroke:#F1F1F1;stroke-width:1.5;" width="140.5518" x="235.5" y="257.8516"/><text fill="#000000" font-family="sans-serif" font-size="14" font-weight="bold" lengthAdjust="spacing" textLength="107.2012" x="240.5" y="272.8467">Aggregatable</text><text fill="#000000" font-family="sans-serif" font-size="14" lengthAdjust="spacing" textLength="13.3506" x="357.7012" y="272.8467">&#160;&#160;&#160;</text><line style="stroke:#000000;stroke-width:1.0;" x1="352.7012" x2="352.7012" y1="257.8516" y2="278.1484"/><rect fill="none" height="20.2969" rx="5" ry="5" style="stroke:#000000;stroke-width:1.5;" width="140.5518" x="235.5" y="257.8516"/><rect fill="#F1F1F1" height="40.5938" rx="5" ry="5" style="stroke:#F1F1F1;stroke-width:1.5;" width="116.7422" x="502.5" y="253.5"/><text fill="#000000" font-family="sans-serif" font-size="14" font-weight="bold" lengthAdjust="spacing" textLength="75.2158" x="507.5" y="268.4951">MinCount</text><text fill="#000000" font-family="sans-serif" font-size="14" lengthAdjust="spacing" textLength="8.9072" x="596.4277" y="268.4951">1</text><line style="stroke:#000000;stroke-width:1.0;" x1="591.4277" x2="591.4277" y1="253.5" y2="273.7969"/><line style="stroke:#000000;stroke-width:1.0;" x1="502.5" x2="619.2422" y1="273.7969" y2="273.7969"/><text fill="#000000" font-family="sans-serif" font-size="14" font-weight="bold" lengthAdjust="spacing" textLength="78.9277" x="507.5" y="288.792">MaxCount</text><text fill="#000000" font-family="sans-serif" font-size="14" lengthAdjust="spacing" textLength="17.8145" x="596.4277" y="288.792">10</text><line style="stroke:#000000;stroke-width:1.0;" x1="591.4277" x2="591.4277" y1="273.7969" y2="294.0938"/><rect fill="none" height="40.5938" rx="5" ry="5" style="stroke:#000000;stroke-width:1.5;" width="116.7422" x="502.5" y="253.5"/><path d="M400.5,101 L413.5,101 C422.9602,101 432.7615,100.9162 442.6071,100.7728 " fill="none" style="stroke:#000000;stroke-width:1.0;stroke-dasharray:3.0,3.0;"/><path d="M442.6554,103.7859 L444.8669,100.7366 L442.5588,97.7598 L450.1398,100.652 L442.6554,103.7859 " fill="#000000" style="stroke:#000000;stroke-width:1.0;"/><ellipse cx="400.5" cy="101" fill="#000000" rx="3" ry="3" style="stroke:#000000;stroke-width:1.0;"/><path d="M149.5,170 L162.5,170 C166.2738,170 188.9131,154.8985 215.1058,136.4917 " fill="none" style="stroke:#000000;stroke-width:1.0;stroke-dasharray:3.0,3.0;"/><path d="M216.8996,139.0358 L217.0138,135.1464 L213.3119,133.9477 L221.4659,132.0071 L216.8996,139.0358 " fill="#000000" style="stroke:#000000;stroke-width:1.0;"/><ellipse cx="149.5" cy="170" fill="#000000" rx="3" ry="3" style="stroke:#000000;stroke-width:1.0;"/><path d="M385.5,190 L398.5,190 C420.188,190 472.6172,178.1807 511.9983,168.4793 " fill="none" style="stroke:#000000;stroke-width:1.0;stroke-dasharray:3.0,3.0;"/><path d="M512.7614,171.555 L514.3051,167.907 L511.2351,165.4036 L519.6876,166.5714 L512.7614,171.555 " fill="#000000" style="stroke:#000000;stroke-width:1.0;"/><ellipse cx="385.5" cy="190" fill="#000000" rx="3" ry="3" style="stroke:#000000;stroke-width:1.0;"/><path d="M623.5,225 L636.5,225 C659.2344,225 685.6029,225 701.6635,225 " fill="none" style="stroke:#000000;stroke-width:1.0;stroke-dasharray:3.0,3.0;"/><path d="M701.6635,228.1094 L703.9955,225 L701.6635,221.8906 L709.437,225 L701.6635,228.1094 " fill="#000000" style="stroke:#000000;stroke-width:1.0;"/><ellipse cx="623.5" cy="225" fill="#000000" rx="3" ry="3" style="stroke:#000000;stroke-width:1.0;"/><path d="M385.5,210 L398.5,210 C424.7506,210 453.3825,210.664 479.174,211.5081 " fill="none" style="stroke:#000000;stroke-width:1.0;stroke-dasharray:3.0,3.0;"/><path d="M479.0721,214.528 L481.4389,211.5845 L479.2759,208.4881 L486.7238,211.7628 L479.0721,214.528 " fill="#000000" style="stroke:#000000;stroke-width:1.0;"/><ellipse cx="385.5" cy="210" fill="#000000" rx="3" ry="3" style="stroke:#000000;stroke-width:1.0;"/><path d="M149.5,190 L162.5,190 C176.7703,190 191.8417,190 206.6349,190 " fill="none" style="stroke:#000000;stroke-width:1.0;stroke-dasharray:3.0,3.0;"/><path d="M206.6349,193.0819 L208.9464,190 L206.6349,186.9181 L214.3398,190 L206.6349,193.0819 " fill="#000000" style="stroke:#000000;stroke-width:1.0;"/><ellipse cx="149.5" cy="190" fill="#000000" rx="3" ry="3" style="stroke:#000000;stroke-width:1.0;"/><path d="M364.5,268 L377.5,268 C416.5097,268 460.1719,269.3788 495.0617,270.8144 " fill="none" style="stroke:#000000;stroke-width:1.0;stroke-dasharray:3.0,3.0;"/><path d="M494.9312,273.9184 L497.3897,270.9123 L495.1922,267.7105 L502.8215,271.1406 L494.9312,273.9184 " fill="#000000" style="stroke:#000000;stroke-width:1.0;"/><ellipse cx="364.5" cy="268" fill="#000000" rx="3" ry="3" style="stroke:#000000;stroke-width:1.0;"/><path d="M149.5,210 L162.5,210 C180.7885,210 182.2675,221.6181 199,229 C221.1416,238.7683 246.5708,248.1465 267.0272,255.2575 " fill="none" style="stroke:#000000;stroke-width:1.0;stroke-dasharray:3.0,3.0;"/><path d="M266.0217,258.1761 L269.2161,256.0117 L268.0328,252.339 L274.3235,257.7714 L266.0217,258.1761 " fill="#000000" style="stroke:#000000;stroke-width:1.0;"/><ellipse cx="149.5" cy="210" fill="#000000" rx="3" ry="3" style="stroke:#000000;stroke-width:1.0;"/><!--SRC=[PLBHRjf047o_hrZvAP4QT3QK4ZybXII2ue9mG9MYg3hRM-SgSnUjroWeoh_tx1Hmd7kScRkPsTkhaXNntz8QyIh07M_yf4YbZAHBrcdfXV1EDEGrfK-QCUMAq37UosZuUpZmlfmKYxZ6rqbbk890zkG7ThnSEthGGYBSMjexSEHV1Ytyhb6Uh0zWP3CiQekVc-baUWsh-r_GboFPSZb8nvQmpk_B8_NMSeZPaign4Rmh_hFUakmp4clij9yhHfFMOVko_H2c5MdUnwnCfYYhRprqqaoMgsx2QRo0u9kKldV47zkZKfHOSsijFvCs_7aODzl4PXgpki1NAJklBrm3nTeQLK_huV4qWezLRQ6RHkrFpdF2NB5A2lni6sapjbKJoEzuHkhbICckeNWJuWfDrkoQM1RAy3gQmmwfT2d1xmKo6FI6Px5Yc5K5o278oz0VXFqHhE_7KDFduknkEOVILfGYP6v3IITLtV9SpDHEmSgvwos6uEgRsUJ70O0RizDapHODYzacEWc6WullcY56SabW4ua9_b5LmUv6wiPhyj2vtrwCn5oPl7Bx4W8QqTIalUFYVm00]--></g></svg>