<svg xmlns="http://www.w3.org/2000/svg" xmlns:xlink="http://www.w3.org/1999/xlink" contentStyleType="text/css" height="477px" preserveAspectRatio="none" style="width:1798px;height:477px;background:#FFFFFF;" version="1.1" viewBox="0 0 1798 477" width="1798px" zoomAndPan="magnify"><defs/><g><rect fill="#F1F1F1" height="121.7813" rx="5" ry="5" style="stroke:#F1F1F1;stroke-width:1.5;" width="473.4141" x="10" y="191.5"/><text fill="#000000" font-family="sans-serif" font-size="14" font-weight="bold" lengthAdjust="spacing" textLength="69.8701" x="15" y="206.4951">$schema</text><text fill="#000000" font-family="sans-serif" font-size="14" lengthAdjust="spacing" textLength="291.2793" x="187.1348" y="206.4951">http://json-schema.org/draft-07/schema#</text><line style="stroke:#000000;stroke-width:1.0;" x1="182.1348" x2="182.1348" y1="191.5" y2="211.7969"/><line style="stroke:#000000;stroke-width:1.0;" x1="10" x2="483.4141" y1="211.7969" y2="211.7969"/><text fill="#000000" font-family="sans-serif" font-size="14" font-weight="bold" lengthAdjust="spacing" textLength="35.335" x="15" y="226.792">type</text><text fill="#000000" font-family="sans-serif" font-size="14" lengthAdjust="spacing" textLength="43.1416" x="187.1348" y="226.792">object</text><line style="stroke:#000000;stroke-width:1.0;" x1="182.1348" x2="182.1348" y1="211.7969" y2="232.0938"/><line style="stroke:#000000;stroke-width:1.0;" x1="10" x2="483.4141" y1="232.0938" y2="232.0938"/><text fill="#000000" font-family="sans-serif" font-size="14" font-weight="bold" lengthAdjust="spacing" textLength="32.4775" x="15" y="247.0889">title</text><text fill="#000000" font-family="sans-serif" font-size="14" lengthAdjust="spacing" textLength="146.0088" x="187.1348" y="247.0889">K8SliceConfiguration</text><line style="stroke:#000000;stroke-width:1.0;" x1="182.1348" x2="182.1348" y1="232.0938" y2="252.3906"/><line style="stroke:#000000;stroke-width:1.0;" x1="10" x2="483.4141" y1="252.3906" y2="252.3906"/><text fill="#000000" font-family="sans-serif" font-size="14" font-weight="bold" lengthAdjust="spacing" textLength="82.2842" x="15" y="267.3857">properties</text><text fill="#000000" font-family="sans-serif" font-size="14" lengthAdjust="spacing" textLength="13.3506" x="187.1348" y="267.3857">&#160;&#160;&#160;</text><line style="stroke:#000000;stroke-width:1.0;" x1="182.1348" x2="182.1348" y1="252.3906" y2="272.6875"/><line style="stroke:#000000;stroke-width:1.0;" x1="10" x2="483.4141" y1="272.6875" y2="272.6875"/><text fill="#000000" font-family="sans-serif" font-size="14" font-weight="bold" lengthAdjust="spacing" textLength="67.6074" x="15" y="287.6826">required</text><text fill="#000000" font-family="sans-serif" font-size="14" lengthAdjust="spacing" textLength="13.3506" x="187.1348" y="287.6826">&#160;&#160;&#160;</text><line style="stroke:#000000;stroke-width:1.0;" x1="182.1348" x2="182.1348" y1="272.6875" y2="292.9844"/><line style="stroke:#000000;stroke-width:1.0;" x1="10" x2="483.4141" y1="292.9844" y2="292.9844"/><text fill="#000000" font-family="sans-serif" font-size="14" font-weight="bold" lengthAdjust="spacing" textLength="162.1348" x="15" y="307.9795">additionalProperties</text><text fill="#000000" font-family="sans-serif" font-size="14" lengthAdjust="spacing" textLength="50.3057" x="187.1348" y="307.9795">&#9744; false</text><line style="stroke:#000000;stroke-width:1.0;" x1="182.1348" x2="182.1348" y1="292.9844" y2="313.2813"/><rect fill="none" height="121.7813" rx="5" ry="5" style="stroke:#000000;stroke-width:1.5;" width="473.4141" x="10" y="191.5"/><rect fill="#F1F1F1" height="121.7813" rx="5" ry="5" style="stroke:#F1F1F1;stroke-width:1.5;" width="130.3115" x="520" y="156.5"/><text fill="#000000" font-family="sans-serif" font-size="14" font-weight="bold" lengthAdjust="spacing" textLength="96.9609" x="525" y="171.4951">architecture</text><text fill="#000000" font-family="sans-serif" font-size="14" lengthAdjust="spacing" textLength="13.3506" x="631.9609" y="171.4951">&#160;&#160;&#160;</text><line style="stroke:#000000;stroke-width:1.0;" x1="626.9609" x2="626.9609" y1="156.5" y2="176.7969"/><line style="stroke:#000000;stroke-width:1.0;" x1="520" x2="650.3115" y1="176.7969" y2="176.7969"/><text fill="#000000" font-family="sans-serif" font-size="14" font-weight="bold" lengthAdjust="spacing" textLength="28.2871" x="525" y="191.792">cpu</text><text fill="#000000" font-family="sans-serif" font-size="14" lengthAdjust="spacing" textLength="13.3506" x="631.9609" y="191.792">&#160;&#160;&#160;</text><line style="stroke:#000000;stroke-width:1.0;" x1="626.9609" x2="626.9609" y1="176.7969" y2="197.0938"/><line style="stroke:#000000;stroke-width:1.0;" x1="520" x2="650.3115" y1="197.0938" y2="197.0938"/><text fill="#000000" font-family="sans-serif" font-size="14" font-weight="bold" lengthAdjust="spacing" textLength="37.9941" x="525" y="212.0889">pods</text><text fill="#000000" font-family="sans-serif" font-size="14" lengthAdjust="spacing" textLength="13.3506" x="631.9609" y="212.0889">&#160;&#160;&#160;</text><line style="stroke:#000000;stroke-width:1.0;" x1="626.9609" x2="626.9609" y1="197.0938" y2="217.3906"/><line style="stroke:#000000;stroke-width:1.0;" x1="520" x2="650.3115" y1="217.3906" y2="217.3906"/><text fill="#000000" font-family="sans-serif" font-size="14" font-weight="bold" lengthAdjust="spacing" textLength="64.3193" x="525" y="232.3857">memory</text><text fill="#000000" font-family="sans-serif" font-size="14" lengthAdjust="spacing" textLength="13.3506" x="631.9609" y="232.3857">&#160;&#160;&#160;</text><line style="stroke:#000000;stroke-width:1.0;" x1="626.9609" x2="626.9609" y1="217.3906" y2="237.6875"/><line style="stroke:#000000;stroke-width:1.0;" x1="520" x2="650.3115" y1="237.6875" y2="237.6875"/><text fill="#000000" font-family="sans-serif" font-size="14" font-weight="bold" lengthAdjust="spacing" textLength="30.0098" x="525" y="252.6826">gpu</text><text fill="#000000" font-family="sans-serif" font-size="14" lengthAdjust="spacing" textLength="13.3506" x="631.9609" y="252.6826">&#160;&#160;&#160;</text><line style="stroke:#000000;stroke-width:1.0;" x1="626.9609" x2="626.9609" y1="237.6875" y2="257.9844"/><line style="stroke:#000000;stroke-width:1.0;" x1="520" x2="650.3115" y1="257.9844" y2="257.9844"/><text fill="#000000" font-family="sans-serif" font-size="14" font-weight="bold" lengthAdjust="spacing" textLength="60.5117" x="525" y="272.9795">storage</text><text fill="#000000" font-family="sans-serif" font-size="14" lengthAdjust="spacing" textLength="13.3506" x="631.9609" y="272.9795">&#160;&#160;&#160;</text><line style="stroke:#000000;stroke-width:1.0;" x1="626.9609" x2="626.9609" y1="257.9844" y2="278.2813"/><rect fill="none" height="121.7813" rx="5" ry="5" style="stroke:#000000;stroke-width:1.5;" width="130.3115" x="520" y="156.5"/><rect fill="#F1F1F1" height="40.5938" rx="5" ry="5" style="stroke:#F1F1F1;stroke-width:1.5;" width="439.2207" x="687" y="10"/><text fill="#000000" font-family="sans-serif" font-size="14" font-weight="bold" lengthAdjust="spacing" textLength="35.335" x="692" y="24.9951">type</text><text fill="#000000" font-family="sans-serif" font-size="14" lengthAdjust="spacing" textLength="40.1885" x="790.9492" y="24.9951">string</text><line style="stroke:#000000;stroke-width:1.0;" x1="785.9492" x2="785.9492" y1="10" y2="30.2969"/><line style="stroke:#000000;stroke-width:1.0;" x1="687" x2="1126.2207" y1="30.2969" y2="30.2969"/><text fill="#000000" font-family="sans-serif" font-size="14" font-weight="bold" lengthAdjust="spacing" textLength="88.9492" x="692" y="45.292">description</text><text fill="#000000" font-family="sans-serif" font-size="14" lengthAdjust="spacing" textLength="330.2715" x="790.9492" y="45.292">The architecture of the Flavor (e.g., x86, ARM).</text><line style="stroke:#000000;stroke-width:1.0;" x1="785.9492" x2="785.9492" y1="30.2969" y2="50.5938"/><rect fill="none" height="40.5938" rx="5" ry="5" style="stroke:#000000;stroke-width:1.5;" width="439.2207" x="687" y="10"/><rect fill="#F1F1F1" height="60.8906" rx="5" ry="5" style="stroke:#F1F1F1;stroke-width:1.5;" width="366.0557" x="723.5" y="69"/><text fill="#000000" font-family="sans-serif" font-size="14" font-weight="bold" lengthAdjust="spacing" textLength="35.335" x="728.5" y="83.9951">type</text><text fill="#000000" font-family="sans-serif" font-size="14" lengthAdjust="spacing" textLength="40.1885" x="827.4492" y="83.9951">string</text><line style="stroke:#000000;stroke-width:1.0;" x1="822.4492" x2="822.4492" y1="69" y2="89.2969"/><line style="stroke:#000000;stroke-width:1.0;" x1="723.5" x2="1089.5557" y1="89.2969" y2="89.2969"/><text fill="#000000" font-family="sans-serif" font-size="14" font-weight="bold" lengthAdjust="spacing" textLength="88.9492" x="728.5" y="104.292">description</text><text fill="#000000" font-family="sans-serif" font-size="14" lengthAdjust="spacing" textLength="178.3633" x="827.4492" y="104.292">The number of CPU cores</text><line style="stroke:#000000;stroke-width:1.0;" x1="822.4492" x2="822.4492" y1="89.2969" y2="109.5938"/><line style="stroke:#000000;stroke-width:1.0;" x1="723.5" x2="1089.5557" y1="109.5938" y2="109.5938"/><text fill="#000000" font-family="sans-serif" font-size="14" font-weight="bold" lengthAdjust="spacing" textLength="59.2197" x="728.5" y="124.5889">pattern</text><text fill="#000000" font-family="sans-serif" font-size="14" lengthAdjust="spacing" textLength="257.1064" x="827.4492" y="124.5889">^[0-9]+(m|([.][0-9]+)?|[kMGTP]i?)?$</text><line style="stroke:#000000;stroke-width:1.0;" x1="822.4492" x2="822.4492" y1="109.5938" y2="129.8906"/><rect fill="none" height="60.8906" rx="5" ry="5" style="stroke:#000000;stroke-width:1.5;" width="366.0557" x="723.5" y="69"/><rect fill="#F1F1F1" height="60.8906" rx="5" ry="5" style="stroke:#F1F1F1;stroke-width:1.5;" width="250.1045" x="781.5" y="148"/><text fill="#000000" font-family="sans-serif" font-size="14" font-weight="bold" lengthAdjust="spacing" textLength="35.335" x="786.5" y="162.9951">type</text><text fill="#000000" font-family="sans-serif" font-size="14" lengthAdjust="spacing" textLength="40.1885" x="885.4492" y="162.9951">string</text><line style="stroke:#000000;stroke-width:1.0;" x1="880.4492" x2="880.4492" y1="148" y2="168.2969"/><line style="stroke:#000000;stroke-width:1.0;" x1="781.5" x2="1031.6045" y1="168.2969" y2="168.2969"/><text fill="#000000" font-family="sans-serif" font-size="14" font-weight="bold" lengthAdjust="spacing" textLength="88.9492" x="786.5" y="183.292">description</text><text fill="#000000" font-family="sans-serif" font-size="14" lengthAdjust="spacing" textLength="141.1553" x="885.4492" y="183.292">The number of pods</text><line style="stroke:#000000;stroke-width:1.0;" x1="880.4492" x2="880.4492" y1="168.2969" y2="188.5938"/><line style="stroke:#000000;stroke-width:1.0;" x1="781.5" x2="1031.6045" y1="188.5938" y2="188.5938"/><text fill="#000000" font-family="sans-serif" font-size="14" font-weight="bold" lengthAdjust="spacing" textLength="59.2197" x="786.5" y="203.5889">pattern</text><text fill="#000000" font-family="sans-serif" font-size="14" lengthAdjust="spacing" textLength="66.1582" x="885.4492" y="203.5889">^[0-9]+$</text><line style="stroke:#000000;stroke-width:1.0;" x1="880.4492" x2="880.4492" y1="188.5938" y2="208.8906"/><rect fill="none" height="60.8906" rx="5" ry="5" style="stroke:#000000;stroke-width:1.5;" width="250.1045" x="781.5" y="148"/><rect fill="#F1F1F1" height="60.8906" rx="5" ry="5" style="stroke:#F1F1F1;stroke-width:1.5;" width="383.5078" x="714.5" y="227"/><text fill="#000000" font-family="sans-serif" font-size="14" font-weight="bold" lengthAdjust="spacing" textLength="35.335" x="719.5" y="241.9951">type</text><text fill="#000000" font-family="sans-serif" font-size="14" lengthAdjust="spacing" textLength="40.1885" x="818.4492" y="241.9951">string</text><line style="stroke:#000000;stroke-width:1.0;" x1="813.4492" x2="813.4492" y1="227" y2="247.2969"/><line style="stroke:#000000;stroke-width:1.0;" x1="714.5" x2="1098.0078" y1="247.2969" y2="247.2969"/><text fill="#000000" font-family="sans-serif" font-size="14" font-weight="bold" lengthAdjust="spacing" textLength="88.9492" x="719.5" y="262.292">description</text><text fill="#000000" font-family="sans-serif" font-size="14" lengthAdjust="spacing" textLength="165.3955" x="818.4492" y="262.292">The amount of memory</text><line style="stroke:#000000;stroke-width:1.0;" x1="813.4492" x2="813.4492" y1="247.2969" y2="267.5938"/><line style="stroke:#000000;stroke-width:1.0;" x1="714.5" x2="1098.0078" y1="267.5938" y2="267.5938"/><text fill="#000000" font-family="sans-serif" font-size="14" font-weight="bold" lengthAdjust="spacing" textLength="59.2197" x="719.5" y="282.5889">pattern</text><text fill="#000000" font-family="sans-serif" font-size="14" lengthAdjust="spacing" textLength="274.5586" x="818.4492" y="282.5889">^[0-9]+(Ki|Mi|Gi|Ti|Pi|Ei|k|M|G|T|P|E)?$</text><line style="stroke:#000000;stroke-width:1.0;" x1="813.4492" x2="813.4492" y1="267.5938" y2="287.8906"/><rect fill="none" height="60.8906" rx="5" ry="5" style="stroke:#000000;stroke-width:1.5;" width="383.5078" x="714.5" y="227"/><rect fill="#F1F1F1" height="60.8906" rx="5" ry="5" style="stroke:#F1F1F1;stroke-width:1.5;" width="342.9297" x="735" y="306"/><text fill="#000000" font-family="sans-serif" font-size="14" font-weight="bold" lengthAdjust="spacing" textLength="35.335" x="740" y="320.9951">type</text><text fill="#000000" font-family="sans-serif" font-size="14" lengthAdjust="spacing" textLength="43.1416" x="838.9492" y="320.9951">object</text><line style="stroke:#000000;stroke-width:1.0;" x1="833.9492" x2="833.9492" y1="306" y2="326.2969"/><line style="stroke:#000000;stroke-width:1.0;" x1="735" x2="1077.9297" y1="326.2969" y2="326.2969"/><text fill="#000000" font-family="sans-serif" font-size="14" font-weight="bold" lengthAdjust="spacing" textLength="88.9492" x="740" y="341.292">description</text><text fill="#000000" font-family="sans-serif" font-size="14" lengthAdjust="spacing" textLength="233.9805" x="838.9492" y="341.292">GPU characteristics of the Flavor.</text><line style="stroke:#000000;stroke-width:1.0;" x1="833.9492" x2="833.9492" y1="326.2969" y2="346.5938"/><line style="stroke:#000000;stroke-width:1.0;" x1="735" x2="1077.9297" y1="346.5938" y2="346.5938"/><text fill="#000000" font-family="sans-serif" font-size="14" font-weight="bold" lengthAdjust="spacing" textLength="82.2842" x="740" y="361.5889">properties</text><text fill="#000000" font-family="sans-serif" font-size="14" lengthAdjust="spacing" textLength="13.3506" x="838.9492" y="361.5889">&#160;&#160;&#160;</text><line style="stroke:#000000;stroke-width:1.0;" x1="833.9492" x2="833.9492" y1="346.5938" y2="366.8906"/><rect fill="none" height="60.8906" rx="5" ry="5" style="stroke:#000000;stroke-width:1.5;" width="342.9297" x="735" y="306"/><rect fill="#F1F1F1" height="60.8906" rx="5" ry="5" style="stroke:#F1F1F1;stroke-width:1.5;" width="97.6699" x="1163" y="326"/><text fill="#000000" font-family="sans-serif" font-size="14" font-weight="bold" lengthAdjust="spacing" textLength="48.5215" x="1168" y="340.9951">model</text><text fill="#000000" font-family="sans-serif" font-size="14" lengthAdjust="spacing" textLength="13.3506" x="1242.3193" y="340.9951">&#160;&#160;&#160;</text><line style="stroke:#000000;stroke-width:1.0;" x1="1237.3193" x2="1237.3193" y1="326" y2="346.2969"/><line style="stroke:#000000;stroke-width:1.0;" x1="1163" x2="1260.6699" y1="346.2969" y2="346.2969"/><text fill="#000000" font-family="sans-serif" font-size="14" font-weight="bold" lengthAdjust="spacing" textLength="42.6494" x="1168" y="361.292">cores</text><text fill="#000000" font-family="sans-serif" font-size="14" lengthAdjust="spacing" textLength="13.3506" x="1242.3193" y="361.292">&#160;&#160;&#160;</text><line style="stroke:#000000;stroke-width:1.0;" x1="1237.3193" x2="1237.3193" y1="346.2969" y2="366.5938"/><line style="stroke:#000000;stroke-width:1.0;" x1="1163" x2="1260.6699" y1="366.5938" y2="366.5938"/><text fill="#000000" font-family="sans-serif" font-size="14" font-weight="bold" lengthAdjust="spacing" textLength="64.3193" x="1168" y="381.5889">memory</text><text fill="#000000" font-family="sans-serif" font-size="14" lengthAdjust="spacing" textLength="13.3506" x="1242.3193" y="381.5889">&#160;&#160;&#160;</text><line style="stroke:#000000;stroke-width:1.0;" x1="1237.3193" x2="1237.3193" y1="366.5938" y2="386.8906"/><rect fill="none" height="60.8906" rx="5" ry="5" style="stroke:#000000;stroke-width:1.5;" width="97.6699" x="1163" y="326"/><rect fill="#F1F1F1" height="40.5938" rx="5" ry="5" style="stroke:#F1F1F1;stroke-width:1.5;" width="477.6318" x="1303" y="267"/><text fill="#000000" font-family="sans-serif" font-size="14" font-weight="bold" lengthAdjust="spacing" textLength="35.335" x="1308" y="281.9951">type</text><text fill="#000000" font-family="sans-serif" font-size="14" lengthAdjust="spacing" textLength="40.1885" x="1406.9492" y="281.9951">string</text><line style="stroke:#000000;stroke-width:1.0;" x1="1401.9492" x2="1401.9492" y1="267" y2="287.2969"/><line style="stroke:#000000;stroke-width:1.0;" x1="1303" x2="1780.6318" y1="287.2969" y2="287.2969"/><text fill="#000000" font-family="sans-serif" font-size="14" font-weight="bold" lengthAdjust="spacing" textLength="88.9492" x="1308" y="302.292">description</text><text fill="#000000" font-family="sans-serif" font-size="14" lengthAdjust="spacing" textLength="368.6826" x="1406.9492" y="302.292">The model of the GPU offered for the specific Flavor.</text><line style="stroke:#000000;stroke-width:1.0;" x1="1401.9492" x2="1401.9492" y1="287.2969" y2="307.5938"/><rect fill="none" height="40.5938" rx="5" ry="5" style="stroke:#000000;stroke-width:1.5;" width="477.6318" x="1303" y="267"/><rect fill="#F1F1F1" height="60.8906" rx="5" ry="5" style="stroke:#F1F1F1;stroke-width:1.5;" width="468.2051" x="1308" y="326"/><text fill="#000000" font-family="sans-serif" font-size="14" font-weight="bold" lengthAdjust="spacing" textLength="35.335" x="1313" y="340.9951">type</text><text fill="#000000" font-family="sans-serif" font-size="14" lengthAdjust="spacing" textLength="40.1885" x="1411.9492" y="340.9951">string</text><line style="stroke:#000000;stroke-width:1.0;" x1="1406.9492" x2="1406.9492" y1="326" y2="346.2969"/><line style="stroke:#000000;stroke-width:1.0;" x1="1308" x2="1776.2051" y1="346.2969" y2="346.2969"/><text fill="#000000" font-family="sans-serif" font-size="14" font-weight="bold" lengthAdjust="spacing" textLength="88.9492" x="1313" y="361.292">description</text><text fill="#000000" font-family="sans-serif" font-size="14" lengthAdjust="spacing" textLength="359.2559" x="1411.9492" y="361.292">The number of GPU cores advertised by the Flavor.</text><line style="stroke:#000000;stroke-width:1.0;" x1="1406.9492" x2="1406.9492" y1="346.2969" y2="366.5938"/><line style="stroke:#000000;stroke-width:1.0;" x1="1308" x2="1776.2051" y1="366.5938" y2="366.5938"/><text fill="#000000" font-family="sans-serif" font-size="14" font-weight="bold" lengthAdjust="spacing" textLength="59.2197" x="1313" y="381.5889">pattern</text><text fill="#000000" font-family="sans-serif" font-size="14" lengthAdjust="spacing" textLength="257.1064" x="1411.9492" y="381.5889">^[0-9]+(m|([.][0-9]+)?|[kMGTP]i?)?$</text><line style="stroke:#000000;stroke-width:1.0;" x1="1406.9492" x2="1406.9492" y1="366.5938" y2="386.8906"/><rect fill="none" height="60.8906" rx="5" ry="5" style="stroke:#000000;stroke-width:1.5;" width="468.2051" x="1308" y="326"/><rect fill="#F1F1F1" height="60.8906" rx="5" ry="5" style="stroke:#F1F1F1;stroke-width:1.5;" width="488.1523" x="1298" y="405"/><text fill="#000000" font-family="sans-serif" font-size="14" font-weight="bold" lengthAdjust="spacing" textLength="35.335" x="1303" y="419.9951">type</text><text fill="#000000" font-family="sans-serif" font-size="14" lengthAdjust="spacing" textLength="40.1885" x="1401.9492" y="419.9951">string</text><line style="stroke:#000000;stroke-width:1.0;" x1="1396.9492" x2="1396.9492" y1="405" y2="425.2969"/><line style="stroke:#000000;stroke-width:1.0;" x1="1298" x2="1786.1523" y1="425.2969" y2="425.2969"/><text fill="#000000" font-family="sans-serif" font-size="14" font-weight="bold" lengthAdjust="spacing" textLength="88.9492" x="1303" y="440.292">description</text><text fill="#000000" font-family="sans-serif" font-size="14" lengthAdjust="spacing" textLength="379.2031" x="1401.9492" y="440.292">The amount of GPU memory advertised by the Flavor.</text><line style="stroke:#000000;stroke-width:1.0;" x1="1396.9492" x2="1396.9492" y1="425.2969" y2="445.5938"/><line style="stroke:#000000;stroke-width:1.0;" x1="1298" x2="1786.1523" y1="445.5938" y2="445.5938"/><text fill="#000000" font-family="sans-serif" font-size="14" font-weight="bold" lengthAdjust="spacing" textLength="59.2197" x="1303" y="460.5889">pattern</text><text fill="#000000" font-family="sans-serif" font-size="14" lengthAdjust="spacing" textLength="274.5586" x="1401.9492" y="460.5889">^[0-9]+(Ki|Mi|Gi|Ti|Pi|Ei|k|M|G|T|P|E)?$</text><line style="stroke:#000000;stroke-width:1.0;" x1="1396.9492" x2="1396.9492" y1="445.5938" y2="465.8906"/><rect fill="none" height="60.8906" rx="5" ry="5" style="stroke:#000000;stroke-width:1.5;" width="488.1523" x="1298" y="405"/><rect fill="#F1F1F1" height="60.8906" rx="5" ry="5" style="stroke:#F1F1F1;stroke-width:1.5;" width="383.5078" x="714.5" y="385"/><text fill="#000000" font-family="sans-serif" font-size="14" font-weight="bold" lengthAdjust="spacing" textLength="35.335" x="719.5" y="399.9951">type</text><text fill="#000000" font-family="sans-serif" font-size="14" lengthAdjust="spacing" textLength="40.1885" x="818.4492" y="399.9951">string</text><line style="stroke:#000000;stroke-width:1.0;" x1="813.4492" x2="813.4492" y1="385" y2="405.2969"/><line style="stroke:#000000;stroke-width:1.0;" x1="714.5" x2="1098.0078" y1="405.2969" y2="405.2969"/><text fill="#000000" font-family="sans-serif" font-size="14" font-weight="bold" lengthAdjust="spacing" textLength="88.9492" x="719.5" y="420.292">description</text><text fill="#000000" font-family="sans-serif" font-size="14" lengthAdjust="spacing" textLength="160.084" x="818.4492" y="420.292">The amount of storage</text><line style="stroke:#000000;stroke-width:1.0;" x1="813.4492" x2="813.4492" y1="405.2969" y2="425.5938"/><line style="stroke:#000000;stroke-width:1.0;" x1="714.5" x2="1098.0078" y1="425.5938" y2="425.5938"/><text fill="#000000" font-family="sans-serif" font-size="14" font-weight="bold" lengthAdjust="spacing" textLength="59.2197" x="719.5" y="440.5889">pattern</text><text fill="#000000" font-family="sans-serif" font-size="14" lengthAdjust="spacing" textLength="274.5586" x="818.4492" y="440.5889">^[0-9]+(Ki|Mi|Gi|Ti|Pi|Ei|k|M|G|T|P|E)?$</text><line style="stroke:#000000;stroke-width:1.0;" x1="813.4492" x2="813.4492" y1="425.5938" y2="445.8906"/><rect fill="none" height="60.8906" rx="5" ry="5" style="stroke:#000000;stroke-width:1.5;" width="383.5078" x="714.5" y="385"/><rect fill="#F1F1F1" height="60.8906" rx="5" ry="5" style="stroke:#F1F1F1;stroke-width:1.5;" width="68.4951" x="551" y="297"/><text fill="#000000" font-family="sans-serif" font-size="14" lengthAdjust="spacing" textLength="25.457" x="556" y="311.9951">cpu</text><line style="stroke:#000000;stroke-width:1.0;" x1="551" x2="619.4951" y1="317.2969" y2="317.2969"/><text fill="#000000" font-family="sans-serif" font-size="14" lengthAdjust="spacing" textLength="33.6328" x="556" y="332.292">pods</text><line style="stroke:#000000;stroke-width:1.0;" x1="551" x2="619.4951" y1="337.5938" y2="337.5938"/><text fill="#000000" font-family="sans-serif" font-size="14" lengthAdjust="spacing" textLength="58.4951" x="556" y="352.5889">memory</text><rect fill="none" height="60.8906" rx="5" ry="5" style="stroke:#000000;stroke-width:1.5;" width="68.4951" x="551" y="297"/><path d="M637.5,166.5 L650.5,166.5 C700.7463,166.5 648.1473,91.3616 687,59.5 C688.7377,58.075 690.5105,56.7001 692.316,55.3736 " fill="none" style="stroke:#000000;stroke-width:1.0;stroke-dasharray:3.0,3.0;"/><path d="M694.0461,57.878 L694.1943,54.076 L690.5859,52.8693 L698.5769,51.0483 L694.0461,57.878 " fill="#000000" style="stroke:#000000;stroke-width:1.0;"/><ellipse cx="637.5" cy="166.5" fill="#000000" rx="3" ry="3" style="stroke:#000000;stroke-width:1.0;"/><path d="M637.5,186.5 L650.5,186.5 C676.9482,186.5 664.3913,153.2242 687,139.5 C696.3284,133.8374 706.263,128.9373 716.5567,124.7004 " fill="none" style="stroke:#000000;stroke-width:1.0;stroke-dasharray:3.0,3.0;"/><path d="M717.6881,127.5727 L718.7109,123.8518 L715.4252,121.8281 L723.7374,121.8719 L717.6881,127.5727 " fill="#000000" style="stroke:#000000;stroke-width:1.0;"/><ellipse cx="637.5" cy="186.5" fill="#000000" rx="3" ry="3" style="stroke:#000000;stroke-width:1.0;"/><path d="M637.5,207.5 L650.5,207.5 C690.7828,207.5 734.4116,203.897 774.0227,199.231 " fill="none" style="stroke:#000000;stroke-width:1.0;stroke-dasharray:3.0,3.0;"/><path d="M774.4013,202.3776 L776.3826,198.947 L773.644,196.0844 L781.8892,198.2844 L774.4013,202.3776 " fill="#000000" style="stroke:#000000;stroke-width:1.0;"/><ellipse cx="637.5" cy="207.5" fill="#000000" rx="3" ry="3" style="stroke:#000000;stroke-width:1.0;"/><path d="M637.5,227.5 L650.5,227.5 C668.9328,227.5 688.0629,228.2797 707.1864,229.5878 " fill="none" style="stroke:#000000;stroke-width:1.0;stroke-dasharray:3.0,3.0;"/><path d="M706.9671,232.6332 L709.4705,229.7522 L707.4057,226.5423 L714.8,230.136 L706.9671,232.6332 " fill="#000000" style="stroke:#000000;stroke-width:1.0;"/><ellipse cx="637.5" cy="227.5" fill="#000000" rx="3" ry="3" style="stroke:#000000;stroke-width:1.0;"/><path d="M1249,336.5 L1262,336.5 C1280.0917,336.5 1280.7385,322.9173 1298,317.5 C1306.9788,314.6821 1316.2215,312.1272 1325.6156,309.8107 " fill="none" style="stroke:#000000;stroke-width:1.0;stroke-dasharray:3.0,3.0;"/><path d="M1326.3384,312.8364 L1327.8848,309.2686 L1324.8927,306.7851 L1333.1798,308.0037 L1326.3384,312.8364 " fill="#000000" style="stroke:#000000;stroke-width:1.0;"/><ellipse cx="1249" cy="336.5" fill="#000000" rx="3" ry="3" style="stroke:#000000;stroke-width:1.0;"/><path d="M1249,356.5 L1262,356.5 C1274.5746,356.5 1287.4675,356.5 1300.4852,356.5 " fill="none" style="stroke:#000000;stroke-width:1.0;stroke-dasharray:3.0,3.0;"/><path d="M1300.4852,359.5711 L1302.7885,356.5 L1300.4852,353.4289 L1308.1629,356.5 L1300.4852,359.5711 " fill="#000000" style="stroke:#000000;stroke-width:1.0;"/><ellipse cx="1249" cy="356.5" fill="#000000" rx="3" ry="3" style="stroke:#000000;stroke-width:1.0;"/><path d="M1249,376.5 L1262,376.5 C1280.3033,376.5 1280.7019,390.5178 1298,396.5 C1304.4628,398.7351 1311.0671,400.843 1317.77,402.8311 " fill="none" style="stroke:#000000;stroke-width:1.0;stroke-dasharray:3.0,3.0;"/><path d="M1316.9258,405.7551 L1319.963,403.4642 L1318.6142,399.907 L1325.0801,404.9416 L1316.9258,405.7551 " fill="#000000" style="stroke:#000000;stroke-width:1.0;"/><ellipse cx="1249" cy="376.5" fill="#000000" rx="3" ry="3" style="stroke:#000000;stroke-width:1.0;"/><path d="M1066,356.5 L1079,356.5 C1104.2198,356.5 1132.1398,356.5 1155.8217,356.5 " fill="none" style="stroke:#000000;stroke-width:1.0;stroke-dasharray:3.0,3.0;"/><path d="M1155.8217,359.5125 L1158.081,356.5 L1155.8217,353.4875 L1163.3529,356.5 L1155.8217,359.5125 " fill="#000000" style="stroke:#000000;stroke-width:1.0;"/><ellipse cx="1066" cy="356.5" fill="#000000" rx="3" ry="3" style="stroke:#000000;stroke-width:1.0;"/><path d="M637.5,247.5 L650.5,247.5 C678.0134,247.5 663.6632,282.9266 687,297.5 C699.7379,305.4546 713.6592,311.8925 728.1105,317.0908 " fill="none" style="stroke:#000000;stroke-width:1.0;stroke-dasharray:3.0,3.0;"/><path d="M727.1291,319.9444 L730.2507,317.8269 L729.0919,314.2372 L735.2445,319.5444 L727.1291,319.9444 " fill="#000000" style="stroke:#000000;stroke-width:1.0;"/><ellipse cx="637.5" cy="247.5" fill="#000000" rx="3" ry="3" style="stroke:#000000;stroke-width:1.0;"/><path d="M637.5,268.5 L650.5,268.5 C701.1672,268.5 648.5945,343.4519 687,376.5 C693.4995,382.0929 700.519,387.009 707.9194,391.3236 " fill="none" style="stroke:#000000;stroke-width:1.0;stroke-dasharray:3.0,3.0;"/><path d="M706.4012,394.0833 L709.9892,392.4622 L709.4376,388.5639 L714.8187,395.1191 L706.4012,394.0833 " fill="#000000" style="stroke:#000000;stroke-width:1.0;"/><ellipse cx="637.5" cy="268.5" fill="#000000" rx="3" ry="3" style="stroke:#000000;stroke-width:1.0;"/><path d="M471,262.5 L484,262.5 C493.7497,262.5 503.6035,260.714 513.1328,257.8537 " fill="none" style="stroke:#000000;stroke-width:1.0;stroke-dasharray:3.0,3.0;"/><path d="M514.0868,260.7404 L515.2979,257.1382 L512.1788,254.967 L520.3496,255.4688 L514.0868,260.7404 " fill="#000000" style="stroke:#000000;stroke-width:1.0;"/><ellipse cx="471" cy="262.5" fill="#000000" rx="3" ry="3" style="stroke:#000000;stroke-width:1.0;"/><path d="M471,282.5 L484,282.5 C505.0961,282.5 526.679,290.8616 544.4091,300.3761 " fill="none" style="stroke:#000000;stroke-width:1.0;stroke-dasharray:3.0,3.0;"/><path d="M542.8759,303.1148 L546.4632,301.526 L545.9424,297.6373 L551.256,304.2091 L542.8759,303.1148 " fill="#000000" style="stroke:#000000;stroke-width:1.0;"/><ellipse cx="471" cy="282.5" fill="#000000" rx="3" ry="3" style="stroke:#000000;stroke-width:1.0;"/><!--SRC=[hLLRJzim57xthx0o7bgDfkMYhkG5jWAL2j4YMdYfEibDJb93OcUsKwrQ-E-p4tgZ5oQHlFaSd-zyv_8vLr8HePubP-WlmlgpZgG_XOHO3hQcIgLEiscyZT9gSn4r0q52rMXzQvQsBzPn6QdcAPWmFda6NosjLCM5-QupYAaFNSv26cM2AChPub8gU0f2KP3wPacai1FXJwdIQ9c03Sz6Gga4PT4Rrj8RWFG5JOiq-j9m2dWT3lCGAssxZScC2rm3ExAFyPzE-nX_Vt3hjhL4Urq1MtwQLS23PSa4X67GzHwnpuMk-rrKIfG2KKJy6hKQ5-EljIIlZUnnUQXVvgCNjpVqnlIoVdcqcspA0rafsmBmGw9xs2IGS36lOee9pvWoVDuWFsxT7SrTclTeFgIvH_CRch_aRjxBXxcNt-pjNtHes1jRlezkpuntIWJnDICg5VNbvjxPM-HtAs7LHHv0RE5Tle-xUQYh1V22dE7Dmn0413ZKwZ0scO9FG-elcMz1lsvdiyhbhfxkQYbx2mbX4inCwwGcFPaVQFAdHNQeu3rh_lcALsjlAYxJL5Bo_ujZMJVQVLeNZrHSa0WgrVi2irB1epNcbe3V6TLRhx56cw_- -tTr-sKh3ECt8184r1H1OczTqI699Q1NT0KiAFwwo8i9Ku_kFTQ3b3e0dzYdhTDpkrqR48NxMOnRRTowS4xEdRCEVXnsiN7NKQtdtMF9C-433gXfvYGp2UkeJsO4F-YMqGGS_3C5rh- -MnZm3PjHmLa2JA7-axkwq3vl_A0A3q1e9lZ9HTSGaYnMEiBdWHwLexFVDZhedh0eqsDmC33KDRCHS-qR_0C0]--></g></svg>