<svg xmlns="http://www.w3.org/2000/svg" xmlns:xlink="http://www.w3.org/1999/xlink" contentStyleType="text/css" height="418px" preserveAspectRatio="none" style="width:1711px;height:418px;background:#FFFFFF;" version="1.1" viewBox="0 0 1711 418" width="1711px" zoomAndPan="magnify"><defs/><g><rect fill="#F1F1F1" height="121.7813" rx="5" ry="5" style="stroke:#F1F1F1;stroke-width:1.5;" width="473.4141" x="10" y="166.5"/><text fill="#000000" font-family="sans-serif" font-size="14" font-weight="bold" lengthAdjust="spacing" textLength="69.8701" x="15" y="181.4951">$schema</text><text fill="#000000" font-family="sans-serif" font-size="14" lengthAdjust="spacing" textLength="291.2793" x="187.1348" y="181.4951">http://json-schema.org/draft-07/schema#</text><line style="stroke:#000000;stroke-width:1.0;" x1="182.1348" x2="182.1348" y1="166.5" y2="186.7969"/><line style="stroke:#000000;stroke-width:1.0;" x1="10" x2="483.4141" y1="186.7969" y2="186.7969"/><text fill="#000000" font-family="sans-serif" font-size="14" font-weight="bold" lengthAdjust="spacing" textLength="35.335" x="15" y="201.792">type</text><text fill="#000000" font-family="sans-serif" font-size="14" lengthAdjust="spacing" textLength="43.1416" x="187.1348" y="201.792">object</text><line style="stroke:#000000;stroke-width:1.0;" x1="182.1348" x2="182.1348" y1="186.7969" y2="207.0938"/><line style="stroke:#000000;stroke-width:1.0;" x1="10" x2="483.4141" y1="207.0938" y2="207.0938"/><text fill="#000000" font-family="sans-serif" font-size="14" font-weight="bold" lengthAdjust="spacing" textLength="32.4775" x="15" y="222.0889">title</text><text fill="#000000" font-family="sans-serif" font-size="14" lengthAdjust="spacing" textLength="146.0088" x="187.1348" y="222.0889">K8SliceConfiguration</text><line style="stroke:#000000;stroke-width:1.0;" x1="182.1348" x2="182.1348" y1="207.0938" y2="227.3906"/><line style="stroke:#000000;stroke-width:1.0;" x1="10" x2="483.4141" y1="227.3906" y2="227.3906"/><text fill="#000000" font-family="sans-serif" font-size="14" font-weight="bold" lengthAdjust="spacing" textLength="82.2842" x="15" y="242.3857">properties</text><text fill="#000000" font-family="sans-serif" font-size="14" lengthAdjust="spacing" textLength="13.3506" x="187.1348" y="242.3857">&#160;&#160;&#160;</text><line style="stroke:#000000;stroke-width:1.0;" x1="182.1348" x2="182.1348" y1="227.3906" y2="247.6875"/><line style="stroke:#000000;stroke-width:1.0;" x1="10" x2="483.4141" y1="247.6875" y2="247.6875"/><text fill="#000000" font-family="sans-serif" font-size="14" font-weight="bold" lengthAdjust="spacing" textLength="67.6074" x="15" y="262.6826">required</text><text fill="#000000" font-family="sans-serif" font-size="14" lengthAdjust="spacing" textLength="13.3506" x="187.1348" y="262.6826">&#160;&#160;&#160;</text><line style="stroke:#000000;stroke-width:1.0;" x1="182.1348" x2="182.1348" y1="247.6875" y2="267.9844"/><line style="stroke:#000000;stroke-width:1.0;" x1="10" x2="483.4141" y1="267.9844" y2="267.9844"/><text fill="#000000" font-family="sans-serif" font-size="14" font-weight="bold" lengthAdjust="spacing" textLength="162.1348" x="15" y="282.9795">additionalProperties</text><text fill="#000000" font-family="sans-serif" font-size="14" lengthAdjust="spacing" textLength="50.3057" x="187.1348" y="282.9795">&#9744; false</text><line style="stroke:#000000;stroke-width:1.0;" x1="182.1348" x2="182.1348" y1="267.9844" y2="288.2813"/><rect fill="none" height="121.7813" rx="5" ry="5" style="stroke:#000000;stroke-width:1.5;" width="473.4141" x="10" y="166.5"/><rect fill="#F1F1F1" height="101.4844" rx="5" ry="5" style="stroke:#F1F1F1;stroke-width:1.5;" width="97.6699" x="520" y="147.7578"/><text fill="#000000" font-family="sans-serif" font-size="14" font-weight="bold" lengthAdjust="spacing" textLength="28.2871" x="525" y="162.7529">cpu</text><text fill="#000000" font-family="sans-serif" font-size="14" lengthAdjust="spacing" textLength="13.3506" x="599.3193" y="162.7529">&#160;&#160;&#160;</text><line style="stroke:#000000;stroke-width:1.0;" x1="594.3193" x2="594.3193" y1="147.7578" y2="168.0547"/><line style="stroke:#000000;stroke-width:1.0;" x1="520" x2="617.6699" y1="168.0547" y2="168.0547"/><text fill="#000000" font-family="sans-serif" font-size="14" font-weight="bold" lengthAdjust="spacing" textLength="37.9941" x="525" y="183.0498">pods</text><text fill="#000000" font-family="sans-serif" font-size="14" lengthAdjust="spacing" textLength="13.3506" x="599.3193" y="183.0498">&#160;&#160;&#160;</text><line style="stroke:#000000;stroke-width:1.0;" x1="594.3193" x2="594.3193" y1="168.0547" y2="188.3516"/><line style="stroke:#000000;stroke-width:1.0;" x1="520" x2="617.6699" y1="188.3516" y2="188.3516"/><text fill="#000000" font-family="sans-serif" font-size="14" font-weight="bold" lengthAdjust="spacing" textLength="64.3193" x="525" y="203.3467">memory</text><text fill="#000000" font-family="sans-serif" font-size="14" lengthAdjust="spacing" textLength="13.3506" x="599.3193" y="203.3467">&#160;&#160;&#160;</text><line style="stroke:#000000;stroke-width:1.0;" x1="594.3193" x2="594.3193" y1="188.3516" y2="208.6484"/><line style="stroke:#000000;stroke-width:1.0;" x1="520" x2="617.6699" y1="208.6484" y2="208.6484"/><text fill="#000000" font-family="sans-serif" font-size="14" font-weight="bold" lengthAdjust="spacing" textLength="30.0098" x="525" y="223.6436">gpu</text><text fill="#000000" font-family="sans-serif" font-size="14" lengthAdjust="spacing" textLength="13.3506" x="599.3193" y="223.6436">&#160;&#160;&#160;</text><line style="stroke:#000000;stroke-width:1.0;" x1="594.3193" x2="594.3193" y1="208.6484" y2="228.9453"/><line style="stroke:#000000;stroke-width:1.0;" x1="520" x2="617.6699" y1="228.9453" y2="228.9453"/><text fill="#000000" font-family="sans-serif" font-size="14" font-weight="bold" lengthAdjust="spacing" textLength="60.5117" x="525" y="243.9404">storage</text><text fill="#000000" font-family="sans-serif" font-size="14" lengthAdjust="spacing" textLength="13.3506" x="599.3193" y="243.9404">&#160;&#160;&#160;</text><line style="stroke:#000000;stroke-width:1.0;" x1="594.3193" x2="594.3193" y1="228.9453" y2="249.2422"/><rect fill="none" height="101.4844" rx="5" ry="5" style="stroke:#000000;stroke-width:1.5;" width="97.6699" x="520" y="147.7578"/><rect fill="#F1F1F1" height="60.8906" rx="5" ry="5" style="stroke:#F1F1F1;stroke-width:1.5;" width="366.0557" x="664" y="10"/><text fill="#000000" font-family="sans-serif" font-size="14" font-weight="bold" lengthAdjust="spacing" textLength="35.335" x="669" y="24.9951">type</text><text fill="#000000" font-family="sans-serif" font-size="14" lengthAdjust="spacing" textLength="40.1885" x="767.9492" y="24.9951">string</text><line style="stroke:#000000;stroke-width:1.0;" x1="762.9492" x2="762.9492" y1="10" y2="30.2969"/><line style="stroke:#000000;stroke-width:1.0;" x1="664" x2="1030.0557" y1="30.2969" y2="30.2969"/><text fill="#000000" font-family="sans-serif" font-size="14" font-weight="bold" lengthAdjust="spacing" textLength="88.9492" x="669" y="45.292">description</text><text fill="#000000" font-family="sans-serif" font-size="14" lengthAdjust="spacing" textLength="178.3633" x="767.9492" y="45.292">The number of CPU cores</text><line style="stroke:#000000;stroke-width:1.0;" x1="762.9492" x2="762.9492" y1="30.2969" y2="50.5938"/><line style="stroke:#000000;stroke-width:1.0;" x1="664" x2="1030.0557" y1="50.5938" y2="50.5938"/><text fill="#000000" font-family="sans-serif" font-size="14" font-weight="bold" lengthAdjust="spacing" textLength="59.2197" x="669" y="65.5889">pattern</text><text fill="#000000" font-family="sans-serif" font-size="14" lengthAdjust="spacing" textLength="257.1064" x="767.9492" y="65.5889">^[0-9]+(m|([.][0-9]+)?|[kMGTP]i?)?$</text><line style="stroke:#000000;stroke-width:1.0;" x1="762.9492" x2="762.9492" y1="50.5938" y2="70.8906"/><rect fill="none" height="60.8906" rx="5" ry="5" style="stroke:#000000;stroke-width:1.5;" width="366.0557" x="664" y="10"/><rect fill="#F1F1F1" height="60.8906" rx="5" ry="5" style="stroke:#F1F1F1;stroke-width:1.5;" width="250.1045" x="722" y="89"/><text fill="#000000" font-family="sans-serif" font-size="14" font-weight="bold" lengthAdjust="spacing" textLength="35.335" x="727" y="103.9951">type</text><text fill="#000000" font-family="sans-serif" font-size="14" lengthAdjust="spacing" textLength="40.1885" x="825.9492" y="103.9951">string</text><line style="stroke:#000000;stroke-width:1.0;" x1="820.9492" x2="820.9492" y1="89" y2="109.2969"/><line style="stroke:#000000;stroke-width:1.0;" x1="722" x2="972.1045" y1="109.2969" y2="109.2969"/><text fill="#000000" font-family="sans-serif" font-size="14" font-weight="bold" lengthAdjust="spacing" textLength="88.9492" x="727" y="124.292">description</text><text fill="#000000" font-family="sans-serif" font-size="14" lengthAdjust="spacing" textLength="141.1553" x="825.9492" y="124.292">The number of pods</text><line style="stroke:#000000;stroke-width:1.0;" x1="820.9492" x2="820.9492" y1="109.2969" y2="129.5938"/><line style="stroke:#000000;stroke-width:1.0;" x1="722" x2="972.1045" y1="129.5938" y2="129.5938"/><text fill="#000000" font-family="sans-serif" font-size="14" font-weight="bold" lengthAdjust="spacing" textLength="59.2197" x="727" y="144.5889">pattern</text><text fill="#000000" font-family="sans-serif" font-size="14" lengthAdjust="spacing" textLength="66.1582" x="825.9492" y="144.5889">^[0-9]+$</text><line style="stroke:#000000;stroke-width:1.0;" x1="820.9492" x2="820.9492" y1="129.5938" y2="149.8906"/><rect fill="none" height="60.8906" rx="5" ry="5" style="stroke:#000000;stroke-width:1.5;" width="250.1045" x="722" y="89"/><rect fill="#F1F1F1" height="60.8906" rx="5" ry="5" style="stroke:#F1F1F1;stroke-width:1.5;" width="383.5078" x="655" y="168"/><text fill="#000000" font-family="sans-serif" font-size="14" font-weight="bold" lengthAdjust="spacing" textLength="35.335" x="660" y="182.9951">type</text><text fill="#000000" font-family="sans-serif" font-size="14" lengthAdjust="spacing" textLength="40.1885" x="758.9492" y="182.9951">string</text><line style="stroke:#000000;stroke-width:1.0;" x1="753.9492" x2="753.9492" y1="168" y2="188.2969"/><line style="stroke:#000000;stroke-width:1.0;" x1="655" x2="1038.5078" y1="188.2969" y2="188.2969"/><text fill="#000000" font-family="sans-serif" font-size="14" font-weight="bold" lengthAdjust="spacing" textLength="88.9492" x="660" y="203.292">description</text><text fill="#000000" font-family="sans-serif" font-size="14" lengthAdjust="spacing" textLength="165.3955" x="758.9492" y="203.292">The amount of memory</text><line style="stroke:#000000;stroke-width:1.0;" x1="753.9492" x2="753.9492" y1="188.2969" y2="208.5938"/><line style="stroke:#000000;stroke-width:1.0;" x1="655" x2="1038.5078" y1="208.5938" y2="208.5938"/><text fill="#000000" font-family="sans-serif" font-size="14" font-weight="bold" lengthAdjust="spacing" textLength="59.2197" x="660" y="223.5889">pattern</text><text fill="#000000" font-family="sans-serif" font-size="14" lengthAdjust="spacing" textLength="274.5586" x="758.9492" y="223.5889">^[0-9]+(Ki|Mi|Gi|Ti|Pi|Ei|k|M|G|T|P|E)?$</text><line style="stroke:#000000;stroke-width:1.0;" x1="753.9492" x2="753.9492" y1="208.5938" y2="228.8906"/><rect fill="none" height="60.8906" rx="5" ry="5" style="stroke:#000000;stroke-width:1.5;" width="383.5078" x="655" y="168"/><rect fill="#F1F1F1" height="60.8906" rx="5" ry="5" style="stroke:#F1F1F1;stroke-width:1.5;" width="342.9297" x="675.5" y="247"/><text fill="#000000" font-family="sans-serif" font-size="14" font-weight="bold" lengthAdjust="spacing" textLength="35.335" x="680.5" y="261.9951">type</text><text fill="#000000" font-family="sans-serif" font-size="14" lengthAdjust="spacing" textLength="43.1416" x="779.4492" y="261.9951">object</text><line style="stroke:#000000;stroke-width:1.0;" x1="774.4492" x2="774.4492" y1="247" y2="267.2969"/><line style="stroke:#000000;stroke-width:1.0;" x1="675.5" x2="1018.4297" y1="267.2969" y2="267.2969"/><text fill="#000000" font-family="sans-serif" font-size="14" font-weight="bold" lengthAdjust="spacing" textLength="88.9492" x="680.5" y="282.292">description</text><text fill="#000000" font-family="sans-serif" font-size="14" lengthAdjust="spacing" textLength="233.9805" x="779.4492" y="282.292">GPU characteristics of the Flavor.</text><line style="stroke:#000000;stroke-width:1.0;" x1="774.4492" x2="774.4492" y1="267.2969" y2="287.5938"/><line style="stroke:#000000;stroke-width:1.0;" x1="675.5" x2="1018.4297" y1="287.5938" y2="287.5938"/><text fill="#000000" font-family="sans-serif" font-size="14" font-weight="bold" lengthAdjust="spacing" textLength="82.2842" x="680.5" y="302.5889">properties</text><text fill="#000000" font-family="sans-serif" font-size="14" lengthAdjust="spacing" textLength="13.3506" x="779.4492" y="302.5889">&#160;&#160;&#160;</text><line style="stroke:#000000;stroke-width:1.0;" x1="774.4492" x2="774.4492" y1="287.5938" y2="307.8906"/><rect fill="none" height="60.8906" rx="5" ry="5" style="stroke:#000000;stroke-width:1.5;" width="342.9297" x="675.5" y="247"/><rect fill="#F1F1F1" height="60.8906" rx="5" ry="5" style="stroke:#F1F1F1;stroke-width:1.5;" width="97.6699" x="1076" y="267"/><text fill="#000000" font-family="sans-serif" font-size="14" font-weight="bold" lengthAdjust="spacing" textLength="48.5215" x="1081" y="281.9951">model</text><text fill="#000000" font-family="sans-serif" font-size="14" lengthAdjust="spacing" textLength="13.3506" x="1155.3193" y="281.9951">&#160;&#160;&#160;</text><line style="stroke:#000000;stroke-width:1.0;" x1="1150.3193" x2="1150.3193" y1="267" y2="287.2969"/><line style="stroke:#000000;stroke-width:1.0;" x1="1076" x2="1173.6699" y1="287.2969" y2="287.2969"/><text fill="#000000" font-family="sans-serif" font-size="14" font-weight="bold" lengthAdjust="spacing" textLength="42.6494" x="1081" y="302.292">cores</text><text fill="#000000" font-family="sans-serif" font-size="14" lengthAdjust="spacing" textLength="13.3506" x="1155.3193" y="302.292">&#160;&#160;&#160;</text><line style="stroke:#000000;stroke-width:1.0;" x1="1150.3193" x2="1150.3193" y1="287.2969" y2="307.5938"/><line style="stroke:#000000;stroke-width:1.0;" x1="1076" x2="1173.6699" y1="307.5938" y2="307.5938"/><text fill="#000000" font-family="sans-serif" font-size="14" font-weight="bold" lengthAdjust="spacing" textLength="64.3193" x="1081" y="322.5889">memory</text><text fill="#000000" font-family="sans-serif" font-size="14" lengthAdjust="spacing" textLength="13.3506" x="1155.3193" y="322.5889">&#160;&#160;&#160;</text><line style="stroke:#000000;stroke-width:1.0;" x1="1150.3193" x2="1150.3193" y1="307.5938" y2="327.8906"/><rect fill="none" height="60.8906" rx="5" ry="5" style="stroke:#000000;stroke-width:1.5;" width="97.6699" x="1076" y="267"/><rect fill="#F1F1F1" height="40.5938" rx="5" ry="5" style="stroke:#F1F1F1;stroke-width:1.5;" width="477.6318" x="1216" y="208"/><text fill="#000000" font-family="sans-serif" font-size="14" font-weight="bold" lengthAdjust="spacing" textLength="35.335" x="1221" y="222.9951">type</text><text fill="#000000" font-family="sans-serif" font-size="14" lengthAdjust="spacing" textLength="40.1885" x="1319.9492" y="222.9951">string</text><line style="stroke:#000000;stroke-width:1.0;" x1="1314.9492" x2="1314.9492" y1="208" y2="228.2969"/><line style="stroke:#000000;stroke-width:1.0;" x1="1216" x2="1693.6318" y1="228.2969" y2="228.2969"/><text fill="#000000" font-family="sans-serif" font-size="14" font-weight="bold" lengthAdjust="spacing" textLength="88.9492" x="1221" y="243.292">description</text><text fill="#000000" font-family="sans-serif" font-size="14" lengthAdjust="spacing" textLength="368.6826" x="1319.9492" y="243.292">The model of the GPU offered for the specific Flavor.</text><line style="stroke:#000000;stroke-width:1.0;" x1="1314.9492" x2="1314.9492" y1="228.2969" y2="248.5938"/><rect fill="none" height="40.5938" rx="5" ry="5" style="stroke:#000000;stroke-width:1.5;" width="477.6318" x="1216" y="208"/><rect fill="#F1F1F1" height="60.8906" rx="5" ry="5" style="stroke:#F1F1F1;stroke-width:1.5;" width="468.2051" x="1221" y="267"/><text fill="#000000" font-family="sans-serif" font-size="14" font-weight="bold" lengthAdjust="spacing" textLength="35.335" x="1226" y="281.9951">type</text><text fill="#000000" font-family="sans-serif" font-size="14" lengthAdjust="spacing" textLength="40.1885" x="1324.9492" y="281.9951">string</text><line style="stroke:#000000;stroke-width:1.0;" x1="1319.9492" x2="1319.9492" y1="267" y2="287.2969"/><line style="stroke:#000000;stroke-width:1.0;" x1="1221" x2="1689.2051" y1="287.2969" y2="287.2969"/><text fill="#000000" font-family="sans-serif" font-size="14" font-weight="bold" lengthAdjust="spacing" textLength="88.9492" x="1226" y="302.292">description</text><text fill="#000000" font-family="sans-serif" font-size="14" lengthAdjust="spacing" textLength="359.2559" x="1324.9492" y="302.292">The number of GPU cores advertised by the Flavor.</text><line style="stroke:#000000;stroke-width:1.0;" x1="1319.9492" x2="1319.9492" y1="287.2969" y2="307.5938"/><line style="stroke:#000000;stroke-width:1.0;" x1="1221" x2="1689.2051" y1="307.5938" y2="307.5938"/><text fill="#000000" font-family="sans-serif" font-size="14" font-weight="bold" lengthAdjust="spacing" textLength="59.2197" x="1226" y="322.5889">pattern</text><text fill="#000000" font-family="sans-serif" font-size="14" lengthAdjust="spacing" textLength="257.1064" x="1324.9492" y="322.5889">^[0-9]+(m|([.][0-9]+)?|[kMGTP]i?)?$</text><line style="stroke:#000000;stroke-width:1.0;" x1="1319.9492" x2="1319.9492" y1="307.5938" y2="327.8906"/><rect fill="none" height="60.8906" rx="5" ry="5" style="stroke:#000000;stroke-width:1.5;" width="468.2051" x="1221" y="267"/><rect fill="#F1F1F1" height="60.8906" rx="5" ry="5" style="stroke:#F1F1F1;stroke-width:1.5;" width="488.1523" x="1211" y="346"/><text fill="#000000" font-family="sans-serif" font-size="14" font-weight="bold" lengthAdjust="spacing" textLength="35.335" x="1216" y="360.9951">type</text><text fill="#000000" font-family="sans-serif" font-size="14" lengthAdjust="spacing" textLength="40.1885" x="1314.9492" y="360.9951">string</text><line style="stroke:#000000;stroke-width:1.0;" x1="1309.9492" x2="1309.9492" y1="346" y2="366.2969"/><line style="stroke:#000000;stroke-width:1.0;" x1="1211" x2="1699.1523" y1="366.2969" y2="366.2969"/><text fill="#000000" font-family="sans-serif" font-size="14" font-weight="bold" lengthAdjust="spacing" textLength="88.9492" x="1216" y="381.292">description</text><text fill="#000000" font-family="sans-serif" font-size="14" lengthAdjust="spacing" textLength="379.2031" x="1314.9492" y="381.292">The amount of GPU memory advertised by the Flavor.</text><line style="stroke:#000000;stroke-width:1.0;" x1="1309.9492" x2="1309.9492" y1="366.2969" y2="386.5938"/><line style="stroke:#000000;stroke-width:1.0;" x1="1211" x2="1699.1523" y1="386.5938" y2="386.5938"/><text fill="#000000" font-family="sans-serif" font-size="14" font-weight="bold" lengthAdjust="spacing" textLength="59.2197" x="1216" y="401.5889">pattern</text><text fill="#000000" font-family="sans-serif" font-size="14" lengthAdjust="spacing" textLength="274.5586" x="1314.9492" y="401.5889">^[0-9]+(Ki|Mi|Gi|Ti|Pi|Ei|k|M|G|T|P|E)?$</text><line style="stroke:#000000;stroke-width:1.0;" x1="1309.9492" x2="1309.9492" y1="386.5938" y2="406.8906"/><rect fill="none" height="60.8906" rx="5" ry="5" style="stroke:#000000;stroke-width:1.5;" width="488.1523" x="1211" y="346"/><rect fill="#F1F1F1" height="60.8906" rx="5" ry="5" style="stroke:#F1F1F1;stroke-width:1.5;" width="383.5078" x="655" y="326"/><text fill="#000000" font-family="sans-serif" font-size="14" font-weight="bold" lengthAdjust="spacing" textLength="35.335" x="660" y="340.9951">type</text><text fill="#000000" font-family="sans-serif" font-size="14" lengthAdjust="spacing" textLength="40.1885" x="758.9492" y="340.9951">string</text><line style="stroke:#000000;stroke-width:1.0;" x1="753.9492" x2="753.9492" y1="326" y2="346.2969"/><line style="stroke:#000000;stroke-width:1.0;" x1="655" x2="1038.5078" y1="346.2969" y2="346.2969"/><text fill="#000000" font-family="sans-serif" font-size="14" font-weight="bold" lengthAdjust="spacing" textLength="88.9492" x="660" y="361.292">description</text><text fill="#000000" font-family="sans-serif" font-size="14" lengthAdjust="spacing" textLength="160.084" x="758.9492" y="361.292">The amount of storage</text><line style="stroke:#000000;stroke-width:1.0;" x1="753.9492" x2="753.9492" y1="346.2969" y2="366.5938"/><line style="stroke:#000000;stroke-width:1.0;" x1="655" x2="1038.5078" y1="366.5938" y2="366.5938"/><text fill="#000000" font-family="sans-serif" font-size="14" font-weight="bold" lengthAdjust="spacing" textLength="59.2197" x="660" y="381.5889">pattern</text><text fill="#000000" font-family="sans-serif" font-size="14" lengthAdjust="spacing" textLength="274.5586" x="758.9492" y="381.5889">^[0-9]+(Ki|Mi|Gi|Ti|Pi|Ei|k|M|G|T|P|E)?$</text><line style="stroke:#000000;stroke-width:1.0;" x1="753.9492" x2="753.9492" y1="366.5938" y2="386.8906"/><rect fill="none" height="60.8906" rx="5" ry="5" style="stroke:#000000;stroke-width:1.5;" width="383.5078" x="655" y="326"/><rect fill="#F1F1F1" height="60.8906" rx="5" ry="5" style="stroke:#F1F1F1;stroke-width:1.5;" width="68.4951" x="535" y="267"/><text fill="#000000" font-family="sans-serif" font-size="14" lengthAdjust="spacing" textLength="25.457" x="540" y="281.9951">cpu</text><line style="stroke:#000000;stroke-width:1.0;" x1="535" x2="603.4951" y1="287.2969" y2="287.2969"/><text fill="#000000" font-family="sans-serif" font-size="14" lengthAdjust="spacing" textLength="33.6328" x="540" y="302.292">pods</text><line style="stroke:#000000;stroke-width:1.0;" x1="535" x2="603.4951" y1="307.5938" y2="307.5938"/><text fill="#000000" font-family="sans-serif" font-size="14" lengthAdjust="spacing" textLength="58.4951" x="540" y="322.5889">memory</text><rect fill="none" height="60.8906" rx="5" ry="5" style="stroke:#000000;stroke-width:1.5;" width="68.4951" x="535" y="267"/><path d="M606,157.5 L619,157.5 C656.7778,157.5 625.3816,103.9502 655,80.5 C657.2634,78.708 659.5876,76.9908 661.9661,75.3456 " fill="none" style="stroke:#000000;stroke-width:1.0;stroke-dasharray:3.0,3.0;"/><path d="M663.6418,77.9129 L663.8916,74.0888 L660.2905,72.7782 L668.3845,71.1564 L663.6418,77.9129 " fill="#000000" style="stroke:#000000;stroke-width:1.0;"/><ellipse cx="606" cy="157.5" fill="#000000" rx="3" ry="3" style="stroke:#000000;stroke-width:1.0;"/><path d="M606,178.5 L619,178.5 C637.0917,178.5 637.9791,165.6316 655,159.5 C674.0675,152.6311 694.6506,146.7911 715.0069,141.8735 " fill="none" style="stroke:#000000;stroke-width:1.0;stroke-dasharray:3.0,3.0;"/><path d="M715.715,144.868 L717.2527,141.3425 L714.2988,138.879 L722.4931,140.1033 L715.715,144.868 " fill="#000000" style="stroke:#000000;stroke-width:1.0;"/><ellipse cx="606" cy="178.5" fill="#000000" rx="3" ry="3" style="stroke:#000000;stroke-width:1.0;"/><path d="M606,198.5 L619,198.5 C628.3496,198.5 637.9153,198.5 647.5772,198.5 " fill="none" style="stroke:#000000;stroke-width:1.0;stroke-dasharray:3.0,3.0;"/><path d="M647.5772,201.6068 L649.9073,198.5 L647.5772,195.3932 L655.3442,198.5 L647.5772,201.6068 " fill="#000000" style="stroke:#000000;stroke-width:1.0;"/><ellipse cx="606" cy="198.5" fill="#000000" rx="3" ry="3" style="stroke:#000000;stroke-width:1.0;"/><path d="M1162,277.5 L1175,277.5 C1193.0917,277.5 1193.7385,263.9173 1211,258.5 C1219.9788,255.6821 1229.2215,253.1272 1238.6156,250.8107 " fill="none" style="stroke:#000000;stroke-width:1.0;stroke-dasharray:3.0,3.0;"/><path d="M1239.3384,253.8364 L1240.8848,250.2686 L1237.8927,247.7851 L1246.1798,249.0037 L1239.3384,253.8364 " fill="#000000" style="stroke:#000000;stroke-width:1.0;"/><ellipse cx="1162" cy="277.5" fill="#000000" rx="3" ry="3" style="stroke:#000000;stroke-width:1.0;"/><path d="M1162,297.5 L1175,297.5 C1187.5746,297.5 1200.4675,297.5 1213.4852,297.5 " fill="none" style="stroke:#000000;stroke-width:1.0;stroke-dasharray:3.0,3.0;"/><path d="M1213.4852,300.5711 L1215.7885,297.5 L1213.4852,294.4289 L1221.1629,297.5 L1213.4852,300.5711 " fill="#000000" style="stroke:#000000;stroke-width:1.0;"/><ellipse cx="1162" cy="297.5" fill="#000000" rx="3" ry="3" style="stroke:#000000;stroke-width:1.0;"/><path d="M1162,317.5 L1175,317.5 C1193.3033,317.5 1193.7019,331.5178 1211,337.5 C1217.4628,339.7351 1224.0671,341.843 1230.77,343.8311 " fill="none" style="stroke:#000000;stroke-width:1.0;stroke-dasharray:3.0,3.0;"/><path d="M1229.9258,346.7551 L1232.963,344.4642 L1231.6142,340.907 L1238.0801,345.9416 L1229.9258,346.7551 " fill="#000000" style="stroke:#000000;stroke-width:1.0;"/><ellipse cx="1162" cy="317.5" fill="#000000" rx="3" ry="3" style="stroke:#000000;stroke-width:1.0;"/><path d="M1006.5,297.5 L1019.5,297.5 C1035.479,297.5 1052.8258,297.5 1068.7304,297.5 " fill="none" style="stroke:#000000;stroke-width:1.0;stroke-dasharray:3.0,3.0;"/><path d="M1068.7304,300.5718 L1071.0342,297.5 L1068.7304,294.4282 L1076.4099,297.5 L1068.7304,300.5718 " fill="#000000" style="stroke:#000000;stroke-width:1.0;"/><ellipse cx="1006.5" cy="297.5" fill="#000000" rx="3" ry="3" style="stroke:#000000;stroke-width:1.0;"/><path d="M606,218.5 L619,218.5 C637.3033,218.5 637.8316,232.155 655,238.5 C660.8901,240.6768 666.9295,242.7427 673.0658,244.7024 " fill="none" style="stroke:#000000;stroke-width:1.0;stroke-dasharray:3.0,3.0;"/><path d="M672.165,247.6003 L675.2392,245.378 L673.9666,241.8045 L680.3106,246.9544 L672.165,247.6003 " fill="#000000" style="stroke:#000000;stroke-width:1.0;"/><ellipse cx="606" cy="218.5" fill="#000000" rx="3" ry="3" style="stroke:#000000;stroke-width:1.0;"/><path d="M606,239.5 L619,239.5 C657.1809,239.5 625.0647,293.8008 655,317.5 C656.7457,318.8821 658.5278,320.2189 660.3432,321.5119 " fill="none" style="stroke:#000000;stroke-width:1.0;stroke-dasharray:3.0,3.0;"/><path d="M658.6514,324.0305 L662.2321,322.7808 L662.035,318.9934 L666.6396,325.7414 L658.6514,324.0305 " fill="#000000" style="stroke:#000000;stroke-width:1.0;"/><ellipse cx="606" cy="239.5" fill="#000000" rx="3" ry="3" style="stroke:#000000;stroke-width:1.0;"/><path d="M471,237.5 L484,237.5 C493.7852,237.5 503.6698,235.3173 513.0591,231.9847 " fill="none" style="stroke:#000000;stroke-width:1.0;stroke-dasharray:3.0,3.0;"/><path d="M514.1613,234.8141 L515.1812,231.158 L511.9569,229.1552 L520.1327,229.2291 L514.1613,234.8141 " fill="#000000" style="stroke:#000000;stroke-width:1.0;"/><ellipse cx="471" cy="237.5" fill="#000000" rx="3" ry="3" style="stroke:#000000;stroke-width:1.0;"/><path d="M471,257.5 L484,257.5 C499.3419,257.5 514.8744,262.9533 528.3652,269.8328 " fill="none" style="stroke:#000000;stroke-width:1.0;stroke-dasharray:3.0,3.0;"/><path d="M526.8827,272.5756 L530.4223,270.9447 L529.8477,267.0901 L535.2221,273.5391 L526.8827,272.5756 " fill="#000000" style="stroke:#000000;stroke-width:1.0;"/><ellipse cx="471" cy="257.5" fill="#000000" rx="3" ry="3" style="stroke:#000000;stroke-width:1.0;"/><!--SRC=[hLLRRzem57xthx2oFe0sBcrHH_D2DTeYST6Y0Nr1J3B92RXDxCnsaD3CVv-Tb5kvJIfvytTyllETc_CW5H7gLNA6_Y9iFkTA-ZE8YUDYPwPKubOgrbhAqJ8NqqeWIAXArU-L7FlYVCizrI81wyOdh-2hDKfLbC6TUZ-YFZGv2-aq5KHHpbQN4i4J48g2D3Tp8Hdk9-aEi1D7Aa7Pz9rYRGr0-e8c6RkvD9W1Pcay0O5vY9lU4FjSc30Vl1AY58ZCu_UeMheVVot4kZ0gZ_D3iQ57RxtMm1lJHh5nvQoTbniU9-61lAZQZF2iq2DgOeYvM5n03ubvofJLyqvvldGTgdjKjwWUKErH_KJrc-xfbXveJpyThT_qLBDtXkgOt9Pjxum8uXj5L2hgIwjRcIoU8pBdehmd_l3WRQh80uWSVCXslfgdgfeHhyHPtJmCGK20GouoJ2RWqv3wQ-LxrClzQ4u-t9UNkndArcg5C0dcjdJIY9uiJXJvqqjsAk4ZO_xvZ3TZRpFEmrmavVzVZdNUwF1fUtcaue9CuQBxlkAywCAZBUMEW3yfDLDlk4Qxh_x7TtN_PSk0yJiH2G9gao2HjxtH8Oaae2Lw01PaFpdaHOIfOQ-BJIEbSS3NvPlgJQryL-WJXTjfXAjtk7hlNjVSspeU3fhOcekeqFAwMF9K-803QeivIMt08cgJES6_JCbe32x-cG1hFtPM07vYSoeuYu4fr7xfRIxSrKe_gC9z44O9VkcXHmX96YdZuVF0jCerqPzBTTGbR9gQDhWO66hQteY5iVN_0G00]--></g></svg>