<svg xmlns="http://www.w3.org/2000/svg" xmlns:xlink="http://www.w3.org/1999/xlink" contentStyleType="text/css" height="137px" preserveAspectRatio="none" style="width:1629px;height:137px;background:#FFFFFF;" version="1.1" viewBox="0 0 1629 137" width="1629px" zoomAndPan="magnify"><defs/><g><rect fill="#F1F1F1" height="101.4844" rx="5" ry="5" style="stroke:#F1F1F1;stroke-width:1.5;" width="393.5635" x="10" y="10"/><text fill="#000000" font-family="sans-serif" font-size="14" font-weight="bold" lengthAdjust="spacing" textLength="69.8701" x="15" y="24.9951">$schema</text><text fill="#000000" font-family="sans-serif" font-size="14" lengthAdjust="spacing" textLength="291.2793" x="107.2842" y="24.9951">http://json-schema.org/draft-07/schema#</text><line style="stroke:#000000;stroke-width:1.0;" x1="102.2842" x2="102.2842" y1="10" y2="30.2969"/><line style="stroke:#000000;stroke-width:1.0;" x1="10" x2="403.5635" y1="30.2969" y2="30.2969"/><text fill="#000000" font-family="sans-serif" font-size="14" font-weight="bold" lengthAdjust="spacing" textLength="35.335" x="15" y="45.292">type</text><text fill="#000000" font-family="sans-serif" font-size="14" lengthAdjust="spacing" textLength="43.1416" x="107.2842" y="45.292">object</text><line style="stroke:#000000;stroke-width:1.0;" x1="102.2842" x2="102.2842" y1="30.2969" y2="50.5938"/><line style="stroke:#000000;stroke-width:1.0;" x1="10" x2="403.5635" y1="50.5938" y2="50.5938"/><text fill="#000000" font-family="sans-serif" font-size="14" font-weight="bold" lengthAdjust="spacing" textLength="32.4775" x="15" y="65.5889">title</text><text fill="#000000" font-family="sans-serif" font-size="14" lengthAdjust="spacing" textLength="146.6855" x="107.2842" y="65.5889">ServiceConfiguration</text><line style="stroke:#000000;stroke-width:1.0;" x1="102.2842" x2="102.2842" y1="50.5938" y2="70.8906"/><line style="stroke:#000000;stroke-width:1.0;" x1="10" x2="403.5635" y1="70.8906" y2="70.8906"/><text fill="#000000" font-family="sans-serif" font-size="14" font-weight="bold" lengthAdjust="spacing" textLength="82.2842" x="15" y="85.8857">properties</text><text fill="#000000" font-family="sans-serif" font-size="14" lengthAdjust="spacing" textLength="13.3506" x="107.2842" y="85.8857">&#160;&#160;&#160;</text><line style="stroke:#000000;stroke-width:1.0;" x1="102.2842" x2="102.2842" y1="70.8906" y2="91.1875"/><line style="stroke:#000000;stroke-width:1.0;" x1="10" x2="403.5635" y1="91.1875" y2="91.1875"/><text fill="#000000" font-family="sans-serif" font-size="14" font-weight="bold" lengthAdjust="spacing" textLength="67.6074" x="15" y="106.1826">required</text><text fill="#000000" font-family="sans-serif" font-size="14" lengthAdjust="spacing" textLength="13.3506" x="107.2842" y="106.1826">&#160;&#160;&#160;</text><line style="stroke:#000000;stroke-width:1.0;" x1="102.2842" x2="102.2842" y1="91.1875" y2="111.4844"/><rect fill="none" height="101.4844" rx="5" ry="5" style="stroke:#000000;stroke-width:1.5;" width="393.5635" x="10" y="10"/><rect fill="#F1F1F1" height="40.5938" rx="5" ry="5" style="stroke:#F1F1F1;stroke-width:1.5;" width="178.7236" x="441" y="46.2422"/><text fill="#000000" font-family="sans-serif" font-size="14" font-weight="bold" lengthAdjust="spacing" textLength="108.0488" x="446" y="61.2373">HostingPolicy</text><text fill="#000000" font-family="sans-serif" font-size="14" lengthAdjust="spacing" textLength="13.3506" x="601.373" y="61.2373">&#160;&#160;&#160;</text><line style="stroke:#000000;stroke-width:1.0;" x1="596.373" x2="596.373" y1="46.2422" y2="66.5391"/><line style="stroke:#000000;stroke-width:1.0;" x1="441" x2="619.7236" y1="66.5391" y2="66.5391"/><text fill="#000000" font-family="sans-serif" font-size="14" font-weight="bold" lengthAdjust="spacing" textLength="145.373" x="446" y="81.5342">ConfigurationData</text><text fill="#000000" font-family="sans-serif" font-size="14" lengthAdjust="spacing" textLength="13.3506" x="601.373" y="81.5342">&#160;&#160;&#160;</text><line style="stroke:#000000;stroke-width:1.0;" x1="596.373" x2="596.373" y1="66.5391" y2="86.8359"/><rect fill="none" height="40.5938" rx="5" ry="5" style="stroke:#000000;stroke-width:1.5;" width="178.7236" x="441" y="46.2422"/><rect fill="#F1F1F1" height="40.5938" rx="5" ry="5" style="stroke:#F1F1F1;stroke-width:1.5;" width="960.3994" x="657" y="17.2422"/><text fill="#000000" font-family="sans-serif" font-size="14" font-weight="bold" lengthAdjust="spacing" textLength="35.335" x="662" y="32.2373">type</text><text fill="#000000" font-family="sans-serif" font-size="14" lengthAdjust="spacing" textLength="40.1885" x="760.9492" y="32.2373">string</text><line style="stroke:#000000;stroke-width:1.0;" x1="755.9492" x2="755.9492" y1="17.2422" y2="37.5391"/><line style="stroke:#000000;stroke-width:1.0;" x1="657" x2="1617.3994" y1="37.5391" y2="37.5391"/><text fill="#000000" font-family="sans-serif" font-size="14" font-weight="bold" lengthAdjust="spacing" textLength="88.9492" x="662" y="52.5342">description</text><text fill="#000000" font-family="sans-serif" font-size="14" lengthAdjust="spacing" textLength="851.4502" x="760.9492" y="52.5342">Hosting policy chosen for the service once deployed. It needs to be one of the hosting policies associated with the flavor.</text><line style="stroke:#000000;stroke-width:1.0;" x1="755.9492" x2="755.9492" y1="37.5391" y2="57.8359"/><rect fill="none" height="40.5938" rx="5" ry="5" style="stroke:#000000;stroke-width:1.5;" width="960.3994" x="657" y="17.2422"/><rect fill="#F1F1F1" height="40.5938" rx="5" ry="5" style="stroke:#F1F1F1;stroke-width:1.5;" width="929.9043" x="672" y="76.2422"/><text fill="#000000" font-family="sans-serif" font-size="14" font-weight="bold" lengthAdjust="spacing" textLength="35.335" x="677" y="91.2373">type</text><text fill="#000000" font-family="sans-serif" font-size="14" lengthAdjust="spacing" textLength="40.1885" x="775.9492" y="91.2373">string</text><line style="stroke:#000000;stroke-width:1.0;" x1="770.9492" x2="770.9492" y1="76.2422" y2="96.5391"/><line style="stroke:#000000;stroke-width:1.0;" x1="672" x2="1601.9043" y1="96.5391" y2="96.5391"/><text fill="#000000" font-family="sans-serif" font-size="14" font-weight="bold" lengthAdjust="spacing" textLength="88.9492" x="677" y="111.5342">description</text><text fill="#000000" font-family="sans-serif" font-size="14" lengthAdjust="spacing" textLength="820.9551" x="775.9492" y="111.5342">Configuration parameters for the service. It needs to match the JSON Schema Parameters associated with the flavor.</text><line style="stroke:#000000;stroke-width:1.0;" x1="770.9492" x2="770.9492" y1="96.5391" y2="116.8359"/><rect fill="none" height="40.5938" rx="5" ry="5" style="stroke:#000000;stroke-width:1.5;" width="929.9043" x="672" y="76.2422"/><rect fill="#F1F1F1" height="20.2969" rx="5" ry="5" style="stroke:#F1F1F1;stroke-width:1.5;" width="138.3721" x="461.5" y="105.5938"/><text fill="#000000" font-family="sans-serif" font-size="14" lengthAdjust="spacing" textLength="128.3721" x="466.5" y="120.5889">ConfigurationData</text><rect fill="none" height="20.2969" rx="5" ry="5" style="stroke:#000000;stroke-width:1.5;" width="138.3721" x="461.5" y="105.5938"/><path d="M608,56.7422 L621,56.7422 C630.4516,56.7422 640.0001,56.7099 649.6213,56.648 " fill="none" style="stroke:#000000;stroke-width:1.0;stroke-dasharray:3.0,3.0;"/><path d="M649.6436,59.7404 L651.9406,56.6312 L649.5989,53.5555 L657.3524,56.592 L649.6436,59.7404 " fill="#000000" style="stroke:#000000;stroke-width:1.0;"/><ellipse cx="608" cy="56.7422" fill="#000000" rx="3" ry="3" style="stroke:#000000;stroke-width:1.0;"/><path d="M608,76.7422 L621,76.7422 C635.3005,76.7422 649.8224,76.82 664.4826,76.9659 " fill="none" style="stroke:#000000;stroke-width:1.0;stroke-dasharray:3.0,3.0;"/><path d="M664.4496,80.0373 L666.7861,76.9906 L664.5156,73.8945 L672.1611,77.0483 L664.4496,80.0373 " fill="#000000" style="stroke:#000000;stroke-width:1.0;"/><ellipse cx="608" cy="76.7422" fill="#000000" rx="3" ry="3" style="stroke:#000000;stroke-width:1.0;"/><path d="M392,80.7422 L405,80.7422 C414.3046,80.7422 423.9748,80.3543 433.631,79.7078 " fill="none" style="stroke:#000000;stroke-width:1.0;stroke-dasharray:3.0,3.0;"/><path d="M433.8597,82.8013 L435.9512,79.5363 L433.4024,76.6142 L441.3649,79.1362 L433.8597,82.8013 " fill="#000000" style="stroke:#000000;stroke-width:1.0;"/><ellipse cx="392" cy="80.7422" fill="#000000" rx="3" ry="3" style="stroke:#000000;stroke-width:1.0;"/><path d="M392,101.7422 L405,101.7422 C421.6644,101.7422 439.5013,102.9862 456.3308,104.7327 " fill="none" style="stroke:#000000;stroke-width:1.0;stroke-dasharray:3.0,3.0;"/><path d="M455.9967,107.7942 L458.6269,104.9832 L456.6648,101.6712 L463.9845,105.5677 L455.9967,107.7942 " fill="#000000" style="stroke:#000000;stroke-width:1.0;"/><ellipse cx="392" cy="101.7422" fill="#000000" rx="3" ry="3" style="stroke:#000000;stroke-width:1.0;"/><!--SRC=[fL9DRvj04BtlhnYH7XAfnYQAweXJLBjVhjrO8Scbwc4D0sm4EzlTWSYgyj-xG6E77AfAHOB3UpFlOvShnzBoWoCjVWdmJ_36fINMCeWXA9bDF9rsx6H0GxB5DBCovybiFXsma-3jiCbxWzqQxHumvGEgkEhX16shKboGpbNHMCcAzFEGiMJGiaBd9uSWFVwP72jTRAbIwNv4ZHmTMp_rH-p0PkXIgqpl4n-qmFHYa9RaK4DE5hX4S4Cw8Eq_6PgAzfY5y8L18sOEc63NiVxD-uNofPmF3j8vIfLapE1HSTaFvPLioOR18TZJCMCmEecbPFcV1KTwOAILDJ9QzxhZk5KjEHt2hfBhRv3qTmhRu_Q_zH8lsWKMVpRAOkPJVVzRtvxx8Px45Ugi_md5jfAQxpPhQBrtroCApsVd5-7yD94C2HgOpI6AukWoZkPmTxk0ZZuJfv-sQt3KsExwL7TUkwRpEHChsKguQJIh6cEuDgXNow_F07pGhRAaQzGiLlURuy2xYybxrJbQdmJkDsA9kMmgzXifPVusOk_-SN8frb8NZIoyDcgn8AzhzvvBVWC0]--></g></svg>