<svg xmlns="http://www.w3.org/2000/svg" xmlns:xlink="http://www.w3.org/1999/xlink" contentStyleType="text/css" height="397px" preserveAspectRatio="none" style="width:1687px;height:397px;background:#FFFFFF;" version="1.1" viewBox="0 0 1687 397" width="1687px" zoomAndPan="magnify"><defs/><g><rect fill="#F1F1F1" height="101.4844" rx="5" ry="5" style="stroke:#F1F1F1;stroke-width:1.5;" width="400.2285" x="10" y="90.7578"/><text fill="#000000" font-family="sans-serif" font-size="14" font-weight="bold" lengthAdjust="spacing" textLength="69.8701" x="15" y="105.7529">$schema</text><text fill="#000000" font-family="sans-serif" font-size="14" lengthAdjust="spacing" textLength="291.2793" x="113.9492" y="105.7529">http://json-schema.org/draft-07/schema#</text><line style="stroke:#000000;stroke-width:1.0;" x1="108.9492" x2="108.9492" y1="90.7578" y2="111.0547"/><line style="stroke:#000000;stroke-width:1.0;" x1="10" x2="410.2285" y1="111.0547" y2="111.0547"/><text fill="#000000" font-family="sans-serif" font-size="14" font-weight="bold" lengthAdjust="spacing" textLength="35.335" x="15" y="126.0498">type</text><text fill="#000000" font-family="sans-serif" font-size="14" lengthAdjust="spacing" textLength="43.1416" x="113.9492" y="126.0498">object</text><line style="stroke:#000000;stroke-width:1.0;" x1="108.9492" x2="108.9492" y1="111.0547" y2="131.3516"/><line style="stroke:#000000;stroke-width:1.0;" x1="10" x2="410.2285" y1="131.3516" y2="131.3516"/><text fill="#000000" font-family="sans-serif" font-size="14" font-weight="bold" lengthAdjust="spacing" textLength="32.4775" x="15" y="146.3467">title</text><text fill="#000000" font-family="sans-serif" font-size="14" lengthAdjust="spacing" textLength="51.7412" x="113.9492" y="146.3467">Service</text><line style="stroke:#000000;stroke-width:1.0;" x1="108.9492" x2="108.9492" y1="131.3516" y2="151.6484"/><line style="stroke:#000000;stroke-width:1.0;" x1="10" x2="410.2285" y1="151.6484" y2="151.6484"/><text fill="#000000" font-family="sans-serif" font-size="14" font-weight="bold" lengthAdjust="spacing" textLength="88.9492" x="15" y="166.6436">description</text><text fill="#000000" font-family="sans-serif" font-size="14" lengthAdjust="spacing" textLength="131.9199" x="113.9492" y="166.6436">Service flavor type</text><line style="stroke:#000000;stroke-width:1.0;" x1="108.9492" x2="108.9492" y1="151.6484" y2="171.9453"/><line style="stroke:#000000;stroke-width:1.0;" x1="10" x2="410.2285" y1="171.9453" y2="171.9453"/><text fill="#000000" font-family="sans-serif" font-size="14" font-weight="bold" lengthAdjust="spacing" textLength="82.2842" x="15" y="186.9404">properties</text><text fill="#000000" font-family="sans-serif" font-size="14" lengthAdjust="spacing" textLength="13.3506" x="113.9492" y="186.9404">&#160;&#160;&#160;</text><line style="stroke:#000000;stroke-width:1.0;" x1="108.9492" x2="108.9492" y1="171.9453" y2="192.2422"/><rect fill="none" height="101.4844" rx="5" ry="5" style="stroke:#000000;stroke-width:1.5;" width="400.2285" x="10" y="90.7578"/><rect fill="#F1F1F1" height="20.2969" rx="5" ry="5" style="stroke:#F1F1F1;stroke-width:1.5;" width="152.0361" x="447" y="172.3516"/><text fill="#000000" font-family="sans-serif" font-size="14" font-weight="bold" lengthAdjust="spacing" textLength="118.6855" x="452" y="187.3467">Characteristics</text><text fill="#000000" font-family="sans-serif" font-size="14" lengthAdjust="spacing" textLength="13.3506" x="580.6855" y="187.3467">&#160;&#160;&#160;</text><line style="stroke:#000000;stroke-width:1.0;" x1="575.6855" x2="575.6855" y1="172.3516" y2="192.6484"/><rect fill="none" height="20.2969" rx="5" ry="5" style="stroke:#000000;stroke-width:1.5;" width="152.0361" x="447" y="172.3516"/><rect fill="#F1F1F1" height="40.5938" rx="5" ry="5" style="stroke:#F1F1F1;stroke-width:1.5;" width="145.4258" x="636" y="162"/><text fill="#000000" font-family="sans-serif" font-size="14" font-weight="bold" lengthAdjust="spacing" textLength="35.335" x="641" y="176.9951">type</text><text fill="#000000" font-family="sans-serif" font-size="14" lengthAdjust="spacing" textLength="43.1416" x="733.2842" y="176.9951">object</text><line style="stroke:#000000;stroke-width:1.0;" x1="728.2842" x2="728.2842" y1="162" y2="182.2969"/><line style="stroke:#000000;stroke-width:1.0;" x1="636" x2="781.4258" y1="182.2969" y2="182.2969"/><text fill="#000000" font-family="sans-serif" font-size="14" font-weight="bold" lengthAdjust="spacing" textLength="82.2842" x="641" y="197.292">properties</text><text fill="#000000" font-family="sans-serif" font-size="14" lengthAdjust="spacing" textLength="13.3506" x="733.2842" y="197.292">&#160;&#160;&#160;</text><line style="stroke:#000000;stroke-width:1.0;" x1="728.2842" x2="728.2842" y1="182.2969" y2="202.5938"/><rect fill="none" height="40.5938" rx="5" ry="5" style="stroke:#000000;stroke-width:1.5;" width="145.4258" x="636" y="162"/><rect fill="#F1F1F1" height="121.7813" rx="5" ry="5" style="stroke:#F1F1F1;stroke-width:1.5;" width="179.6328" x="818" y="131.5"/><text fill="#000000" font-family="sans-serif" font-size="14" font-weight="bold" lengthAdjust="spacing" textLength="45.2471" x="823" y="146.4951">Name</text><text fill="#000000" font-family="sans-serif" font-size="14" lengthAdjust="spacing" textLength="13.3506" x="979.2822" y="146.4951">&#160;&#160;&#160;</text><line style="stroke:#000000;stroke-width:1.0;" x1="974.2822" x2="974.2822" y1="131.5" y2="151.7969"/><line style="stroke:#000000;stroke-width:1.0;" x1="818" x2="997.6328" y1="151.7969" y2="151.7969"/><text fill="#000000" font-family="sans-serif" font-size="14" font-weight="bold" lengthAdjust="spacing" textLength="90.5488" x="823" y="166.792">Description</text><text fill="#000000" font-family="sans-serif" font-size="14" lengthAdjust="spacing" textLength="13.3506" x="979.2822" y="166.792">&#160;&#160;&#160;</text><line style="stroke:#000000;stroke-width:1.0;" x1="974.2822" x2="974.2822" y1="151.7969" y2="172.0938"/><line style="stroke:#000000;stroke-width:1.0;" x1="818" x2="997.6328" y1="172.0938" y2="172.0938"/><text fill="#000000" font-family="sans-serif" font-size="14" font-weight="bold" lengthAdjust="spacing" textLength="37.3516" x="823" y="187.0889">Tags</text><text fill="#000000" font-family="sans-serif" font-size="14" lengthAdjust="spacing" textLength="13.3506" x="979.2822" y="187.0889">&#160;&#160;&#160;</text><line style="stroke:#000000;stroke-width:1.0;" x1="974.2822" x2="974.2822" y1="172.0938" y2="192.3906"/><line style="stroke:#000000;stroke-width:1.0;" x1="818" x2="997.6328" y1="192.3906" y2="192.3906"/><text fill="#000000" font-family="sans-serif" font-size="14" font-weight="bold" lengthAdjust="spacing" textLength="34.4736" x="823" y="207.3857">Plan</text><text fill="#000000" font-family="sans-serif" font-size="14" lengthAdjust="spacing" textLength="13.3506" x="979.2822" y="207.3857">&#160;&#160;&#160;</text><line style="stroke:#000000;stroke-width:1.0;" x1="974.2822" x2="974.2822" y1="192.3906" y2="212.6875"/><line style="stroke:#000000;stroke-width:1.0;" x1="818" x2="997.6328" y1="212.6875" y2="212.6875"/><text fill="#000000" font-family="sans-serif" font-size="14" font-weight="bold" lengthAdjust="spacing" textLength="61.9473" x="823" y="227.6826">Latency</text><text fill="#000000" font-family="sans-serif" font-size="14" lengthAdjust="spacing" textLength="13.3506" x="979.2822" y="227.6826">&#160;&#160;&#160;</text><line style="stroke:#000000;stroke-width:1.0;" x1="974.2822" x2="974.2822" y1="212.6875" y2="232.9844"/><line style="stroke:#000000;stroke-width:1.0;" x1="818" x2="997.6328" y1="232.9844" y2="232.9844"/><text fill="#000000" font-family="sans-serif" font-size="14" font-weight="bold" lengthAdjust="spacing" textLength="146.2822" x="823" y="247.9795">SecurityStandards</text><text fill="#000000" font-family="sans-serif" font-size="14" lengthAdjust="spacing" textLength="13.3506" x="979.2822" y="247.9795">&#160;&#160;&#160;</text><line style="stroke:#000000;stroke-width:1.0;" x1="974.2822" x2="974.2822" y1="232.9844" y2="253.2813"/><rect fill="none" height="121.7813" rx="5" ry="5" style="stroke:#000000;stroke-width:1.5;" width="179.6328" x="818" y="131.5"/><rect fill="#F1F1F1" height="40.5938" rx="5" ry="5" style="stroke:#F1F1F1;stroke-width:1.5;" width="244.5264" x="1166.5" y="10"/><text fill="#000000" font-family="sans-serif" font-size="14" font-weight="bold" lengthAdjust="spacing" textLength="35.335" x="1171.5" y="24.9951">type</text><text fill="#000000" font-family="sans-serif" font-size="14" lengthAdjust="spacing" textLength="40.1885" x="1270.4492" y="24.9951">string</text><line style="stroke:#000000;stroke-width:1.0;" x1="1265.4492" x2="1265.4492" y1="10" y2="30.2969"/><line style="stroke:#000000;stroke-width:1.0;" x1="1166.5" x2="1411.0264" y1="30.2969" y2="30.2969"/><text fill="#000000" font-family="sans-serif" font-size="14" font-weight="bold" lengthAdjust="spacing" textLength="88.9492" x="1171.5" y="45.292">description</text><text fill="#000000" font-family="sans-serif" font-size="14" lengthAdjust="spacing" textLength="135.5771" x="1270.4492" y="45.292">Name of the flavor.</text><line style="stroke:#000000;stroke-width:1.0;" x1="1265.4492" x2="1265.4492" y1="30.2969" y2="50.5938"/><rect fill="none" height="40.5938" rx="5" ry="5" style="stroke:#000000;stroke-width:1.5;" width="244.5264" x="1166.5" y="10"/><rect fill="#F1F1F1" height="40.5938" rx="5" ry="5" style="stroke:#F1F1F1;stroke-width:1.5;" width="282.958" x="1147.5" y="69"/><text fill="#000000" font-family="sans-serif" font-size="14" font-weight="bold" lengthAdjust="spacing" textLength="35.335" x="1152.5" y="83.9951">type</text><text fill="#000000" font-family="sans-serif" font-size="14" lengthAdjust="spacing" textLength="40.1885" x="1251.4492" y="83.9951">string</text><line style="stroke:#000000;stroke-width:1.0;" x1="1246.4492" x2="1246.4492" y1="69" y2="89.2969"/><line style="stroke:#000000;stroke-width:1.0;" x1="1147.5" x2="1430.458" y1="89.2969" y2="89.2969"/><text fill="#000000" font-family="sans-serif" font-size="14" font-weight="bold" lengthAdjust="spacing" textLength="88.9492" x="1152.5" y="104.292">description</text><text fill="#000000" font-family="sans-serif" font-size="14" lengthAdjust="spacing" textLength="174.0088" x="1251.4492" y="104.292">Description of the flavor.</text><line style="stroke:#000000;stroke-width:1.0;" x1="1246.4492" x2="1246.4492" y1="89.2969" y2="109.5938"/><rect fill="none" height="40.5938" rx="5" ry="5" style="stroke:#000000;stroke-width:1.5;" width="282.958" x="1147.5" y="69"/><rect fill="#F1F1F1" height="60.8906" rx="5" ry="5" style="stroke:#F1F1F1;stroke-width:1.5;" width="332.0811" x="1123" y="128"/><text fill="#000000" font-family="sans-serif" font-size="14" font-weight="bold" lengthAdjust="spacing" textLength="35.335" x="1128" y="142.9951">type</text><text fill="#000000" font-family="sans-serif" font-size="14" lengthAdjust="spacing" textLength="36.9551" x="1226.9492" y="142.9951">array</text><line style="stroke:#000000;stroke-width:1.0;" x1="1221.9492" x2="1221.9492" y1="128" y2="148.2969"/><line style="stroke:#000000;stroke-width:1.0;" x1="1123" x2="1455.0811" y1="148.2969" y2="148.2969"/><text fill="#000000" font-family="sans-serif" font-size="14" font-weight="bold" lengthAdjust="spacing" textLength="88.9492" x="1128" y="163.292">description</text><text fill="#000000" font-family="sans-serif" font-size="14" lengthAdjust="spacing" textLength="223.1318" x="1226.9492" y="163.292">Tags associated with the flavor.</text><line style="stroke:#000000;stroke-width:1.0;" x1="1221.9492" x2="1221.9492" y1="148.2969" y2="168.5938"/><line style="stroke:#000000;stroke-width:1.0;" x1="1123" x2="1455.0811" y1="168.5938" y2="168.5938"/><text fill="#000000" font-family="sans-serif" font-size="14" font-weight="bold" lengthAdjust="spacing" textLength="43.9072" x="1128" y="183.5889">items</text><text fill="#000000" font-family="sans-serif" font-size="14" lengthAdjust="spacing" textLength="13.3506" x="1226.9492" y="183.5889">&#160;&#160;&#160;</text><line style="stroke:#000000;stroke-width:1.0;" x1="1221.9492" x2="1221.9492" y1="168.5938" y2="188.8906"/><rect fill="none" height="60.8906" rx="5" ry="5" style="stroke:#000000;stroke-width:1.5;" width="332.0811" x="1123" y="128"/><rect fill="#F1F1F1" height="20.2969" rx="5" ry="5" style="stroke:#F1F1F1;stroke-width:1.5;" width="95.5234" x="1580" y="168.3516"/><text fill="#000000" font-family="sans-serif" font-size="14" font-weight="bold" lengthAdjust="spacing" textLength="35.335" x="1585" y="183.3467">type</text><text fill="#000000" font-family="sans-serif" font-size="14" lengthAdjust="spacing" textLength="40.1885" x="1630.335" y="183.3467">string</text><line style="stroke:#000000;stroke-width:1.0;" x1="1625.335" x2="1625.335" y1="168.3516" y2="188.6484"/><rect fill="none" height="20.2969" rx="5" ry="5" style="stroke:#000000;stroke-width:1.5;" width="95.5234" x="1580" y="168.3516"/><rect fill="#F1F1F1" height="40.5938" rx="5" ry="5" style="stroke:#F1F1F1;stroke-width:1.5;" width="233.0078" x="1172.5" y="207"/><text fill="#000000" font-family="sans-serif" font-size="14" font-weight="bold" lengthAdjust="spacing" textLength="35.335" x="1177.5" y="221.9951">type</text><text fill="#000000" font-family="sans-serif" font-size="14" lengthAdjust="spacing" textLength="40.1885" x="1276.4492" y="221.9951">string</text><line style="stroke:#000000;stroke-width:1.0;" x1="1271.4492" x2="1271.4492" y1="207" y2="227.2969"/><line style="stroke:#000000;stroke-width:1.0;" x1="1172.5" x2="1405.5078" y1="227.2969" y2="227.2969"/><text fill="#000000" font-family="sans-serif" font-size="14" font-weight="bold" lengthAdjust="spacing" textLength="88.9492" x="1177.5" y="242.292">description</text><text fill="#000000" font-family="sans-serif" font-size="14" lengthAdjust="spacing" textLength="124.0586" x="1276.4492" y="242.292">Plan of the flavor.</text><line style="stroke:#000000;stroke-width:1.0;" x1="1271.4492" x2="1271.4492" y1="227.2969" y2="247.5938"/><rect fill="none" height="40.5938" rx="5" ry="5" style="stroke:#000000;stroke-width:1.5;" width="233.0078" x="1172.5" y="207"/><rect fill="#F1F1F1" height="40.5938" rx="5" ry="5" style="stroke:#F1F1F1;stroke-width:1.5;" width="288.2627" x="1145" y="266"/><text fill="#000000" font-family="sans-serif" font-size="14" font-weight="bold" lengthAdjust="spacing" textLength="35.335" x="1150" y="280.9951">type</text><text fill="#000000" font-family="sans-serif" font-size="14" lengthAdjust="spacing" textLength="50.1211" x="1248.9492" y="280.9951">integer</text><line style="stroke:#000000;stroke-width:1.0;" x1="1243.9492" x2="1243.9492" y1="266" y2="286.2969"/><line style="stroke:#000000;stroke-width:1.0;" x1="1145" x2="1433.2627" y1="286.2969" y2="286.2969"/><text fill="#000000" font-family="sans-serif" font-size="14" font-weight="bold" lengthAdjust="spacing" textLength="88.9492" x="1150" y="301.292">description</text><text fill="#000000" font-family="sans-serif" font-size="14" lengthAdjust="spacing" textLength="179.3135" x="1248.9492" y="301.292">The latency of the Flavor.</text><line style="stroke:#000000;stroke-width:1.0;" x1="1243.9492" x2="1243.9492" y1="286.2969" y2="306.5938"/><rect fill="none" height="40.5938" rx="5" ry="5" style="stroke:#000000;stroke-width:1.5;" width="288.2627" x="1145" y="266"/><rect fill="#F1F1F1" height="60.8906" rx="5" ry="5" style="stroke:#F1F1F1;stroke-width:1.5;" width="507.7783" x="1035" y="325"/><text fill="#000000" font-family="sans-serif" font-size="14" font-weight="bold" lengthAdjust="spacing" textLength="35.335" x="1040" y="339.9951">type</text><text fill="#000000" font-family="sans-serif" font-size="14" lengthAdjust="spacing" textLength="36.9551" x="1138.9492" y="339.9951">array</text><line style="stroke:#000000;stroke-width:1.0;" x1="1133.9492" x2="1133.9492" y1="325" y2="345.2969"/><line style="stroke:#000000;stroke-width:1.0;" x1="1035" x2="1542.7783" y1="345.2969" y2="345.2969"/><text fill="#000000" font-family="sans-serif" font-size="14" font-weight="bold" lengthAdjust="spacing" textLength="88.9492" x="1040" y="360.292">description</text><text fill="#000000" font-family="sans-serif" font-size="14" lengthAdjust="spacing" textLength="398.8291" x="1138.9492" y="360.292">Security standards supported by the Flavor (e.g., GDPR).</text><line style="stroke:#000000;stroke-width:1.0;" x1="1133.9492" x2="1133.9492" y1="345.2969" y2="365.5938"/><line style="stroke:#000000;stroke-width:1.0;" x1="1035" x2="1542.7783" y1="365.5938" y2="365.5938"/><text fill="#000000" font-family="sans-serif" font-size="14" font-weight="bold" lengthAdjust="spacing" textLength="43.9072" x="1040" y="380.5889">items</text><text fill="#000000" font-family="sans-serif" font-size="14" lengthAdjust="spacing" textLength="13.3506" x="1138.9492" y="380.5889">&#160;&#160;&#160;</text><line style="stroke:#000000;stroke-width:1.0;" x1="1133.9492" x2="1133.9492" y1="365.5938" y2="385.8906"/><rect fill="none" height="60.8906" rx="5" ry="5" style="stroke:#000000;stroke-width:1.5;" width="507.7783" x="1035" y="325"/><rect fill="#F1F1F1" height="20.2969" rx="5" ry="5" style="stroke:#F1F1F1;stroke-width:1.5;" width="95.5234" x="1580" y="365.3516"/><text fill="#000000" font-family="sans-serif" font-size="14" font-weight="bold" lengthAdjust="spacing" textLength="35.335" x="1585" y="380.3467">type</text><text fill="#000000" font-family="sans-serif" font-size="14" lengthAdjust="spacing" textLength="40.1885" x="1630.335" y="380.3467">string</text><line style="stroke:#000000;stroke-width:1.0;" x1="1625.335" x2="1625.335" y1="365.3516" y2="385.6484"/><rect fill="none" height="20.2969" rx="5" ry="5" style="stroke:#000000;stroke-width:1.5;" width="95.5234" x="1580" y="365.3516"/><path d="M986,141.5 L999,141.5 C1038.802,141.5 1002.9685,83.1258 1035,59.5 C1070.2276,33.5168 1116.0304,23.2719 1158.9954,20.4866 " fill="none" style="stroke:#000000;stroke-width:1.0;stroke-dasharray:3.0,3.0;"/><path d="M1159.1645,23.5688 L1161.3071,20.3597 L1158.8263,17.4044 L1166.7009,20.0638 L1159.1645,23.5688 " fill="#000000" style="stroke:#000000;stroke-width:1.0;"/><ellipse cx="986" cy="141.5" fill="#000000" rx="3" ry="3" style="stroke:#000000;stroke-width:1.0;"/><path d="M986,161.5 L999,161.5 C1023.9246,161.5 1013.0534,130.3145 1035,118.5 C1066.8628,101.3473 1104.2033,92.1885 1140.2812,87.6685 " fill="none" style="stroke:#000000;stroke-width:1.0;stroke-dasharray:3.0,3.0;"/><path d="M1140.6393,90.7394 L1142.5843,87.3999 L1139.9231,84.5977 L1147.9582,86.7732 L1140.6393,90.7394 " fill="#000000" style="stroke:#000000;stroke-width:1.0;"/><ellipse cx="986" cy="161.5" fill="#000000" rx="3" ry="3" style="stroke:#000000;stroke-width:1.0;"/><path d="M1442.5,178.5 L1455.5,178.5 C1494.6175,178.5 1538.7392,178.5 1572.5008,178.5 " fill="none" style="stroke:#000000;stroke-width:1.0;stroke-dasharray:3.0,3.0;"/><path d="M1572.5008,181.6649 L1574.8745,178.5 L1572.5008,175.3351 L1580.413,178.5 L1572.5008,181.6649 " fill="#000000" style="stroke:#000000;stroke-width:1.0;"/><ellipse cx="1442.5" cy="178.5" fill="#000000" rx="3" ry="3" style="stroke:#000000;stroke-width:1.0;"/><path d="M986,182.5 L999,182.5 C1036.8246,182.5 1077.3344,180.4401 1115.7094,177.5272 " fill="none" style="stroke:#000000;stroke-width:1.0;stroke-dasharray:3.0,3.0;"/><path d="M1115.9468,180.5852 L1118.0029,177.3491 L1115.472,174.4691 L1123.3545,176.9336 L1115.9468,180.5852 " fill="#000000" style="stroke:#000000;stroke-width:1.0;"/><ellipse cx="986" cy="182.5" fill="#000000" rx="3" ry="3" style="stroke:#000000;stroke-width:1.0;"/><path d="M986,202.5 L999,202.5 C1053.6941,202.5 1113.9858,206.984 1165.324,212.1539 " fill="none" style="stroke:#000000;stroke-width:1.0;stroke-dasharray:3.0,3.0;"/><path d="M1165.0171,215.157 L1167.5764,212.3841 L1165.631,209.1508 L1172.8318,212.9212 L1165.0171,215.157 " fill="#000000" style="stroke:#000000;stroke-width:1.0;"/><ellipse cx="986" cy="202.5" fill="#000000" rx="3" ry="3" style="stroke:#000000;stroke-width:1.0;"/><path d="M986,222.5 L999,222.5 C1021.3154,222.5 1014.835,247.9424 1035,257.5 C1066.6716,272.5115 1102.9812,281.0139 1138.0364,285.5969 " fill="none" style="stroke:#000000;stroke-width:1.0;stroke-dasharray:3.0,3.0;"/><path d="M1137.6687,288.5806 L1140.2742,285.8728 L1138.4042,282.6132 L1145.4957,286.5163 L1137.6687,288.5806 " fill="#000000" style="stroke:#000000;stroke-width:1.0;"/><ellipse cx="986" cy="222.5" fill="#000000" rx="3" ry="3" style="stroke:#000000;stroke-width:1.0;"/><path d="M1531,375.5 L1544,375.5 C1553.2653,375.5 1563.1089,375.5 1572.6646,375.5 " fill="none" style="stroke:#000000;stroke-width:1.0;stroke-dasharray:3.0,3.0;"/><path d="M1572.6646,378.5341 L1574.9401,375.5 L1572.6646,372.4659 L1580.2497,375.5 L1572.6646,378.5341 " fill="#000000" style="stroke:#000000;stroke-width:1.0;"/><ellipse cx="1531" cy="375.5" fill="#000000" rx="3" ry="3" style="stroke:#000000;stroke-width:1.0;"/><path d="M986,243.5 L999,243.5 C1035.1752,243.5 1005.826,295.1103 1035,316.5 C1037.02,317.981 1039.0735,319.4157 1041.1583,320.8055 " fill="none" style="stroke:#000000;stroke-width:1.0;stroke-dasharray:3.0,3.0;"/><path d="M1039.5439,323.3436 L1043.0619,322.0163 L1042.7727,318.2674 L1047.5036,324.8414 L1039.5439,323.3436 " fill="#000000" style="stroke:#000000;stroke-width:1.0;"/><ellipse cx="986" cy="243.5" fill="#000000" rx="3" ry="3" style="stroke:#000000;stroke-width:1.0;"/><path d="M769,192.5 L782,192.5 C791.2838,192.5 800.9539,192.5 810.6246,192.5 " fill="none" style="stroke:#000000;stroke-width:1.0;stroke-dasharray:3.0,3.0;"/><path d="M810.6246,195.5994 L812.9491,192.5 L810.6246,189.4006 L818.373,192.5 L810.6246,195.5994 " fill="#000000" style="stroke:#000000;stroke-width:1.0;"/><ellipse cx="769" cy="192.5" fill="#000000" rx="3" ry="3" style="stroke:#000000;stroke-width:1.0;"/><path d="M586.5,182.5 L599.5,182.5 C608.864,182.5 618.6825,182.5 628.426,182.5 " fill="none" style="stroke:#000000;stroke-width:1.0;stroke-dasharray:3.0,3.0;"/><path d="M628.426,185.6151 L630.7623,182.5 L628.426,179.3849 L636.2138,182.5 L628.426,185.6151 " fill="#000000" style="stroke:#000000;stroke-width:1.0;"/><ellipse cx="586.5" cy="182.5" fill="#000000" rx="3" ry="3" style="stroke:#000000;stroke-width:1.0;"/><path d="M397.5,182.5 L410.5,182.5 C420.0293,182.5 430.0147,182.5 439.9322,182.5 " fill="none" style="stroke:#000000;stroke-width:1.0;stroke-dasharray:3.0,3.0;"/><path d="M439.9322,185.5249 L442.2009,182.5 L439.9322,179.4751 L447.4944,182.5 L439.9322,185.5249 " fill="#000000" style="stroke:#000000;stroke-width:1.0;"/><ellipse cx="397.5" cy="182.5" fill="#000000" rx="3" ry="3" style="stroke:#000000;stroke-width:1.0;"/><!--SRC=[nPHHRzem4CVV_IbEsHweL0Bj4EloL0tMIWmsLDg-c-G8he8TdIzCqSHthqqM1Yseh49QdfBxt_tyF_lYQykI-CaQBNuBS4_mqSPpNCWWWc3Ed4UjbbURLJGqbBOIaZDkjZ-tgjY7uBogv397NsQcJnZp9geuMuSdI4iLOnrFqCQaSbP6Rwamo-JI4AnPVp9pCZaIAxGkiNAvZlVcacJCICgoYdV5muOswW7iHlyX5xXNsM5R9gNJ5-nDreicFHBC37XUDne6hmfNhrb1VuTpIajRv7SvkvUfVTkI99BbaOuy4QIr9bQICO5VYkSxlWvW5EFYi9LzExGtSNLKs-DCdleaFF9THp1qswJZycqxIZEcICUUW_EHLUZQris_s9fWN93YSi9I9vAI4uz9ZGTRyy4MUMx8pyoqtF8B3GpJy1nk- -Exi_ymFcB_L_Ms4YjnZJfPNy72pm0_Z8QmHBB-bxm8BzkNdR3Rc4Y6GP51kmljBz559_fq1G_tFV3ocMZSZeTWJK7k1asKzpSj_4QTYO5SIhWhDAi5Hl0pHpteVwy3y4ql5HczGCrYy3Zwcz3jDByg1dyh8y7ZIFHn9ekCNKLi4jTzv5Q_QLw9eTHf8LF7HYrwnd6fTDha6G00]--></g></svg>