<svg xmlns="http://www.w3.org/2000/svg" xmlns:xlink="http://www.w3.org/1999/xlink" contentStyleType="text/css" height="409px" preserveAspectRatio="none" style="width:1972px;height:409px;background:#FFFFFF;" version="1.1" viewBox="0 0 1972 409" width="1972px" zoomAndPan="magnify"><defs/><g><rect fill="#F1F1F1" height="121.7813" rx="5" ry="5" style="stroke:#F1F1F1;stroke-width:1.5;" width="400.2285" x="10" y="162.2581"/><text fill="#000000" font-family="sans-serif" font-size="14" font-weight="bold" lengthAdjust="spacing" textLength="69.8701" x="15" y="177.2533">$schema</text><text fill="#000000" font-family="sans-serif" font-size="14" lengthAdjust="spacing" textLength="291.2793" x="113.9492" y="177.2533">http://json-schema.org/draft-07/schema#</text><line style="stroke:#000000;stroke-width:1.0;" x1="108.9492" x2="108.9492" y1="162.2581" y2="182.555"/><line style="stroke:#000000;stroke-width:1.0;" x1="10" x2="410.2285" y1="182.555" y2="182.555"/><text fill="#000000" font-family="sans-serif" font-size="14" font-weight="bold" lengthAdjust="spacing" textLength="35.335" x="15" y="197.5501">type</text><text fill="#000000" font-family="sans-serif" font-size="14" lengthAdjust="spacing" textLength="43.1416" x="113.9492" y="197.5501">object</text><line style="stroke:#000000;stroke-width:1.0;" x1="108.9492" x2="108.9492" y1="182.555" y2="202.8519"/><line style="stroke:#000000;stroke-width:1.0;" x1="10" x2="410.2285" y1="202.8519" y2="202.8519"/><text fill="#000000" font-family="sans-serif" font-size="14" font-weight="bold" lengthAdjust="spacing" textLength="32.4775" x="15" y="217.847">title</text><text fill="#000000" font-family="sans-serif" font-size="14" lengthAdjust="spacing" textLength="51.7412" x="113.9492" y="217.847">Service</text><line style="stroke:#000000;stroke-width:1.0;" x1="108.9492" x2="108.9492" y1="202.8519" y2="223.1488"/><line style="stroke:#000000;stroke-width:1.0;" x1="10" x2="410.2285" y1="223.1488" y2="223.1488"/><text fill="#000000" font-family="sans-serif" font-size="14" font-weight="bold" lengthAdjust="spacing" textLength="88.9492" x="15" y="238.1439">description</text><text fill="#000000" font-family="sans-serif" font-size="14" lengthAdjust="spacing" textLength="131.9199" x="113.9492" y="238.1439">Service flavor type</text><line style="stroke:#000000;stroke-width:1.0;" x1="108.9492" x2="108.9492" y1="223.1488" y2="243.4456"/><line style="stroke:#000000;stroke-width:1.0;" x1="10" x2="410.2285" y1="243.4456" y2="243.4456"/><text fill="#000000" font-family="sans-serif" font-size="14" font-weight="bold" lengthAdjust="spacing" textLength="82.2842" x="15" y="258.4408">properties</text><text fill="#000000" font-family="sans-serif" font-size="14" lengthAdjust="spacing" textLength="13.3506" x="113.9492" y="258.4408">&#160;&#160;&#160;</text><line style="stroke:#000000;stroke-width:1.0;" x1="108.9492" x2="108.9492" y1="243.4456" y2="263.7425"/><line style="stroke:#000000;stroke-width:1.0;" x1="10" x2="410.2285" y1="263.7425" y2="263.7425"/><text fill="#000000" font-family="sans-serif" font-size="14" font-weight="bold" lengthAdjust="spacing" textLength="67.6074" x="15" y="278.7376">required</text><text fill="#000000" font-family="sans-serif" font-size="14" lengthAdjust="spacing" textLength="13.3506" x="113.9492" y="278.7376">&#160;&#160;&#160;</text><line style="stroke:#000000;stroke-width:1.0;" x1="108.9492" x2="108.9492" y1="263.7425" y2="284.0394"/><rect fill="none" height="121.7813" rx="5" ry="5" style="stroke:#000000;stroke-width:1.5;" width="400.2285" x="10" y="162.2581"/><rect fill="#F1F1F1" height="20.2969" rx="5" ry="5" style="stroke:#F1F1F1;stroke-width:1.5;" width="152.0361" x="447" y="234.1097"/><text fill="#000000" font-family="sans-serif" font-size="14" font-weight="bold" lengthAdjust="spacing" textLength="118.6855" x="452" y="249.1048">Characteristics</text><text fill="#000000" font-family="sans-serif" font-size="14" lengthAdjust="spacing" textLength="13.3506" x="580.6855" y="249.1048">&#160;&#160;&#160;</text><line style="stroke:#000000;stroke-width:1.0;" x1="575.6855" x2="575.6855" y1="234.1097" y2="254.4066"/><rect fill="none" height="20.2969" rx="5" ry="5" style="stroke:#000000;stroke-width:1.5;" width="152.0361" x="447" y="234.1097"/><rect fill="#F1F1F1" height="60.8906" rx="5" ry="5" style="stroke:#F1F1F1;stroke-width:1.5;" width="145.4258" x="636" y="213.7581"/><text fill="#000000" font-family="sans-serif" font-size="14" font-weight="bold" lengthAdjust="spacing" textLength="35.335" x="641" y="228.7533">type</text><text fill="#000000" font-family="sans-serif" font-size="14" lengthAdjust="spacing" textLength="43.1416" x="733.2842" y="228.7533">object</text><line style="stroke:#000000;stroke-width:1.0;" x1="728.2842" x2="728.2842" y1="213.7581" y2="234.055"/><line style="stroke:#000000;stroke-width:1.0;" x1="636" x2="781.4258" y1="234.055" y2="234.055"/><text fill="#000000" font-family="sans-serif" font-size="14" font-weight="bold" lengthAdjust="spacing" textLength="82.2842" x="641" y="249.0501">properties</text><text fill="#000000" font-family="sans-serif" font-size="14" lengthAdjust="spacing" textLength="13.3506" x="733.2842" y="249.0501">&#160;&#160;&#160;</text><line style="stroke:#000000;stroke-width:1.0;" x1="728.2842" x2="728.2842" y1="234.055" y2="254.3519"/><line style="stroke:#000000;stroke-width:1.0;" x1="636" x2="781.4258" y1="254.3519" y2="254.3519"/><text fill="#000000" font-family="sans-serif" font-size="14" font-weight="bold" lengthAdjust="spacing" textLength="67.6074" x="641" y="269.347">required</text><text fill="#000000" font-family="sans-serif" font-size="14" lengthAdjust="spacing" textLength="13.3506" x="733.2842" y="269.347">&#160;&#160;&#160;</text><line style="stroke:#000000;stroke-width:1.0;" x1="728.2842" x2="728.2842" y1="254.3519" y2="274.6488"/><rect fill="none" height="60.8906" rx="5" ry="5" style="stroke:#000000;stroke-width:1.5;" width="145.4258" x="636" y="213.7581"/><rect fill="#F1F1F1" height="121.7813" rx="5" ry="5" style="stroke:#F1F1F1;stroke-width:1.5;" width="215.6035" x="818" y="123.2581"/><text fill="#000000" font-family="sans-serif" font-size="14" font-weight="bold" lengthAdjust="spacing" textLength="45.2471" x="823" y="138.2533">Name</text><text fill="#000000" font-family="sans-serif" font-size="14" lengthAdjust="spacing" textLength="13.3506" x="1015.2529" y="138.2533">&#160;&#160;&#160;</text><line style="stroke:#000000;stroke-width:1.0;" x1="1010.2529" x2="1010.2529" y1="123.2581" y2="143.555"/><line style="stroke:#000000;stroke-width:1.0;" x1="818" x2="1033.6035" y1="143.555" y2="143.555"/><text fill="#000000" font-family="sans-serif" font-size="14" font-weight="bold" lengthAdjust="spacing" textLength="90.5488" x="823" y="158.5501">Description</text><text fill="#000000" font-family="sans-serif" font-size="14" lengthAdjust="spacing" textLength="13.3506" x="1015.2529" y="158.5501">&#160;&#160;&#160;</text><line style="stroke:#000000;stroke-width:1.0;" x1="1010.2529" x2="1010.2529" y1="143.555" y2="163.8519"/><line style="stroke:#000000;stroke-width:1.0;" x1="818" x2="1033.6035" y1="163.8519" y2="163.8519"/><text fill="#000000" font-family="sans-serif" font-size="14" font-weight="bold" lengthAdjust="spacing" textLength="71.5791" x="823" y="178.847">Category</text><text fill="#000000" font-family="sans-serif" font-size="14" lengthAdjust="spacing" textLength="13.3506" x="1015.2529" y="178.847">&#160;&#160;&#160;</text><line style="stroke:#000000;stroke-width:1.0;" x1="1010.2529" x2="1010.2529" y1="163.8519" y2="184.1488"/><line style="stroke:#000000;stroke-width:1.0;" x1="818" x2="1033.6035" y1="184.1488" y2="184.1488"/><text fill="#000000" font-family="sans-serif" font-size="14" font-weight="bold" lengthAdjust="spacing" textLength="37.3516" x="823" y="199.1439">Tags</text><text fill="#000000" font-family="sans-serif" font-size="14" lengthAdjust="spacing" textLength="13.3506" x="1015.2529" y="199.1439">&#160;&#160;&#160;</text><line style="stroke:#000000;stroke-width:1.0;" x1="1010.2529" x2="1010.2529" y1="184.1488" y2="204.4456"/><line style="stroke:#000000;stroke-width:1.0;" x1="818" x2="1033.6035" y1="204.4456" y2="204.4456"/><text fill="#000000" font-family="sans-serif" font-size="14" font-weight="bold" lengthAdjust="spacing" textLength="121.5498" x="823" y="219.4408">HostingPolicies</text><text fill="#000000" font-family="sans-serif" font-size="14" lengthAdjust="spacing" textLength="13.3506" x="1015.2529" y="219.4408">&#160;&#160;&#160;</text><line style="stroke:#000000;stroke-width:1.0;" x1="1010.2529" x2="1010.2529" y1="204.4456" y2="224.7425"/><line style="stroke:#000000;stroke-width:1.0;" x1="818" x2="1033.6035" y1="224.7425" y2="224.7425"/><text fill="#000000" font-family="sans-serif" font-size="14" font-weight="bold" lengthAdjust="spacing" textLength="182.2529" x="823" y="239.7376">ConfigurationTemplate</text><text fill="#000000" font-family="sans-serif" font-size="14" lengthAdjust="spacing" textLength="13.3506" x="1015.2529" y="239.7376">&#160;&#160;&#160;</text><line style="stroke:#000000;stroke-width:1.0;" x1="1010.2529" x2="1010.2529" y1="224.7425" y2="245.0394"/><rect fill="none" height="121.7813" rx="5" ry="5" style="stroke:#000000;stroke-width:1.5;" width="215.6035" x="818" y="123.2581"/><rect fill="#F1F1F1" height="40.5938" rx="5" ry="5" style="stroke:#F1F1F1;stroke-width:1.5;" width="244.5264" x="1327" y="11.7581"/><text fill="#000000" font-family="sans-serif" font-size="14" font-weight="bold" lengthAdjust="spacing" textLength="35.335" x="1332" y="26.7533">type</text><text fill="#000000" font-family="sans-serif" font-size="14" lengthAdjust="spacing" textLength="40.1885" x="1430.9492" y="26.7533">string</text><line style="stroke:#000000;stroke-width:1.0;" x1="1425.9492" x2="1425.9492" y1="11.7581" y2="32.055"/><line style="stroke:#000000;stroke-width:1.0;" x1="1327" x2="1571.5264" y1="32.055" y2="32.055"/><text fill="#000000" font-family="sans-serif" font-size="14" font-weight="bold" lengthAdjust="spacing" textLength="88.9492" x="1332" y="47.0501">description</text><text fill="#000000" font-family="sans-serif" font-size="14" lengthAdjust="spacing" textLength="135.5771" x="1430.9492" y="47.0501">Name of the flavor.</text><line style="stroke:#000000;stroke-width:1.0;" x1="1425.9492" x2="1425.9492" y1="32.055" y2="52.3519"/><rect fill="none" height="40.5938" rx="5" ry="5" style="stroke:#000000;stroke-width:1.5;" width="244.5264" x="1327" y="11.7581"/><rect fill="#F1F1F1" height="40.5938" rx="5" ry="5" style="stroke:#F1F1F1;stroke-width:1.5;" width="282.958" x="1308" y="70.7581"/><text fill="#000000" font-family="sans-serif" font-size="14" font-weight="bold" lengthAdjust="spacing" textLength="35.335" x="1313" y="85.7533">type</text><text fill="#000000" font-family="sans-serif" font-size="14" lengthAdjust="spacing" textLength="40.1885" x="1411.9492" y="85.7533">string</text><line style="stroke:#000000;stroke-width:1.0;" x1="1406.9492" x2="1406.9492" y1="70.7581" y2="91.055"/><line style="stroke:#000000;stroke-width:1.0;" x1="1308" x2="1590.958" y1="91.055" y2="91.055"/><text fill="#000000" font-family="sans-serif" font-size="14" font-weight="bold" lengthAdjust="spacing" textLength="88.9492" x="1313" y="106.0501">description</text><text fill="#000000" font-family="sans-serif" font-size="14" lengthAdjust="spacing" textLength="174.0088" x="1411.9492" y="106.0501">Description of the flavor.</text><line style="stroke:#000000;stroke-width:1.0;" x1="1406.9492" x2="1406.9492" y1="91.055" y2="111.3519"/><rect fill="none" height="40.5938" rx="5" ry="5" style="stroke:#000000;stroke-width:1.5;" width="282.958" x="1308" y="70.7581"/><rect fill="#F1F1F1" height="40.5938" rx="5" ry="5" style="stroke:#F1F1F1;stroke-width:1.5;" width="267.1738" x="1316" y="129.7581"/><text fill="#000000" font-family="sans-serif" font-size="14" font-weight="bold" lengthAdjust="spacing" textLength="35.335" x="1321" y="144.7533">type</text><text fill="#000000" font-family="sans-serif" font-size="14" lengthAdjust="spacing" textLength="40.1885" x="1419.9492" y="144.7533">string</text><line style="stroke:#000000;stroke-width:1.0;" x1="1414.9492" x2="1414.9492" y1="129.7581" y2="150.055"/><line style="stroke:#000000;stroke-width:1.0;" x1="1316" x2="1583.1738" y1="150.055" y2="150.055"/><text fill="#000000" font-family="sans-serif" font-size="14" font-weight="bold" lengthAdjust="spacing" textLength="88.9492" x="1321" y="165.0501">description</text><text fill="#000000" font-family="sans-serif" font-size="14" lengthAdjust="spacing" textLength="158.2246" x="1419.9492" y="165.0501">Category of the flavor.</text><line style="stroke:#000000;stroke-width:1.0;" x1="1414.9492" x2="1414.9492" y1="150.055" y2="170.3519"/><rect fill="none" height="40.5938" rx="5" ry="5" style="stroke:#000000;stroke-width:1.5;" width="267.1738" x="1316" y="129.7581"/><rect fill="#F1F1F1" height="60.8906" rx="5" ry="5" style="stroke:#F1F1F1;stroke-width:1.5;" width="332.0811" x="1283.5" y="188.7581"/><text fill="#000000" font-family="sans-serif" font-size="14" font-weight="bold" lengthAdjust="spacing" textLength="35.335" x="1288.5" y="203.7533">type</text><text fill="#000000" font-family="sans-serif" font-size="14" lengthAdjust="spacing" textLength="36.9551" x="1387.4492" y="203.7533">array</text><line style="stroke:#000000;stroke-width:1.0;" x1="1382.4492" x2="1382.4492" y1="188.7581" y2="209.055"/><line style="stroke:#000000;stroke-width:1.0;" x1="1283.5" x2="1615.5811" y1="209.055" y2="209.055"/><text fill="#000000" font-family="sans-serif" font-size="14" font-weight="bold" lengthAdjust="spacing" textLength="88.9492" x="1288.5" y="224.0501">description</text><text fill="#000000" font-family="sans-serif" font-size="14" lengthAdjust="spacing" textLength="223.1318" x="1387.4492" y="224.0501">Tags associated with the flavor.</text><line style="stroke:#000000;stroke-width:1.0;" x1="1382.4492" x2="1382.4492" y1="209.055" y2="229.3519"/><line style="stroke:#000000;stroke-width:1.0;" x1="1283.5" x2="1615.5811" y1="229.3519" y2="229.3519"/><text fill="#000000" font-family="sans-serif" font-size="14" font-weight="bold" lengthAdjust="spacing" textLength="43.9072" x="1288.5" y="244.347">items</text><text fill="#000000" font-family="sans-serif" font-size="14" lengthAdjust="spacing" textLength="13.3506" x="1387.4492" y="244.347">&#160;&#160;&#160;</text><line style="stroke:#000000;stroke-width:1.0;" x1="1382.4492" x2="1382.4492" y1="229.3519" y2="249.6488"/><rect fill="none" height="60.8906" rx="5" ry="5" style="stroke:#000000;stroke-width:1.5;" width="332.0811" x="1283.5" y="188.7581"/><rect fill="#F1F1F1" height="20.2969" rx="5" ry="5" style="stroke:#F1F1F1;stroke-width:1.5;" width="95.5234" x="1865" y="229.1097"/><text fill="#000000" font-family="sans-serif" font-size="14" font-weight="bold" lengthAdjust="spacing" textLength="35.335" x="1870" y="244.1048">type</text><text fill="#000000" font-family="sans-serif" font-size="14" lengthAdjust="spacing" textLength="40.1885" x="1915.335" y="244.1048">string</text><line style="stroke:#000000;stroke-width:1.0;" x1="1910.335" x2="1910.335" y1="229.1097" y2="249.4066"/><rect fill="none" height="20.2969" rx="5" ry="5" style="stroke:#000000;stroke-width:1.5;" width="95.5234" x="1865" y="229.1097"/><rect fill="#F1F1F1" height="60.8906" rx="5" ry="5" style="stroke:#F1F1F1;stroke-width:1.5;" width="757.0918" x="1071" y="267.7581"/><text fill="#000000" font-family="sans-serif" font-size="14" font-weight="bold" lengthAdjust="spacing" textLength="35.335" x="1076" y="282.7533">type</text><text fill="#000000" font-family="sans-serif" font-size="14" lengthAdjust="spacing" textLength="36.9551" x="1174.9492" y="282.7533">array</text><line style="stroke:#000000;stroke-width:1.0;" x1="1169.9492" x2="1169.9492" y1="267.7581" y2="288.055"/><line style="stroke:#000000;stroke-width:1.0;" x1="1071" x2="1828.0918" y1="288.055" y2="288.055"/><text fill="#000000" font-family="sans-serif" font-size="14" font-weight="bold" lengthAdjust="spacing" textLength="88.9492" x="1076" y="303.0501">description</text><text fill="#000000" font-family="sans-serif" font-size="14" lengthAdjust="spacing" textLength="648.1426" x="1174.9492" y="303.0501">Hosting policies associated with the flavor. Where the service can be hosted once deployed.</text><line style="stroke:#000000;stroke-width:1.0;" x1="1169.9492" x2="1169.9492" y1="288.055" y2="308.3519"/><line style="stroke:#000000;stroke-width:1.0;" x1="1071" x2="1828.0918" y1="308.3519" y2="308.3519"/><text fill="#000000" font-family="sans-serif" font-size="14" font-weight="bold" lengthAdjust="spacing" textLength="43.9072" x="1076" y="323.347">items</text><text fill="#000000" font-family="sans-serif" font-size="14" lengthAdjust="spacing" textLength="13.3506" x="1174.9492" y="323.347">&#160;&#160;&#160;</text><line style="stroke:#000000;stroke-width:1.0;" x1="1169.9492" x2="1169.9492" y1="308.3519" y2="328.6488"/><rect fill="none" height="60.8906" rx="5" ry="5" style="stroke:#000000;stroke-width:1.5;" width="757.0918" x="1071" y="267.7581"/><rect fill="#F1F1F1" height="20.2969" rx="5" ry="5" style="stroke:#F1F1F1;stroke-width:1.5;" width="95.5234" x="1865" y="308.1097"/><text fill="#000000" font-family="sans-serif" font-size="14" font-weight="bold" lengthAdjust="spacing" textLength="35.335" x="1870" y="323.1048">type</text><text fill="#000000" font-family="sans-serif" font-size="14" lengthAdjust="spacing" textLength="40.1885" x="1915.335" y="323.1048">string</text><line style="stroke:#000000;stroke-width:1.0;" x1="1910.335" x2="1910.335" y1="308.1097" y2="328.4066"/><rect fill="none" height="20.2969" rx="5" ry="5" style="stroke:#000000;stroke-width:1.5;" width="95.5234" x="1865" y="308.1097"/><rect fill="#F1F1F1" height="40.5938" rx="5" ry="5" style="stroke:#F1F1F1;stroke-width:1.5;" width="289.4043" x="1305" y="346.7581"/><text fill="#000000" font-family="sans-serif" font-size="14" font-weight="bold" lengthAdjust="spacing" textLength="35.335" x="1310" y="361.7533">type</text><text fill="#000000" font-family="sans-serif" font-size="14" lengthAdjust="spacing" textLength="40.1885" x="1408.9492" y="361.7533">string</text><line style="stroke:#000000;stroke-width:1.0;" x1="1403.9492" x2="1403.9492" y1="346.7581" y2="367.055"/><line style="stroke:#000000;stroke-width:1.0;" x1="1305" x2="1594.4043" y1="367.055" y2="367.055"/><text fill="#000000" font-family="sans-serif" font-size="14" font-weight="bold" lengthAdjust="spacing" textLength="88.9492" x="1310" y="382.0501">description</text><text fill="#000000" font-family="sans-serif" font-size="14" lengthAdjust="spacing" textLength="180.4551" x="1408.9492" y="382.0501">JSON Schema Parameters</text><line style="stroke:#000000;stroke-width:1.0;" x1="1403.9492" x2="1403.9492" y1="367.055" y2="387.3519"/><rect fill="none" height="40.5938" rx="5" ry="5" style="stroke:#000000;stroke-width:1.5;" width="289.4043" x="1305" y="346.7581"/><rect fill="#F1F1F1" height="121.7813" rx="5" ry="5" style="stroke:#F1F1F1;stroke-width:1.5;" width="171.2051" x="840.5" y="263.2581"/><text fill="#000000" font-family="sans-serif" font-size="14" lengthAdjust="spacing" textLength="41.3027" x="845.5" y="278.2533">Name</text><line style="stroke:#000000;stroke-width:1.0;" x1="840.5" x2="1011.7051" y1="283.555" y2="283.555"/><text fill="#000000" font-family="sans-serif" font-size="14" lengthAdjust="spacing" textLength="79.7344" x="845.5" y="298.5501">Description</text><line style="stroke:#000000;stroke-width:1.0;" x1="840.5" x2="1011.7051" y1="303.8519" y2="303.8519"/><text fill="#000000" font-family="sans-serif" font-size="14" lengthAdjust="spacing" textLength="63.9502" x="845.5" y="318.847">Category</text><line style="stroke:#000000;stroke-width:1.0;" x1="840.5" x2="1011.7051" y1="324.1488" y2="324.1488"/><text fill="#000000" font-family="sans-serif" font-size="14" lengthAdjust="spacing" textLength="33.3115" x="845.5" y="339.1439">Tags</text><line style="stroke:#000000;stroke-width:1.0;" x1="840.5" x2="1011.7051" y1="344.4456" y2="344.4456"/><text fill="#000000" font-family="sans-serif" font-size="14" lengthAdjust="spacing" textLength="105.8066" x="845.5" y="359.4408">HostingPolicies</text><line style="stroke:#000000;stroke-width:1.0;" x1="840.5" x2="1011.7051" y1="364.7425" y2="364.7425"/><text fill="#000000" font-family="sans-serif" font-size="14" lengthAdjust="spacing" textLength="161.2051" x="845.5" y="379.7376">ConfigurationTemplate</text><rect fill="none" height="121.7813" rx="5" ry="5" style="stroke:#000000;stroke-width:1.5;" width="171.2051" x="840.5" y="263.2581"/><rect fill="#F1F1F1" height="20.2969" rx="5" ry="5" style="stroke:#F1F1F1;stroke-width:1.5;" width="114.6719" x="465.5" y="272.1097"/><text fill="#000000" font-family="sans-serif" font-size="14" lengthAdjust="spacing" textLength="104.6719" x="470.5" y="287.1048">Characteristics</text><rect fill="none" height="20.2969" rx="5" ry="5" style="stroke:#000000;stroke-width:1.5;" width="114.6719" x="465.5" y="272.1097"/><path d="M1022,133.2581 L1035,133.2581 C1070.7771,133.2581 1041.3084,81.2184 1071,61.2581 C1143.0975,12.7905 1241.3355,6.5928 1319.592,11.9614 " fill="none" style="stroke:#000000;stroke-width:1.0;stroke-dasharray:3.0,3.0;"/><path d="M1319.3701,14.9651 L1321.8447,12.1278 L1319.8138,8.9577 L1327.1012,12.516 L1319.3701,14.9651 " fill="#000000" style="stroke:#000000;stroke-width:1.0;"/><ellipse cx="1022" cy="133.2581" fill="#000000" rx="3" ry="3" style="stroke:#000000;stroke-width:1.0;"/><path d="M1022,153.2581 L1035,153.2581 C1056.4073,153.2581 1051.307,129.6521 1071,121.2581 C1142.5774,90.749 1228.6358,82.0167 1300.5462,81.4563 " fill="none" style="stroke:#000000;stroke-width:1.0;stroke-dasharray:3.0,3.0;"/><path d="M1300.558,84.5774 L1302.8871,81.4474 L1300.5345,78.3351 L1308.3492,81.4269 L1300.558,84.5774 " fill="#000000" style="stroke:#000000;stroke-width:1.0;"/><ellipse cx="1022" cy="153.2581" fill="#000000" rx="3" ry="3" style="stroke:#000000;stroke-width:1.0;"/><path d="M1022,174.2581 L1035,174.2581 C1126.1926,174.2581 1228.4952,168.3827 1308.589,162.446 " fill="none" style="stroke:#000000;stroke-width:1.0;stroke-dasharray:3.0,3.0;"/><path d="M1308.8188,165.5182 L1310.8932,162.2736 L1308.3592,159.3738 L1316.2696,161.8715 L1308.8188,165.5182 " fill="#000000" style="stroke:#000000;stroke-width:1.0;"/><ellipse cx="1022" cy="174.2581" fill="#000000" rx="3" ry="3" style="stroke:#000000;stroke-width:1.0;"/><path d="M1603,239.2581 L1616,239.2581 C1700.2412,239.2581 1797.9455,239.2581 1857.4737,239.2581 " fill="none" style="stroke:#000000;stroke-width:1.0;stroke-dasharray:3.0,3.0;"/><path d="M1857.4737,242.3712 L1859.8085,239.2581 L1857.4737,236.1451 L1865.2562,239.2581 L1857.4737,242.3712 " fill="#000000" style="stroke:#000000;stroke-width:1.0;"/><ellipse cx="1603" cy="239.2581" fill="#000000" rx="3" ry="3" style="stroke:#000000;stroke-width:1.0;"/><path d="M1022,194.2581 L1035,194.2581 C1114.3612,194.2581 1202.1244,198.892 1276.3452,204.1697 " fill="none" style="stroke:#000000;stroke-width:1.0;stroke-dasharray:3.0,3.0;"/><path d="M1276.1269,207.2089 L1278.6247,204.3334 L1276.5636,201.1304 L1283.9434,204.7155 L1276.1269,207.2089 " fill="#000000" style="stroke:#000000;stroke-width:1.0;"/><ellipse cx="1022" cy="194.2581" fill="#000000" rx="3" ry="3" style="stroke:#000000;stroke-width:1.0;"/><path d="M1816,318.2581 L1829,318.2581 C1838.2653,318.2581 1848.1089,318.2581 1857.6646,318.2581 " fill="none" style="stroke:#000000;stroke-width:1.0;stroke-dasharray:3.0,3.0;"/><path d="M1857.6646,321.2922 L1859.9401,318.2581 L1857.6646,315.2241 L1865.2497,318.2581 L1857.6646,321.2922 " fill="#000000" style="stroke:#000000;stroke-width:1.0;"/><ellipse cx="1816" cy="318.2581" fill="#000000" rx="3" ry="3" style="stroke:#000000;stroke-width:1.0;"/><path d="M1022,214.2581 L1035,214.2581 C1060.6125,214.2581 1048.516,246.9916 1071,259.2581 C1074.0971,260.9478 1077.2297,262.5839 1080.3951,264.1679 " fill="none" style="stroke:#000000;stroke-width:1.0;stroke-dasharray:3.0,3.0;"/><path d="M1079.0411,266.9602 L1082.4893,265.1835 L1081.7492,261.3756 L1087.3758,267.5531 L1079.0411,266.9602 " fill="#000000" style="stroke:#000000;stroke-width:1.0;"/><ellipse cx="1022" cy="214.2581" fill="#000000" rx="3" ry="3" style="stroke:#000000;stroke-width:1.0;"/><path d="M1022,235.2581 L1035,235.2581 C1083.4933,235.2581 1032.5591,308.6964 1071,338.2581 C1145.9311,395.8815 1255.7553,397.978 1337.7395,388.7137 " fill="none" style="stroke:#000000;stroke-width:1.0;stroke-dasharray:3.0,3.0;"/><path d="M1338.1117,391.8516 L1340.0929,388.4345 L1337.3672,385.5757 L1345.5844,387.7831 L1338.1117,391.8516 " fill="#000000" style="stroke:#000000;stroke-width:1.0;"/><ellipse cx="1022" cy="235.2581" fill="#000000" rx="3" ry="3" style="stroke:#000000;stroke-width:1.0;"/><path d="M769,244.2581 L782,244.2581 C791.4817,244.2581 801.0621,243.1294 810.5357,241.1814 " fill="none" style="stroke:#000000;stroke-width:1.0;stroke-dasharray:3.0,3.0;"/><path d="M811.2284,244.2097 L812.8069,240.6619 L809.8429,238.1531 L818.1064,239.4495 L811.2284,244.2097 " fill="#000000" style="stroke:#000000;stroke-width:1.0;"/><ellipse cx="769" cy="244.2581" fill="#000000" rx="3" ry="3" style="stroke:#000000;stroke-width:1.0;"/><path d="M769,264.2581 L782,264.2581 C799.3664,264.2581 817.0638,268.0449 833.8298,273.7157 " fill="none" style="stroke:#000000;stroke-width:1.0;stroke-dasharray:3.0,3.0;"/><path d="M832.8138,276.5656 L835.9672,274.4777 L834.8459,270.8658 L840.9546,276.2558 L832.8138,276.5656 " fill="#000000" style="stroke:#000000;stroke-width:1.0;"/><ellipse cx="769" cy="264.2581" fill="#000000" rx="3" ry="3" style="stroke:#000000;stroke-width:1.0;"/><path d="M586.5,244.2581 L599.5,244.2581 C608.864,244.2581 618.6825,244.2581 628.426,244.2581 " fill="none" style="stroke:#000000;stroke-width:1.0;stroke-dasharray:3.0,3.0;"/><path d="M628.426,247.3733 L630.7623,244.2581 L628.426,241.143 L636.2138,244.2581 L628.426,247.3733 " fill="#000000" style="stroke:#000000;stroke-width:1.0;"/><ellipse cx="586.5" cy="244.2581" fill="#000000" rx="3" ry="3" style="stroke:#000000;stroke-width:1.0;"/><path d="M397.5,253.2581 L410.5,253.2581 C419.9823,253.2581 429.9017,252.9337 439.7503,252.4079 " fill="none" style="stroke:#000000;stroke-width:1.0;stroke-dasharray:3.0,3.0;"/><path d="M439.926,255.4115 L442.0031,252.2761 L439.5746,249.4043 L447.2594,251.9687 L439.926,255.4115 " fill="#000000" style="stroke:#000000;stroke-width:1.0;"/><ellipse cx="397.5" cy="253.2581" fill="#000000" rx="3" ry="3" style="stroke:#000000;stroke-width:1.0;"/><path d="M397.5,274.2581 L410.5,274.2581 C425.9962,274.2581 442.6678,275.0295 458.2908,276.0932 " fill="none" style="stroke:#000000;stroke-width:1.0;stroke-dasharray:3.0,3.0;"/><path d="M458.0734,279.1234 L460.5634,276.2563 L458.5082,273.063 L465.8662,276.6367 L458.0734,279.1234 " fill="#000000" style="stroke:#000000;stroke-width:1.0;"/><ellipse cx="397.5" cy="274.2581" fill="#000000" rx="3" ry="3" style="stroke:#000000;stroke-width:1.0;"/><!--SRC=[pPLBRzf04CVl-ob6RW-9L5vHL2AVea8Vef2WcgI7geV57koDx5rtTas5AhvxTysZSS048GxrSHu__sSyCxxLXfDvqagoFmpiuxtLOO8Pztpm4cDolzLotiRAsbGKjoBYCzDeTrihsnlltIhJB79qQMhwXA7PMeL9ItE0D1SXRkmHwf14ReIIpxmmI_bS4PIiTMHEAaSo0hKDNAaixRs44myDaj16X5LdlQ2jjmQxzT_n3FTwAcnjICZu1NiRzQ98XmGr0vDi2crwEudBNPRNht3EAUaP-IHbFMumLhGuiwmDzYHD4nxhr_Lm8huuKeuZ0jTQXS8AY-2tC4b5Lmr66CpgfUnhpzx0vL5bVr5s3sGyLga8wwRwv0wiuP2lwOUw0TyJ92mjUhtM8PSmHKWinIOeQKqHvgbQOFH_DA-dv4p41N5Ny0IpFBMbdNce1y7z7GJbqOInlLqPskEbzymqEw3M8_nL2CB84d_KNArNBiYXDQvRfoFcxUYkLk9-ichPwtBtbxbpyzaAiMItAAFoDyR6APVcOJI4kMskEskTvbNxwhhPlGYuWG1pQ7UXq_4xDtwd2m-J7ZZt9RluF1w2LWMvsHJkmquB9_kI3VYSmxT26f6X3_Svoa7_wyO07-LSa98PIiC6ZwD_0U-l6n-4UoDP9V0uOdsSyI8rDYDKaUsSRz_-gN73Xbp61Oyj6oNhASkbXVK5Vm40]--></g></svg>