<?xml version="1.0" encoding="us-ascii" standalone="no"?><svg xmlns="http://www.w3.org/2000/svg" xmlns:xlink="http://www.w3.org/1999/xlink" contentStyleType="text/css" height="339px" preserveAspectRatio="none" style="width:864px;height:339px;background:#FFFFFF;" version="1.1" viewBox="0 0 864 339" width="864px" zoomAndPan="magnify"><defs/><g><rect fill="#F1F1F1" height="162.375" rx="5" ry="5" style="stroke:#F1F1F1;stroke-width:1.5;" width="263" x="10" y="62.4063"/><text fill="#000000" font-family="sans-serif" font-size="14" font-weight="bold" lengthAdjust="spacing" textLength="66" x="15" y="77.4014">FlavorID</text><text fill="#000000" font-family="sans-serif" font-size="14" lengthAdjust="spacing" textLength="67" x="201" y="77.4014">fla-12345</text><line style="stroke:#000000;stroke-width:1.0;" x1="196" x2="196" y1="62.4063" y2="82.7031"/><line style="stroke:#000000;stroke-width:1.0;" x1="10" x2="273" y1="82.7031" y2="82.7031"/><text fill="#000000" font-family="sans-serif" font-size="14" font-weight="bold" lengthAdjust="spacing" textLength="83" x="15" y="97.6982">ProviderID</text><text fill="#000000" font-family="sans-serif" font-size="14" lengthAdjust="spacing" textLength="63" x="201" y="97.6982">prov-xyz</text><line style="stroke:#000000;stroke-width:1.0;" x1="196" x2="196" y1="82.7031" y2="103"/><line style="stroke:#000000;stroke-width:1.0;" x1="10" x2="273" y1="103" y2="103"/><text fill="#000000" font-family="sans-serif" font-size="14" font-weight="bold" lengthAdjust="spacing" textLength="71" x="15" y="117.9951">Location</text><text fill="#000000" font-family="sans-serif" font-size="14" lengthAdjust="spacing" textLength="12" x="201" y="117.9951">&#160;&#160;&#160;</text><line style="stroke:#000000;stroke-width:1.0;" x1="196" x2="196" y1="103" y2="123.2969"/><line style="stroke:#000000;stroke-width:1.0;" x1="10" x2="273" y1="123.2969" y2="123.2969"/><text fill="#000000" font-family="sans-serif" font-size="14" font-weight="bold" lengthAdjust="spacing" textLength="176" x="15" y="138.292">NetworkPropertyType</text><text fill="#000000" font-family="sans-serif" font-size="14" lengthAdjust="spacing" textLength="65" x="201" y="138.292">Ethernet</text><line style="stroke:#000000;stroke-width:1.0;" x1="196" x2="196" y1="123.2969" y2="143.5938"/><line style="stroke:#000000;stroke-width:1.0;" x1="10" x2="273" y1="143.5938" y2="143.5938"/><text fill="#000000" font-family="sans-serif" font-size="14" font-weight="bold" lengthAdjust="spacing" textLength="89" x="15" y="158.5889">FlavorType</text><text fill="#000000" font-family="sans-serif" font-size="14" lengthAdjust="spacing" textLength="7" x="201" y="158.5889">*</text><line style="stroke:#000000;stroke-width:1.0;" x1="196" x2="196" y1="143.5938" y2="163.8906"/><line style="stroke:#000000;stroke-width:1.0;" x1="10" x2="273" y1="163.8906" y2="163.8906"/><text fill="#000000" font-family="sans-serif" font-size="14" font-weight="bold" lengthAdjust="spacing" textLength="40" x="15" y="178.8857">Price</text><text fill="#000000" font-family="sans-serif" font-size="14" lengthAdjust="spacing" textLength="12" x="201" y="178.8857">&#160;&#160;&#160;</text><line style="stroke:#000000;stroke-width:1.0;" x1="196" x2="196" y1="163.8906" y2="184.1875"/><line style="stroke:#000000;stroke-width:1.0;" x1="10" x2="273" y1="184.1875" y2="184.1875"/><text fill="#000000" font-family="sans-serif" font-size="14" font-weight="bold" lengthAdjust="spacing" textLength="51" x="15" y="199.1826">Owner</text><text fill="#000000" font-family="sans-serif" font-size="14" lengthAdjust="spacing" textLength="12" x="201" y="199.1826">&#160;&#160;&#160;</text><line style="stroke:#000000;stroke-width:1.0;" x1="196" x2="196" y1="184.1875" y2="204.4844"/><line style="stroke:#000000;stroke-width:1.0;" x1="10" x2="273" y1="204.4844" y2="204.4844"/><text fill="#000000" font-family="sans-serif" font-size="14" font-weight="bold" lengthAdjust="spacing" textLength="117" x="15" y="219.4795">OptionalFields</text><text fill="#000000" font-family="sans-serif" font-size="14" lengthAdjust="spacing" textLength="12" x="201" y="219.4795">&#160;&#160;&#160;</text><line style="stroke:#000000;stroke-width:1.0;" x1="196" x2="196" y1="204.4844" y2="224.7813"/><rect fill="none" height="162.375" rx="5" ry="5" style="stroke:#000000;stroke-width:1.5;" width="263" x="10" y="62.4063"/><rect fill="#F1F1F1" height="81.1875" rx="5" ry="5" style="stroke:#F1F1F1;stroke-width:1.5;" width="377" x="310" y="10"/><text fill="#000000" font-family="sans-serif" font-size="14" font-weight="bold" lengthAdjust="spacing" textLength="69" x="315" y="24.9951">Latitude</text><text fill="#000000" font-family="sans-serif" font-size="14" lengthAdjust="spacing" textLength="56" x="456" y="24.9951">40.7128</text><line style="stroke:#000000;stroke-width:1.0;" x1="451" x2="451" y1="10" y2="30.2969"/><line style="stroke:#000000;stroke-width:1.0;" x1="310" x2="687" y1="30.2969" y2="30.2969"/><text fill="#000000" font-family="sans-serif" font-size="14" font-weight="bold" lengthAdjust="spacing" textLength="81" x="315" y="45.292">Longitude</text><text fill="#000000" font-family="sans-serif" font-size="14" lengthAdjust="spacing" textLength="64" x="456" y="45.292">-74.0059</text><line style="stroke:#000000;stroke-width:1.0;" x1="451" x2="451" y1="30.2969" y2="50.5938"/><line style="stroke:#000000;stroke-width:1.0;" x1="310" x2="687" y1="50.5938" y2="50.5938"/><text fill="#000000" font-family="sans-serif" font-size="14" font-weight="bold" lengthAdjust="spacing" textLength="66" x="315" y="65.5889">Altitude</text><text fill="#000000" font-family="sans-serif" font-size="14" lengthAdjust="spacing" textLength="27" x="456" y="65.5889">100</text><line style="stroke:#000000;stroke-width:1.0;" x1="451" x2="451" y1="50.5938" y2="70.8906"/><line style="stroke:#000000;stroke-width:1.0;" x1="310" x2="687" y1="70.8906" y2="70.8906"/><text fill="#000000" font-family="sans-serif" font-size="14" font-weight="bold" lengthAdjust="spacing" textLength="131" x="315" y="85.8857">AdditionalNotes</text><text fill="#000000" font-family="sans-serif" font-size="14" lengthAdjust="spacing" textLength="226" x="456" y="85.8857">Located in a secure data center</text><line style="stroke:#000000;stroke-width:1.0;" x1="451" x2="451" y1="70.8906" y2="91.1875"/><rect fill="none" height="81.1875" rx="5" ry="5" style="stroke:#000000;stroke-width:1.5;" width="377" x="310" y="10"/><rect fill="#F1F1F1" height="60.8906" rx="5" ry="5" style="stroke:#F1F1F1;stroke-width:1.5;" width="136" x="430.5" y="109.0938"/><text fill="#000000" font-family="sans-serif" font-size="14" font-weight="bold" lengthAdjust="spacing" textLength="64" x="435.5" y="124.0889">Amount</text><text fill="#000000" font-family="sans-serif" font-size="14" lengthAdjust="spacing" textLength="41" x="516.5" y="124.0889">10.00</text><line style="stroke:#000000;stroke-width:1.0;" x1="511.5" x2="511.5" y1="109.0938" y2="129.3906"/><line style="stroke:#000000;stroke-width:1.0;" x1="430.5" x2="566.5" y1="129.3906" y2="129.3906"/><text fill="#000000" font-family="sans-serif" font-size="14" font-weight="bold" lengthAdjust="spacing" textLength="71" x="435.5" y="144.3857">Currency</text><text fill="#000000" font-family="sans-serif" font-size="14" lengthAdjust="spacing" textLength="29" x="516.5" y="144.3857">USD</text><line style="stroke:#000000;stroke-width:1.0;" x1="511.5" x2="511.5" y1="129.3906" y2="149.6875"/><line style="stroke:#000000;stroke-width:1.0;" x1="430.5" x2="566.5" y1="149.6875" y2="149.6875"/><text fill="#000000" font-family="sans-serif" font-size="14" font-weight="bold" lengthAdjust="spacing" textLength="51" x="435.5" y="164.6826">Period</text><text fill="#000000" font-family="sans-serif" font-size="14" lengthAdjust="spacing" textLength="45" x="516.5" y="164.6826">Hourly</text><line style="stroke:#000000;stroke-width:1.0;" x1="511.5" x2="511.5" y1="149.6875" y2="169.9844"/><rect fill="none" height="60.8906" rx="5" ry="5" style="stroke:#000000;stroke-width:1.5;" width="136" x="430.5" y="109.0938"/><rect fill="#F1F1F1" height="81.1875" rx="5" ry="5" style="stroke:#F1F1F1;stroke-width:1.5;" width="299" x="349" y="188"/><text fill="#000000" font-family="sans-serif" font-size="14" font-weight="bold" lengthAdjust="spacing" textLength="61" x="354" y="202.9951">Domain</text><text fill="#000000" font-family="sans-serif" font-size="14" lengthAdjust="spacing" textLength="98" x="545" y="202.9951">example.com</text><line style="stroke:#000000;stroke-width:1.0;" x1="540" x2="540" y1="188" y2="208.2969"/><line style="stroke:#000000;stroke-width:1.0;" x1="349" x2="648" y1="208.2969" y2="208.2969"/><text fill="#000000" font-family="sans-serif" font-size="14" font-weight="bold" lengthAdjust="spacing" textLength="56" x="354" y="223.292">NodeID</text><text fill="#000000" font-family="sans-serif" font-size="14" lengthAdjust="spacing" textLength="68" x="545" y="223.292">node-abc</text><line style="stroke:#000000;stroke-width:1.0;" x1="540" x2="540" y1="208.2969" y2="228.5938"/><line style="stroke:#000000;stroke-width:1.0;" x1="349" x2="648" y1="228.5938" y2="228.5938"/><text fill="#000000" font-family="sans-serif" font-size="14" font-weight="bold" lengthAdjust="spacing" textLength="15" x="354" y="243.5889">IP</text><text fill="#000000" font-family="sans-serif" font-size="14" lengthAdjust="spacing" textLength="60" x="545" y="243.5889">10.0.0.1</text><line style="stroke:#000000;stroke-width:1.0;" x1="540" x2="540" y1="228.5938" y2="248.8906"/><line style="stroke:#000000;stroke-width:1.0;" x1="349" x2="648" y1="248.8906" y2="248.8906"/><text fill="#000000" font-family="sans-serif" font-size="14" font-weight="bold" lengthAdjust="spacing" textLength="181" x="354" y="263.8857">AdditionalInformation</text><text fill="#000000" font-family="sans-serif" font-size="14" lengthAdjust="spacing" textLength="12" x="545" y="263.8857">&#160;&#160;&#160;</text><line style="stroke:#000000;stroke-width:1.0;" x1="540" x2="540" y1="248.8906" y2="269.1875"/><rect fill="none" height="81.1875" rx="5" ry="5" style="stroke:#000000;stroke-width:1.5;" width="299" x="349" y="188"/><rect fill="#F1F1F1" height="20.2969" rx="5" ry="5" style="stroke:#F1F1F1;stroke-width:1.5;" width="128" x="724" y="248.4453"/><text fill="#000000" font-family="sans-serif" font-size="14" font-weight="bold" lengthAdjust="spacing" textLength="50" x="729" y="263.4404">LiqoID</text><text fill="#000000" font-family="sans-serif" font-size="14" lengthAdjust="spacing" textLength="58" x="789" y="263.4404">liqo-123</text><line style="stroke:#000000;stroke-width:1.0;" x1="784" x2="784" y1="248.4453" y2="268.7422"/><rect fill="none" height="20.2969" rx="5" ry="5" style="stroke:#000000;stroke-width:1.5;" width="128" x="724" y="248.4453"/><rect fill="#F1F1F1" height="40.5938" rx="5" ry="5" style="stroke:#F1F1F1;stroke-width:1.5;" width="177" x="410" y="287.0938"/><text fill="#000000" font-family="sans-serif" font-size="14" font-weight="bold" lengthAdjust="spacing" textLength="92" x="415" y="302.0889">Availability</text><text fill="#000000" font-family="sans-serif" font-size="14" lengthAdjust="spacing" textLength="47" x="517" y="302.0889">&#9745; true</text><line style="stroke:#000000;stroke-width:1.0;" x1="512" x2="512" y1="287.0938" y2="307.3906"/><line style="stroke:#000000;stroke-width:1.0;" x1="410" x2="587" y1="307.3906" y2="307.3906"/><text fill="#000000" font-family="sans-serif" font-size="14" font-weight="bold" lengthAdjust="spacing" textLength="73" x="415" y="322.3857">WorkerID</text><text fill="#000000" font-family="sans-serif" font-size="14" lengthAdjust="spacing" textLength="65" x="517" y="322.3857">worker-1</text><line style="stroke:#000000;stroke-width:1.0;" x1="512" x2="512" y1="307.3906" y2="327.6875"/><rect fill="none" height="40.5938" rx="5" ry="5" style="stroke:#000000;stroke-width:1.5;" width="177" x="410" y="287.0938"/><path d="M261,113.5938 L274,113.5938 C291.0113,113.5938 293.7649,105.6735 310,100.5938 C317.7119,98.1808 325.6244,95.7821 333.6327,93.4161 " fill="none" style="stroke:#000000;stroke-width:1.0;stroke-dasharray:3.0,3.0;"/><path d="M334.4979,96.3675 L335.8462,92.7672 L332.7675,90.4647 L341.0112,91.253 L334.4979,96.3675 " fill="#000000" style="stroke:#000000;stroke-width:1.0;"/><ellipse cx="261" cy="113.5938" fill="#000000" rx="3" ry="3" style="stroke:#000000;stroke-width:1.0;"/><path d="M261,173.5938 L274,173.5938 C324.1973,173.5938 380.013,165.1445 423.3711,156.67 " fill="none" style="stroke:#000000;stroke-width:1.0;stroke-dasharray:3.0,3.0;"/><path d="M423.9589,159.6286 L425.59,156.2292 L422.7833,153.7115 L430.7675,155.2006 L423.9589,159.6286 " fill="#000000" style="stroke:#000000;stroke-width:1.0;"/><ellipse cx="261" cy="173.5938" fill="#000000" rx="3" ry="3" style="stroke:#000000;stroke-width:1.0;"/><path d="M637,258.5938 L650,258.5938 C671.5795,258.5938 695.064,258.5938 716.4173,258.5938 " fill="none" style="stroke:#000000;stroke-width:1.0;stroke-dasharray:3.0,3.0;"/><path d="M716.4173,261.699 L718.7463,258.5938 L716.4173,255.4885 L724.1805,258.5938 L716.4173,261.699 " fill="#000000" style="stroke:#000000;stroke-width:1.0;"/><ellipse cx="637" cy="258.5938" fill="#000000" rx="3" ry="3" style="stroke:#000000;stroke-width:1.0;"/><path d="M261,194.5938 L274,194.5938 C295.9988,194.5938 319.0766,196.2165 341.7121,198.753 " fill="none" style="stroke:#000000;stroke-width:1.0;stroke-dasharray:3.0,3.0;"/><path d="M341.3544,201.8159 L344.0093,199.0212 L342.0698,195.6901 L349.3693,199.6472 L341.3544,201.8159 " fill="#000000" style="stroke:#000000;stroke-width:1.0;"/><ellipse cx="261" cy="194.5938" fill="#000000" rx="3" ry="3" style="stroke:#000000;stroke-width:1.0;"/><path d="M261,214.5938 L274,214.5938 C306.6357,214.5938 283.1706,260.0123 310,278.5938 C336.7681,297.1328 370.8038,305.6932 402.5385,309.2115 " fill="none" style="stroke:#000000;stroke-width:1.0;stroke-dasharray:3.0,3.0;"/><path d="M402.2379,312.2447 L404.8134,309.4369 L402.839,306.1782 L410.1215,309.9629 L402.2379,312.2447 " fill="#000000" style="stroke:#000000;stroke-width:1.0;"/><ellipse cx="261" cy="214.5938" fill="#000000" rx="3" ry="3" style="stroke:#000000;stroke-width:1.0;"/><!--SRC=[NLBRSfim47tdAtPuiZk10PTSwgUaiTquOxjCRQVFCgnTDKAYOi4XdVnx9J2-50qpgprxEJgxzmKnJRyB9Ps_3fZFdGXMAJqTkKDmju9vuU1pTErUjM2iLSLJFC2vkNblzNk7pbJ2Y2jfiBQOzHaFbIdQ-2ZmRyF1tI6yIP2x8-hTHduGN7yvmG_Yb1i6WNi5S8JIbDjMJ2mKOM4ZckwO0fV0eC2ar0Wf8mO9IaBjDgaV1weBfBtIh-OzEMggLtNUT1dJBzGIgNjHAqQ7VZeoC4Bm1C_V-P2fKbBBrBTSE-2nr1fbKbjelHoTW1WrLwbrFwbIY_gIuFUzD9pF6enKnhYLriKtbkK2_KHbfseBbM8x5MaiZssI4pQDErxcX6Vw7aMSogtIsV_3inFYVrHRLXZBBeDx03ykwUPjeGb7aHONmbIC2xRXWfFLW7I9Hm8_pGYwPTetjXSUP73iVuyoRNRJYGMJj9xFe49Tc4uG-eDW4FdH1edTzDRoLQgz12D9pWK2yGpxJkzRF8F2Y9kOJU05QRufBSs-yymg1Z_Cm4pS4EojjvhtOJdkd32M5TTAPcPtdEUNUHi4JugMkQ8c-2RoldA29Mh32LxcpWYth1HaKXELShaRmderyUwS6PExakrC8vJEerqJNHji-Gy0]--></g></svg>