<?xml version="1.0" encoding="us-ascii" standalone="no"?><svg xmlns="http://www.w3.org/2000/svg" xmlns:xlink="http://www.w3.org/1999/xlink" contentStyleType="text/css" height="378px" preserveAspectRatio="none" style="width:1050px;height:378px;background:#FFFFFF;" version="1.1" viewBox="0 0 1050 378" width="1050px" zoomAndPan="magnify"><defs/><g><rect fill="#F1F1F1" height="202.9688" rx="5" ry="5" style="stroke:#F1F1F1;stroke-width:1.5;" width="358" x="10" y="47.0938"/><text fill="#000000" font-family="sans-serif" font-size="14" font-weight="bold" lengthAdjust="spacing" textLength="66" x="15" y="62.0889">FlavorID</text><text fill="#000000" font-family="sans-serif" font-size="14" lengthAdjust="spacing" textLength="145" x="201" y="62.0889">unique-flavor-id-123</text><line style="stroke:#000000;stroke-width:1.0;" x1="196" x2="196" y1="47.0938" y2="67.3906"/><line style="stroke:#000000;stroke-width:1.0;" x1="10" x2="368" y1="67.3906" y2="67.3906"/><text fill="#000000" font-family="sans-serif" font-size="14" font-weight="bold" lengthAdjust="spacing" textLength="83" x="15" y="82.3857">ProviderID</text><text fill="#000000" font-family="sans-serif" font-size="14" lengthAdjust="spacing" textLength="112" x="201" y="82.3857">provider-id-456</text><line style="stroke:#000000;stroke-width:1.0;" x1="196" x2="196" y1="67.3906" y2="87.6875"/><line style="stroke:#000000;stroke-width:1.0;" x1="10" x2="368" y1="87.6875" y2="87.6875"/><text fill="#000000" font-family="sans-serif" font-size="14" font-weight="bold" lengthAdjust="spacing" textLength="92" x="15" y="102.6826">Timestamp</text><text fill="#000000" font-family="sans-serif" font-size="14" lengthAdjust="spacing" textLength="162" x="201" y="102.6826">2024-03-27T11:47:00Z</text><line style="stroke:#000000;stroke-width:1.0;" x1="196" x2="196" y1="87.6875" y2="107.9844"/><line style="stroke:#000000;stroke-width:1.0;" x1="10" x2="368" y1="107.9844" y2="107.9844"/><text fill="#000000" font-family="sans-serif" font-size="14" font-weight="bold" lengthAdjust="spacing" textLength="71" x="15" y="122.9795">Location</text><text fill="#000000" font-family="sans-serif" font-size="14" lengthAdjust="spacing" textLength="12" x="201" y="122.9795">&#160;&#160;&#160;</text><line style="stroke:#000000;stroke-width:1.0;" x1="196" x2="196" y1="107.9844" y2="128.2813"/><line style="stroke:#000000;stroke-width:1.0;" x1="10" x2="368" y1="128.2813" y2="128.2813"/><text fill="#000000" font-family="sans-serif" font-size="14" font-weight="bold" lengthAdjust="spacing" textLength="176" x="15" y="143.2764">NetworkPropertyType</text><text fill="#000000" font-family="sans-serif" font-size="14" lengthAdjust="spacing" textLength="20" x="201" y="143.2764">5G</text><line style="stroke:#000000;stroke-width:1.0;" x1="196" x2="196" y1="128.2813" y2="148.5781"/><line style="stroke:#000000;stroke-width:1.0;" x1="10" x2="368" y1="148.5781" y2="148.5781"/><text fill="#000000" font-family="sans-serif" font-size="14" font-weight="bold" lengthAdjust="spacing" textLength="89" x="15" y="163.5732">FlavorType</text><text fill="#000000" font-family="sans-serif" font-size="14" lengthAdjust="spacing" textLength="12" x="201" y="163.5732">&#160;&#160;&#160;</text><line style="stroke:#000000;stroke-width:1.0;" x1="196" x2="196" y1="148.5781" y2="168.875"/><line style="stroke:#000000;stroke-width:1.0;" x1="10" x2="368" y1="168.875" y2="168.875"/><text fill="#000000" font-family="sans-serif" font-size="14" font-weight="bold" lengthAdjust="spacing" textLength="40" x="15" y="183.8701">Price</text><text fill="#000000" font-family="sans-serif" font-size="14" lengthAdjust="spacing" textLength="12" x="201" y="183.8701">&#160;&#160;&#160;</text><line style="stroke:#000000;stroke-width:1.0;" x1="196" x2="196" y1="168.875" y2="189.1719"/><line style="stroke:#000000;stroke-width:1.0;" x1="10" x2="368" y1="189.1719" y2="189.1719"/><text fill="#000000" font-family="sans-serif" font-size="14" font-weight="bold" lengthAdjust="spacing" textLength="51" x="15" y="204.167">Owner</text><text fill="#000000" font-family="sans-serif" font-size="14" lengthAdjust="spacing" textLength="12" x="201" y="204.167">&#160;&#160;&#160;</text><line style="stroke:#000000;stroke-width:1.0;" x1="196" x2="196" y1="189.1719" y2="209.4688"/><line style="stroke:#000000;stroke-width:1.0;" x1="10" x2="368" y1="209.4688" y2="209.4688"/><text fill="#000000" font-family="sans-serif" font-size="14" font-weight="bold" lengthAdjust="spacing" textLength="117" x="15" y="224.4639">OptionalFields</text><text fill="#000000" font-family="sans-serif" font-size="14" lengthAdjust="spacing" textLength="12" x="201" y="224.4639">&#160;&#160;&#160;</text><line style="stroke:#000000;stroke-width:1.0;" x1="196" x2="196" y1="209.4688" y2="229.7656"/><line style="stroke:#000000;stroke-width:1.0;" x1="10" x2="368" y1="229.7656" y2="229.7656"/><text fill="#000000" font-family="sans-serif" font-size="14" font-weight="bold" lengthAdjust="spacing" textLength="116" x="15" y="244.7607">AdditionalInfo</text><text fill="#000000" font-family="sans-serif" font-size="14" lengthAdjust="spacing" textLength="137" x="201" y="244.7607">available-now: true</text><line style="stroke:#000000;stroke-width:1.0;" x1="196" x2="196" y1="229.7656" y2="250.0625"/><rect fill="none" height="202.9688" rx="5" ry="5" style="stroke:#000000;stroke-width:1.5;" width="358" x="10" y="47.0938"/><rect fill="#F1F1F1" height="81.1875" rx="5" ry="5" style="stroke:#F1F1F1;stroke-width:1.5;" width="448" x="405" y="10"/><text fill="#000000" font-family="sans-serif" font-size="14" font-weight="bold" lengthAdjust="spacing" textLength="69" x="410" y="24.9951">Latitude</text><text fill="#000000" font-family="sans-serif" font-size="14" lengthAdjust="spacing" textLength="56" x="551" y="24.9951">40.7128</text><line style="stroke:#000000;stroke-width:1.0;" x1="546" x2="546" y1="10" y2="30.2969"/><line style="stroke:#000000;stroke-width:1.0;" x1="405" x2="853" y1="30.2969" y2="30.2969"/><text fill="#000000" font-family="sans-serif" font-size="14" font-weight="bold" lengthAdjust="spacing" textLength="81" x="410" y="45.292">Longitude</text><text fill="#000000" font-family="sans-serif" font-size="14" lengthAdjust="spacing" textLength="64" x="551" y="45.292">-74.0059</text><line style="stroke:#000000;stroke-width:1.0;" x1="546" x2="546" y1="30.2969" y2="50.5938"/><line style="stroke:#000000;stroke-width:1.0;" x1="405" x2="853" y1="50.5938" y2="50.5938"/><text fill="#000000" font-family="sans-serif" font-size="14" font-weight="bold" lengthAdjust="spacing" textLength="66" x="410" y="65.5889">Altitude</text><text fill="#000000" font-family="sans-serif" font-size="14" lengthAdjust="spacing" textLength="27" x="551" y="65.5889">100</text><line style="stroke:#000000;stroke-width:1.0;" x1="546" x2="546" y1="50.5938" y2="70.8906"/><line style="stroke:#000000;stroke-width:1.0;" x1="405" x2="853" y1="70.8906" y2="70.8906"/><text fill="#000000" font-family="sans-serif" font-size="14" font-weight="bold" lengthAdjust="spacing" textLength="131" x="410" y="85.8857">AdditionalNotes</text><text fill="#000000" font-family="sans-serif" font-size="14" lengthAdjust="spacing" textLength="297" x="551" y="85.8857">Located on rooftop with good ventilation</text><line style="stroke:#000000;stroke-width:1.0;" x1="546" x2="546" y1="70.8906" y2="91.1875"/><rect fill="none" height="81.1875" rx="5" ry="5" style="stroke:#000000;stroke-width:1.5;" width="448" x="405" y="10"/><rect fill="#F1F1F1" height="20.2969" rx="5" ry="5" style="stroke:#F1F1F1;stroke-width:1.5;" width="60" x="599" y="109.4453"/><text fill="#000000" font-family="sans-serif" font-size="14" font-weight="bold" lengthAdjust="spacing" textLength="33" x="604" y="124.4404">$ref</text><text fill="#000000" font-family="sans-serif" font-size="14" lengthAdjust="spacing" textLength="7" x="647" y="124.4404">*</text><line style="stroke:#000000;stroke-width:1.0;" x1="642" x2="642" y1="109.4453" y2="129.7422"/><rect fill="none" height="20.2969" rx="5" ry="5" style="stroke:#000000;stroke-width:1.5;" width="60" x="599" y="109.4453"/><rect fill="#F1F1F1" height="60.8906" rx="5" ry="5" style="stroke:#F1F1F1;stroke-width:1.5;" width="136" x="561" y="148.0938"/><text fill="#000000" font-family="sans-serif" font-size="14" font-weight="bold" lengthAdjust="spacing" textLength="64" x="566" y="163.0889">Amount</text><text fill="#000000" font-family="sans-serif" font-size="14" lengthAdjust="spacing" textLength="41" x="647" y="163.0889">10.00</text><line style="stroke:#000000;stroke-width:1.0;" x1="642" x2="642" y1="148.0938" y2="168.3906"/><line style="stroke:#000000;stroke-width:1.0;" x1="561" x2="697" y1="168.3906" y2="168.3906"/><text fill="#000000" font-family="sans-serif" font-size="14" font-weight="bold" lengthAdjust="spacing" textLength="71" x="566" y="183.3857">Currency</text><text fill="#000000" font-family="sans-serif" font-size="14" lengthAdjust="spacing" textLength="29" x="647" y="183.3857">USD</text><line style="stroke:#000000;stroke-width:1.0;" x1="642" x2="642" y1="168.3906" y2="188.6875"/><line style="stroke:#000000;stroke-width:1.0;" x1="561" x2="697" y1="188.6875" y2="188.6875"/><text fill="#000000" font-family="sans-serif" font-size="14" font-weight="bold" lengthAdjust="spacing" textLength="51" x="566" y="203.6826">Period</text><text fill="#000000" font-family="sans-serif" font-size="14" lengthAdjust="spacing" textLength="45" x="647" y="203.6826">Hourly</text><line style="stroke:#000000;stroke-width:1.0;" x1="642" x2="642" y1="188.6875" y2="208.9844"/><rect fill="none" height="60.8906" rx="5" ry="5" style="stroke:#000000;stroke-width:1.5;" width="136" x="561" y="148.0938"/><rect fill="#F1F1F1" height="81.1875" rx="5" ry="5" style="stroke:#F1F1F1;stroke-width:1.5;" width="299" x="479.5" y="227"/><text fill="#000000" font-family="sans-serif" font-size="14" font-weight="bold" lengthAdjust="spacing" textLength="61" x="484.5" y="241.9951">Domain</text><text fill="#000000" font-family="sans-serif" font-size="14" lengthAdjust="spacing" textLength="98" x="675.5" y="241.9951">example.com</text><line style="stroke:#000000;stroke-width:1.0;" x1="670.5" x2="670.5" y1="227" y2="247.2969"/><line style="stroke:#000000;stroke-width:1.0;" x1="479.5" x2="778.5" y1="247.2969" y2="247.2969"/><text fill="#000000" font-family="sans-serif" font-size="14" font-weight="bold" lengthAdjust="spacing" textLength="56" x="484.5" y="262.292">NodeID</text><text fill="#000000" font-family="sans-serif" font-size="14" lengthAdjust="spacing" textLength="87" x="675.5" y="262.292">node-id-789</text><line style="stroke:#000000;stroke-width:1.0;" x1="670.5" x2="670.5" y1="247.2969" y2="267.5938"/><line style="stroke:#000000;stroke-width:1.0;" x1="479.5" x2="778.5" y1="267.5938" y2="267.5938"/><text fill="#000000" font-family="sans-serif" font-size="14" font-weight="bold" lengthAdjust="spacing" textLength="15" x="484.5" y="282.5889">IP</text><text fill="#000000" font-family="sans-serif" font-size="14" lengthAdjust="spacing" textLength="94" x="675.5" y="282.5889">192.168.1.10</text><line style="stroke:#000000;stroke-width:1.0;" x1="670.5" x2="670.5" y1="267.5938" y2="287.8906"/><line style="stroke:#000000;stroke-width:1.0;" x1="479.5" x2="778.5" y1="287.8906" y2="287.8906"/><text fill="#000000" font-family="sans-serif" font-size="14" font-weight="bold" lengthAdjust="spacing" textLength="181" x="484.5" y="302.8857">AdditionalInformation</text><text fill="#000000" font-family="sans-serif" font-size="14" lengthAdjust="spacing" textLength="12" x="675.5" y="302.8857">&#160;&#160;&#160;</text><line style="stroke:#000000;stroke-width:1.0;" x1="670.5" x2="670.5" y1="287.8906" y2="308.1875"/><rect fill="none" height="81.1875" rx="5" ry="5" style="stroke:#000000;stroke-width:1.5;" width="299" x="479.5" y="227"/><rect fill="#F1F1F1" height="20.2969" rx="5" ry="5" style="stroke:#F1F1F1;stroke-width:1.5;" width="148" x="890" y="287.4453"/><text fill="#000000" font-family="sans-serif" font-size="14" font-weight="bold" lengthAdjust="spacing" textLength="50" x="895" y="302.4404">LiqoID</text><text fill="#000000" font-family="sans-serif" font-size="14" lengthAdjust="spacing" textLength="78" x="955" y="302.4404">liqo-id-001</text><line style="stroke:#000000;stroke-width:1.0;" x1="950" x2="950" y1="287.4453" y2="307.7422"/><rect fill="none" height="20.2969" rx="5" ry="5" style="stroke:#000000;stroke-width:1.5;" width="148" x="890" y="287.4453"/><rect fill="#F1F1F1" height="40.5938" rx="5" ry="5" style="stroke:#F1F1F1;stroke-width:1.5;" width="211" x="523.5" y="326.0938"/><text fill="#000000" font-family="sans-serif" font-size="14" font-weight="bold" lengthAdjust="spacing" textLength="92" x="528.5" y="341.0889">Availability</text><text fill="#000000" font-family="sans-serif" font-size="14" lengthAdjust="spacing" textLength="47" x="630.5" y="341.0889">&#9745; true</text><line style="stroke:#000000;stroke-width:1.0;" x1="625.5" x2="625.5" y1="326.0938" y2="346.3906"/><line style="stroke:#000000;stroke-width:1.0;" x1="523.5" x2="734.5" y1="346.3906" y2="346.3906"/><text fill="#000000" font-family="sans-serif" font-size="14" font-weight="bold" lengthAdjust="spacing" textLength="73" x="528.5" y="361.3857">WorkerID</text><text fill="#000000" font-family="sans-serif" font-size="14" lengthAdjust="spacing" textLength="99" x="630.5" y="361.3857">worker-id-xyz</text><line style="stroke:#000000;stroke-width:1.0;" x1="625.5" x2="625.5" y1="346.3906" y2="366.6875"/><rect fill="none" height="40.5938" rx="5" ry="5" style="stroke:#000000;stroke-width:1.5;" width="211" x="523.5" y="326.0938"/><path d="M356,118.5938 L369,118.5938 C386.8885,118.5938 388.1467,106.5909 405,100.5938 C411.9536,98.1194 419.0738,95.741 426.3,93.4576 " fill="none" style="stroke:#000000;stroke-width:1.0;stroke-dasharray:3.0,3.0;"/><path d="M427.2007,96.3613 L428.4778,92.7821 L425.3993,90.5539 L433.5593,91.2059 L427.2007,96.3613 " fill="#000000" style="stroke:#000000;stroke-width:1.0;"/><ellipse cx="356" cy="118.5938" fill="#000000" rx="3" ry="3" style="stroke:#000000;stroke-width:1.0;"/><path d="M356,158.5938 L369,158.5938 C387.0917,158.5938 387.6506,144.7226 405,139.5938 C468.6133,120.7883 546.4824,118.1512 591.4996,118.4937 " fill="none" style="stroke:#000000;stroke-width:1.0;stroke-dasharray:3.0,3.0;"/><path d="M591.4631,121.591 L593.8225,118.521 L591.536,115.3964 L599.2428,118.5847 L591.4631,121.591 " fill="#000000" style="stroke:#000000;stroke-width:1.0;"/><ellipse cx="356" cy="158.5938" fill="#000000" rx="3" ry="3" style="stroke:#000000;stroke-width:1.0;"/><path d="M356,178.5938 L369,178.5938 C431.2634,178.5938 501.9301,178.5938 553.7806,178.5938 " fill="none" style="stroke:#000000;stroke-width:1.0;stroke-dasharray:3.0,3.0;"/><path d="M553.7806,181.5979 L556.0337,178.5938 L553.7806,175.5896 L561.2909,178.5938 L553.7806,181.5979 " fill="#000000" style="stroke:#000000;stroke-width:1.0;"/><ellipse cx="356" cy="178.5938" fill="#000000" rx="3" ry="3" style="stroke:#000000;stroke-width:1.0;"/><path d="M767.5,297.5938 L780.5,297.5938 C814.0306,297.5938 851.0171,297.5938 882.9112,297.5938 " fill="none" style="stroke:#000000;stroke-width:1.0;stroke-dasharray:3.0,3.0;"/><path d="M882.9112,300.621 L885.1816,297.5938 L882.9112,294.5665 L890.4793,297.5938 L882.9112,300.621 " fill="#000000" style="stroke:#000000;stroke-width:1.0;"/><ellipse cx="767.5" cy="297.5938" fill="#000000" rx="3" ry="3" style="stroke:#000000;stroke-width:1.0;"/><path d="M356,199.5938 L369,199.5938 C387.0917,199.5938 388.0097,212.3779 405,218.5938 C426.4598,226.4448 449.5603,233.2416 472.4807,239.0615 " fill="none" style="stroke:#000000;stroke-width:1.0;stroke-dasharray:3.0,3.0;"/><path d="M471.7386,242.0348 L474.7106,239.6182 L473.2228,236.0883 L479.9138,240.9169 L471.7386,242.0348 " fill="#000000" style="stroke:#000000;stroke-width:1.0;"/><ellipse cx="356" cy="199.5938" fill="#000000" rx="3" ry="3" style="stroke:#000000;stroke-width:1.0;"/><path d="M356,219.5938 L369,219.5938 C415.4014,219.5938 368.742,288.6378 405,317.5938 C435.9562,342.3157 477.3869,352.0186 516.1642,354.7155 " fill="none" style="stroke:#000000;stroke-width:1.0;stroke-dasharray:3.0,3.0;"/><path d="M515.9849,357.802 L518.4791,354.85 L516.3436,351.629 L523.8804,355.1639 L515.9849,357.802 " fill="#000000" style="stroke:#000000;stroke-width:1.0;"/><ellipse cx="356" cy="219.5938" fill="#000000" rx="3" ry="3" style="stroke:#000000;stroke-width:1.0;"/><!--SRC=[RL9DSzem4BtxLsWyFK2dzjYE-GYdf24aP81w2gGplHbheMfahIFB4BV3Vwza0KvcUfDstxwt-tPlIfLAzRj4uVnr274dFDsZd8xT4N4hmLuhyBPDo6FK2wChzuj19HBtZC89Lvn-1XBt-XQoOZbexhmmY2Y8OY-uygB1AWn7yM0K13yjR8PPgXWAZJBw9gB_gg9WwkB07uJHi84sOB6xvBn1x0T1x_gSlELjNHW4bp2bp0YaV84AIfDjD84I54GYRXKMvC3KBx93f6GFGZ5kUz8CnwRB1QW3oXSzTW5IrQkwQ6Hw3tO8QzefUXhZauIjmNnkMHB9idU8snmheMoxVjlmNIKbYAmsYVLoV0ud81bI4tp4IlAwfVrs421RsZ7cAJD-kl2cxUVWPvYVMHP8mIvDw9TPs61uSN2QDCrSHtxO7_gX7_x7nAdOeim_hiniXhsYvUNwPNY387IRxB5jjB0S4mQSbk-CsAVQyGtZJ9cfbQpWfFj3ctw-iaFpDjHlzPzs-e-j6M1gwJXu0W-MpdMEpWq8sjova_1KgFLyfdSjIrrAGjySg1zlGANzpbgyw491j6q5uq2KlkIkqtb8PgJKrcT0A2kLP9lAw7QT9or8lkjLQjo8c5zdDU-IvVqvIEx5daaKkJujv-bvRa7a4TMoGDM0-x7tbIco1Abx8izpPmpRjE9AbsP8cTYDo7eryOREB1MxAjrf8H3EdJaWMUlSyXy0]--></g></svg>