<svg xmlns="http://www.w3.org/2000/svg" xmlns:xlink="http://www.w3.org/1999/xlink" contentStyleType="text/css" height="156px" preserveAspectRatio="none" style="width:695px;height:156px;background:#FFFFFF;" version="1.1" viewBox="0 0 695 156" width="695px" zoomAndPan="magnify"><defs/><g><rect fill="#F1F1F1" height="121.7813" rx="5" ry="5" style="stroke:#F1F1F1;stroke-width:1.5;" width="301.6543" x="10" y="14.1484"/><text fill="#000000" font-family="sans-serif" font-size="14" font-weight="bold" lengthAdjust="spacing" textLength="84.7246" x="15" y="29.1436">ContractID</text><text fill="#000000" font-family="sans-serif" font-size="14" lengthAdjust="spacing" textLength="92.251" x="144.2734" y="29.1436">12345-abcde</text><line style="stroke:#000000;stroke-width:1.0;" x1="139.2734" x2="139.2734" y1="14.1484" y2="34.4453"/><line style="stroke:#000000;stroke-width:1.0;" x1="10" x2="311.6543" y1="34.4453" y2="34.4453"/><text fill="#000000" font-family="sans-serif" font-size="14" font-weight="bold" lengthAdjust="spacing" textLength="49.458" x="15" y="49.4404">Flavor</text><text fill="#000000" font-family="sans-serif" font-size="14" lengthAdjust="spacing" textLength="13.3506" x="144.2734" y="49.4404">&#160;&#160;&#160;</text><line style="stroke:#000000;stroke-width:1.0;" x1="139.2734" x2="139.2734" y1="34.4453" y2="54.7422"/><line style="stroke:#000000;stroke-width:1.0;" x1="10" x2="311.6543" y1="54.7422" y2="54.7422"/><text fill="#000000" font-family="sans-serif" font-size="14" font-weight="bold" lengthAdjust="spacing" textLength="46.1631" x="15" y="69.7373">Buyer</text><text fill="#000000" font-family="sans-serif" font-size="14" lengthAdjust="spacing" textLength="13.3506" x="144.2734" y="69.7373">&#160;&#160;&#160;</text><line style="stroke:#000000;stroke-width:1.0;" x1="139.2734" x2="139.2734" y1="54.7422" y2="75.0391"/><line style="stroke:#000000;stroke-width:1.0;" x1="10" x2="311.6543" y1="75.0391" y2="75.0391"/><text fill="#000000" font-family="sans-serif" font-size="14" font-weight="bold" lengthAdjust="spacing" textLength="45.5752" x="15" y="90.0342">Seller</text><text fill="#000000" font-family="sans-serif" font-size="14" lengthAdjust="spacing" textLength="13.3506" x="144.2734" y="90.0342">&#160;&#160;&#160;</text><line style="stroke:#000000;stroke-width:1.0;" x1="139.2734" x2="139.2734" y1="75.0391" y2="95.3359"/><line style="stroke:#000000;stroke-width:1.0;" x1="10" x2="311.6543" y1="95.3359" y2="95.3359"/><text fill="#000000" font-family="sans-serif" font-size="14" font-weight="bold" lengthAdjust="spacing" textLength="119.2734" x="15" y="110.3311">ExpirationTime</text><text fill="#000000" font-family="sans-serif" font-size="14" lengthAdjust="spacing" textLength="162.3809" x="144.2734" y="110.3311">2024-12-31T23:59:59Z</text><line style="stroke:#000000;stroke-width:1.0;" x1="139.2734" x2="139.2734" y1="95.3359" y2="115.6328"/><line style="stroke:#000000;stroke-width:1.0;" x1="10" x2="311.6543" y1="115.6328" y2="115.6328"/><text fill="#000000" font-family="sans-serif" font-size="14" font-weight="bold" lengthAdjust="spacing" textLength="90.2275" x="15" y="130.6279">Credentials</text><text fill="#000000" font-family="sans-serif" font-size="14" lengthAdjust="spacing" textLength="13.3506" x="144.2734" y="130.6279">&#160;&#160;&#160;</text><line style="stroke:#000000;stroke-width:1.0;" x1="139.2734" x2="139.2734" y1="115.6328" y2="135.9297"/><rect fill="none" height="121.7813" rx="5" ry="5" style="stroke:#000000;stroke-width:1.5;" width="301.6543" x="10" y="14.1484"/><rect fill="#F1F1F1" height="20.2969" rx="5" ry="5" style="stroke:#F1F1F1;stroke-width:1.5;" width="193.6191" x="419.5" y="10"/><text fill="#000000" font-family="sans-serif" font-size="14" font-weight="bold" lengthAdjust="spacing" textLength="32.2314" x="424.5" y="24.9951">$ref</text><text fill="#000000" font-family="sans-serif" font-size="14" lengthAdjust="spacing" textLength="141.3877" x="466.7314" y="24.9951">./flavor.schema.json</text><line style="stroke:#000000;stroke-width:1.0;" x1="461.7314" x2="461.7314" y1="10" y2="30.2969"/><rect fill="none" height="20.2969" rx="5" ry="5" style="stroke:#000000;stroke-width:1.5;" width="193.6191" x="419.5" y="10"/><rect fill="#F1F1F1" height="20.2969" rx="5" ry="5" style="stroke:#F1F1F1;stroke-width:1.5;" width="237.8545" x="397.5" y="48"/><text fill="#000000" font-family="sans-serif" font-size="14" font-weight="bold" lengthAdjust="spacing" textLength="32.2314" x="402.5" y="62.9951">$ref</text><text fill="#000000" font-family="sans-serif" font-size="14" lengthAdjust="spacing" textLength="185.623" x="444.7314" y="62.9951">node-identity.schema.json</text><line style="stroke:#000000;stroke-width:1.0;" x1="439.7314" x2="439.7314" y1="48" y2="68.2969"/><rect fill="none" height="20.2969" rx="5" ry="5" style="stroke:#000000;stroke-width:1.5;" width="237.8545" x="397.5" y="48"/><rect fill="#F1F1F1" height="20.2969" rx="5" ry="5" style="stroke:#F1F1F1;stroke-width:1.5;" width="237.8545" x="397.5" y="86"/><text fill="#000000" font-family="sans-serif" font-size="14" font-weight="bold" lengthAdjust="spacing" textLength="32.2314" x="402.5" y="100.9951">$ref</text><text fill="#000000" font-family="sans-serif" font-size="14" lengthAdjust="spacing" textLength="185.623" x="444.7314" y="100.9951">node-identity.schema.json</text><line style="stroke:#000000;stroke-width:1.0;" x1="439.7314" x2="439.7314" y1="86" y2="106.2969"/><rect fill="none" height="20.2969" rx="5" ry="5" style="stroke:#000000;stroke-width:1.5;" width="237.8545" x="397.5" y="86"/><rect fill="#F1F1F1" height="20.2969" rx="5" ry="5" style="stroke:#F1F1F1;stroke-width:1.5;" width="334.6104" x="349" y="124"/><text fill="#000000" font-family="sans-serif" font-size="14" font-weight="bold" lengthAdjust="spacing" textLength="32.2314" x="354" y="138.9951">$ref</text><text fill="#000000" font-family="sans-serif" font-size="14" lengthAdjust="spacing" textLength="282.3789" x="396.2314" y="138.9951">credentials/liqo-credentials.schema.json</text><line style="stroke:#000000;stroke-width:1.0;" x1="391.2314" x2="391.2314" y1="124" y2="144.2969"/><rect fill="none" height="20.2969" rx="5" ry="5" style="stroke:#000000;stroke-width:1.5;" width="334.6104" x="349" y="124"/><path d="M300,44.1484 L313,44.1484 C329.1536,44.1484 332.9738,41.1727 349,39.1484 C370.3648,36.4498 393.2899,33.7281 415.1003,31.221 " fill="none" style="stroke:#000000;stroke-width:1.0;stroke-dasharray:3.0,3.0;"/><path d="M415.4513,34.2864 L417.3994,30.9577 L414.7493,28.1555 L422.764,30.3435 L415.4513,34.2864 " fill="#000000" style="stroke:#000000;stroke-width:1.0;"/><ellipse cx="300" cy="44.1484" fill="#000000" rx="3" ry="3" style="stroke:#000000;stroke-width:1.0;"/><path d="M300,65.1484 L313,65.1484 C338.0347,65.1484 364.7957,64.6101 390.4004,63.832 " fill="none" style="stroke:#000000;stroke-width:1.0;stroke-dasharray:3.0,3.0;"/><path d="M390.4952,66.8504 L392.6641,63.7609 L390.3055,60.8137 L397.9463,63.5949 L390.4952,66.8504 " fill="#000000" style="stroke:#000000;stroke-width:1.0;"/><ellipse cx="300" cy="65.1484" fill="#000000" rx="3" ry="3" style="stroke:#000000;stroke-width:1.0;"/><path d="M300,85.1484 L313,85.1484 C338.0565,85.1484 364.8273,85.9944 390.4346,87.217 " fill="none" style="stroke:#000000;stroke-width:1.0;stroke-dasharray:3.0,3.0;"/><path d="M390.2855,90.2356 L392.6985,87.3288 L390.5836,84.1984 L397.9811,87.5897 L390.2855,90.2356 " fill="#000000" style="stroke:#000000;stroke-width:1.0;"/><ellipse cx="300" cy="85.1484" fill="#000000" rx="3" ry="3" style="stroke:#000000;stroke-width:1.0;"/><path d="M300,126.1484 L313,126.1484 C322.3232,126.1484 331.8855,126.2337 341.5379,126.3867 " fill="none" style="stroke:#000000;stroke-width:1.0;stroke-dasharray:3.0,3.0;"/><path d="M341.4832,129.4897 L343.8652,126.4278 L341.5927,123.2837 L349.2955,126.5236 L341.4832,129.4897 " fill="#000000" style="stroke:#000000;stroke-width:1.0;"/><ellipse cx="300" cy="126.1484" fill="#000000" rx="3" ry="3" style="stroke:#000000;stroke-width:1.0;"/><!--SRC=[fL0xRy8m4DxzAqvH1v2QG1uWo8G8K3K55JN0qCqa1tNbsDHnegAA_rud5D61JhKytVUy6nMQAlrUI46-29XdHL9eHLFzEB52i5pF3testQOPMlTdmepJIYe3dWNDx4xXhgOxdLs3EaNwXZbrQcEhePr-rEFoY7-8XSpGPXaApVJnRuS4EV-dnVJpm1JLJ8eLox4MUbqli5tFzjsLvuUzeVclbuKZXOqZvSNjrFHAw73s8UrVWnibo8cG4OgikJfPSYhqUZ672bLX6e7hr6MSVYkX6kAIGxSFtM7e1g4_WFKgWXfkazR3SWw5B5MAaB52AxOjwutQ9AOLXPVIvESOmlC1HJnvkWnWAYgcfCXDFn9l5bT2Fx37J4E2oZI1pO9CS4TBheqYbHaJ-z2ap-m1cLEnB-dUUACWaJI-wcYmv1i0]--></g></svg>