<svg xmlns="http://www.w3.org/2000/svg" xmlns:xlink="http://www.w3.org/1999/xlink" contentStyleType="text/css" height="168px" preserveAspectRatio="none" style="width:715px;height:168px;background:#FFFFFF;" version="1.1" viewBox="0 0 715 168" width="715px" zoomAndPan="magnify"><defs/><g><rect fill="#F1F1F1" height="142.0781" rx="5" ry="5" style="stroke:#F1F1F1;stroke-width:1.5;" width="322.1689" x="10" y="14.1094"/><text fill="#000000" font-family="sans-serif" font-size="14" font-weight="bold" lengthAdjust="spacing" textLength="84.7246" x="15" y="29.1045">ContractID</text><text fill="#000000" font-family="sans-serif" font-size="14" lengthAdjust="spacing" textLength="92.251" x="164.7881" y="29.1045">12345-abcde</text><line style="stroke:#000000;stroke-width:1.0;" x1="159.7881" x2="159.7881" y1="14.1094" y2="34.4063"/><line style="stroke:#000000;stroke-width:1.0;" x1="10" x2="332.1689" y1="34.4063" y2="34.4063"/><text fill="#000000" font-family="sans-serif" font-size="14" font-weight="bold" lengthAdjust="spacing" textLength="49.458" x="15" y="49.4014">Flavor</text><text fill="#000000" font-family="sans-serif" font-size="14" lengthAdjust="spacing" textLength="13.3506" x="164.7881" y="49.4014">&#160;&#160;&#160;</text><line style="stroke:#000000;stroke-width:1.0;" x1="159.7881" x2="159.7881" y1="34.4063" y2="54.7031"/><line style="stroke:#000000;stroke-width:1.0;" x1="10" x2="332.1689" y1="54.7031" y2="54.7031"/><text fill="#000000" font-family="sans-serif" font-size="14" font-weight="bold" lengthAdjust="spacing" textLength="46.1631" x="15" y="69.6982">Buyer</text><text fill="#000000" font-family="sans-serif" font-size="14" lengthAdjust="spacing" textLength="13.3506" x="164.7881" y="69.6982">&#160;&#160;&#160;</text><line style="stroke:#000000;stroke-width:1.0;" x1="159.7881" x2="159.7881" y1="54.7031" y2="75"/><line style="stroke:#000000;stroke-width:1.0;" x1="10" x2="332.1689" y1="75" y2="75"/><text fill="#000000" font-family="sans-serif" font-size="14" font-weight="bold" lengthAdjust="spacing" textLength="45.5752" x="15" y="89.9951">Seller</text><text fill="#000000" font-family="sans-serif" font-size="14" lengthAdjust="spacing" textLength="13.3506" x="164.7881" y="89.9951">&#160;&#160;&#160;</text><line style="stroke:#000000;stroke-width:1.0;" x1="159.7881" x2="159.7881" y1="75" y2="95.2969"/><line style="stroke:#000000;stroke-width:1.0;" x1="10" x2="332.1689" y1="95.2969" y2="95.2969"/><text fill="#000000" font-family="sans-serif" font-size="14" font-weight="bold" lengthAdjust="spacing" textLength="119.2734" x="15" y="110.292">ExpirationTime</text><text fill="#000000" font-family="sans-serif" font-size="14" lengthAdjust="spacing" textLength="162.3809" x="164.7881" y="110.292">2024-12-31T23:59:59Z</text><line style="stroke:#000000;stroke-width:1.0;" x1="159.7881" x2="159.7881" y1="95.2969" y2="115.5938"/><line style="stroke:#000000;stroke-width:1.0;" x1="10" x2="332.1689" y1="115.5938" y2="115.5938"/><text fill="#000000" font-family="sans-serif" font-size="14" font-weight="bold" lengthAdjust="spacing" textLength="90.2275" x="15" y="130.5889">Credentials</text><text fill="#000000" font-family="sans-serif" font-size="14" lengthAdjust="spacing" textLength="13.3506" x="164.7881" y="130.5889">&#160;&#160;&#160;</text><line style="stroke:#000000;stroke-width:1.0;" x1="159.7881" x2="159.7881" y1="115.5938" y2="135.8906"/><line style="stroke:#000000;stroke-width:1.0;" x1="10" x2="332.1689" y1="135.8906" y2="135.8906"/><text fill="#000000" font-family="sans-serif" font-size="14" font-weight="bold" lengthAdjust="spacing" textLength="139.7881" x="15" y="150.8857">NetworkRequests</text><text fill="#000000" font-family="sans-serif" font-size="14" lengthAdjust="spacing" textLength="121.9736" x="164.7881" y="150.8857">configMap-14921</text><line style="stroke:#000000;stroke-width:1.0;" x1="159.7881" x2="159.7881" y1="135.8906" y2="156.1875"/><rect fill="none" height="142.0781" rx="5" ry="5" style="stroke:#000000;stroke-width:1.5;" width="322.1689" x="10" y="14.1094"/><rect fill="#F1F1F1" height="20.2969" rx="5" ry="5" style="stroke:#F1F1F1;stroke-width:1.5;" width="193.6191" x="439.5" y="10"/><text fill="#000000" font-family="sans-serif" font-size="14" font-weight="bold" lengthAdjust="spacing" textLength="32.2314" x="444.5" y="24.9951">$ref</text><text fill="#000000" font-family="sans-serif" font-size="14" lengthAdjust="spacing" textLength="141.3877" x="486.7314" y="24.9951">./flavor.schema.json</text><line style="stroke:#000000;stroke-width:1.0;" x1="481.7314" x2="481.7314" y1="10" y2="30.2969"/><rect fill="none" height="20.2969" rx="5" ry="5" style="stroke:#000000;stroke-width:1.5;" width="193.6191" x="439.5" y="10"/><rect fill="#F1F1F1" height="20.2969" rx="5" ry="5" style="stroke:#F1F1F1;stroke-width:1.5;" width="237.8545" x="417.5" y="48"/><text fill="#000000" font-family="sans-serif" font-size="14" font-weight="bold" lengthAdjust="spacing" textLength="32.2314" x="422.5" y="62.9951">$ref</text><text fill="#000000" font-family="sans-serif" font-size="14" lengthAdjust="spacing" textLength="185.623" x="464.7314" y="62.9951">node-identity.schema.json</text><line style="stroke:#000000;stroke-width:1.0;" x1="459.7314" x2="459.7314" y1="48" y2="68.2969"/><rect fill="none" height="20.2969" rx="5" ry="5" style="stroke:#000000;stroke-width:1.5;" width="237.8545" x="417.5" y="48"/><rect fill="#F1F1F1" height="20.2969" rx="5" ry="5" style="stroke:#F1F1F1;stroke-width:1.5;" width="237.8545" x="417.5" y="86"/><text fill="#000000" font-family="sans-serif" font-size="14" font-weight="bold" lengthAdjust="spacing" textLength="32.2314" x="422.5" y="100.9951">$ref</text><text fill="#000000" font-family="sans-serif" font-size="14" lengthAdjust="spacing" textLength="185.623" x="464.7314" y="100.9951">node-identity.schema.json</text><line style="stroke:#000000;stroke-width:1.0;" x1="459.7314" x2="459.7314" y1="86" y2="106.2969"/><rect fill="none" height="20.2969" rx="5" ry="5" style="stroke:#000000;stroke-width:1.5;" width="237.8545" x="417.5" y="86"/><rect fill="#F1F1F1" height="20.2969" rx="5" ry="5" style="stroke:#F1F1F1;stroke-width:1.5;" width="334.6104" x="369" y="124"/><text fill="#000000" font-family="sans-serif" font-size="14" font-weight="bold" lengthAdjust="spacing" textLength="32.2314" x="374" y="138.9951">$ref</text><text fill="#000000" font-family="sans-serif" font-size="14" lengthAdjust="spacing" textLength="282.3789" x="416.2314" y="138.9951">credentials/liqo-credentials.schema.json</text><line style="stroke:#000000;stroke-width:1.0;" x1="411.2314" x2="411.2314" y1="124" y2="144.2969"/><rect fill="none" height="20.2969" rx="5" ry="5" style="stroke:#000000;stroke-width:1.5;" width="334.6104" x="369" y="124"/><path d="M319.5,44.1484 L332.5,44.1484 C348.8737,44.1484 352.7534,41.1852 369,39.1484 C390.4968,36.4535 413.5715,33.7236 435.5005,31.2057 " fill="none" style="stroke:#000000;stroke-width:1.0;stroke-dasharray:3.0,3.0;"/><path d="M435.8531,34.2875 L437.8118,30.9413 L435.148,28.124 L443.2049,30.3244 L435.8531,34.2875 " fill="#000000" style="stroke:#000000;stroke-width:1.0;"/><ellipse cx="319.5" cy="44.1484" fill="#000000" rx="3" ry="3" style="stroke:#000000;stroke-width:1.0;"/><path d="M319.5,65.1484 L332.5,65.1484 C357.6767,65.1484 384.5952,64.6067 410.3377,63.8246 " fill="none" style="stroke:#000000;stroke-width:1.0;stroke-dasharray:3.0,3.0;"/><path d="M410.433,66.859 L412.6135,63.7531 L410.2423,60.7901 L417.9238,63.5862 L410.433,66.859 " fill="#000000" style="stroke:#000000;stroke-width:1.0;"/><ellipse cx="319.5" cy="65.1484" fill="#000000" rx="3" ry="3" style="stroke:#000000;stroke-width:1.0;"/><path d="M319.5,85.1484 L332.5,85.1484 C357.6986,85.1484 384.6267,85.9998 410.3718,87.2288 " fill="none" style="stroke:#000000;stroke-width:1.0;stroke-dasharray:3.0,3.0;"/><path d="M410.222,90.2635 L412.6478,87.3412 L410.5216,84.1941 L417.9585,87.6034 L410.222,90.2635 " fill="#000000" style="stroke:#000000;stroke-width:1.0;"/><ellipse cx="319.5" cy="85.1484" fill="#000000" rx="3" ry="3" style="stroke:#000000;stroke-width:1.0;"/><path d="M319.5,126.1484 L332.5,126.1484 C342.0796,126.1484 351.9109,126.238 361.8333,126.3983 " fill="none" style="stroke:#000000;stroke-width:1.0;stroke-dasharray:3.0,3.0;"/><path d="M361.7789,129.4394 L364.1141,126.4391 L361.8877,123.3572 L369.4361,126.5343 L361.7789,129.4394 " fill="#000000" style="stroke:#000000;stroke-width:1.0;"/><ellipse cx="319.5" cy="126.1484" fill="#000000" rx="3" ry="3" style="stroke:#000000;stroke-width:1.0;"/><!--SRC=[fP5FJy8m6CRl_HJDuW4IDzWV2En4662SJ0a33zxAzcvMjnRQ3YM6xsut97YGaqrFx_CylpvlEfAA2FKcEKDV2EjZ19mfGH9rFp5yRDYEw_LCiabIC6vFXbb1zbneyHHePZS2ijfkTR96jMJo2YMnQh3Hs8u_wN5rW2jXnbCmQGfCKNMuJeYXAFw9c7vkgI2AShQY9TH1f-jufksOhhroNBytrFVbl70We26IGlxzQd8nT0gwu-QlmVKIZw0-k7XVmgu2gMG3uYoZUKIsfkqD7Tj0HuH6mDBcVz2Y84ojepdUWv2wExQjkhRLRyL4uR0gSBUFkqFVzdntWDUh0DTo6xNk5dCiUIKIm2cLIj1DLU_UHY7P4xoiTDCIVFoq1HPE7iu3F6LxAZWhzIOeV8ukXhvdZgd2CGZT13z7Q08PgGgb4mbFASjz_VhC7A0vONb5Siq6XWAkkUAWjVWR]--></g></svg>