<svg xmlns="http://www.w3.org/2000/svg" xmlns:xlink="http://www.w3.org/1999/xlink" contentStyleType="text/css" height="360px" preserveAspectRatio="none" style="width:960px;height:360px;background:#FFFFFF;" version="1.1" viewBox="0 0 960 360" width="960px" zoomAndPan="magnify"><defs/><g><rect fill="#F1F1F1" height="182.6719" rx="5" ry="5" style="stroke:#F1F1F1;stroke-width:1.5;" width="354.5166" x="10" y="62.2422"/><text fill="#000000" font-family="sans-serif" font-size="14" font-weight="bold" lengthAdjust="spacing" textLength="61.2158" x="15" y="77.2373">flavorId</text><text fill="#000000" font-family="sans-serif" font-size="14" lengthAdjust="spacing" textLength="71.7773" x="197.1357" y="77.2373">flavor-123</text><line style="stroke:#000000;stroke-width:1.0;" x1="192.1357" x2="192.1357" y1="62.2422" y2="82.5391"/><line style="stroke:#000000;stroke-width:1.0;" x1="10" x2="364.5166" y1="82.5391" y2="82.5391"/><text fill="#000000" font-family="sans-serif" font-size="14" font-weight="bold" lengthAdjust="spacing" textLength="82.1201" x="15" y="97.5342">providerId</text><text fill="#000000" font-family="sans-serif" font-size="14" lengthAdjust="spacing" textLength="90.4121" x="197.1357" y="97.5342">provider-456</text><line style="stroke:#000000;stroke-width:1.0;" x1="192.1357" x2="192.1357" y1="82.5391" y2="102.8359"/><line style="stroke:#000000;stroke-width:1.0;" x1="10" x2="364.5166" y1="102.8359" y2="102.8359"/><text fill="#000000" font-family="sans-serif" font-size="14" font-weight="bold" lengthAdjust="spacing" textLength="84.6563" x="15" y="117.8311">timestamp</text><text fill="#000000" font-family="sans-serif" font-size="14" lengthAdjust="spacing" textLength="162.3809" x="197.1357" y="117.8311">2024-07-15T12:00:00Z</text><line style="stroke:#000000;stroke-width:1.0;" x1="192.1357" x2="192.1357" y1="102.8359" y2="123.1328"/><line style="stroke:#000000;stroke-width:1.0;" x1="10" x2="364.5166" y1="123.1328" y2="123.1328"/><text fill="#000000" font-family="sans-serif" font-size="14" font-weight="bold" lengthAdjust="spacing" textLength="63.2393" x="15" y="138.1279">location</text><text fill="#000000" font-family="sans-serif" font-size="14" lengthAdjust="spacing" textLength="13.3506" x="197.1357" y="138.1279">&#160;&#160;&#160;</text><line style="stroke:#000000;stroke-width:1.0;" x1="192.1357" x2="192.1357" y1="123.1328" y2="143.4297"/><line style="stroke:#000000;stroke-width:1.0;" x1="10" x2="364.5166" y1="143.4297" y2="143.4297"/><text fill="#000000" font-family="sans-serif" font-size="14" font-weight="bold" lengthAdjust="spacing" textLength="172.1357" x="15" y="158.4248">networkPropertyType</text><text fill="#000000" font-family="sans-serif" font-size="14" lengthAdjust="spacing" textLength="19.7559" x="197.1357" y="158.4248">5G</text><line style="stroke:#000000;stroke-width:1.0;" x1="192.1357" x2="192.1357" y1="143.4297" y2="163.7266"/><line style="stroke:#000000;stroke-width:1.0;" x1="10" x2="364.5166" y1="163.7266" y2="163.7266"/><text fill="#000000" font-family="sans-serif" font-size="14" font-weight="bold" lengthAdjust="spacing" textLength="35.335" x="15" y="178.7217">type</text><text fill="#000000" font-family="sans-serif" font-size="14" lengthAdjust="spacing" textLength="13.3506" x="197.1357" y="178.7217">&#160;&#160;&#160;</text><line style="stroke:#000000;stroke-width:1.0;" x1="192.1357" x2="192.1357" y1="163.7266" y2="184.0234"/><line style="stroke:#000000;stroke-width:1.0;" x1="10" x2="364.5166" y1="184.0234" y2="184.0234"/><text fill="#000000" font-family="sans-serif" font-size="14" font-weight="bold" lengthAdjust="spacing" textLength="39.5186" x="15" y="199.0186">price</text><text fill="#000000" font-family="sans-serif" font-size="14" lengthAdjust="spacing" textLength="13.3506" x="197.1357" y="199.0186">&#160;&#160;&#160;</text><line style="stroke:#000000;stroke-width:1.0;" x1="192.1357" x2="192.1357" y1="184.0234" y2="204.3203"/><line style="stroke:#000000;stroke-width:1.0;" x1="10" x2="364.5166" y1="204.3203" y2="204.3203"/><text fill="#000000" font-family="sans-serif" font-size="14" font-weight="bold" lengthAdjust="spacing" textLength="48.918" x="15" y="219.3154">owner</text><text fill="#000000" font-family="sans-serif" font-size="14" lengthAdjust="spacing" textLength="13.3506" x="197.1357" y="219.3154">&#160;&#160;&#160;</text><line style="stroke:#000000;stroke-width:1.0;" x1="192.1357" x2="192.1357" y1="204.3203" y2="224.6172"/><line style="stroke:#000000;stroke-width:1.0;" x1="10" x2="364.5166" y1="224.6172" y2="224.6172"/><text fill="#000000" font-family="sans-serif" font-size="14" font-weight="bold" lengthAdjust="spacing" textLength="87.3018" x="15" y="239.6123">availability</text><text fill="#000000" font-family="sans-serif" font-size="14" lengthAdjust="spacing" textLength="45.7324" x="197.1357" y="239.6123">&#9745; true</text><line style="stroke:#000000;stroke-width:1.0;" x1="192.1357" x2="192.1357" y1="224.6172" y2="244.9141"/><rect fill="none" height="182.6719" rx="5" ry="5" style="stroke:#000000;stroke-width:1.5;" width="354.5166" x="10" y="62.2422"/><rect fill="#F1F1F1" height="101.4844" rx="5" ry="5" style="stroke:#F1F1F1;stroke-width:1.5;" width="284.2637" x="403.5" y="10"/><text fill="#000000" font-family="sans-serif" font-size="14" font-weight="bold" lengthAdjust="spacing" textLength="61.9131" x="408.5" y="24.9951">latitude</text><text fill="#000000" font-family="sans-serif" font-size="14" lengthAdjust="spacing" textLength="57.8936" x="543.9668" y="24.9951">37.7749</text><line style="stroke:#000000;stroke-width:1.0;" x1="538.9668" x2="538.9668" y1="10" y2="30.2969"/><line style="stroke:#000000;stroke-width:1.0;" x1="403.5" x2="687.7637" y1="30.2969" y2="30.2969"/><text fill="#000000" font-family="sans-serif" font-size="14" font-weight="bold" lengthAdjust="spacing" textLength="75.3799" x="408.5" y="45.292">longitude</text><text fill="#000000" font-family="sans-serif" font-size="14" lengthAdjust="spacing" textLength="71.8525" x="543.9668" y="45.292">-122.4194</text><line style="stroke:#000000;stroke-width:1.0;" x1="538.9668" x2="538.9668" y1="30.2969" y2="50.5938"/><line style="stroke:#000000;stroke-width:1.0;" x1="403.5" x2="687.7637" y1="50.5938" y2="50.5938"/><text fill="#000000" font-family="sans-serif" font-size="14" font-weight="bold" lengthAdjust="spacing" textLength="60.5732" x="408.5" y="65.5889">country</text><text fill="#000000" font-family="sans-serif" font-size="14" lengthAdjust="spacing" textLength="28.7109" x="543.9668" y="65.5889">USA</text><line style="stroke:#000000;stroke-width:1.0;" x1="538.9668" x2="538.9668" y1="50.5938" y2="70.8906"/><line style="stroke:#000000;stroke-width:1.0;" x1="403.5" x2="687.7637" y1="70.8906" y2="70.8906"/><text fill="#000000" font-family="sans-serif" font-size="14" font-weight="bold" lengthAdjust="spacing" textLength="28.916" x="408.5" y="85.8857">city</text><text fill="#000000" font-family="sans-serif" font-size="14" lengthAdjust="spacing" textLength="97.1934" x="543.9668" y="85.8857">San Francisco</text><line style="stroke:#000000;stroke-width:1.0;" x1="538.9668" x2="538.9668" y1="70.8906" y2="91.1875"/><line style="stroke:#000000;stroke-width:1.0;" x1="403.5" x2="687.7637" y1="91.1875" y2="91.1875"/><text fill="#000000" font-family="sans-serif" font-size="14" font-weight="bold" lengthAdjust="spacing" textLength="125.4668" x="408.5" y="106.1826">additionalNotes</text><text fill="#000000" font-family="sans-serif" font-size="14" lengthAdjust="spacing" textLength="138.7969" x="543.9668" y="106.1826">Near the waterfront</text><line style="stroke:#000000;stroke-width:1.0;" x1="538.9668" x2="538.9668" y1="91.1875" y2="111.4844"/><rect fill="none" height="101.4844" rx="5" ry="5" style="stroke:#000000;stroke-width:1.5;" width="284.2637" x="403.5" y="10"/><rect fill="#F1F1F1" height="40.5938" rx="5" ry="5" style="stroke:#F1F1F1;stroke-width:1.5;" width="111.8955" x="489.5" y="129.2422"/><text fill="#000000" font-family="sans-serif" font-size="14" font-weight="bold" lengthAdjust="spacing" textLength="43.4971" x="494.5" y="144.2373">name</text><text fill="#000000" font-family="sans-serif" font-size="14" lengthAdjust="spacing" textLength="48.3984" x="547.9971" y="144.2373">k8slice</text><line style="stroke:#000000;stroke-width:1.0;" x1="542.9971" x2="542.9971" y1="129.2422" y2="149.5391"/><line style="stroke:#000000;stroke-width:1.0;" x1="489.5" x2="601.3955" y1="149.5391" y2="149.5391"/><text fill="#000000" font-family="sans-serif" font-size="14" font-weight="bold" lengthAdjust="spacing" textLength="35.6084" x="494.5" y="164.5342">data</text><text fill="#000000" font-family="sans-serif" font-size="14" lengthAdjust="spacing" textLength="13.3506" x="547.9971" y="164.5342">&#160;&#160;&#160;</text><line style="stroke:#000000;stroke-width:1.0;" x1="542.9971" x2="542.9971" y1="149.5391" y2="169.8359"/><rect fill="none" height="40.5938" rx="5" ry="5" style="stroke:#000000;stroke-width:1.5;" width="111.8955" x="489.5" y="129.2422"/><rect fill="#F1F1F1" height="20.2969" rx="5" ry="5" style="stroke:#F1F1F1;stroke-width:1.5;" width="222.043" x="726" y="149.5938"/><text fill="#000000" font-family="sans-serif" font-size="14" font-weight="bold" lengthAdjust="spacing" textLength="32.2314" x="731" y="164.5889">$ref</text><text fill="#000000" font-family="sans-serif" font-size="14" lengthAdjust="spacing" textLength="169.8115" x="773.2314" y="164.5889">flavor-types/k8slice.json</text><line style="stroke:#000000;stroke-width:1.0;" x1="768.2314" x2="768.2314" y1="149.5938" y2="169.8906"/><rect fill="none" height="20.2969" rx="5" ry="5" style="stroke:#000000;stroke-width:1.5;" width="222.043" x="726" y="149.5938"/><rect fill="#F1F1F1" height="60.8906" rx="5" ry="5" style="stroke:#F1F1F1;stroke-width:1.5;" width="146.5742" x="472" y="188.2422"/><text fill="#000000" font-family="sans-serif" font-size="14" font-weight="bold" lengthAdjust="spacing" textLength="60.2793" x="477" y="203.2373">amount</text><text fill="#000000" font-family="sans-serif" font-size="14" lengthAdjust="spacing" textLength="26.7217" x="555.9609" y="203.2373">100</text><line style="stroke:#000000;stroke-width:1.0;" x1="550.9609" x2="550.9609" y1="188.2422" y2="208.5391"/><line style="stroke:#000000;stroke-width:1.0;" x1="472" x2="618.5742" y1="208.5391" y2="208.5391"/><text fill="#000000" font-family="sans-serif" font-size="14" font-weight="bold" lengthAdjust="spacing" textLength="68.9609" x="477" y="223.5342">currency</text><text fill="#000000" font-family="sans-serif" font-size="14" lengthAdjust="spacing" textLength="29.9141" x="555.9609" y="223.5342">USD</text><line style="stroke:#000000;stroke-width:1.0;" x1="550.9609" x2="550.9609" y1="208.5391" y2="228.8359"/><line style="stroke:#000000;stroke-width:1.0;" x1="472" x2="618.5742" y1="228.8359" y2="228.8359"/><text fill="#000000" font-family="sans-serif" font-size="14" font-weight="bold" lengthAdjust="spacing" textLength="50.8594" x="477" y="243.8311">period</text><text fill="#000000" font-family="sans-serif" font-size="14" lengthAdjust="spacing" textLength="57.6133" x="555.9609" y="243.8311">monthly</text><line style="stroke:#000000;stroke-width:1.0;" x1="550.9609" x2="550.9609" y1="228.8359" y2="249.1328"/><rect fill="none" height="60.8906" rx="5" ry="5" style="stroke:#000000;stroke-width:1.5;" width="146.5742" x="472" y="188.2422"/><rect fill="#F1F1F1" height="81.1875" rx="5" ry="5" style="stroke:#F1F1F1;stroke-width:1.5;" width="287.3672" x="402" y="267.1484"/><text fill="#000000" font-family="sans-serif" font-size="14" font-weight="bold" lengthAdjust="spacing" textLength="58.4404" x="407" y="282.1436">domain</text><text fill="#000000" font-family="sans-serif" font-size="14" lengthAdjust="spacing" textLength="94.8555" x="589.5117" y="282.1436">example.com</text><line style="stroke:#000000;stroke-width:1.0;" x1="584.5117" x2="584.5117" y1="267.1484" y2="287.4453"/><line style="stroke:#000000;stroke-width:1.0;" x1="402" x2="689.3672" y1="287.4453" y2="287.4453"/><text fill="#000000" font-family="sans-serif" font-size="14" font-weight="bold" lengthAdjust="spacing" textLength="54.332" x="407" y="302.4404">nodeId</text><text fill="#000000" font-family="sans-serif" font-size="14" lengthAdjust="spacing" textLength="66.7119" x="589.5117" y="302.4404">node-789</text><line style="stroke:#000000;stroke-width:1.0;" x1="584.5117" x2="584.5117" y1="287.4453" y2="307.7422"/><line style="stroke:#000000;stroke-width:1.0;" x1="402" x2="689.3672" y1="307.7422" y2="307.7422"/><text fill="#000000" font-family="sans-serif" font-size="14" font-weight="bold" lengthAdjust="spacing" textLength="14.8203" x="407" y="322.7373">ip</text><text fill="#000000" font-family="sans-serif" font-size="14" lengthAdjust="spacing" textLength="84.6084" x="589.5117" y="322.7373">192.168.1.1</text><line style="stroke:#000000;stroke-width:1.0;" x1="584.5117" x2="584.5117" y1="307.7422" y2="328.0391"/><line style="stroke:#000000;stroke-width:1.0;" x1="402" x2="689.3672" y1="328.0391" y2="328.0391"/><text fill="#000000" font-family="sans-serif" font-size="14" font-weight="bold" lengthAdjust="spacing" textLength="172.5117" x="407" y="343.0342">additionalInformation</text><text fill="#000000" font-family="sans-serif" font-size="14" lengthAdjust="spacing" textLength="13.3506" x="589.5117" y="343.0342">&#160;&#160;&#160;</text><line style="stroke:#000000;stroke-width:1.0;" x1="584.5117" x2="584.5117" y1="328.0391" y2="348.3359"/><rect fill="none" height="81.1875" rx="5" ry="5" style="stroke:#000000;stroke-width:1.5;" width="287.3672" x="402" y="267.1484"/><rect fill="#F1F1F1" height="20.2969" rx="5" ry="5" style="stroke:#F1F1F1;stroke-width:1.5;" width="127.1943" x="773.5" y="327.5938"/><text fill="#000000" font-family="sans-serif" font-size="14" font-weight="bold" lengthAdjust="spacing" textLength="50.1895" x="778.5" y="342.5889">LiqoID</text><text fill="#000000" font-family="sans-serif" font-size="14" lengthAdjust="spacing" textLength="57.0049" x="838.6895" y="342.5889">liqo-001</text><line style="stroke:#000000;stroke-width:1.0;" x1="833.6895" x2="833.6895" y1="327.5938" y2="347.8906"/><rect fill="none" height="20.2969" rx="5" ry="5" style="stroke:#000000;stroke-width:1.5;" width="127.1943" x="773.5" y="327.5938"/><path d="M353,133.7422 L366,133.7422 C366.904,133.7422 387.492,125.4664 414.4062,114.4877 " fill="none" style="stroke:#000000;stroke-width:1.0;stroke-dasharray:3.0,3.0;"/><path d="M415.5447,117.276 L416.4975,113.6339 L413.2678,111.6994 L421.377,111.6417 L415.5447,117.276 " fill="#000000" style="stroke:#000000;stroke-width:1.0;"/><ellipse cx="353" cy="133.7422" fill="#000000" rx="3" ry="3" style="stroke:#000000;stroke-width:1.0;"/><path d="M590,159.7422 L603,159.7422 C640.5624,159.7422 681.5236,159.7422 718.5024,159.7422 " fill="none" style="stroke:#000000;stroke-width:1.0;stroke-dasharray:3.0,3.0;"/><path d="M718.5024,162.8733 L720.8507,159.7422 L718.5024,156.6111 L726.3302,159.7422 L718.5024,162.8733 " fill="#000000" style="stroke:#000000;stroke-width:1.0;"/><ellipse cx="590" cy="159.7422" fill="#000000" rx="3" ry="3" style="stroke:#000000;stroke-width:1.0;"/><path d="M353,173.7422 L366,173.7422 C404.7693,173.7422 447.8464,168.1432 482.0253,162.3539 " fill="none" style="stroke:#000000;stroke-width:1.0;stroke-dasharray:3.0,3.0;"/><path d="M482.5511,165.3925 L484.3043,161.9595 L481.4996,159.3153 L489.6218,161.0394 L482.5511,165.3925 " fill="#000000" style="stroke:#000000;stroke-width:1.0;"/><ellipse cx="353" cy="173.7422" fill="#000000" rx="3" ry="3" style="stroke:#000000;stroke-width:1.0;"/><path d="M353,193.7422 L366,193.7422 C398.3978,193.7422 433.7797,197.8089 464.4685,202.6619 " fill="none" style="stroke:#000000;stroke-width:1.0;stroke-dasharray:3.0,3.0;"/><path d="M463.969,205.7405 L466.7774,203.0365 L464.968,199.5833 L472.1649,203.9106 L463.969,205.7405 " fill="#000000" style="stroke:#000000;stroke-width:1.0;"/><ellipse cx="353" cy="193.7422" fill="#000000" rx="3" ry="3" style="stroke:#000000;stroke-width:1.0;"/><path d="M677,337.7422 L690,337.7422 C714.7863,337.7422 741.9314,337.7422 766.0476,337.7422 " fill="none" style="stroke:#000000;stroke-width:1.0;stroke-dasharray:3.0,3.0;"/><path d="M766.0476,340.8289 L768.3626,337.7422 L766.0476,334.6555 L773.7643,337.7422 L766.0476,340.8289 " fill="#000000" style="stroke:#000000;stroke-width:1.0;"/><ellipse cx="677" cy="337.7422" fill="#000000" rx="3" ry="3" style="stroke:#000000;stroke-width:1.0;"/><path d="M353,214.7422 L366,214.7422 C391.267,214.7422 381.2552,244.3175 402,258.7422 C404.1008,260.203 406.249,261.6235 408.4379,263.0048 " fill="none" style="stroke:#000000;stroke-width:1.0;stroke-dasharray:3.0,3.0;"/><path d="M406.8271,265.6778 L410.4426,264.213 L410.0488,260.3319 L415.1203,267.032 L406.8271,265.6778 " fill="#000000" style="stroke:#000000;stroke-width:1.0;"/><ellipse cx="353" cy="214.7422" fill="#000000" rx="3" ry="3" style="stroke:#000000;stroke-width:1.0;"/><!--SRC=[TLFBSjem5DthApIUBfAPshMCUNcLDZGP2AHCW2owKwmBKIDBhYn3cGx_Niasn9ws7Y-aUyuzzwcRmb1jVXHAejy8sy_R2hfNUigyv7psITJpFjPehjMUCsZmyysF-uCpm_0Ch6YMEq8KHh4V3dtINvCe2KFxVpyJXKgfuKfQNXswjbgRAHauxzum60xZSUFGECdT1RU9HK5Cnd6RaQfI6drq-6RrkODmKvbNLE8xJMNAYrIr2PGnxZAYub4PA1pt4QZ6vXNmWHhGMwsayIg7KrE517DG-csfLGxQ7DV7l4gjVt_fHsrfbIXfLd7UHeNWARGpODJG3hcoVj2mROt3AHQV6k_0pSwxy4-Tv7Bjz3l1QURwuzH867QwKseDCcqQDsb3jZAkge5djlvNSUosG1qaw6uKfZBAtMGz-6LNGK2GggmjAHM3UeVSoH-EEbFcrVAGSHIGmIWW0VdtbAPogtJszn9Lj3d_gQOJfoFioGz3yhykqJtbWhvmKU-7qIMW4q8t85drCD1IK6asYpdUWoviC4m2jzZ1u6f53PwL0eS378uJ4YUz4TwiRx63hz7L_NAE2rNg533ZXT7yfNJ9NgEPZOcVx23iOqdmjnpaRF9mDk2lSi_jfcKW3PezBzu9WzZ_mWrUWRQPuES5ci2Mbi9OZrGnBdU9ZNxdZz2Sobr9TrOR9BgjNuJ5Ldy0]--></g></svg>