<?xml version="1.0" encoding="us-ascii" standalone="no"?><svg xmlns="http://www.w3.org/2000/svg" xmlns:xlink="http://www.w3.org/1999/xlink" contentStyleType="text/css" height="424px" preserveAspectRatio="none" style="width:764px;height:424px;background:#FFFFFF;" version="1.1" viewBox="0 0 764 424" width="764px" zoomAndPan="magnify"><defs/><g><rect fill="#F1F1F1" height="20.2969" rx="5" ry="5" style="stroke:#F1F1F1;stroke-width:1.5;" width="90" x="10" y="159.5938"/><text fill="#000000" font-family="sans-serif" font-size="14" font-weight="bold" lengthAdjust="spacing" textLength="58" x="15" y="174.5889">K8Slice</text><text fill="#000000" font-family="sans-serif" font-size="14" lengthAdjust="spacing" textLength="12" x="83" y="174.5889">&#160;&#160;&#160;</text><line style="stroke:#000000;stroke-width:1.0;" x1="78" x2="78" y1="159.5938" y2="179.8906"/><rect fill="none" height="20.2969" rx="5" ry="5" style="stroke:#000000;stroke-width:1.5;" width="90" x="10" y="159.5938"/><rect fill="#F1F1F1" height="60.8906" rx="5" ry="5" style="stroke:#F1F1F1;stroke-width:1.5;" width="157" x="137" y="139.2422"/><text fill="#000000" font-family="sans-serif" font-size="14" font-weight="bold" lengthAdjust="spacing" textLength="125" x="142" y="154.2373">Characteristics</text><text fill="#000000" font-family="sans-serif" font-size="14" lengthAdjust="spacing" textLength="12" x="277" y="154.2373">&#160;&#160;&#160;</text><line style="stroke:#000000;stroke-width:1.0;" x1="272" x2="272" y1="139.2422" y2="159.5391"/><line style="stroke:#000000;stroke-width:1.0;" x1="137" x2="294" y1="159.5391" y2="159.5391"/><text fill="#000000" font-family="sans-serif" font-size="14" font-weight="bold" lengthAdjust="spacing" textLength="84" x="142" y="174.5342">Properties</text><text fill="#000000" font-family="sans-serif" font-size="14" lengthAdjust="spacing" textLength="12" x="277" y="174.5342">&#160;&#160;&#160;</text><line style="stroke:#000000;stroke-width:1.0;" x1="272" x2="272" y1="159.5391" y2="179.8359"/><line style="stroke:#000000;stroke-width:1.0;" x1="137" x2="294" y1="179.8359" y2="179.8359"/><text fill="#000000" font-family="sans-serif" font-size="14" font-weight="bold" lengthAdjust="spacing" textLength="48" x="142" y="194.8311">Policy</text><text fill="#000000" font-family="sans-serif" font-size="14" lengthAdjust="spacing" textLength="12" x="277" y="194.8311">&#160;&#160;&#160;</text><line style="stroke:#000000;stroke-width:1.0;" x1="272" x2="272" y1="179.8359" y2="200.1328"/><rect fill="none" height="60.8906" rx="5" ry="5" style="stroke:#000000;stroke-width:1.5;" width="157" x="137" y="139.2422"/><rect fill="#F1F1F1" height="101.4844" rx="5" ry="5" style="stroke:#F1F1F1;stroke-width:1.5;" width="118" x="386" y="10"/><text fill="#000000" font-family="sans-serif" font-size="14" font-weight="bold" lengthAdjust="spacing" textLength="31" x="391" y="24.9951">CPU</text><text fill="#000000" font-family="sans-serif" font-size="14" lengthAdjust="spacing" textLength="8" x="465" y="24.9951">4</text><line style="stroke:#000000;stroke-width:1.0;" x1="460" x2="460" y1="10" y2="30.2969"/><line style="stroke:#000000;stroke-width:1.0;" x1="386" x2="504" y1="30.2969" y2="30.2969"/><text fill="#000000" font-family="sans-serif" font-size="14" font-weight="bold" lengthAdjust="spacing" textLength="39" x="391" y="45.292">Pods</text><text fill="#000000" font-family="sans-serif" font-size="14" lengthAdjust="spacing" textLength="17" x="465" y="45.292">20</text><line style="stroke:#000000;stroke-width:1.0;" x1="460" x2="460" y1="30.2969" y2="50.5938"/><line style="stroke:#000000;stroke-width:1.0;" x1="386" x2="504" y1="50.5938" y2="50.5938"/><text fill="#000000" font-family="sans-serif" font-size="14" font-weight="bold" lengthAdjust="spacing" textLength="64" x="391" y="65.5889">Memory</text><text fill="#000000" font-family="sans-serif" font-size="14" lengthAdjust="spacing" textLength="34" x="465" y="65.5889">8192</text><line style="stroke:#000000;stroke-width:1.0;" x1="460" x2="460" y1="50.5938" y2="70.8906"/><line style="stroke:#000000;stroke-width:1.0;" x1="386" x2="504" y1="70.8906" y2="70.8906"/><text fill="#000000" font-family="sans-serif" font-size="14" font-weight="bold" lengthAdjust="spacing" textLength="33" x="391" y="85.8857">GPU</text><text fill="#000000" font-family="sans-serif" font-size="14" lengthAdjust="spacing" textLength="9" x="465" y="85.8857">1</text><line style="stroke:#000000;stroke-width:1.0;" x1="460" x2="460" y1="70.8906" y2="91.1875"/><line style="stroke:#000000;stroke-width:1.0;" x1="386" x2="504" y1="91.1875" y2="91.1875"/><text fill="#000000" font-family="sans-serif" font-size="14" font-weight="bold" lengthAdjust="spacing" textLength="64" x="391" y="106.1826">Storage</text><text fill="#000000" font-family="sans-serif" font-size="14" lengthAdjust="spacing" textLength="27" x="465" y="106.1826">500</text><line style="stroke:#000000;stroke-width:1.0;" x1="460" x2="460" y1="91.1875" y2="111.4844"/><rect fill="none" height="101.4844" rx="5" ry="5" style="stroke:#000000;stroke-width:1.5;" width="118" x="386" y="10"/><rect fill="#F1F1F1" height="81.1875" rx="5" ry="5" style="stroke:#F1F1F1;stroke-width:1.5;" width="228" x="331" y="129.1484"/><text fill="#000000" font-family="sans-serif" font-size="14" font-weight="bold" lengthAdjust="spacing" textLength="64" x="336" y="144.1436">Latency</text><text fill="#000000" font-family="sans-serif" font-size="14" lengthAdjust="spacing" textLength="17" x="537" y="144.1436">20</text><line style="stroke:#000000;stroke-width:1.0;" x1="532" x2="532" y1="129.1484" y2="149.4453"/><line style="stroke:#000000;stroke-width:1.0;" x1="331" x2="559" y1="149.4453" y2="149.4453"/><text fill="#000000" font-family="sans-serif" font-size="14" font-weight="bold" lengthAdjust="spacing" textLength="151" x="336" y="164.4404">SecurityStandards</text><text fill="#000000" font-family="sans-serif" font-size="14" lengthAdjust="spacing" textLength="12" x="537" y="164.4404">&#160;&#160;&#160;</text><line style="stroke:#000000;stroke-width:1.0;" x1="532" x2="532" y1="149.4453" y2="169.7422"/><line style="stroke:#000000;stroke-width:1.0;" x1="331" x2="559" y1="169.7422" y2="169.7422"/><text fill="#000000" font-family="sans-serif" font-size="14" font-weight="bold" lengthAdjust="spacing" textLength="134" x="336" y="184.7373">CarbonFootprint</text><text fill="#000000" font-family="sans-serif" font-size="14" lengthAdjust="spacing" textLength="12" x="537" y="184.7373">&#160;&#160;&#160;</text><line style="stroke:#000000;stroke-width:1.0;" x1="532" x2="532" y1="169.7422" y2="190.0391"/><line style="stroke:#000000;stroke-width:1.0;" x1="331" x2="559" y1="190.0391" y2="190.0391"/><text fill="#000000" font-family="sans-serif" font-size="14" font-weight="bold" lengthAdjust="spacing" textLength="191" x="336" y="205.0342">WorkloadCaracteristics</text><text fill="#000000" font-family="sans-serif" font-size="14" lengthAdjust="spacing" textLength="12" x="537" y="205.0342">&#160;&#160;&#160;</text><line style="stroke:#000000;stroke-width:1.0;" x1="532" x2="532" y1="190.0391" y2="210.3359"/><rect fill="none" height="81.1875" rx="5" ry="5" style="stroke:#000000;stroke-width:1.5;" width="228" x="331" y="129.1484"/><rect fill="#F1F1F1" height="20.2969" rx="5" ry="5" style="stroke:#F1F1F1;stroke-width:1.5;" width="51" x="648.5" y="95.5938"/><text fill="#000000" font-family="sans-serif" font-size="14" lengthAdjust="spacing" textLength="41" x="653.5" y="110.5889">GDPR</text><rect fill="none" height="20.2969" rx="5" ry="5" style="stroke:#000000;stroke-width:1.5;" width="51" x="648.5" y="95.5938"/><rect fill="#F1F1F1" height="40.5938" rx="5" ry="5" style="stroke:#F1F1F1;stroke-width:1.5;" width="143" x="602.5" y="134.2422"/><text fill="#000000" font-family="sans-serif" font-size="14" font-weight="bold" lengthAdjust="spacing" textLength="78" x="607.5" y="149.2373">Embodied</text><text fill="#000000" font-family="sans-serif" font-size="14" lengthAdjust="spacing" textLength="27" x="713.5" y="149.2373">100</text><line style="stroke:#000000;stroke-width:1.0;" x1="708.5" x2="708.5" y1="134.2422" y2="154.5391"/><line style="stroke:#000000;stroke-width:1.0;" x1="602.5" x2="745.5" y1="154.5391" y2="154.5391"/><text fill="#000000" font-family="sans-serif" font-size="14" font-weight="bold" lengthAdjust="spacing" textLength="96" x="607.5" y="169.5342">Operational</text><text fill="#000000" font-family="sans-serif" font-size="14" lengthAdjust="spacing" textLength="17" x="713.5" y="169.5342">25</text><line style="stroke:#000000;stroke-width:1.0;" x1="708.5" x2="708.5" y1="154.5391" y2="174.8359"/><rect fill="none" height="40.5938" rx="5" ry="5" style="stroke:#000000;stroke-width:1.5;" width="143" x="602.5" y="134.2422"/><rect fill="#F1F1F1" height="60.8906" rx="5" ry="5" style="stroke:#F1F1F1;stroke-width:1.5;" width="28" x="660" y="193.2422"/><text fill="#000000" font-family="sans-serif" font-size="14" lengthAdjust="spacing" textLength="18" x="665" y="208.2373">70</text><line style="stroke:#000000;stroke-width:1.0;" x1="660" x2="688" y1="213.5391" y2="213.5391"/><text fill="#000000" font-family="sans-serif" font-size="14" lengthAdjust="spacing" textLength="18" x="665" y="228.5342">65</text><line style="stroke:#000000;stroke-width:1.0;" x1="660" x2="688" y1="233.8359" y2="233.8359"/><text fill="#000000" font-family="sans-serif" font-size="14" lengthAdjust="spacing" textLength="17" x="665" y="248.8311">80</text><rect fill="none" height="60.8906" rx="5" ry="5" style="stroke:#000000;stroke-width:1.5;" width="28" x="660" y="193.2422"/><rect fill="#F1F1F1" height="40.5938" rx="5" ry="5" style="stroke:#F1F1F1;stroke-width:1.5;" width="141" x="374.5" y="282.2422"/><text fill="#000000" font-family="sans-serif" font-size="14" font-weight="bold" lengthAdjust="spacing" textLength="109" x="379.5" y="297.2373">Aggregatable</text><text fill="#000000" font-family="sans-serif" font-size="14" lengthAdjust="spacing" textLength="12" x="498.5" y="297.2373">&#160;&#160;&#160;</text><line style="stroke:#000000;stroke-width:1.0;" x1="493.5" x2="493.5" y1="282.2422" y2="302.5391"/><line style="stroke:#000000;stroke-width:1.0;" x1="374.5" x2="515.5" y1="302.5391" y2="302.5391"/><text fill="#000000" font-family="sans-serif" font-size="14" font-weight="bold" lengthAdjust="spacing" textLength="107" x="379.5" y="317.5342">Partitionable</text><text fill="#000000" font-family="sans-serif" font-size="14" lengthAdjust="spacing" textLength="12" x="498.5" y="317.5342">&#160;&#160;&#160;</text><line style="stroke:#000000;stroke-width:1.0;" x1="493.5" x2="493.5" y1="302.5391" y2="322.8359"/><rect fill="none" height="40.5938" rx="5" ry="5" style="stroke:#000000;stroke-width:1.5;" width="141" x="374.5" y="282.2422"/><rect fill="#F1F1F1" height="40.5938" rx="5" ry="5" style="stroke:#F1F1F1;stroke-width:1.5;" width="110" x="619" y="272.2422"/><text fill="#000000" font-family="sans-serif" font-size="14" font-weight="bold" lengthAdjust="spacing" textLength="77" x="624" y="287.2373">MinCount</text><text fill="#000000" font-family="sans-serif" font-size="14" lengthAdjust="spacing" textLength="8" x="715" y="287.2373">2</text><line style="stroke:#000000;stroke-width:1.0;" x1="710" x2="710" y1="272.2422" y2="292.5391"/><line style="stroke:#000000;stroke-width:1.0;" x1="619" x2="729" y1="292.5391" y2="292.5391"/><text fill="#000000" font-family="sans-serif" font-size="14" font-weight="bold" lengthAdjust="spacing" textLength="81" x="624" y="307.5342">MaxCount</text><text fill="#000000" font-family="sans-serif" font-size="14" lengthAdjust="spacing" textLength="9" x="715" y="307.5342">5</text><line style="stroke:#000000;stroke-width:1.0;" x1="710" x2="710" y1="292.5391" y2="312.8359"/><rect fill="none" height="40.5938" rx="5" ry="5" style="stroke:#000000;stroke-width:1.5;" width="110" x="619" y="272.2422"/><rect fill="#F1F1F1" height="81.1875" rx="5" ry="5" style="stroke:#F1F1F1;stroke-width:1.5;" width="156" x="596" y="331.1484"/><text fill="#000000" font-family="sans-serif" font-size="14" font-weight="bold" lengthAdjust="spacing" textLength="59" x="601" y="346.1436">CpuMin</text><text fill="#000000" font-family="sans-serif" font-size="14" lengthAdjust="spacing" textLength="8" x="712" y="346.1436">2</text><line style="stroke:#000000;stroke-width:1.0;" x1="707" x2="707" y1="331.1484" y2="351.4453"/><line style="stroke:#000000;stroke-width:1.0;" x1="596" x2="752" y1="351.4453" y2="351.4453"/><text fill="#000000" font-family="sans-serif" font-size="14" font-weight="bold" lengthAdjust="spacing" textLength="93" x="601" y="366.4404">MemoryMin</text><text fill="#000000" font-family="sans-serif" font-size="14" lengthAdjust="spacing" textLength="35" x="712" y="366.4404">4096</text><line style="stroke:#000000;stroke-width:1.0;" x1="707" x2="707" y1="351.4453" y2="371.7422"/><line style="stroke:#000000;stroke-width:1.0;" x1="596" x2="752" y1="371.7422" y2="371.7422"/><text fill="#000000" font-family="sans-serif" font-size="14" font-weight="bold" lengthAdjust="spacing" textLength="67" x="601" y="386.7373">CpuStep</text><text fill="#000000" font-family="sans-serif" font-size="14" lengthAdjust="spacing" textLength="9" x="712" y="386.7373">1</text><line style="stroke:#000000;stroke-width:1.0;" x1="707" x2="707" y1="371.7422" y2="392.0391"/><line style="stroke:#000000;stroke-width:1.0;" x1="596" x2="752" y1="392.0391" y2="392.0391"/><text fill="#000000" font-family="sans-serif" font-size="14" font-weight="bold" lengthAdjust="spacing" textLength="101" x="601" y="407.0342">MemoryStep</text><text fill="#000000" font-family="sans-serif" font-size="14" lengthAdjust="spacing" textLength="33" x="712" y="407.0342">2048</text><line style="stroke:#000000;stroke-width:1.0;" x1="707" x2="707" y1="392.0391" y2="412.3359"/><rect fill="none" height="81.1875" rx="5" ry="5" style="stroke:#000000;stroke-width:1.5;" width="156" x="596" y="331.1484"/><path d="M282,149.7422 L295,149.7422 C315.8273,149.7422 313.6597,131.2788 331,119.7422 C346.1271,109.6781 363.1774,100.0208 379.3768,91.5382 " fill="none" style="stroke:#000000;stroke-width:1.0;stroke-dasharray:3.0,3.0;"/><path d="M380.8013,94.2911 L381.4416,90.4698 L377.9523,88.7852 L386.2593,87.9769 L380.8013,94.2911 " fill="#000000" style="stroke:#000000;stroke-width:1.0;"/><ellipse cx="282" cy="149.7422" fill="#000000" rx="3" ry="3" style="stroke:#000000;stroke-width:1.0;"/><path d="M547,159.7422 L560,159.7422 C582.3154,159.7422 576.4795,135.5555 596,124.7422 C609.8034,117.0958 626.6665,112.4924 641.1338,109.7377 " fill="none" style="stroke:#000000;stroke-width:1.0;stroke-dasharray:3.0,3.0;"/><path d="M641.6728,112.8402 L643.4606,109.3334 L640.5947,106.6352 L648.89,108.39 L641.6728,112.8402 " fill="#000000" style="stroke:#000000;stroke-width:1.0;"/><ellipse cx="547" cy="159.7422" fill="#000000" rx="3" ry="3" style="stroke:#000000;stroke-width:1.0;"/><path d="M547,179.7422 L560,179.7422 C571.5034,179.7422 583.5123,178.5023 595.231,176.5747 " fill="none" style="stroke:#000000;stroke-width:1.0;stroke-dasharray:3.0,3.0;"/><path d="M595.7749,179.635 L597.5262,176.1668 L594.687,173.5144 L602.8817,175.2149 L595.7749,179.635 " fill="#000000" style="stroke:#000000;stroke-width:1.0;"/><ellipse cx="547" cy="179.7422" fill="#000000" rx="3" ry="3" style="stroke:#000000;stroke-width:1.0;"/><path d="M547,199.7422 L560,199.7422 C593.1501,199.7422 630.5912,209.6632 653.1021,216.748 " fill="none" style="stroke:#000000;stroke-width:1.0;stroke-dasharray:3.0,3.0;"/><path d="M652.1554,219.6713 L655.2945,217.458 L654.0488,213.8247 L660.4103,219.1147 L652.1554,219.6713 " fill="#000000" style="stroke:#000000;stroke-width:1.0;"/><ellipse cx="547" cy="199.7422" fill="#000000" rx="3" ry="3" style="stroke:#000000;stroke-width:1.0;"/><path d="M282,169.7422 L295,169.7422 C304.3184,169.7422 313.9635,169.7422 323.6604,169.7422 " fill="none" style="stroke:#000000;stroke-width:1.0;stroke-dasharray:3.0,3.0;"/><path d="M323.6604,172.8552 L325.9952,169.7422 L323.6604,166.6292 L331.443,169.7422 L323.6604,172.8552 " fill="#000000" style="stroke:#000000;stroke-width:1.0;"/><ellipse cx="282" cy="169.7422" fill="#000000" rx="3" ry="3" style="stroke:#000000;stroke-width:1.0;"/><path d="M504.5,292.7422 L517.5,292.7422 C548.5771,292.7422 583.1365,292.7422 611.813,292.7422 " fill="none" style="stroke:#000000;stroke-width:1.0;stroke-dasharray:3.0,3.0;"/><path d="M611.813,295.7582 L614.075,292.7422 L611.813,289.7261 L619.3531,292.7422 L611.813,295.7582 " fill="#000000" style="stroke:#000000;stroke-width:1.0;"/><ellipse cx="504.5" cy="292.7422" fill="#000000" rx="3" ry="3" style="stroke:#000000;stroke-width:1.0;"/><path d="M504.5,312.7422 L517.5,312.7422 C542.429,312.7422 568.2342,319.4151 591.5067,328.2727 " fill="none" style="stroke:#000000;stroke-width:1.0;stroke-dasharray:3.0,3.0;"/><path d="M590.3811,331.1276 L593.648,329.1169 L592.6324,325.4177 L598.6442,331.0867 L590.3811,331.1276 " fill="#000000" style="stroke:#000000;stroke-width:1.0;"/><ellipse cx="504.5" cy="312.7422" fill="#000000" rx="3" ry="3" style="stroke:#000000;stroke-width:1.0;"/><path d="M282,189.7422 L295,189.7422 C315.8273,189.7422 314.5859,206.9221 331,219.7422 C356.6748,239.7953 386.4252,261.4966 409.0247,277.6782 " fill="none" style="stroke:#000000;stroke-width:1.0;stroke-dasharray:3.0,3.0;"/><path d="M407.26,280.1484 L410.8772,279.0018 L410.7893,275.2081 L415.1999,282.09 L407.26,280.1484 " fill="#000000" style="stroke:#000000;stroke-width:1.0;"/><ellipse cx="282" cy="189.7422" fill="#000000" rx="3" ry="3" style="stroke:#000000;stroke-width:1.0;"/><path d="M88,169.7422 L101,169.7422 C110.292,169.7422 120.0101,169.7422 129.6854,169.7422 " fill="none" style="stroke:#000000;stroke-width:1.0;stroke-dasharray:3.0,3.0;"/><path d="M129.6854,172.8387 L132.0078,169.7422 L129.6854,166.6457 L137.4267,169.7422 L129.6854,172.8387 " fill="#000000" style="stroke:#000000;stroke-width:1.0;"/><ellipse cx="88" cy="169.7422" fill="#000000" rx="3" ry="3" style="stroke:#000000;stroke-width:1.0;"/><!--SRC=[PLB1Rfj04BtlLwnyigKamWYxnAUqZfCgDIeASNgeUXXWIhV1EsWPtABA_zu56mB91J7lpSnxCpit9OFXtoLfyKz8EVdYHxbASBAIJMY1zIyma30QLR9Aofveg71dG- -YYqDA6zvrUYJ0FPdQOlxysktH-xPktiSHau6iqLmuJWiUJzmaD5IWOOKZtIqmwgGUIqMOL4Pn7J7e54phvFkPR3HlmyV9EVpH5wt1nAJlYBWmIlD0n9ARVKofmhJnwlH2blXgFG4hqf0t7XPdvjYt_KRc9IT8rszNzshemw3XSl7wxpkToV4YoBvAFLp2nompc053dEFOTw3qcgfs6dVWEe2_7VpUSMYFGBKZlMktBYhRyMspzc5FkETSBoz6-H5ZCNpXlk1Ck8xdTnP4zpsAexX1dRQtAC8SDE-2hJoWAQqlERzo7TUxyc9aM4vt-aNJ7oqJsXSgHybgZpCnlG-tigJA92XJktIZugePQYOUu03oqKvlyrQoYQPFmKn6cmwK6trGXlGUDOk7v-2K93yJHmLncxpqBZyfbX4Qwqa-1-8MVqALiorDxA7eR2LtJtUNljY2pYfxq2k9MhGxDxNbely0]--></g></svg>