<?xml version="1.0" encoding="us-ascii" standalone="no"?><svg xmlns="http://www.w3.org/2000/svg" xmlns:xlink="http://www.w3.org/1999/xlink" contentStyleType="text/css" height="370px" preserveAspectRatio="none" style="width:674px;height:370px;background:#FFFFFF;" version="1.1" viewBox="0 0 674 370" width="674px" zoomAndPan="magnify"><defs/><g><rect fill="#F1F1F1" height="60.8906" rx="5" ry="5" style="stroke:#F1F1F1;stroke-width:1.5;" width="157" x="10" y="129.2422"/><text fill="#000000" font-family="sans-serif" font-size="14" font-weight="bold" lengthAdjust="spacing" textLength="125" x="15" y="144.2373">Characteristics</text><text fill="#000000" font-family="sans-serif" font-size="14" lengthAdjust="spacing" textLength="12" x="150" y="144.2373">&#160;&#160;&#160;</text><line style="stroke:#000000;stroke-width:1.0;" x1="145" x2="145" y1="129.2422" y2="149.5391"/><line style="stroke:#000000;stroke-width:1.0;" x1="10" x2="167" y1="149.5391" y2="149.5391"/><text fill="#000000" font-family="sans-serif" font-size="14" font-weight="bold" lengthAdjust="spacing" textLength="84" x="15" y="164.5342">Properties</text><text fill="#000000" font-family="sans-serif" font-size="14" lengthAdjust="spacing" textLength="12" x="150" y="164.5342">&#160;&#160;&#160;</text><line style="stroke:#000000;stroke-width:1.0;" x1="145" x2="145" y1="149.5391" y2="169.8359"/><line style="stroke:#000000;stroke-width:1.0;" x1="10" x2="167" y1="169.8359" y2="169.8359"/><text fill="#000000" font-family="sans-serif" font-size="14" font-weight="bold" lengthAdjust="spacing" textLength="48" x="15" y="184.8311">Policy</text><text fill="#000000" font-family="sans-serif" font-size="14" lengthAdjust="spacing" textLength="12" x="150" y="184.8311">&#160;&#160;&#160;</text><line style="stroke:#000000;stroke-width:1.0;" x1="145" x2="145" y1="169.8359" y2="190.1328"/><rect fill="none" height="60.8906" rx="5" ry="5" style="stroke:#000000;stroke-width:1.5;" width="157" x="10" y="129.2422"/><rect fill="#F1F1F1" height="101.4844" rx="5" ry="5" style="stroke:#F1F1F1;stroke-width:1.5;" width="127" x="234.5" y="10"/><text fill="#000000" font-family="sans-serif" font-size="14" font-weight="bold" lengthAdjust="spacing" textLength="31" x="239.5" y="24.9951">CPU</text><text fill="#000000" font-family="sans-serif" font-size="14" lengthAdjust="spacing" textLength="8" x="313.5" y="24.9951">4</text><line style="stroke:#000000;stroke-width:1.0;" x1="308.5" x2="308.5" y1="10" y2="30.2969"/><line style="stroke:#000000;stroke-width:1.0;" x1="234.5" x2="361.5" y1="30.2969" y2="30.2969"/><text fill="#000000" font-family="sans-serif" font-size="14" font-weight="bold" lengthAdjust="spacing" textLength="39" x="239.5" y="45.292">Pods</text><text fill="#000000" font-family="sans-serif" font-size="14" lengthAdjust="spacing" textLength="18" x="313.5" y="45.292">10</text><line style="stroke:#000000;stroke-width:1.0;" x1="308.5" x2="308.5" y1="30.2969" y2="50.5938"/><line style="stroke:#000000;stroke-width:1.0;" x1="234.5" x2="361.5" y1="50.5938" y2="50.5938"/><text fill="#000000" font-family="sans-serif" font-size="14" font-weight="bold" lengthAdjust="spacing" textLength="64" x="239.5" y="65.5889">Memory</text><text fill="#000000" font-family="sans-serif" font-size="14" lengthAdjust="spacing" textLength="43" x="313.5" y="65.5889">16384</text><line style="stroke:#000000;stroke-width:1.0;" x1="308.5" x2="308.5" y1="50.5938" y2="70.8906"/><line style="stroke:#000000;stroke-width:1.0;" x1="234.5" x2="361.5" y1="70.8906" y2="70.8906"/><text fill="#000000" font-family="sans-serif" font-size="14" font-weight="bold" lengthAdjust="spacing" textLength="33" x="239.5" y="85.8857">GPU</text><text fill="#000000" font-family="sans-serif" font-size="14" lengthAdjust="spacing" textLength="12" x="313.5" y="85.8857">&#160;&#160;&#160;</text><line style="stroke:#000000;stroke-width:1.0;" x1="308.5" x2="308.5" y1="70.8906" y2="91.1875"/><line style="stroke:#000000;stroke-width:1.0;" x1="234.5" x2="361.5" y1="91.1875" y2="91.1875"/><text fill="#000000" font-family="sans-serif" font-size="14" font-weight="bold" lengthAdjust="spacing" textLength="64" x="239.5" y="106.1826">Storage</text><text fill="#000000" font-family="sans-serif" font-size="14" lengthAdjust="spacing" textLength="26" x="313.5" y="106.1826">512</text><line style="stroke:#000000;stroke-width:1.0;" x1="308.5" x2="308.5" y1="91.1875" y2="111.4844"/><rect fill="none" height="101.4844" rx="5" ry="5" style="stroke:#000000;stroke-width:1.5;" width="127" x="234.5" y="10"/><rect fill="#F1F1F1" height="40.5938" rx="5" ry="5" style="stroke:#F1F1F1;stroke-width:1.5;" width="159" x="429" y="60.2422"/><text fill="#000000" font-family="sans-serif" font-size="14" font-weight="bold" lengthAdjust="spacing" textLength="81" x="434" y="75.2373">GPUModel</text><text fill="#000000" font-family="sans-serif" font-size="14" lengthAdjust="spacing" textLength="58" x="525" y="75.2373">Tesla T4</text><line style="stroke:#000000;stroke-width:1.0;" x1="520" x2="520" y1="60.2422" y2="80.5391"/><line style="stroke:#000000;stroke-width:1.0;" x1="429" x2="588" y1="80.5391" y2="80.5391"/><text fill="#000000" font-family="sans-serif" font-size="14" font-weight="bold" lengthAdjust="spacing" textLength="78" x="434" y="95.5342">GPUCores</text><text fill="#000000" font-family="sans-serif" font-size="14" lengthAdjust="spacing" textLength="8" x="525" y="95.5342">8</text><line style="stroke:#000000;stroke-width:1.0;" x1="520" x2="520" y1="80.5391" y2="100.8359"/><rect fill="none" height="40.5938" rx="5" ry="5" style="stroke:#000000;stroke-width:1.5;" width="159" x="429" y="60.2422"/><rect fill="#F1F1F1" height="60.8906" rx="5" ry="5" style="stroke:#F1F1F1;stroke-width:1.5;" width="188" x="204" y="129.2422"/><text fill="#000000" font-family="sans-serif" font-size="14" font-weight="bold" lengthAdjust="spacing" textLength="64" x="209" y="144.2373">Latency</text><text fill="#000000" font-family="sans-serif" font-size="14" lengthAdjust="spacing" textLength="17" x="370" y="144.2373">20</text><line style="stroke:#000000;stroke-width:1.0;" x1="365" x2="365" y1="129.2422" y2="149.5391"/><line style="stroke:#000000;stroke-width:1.0;" x1="204" x2="392" y1="149.5391" y2="149.5391"/><text fill="#000000" font-family="sans-serif" font-size="14" font-weight="bold" lengthAdjust="spacing" textLength="151" x="209" y="164.5342">SecurityStandards</text><text fill="#000000" font-family="sans-serif" font-size="14" lengthAdjust="spacing" textLength="12" x="370" y="164.5342">&#160;&#160;&#160;</text><line style="stroke:#000000;stroke-width:1.0;" x1="365" x2="365" y1="149.5391" y2="169.8359"/><line style="stroke:#000000;stroke-width:1.0;" x1="204" x2="392" y1="169.8359" y2="169.8359"/><text fill="#000000" font-family="sans-serif" font-size="14" font-weight="bold" lengthAdjust="spacing" textLength="134" x="209" y="184.8311">CarbonFootprint</text><text fill="#000000" font-family="sans-serif" font-size="14" lengthAdjust="spacing" textLength="12" x="370" y="184.8311">&#160;&#160;&#160;</text><line style="stroke:#000000;stroke-width:1.0;" x1="365" x2="365" y1="169.8359" y2="190.1328"/><rect fill="none" height="60.8906" rx="5" ry="5" style="stroke:#000000;stroke-width:1.5;" width="188" x="204" y="129.2422"/><rect fill="#F1F1F1" height="20.2969" rx="5" ry="5" style="stroke:#F1F1F1;stroke-width:1.5;" width="51" x="483" y="120.5938"/><text fill="#000000" font-family="sans-serif" font-size="14" lengthAdjust="spacing" textLength="41" x="488" y="135.5889">GDPR</text><rect fill="none" height="20.2969" rx="5" ry="5" style="stroke:#000000;stroke-width:1.5;" width="51" x="483" y="120.5938"/><rect fill="#F1F1F1" height="40.5938" rx="5" ry="5" style="stroke:#F1F1F1;stroke-width:1.5;" width="142" x="437.5" y="159.2422"/><text fill="#000000" font-family="sans-serif" font-size="14" font-weight="bold" lengthAdjust="spacing" textLength="78" x="442.5" y="174.2373">Embodied</text><text fill="#000000" font-family="sans-serif" font-size="14" lengthAdjust="spacing" textLength="26" x="548.5" y="174.2373">200</text><line style="stroke:#000000;stroke-width:1.0;" x1="543.5" x2="543.5" y1="159.2422" y2="179.5391"/><line style="stroke:#000000;stroke-width:1.0;" x1="437.5" x2="579.5" y1="179.5391" y2="179.5391"/><text fill="#000000" font-family="sans-serif" font-size="14" font-weight="bold" lengthAdjust="spacing" textLength="96" x="442.5" y="194.5342">Operational</text><text fill="#000000" font-family="sans-serif" font-size="14" lengthAdjust="spacing" textLength="12" x="548.5" y="194.5342">&#160;&#160;&#160;</text><line style="stroke:#000000;stroke-width:1.0;" x1="543.5" x2="543.5" y1="179.5391" y2="199.8359"/><rect fill="none" height="40.5938" rx="5" ry="5" style="stroke:#000000;stroke-width:1.5;" width="142" x="437.5" y="159.2422"/><rect fill="#F1F1F1" height="40.5938" rx="5" ry="5" style="stroke:#F1F1F1;stroke-width:1.5;" width="37" x="625" y="169.2422"/><text fill="#000000" font-family="sans-serif" font-size="14" lengthAdjust="spacing" textLength="27" x="630" y="184.2373">150</text><line style="stroke:#000000;stroke-width:1.0;" x1="625" x2="662" y1="189.5391" y2="189.5391"/><text fill="#000000" font-family="sans-serif" font-size="14" lengthAdjust="spacing" textLength="26" x="630" y="204.5342">123</text><rect fill="none" height="40.5938" rx="5" ry="5" style="stroke:#000000;stroke-width:1.5;" width="37" x="625" y="169.2422"/><rect fill="#F1F1F1" height="40.5938" rx="5" ry="5" style="stroke:#F1F1F1;stroke-width:1.5;" width="141" x="227.5" y="228.2422"/><text fill="#000000" font-family="sans-serif" font-size="14" font-weight="bold" lengthAdjust="spacing" textLength="109" x="232.5" y="243.2373">Aggregatable</text><text fill="#000000" font-family="sans-serif" font-size="14" lengthAdjust="spacing" textLength="12" x="351.5" y="243.2373">&#160;&#160;&#160;</text><line style="stroke:#000000;stroke-width:1.0;" x1="346.5" x2="346.5" y1="228.2422" y2="248.5391"/><line style="stroke:#000000;stroke-width:1.0;" x1="227.5" x2="368.5" y1="248.5391" y2="248.5391"/><text fill="#000000" font-family="sans-serif" font-size="14" font-weight="bold" lengthAdjust="spacing" textLength="107" x="232.5" y="263.5342">Partitionable</text><text fill="#000000" font-family="sans-serif" font-size="14" lengthAdjust="spacing" textLength="12" x="351.5" y="263.5342">&#160;&#160;&#160;</text><line style="stroke:#000000;stroke-width:1.0;" x1="346.5" x2="346.5" y1="248.5391" y2="268.8359"/><rect fill="none" height="40.5938" rx="5" ry="5" style="stroke:#000000;stroke-width:1.5;" width="141" x="227.5" y="228.2422"/><rect fill="#F1F1F1" height="40.5938" rx="5" ry="5" style="stroke:#F1F1F1;stroke-width:1.5;" width="110" x="453.5" y="218.2422"/><text fill="#000000" font-family="sans-serif" font-size="14" font-weight="bold" lengthAdjust="spacing" textLength="77" x="458.5" y="233.2373">MinCount</text><text fill="#000000" font-family="sans-serif" font-size="14" lengthAdjust="spacing" textLength="9" x="549.5" y="233.2373">1</text><line style="stroke:#000000;stroke-width:1.0;" x1="544.5" x2="544.5" y1="218.2422" y2="238.5391"/><line style="stroke:#000000;stroke-width:1.0;" x1="453.5" x2="563.5" y1="238.5391" y2="238.5391"/><text fill="#000000" font-family="sans-serif" font-size="14" font-weight="bold" lengthAdjust="spacing" textLength="81" x="458.5" y="253.5342">MaxCount</text><text fill="#000000" font-family="sans-serif" font-size="14" lengthAdjust="spacing" textLength="9" x="549.5" y="253.5342">5</text><line style="stroke:#000000;stroke-width:1.0;" x1="544.5" x2="544.5" y1="238.5391" y2="258.8359"/><rect fill="none" height="40.5938" rx="5" ry="5" style="stroke:#000000;stroke-width:1.5;" width="110" x="453.5" y="218.2422"/><rect fill="#F1F1F1" height="81.1875" rx="5" ry="5" style="stroke:#F1F1F1;stroke-width:1.5;" width="156" x="430.5" y="277.1484"/><text fill="#000000" font-family="sans-serif" font-size="14" font-weight="bold" lengthAdjust="spacing" textLength="59" x="435.5" y="292.1436">CpuMin</text><text fill="#000000" font-family="sans-serif" font-size="14" lengthAdjust="spacing" textLength="8" x="546.5" y="292.1436">2</text><line style="stroke:#000000;stroke-width:1.0;" x1="541.5" x2="541.5" y1="277.1484" y2="297.4453"/><line style="stroke:#000000;stroke-width:1.0;" x1="430.5" x2="586.5" y1="297.4453" y2="297.4453"/><text fill="#000000" font-family="sans-serif" font-size="14" font-weight="bold" lengthAdjust="spacing" textLength="93" x="435.5" y="312.4404">MemoryMin</text><text fill="#000000" font-family="sans-serif" font-size="14" lengthAdjust="spacing" textLength="34" x="546.5" y="312.4404">8192</text><line style="stroke:#000000;stroke-width:1.0;" x1="541.5" x2="541.5" y1="297.4453" y2="317.7422"/><line style="stroke:#000000;stroke-width:1.0;" x1="430.5" x2="586.5" y1="317.7422" y2="317.7422"/><text fill="#000000" font-family="sans-serif" font-size="14" font-weight="bold" lengthAdjust="spacing" textLength="67" x="435.5" y="332.7373">CpuStep</text><text fill="#000000" font-family="sans-serif" font-size="14" lengthAdjust="spacing" textLength="8" x="546.5" y="332.7373">2</text><line style="stroke:#000000;stroke-width:1.0;" x1="541.5" x2="541.5" y1="317.7422" y2="338.0391"/><line style="stroke:#000000;stroke-width:1.0;" x1="430.5" x2="586.5" y1="338.0391" y2="338.0391"/><text fill="#000000" font-family="sans-serif" font-size="14" font-weight="bold" lengthAdjust="spacing" textLength="101" x="435.5" y="353.0342">MemoryStep</text><text fill="#000000" font-family="sans-serif" font-size="14" lengthAdjust="spacing" textLength="35" x="546.5" y="353.0342">4096</text><line style="stroke:#000000;stroke-width:1.0;" x1="541.5" x2="541.5" y1="338.0391" y2="358.3359"/><rect fill="none" height="81.1875" rx="5" ry="5" style="stroke:#000000;stroke-width:1.5;" width="156" x="430.5" y="277.1484"/><path d="M350.5,80.7422 L363.5,80.7422 C382.3249,80.7422 402.5293,80.7422 421.687,80.7422 " fill="none" style="stroke:#000000;stroke-width:1.0;stroke-dasharray:3.0,3.0;"/><path d="M421.687,83.7695 L423.9575,80.7422 L421.687,77.7149 L429.2552,80.7422 L421.687,83.7695 " fill="#000000" style="stroke:#000000;stroke-width:1.0;"/><ellipse cx="350.5" cy="80.7422" fill="#000000" rx="3" ry="3" style="stroke:#000000;stroke-width:1.0;"/><path d="M155,139.7422 L168,139.7422 C169.9664,139.7422 198.2989,122.5383 227.9612,104.1872 " fill="none" style="stroke:#000000;stroke-width:1.0;stroke-dasharray:3.0,3.0;"/><path d="M229.6318,106.884 L229.9839,102.9342 L226.2907,101.4903 L234.7033,100.0107 L229.6318,106.884 " fill="#000000" style="stroke:#000000;stroke-width:1.0;"/><ellipse cx="155" cy="139.7422" fill="#000000" rx="3" ry="3" style="stroke:#000000;stroke-width:1.0;"/><path d="M380,159.7422 L393,159.7422 C409.6058,159.7422 412.9248,153.9066 429,149.7422 C444.3241,145.7724 461.3937,141.632 475.7338,138.2334 " fill="none" style="stroke:#000000;stroke-width:1.0;stroke-dasharray:3.0,3.0;"/><path d="M476.4562,141.2964 L478.0311,137.6916 L475.0114,135.1704 L483.3913,136.4274 L476.4562,141.2964 " fill="#000000" style="stroke:#000000;stroke-width:1.0;"/><ellipse cx="380" cy="159.7422" fill="#000000" rx="3" ry="3" style="stroke:#000000;stroke-width:1.0;"/><path d="M568,189.7422 L581,189.7422 C593.0396,189.7422 606.3942,189.7422 617.6165,189.7422 " fill="none" style="stroke:#000000;stroke-width:1.0;stroke-dasharray:3.0,3.0;"/><path d="M617.6165,192.8403 L619.9401,189.7422 L617.6165,186.644 L625.3618,189.7422 L617.6165,192.8403 " fill="#000000" style="stroke:#000000;stroke-width:1.0;"/><ellipse cx="568" cy="189.7422" fill="#000000" rx="3" ry="3" style="stroke:#000000;stroke-width:1.0;"/><path d="M380,179.7422 L393,179.7422 C404.987,179.7422 417.6767,179.7422 430.0804,179.7422 " fill="none" style="stroke:#000000;stroke-width:1.0;stroke-dasharray:3.0,3.0;"/><path d="M430.0804,182.8131 L432.3835,179.7422 L430.0804,176.6713 L437.7576,179.7422 L430.0804,182.8131 " fill="#000000" style="stroke:#000000;stroke-width:1.0;"/><ellipse cx="380" cy="179.7422" fill="#000000" rx="3" ry="3" style="stroke:#000000;stroke-width:1.0;"/><path d="M155,159.7422 L168,159.7422 C177.3136,159.7422 187.004,159.7422 196.7053,159.7422 " fill="none" style="stroke:#000000;stroke-width:1.0;stroke-dasharray:3.0,3.0;"/><path d="M196.7053,162.8524 L199.038,159.7422 L196.7053,156.6319 L204.481,159.7422 L196.7053,162.8524 " fill="#000000" style="stroke:#000000;stroke-width:1.0;"/><ellipse cx="155" cy="159.7422" fill="#000000" rx="3" ry="3" style="stroke:#000000;stroke-width:1.0;"/><path d="M357.5,238.7422 L370.5,238.7422 C395.2714,238.7422 422.553,238.7422 446.2397,238.7422 " fill="none" style="stroke:#000000;stroke-width:1.0;stroke-dasharray:3.0,3.0;"/><path d="M446.2397,241.7648 L448.5066,238.7422 L446.2397,235.7196 L453.7961,238.7422 L446.2397,241.7648 " fill="#000000" style="stroke:#000000;stroke-width:1.0;"/><ellipse cx="357.5" cy="238.7422" fill="#000000" rx="3" ry="3" style="stroke:#000000;stroke-width:1.0;"/><path d="M357.5,258.7422 L370.5,258.7422 C392.5748,258.7422 415.1456,265.2436 435.4506,273.9302 " fill="none" style="stroke:#000000;stroke-width:1.0;stroke-dasharray:3.0,3.0;"/><path d="M434.188,276.7634 L437.5756,274.8771 L436.7133,271.0969 L442.5337,277.0867 L434.188,276.7634 " fill="#000000" style="stroke:#000000;stroke-width:1.0;"/><ellipse cx="357.5" cy="258.7422" fill="#000000" rx="3" ry="3" style="stroke:#000000;stroke-width:1.0;"/><path d="M155,179.7422 L168,179.7422 C168.3063,179.7422 215.0587,204.6858 252.295,224.5783 " fill="none" style="stroke:#000000;stroke-width:1.0;stroke-dasharray:3.0,3.0;"/><path d="M250.8357,227.3098 L254.3437,225.6728 L253.7544,221.8468 L259.1238,228.2267 L250.8357,227.3098 " fill="#000000" style="stroke:#000000;stroke-width:1.0;"/><ellipse cx="155" cy="179.7422" fill="#000000" rx="3" ry="3" style="stroke:#000000;stroke-width:1.0;"/><!--SRC=[RLB1Rfj04BtlLumusP8J0S6MurDQuhYAZ8g2dKkKmm9JkYtiecLmQqNvz-ukn7Qh7j-RsRVlpSnTHrpJZqv9ziO0lFWxrxmWrA8ZKNJU2Ynj2-dUW6Wse5ILjXRu8qwmKVfecSNDCfh1m6xScq5WW8agiJQSjyEkvh2BlDb5DLOQhUpISU-ZTaPAymeDFmz2iDAkugLQjQX9u8NBBIUKXJKI-ZCORMHOz5hGCICkIwwTynTlSvy-UQ_Z7p7NkP8FIb6hXQHBr-icLwN0qcdwOpJ3VpMVSn9ASXlePQG1WldfPmV3cnDw7NAT4wXQEBEZ-qzLfR7YnFCQBoqaGiQgTxQ2qxmI_lk3dFyrhzGiL3XZ_yZ4RM-KR8wpYDlRm2w3s_3it7PdXEr_saSwycyNOxkBnDuPkqDPkcDYQSqbxPCj751tnWm4rw4VHjTHZiGNaxtyATKl2OLgMb4Za6XmoYQRT0kTwdM1K9eBr2BlRP8fU-G73aychkbRWKMJNJA5RFr1mbeUX5QoGKdiyJaPck2BegnLv9eNqTLdGP2XDfxWEM7t-8ttDPcdXLcnh5QmtprSBTcMowet9xS2bCmDMHzDBVi3]--></g></svg>