<?xml version="1.0" encoding="us-ascii" standalone="no"?><svg xmlns="http://www.w3.org/2000/svg" xmlns:xlink="http://www.w3.org/1999/xlink" contentStyleType="text/css" height="307px" preserveAspectRatio="none" style="width:741px;height:307px;background:#FFFFFF;" version="1.1" viewBox="0 0 741 307" width="741px" zoomAndPan="magnify"><defs/><g><rect fill="#F1F1F1" height="20.2969" rx="5" ry="5" style="stroke:#F1F1F1;stroke-width:1.5;" width="90" x="10" y="125.8906"/><text fill="#000000" font-family="sans-serif" font-size="14" font-weight="bold" lengthAdjust="spacing" textLength="58" x="15" y="140.8857">K8Slice</text><text fill="#000000" font-family="sans-serif" font-size="14" lengthAdjust="spacing" textLength="12" x="83" y="140.8857">&#160;&#160;&#160;</text><line style="stroke:#000000;stroke-width:1.0;" x1="78" x2="78" y1="125.8906" y2="146.1875"/><rect fill="none" height="20.2969" rx="5" ry="5" style="stroke:#000000;stroke-width:1.5;" width="90" x="10" y="125.8906"/><rect fill="#F1F1F1" height="40.5938" rx="5" ry="5" style="stroke:#F1F1F1;stroke-width:1.5;" width="157" x="137" y="115.5391"/><text fill="#000000" font-family="sans-serif" font-size="14" font-weight="bold" lengthAdjust="spacing" textLength="125" x="142" y="130.5342">Characteristics</text><text fill="#000000" font-family="sans-serif" font-size="14" lengthAdjust="spacing" textLength="12" x="277" y="130.5342">&#160;&#160;&#160;</text><line style="stroke:#000000;stroke-width:1.0;" x1="272" x2="272" y1="115.5391" y2="135.8359"/><line style="stroke:#000000;stroke-width:1.0;" x1="137" x2="294" y1="135.8359" y2="135.8359"/><text fill="#000000" font-family="sans-serif" font-size="14" font-weight="bold" lengthAdjust="spacing" textLength="48" x="142" y="150.8311">Policy</text><text fill="#000000" font-family="sans-serif" font-size="14" lengthAdjust="spacing" textLength="12" x="277" y="150.8311">&#160;&#160;&#160;</text><line style="stroke:#000000;stroke-width:1.0;" x1="272" x2="272" y1="135.8359" y2="156.1328"/><rect fill="none" height="40.5938" rx="5" ry="5" style="stroke:#000000;stroke-width:1.5;" width="157" x="137" y="115.5391"/><rect fill="#F1F1F1" height="142.0781" rx="5" ry="5" style="stroke:#F1F1F1;stroke-width:1.5;" width="205" x="331" y="10"/><text fill="#000000" font-family="sans-serif" font-size="14" font-weight="bold" lengthAdjust="spacing" textLength="31" x="336" y="24.9951">CPU</text><text fill="#000000" font-family="sans-serif" font-size="14" lengthAdjust="spacing" textLength="8" x="497" y="24.9951">4</text><line style="stroke:#000000;stroke-width:1.0;" x1="492" x2="492" y1="10" y2="30.2969"/><line style="stroke:#000000;stroke-width:1.0;" x1="331" x2="536" y1="30.2969" y2="30.2969"/><text fill="#000000" font-family="sans-serif" font-size="14" font-weight="bold" lengthAdjust="spacing" textLength="39" x="336" y="45.292">Pods</text><text fill="#000000" font-family="sans-serif" font-size="14" lengthAdjust="spacing" textLength="18" x="497" y="45.292">10</text><line style="stroke:#000000;stroke-width:1.0;" x1="492" x2="492" y1="30.2969" y2="50.5938"/><line style="stroke:#000000;stroke-width:1.0;" x1="331" x2="536" y1="50.5938" y2="50.5938"/><text fill="#000000" font-family="sans-serif" font-size="14" font-weight="bold" lengthAdjust="spacing" textLength="64" x="336" y="65.5889">Memory</text><text fill="#000000" font-family="sans-serif" font-size="14" lengthAdjust="spacing" textLength="34" x="497" y="65.5889">8192</text><line style="stroke:#000000;stroke-width:1.0;" x1="492" x2="492" y1="50.5938" y2="70.8906"/><line style="stroke:#000000;stroke-width:1.0;" x1="331" x2="536" y1="70.8906" y2="70.8906"/><text fill="#000000" font-family="sans-serif" font-size="14" font-weight="bold" lengthAdjust="spacing" textLength="33" x="336" y="85.8857">GPU</text><text fill="#000000" font-family="sans-serif" font-size="14" lengthAdjust="spacing" textLength="9" x="497" y="85.8857">1</text><line style="stroke:#000000;stroke-width:1.0;" x1="492" x2="492" y1="70.8906" y2="91.1875"/><line style="stroke:#000000;stroke-width:1.0;" x1="331" x2="536" y1="91.1875" y2="91.1875"/><text fill="#000000" font-family="sans-serif" font-size="14" font-weight="bold" lengthAdjust="spacing" textLength="64" x="336" y="106.1826">Storage</text><text fill="#000000" font-family="sans-serif" font-size="14" lengthAdjust="spacing" textLength="27" x="497" y="106.1826">500</text><line style="stroke:#000000;stroke-width:1.0;" x1="492" x2="492" y1="91.1875" y2="111.4844"/><line style="stroke:#000000;stroke-width:1.0;" x1="331" x2="536" y1="111.4844" y2="111.4844"/><text fill="#000000" font-family="sans-serif" font-size="14" font-weight="bold" lengthAdjust="spacing" textLength="151" x="336" y="126.4795">SecurityStandards</text><text fill="#000000" font-family="sans-serif" font-size="14" lengthAdjust="spacing" textLength="12" x="497" y="126.4795">&#160;&#160;&#160;</text><line style="stroke:#000000;stroke-width:1.0;" x1="492" x2="492" y1="111.4844" y2="131.7813"/><line style="stroke:#000000;stroke-width:1.0;" x1="331" x2="536" y1="131.7813" y2="131.7813"/><text fill="#000000" font-family="sans-serif" font-size="14" font-weight="bold" lengthAdjust="spacing" textLength="64" x="336" y="146.7764">Latency</text><text fill="#000000" font-family="sans-serif" font-size="14" lengthAdjust="spacing" textLength="17" x="497" y="146.7764">25</text><line style="stroke:#000000;stroke-width:1.0;" x1="492" x2="492" y1="131.7813" y2="152.0781"/><rect fill="none" height="142.0781" rx="5" ry="5" style="stroke:#000000;stroke-width:1.5;" width="205" x="331" y="10"/><rect fill="#F1F1F1" height="20.2969" rx="5" ry="5" style="stroke:#F1F1F1;stroke-width:1.5;" width="51" x="625.5" y="111.8906"/><text fill="#000000" font-family="sans-serif" font-size="14" lengthAdjust="spacing" textLength="41" x="630.5" y="126.8857">GDPR</text><rect fill="none" height="20.2969" rx="5" ry="5" style="stroke:#000000;stroke-width:1.5;" width="51" x="625.5" y="111.8906"/><rect fill="#F1F1F1" height="40.5938" rx="5" ry="5" style="stroke:#F1F1F1;stroke-width:1.5;" width="141" x="363" y="170.5391"/><text fill="#000000" font-family="sans-serif" font-size="14" font-weight="bold" lengthAdjust="spacing" textLength="109" x="368" y="185.5342">Aggregatable</text><text fill="#000000" font-family="sans-serif" font-size="14" lengthAdjust="spacing" textLength="12" x="487" y="185.5342">&#160;&#160;&#160;</text><line style="stroke:#000000;stroke-width:1.0;" x1="482" x2="482" y1="170.5391" y2="190.8359"/><line style="stroke:#000000;stroke-width:1.0;" x1="363" x2="504" y1="190.8359" y2="190.8359"/><text fill="#000000" font-family="sans-serif" font-size="14" font-weight="bold" lengthAdjust="spacing" textLength="107" x="368" y="205.8311">Partitionable</text><text fill="#000000" font-family="sans-serif" font-size="14" lengthAdjust="spacing" textLength="12" x="487" y="205.8311">&#160;&#160;&#160;</text><line style="stroke:#000000;stroke-width:1.0;" x1="482" x2="482" y1="190.8359" y2="211.1328"/><rect fill="none" height="40.5938" rx="5" ry="5" style="stroke:#000000;stroke-width:1.5;" width="141" x="363" y="170.5391"/><rect fill="#F1F1F1" height="40.5938" rx="5" ry="5" style="stroke:#F1F1F1;stroke-width:1.5;" width="110" x="596" y="155.5391"/><text fill="#000000" font-family="sans-serif" font-size="14" font-weight="bold" lengthAdjust="spacing" textLength="77" x="601" y="170.5342">MinCount</text><text fill="#000000" font-family="sans-serif" font-size="14" lengthAdjust="spacing" textLength="8" x="692" y="170.5342">2</text><line style="stroke:#000000;stroke-width:1.0;" x1="687" x2="687" y1="155.5391" y2="175.8359"/><line style="stroke:#000000;stroke-width:1.0;" x1="596" x2="706" y1="175.8359" y2="175.8359"/><text fill="#000000" font-family="sans-serif" font-size="14" font-weight="bold" lengthAdjust="spacing" textLength="81" x="601" y="190.8311">MaxCount</text><text fill="#000000" font-family="sans-serif" font-size="14" lengthAdjust="spacing" textLength="9" x="692" y="190.8311">5</text><line style="stroke:#000000;stroke-width:1.0;" x1="687" x2="687" y1="175.8359" y2="196.1328"/><rect fill="none" height="40.5938" rx="5" ry="5" style="stroke:#000000;stroke-width:1.5;" width="110" x="596" y="155.5391"/><rect fill="#F1F1F1" height="81.1875" rx="5" ry="5" style="stroke:#F1F1F1;stroke-width:1.5;" width="156" x="573" y="214.4453"/><text fill="#000000" font-family="sans-serif" font-size="14" font-weight="bold" lengthAdjust="spacing" textLength="59" x="578" y="229.4404">CpuMin</text><text fill="#000000" font-family="sans-serif" font-size="14" lengthAdjust="spacing" textLength="8" x="689" y="229.4404">2</text><line style="stroke:#000000;stroke-width:1.0;" x1="684" x2="684" y1="214.4453" y2="234.7422"/><line style="stroke:#000000;stroke-width:1.0;" x1="573" x2="729" y1="234.7422" y2="234.7422"/><text fill="#000000" font-family="sans-serif" font-size="14" font-weight="bold" lengthAdjust="spacing" textLength="93" x="578" y="249.7373">MemoryMin</text><text fill="#000000" font-family="sans-serif" font-size="14" lengthAdjust="spacing" textLength="35" x="689" y="249.7373">4096</text><line style="stroke:#000000;stroke-width:1.0;" x1="684" x2="684" y1="234.7422" y2="255.0391"/><line style="stroke:#000000;stroke-width:1.0;" x1="573" x2="729" y1="255.0391" y2="255.0391"/><text fill="#000000" font-family="sans-serif" font-size="14" font-weight="bold" lengthAdjust="spacing" textLength="67" x="578" y="270.0342">CpuStep</text><text fill="#000000" font-family="sans-serif" font-size="14" lengthAdjust="spacing" textLength="9" x="689" y="270.0342">1</text><line style="stroke:#000000;stroke-width:1.0;" x1="684" x2="684" y1="255.0391" y2="275.3359"/><line style="stroke:#000000;stroke-width:1.0;" x1="573" x2="729" y1="275.3359" y2="275.3359"/><text fill="#000000" font-family="sans-serif" font-size="14" font-weight="bold" lengthAdjust="spacing" textLength="101" x="578" y="290.3311">MemoryStep</text><text fill="#000000" font-family="sans-serif" font-size="14" lengthAdjust="spacing" textLength="33" x="689" y="290.3311">2048</text><line style="stroke:#000000;stroke-width:1.0;" x1="684" x2="684" y1="275.3359" y2="295.6328"/><rect fill="none" height="81.1875" rx="5" ry="5" style="stroke:#000000;stroke-width:1.5;" width="156" x="573" y="214.4453"/><path d="M524,122.0391 L537,122.0391 C564.3213,122.0391 595.3419,122.0391 618.0402,122.0391 " fill="none" style="stroke:#000000;stroke-width:1.0;stroke-dasharray:3.0,3.0;"/><path d="M618.0402,125.1038 L620.3387,122.0391 L618.0402,118.9743 L625.702,122.0391 L618.0402,125.1038 " fill="#000000" style="stroke:#000000;stroke-width:1.0;"/><ellipse cx="524" cy="122.0391" fill="#000000" rx="3" ry="3" style="stroke:#000000;stroke-width:1.0;"/><path d="M282,126.0391 L295,126.0391 C304.5386,126.0391 314.2734,125.0553 323.9379,123.3786 " fill="none" style="stroke:#000000;stroke-width:1.0;stroke-dasharray:3.0,3.0;"/><path d="M324.5028,126.3276 L326.1496,122.9549 L323.3729,120.4297 L331.3102,121.9662 L324.5028,126.3276 " fill="#000000" style="stroke:#000000;stroke-width:1.0;"/><ellipse cx="282" cy="126.0391" fill="#000000" rx="3" ry="3" style="stroke:#000000;stroke-width:1.0;"/><path d="M493,181.0391 L506,181.0391 C533.0707,181.0391 562.9771,180.1517 588.526,179.1247 " fill="none" style="stroke:#000000;stroke-width:1.0;stroke-dasharray:3.0,3.0;"/><path d="M588.6549,182.2371 L590.8603,179.028 L588.397,176.0123 L596.307,178.8023 L588.6549,182.2371 " fill="#000000" style="stroke:#000000;stroke-width:1.0;"/><ellipse cx="493" cy="181.0391" fill="#000000" rx="3" ry="3" style="stroke:#000000;stroke-width:1.0;"/><path d="M493,201.0391 L506,201.0391 C526.0666,201.0391 546.7654,205.665 566.0074,212.209 " fill="none" style="stroke:#000000;stroke-width:1.0;stroke-dasharray:3.0,3.0;"/><path d="M564.9688,215.1285 L568.197,212.9878 L567.0459,209.2894 L573.3063,214.8053 L564.9688,215.1285 " fill="#000000" style="stroke:#000000;stroke-width:1.0;"/><ellipse cx="493" cy="201.0391" fill="#000000" rx="3" ry="3" style="stroke:#000000;stroke-width:1.0;"/><path d="M282,146.0391 L295,146.0391 C312.3333,146.0391 314.6614,155.2517 331,161.0391 C339.007,163.8752 347.4314,166.6612 355.8644,169.3233 " fill="none" style="stroke:#000000;stroke-width:1.0;stroke-dasharray:3.0,3.0;"/><path d="M354.9421,172.2844 L358.0852,170.015 L356.7867,166.3622 L363.2671,171.629 L354.9421,172.2844 " fill="#000000" style="stroke:#000000;stroke-width:1.0;"/><ellipse cx="282" cy="146.0391" fill="#000000" rx="3" ry="3" style="stroke:#000000;stroke-width:1.0;"/><path d="M88,136.0391 L101,136.0391 C110.292,136.0391 120.0101,136.0391 129.6854,136.0391 " fill="none" style="stroke:#000000;stroke-width:1.0;stroke-dasharray:3.0,3.0;"/><path d="M129.6854,139.1356 L132.0078,136.0391 L129.6854,132.9426 L137.4267,136.0391 L129.6854,139.1356 " fill="#000000" style="stroke:#000000;stroke-width:1.0;"/><ellipse cx="88" cy="136.0391" fill="#000000" rx="3" ry="3" style="stroke:#000000;stroke-width:1.0;"/><!--SRC=[PL9DJy904BtlhvXmWWHDQGf1JYf-HMdIkEB5U5ZQiQwMMRATeiJmtzqjjA9UDddlpRnzCxkd9IlBRwKXyIK0EdTZMUWKEnFmq17JLsLLocXroJejMy5BoTp1gD_Wn6HU7mGj4-FIs8tZneEJi6Mlwxv1YoKRgt9_vp3uwPMOLbRpHhAYJDdQ-calUfEBvBwpXyzjqqmnKkfl38Srjzr9BfiRQtEO_YpFBUQArQB00zwdrZGr5R5twH_GwhEXXtjs-pExsw9cRUY_tNHLESU_PlLcTdmKd8pwl-ebu-fmHMt3NWY3QDn44Csv5LjnYfJLZocIGX7FunciqPOk5moEmo2CZgC5iXfrv_HEveCWDSkLBX1OBx4dkjV934fJsHGXSmzkzQBoG_N4hLehk7VJkxe9UDHzY7iWBniIBccjhQ4b4elRntXN13U6vSfmNJoAZiurWqJhCi5ZB2xmHLK5kzRKP9ho2SmVhex6OgOehzoFc02Ig7TkDqwJtm00]--></g></svg>