<?xml version="1.0" encoding="us-ascii" standalone="no"?><svg xmlns="http://www.w3.org/2000/svg" xmlns:xlink="http://www.w3.org/1999/xlink" contentStyleType="text/css" height="293px" preserveAspectRatio="none" style="width:881px;height:293px;background:#FFFFFF;" version="1.1" viewBox="0 0 881 293" width="881px" zoomAndPan="magnify"><defs/><g><rect fill="#F1F1F1" height="40.5938" rx="5" ry="5" style="stroke:#F1F1F1;stroke-width:1.5;" width="157" x="10" y="161"/><text fill="#000000" font-family="sans-serif" font-size="14" font-weight="bold" lengthAdjust="spacing" textLength="125" x="15" y="175.9951">Characteristics</text><text fill="#000000" font-family="sans-serif" font-size="14" lengthAdjust="spacing" textLength="12" x="150" y="175.9951">&#160;&#160;&#160;</text><line style="stroke:#000000;stroke-width:1.0;" x1="145" x2="145" y1="161" y2="181.2969"/><line style="stroke:#000000;stroke-width:1.0;" x1="10" x2="167" y1="181.2969" y2="181.2969"/><text fill="#000000" font-family="sans-serif" font-size="14" font-weight="bold" lengthAdjust="spacing" textLength="95" x="15" y="196.292">AccessType</text><text fill="#000000" font-family="sans-serif" font-size="14" lengthAdjust="spacing" textLength="12" x="150" y="196.292">&#160;&#160;&#160;</text><line style="stroke:#000000;stroke-width:1.0;" x1="145" x2="145" y1="181.2969" y2="201.5938"/><rect fill="none" height="40.5938" rx="5" ry="5" style="stroke:#000000;stroke-width:1.5;" width="157" x="10" y="161"/><rect fill="#F1F1F1" height="202.9688" rx="5" ry="5" style="stroke:#F1F1F1;stroke-width:1.5;" width="288" x="204" y="10"/><text fill="#000000" font-family="sans-serif" font-size="14" font-weight="bold" lengthAdjust="spacing" textLength="94" x="209" y="24.9951">SensorType</text><text fill="#000000" font-family="sans-serif" font-size="14" lengthAdjust="spacing" textLength="95" x="386" y="24.9951">Temperature</text><line style="stroke:#000000;stroke-width:1.0;" x1="381" x2="381" y1="10" y2="30.2969"/><line style="stroke:#000000;stroke-width:1.0;" x1="204" x2="492" y1="30.2969" y2="30.2969"/><text fill="#000000" font-family="sans-serif" font-size="14" font-weight="bold" lengthAdjust="spacing" textLength="103" x="209" y="45.292">SensorModel</text><text fill="#000000" font-family="sans-serif" font-size="14" lengthAdjust="spacing" textLength="56" x="386" y="45.292">ABC123</text><line style="stroke:#000000;stroke-width:1.0;" x1="381" x2="381" y1="30.2969" y2="50.5938"/><line style="stroke:#000000;stroke-width:1.0;" x1="204" x2="492" y1="50.5938" y2="50.5938"/><text fill="#000000" font-family="sans-serif" font-size="14" font-weight="bold" lengthAdjust="spacing" textLength="166" x="209" y="65.5889">SensorManufacturer</text><text fill="#000000" font-family="sans-serif" font-size="14" lengthAdjust="spacing" textLength="101" x="386" y="65.5889">XYZ Company</text><line style="stroke:#000000;stroke-width:1.0;" x1="381" x2="381" y1="50.5938" y2="70.8906"/><line style="stroke:#000000;stroke-width:1.0;" x1="204" x2="492" y1="70.8906" y2="70.8906"/><text fill="#000000" font-family="sans-serif" font-size="14" font-weight="bold" lengthAdjust="spacing" textLength="112" x="209" y="85.8857">SensorMarket</text><text fill="#000000" font-family="sans-serif" font-size="14" lengthAdjust="spacing" textLength="66" x="386" y="85.8857">Industrial</text><line style="stroke:#000000;stroke-width:1.0;" x1="381" x2="381" y1="70.8906" y2="91.1875"/><line style="stroke:#000000;stroke-width:1.0;" x1="204" x2="492" y1="91.1875" y2="91.1875"/><text fill="#000000" font-family="sans-serif" font-size="14" font-weight="bold" lengthAdjust="spacing" textLength="113" x="209" y="106.1826">SamplingRate</text><text fill="#000000" font-family="sans-serif" font-size="14" lengthAdjust="spacing" textLength="36" x="386" y="106.1826">1000</text><line style="stroke:#000000;stroke-width:1.0;" x1="381" x2="381" y1="91.1875" y2="111.4844"/><line style="stroke:#000000;stroke-width:1.0;" x1="204" x2="492" y1="111.4844" y2="111.4844"/><text fill="#000000" font-family="sans-serif" font-size="14" font-weight="bold" lengthAdjust="spacing" textLength="74" x="209" y="126.4795">Accuracy</text><text fill="#000000" font-family="sans-serif" font-size="14" lengthAdjust="spacing" textLength="18" x="386" y="126.4795">95</text><line style="stroke:#000000;stroke-width:1.0;" x1="381" x2="381" y1="111.4844" y2="131.7813"/><line style="stroke:#000000;stroke-width:1.0;" x1="204" x2="492" y1="131.7813" y2="131.7813"/><text fill="#000000" font-family="sans-serif" font-size="14" font-weight="bold" lengthAdjust="spacing" textLength="107" x="209" y="146.7764">Consumption</text><text fill="#000000" font-family="sans-serif" font-size="14" lengthAdjust="spacing" textLength="18" x="386" y="146.7764">50</text><line style="stroke:#000000;stroke-width:1.0;" x1="381" x2="381" y1="131.7813" y2="152.0781"/><line style="stroke:#000000;stroke-width:1.0;" x1="204" x2="492" y1="152.0781" y2="152.0781"/><text fill="#000000" font-family="sans-serif" font-size="14" font-weight="bold" lengthAdjust="spacing" textLength="151" x="209" y="167.0732">SecurityStandards</text><text fill="#000000" font-family="sans-serif" font-size="14" lengthAdjust="spacing" textLength="12" x="386" y="167.0732">&#160;&#160;&#160;</text><line style="stroke:#000000;stroke-width:1.0;" x1="381" x2="381" y1="152.0781" y2="172.375"/><line style="stroke:#000000;stroke-width:1.0;" x1="204" x2="492" y1="172.375" y2="172.375"/><text fill="#000000" font-family="sans-serif" font-size="14" font-weight="bold" lengthAdjust="spacing" textLength="64" x="209" y="187.3701">Latency</text><text fill="#000000" font-family="sans-serif" font-size="14" lengthAdjust="spacing" textLength="17" x="386" y="187.3701">20</text><line style="stroke:#000000;stroke-width:1.0;" x1="381" x2="381" y1="172.375" y2="192.6719"/><line style="stroke:#000000;stroke-width:1.0;" x1="204" x2="492" y1="192.6719" y2="192.6719"/><text fill="#000000" font-family="sans-serif" font-size="14" font-weight="bold" lengthAdjust="spacing" textLength="167" x="209" y="207.667">additionalProperties</text><text fill="#000000" font-family="sans-serif" font-size="14" lengthAdjust="spacing" textLength="12" x="386" y="207.667">&#160;&#160;&#160;</text><line style="stroke:#000000;stroke-width:1.0;" x1="381" x2="381" y1="192.6719" y2="212.9688"/><rect fill="none" height="202.9688" rx="5" ry="5" style="stroke:#000000;stroke-width:1.5;" width="288" x="204" y="10"/><rect fill="#F1F1F1" height="20.2969" rx="5" ry="5" style="stroke:#F1F1F1;stroke-width:1.5;" width="51" x="631" y="133.3516"/><text fill="#000000" font-family="sans-serif" font-size="14" lengthAdjust="spacing" textLength="41" x="636" y="148.3467">GDPR</text><rect fill="none" height="20.2969" rx="5" ry="5" style="stroke:#000000;stroke-width:1.5;" width="51" x="631" y="133.3516"/><rect fill="#F1F1F1" height="60.8906" rx="5" ry="5" style="stroke:#F1F1F1;stroke-width:1.5;" width="255" x="529" y="172"/><text fill="#000000" font-family="sans-serif" font-size="14" font-weight="bold" lengthAdjust="spacing" textLength="144" x="534" y="186.9951">MeasurementUnit</text><text fill="#000000" font-family="sans-serif" font-size="14" lengthAdjust="spacing" textLength="49" x="691" y="186.9951">Celsius</text><line style="stroke:#000000;stroke-width:1.0;" x1="686" x2="686" y1="172" y2="192.2969"/><line style="stroke:#000000;stroke-width:1.0;" x1="529" x2="784" y1="192.2969" y2="192.2969"/><text fill="#000000" font-family="sans-serif" font-size="14" font-weight="bold" lengthAdjust="spacing" textLength="141" x="534" y="207.292">ConsumptionUnit</text><text fill="#000000" font-family="sans-serif" font-size="14" lengthAdjust="spacing" textLength="28" x="691" y="207.292">mW</text><line style="stroke:#000000;stroke-width:1.0;" x1="686" x2="686" y1="192.2969" y2="212.5938"/><line style="stroke:#000000;stroke-width:1.0;" x1="529" x2="784" y1="212.5938" y2="212.5938"/><text fill="#000000" font-family="sans-serif" font-size="14" font-weight="bold" lengthAdjust="spacing" textLength="147" x="534" y="227.5889">SamplingRateUnit</text><text fill="#000000" font-family="sans-serif" font-size="14" lengthAdjust="spacing" textLength="88" x="691" y="227.5889">milliseconds</text><line style="stroke:#000000;stroke-width:1.0;" x1="686" x2="686" y1="212.5938" y2="232.8906"/><rect fill="none" height="60.8906" rx="5" ry="5" style="stroke:#000000;stroke-width:1.5;" width="255" x="529" y="172"/><rect fill="#F1F1F1" height="20.2969" rx="5" ry="5" style="stroke:#F1F1F1;stroke-width:1.5;" width="75" x="310.5" y="241.3516"/><text fill="#000000" font-family="sans-serif" font-size="14" font-weight="bold" lengthAdjust="spacing" textLength="43" x="315.5" y="256.3467">HTTP</text><text fill="#000000" font-family="sans-serif" font-size="14" lengthAdjust="spacing" textLength="12" x="368.5" y="256.3467">&#160;&#160;&#160;</text><line style="stroke:#000000;stroke-width:1.0;" x1="363.5" x2="363.5" y1="241.3516" y2="261.6484"/><rect fill="none" height="20.2969" rx="5" ry="5" style="stroke:#000000;stroke-width:1.5;" width="75" x="310.5" y="241.3516"/><rect fill="#F1F1F1" height="20.2969" rx="5" ry="5" style="stroke:#F1F1F1;stroke-width:1.5;" width="94" x="609.5" y="251.3516"/><text fill="#000000" font-family="sans-serif" font-size="14" font-weight="bold" lengthAdjust="spacing" textLength="62" x="614.5" y="266.3467">method</text><text fill="#000000" font-family="sans-serif" font-size="14" lengthAdjust="spacing" textLength="12" x="686.5" y="266.3467">&#160;&#160;&#160;</text><line style="stroke:#000000;stroke-width:1.0;" x1="681.5" x2="681.5" y1="251.3516" y2="271.6484"/><rect fill="none" height="20.2969" rx="5" ry="5" style="stroke:#000000;stroke-width:1.5;" width="94" x="609.5" y="251.3516"/><rect fill="#F1F1F1" height="40.5938" rx="5" ry="5" style="stroke:#F1F1F1;stroke-width:1.5;" width="48" x="821" y="241"/><text fill="#000000" font-family="sans-serif" font-size="14" lengthAdjust="spacing" textLength="29" x="826" y="255.9951">GET</text><line style="stroke:#000000;stroke-width:1.0;" x1="821" x2="869" y1="261.2969" y2="261.2969"/><text fill="#000000" font-family="sans-serif" font-size="14" lengthAdjust="spacing" textLength="38" x="826" y="276.292">POST</text><rect fill="none" height="40.5938" rx="5" ry="5" style="stroke:#000000;stroke-width:1.5;" width="48" x="821" y="241"/><path d="M480,162.5 L493,162.5 C538.63,162.5 590.9648,155.0633 623.7551,149.495 " fill="none" style="stroke:#000000;stroke-width:1.0;stroke-dasharray:3.0,3.0;"/><path d="M624.2745,152.4934 L626.0039,149.1055 L623.2358,146.4966 L631.251,148.1966 L624.2745,152.4934 " fill="#000000" style="stroke:#000000;stroke-width:1.0;"/><ellipse cx="480" cy="162.5" fill="#000000" rx="3" ry="3" style="stroke:#000000;stroke-width:1.0;"/><path d="M480,202.5 L493,202.5 C502.2667,202.5 511.8297,202.5 521.4616,202.5 " fill="none" style="stroke:#000000;stroke-width:1.0;stroke-dasharray:3.0,3.0;"/><path d="M521.4616,205.594 L523.7822,202.5 L521.4616,199.406 L529.1967,202.5 L521.4616,205.594 " fill="#000000" style="stroke:#000000;stroke-width:1.0;"/><ellipse cx="480" cy="202.5" fill="#000000" rx="3" ry="3" style="stroke:#000000;stroke-width:1.0;"/><path d="M155,171.5 L168,171.5 C177.4634,171.5 187.0694,170.7406 196.6661,169.3926 " fill="none" style="stroke:#000000;stroke-width:1.0;stroke-dasharray:3.0,3.0;"/><path d="M197.1477,172.4692 L198.9735,169.0314 L196.1845,166.316 L204.3576,168.1887 L197.1477,172.4692 " fill="#000000" style="stroke:#000000;stroke-width:1.0;"/><ellipse cx="155" cy="171.5" fill="#000000" rx="3" ry="3" style="stroke:#000000;stroke-width:1.0;"/><path d="M692,261.5 L705,261.5 C742.4123,261.5 785.4685,261.5 813.7346,261.5 " fill="none" style="stroke:#000000;stroke-width:1.0;stroke-dasharray:3.0,3.0;"/><path d="M813.7346,264.5253 L816.0036,261.5 L813.7346,258.4747 L821.2979,261.5 L813.7346,264.5253 " fill="#000000" style="stroke:#000000;stroke-width:1.0;"/><ellipse cx="692" cy="261.5" fill="#000000" rx="3" ry="3" style="stroke:#000000;stroke-width:1.0;"/><path d="M374.5,251.5 L387.5,251.5 C461.9711,251.5 547.9802,255.3891 602.174,258.3166 " fill="none" style="stroke:#000000;stroke-width:1.0;stroke-dasharray:3.0,3.0;"/><path d="M602.0043,261.4205 L604.502,258.4439 L602.3438,255.2127 L609.9338,258.741 L602.0043,261.4205 " fill="#000000" style="stroke:#000000;stroke-width:1.0;"/><ellipse cx="374.5" cy="251.5" fill="#000000" rx="3" ry="3" style="stroke:#000000;stroke-width:1.0;"/><path d="M155,191.5 L168,191.5 C189.1146,191.5 185.035,213.2179 204,222.5 C235.1204,237.7313 273.7873,244.9644 303.1396,248.3984 " fill="none" style="stroke:#000000;stroke-width:1.0;stroke-dasharray:3.0,3.0;"/><path d="M302.8066,251.4519 L305.4297,248.6482 L303.4727,245.3449 L310.7734,249.231 L302.8066,251.4519 " fill="#000000" style="stroke:#000000;stroke-width:1.0;"/><ellipse cx="155" cy="191.5" fill="#000000" rx="3" ry="3" style="stroke:#000000;stroke-width:1.0;"/><!--SRC=[NLBRJjj047tVhrZvAP4AIjA0sZm19eMYMBLY1teH3uCzX2tshBMNL5QLV- -iSIxbnTBCEJldd1bVM0V6_RQQn5yXPHI_W872eL7MgS96CndQ36H8LfkyRP1xKOvrWmQSDnXzE2OakiGgC2wlul7aupiGo3_pT7vb0kVxZvyordK3rBudcbTqWVALIc-TKL3j6L0tbQBr4bomCXwDHZroMHIUpRVS_NpMzs9DrjUDKvguVJRQop1LkJPpG2MOCWJzrK4CtbodowWh7dlwWhMe6ppPJO2oL64gLAdHl0kdyB0jnXC4opbh9BSYrMM9iRBAspx8_-PsdFhX01ydtUEggfJ5GXDxxeXR_cx3cv0VhUrFr9_jDi_JOrirkXTT7gKDUUVvNfJBz5kMHttvU90GMt61L7Q_YaWhu5p9GcxGMBOlnwUJqMHwEdr21-U35RsI_aEouEEg2gLJDGx5u2PTIAkzAL2MAbproOViGt476v1BJu4taw4QvCbGPlDTKyvfeuoci4vnTv-yaUIjTbcZNKS-dvvSAISpDEn9tYVY6f_1LuwV5hhaDSxaAlzoyaaiWDOUrYo496BD0gPbBFi7]--></g></svg>