<?xml version="1.0" encoding="us-ascii" standalone="no"?><svg xmlns="http://www.w3.org/2000/svg" xmlns:xlink="http://www.w3.org/1999/xlink" contentStyleType="text/css" height="293px" preserveAspectRatio="none" style="width:1004px;height:293px;background:#FFFFFF;" version="1.1" viewBox="0 0 1004 293" width="1004px" zoomAndPan="magnify"><defs/><g><rect fill="#F1F1F1" height="20.2969" rx="5" ry="5" style="stroke:#F1F1F1;stroke-width:1.5;" width="86" x="10" y="171.3516"/><text fill="#000000" font-family="sans-serif" font-size="14" font-weight="bold" lengthAdjust="spacing" textLength="54" x="15" y="186.3467">sensor</text><text fill="#000000" font-family="sans-serif" font-size="14" lengthAdjust="spacing" textLength="12" x="79" y="186.3467">&#160;&#160;&#160;</text><line style="stroke:#000000;stroke-width:1.0;" x1="74" x2="74" y1="171.3516" y2="191.6484"/><rect fill="none" height="20.2969" rx="5" ry="5" style="stroke:#000000;stroke-width:1.5;" width="86" x="10" y="171.3516"/><rect fill="#F1F1F1" height="40.5938" rx="5" ry="5" style="stroke:#F1F1F1;stroke-width:1.5;" width="157" x="133" y="161"/><text fill="#000000" font-family="sans-serif" font-size="14" font-weight="bold" lengthAdjust="spacing" textLength="125" x="138" y="175.9951">Characteristics</text><text fill="#000000" font-family="sans-serif" font-size="14" lengthAdjust="spacing" textLength="12" x="273" y="175.9951">&#160;&#160;&#160;</text><line style="stroke:#000000;stroke-width:1.0;" x1="268" x2="268" y1="161" y2="181.2969"/><line style="stroke:#000000;stroke-width:1.0;" x1="133" x2="290" y1="181.2969" y2="181.2969"/><text fill="#000000" font-family="sans-serif" font-size="14" font-weight="bold" lengthAdjust="spacing" textLength="95" x="138" y="196.292">AccessType</text><text fill="#000000" font-family="sans-serif" font-size="14" lengthAdjust="spacing" textLength="12" x="273" y="196.292">&#160;&#160;&#160;</text><line style="stroke:#000000;stroke-width:1.0;" x1="268" x2="268" y1="181.2969" y2="201.5938"/><rect fill="none" height="40.5938" rx="5" ry="5" style="stroke:#000000;stroke-width:1.5;" width="157" x="133" y="161"/><rect fill="#F1F1F1" height="202.9688" rx="5" ry="5" style="stroke:#F1F1F1;stroke-width:1.5;" width="288" x="327" y="10"/><text fill="#000000" font-family="sans-serif" font-size="14" font-weight="bold" lengthAdjust="spacing" textLength="94" x="332" y="24.9951">SensorType</text><text fill="#000000" font-family="sans-serif" font-size="14" lengthAdjust="spacing" textLength="95" x="509" y="24.9951">Temperature</text><line style="stroke:#000000;stroke-width:1.0;" x1="504" x2="504" y1="10" y2="30.2969"/><line style="stroke:#000000;stroke-width:1.0;" x1="327" x2="615" y1="30.2969" y2="30.2969"/><text fill="#000000" font-family="sans-serif" font-size="14" font-weight="bold" lengthAdjust="spacing" textLength="103" x="332" y="45.292">SensorModel</text><text fill="#000000" font-family="sans-serif" font-size="14" lengthAdjust="spacing" textLength="56" x="509" y="45.292">ABC123</text><line style="stroke:#000000;stroke-width:1.0;" x1="504" x2="504" y1="30.2969" y2="50.5938"/><line style="stroke:#000000;stroke-width:1.0;" x1="327" x2="615" y1="50.5938" y2="50.5938"/><text fill="#000000" font-family="sans-serif" font-size="14" font-weight="bold" lengthAdjust="spacing" textLength="166" x="332" y="65.5889">SensorManufacturer</text><text fill="#000000" font-family="sans-serif" font-size="14" lengthAdjust="spacing" textLength="101" x="509" y="65.5889">XYZ Company</text><line style="stroke:#000000;stroke-width:1.0;" x1="504" x2="504" y1="50.5938" y2="70.8906"/><line style="stroke:#000000;stroke-width:1.0;" x1="327" x2="615" y1="70.8906" y2="70.8906"/><text fill="#000000" font-family="sans-serif" font-size="14" font-weight="bold" lengthAdjust="spacing" textLength="112" x="332" y="85.8857">SensorMarket</text><text fill="#000000" font-family="sans-serif" font-size="14" lengthAdjust="spacing" textLength="66" x="509" y="85.8857">Industrial</text><line style="stroke:#000000;stroke-width:1.0;" x1="504" x2="504" y1="70.8906" y2="91.1875"/><line style="stroke:#000000;stroke-width:1.0;" x1="327" x2="615" y1="91.1875" y2="91.1875"/><text fill="#000000" font-family="sans-serif" font-size="14" font-weight="bold" lengthAdjust="spacing" textLength="113" x="332" y="106.1826">SamplingRate</text><text fill="#000000" font-family="sans-serif" font-size="14" lengthAdjust="spacing" textLength="36" x="509" y="106.1826">1000</text><line style="stroke:#000000;stroke-width:1.0;" x1="504" x2="504" y1="91.1875" y2="111.4844"/><line style="stroke:#000000;stroke-width:1.0;" x1="327" x2="615" y1="111.4844" y2="111.4844"/><text fill="#000000" font-family="sans-serif" font-size="14" font-weight="bold" lengthAdjust="spacing" textLength="74" x="332" y="126.4795">Accuracy</text><text fill="#000000" font-family="sans-serif" font-size="14" lengthAdjust="spacing" textLength="18" x="509" y="126.4795">95</text><line style="stroke:#000000;stroke-width:1.0;" x1="504" x2="504" y1="111.4844" y2="131.7813"/><line style="stroke:#000000;stroke-width:1.0;" x1="327" x2="615" y1="131.7813" y2="131.7813"/><text fill="#000000" font-family="sans-serif" font-size="14" font-weight="bold" lengthAdjust="spacing" textLength="107" x="332" y="146.7764">Consumption</text><text fill="#000000" font-family="sans-serif" font-size="14" lengthAdjust="spacing" textLength="18" x="509" y="146.7764">50</text><line style="stroke:#000000;stroke-width:1.0;" x1="504" x2="504" y1="131.7813" y2="152.0781"/><line style="stroke:#000000;stroke-width:1.0;" x1="327" x2="615" y1="152.0781" y2="152.0781"/><text fill="#000000" font-family="sans-serif" font-size="14" font-weight="bold" lengthAdjust="spacing" textLength="151" x="332" y="167.0732">SecurityStandards</text><text fill="#000000" font-family="sans-serif" font-size="14" lengthAdjust="spacing" textLength="12" x="509" y="167.0732">&#160;&#160;&#160;</text><line style="stroke:#000000;stroke-width:1.0;" x1="504" x2="504" y1="152.0781" y2="172.375"/><line style="stroke:#000000;stroke-width:1.0;" x1="327" x2="615" y1="172.375" y2="172.375"/><text fill="#000000" font-family="sans-serif" font-size="14" font-weight="bold" lengthAdjust="spacing" textLength="64" x="332" y="187.3701">Latency</text><text fill="#000000" font-family="sans-serif" font-size="14" lengthAdjust="spacing" textLength="17" x="509" y="187.3701">20</text><line style="stroke:#000000;stroke-width:1.0;" x1="504" x2="504" y1="172.375" y2="192.6719"/><line style="stroke:#000000;stroke-width:1.0;" x1="327" x2="615" y1="192.6719" y2="192.6719"/><text fill="#000000" font-family="sans-serif" font-size="14" font-weight="bold" lengthAdjust="spacing" textLength="167" x="332" y="207.667">additionalProperties</text><text fill="#000000" font-family="sans-serif" font-size="14" lengthAdjust="spacing" textLength="12" x="509" y="207.667">&#160;&#160;&#160;</text><line style="stroke:#000000;stroke-width:1.0;" x1="504" x2="504" y1="192.6719" y2="212.9688"/><rect fill="none" height="202.9688" rx="5" ry="5" style="stroke:#000000;stroke-width:1.5;" width="288" x="327" y="10"/><rect fill="#F1F1F1" height="20.2969" rx="5" ry="5" style="stroke:#F1F1F1;stroke-width:1.5;" width="51" x="754" y="133.3516"/><text fill="#000000" font-family="sans-serif" font-size="14" lengthAdjust="spacing" textLength="41" x="759" y="148.3467">GDPR</text><rect fill="none" height="20.2969" rx="5" ry="5" style="stroke:#000000;stroke-width:1.5;" width="51" x="754" y="133.3516"/><rect fill="#F1F1F1" height="60.8906" rx="5" ry="5" style="stroke:#F1F1F1;stroke-width:1.5;" width="255" x="652" y="172"/><text fill="#000000" font-family="sans-serif" font-size="14" font-weight="bold" lengthAdjust="spacing" textLength="144" x="657" y="186.9951">MeasurementUnit</text><text fill="#000000" font-family="sans-serif" font-size="14" lengthAdjust="spacing" textLength="49" x="814" y="186.9951">Celsius</text><line style="stroke:#000000;stroke-width:1.0;" x1="809" x2="809" y1="172" y2="192.2969"/><line style="stroke:#000000;stroke-width:1.0;" x1="652" x2="907" y1="192.2969" y2="192.2969"/><text fill="#000000" font-family="sans-serif" font-size="14" font-weight="bold" lengthAdjust="spacing" textLength="141" x="657" y="207.292">ConsumptionUnit</text><text fill="#000000" font-family="sans-serif" font-size="14" lengthAdjust="spacing" textLength="28" x="814" y="207.292">mW</text><line style="stroke:#000000;stroke-width:1.0;" x1="809" x2="809" y1="192.2969" y2="212.5938"/><line style="stroke:#000000;stroke-width:1.0;" x1="652" x2="907" y1="212.5938" y2="212.5938"/><text fill="#000000" font-family="sans-serif" font-size="14" font-weight="bold" lengthAdjust="spacing" textLength="147" x="657" y="227.5889">SamplingRateUnit</text><text fill="#000000" font-family="sans-serif" font-size="14" lengthAdjust="spacing" textLength="88" x="814" y="227.5889">milliseconds</text><line style="stroke:#000000;stroke-width:1.0;" x1="809" x2="809" y1="212.5938" y2="232.8906"/><rect fill="none" height="60.8906" rx="5" ry="5" style="stroke:#000000;stroke-width:1.5;" width="255" x="652" y="172"/><rect fill="#F1F1F1" height="20.2969" rx="5" ry="5" style="stroke:#F1F1F1;stroke-width:1.5;" width="75" x="433.5" y="241.3516"/><text fill="#000000" font-family="sans-serif" font-size="14" font-weight="bold" lengthAdjust="spacing" textLength="43" x="438.5" y="256.3467">HTTP</text><text fill="#000000" font-family="sans-serif" font-size="14" lengthAdjust="spacing" textLength="12" x="491.5" y="256.3467">&#160;&#160;&#160;</text><line style="stroke:#000000;stroke-width:1.0;" x1="486.5" x2="486.5" y1="241.3516" y2="261.6484"/><rect fill="none" height="20.2969" rx="5" ry="5" style="stroke:#000000;stroke-width:1.5;" width="75" x="433.5" y="241.3516"/><rect fill="#F1F1F1" height="20.2969" rx="5" ry="5" style="stroke:#F1F1F1;stroke-width:1.5;" width="94" x="732.5" y="251.3516"/><text fill="#000000" font-family="sans-serif" font-size="14" font-weight="bold" lengthAdjust="spacing" textLength="62" x="737.5" y="266.3467">method</text><text fill="#000000" font-family="sans-serif" font-size="14" lengthAdjust="spacing" textLength="12" x="809.5" y="266.3467">&#160;&#160;&#160;</text><line style="stroke:#000000;stroke-width:1.0;" x1="804.5" x2="804.5" y1="251.3516" y2="271.6484"/><rect fill="none" height="20.2969" rx="5" ry="5" style="stroke:#000000;stroke-width:1.5;" width="94" x="732.5" y="251.3516"/><rect fill="#F1F1F1" height="40.5938" rx="5" ry="5" style="stroke:#F1F1F1;stroke-width:1.5;" width="48" x="944" y="241"/><text fill="#000000" font-family="sans-serif" font-size="14" lengthAdjust="spacing" textLength="29" x="949" y="255.9951">GET</text><line style="stroke:#000000;stroke-width:1.0;" x1="944" x2="992" y1="261.2969" y2="261.2969"/><text fill="#000000" font-family="sans-serif" font-size="14" lengthAdjust="spacing" textLength="38" x="949" y="276.292">POST</text><rect fill="none" height="40.5938" rx="5" ry="5" style="stroke:#000000;stroke-width:1.5;" width="48" x="944" y="241"/><path d="M603,162.5 L616,162.5 C661.63,162.5 713.9648,155.0633 746.7551,149.495 " fill="none" style="stroke:#000000;stroke-width:1.0;stroke-dasharray:3.0,3.0;"/><path d="M747.2745,152.4934 L749.0039,149.1055 L746.2358,146.4966 L754.251,148.1966 L747.2745,152.4934 " fill="#000000" style="stroke:#000000;stroke-width:1.0;"/><ellipse cx="603" cy="162.5" fill="#000000" rx="3" ry="3" style="stroke:#000000;stroke-width:1.0;"/><path d="M603,202.5 L616,202.5 C625.2667,202.5 634.8297,202.5 644.4616,202.5 " fill="none" style="stroke:#000000;stroke-width:1.0;stroke-dasharray:3.0,3.0;"/><path d="M644.4616,205.594 L646.7822,202.5 L644.4616,199.406 L652.1967,202.5 L644.4616,205.594 " fill="#000000" style="stroke:#000000;stroke-width:1.0;"/><ellipse cx="603" cy="202.5" fill="#000000" rx="3" ry="3" style="stroke:#000000;stroke-width:1.0;"/><path d="M278,171.5 L291,171.5 C300.4634,171.5 310.0694,170.7406 319.6661,169.3926 " fill="none" style="stroke:#000000;stroke-width:1.0;stroke-dasharray:3.0,3.0;"/><path d="M320.1477,172.4692 L321.9735,169.0314 L319.1845,166.316 L327.3576,168.1887 L320.1477,172.4692 " fill="#000000" style="stroke:#000000;stroke-width:1.0;"/><ellipse cx="278" cy="171.5" fill="#000000" rx="3" ry="3" style="stroke:#000000;stroke-width:1.0;"/><path d="M815,261.5 L828,261.5 C865.4123,261.5 908.4685,261.5 936.7346,261.5 " fill="none" style="stroke:#000000;stroke-width:1.0;stroke-dasharray:3.0,3.0;"/><path d="M936.7346,264.5253 L939.0036,261.5 L936.7346,258.4747 L944.2979,261.5 L936.7346,264.5253 " fill="#000000" style="stroke:#000000;stroke-width:1.0;"/><ellipse cx="815" cy="261.5" fill="#000000" rx="3" ry="3" style="stroke:#000000;stroke-width:1.0;"/><path d="M497.5,251.5 L510.5,251.5 C584.9711,251.5 670.9802,255.3891 725.174,258.3166 " fill="none" style="stroke:#000000;stroke-width:1.0;stroke-dasharray:3.0,3.0;"/><path d="M725.0043,261.4205 L727.502,258.4439 L725.3438,255.2127 L732.9338,258.741 L725.0043,261.4205 " fill="#000000" style="stroke:#000000;stroke-width:1.0;"/><ellipse cx="497.5" cy="251.5" fill="#000000" rx="3" ry="3" style="stroke:#000000;stroke-width:1.0;"/><path d="M278,191.5 L291,191.5 C312.1146,191.5 308.035,213.2179 327,222.5 C358.1204,237.7313 396.7873,244.9644 426.1396,248.3984 " fill="none" style="stroke:#000000;stroke-width:1.0;stroke-dasharray:3.0,3.0;"/><path d="M425.8066,251.4519 L428.4297,248.6482 L426.4727,245.3449 L433.7734,249.231 L425.8066,251.4519 " fill="#000000" style="stroke:#000000;stroke-width:1.0;"/><ellipse cx="278" cy="191.5" fill="#000000" rx="3" ry="3" style="stroke:#000000;stroke-width:1.0;"/><path d="M84,181.5 L97,181.5 C106.292,181.5 116.0101,181.5 125.6854,181.5 " fill="none" style="stroke:#000000;stroke-width:1.0;stroke-dasharray:3.0,3.0;"/><path d="M125.6854,184.5965 L128.0078,181.5 L125.6854,178.4035 L133.4267,181.5 L125.6854,184.5965 " fill="#000000" style="stroke:#000000;stroke-width:1.0;"/><ellipse cx="84" cy="181.5" fill="#000000" rx="3" ry="3" style="stroke:#000000;stroke-width:1.0;"/><!--SRC=[PL9DJzj04BtlhnZvb4W1EIcWDYV0f50KgrRiq2znMEmXRB5dhVr85LNvxvrrY9k8WxNQVMzctdlZI-kaSR-j9l5N04GMoMeJJI7S-9wyI2DBXqPPfqhR0mpb7RNOjCYlKO5DYqOwRp0Q7LDINM4TE5VNoNZouHqioJ_p3AuCWwFlFtv2efjMqkOzrRoY2wGlL7dhZ9Br0KSsRQrejP0kI1h7SJm2sADNPUdPoeQHJ-UZtUCUIpHPtxHEQMBuF1uTWZboeNARt4cgfAb22B-Ysvji4Jtsi-Syaxhca_Yj-VyEigfKw2thp6XEoIayJ98PAKhB_XiajoJLEKomjihRtjwnp3sh-NP8E4oWPwYwLXPBJQoyrxJjpkskDcI3rhwjib_mNL5anp8RT2-wslcV5T48eknhNaIFnqr5-BP2N29LtPybibgoiNGEQpIMrSFuT19FpaxFdj39Yy6INad_8IXvwwf6SAh1eHZSPdEmsfiIeL9XsKy-M1-AUxcMiF0KU5C8jq6H3Y6VxHzXHcjbD8KynVr3kYF1dNPvgrr7lZWxkLOESZIi2HvISOFFqjUEIqjTSOPJM1QVJpwAkQILboiUX2GIpGFCXh7y7m00]--></g></svg>