<?xml version="1.0" encoding="us-ascii" standalone="no"?><svg xmlns="http://www.w3.org/2000/svg" xmlns:xlink="http://www.w3.org/1999/xlink" contentStyleType="text/css" height="161px" preserveAspectRatio="none" style="width:1027px;height:161px;background:#FFFFFF;" version="1.1" viewBox="0 0 1027 161" width="1027px" zoomAndPan="magnify"><defs/><g><rect fill="#F1F1F1" height="20.2969" rx="5" ry="5" style="stroke:#F1F1F1;stroke-width:1.5;" width="90" x="10" y="89.5938"/><text fill="#000000" font-family="sans-serif" font-size="14" font-weight="bold" lengthAdjust="spacing" textLength="58" x="15" y="104.5889">Service</text><text fill="#000000" font-family="sans-serif" font-size="14" lengthAdjust="spacing" textLength="12" x="83" y="104.5889">&#160;&#160;&#160;</text><line style="stroke:#000000;stroke-width:1.0;" x1="78" x2="78" y1="89.5938" y2="109.8906"/><rect fill="none" height="20.2969" rx="5" ry="5" style="stroke:#000000;stroke-width:1.5;" width="90" x="10" y="89.5938"/><rect fill="#F1F1F1" height="40.5938" rx="5" ry="5" style="stroke:#F1F1F1;stroke-width:1.5;" width="157" x="137" y="79.2422"/><text fill="#000000" font-family="sans-serif" font-size="14" font-weight="bold" lengthAdjust="spacing" textLength="125" x="142" y="94.2373">Characteristics</text><text fill="#000000" font-family="sans-serif" font-size="14" lengthAdjust="spacing" textLength="12" x="277" y="94.2373">&#160;&#160;&#160;</text><line style="stroke:#000000;stroke-width:1.0;" x1="272" x2="272" y1="79.2422" y2="99.5391"/><line style="stroke:#000000;stroke-width:1.0;" x1="137" x2="294" y1="99.5391" y2="99.5391"/><text fill="#000000" font-family="sans-serif" font-size="14" font-weight="bold" lengthAdjust="spacing" textLength="97" x="142" y="114.5342">ServiceType</text><text fill="#000000" font-family="sans-serif" font-size="14" lengthAdjust="spacing" textLength="12" x="277" y="114.5342">&#160;&#160;&#160;</text><line style="stroke:#000000;stroke-width:1.0;" x1="272" x2="272" y1="99.5391" y2="119.8359"/><rect fill="none" height="40.5938" rx="5" ry="5" style="stroke:#000000;stroke-width:1.5;" width="157" x="137" y="79.2422"/><rect fill="#F1F1F1" height="101.4844" rx="5" ry="5" style="stroke:#F1F1F1;stroke-width:1.5;" width="506" x="331" y="10"/><text fill="#000000" font-family="sans-serif" font-size="14" font-weight="bold" lengthAdjust="spacing" textLength="45" x="336" y="24.9951">Name</text><text fill="#000000" font-family="sans-serif" font-size="14" lengthAdjust="spacing" textLength="225" x="439" y="24.9951">My High Performance Database</text><line style="stroke:#000000;stroke-width:1.0;" x1="434" x2="434" y1="10" y2="30.2969"/><line style="stroke:#000000;stroke-width:1.0;" x1="331" x2="837" y1="30.2969" y2="30.2969"/><text fill="#000000" font-family="sans-serif" font-size="14" font-weight="bold" lengthAdjust="spacing" textLength="93" x="336" y="45.292">Description</text><text fill="#000000" font-family="sans-serif" font-size="14" lengthAdjust="spacing" textLength="393" x="439" y="45.292">A high performance database service with low latency.</text><line style="stroke:#000000;stroke-width:1.0;" x1="434" x2="434" y1="30.2969" y2="50.5938"/><line style="stroke:#000000;stroke-width:1.0;" x1="331" x2="837" y1="50.5938" y2="50.5938"/><text fill="#000000" font-family="sans-serif" font-size="14" font-weight="bold" lengthAdjust="spacing" textLength="40" x="336" y="65.5889">Tags</text><text fill="#000000" font-family="sans-serif" font-size="14" lengthAdjust="spacing" textLength="12" x="439" y="65.5889">&#160;&#160;&#160;</text><line style="stroke:#000000;stroke-width:1.0;" x1="434" x2="434" y1="50.5938" y2="70.8906"/><line style="stroke:#000000;stroke-width:1.0;" x1="331" x2="837" y1="70.8906" y2="70.8906"/><text fill="#000000" font-family="sans-serif" font-size="14" font-weight="bold" lengthAdjust="spacing" textLength="35" x="336" y="85.8857">Plan</text><text fill="#000000" font-family="sans-serif" font-size="14" lengthAdjust="spacing" textLength="76" x="439" y="85.8857">Enterprise</text><line style="stroke:#000000;stroke-width:1.0;" x1="434" x2="434" y1="70.8906" y2="91.1875"/><line style="stroke:#000000;stroke-width:1.0;" x1="331" x2="837" y1="91.1875" y2="91.1875"/><text fill="#000000" font-family="sans-serif" font-size="14" font-weight="bold" lengthAdjust="spacing" textLength="64" x="336" y="106.1826">Latency</text><text fill="#000000" font-family="sans-serif" font-size="14" lengthAdjust="spacing" textLength="18" x="439" y="106.1826">10</text><line style="stroke:#000000;stroke-width:1.0;" x1="434" x2="434" y1="91.1875" y2="111.4844"/><rect fill="none" height="101.4844" rx="5" ry="5" style="stroke:#000000;stroke-width:1.5;" width="506" x="331" y="10"/><rect fill="#F1F1F1" height="40.5938" rx="5" ry="5" style="stroke:#F1F1F1;stroke-width:1.5;" width="141" x="874" y="40.2422"/><text fill="#000000" font-family="sans-serif" font-size="14" lengthAdjust="spacing" textLength="131" x="879" y="55.2373">high-performance</text><line style="stroke:#000000;stroke-width:1.0;" x1="874" x2="1015" y1="60.5391" y2="60.5391"/><text fill="#000000" font-family="sans-serif" font-size="14" lengthAdjust="spacing" textLength="66" x="879" y="75.5342">database</text><rect fill="none" height="40.5938" rx="5" ry="5" style="stroke:#000000;stroke-width:1.5;" width="141" x="874" y="40.2422"/><rect fill="#F1F1F1" height="20.2969" rx="5" ry="5" style="stroke:#F1F1F1;stroke-width:1.5;" width="60" x="554" y="129.5938"/><text fill="#000000" font-family="sans-serif" font-size="14" font-weight="bold" lengthAdjust="spacing" textLength="33" x="559" y="144.5889">$ref</text><text fill="#000000" font-family="sans-serif" font-size="14" lengthAdjust="spacing" textLength="7" x="602" y="144.5889">*</text><line style="stroke:#000000;stroke-width:1.0;" x1="597" x2="597" y1="129.5938" y2="149.8906"/><rect fill="none" height="20.2969" rx="5" ry="5" style="stroke:#000000;stroke-width:1.5;" width="60" x="554" y="129.5938"/><path d="M825,60.7422 L838,60.7422 C847.2934,60.7422 857.0451,60.7422 866.7127,60.7422 " fill="none" style="stroke:#000000;stroke-width:1.0;stroke-dasharray:3.0,3.0;"/><path d="M866.7127,63.8321 L869.0301,60.7422 L866.7127,57.6523 L874.4375,60.7422 L866.7127,63.8321 " fill="#000000" style="stroke:#000000;stroke-width:1.0;"/><ellipse cx="825" cy="60.7422" fill="#000000" rx="3" ry="3" style="stroke:#000000;stroke-width:1.0;"/><path d="M282,89.7422 L295,89.7422 C304.3344,89.7422 313.8302,89.59 323.415,89.3078 " fill="none" style="stroke:#000000;stroke-width:1.0;stroke-dasharray:3.0,3.0;"/><path d="M323.5165,92.3896 L325.7264,89.2316 L323.3135,86.226 L331.1196,89.0539 L323.5165,92.3896 " fill="#000000" style="stroke:#000000;stroke-width:1.0;"/><ellipse cx="282" cy="89.7422" fill="#000000" rx="3" ry="3" style="stroke:#000000;stroke-width:1.0;"/><path d="M282,109.7422 L295,109.7422 C311.7302,109.7422 314.5578,117.6511 331,120.7422 C406.8684,135.0051 497.4629,138.6407 546.8813,139.5175 " fill="none" style="stroke:#000000;stroke-width:1.0;stroke-dasharray:3.0,3.0;"/><path d="M546.834,142.5452 L549.1521,139.553 L546.9286,136.4898 L554.4506,139.6358 L546.834,142.5452 " fill="#000000" style="stroke:#000000;stroke-width:1.0;"/><ellipse cx="282" cy="109.7422" fill="#000000" rx="3" ry="3" style="stroke:#000000;stroke-width:1.0;"/><path d="M88,99.7422 L101,99.7422 C110.292,99.7422 120.0101,99.7422 129.6854,99.7422 " fill="none" style="stroke:#000000;stroke-width:1.0;stroke-dasharray:3.0,3.0;"/><path d="M129.6854,102.8387 L132.0078,99.7422 L129.6854,96.6457 L137.4267,99.7422 L129.6854,102.8387 " fill="#000000" style="stroke:#000000;stroke-width:1.0;"/><ellipse cx="88" cy="99.7422" fill="#000000" rx="3" ry="3" style="stroke:#000000;stroke-width:1.0;"/><!--SRC=[LL7VQy8m47xFNt64FUXGKH4PFhcfcuWTigelOmzdFTjiRLAIL97X_xx4sgtBGo1ttu-xBsDZKTjFeoJxPk0E3qaVHKHy16N1bIO9QemiQM6iY4ojvPglc7am3yum5t42Az87fJEK4S4KBUxG46_zuQTa8YroAvJqj4T8F2kliVOt5fXo53W9cq2gJf2Y9HcTEtMzDSP-edVkTTer7Tu2NadnZnfZbUBLUYRTIhbRwjzyozB30NfTW5lzKW6gUDRddFxdSAVfu5Nl-I-9LVU5ZKdkhoapxsutmHAEf8qB0NgTVhS_w0nsP77OsCWlgKuI8fNb8YMm8gCcQxoibc1KeNqyxXUqs1K-mIPRu17XhP0UDmB_Qgo39eIpgWWpUHHQoOoaPOjjK89WhcoOAti53mVj9s71hqOQjW6RqW6Br3fgfFP2nYFOh9_R3so9CYumTaOasKGv0trslV07]--></g></svg>