<?xml version="1.0" encoding="us-ascii" standalone="no"?><svg xmlns="http://www.w3.org/2000/svg" xmlns:xlink="http://www.w3.org/1999/xlink" contentStyleType="text/css" height="161px" preserveAspectRatio="none" style="width:900px;height:161px;background:#FFFFFF;" version="1.1" viewBox="0 0 900 161" width="900px" zoomAndPan="magnify"><defs/><g><rect fill="#F1F1F1" height="40.5938" rx="5" ry="5" style="stroke:#F1F1F1;stroke-width:1.5;" width="157" x="10" y="79.2422"/><text fill="#000000" font-family="sans-serif" font-size="14" font-weight="bold" lengthAdjust="spacing" textLength="125" x="15" y="94.2373">Characteristics</text><text fill="#000000" font-family="sans-serif" font-size="14" lengthAdjust="spacing" textLength="12" x="150" y="94.2373">&#160;&#160;&#160;</text><line style="stroke:#000000;stroke-width:1.0;" x1="145" x2="145" y1="79.2422" y2="99.5391"/><line style="stroke:#000000;stroke-width:1.0;" x1="10" x2="167" y1="99.5391" y2="99.5391"/><text fill="#000000" font-family="sans-serif" font-size="14" font-weight="bold" lengthAdjust="spacing" textLength="97" x="15" y="114.5342">ServiceType</text><text fill="#000000" font-family="sans-serif" font-size="14" lengthAdjust="spacing" textLength="12" x="150" y="114.5342">&#160;&#160;&#160;</text><line style="stroke:#000000;stroke-width:1.0;" x1="145" x2="145" y1="99.5391" y2="119.8359"/><rect fill="none" height="40.5938" rx="5" ry="5" style="stroke:#000000;stroke-width:1.5;" width="157" x="10" y="79.2422"/><rect fill="#F1F1F1" height="101.4844" rx="5" ry="5" style="stroke:#F1F1F1;stroke-width:1.5;" width="506" x="204" y="10"/><text fill="#000000" font-family="sans-serif" font-size="14" font-weight="bold" lengthAdjust="spacing" textLength="45" x="209" y="24.9951">Name</text><text fill="#000000" font-family="sans-serif" font-size="14" lengthAdjust="spacing" textLength="225" x="312" y="24.9951">My High Performance Database</text><line style="stroke:#000000;stroke-width:1.0;" x1="307" x2="307" y1="10" y2="30.2969"/><line style="stroke:#000000;stroke-width:1.0;" x1="204" x2="710" y1="30.2969" y2="30.2969"/><text fill="#000000" font-family="sans-serif" font-size="14" font-weight="bold" lengthAdjust="spacing" textLength="93" x="209" y="45.292">Description</text><text fill="#000000" font-family="sans-serif" font-size="14" lengthAdjust="spacing" textLength="393" x="312" y="45.292">A high performance database service with low latency.</text><line style="stroke:#000000;stroke-width:1.0;" x1="307" x2="307" y1="30.2969" y2="50.5938"/><line style="stroke:#000000;stroke-width:1.0;" x1="204" x2="710" y1="50.5938" y2="50.5938"/><text fill="#000000" font-family="sans-serif" font-size="14" font-weight="bold" lengthAdjust="spacing" textLength="40" x="209" y="65.5889">Tags</text><text fill="#000000" font-family="sans-serif" font-size="14" lengthAdjust="spacing" textLength="12" x="312" y="65.5889">&#160;&#160;&#160;</text><line style="stroke:#000000;stroke-width:1.0;" x1="307" x2="307" y1="50.5938" y2="70.8906"/><line style="stroke:#000000;stroke-width:1.0;" x1="204" x2="710" y1="70.8906" y2="70.8906"/><text fill="#000000" font-family="sans-serif" font-size="14" font-weight="bold" lengthAdjust="spacing" textLength="35" x="209" y="85.8857">Plan</text><text fill="#000000" font-family="sans-serif" font-size="14" lengthAdjust="spacing" textLength="76" x="312" y="85.8857">Enterprise</text><line style="stroke:#000000;stroke-width:1.0;" x1="307" x2="307" y1="70.8906" y2="91.1875"/><line style="stroke:#000000;stroke-width:1.0;" x1="204" x2="710" y1="91.1875" y2="91.1875"/><text fill="#000000" font-family="sans-serif" font-size="14" font-weight="bold" lengthAdjust="spacing" textLength="64" x="209" y="106.1826">Latency</text><text fill="#000000" font-family="sans-serif" font-size="14" lengthAdjust="spacing" textLength="18" x="312" y="106.1826">10</text><line style="stroke:#000000;stroke-width:1.0;" x1="307" x2="307" y1="91.1875" y2="111.4844"/><rect fill="none" height="101.4844" rx="5" ry="5" style="stroke:#000000;stroke-width:1.5;" width="506" x="204" y="10"/><rect fill="#F1F1F1" height="40.5938" rx="5" ry="5" style="stroke:#F1F1F1;stroke-width:1.5;" width="141" x="747" y="40.2422"/><text fill="#000000" font-family="sans-serif" font-size="14" lengthAdjust="spacing" textLength="131" x="752" y="55.2373">high-performance</text><line style="stroke:#000000;stroke-width:1.0;" x1="747" x2="888" y1="60.5391" y2="60.5391"/><text fill="#000000" font-family="sans-serif" font-size="14" lengthAdjust="spacing" textLength="66" x="752" y="75.5342">database</text><rect fill="none" height="40.5938" rx="5" ry="5" style="stroke:#000000;stroke-width:1.5;" width="141" x="747" y="40.2422"/><rect fill="#F1F1F1" height="20.2969" rx="5" ry="5" style="stroke:#F1F1F1;stroke-width:1.5;" width="60" x="427" y="129.5938"/><text fill="#000000" font-family="sans-serif" font-size="14" font-weight="bold" lengthAdjust="spacing" textLength="33" x="432" y="144.5889">$ref</text><text fill="#000000" font-family="sans-serif" font-size="14" lengthAdjust="spacing" textLength="7" x="475" y="144.5889">*</text><line style="stroke:#000000;stroke-width:1.0;" x1="470" x2="470" y1="129.5938" y2="149.8906"/><rect fill="none" height="20.2969" rx="5" ry="5" style="stroke:#000000;stroke-width:1.5;" width="60" x="427" y="129.5938"/><path d="M698,60.7422 L711,60.7422 C720.2934,60.7422 730.0451,60.7422 739.7127,60.7422 " fill="none" style="stroke:#000000;stroke-width:1.0;stroke-dasharray:3.0,3.0;"/><path d="M739.7127,63.8321 L742.0301,60.7422 L739.7127,57.6523 L747.4375,60.7422 L739.7127,63.8321 " fill="#000000" style="stroke:#000000;stroke-width:1.0;"/><ellipse cx="698" cy="60.7422" fill="#000000" rx="3" ry="3" style="stroke:#000000;stroke-width:1.0;"/><path d="M155,89.7422 L168,89.7422 C177.3344,89.7422 186.8302,89.59 196.415,89.3078 " fill="none" style="stroke:#000000;stroke-width:1.0;stroke-dasharray:3.0,3.0;"/><path d="M196.5165,92.3896 L198.7264,89.2316 L196.3135,86.226 L204.1196,89.0539 L196.5165,92.3896 " fill="#000000" style="stroke:#000000;stroke-width:1.0;"/><ellipse cx="155" cy="89.7422" fill="#000000" rx="3" ry="3" style="stroke:#000000;stroke-width:1.0;"/><path d="M155,109.7422 L168,109.7422 C184.7302,109.7422 187.5578,117.6511 204,120.7422 C279.8684,135.0051 370.4629,138.6407 419.8813,139.5175 " fill="none" style="stroke:#000000;stroke-width:1.0;stroke-dasharray:3.0,3.0;"/><path d="M419.834,142.5452 L422.1521,139.553 L419.9286,136.4898 L427.4506,139.6358 L419.834,142.5452 " fill="#000000" style="stroke:#000000;stroke-width:1.0;"/><ellipse cx="155" cy="109.7422" fill="#000000" rx="3" ry="3" style="stroke:#000000;stroke-width:1.0;"/><!--SRC=[JL31Ji904BtlLqmQ3s240274S4819QGrn1OkniDGXdQrtMrsjoMDuT_TRK4vpfltthmtCsrGcIyj1VjX0DuyHOMn8SMruR7sfk1WktZ3dEpa1JMiU9B2XjHHgXn5JB10WtlKv3sqt0NfMF72S2cSv0bIfoXk58UB0ZIfYblWn4qAcJn1XeP4NFUlNX4cBiL7CzdPMVLkh2uykxbwUWtmUT5lCcn2B8KjLTXQVodzzf9T3WSMEJlO2ziyKLtGV_SxHKVdSU-ip-pCPYGEpS-OipVRm8UAbBPzOTWV3KRZ_dXF1YUThVWMyYGWbdd1CmB3S-gopkl61orBvJvX7wtuldJFwh8rLWZlfN2yARYf4mLT29TN49QYuagAd8HXwrtGac0bJLX8qv0duzupD-2Qa89Tm1Pqn38pLXhB0nV95BRHI- -H-IYI4XDxY0IRItj0rNON_W80]--></g></svg>