<?xml version="1.0" encoding="us-ascii" standalone="no"?><svg xmlns="http://www.w3.org/2000/svg" xmlns:xlink="http://www.w3.org/1999/xlink" contentStyleType="text/css" height="212px" preserveAspectRatio="none" style="width:676px;height:212px;background:#FFFFFF;" version="1.1" viewBox="0 0 676 212" width="676px" zoomAndPan="magnify"><defs/><g><rect fill="#F1F1F1" height="20.2969" rx="5" ry="5" style="stroke:#F1F1F1;stroke-width:1.5;" width="56" x="10" y="119.8906"/><text fill="#000000" font-family="sans-serif" font-size="14" font-weight="bold" lengthAdjust="spacing" textLength="24" x="15" y="134.8857">vm</text><text fill="#000000" font-family="sans-serif" font-size="14" lengthAdjust="spacing" textLength="12" x="49" y="134.8857">&#160;&#160;&#160;</text><line style="stroke:#000000;stroke-width:1.0;" x1="44" x2="44" y1="119.8906" y2="140.1875"/><rect fill="none" height="20.2969" rx="5" ry="5" style="stroke:#000000;stroke-width:1.5;" width="56" x="10" y="119.8906"/><rect fill="#F1F1F1" height="40.5938" rx="5" ry="5" style="stroke:#F1F1F1;stroke-width:1.5;" width="157" x="103" y="109.5391"/><text fill="#000000" font-family="sans-serif" font-size="14" font-weight="bold" lengthAdjust="spacing" textLength="125" x="108" y="124.5342">Characteristics</text><text fill="#000000" font-family="sans-serif" font-size="14" lengthAdjust="spacing" textLength="12" x="243" y="124.5342">&#160;&#160;&#160;</text><line style="stroke:#000000;stroke-width:1.0;" x1="238" x2="238" y1="109.5391" y2="129.8359"/><line style="stroke:#000000;stroke-width:1.0;" x1="103" x2="260" y1="129.8359" y2="129.8359"/><text fill="#000000" font-family="sans-serif" font-size="14" font-weight="bold" lengthAdjust="spacing" textLength="48" x="108" y="144.8311">Policy</text><text fill="#000000" font-family="sans-serif" font-size="14" lengthAdjust="spacing" textLength="12" x="243" y="144.8311">&#160;&#160;&#160;</text><line style="stroke:#000000;stroke-width:1.0;" x1="238" x2="238" y1="129.8359" y2="150.1328"/><rect fill="none" height="40.5938" rx="5" ry="5" style="stroke:#000000;stroke-width:1.5;" width="157" x="103" y="109.5391"/><rect fill="#F1F1F1" height="142.0781" rx="5" ry="5" style="stroke:#F1F1F1;stroke-width:1.5;" width="220" x="297" y="10"/><text fill="#000000" font-family="sans-serif" font-size="14" font-weight="bold" lengthAdjust="spacing" textLength="102" x="302" y="24.9951">Architecture</text><text fill="#000000" font-family="sans-serif" font-size="14" lengthAdjust="spacing" textLength="49" x="463" y="24.9951">x86_64</text><line style="stroke:#000000;stroke-width:1.0;" x1="458" x2="458" y1="10" y2="30.2969"/><line style="stroke:#000000;stroke-width:1.0;" x1="297" x2="517" y1="30.2969" y2="30.2969"/><text fill="#000000" font-family="sans-serif" font-size="14" font-weight="bold" lengthAdjust="spacing" textLength="31" x="302" y="45.292">CPU</text><text fill="#000000" font-family="sans-serif" font-size="14" lengthAdjust="spacing" textLength="8" x="463" y="45.292">2</text><line style="stroke:#000000;stroke-width:1.0;" x1="458" x2="458" y1="30.2969" y2="50.5938"/><line style="stroke:#000000;stroke-width:1.0;" x1="297" x2="517" y1="50.5938" y2="50.5938"/><text fill="#000000" font-family="sans-serif" font-size="14" font-weight="bold" lengthAdjust="spacing" textLength="64" x="302" y="65.5889">Memory</text><text fill="#000000" font-family="sans-serif" font-size="14" lengthAdjust="spacing" textLength="35" x="463" y="65.5889">4096</text><line style="stroke:#000000;stroke-width:1.0;" x1="458" x2="458" y1="50.5938" y2="70.8906"/><line style="stroke:#000000;stroke-width:1.0;" x1="297" x2="517" y1="70.8906" y2="70.8906"/><text fill="#000000" font-family="sans-serif" font-size="14" font-weight="bold" lengthAdjust="spacing" textLength="33" x="302" y="85.8857">GPU</text><text fill="#000000" font-family="sans-serif" font-size="14" lengthAdjust="spacing" textLength="9" x="463" y="85.8857">0</text><line style="stroke:#000000;stroke-width:1.0;" x1="458" x2="458" y1="70.8906" y2="91.1875"/><line style="stroke:#000000;stroke-width:1.0;" x1="297" x2="517" y1="91.1875" y2="91.1875"/><text fill="#000000" font-family="sans-serif" font-size="14" font-weight="bold" lengthAdjust="spacing" textLength="64" x="302" y="106.1826">Storage</text><text fill="#000000" font-family="sans-serif" font-size="14" lengthAdjust="spacing" textLength="27" x="463" y="106.1826">100</text><line style="stroke:#000000;stroke-width:1.0;" x1="458" x2="458" y1="91.1875" y2="111.4844"/><line style="stroke:#000000;stroke-width:1.0;" x1="297" x2="517" y1="111.4844" y2="111.4844"/><text fill="#000000" font-family="sans-serif" font-size="14" font-weight="bold" lengthAdjust="spacing" textLength="151" x="302" y="126.4795">SecurityStandards</text><text fill="#000000" font-family="sans-serif" font-size="14" lengthAdjust="spacing" textLength="12" x="463" y="126.4795">&#160;&#160;&#160;</text><line style="stroke:#000000;stroke-width:1.0;" x1="458" x2="458" y1="111.4844" y2="131.7813"/><line style="stroke:#000000;stroke-width:1.0;" x1="297" x2="517" y1="131.7813" y2="131.7813"/><text fill="#000000" font-family="sans-serif" font-size="14" font-weight="bold" lengthAdjust="spacing" textLength="64" x="302" y="146.7764">Latency</text><text fill="#000000" font-family="sans-serif" font-size="14" lengthAdjust="spacing" textLength="18" x="463" y="146.7764">10</text><line style="stroke:#000000;stroke-width:1.0;" x1="458" x2="458" y1="131.7813" y2="152.0781"/><rect fill="none" height="142.0781" rx="5" ry="5" style="stroke:#000000;stroke-width:1.5;" width="220" x="297" y="10"/><rect fill="#F1F1F1" height="20.2969" rx="5" ry="5" style="stroke:#F1F1F1;stroke-width:1.5;" width="51" x="583.5" y="111.8906"/><text fill="#000000" font-family="sans-serif" font-size="14" lengthAdjust="spacing" textLength="41" x="588.5" y="126.8857">GDPR</text><rect fill="none" height="20.2969" rx="5" ry="5" style="stroke:#000000;stroke-width:1.5;" width="51" x="583.5" y="111.8906"/><rect fill="#F1F1F1" height="20.2969" rx="5" ry="5" style="stroke:#F1F1F1;stroke-width:1.5;" width="141" x="336.5" y="169.8906"/><text fill="#000000" font-family="sans-serif" font-size="14" font-weight="bold" lengthAdjust="spacing" textLength="109" x="341.5" y="184.8857">Aggregatable</text><text fill="#000000" font-family="sans-serif" font-size="14" lengthAdjust="spacing" textLength="12" x="460.5" y="184.8857">&#160;&#160;&#160;</text><line style="stroke:#000000;stroke-width:1.0;" x1="455.5" x2="455.5" y1="169.8906" y2="190.1875"/><rect fill="none" height="20.2969" rx="5" ry="5" style="stroke:#000000;stroke-width:1.5;" width="141" x="336.5" y="169.8906"/><rect fill="#F1F1F1" height="40.5938" rx="5" ry="5" style="stroke:#F1F1F1;stroke-width:1.5;" width="110" x="554" y="159.5391"/><text fill="#000000" font-family="sans-serif" font-size="14" font-weight="bold" lengthAdjust="spacing" textLength="77" x="559" y="174.5342">MinCount</text><text fill="#000000" font-family="sans-serif" font-size="14" lengthAdjust="spacing" textLength="9" x="650" y="174.5342">1</text><line style="stroke:#000000;stroke-width:1.0;" x1="645" x2="645" y1="159.5391" y2="179.8359"/><line style="stroke:#000000;stroke-width:1.0;" x1="554" x2="664" y1="179.8359" y2="179.8359"/><text fill="#000000" font-family="sans-serif" font-size="14" font-weight="bold" lengthAdjust="spacing" textLength="81" x="559" y="194.8311">MaxCount</text><text fill="#000000" font-family="sans-serif" font-size="14" lengthAdjust="spacing" textLength="8" x="650" y="194.8311">4</text><line style="stroke:#000000;stroke-width:1.0;" x1="645" x2="645" y1="179.8359" y2="200.1328"/><rect fill="none" height="40.5938" rx="5" ry="5" style="stroke:#000000;stroke-width:1.5;" width="110" x="554" y="159.5391"/><path d="M505,122.0391 L518,122.0391 C537.3476,122.0391 559.0219,122.0391 576.3078,122.0391 " fill="none" style="stroke:#000000;stroke-width:1.0;stroke-dasharray:3.0,3.0;"/><path d="M576.3078,125.0828 L578.5906,122.0391 L576.3078,118.9953 L583.9171,122.0391 L576.3078,125.0828 " fill="#000000" style="stroke:#000000;stroke-width:1.0;"/><ellipse cx="505" cy="122.0391" fill="#000000" rx="3" ry="3" style="stroke:#000000;stroke-width:1.0;"/><path d="M248,120.0391 L261,120.0391 C270.3892,120.0391 280.0066,119.272 289.6035,117.953 " fill="none" style="stroke:#000000;stroke-width:1.0;stroke-dasharray:3.0,3.0;"/><path d="M290.0723,121.028 L291.9097,117.6014 L289.1347,114.8781 L297.2909,116.781 L290.0723,121.028 " fill="#000000" style="stroke:#000000;stroke-width:1.0;"/><ellipse cx="248" cy="120.0391" fill="#000000" rx="3" ry="3" style="stroke:#000000;stroke-width:1.0;"/><path d="M466.5,180.0391 L479.5,180.0391 C501.3412,180.0391 525.2625,180.0391 546.5094,180.0391 " fill="none" style="stroke:#000000;stroke-width:1.0;stroke-dasharray:3.0,3.0;"/><path d="M546.5094,183.1183 L548.8188,180.0391 L546.5094,176.9599 L554.2074,180.0391 L546.5094,183.1183 " fill="#000000" style="stroke:#000000;stroke-width:1.0;"/><ellipse cx="466.5" cy="180.0391" fill="#000000" rx="3" ry="3" style="stroke:#000000;stroke-width:1.0;"/><path d="M248,140.0391 L261,140.0391 C279.5233,140.0391 279.5994,154.6885 297,161.0391 C307.235,164.7744 318.2826,167.7864 329.2862,170.2123 " fill="none" style="stroke:#000000;stroke-width:1.0;stroke-dasharray:3.0,3.0;"/><path d="M328.6512,173.2524 L331.5663,170.6885 L329.9212,167.1721 L336.8865,171.7998 L328.6512,173.2524 " fill="#000000" style="stroke:#000000;stroke-width:1.0;"/><ellipse cx="248" cy="140.0391" fill="#000000" rx="3" ry="3" style="stroke:#000000;stroke-width:1.0;"/><path d="M54,130.0391 L67,130.0391 C76.292,130.0391 86.0101,130.0391 95.6854,130.0391 " fill="none" style="stroke:#000000;stroke-width:1.0;stroke-dasharray:3.0,3.0;"/><path d="M95.6854,133.1356 L98.0078,130.0391 L95.6854,126.9426 L103.4267,130.0391 L95.6854,133.1356 " fill="#000000" style="stroke:#000000;stroke-width:1.0;"/><ellipse cx="54" cy="130.0391" fill="#000000" rx="3" ry="3" style="stroke:#000000;stroke-width:1.0;"/><!--SRC=[JP71Ri8m38RlUGgh9v0s1AYg62SsO4o8IjLAkKpJ55AlP6kTANNPqCIxBotGSOdixxV_sCcaP6dvepGaVWM0jo-yCTIHYwSxQQLYjBfahSfMSDAzLJlDgBYowBZtCmhU0j-xkUZJA75usEOX5iOU7FBxTq5B5qrLlyrZDbPcjU6WVqLHLLRp8MP9gRHfFSZBMQnDPj6pTqvVswQLP2HrQAmQTZn9NcHotV3_NRBCOYPPRdEyulNKcgQc8gvTRgwm_BbW_qoFud8UnL5CaDBcIKMKI-8aNC4URQaDmQ0tx0_zdhz5ba4deKyotmJA55ywHs1TO5Tq5j4AIbDPXP2wjxTwMx5hxegbt4juTbUxkZ7KMMSTTY6UNo3CQQ-jeGA9nN8JdehWoN3yPRWf3lpR1yqGetKpmIOKCtoNLSwkLPbKKpQ6PFruEn8hILdblcCCIA9Ps1wS5ly1]--></g></svg>