<?xml version="1.0" encoding="us-ascii" standalone="no"?><svg xmlns="http://www.w3.org/2000/svg" xmlns:xlink="http://www.w3.org/1999/xlink" contentStyleType="text/css" height="292px" preserveAspectRatio="none" style="width:684px;height:292px;background:#FFFFFF;" version="1.1" viewBox="0 0 684 292" width="684px" zoomAndPan="magnify"><defs/><g><rect fill="#F1F1F1" height="60.8906" rx="5" ry="5" style="stroke:#F1F1F1;stroke-width:1.5;" width="157" x="10" y="150.5"/><text fill="#000000" font-family="sans-serif" font-size="14" font-weight="bold" lengthAdjust="spacing" textLength="125" x="15" y="165.4951">Characteristics</text><text fill="#000000" font-family="sans-serif" font-size="14" lengthAdjust="spacing" textLength="12" x="150" y="165.4951">&#160;&#160;&#160;</text><line style="stroke:#000000;stroke-width:1.0;" x1="145" x2="145" y1="150.5" y2="170.7969"/><line style="stroke:#000000;stroke-width:1.0;" x1="10" x2="167" y1="170.7969" y2="170.7969"/><text fill="#000000" font-family="sans-serif" font-size="14" font-weight="bold" lengthAdjust="spacing" textLength="84" x="15" y="185.792">Properties</text><text fill="#000000" font-family="sans-serif" font-size="14" lengthAdjust="spacing" textLength="12" x="150" y="185.792">&#160;&#160;&#160;</text><line style="stroke:#000000;stroke-width:1.0;" x1="145" x2="145" y1="170.7969" y2="191.0938"/><line style="stroke:#000000;stroke-width:1.0;" x1="10" x2="167" y1="191.0938" y2="191.0938"/><text fill="#000000" font-family="sans-serif" font-size="14" font-weight="bold" lengthAdjust="spacing" textLength="48" x="15" y="206.0889">Policy</text><text fill="#000000" font-family="sans-serif" font-size="14" lengthAdjust="spacing" textLength="12" x="150" y="206.0889">&#160;&#160;&#160;</text><line style="stroke:#000000;stroke-width:1.0;" x1="145" x2="145" y1="191.0938" y2="211.3906"/><rect fill="none" height="60.8906" rx="5" ry="5" style="stroke:#000000;stroke-width:1.5;" width="157" x="10" y="150.5"/><rect fill="#F1F1F1" height="121.7813" rx="5" ry="5" style="stroke:#F1F1F1;stroke-width:1.5;" width="215" x="204" y="10"/><text fill="#000000" font-family="sans-serif" font-size="14" font-weight="bold" lengthAdjust="spacing" textLength="102" x="209" y="24.9951">Architecture</text><text fill="#000000" font-family="sans-serif" font-size="14" lengthAdjust="spacing" textLength="49" x="321" y="24.9951">x86_64</text><line style="stroke:#000000;stroke-width:1.0;" x1="316" x2="316" y1="10" y2="30.2969"/><line style="stroke:#000000;stroke-width:1.0;" x1="204" x2="419" y1="30.2969" y2="30.2969"/><text fill="#000000" font-family="sans-serif" font-size="14" font-weight="bold" lengthAdjust="spacing" textLength="22" x="209" y="45.292">OS</text><text fill="#000000" font-family="sans-serif" font-size="14" lengthAdjust="spacing" textLength="93" x="321" y="45.292">Ubuntu 22.04</text><line style="stroke:#000000;stroke-width:1.0;" x1="316" x2="316" y1="30.2969" y2="50.5938"/><line style="stroke:#000000;stroke-width:1.0;" x1="204" x2="419" y1="50.5938" y2="50.5938"/><text fill="#000000" font-family="sans-serif" font-size="14" font-weight="bold" lengthAdjust="spacing" textLength="31" x="209" y="65.5889">CPU</text><text fill="#000000" font-family="sans-serif" font-size="14" lengthAdjust="spacing" textLength="8" x="321" y="65.5889">2</text><line style="stroke:#000000;stroke-width:1.0;" x1="316" x2="316" y1="50.5938" y2="70.8906"/><line style="stroke:#000000;stroke-width:1.0;" x1="204" x2="419" y1="70.8906" y2="70.8906"/><text fill="#000000" font-family="sans-serif" font-size="14" font-weight="bold" lengthAdjust="spacing" textLength="64" x="209" y="85.8857">Memory</text><text fill="#000000" font-family="sans-serif" font-size="14" lengthAdjust="spacing" textLength="34" x="321" y="85.8857">8192</text><line style="stroke:#000000;stroke-width:1.0;" x1="316" x2="316" y1="70.8906" y2="91.1875"/><line style="stroke:#000000;stroke-width:1.0;" x1="204" x2="419" y1="91.1875" y2="91.1875"/><text fill="#000000" font-family="sans-serif" font-size="14" font-weight="bold" lengthAdjust="spacing" textLength="33" x="209" y="106.1826">GPU</text><text fill="#000000" font-family="sans-serif" font-size="14" lengthAdjust="spacing" textLength="12" x="321" y="106.1826">&#160;&#160;&#160;</text><line style="stroke:#000000;stroke-width:1.0;" x1="316" x2="316" y1="91.1875" y2="111.4844"/><line style="stroke:#000000;stroke-width:1.0;" x1="204" x2="419" y1="111.4844" y2="111.4844"/><text fill="#000000" font-family="sans-serif" font-size="14" font-weight="bold" lengthAdjust="spacing" textLength="64" x="209" y="126.4795">Storage</text><text fill="#000000" font-family="sans-serif" font-size="14" lengthAdjust="spacing" textLength="25" x="321" y="126.4795">128</text><line style="stroke:#000000;stroke-width:1.0;" x1="316" x2="316" y1="111.4844" y2="131.7813"/><rect fill="none" height="121.7813" rx="5" ry="5" style="stroke:#000000;stroke-width:1.5;" width="215" x="204" y="10"/><rect fill="#F1F1F1" height="40.5938" rx="5" ry="5" style="stroke:#F1F1F1;stroke-width:1.5;" width="138" x="458.5" y="80.5"/><text fill="#000000" font-family="sans-serif" font-size="14" font-weight="bold" lengthAdjust="spacing" textLength="81" x="463.5" y="95.4951">GPUModel</text><text fill="#000000" font-family="sans-serif" font-size="14" lengthAdjust="spacing" textLength="37" x="554.5" y="95.4951">None</text><line style="stroke:#000000;stroke-width:1.0;" x1="549.5" x2="549.5" y1="80.5" y2="100.7969"/><line style="stroke:#000000;stroke-width:1.0;" x1="458.5" x2="596.5" y1="100.7969" y2="100.7969"/><text fill="#000000" font-family="sans-serif" font-size="14" font-weight="bold" lengthAdjust="spacing" textLength="78" x="463.5" y="115.792">GPUCores</text><text fill="#000000" font-family="sans-serif" font-size="14" lengthAdjust="spacing" textLength="9" x="554.5" y="115.792">0</text><line style="stroke:#000000;stroke-width:1.0;" x1="549.5" x2="549.5" y1="100.7969" y2="121.0938"/><rect fill="none" height="40.5938" rx="5" ry="5" style="stroke:#000000;stroke-width:1.5;" width="138" x="458.5" y="80.5"/><rect fill="#F1F1F1" height="60.8906" rx="5" ry="5" style="stroke:#F1F1F1;stroke-width:1.5;" width="189" x="217" y="150.5"/><text fill="#000000" font-family="sans-serif" font-size="14" font-weight="bold" lengthAdjust="spacing" textLength="64" x="222" y="165.4951">Latency</text><text fill="#000000" font-family="sans-serif" font-size="14" lengthAdjust="spacing" textLength="18" x="383" y="165.4951">30</text><line style="stroke:#000000;stroke-width:1.0;" x1="378" x2="378" y1="150.5" y2="170.7969"/><line style="stroke:#000000;stroke-width:1.0;" x1="217" x2="406" y1="170.7969" y2="170.7969"/><text fill="#000000" font-family="sans-serif" font-size="14" font-weight="bold" lengthAdjust="spacing" textLength="151" x="222" y="185.792">SecurityStandards</text><text fill="#000000" font-family="sans-serif" font-size="14" lengthAdjust="spacing" textLength="12" x="383" y="185.792">&#160;&#160;&#160;</text><line style="stroke:#000000;stroke-width:1.0;" x1="378" x2="378" y1="170.7969" y2="191.0938"/><line style="stroke:#000000;stroke-width:1.0;" x1="217" x2="406" y1="191.0938" y2="191.0938"/><text fill="#000000" font-family="sans-serif" font-size="14" font-weight="bold" lengthAdjust="spacing" textLength="134" x="222" y="206.0889">CarbonFootprint</text><text fill="#000000" font-family="sans-serif" font-size="14" lengthAdjust="spacing" textLength="12" x="383" y="206.0889">&#160;&#160;&#160;</text><line style="stroke:#000000;stroke-width:1.0;" x1="378" x2="378" y1="191.0938" y2="211.3906"/><rect fill="none" height="60.8906" rx="5" ry="5" style="stroke:#000000;stroke-width:1.5;" width="189" x="217" y="150.5"/><rect fill="#F1F1F1" height="20.2969" rx="5" ry="5" style="stroke:#F1F1F1;stroke-width:1.5;" width="51" x="502" y="141.8516"/><text fill="#000000" font-family="sans-serif" font-size="14" lengthAdjust="spacing" textLength="41" x="507" y="156.8467">GDPR</text><rect fill="none" height="20.2969" rx="5" ry="5" style="stroke:#000000;stroke-width:1.5;" width="51" x="502" y="141.8516"/><rect fill="#F1F1F1" height="40.5938" rx="5" ry="5" style="stroke:#F1F1F1;stroke-width:1.5;" width="143" x="456" y="180.5"/><text fill="#000000" font-family="sans-serif" font-size="14" font-weight="bold" lengthAdjust="spacing" textLength="78" x="461" y="195.4951">Embodied</text><text fill="#000000" font-family="sans-serif" font-size="14" lengthAdjust="spacing" textLength="27" x="567" y="195.4951">150</text><line style="stroke:#000000;stroke-width:1.0;" x1="562" x2="562" y1="180.5" y2="200.7969"/><line style="stroke:#000000;stroke-width:1.0;" x1="456" x2="599" y1="200.7969" y2="200.7969"/><text fill="#000000" font-family="sans-serif" font-size="14" font-weight="bold" lengthAdjust="spacing" textLength="96" x="461" y="215.792">Operational</text><text fill="#000000" font-family="sans-serif" font-size="14" lengthAdjust="spacing" textLength="12" x="567" y="215.792">&#160;&#160;&#160;</text><line style="stroke:#000000;stroke-width:1.0;" x1="562" x2="562" y1="200.7969" y2="221.0938"/><rect fill="none" height="40.5938" rx="5" ry="5" style="stroke:#000000;stroke-width:1.5;" width="143" x="456" y="180.5"/><rect fill="#F1F1F1" height="40.5938" rx="5" ry="5" style="stroke:#F1F1F1;stroke-width:1.5;" width="36" x="636" y="190.5"/><text fill="#000000" font-family="sans-serif" font-size="14" lengthAdjust="spacing" textLength="26" x="641" y="205.4951">200</text><line style="stroke:#000000;stroke-width:1.0;" x1="636" x2="672" y1="210.7969" y2="210.7969"/><text fill="#000000" font-family="sans-serif" font-size="14" lengthAdjust="spacing" textLength="26" x="641" y="225.792">123</text><rect fill="none" height="40.5938" rx="5" ry="5" style="stroke:#000000;stroke-width:1.5;" width="36" x="636" y="190.5"/><rect fill="#F1F1F1" height="20.2969" rx="5" ry="5" style="stroke:#F1F1F1;stroke-width:1.5;" width="141" x="241" y="239.8516"/><text fill="#000000" font-family="sans-serif" font-size="14" font-weight="bold" lengthAdjust="spacing" textLength="109" x="246" y="254.8467">Aggregatable</text><text fill="#000000" font-family="sans-serif" font-size="14" lengthAdjust="spacing" textLength="12" x="365" y="254.8467">&#160;&#160;&#160;</text><line style="stroke:#000000;stroke-width:1.0;" x1="360" x2="360" y1="239.8516" y2="260.1484"/><rect fill="none" height="20.2969" rx="5" ry="5" style="stroke:#000000;stroke-width:1.5;" width="141" x="241" y="239.8516"/><rect fill="#F1F1F1" height="40.5938" rx="5" ry="5" style="stroke:#F1F1F1;stroke-width:1.5;" width="119" x="468" y="239.5"/><text fill="#000000" font-family="sans-serif" font-size="14" font-weight="bold" lengthAdjust="spacing" textLength="77" x="473" y="254.4951">MinCount</text><text fill="#000000" font-family="sans-serif" font-size="14" lengthAdjust="spacing" textLength="9" x="564" y="254.4951">1</text><line style="stroke:#000000;stroke-width:1.0;" x1="559" x2="559" y1="239.5" y2="259.7969"/><line style="stroke:#000000;stroke-width:1.0;" x1="468" x2="587" y1="259.7969" y2="259.7969"/><text fill="#000000" font-family="sans-serif" font-size="14" font-weight="bold" lengthAdjust="spacing" textLength="81" x="473" y="274.792">MaxCount</text><text fill="#000000" font-family="sans-serif" font-size="14" lengthAdjust="spacing" textLength="18" x="564" y="274.792">10</text><line style="stroke:#000000;stroke-width:1.0;" x1="559" x2="559" y1="259.7969" y2="280.0938"/><rect fill="none" height="40.5938" rx="5" ry="5" style="stroke:#000000;stroke-width:1.5;" width="119" x="468" y="239.5"/><path d="M407,101 L420,101 C430.09,101 440.7153,101 451.1944,101 " fill="none" style="stroke:#000000;stroke-width:1.0;stroke-dasharray:3.0,3.0;"/><path d="M451.1944,104.0379 L453.4728,101 L451.1944,97.9621 L458.7892,101 L451.1944,104.0379 " fill="#000000" style="stroke:#000000;stroke-width:1.0;"/><ellipse cx="407" cy="101" fill="#000000" rx="3" ry="3" style="stroke:#000000;stroke-width:1.0;"/><path d="M155,161 L168,161 C171.2511,161 189.4037,150.2041 211.7456,136.0905 " fill="none" style="stroke:#000000;stroke-width:1.0;stroke-dasharray:3.0,3.0;"/><path d="M213.3706,138.6521 L213.6667,134.8718 L210.1206,133.529 L218.1494,132.028 L213.3706,138.6521 " fill="#000000" style="stroke:#000000;stroke-width:1.0;"/><ellipse cx="155" cy="161" fill="#000000" rx="3" ry="3" style="stroke:#000000;stroke-width:1.0;"/><path d="M395,181 L408,181 C416.6865,181 462.7653,169.1853 494.9638,160.6381 " fill="none" style="stroke:#000000;stroke-width:1.0;stroke-dasharray:3.0,3.0;"/><path d="M495.7577,163.618 L497.1987,160.0426 L494.1698,157.6581 L502.4136,158.6532 L495.7577,163.618 " fill="#000000" style="stroke:#000000;stroke-width:1.0;"/><ellipse cx="395" cy="181" fill="#000000" rx="3" ry="3" style="stroke:#000000;stroke-width:1.0;"/><path d="M587,211 L600,211 C609.339,211 619.595,211 628.607,211 " fill="none" style="stroke:#000000;stroke-width:1.0;stroke-dasharray:3.0,3.0;"/><path d="M628.607,214.018 L630.8705,211 L628.607,207.982 L636.1521,211 L628.607,214.018 " fill="#000000" style="stroke:#000000;stroke-width:1.0;"/><ellipse cx="587" cy="211" fill="#000000" rx="3" ry="3" style="stroke:#000000;stroke-width:1.0;"/><path d="M395,201 L408,201 C421.039,201 434.8817,201 448.3393,201 " fill="none" style="stroke:#000000;stroke-width:1.0;stroke-dasharray:3.0,3.0;"/><path d="M448.3393,204.148 L450.7003,201 L448.3393,197.852 L456.2094,201 L448.3393,204.148 " fill="#000000" style="stroke:#000000;stroke-width:1.0;"/><ellipse cx="395" cy="201" fill="#000000" rx="3" ry="3" style="stroke:#000000;stroke-width:1.0;"/><path d="M155,181 L168,181 C181.4063,181 195.5195,181 209.4449,181 " fill="none" style="stroke:#000000;stroke-width:1.0;stroke-dasharray:3.0,3.0;"/><path d="M209.4449,184.0845 L211.7583,181 L209.4449,177.9155 L217.1563,181 L209.4449,184.0845 " fill="#000000" style="stroke:#000000;stroke-width:1.0;"/><ellipse cx="155" cy="181" fill="#000000" rx="3" ry="3" style="stroke:#000000;stroke-width:1.0;"/><path d="M371,250 L384,250 C409.0392,250 436.4846,251.5446 460.5773,253.4197 " fill="none" style="stroke:#000000;stroke-width:1.0;stroke-dasharray:3.0,3.0;"/><path d="M460.3297,256.4986 L462.8865,253.6053 L460.8248,250.3408 L468.2745,254.0386 L460.3297,256.4986 " fill="#000000" style="stroke:#000000;stroke-width:1.0;"/><ellipse cx="371" cy="250" fill="#000000" rx="3" ry="3" style="stroke:#000000;stroke-width:1.0;"/><path d="M155,201 L168,201 C186.0917,201 187.1955,213.298 204,220 C221.5617,227.004 241.3581,233.0419 259.1047,237.827 " fill="none" style="stroke:#000000;stroke-width:1.0;stroke-dasharray:3.0,3.0;"/><path d="M258.3154,240.814 L261.345,238.4189 L259.8939,234.8399 L266.5723,239.8002 L258.3154,240.814 " fill="#000000" style="stroke:#000000;stroke-width:1.0;"/><ellipse cx="155" cy="201" fill="#000000" rx="3" ry="3" style="stroke:#000000;stroke-width:1.0;"/><!--SRC=[JLB1Rjf04BtlLuny0eaWur14EQKbX2h2hHM7NAAeMjjJPrkpWyPZ6bJbtxjhWyDntdixyzxCtjIYMNxNPDK_1H0iNpNhN91DBIQlWmLus15VE7yrWhaqZ0uDtkQpdxDfCEhO7wd7jbbZfO4e6eSziqosZefELOmxugC3vfFFqGYWGzUjfXlKbJ4LMFcMtybYC88BQacCtbVOOk-dngaGwz8xcqHpBs-9867Q8ul1YoGRBMXpR-8wx2sac3Tiv9YAjeNcmkkVW_LjyX2yd9DepiZU4ScUZPLBnwjTHeN1me__r3VrUt7JjHYosgTvFi40KNYX0kVvkgzUkbmV4QWohTlp8SgIiTIYimelFSJ6BgbfVKr6FQZVUZ3yQApUbRf1MxHtLqcbhMpZ3HoGQ-SL9kCeZARZQOQYPuEj_MFfhuMSTdjJ8OZPuL0Dria6QceuHoZSPs6JDJxeKDthWuO7DzJf5k2hmMCyX7Hr1c5b3uR9xj2Akd-AEn5y8qdt9AruDhtwQWHIPES9dc9rYxzqKubxchjDst81syUxgxdQQ5isxl0BGAlQg7nqNFeV]--></g></svg>