<?xml version="1.0" encoding="us-ascii" standalone="no"?><svg xmlns="http://www.w3.org/2000/svg" xmlns:xlink="http://www.w3.org/1999/xlink" contentStyleType="text/css" height="324px" preserveAspectRatio="none" style="width:717px;height:324px;background:#FFFFFF;" version="1.1" viewBox="0 0 717 324" width="717px" zoomAndPan="magnify"><defs/><g><rect fill="#F1F1F1" height="20.2969" rx="5" ry="5" style="stroke:#F1F1F1;stroke-width:1.5;" width="56" x="10" y="159.5938"/><text fill="#000000" font-family="sans-serif" font-size="14" font-weight="bold" lengthAdjust="spacing" textLength="24" x="15" y="174.5889">vm</text><text fill="#000000" font-family="sans-serif" font-size="14" lengthAdjust="spacing" textLength="12" x="49" y="174.5889">&#160;&#160;&#160;</text><line style="stroke:#000000;stroke-width:1.0;" x1="44" x2="44" y1="159.5938" y2="179.8906"/><rect fill="none" height="20.2969" rx="5" ry="5" style="stroke:#000000;stroke-width:1.5;" width="56" x="10" y="159.5938"/><rect fill="#F1F1F1" height="60.8906" rx="5" ry="5" style="stroke:#F1F1F1;stroke-width:1.5;" width="157" x="103" y="139.2422"/><text fill="#000000" font-family="sans-serif" font-size="14" font-weight="bold" lengthAdjust="spacing" textLength="125" x="108" y="154.2373">Characteristics</text><text fill="#000000" font-family="sans-serif" font-size="14" lengthAdjust="spacing" textLength="12" x="243" y="154.2373">&#160;&#160;&#160;</text><line style="stroke:#000000;stroke-width:1.0;" x1="238" x2="238" y1="139.2422" y2="159.5391"/><line style="stroke:#000000;stroke-width:1.0;" x1="103" x2="260" y1="159.5391" y2="159.5391"/><text fill="#000000" font-family="sans-serif" font-size="14" font-weight="bold" lengthAdjust="spacing" textLength="84" x="108" y="174.5342">Properties</text><text fill="#000000" font-family="sans-serif" font-size="14" lengthAdjust="spacing" textLength="12" x="243" y="174.5342">&#160;&#160;&#160;</text><line style="stroke:#000000;stroke-width:1.0;" x1="238" x2="238" y1="159.5391" y2="179.8359"/><line style="stroke:#000000;stroke-width:1.0;" x1="103" x2="260" y1="179.8359" y2="179.8359"/><text fill="#000000" font-family="sans-serif" font-size="14" font-weight="bold" lengthAdjust="spacing" textLength="48" x="108" y="194.8311">Policy</text><text fill="#000000" font-family="sans-serif" font-size="14" lengthAdjust="spacing" textLength="12" x="243" y="194.8311">&#160;&#160;&#160;</text><line style="stroke:#000000;stroke-width:1.0;" x1="238" x2="238" y1="179.8359" y2="200.1328"/><rect fill="none" height="60.8906" rx="5" ry="5" style="stroke:#000000;stroke-width:1.5;" width="157" x="103" y="139.2422"/><rect fill="#F1F1F1" height="101.4844" rx="5" ry="5" style="stroke:#F1F1F1;stroke-width:1.5;" width="171" x="325.5" y="10"/><text fill="#000000" font-family="sans-serif" font-size="14" font-weight="bold" lengthAdjust="spacing" textLength="102" x="330.5" y="24.9951">Architecture</text><text fill="#000000" font-family="sans-serif" font-size="14" lengthAdjust="spacing" textLength="49" x="442.5" y="24.9951">x86_64</text><line style="stroke:#000000;stroke-width:1.0;" x1="437.5" x2="437.5" y1="10" y2="30.2969"/><line style="stroke:#000000;stroke-width:1.0;" x1="325.5" x2="496.5" y1="30.2969" y2="30.2969"/><text fill="#000000" font-family="sans-serif" font-size="14" font-weight="bold" lengthAdjust="spacing" textLength="31" x="330.5" y="45.292">CPU</text><text fill="#000000" font-family="sans-serif" font-size="14" lengthAdjust="spacing" textLength="9" x="442.5" y="45.292">6</text><line style="stroke:#000000;stroke-width:1.0;" x1="437.5" x2="437.5" y1="30.2969" y2="50.5938"/><line style="stroke:#000000;stroke-width:1.0;" x1="325.5" x2="496.5" y1="50.5938" y2="50.5938"/><text fill="#000000" font-family="sans-serif" font-size="14" font-weight="bold" lengthAdjust="spacing" textLength="64" x="330.5" y="65.5889">Memory</text><text fill="#000000" font-family="sans-serif" font-size="14" lengthAdjust="spacing" textLength="34" x="442.5" y="65.5889">8192</text><line style="stroke:#000000;stroke-width:1.0;" x1="437.5" x2="437.5" y1="50.5938" y2="70.8906"/><line style="stroke:#000000;stroke-width:1.0;" x1="325.5" x2="496.5" y1="70.8906" y2="70.8906"/><text fill="#000000" font-family="sans-serif" font-size="14" font-weight="bold" lengthAdjust="spacing" textLength="33" x="330.5" y="85.8857">GPU</text><text fill="#000000" font-family="sans-serif" font-size="14" lengthAdjust="spacing" textLength="9" x="442.5" y="85.8857">1</text><line style="stroke:#000000;stroke-width:1.0;" x1="437.5" x2="437.5" y1="70.8906" y2="91.1875"/><line style="stroke:#000000;stroke-width:1.0;" x1="325.5" x2="496.5" y1="91.1875" y2="91.1875"/><text fill="#000000" font-family="sans-serif" font-size="14" font-weight="bold" lengthAdjust="spacing" textLength="64" x="330.5" y="106.1826">Storage</text><text fill="#000000" font-family="sans-serif" font-size="14" lengthAdjust="spacing" textLength="27" x="442.5" y="106.1826">500</text><line style="stroke:#000000;stroke-width:1.0;" x1="437.5" x2="437.5" y1="91.1875" y2="111.4844"/><rect fill="none" height="101.4844" rx="5" ry="5" style="stroke:#000000;stroke-width:1.5;" width="171" x="325.5" y="10"/><rect fill="#F1F1F1" height="81.1875" rx="5" ry="5" style="stroke:#F1F1F1;stroke-width:1.5;" width="228" x="297" y="129.1484"/><text fill="#000000" font-family="sans-serif" font-size="14" font-weight="bold" lengthAdjust="spacing" textLength="64" x="302" y="144.1436">Latency</text><text fill="#000000" font-family="sans-serif" font-size="14" lengthAdjust="spacing" textLength="17" x="503" y="144.1436">20</text><line style="stroke:#000000;stroke-width:1.0;" x1="498" x2="498" y1="129.1484" y2="149.4453"/><line style="stroke:#000000;stroke-width:1.0;" x1="297" x2="525" y1="149.4453" y2="149.4453"/><text fill="#000000" font-family="sans-serif" font-size="14" font-weight="bold" lengthAdjust="spacing" textLength="151" x="302" y="164.4404">SecurityStandards</text><text fill="#000000" font-family="sans-serif" font-size="14" lengthAdjust="spacing" textLength="12" x="503" y="164.4404">&#160;&#160;&#160;</text><line style="stroke:#000000;stroke-width:1.0;" x1="498" x2="498" y1="149.4453" y2="169.7422"/><line style="stroke:#000000;stroke-width:1.0;" x1="297" x2="525" y1="169.7422" y2="169.7422"/><text fill="#000000" font-family="sans-serif" font-size="14" font-weight="bold" lengthAdjust="spacing" textLength="134" x="302" y="184.7373">CarbonFootprint</text><text fill="#000000" font-family="sans-serif" font-size="14" lengthAdjust="spacing" textLength="12" x="503" y="184.7373">&#160;&#160;&#160;</text><line style="stroke:#000000;stroke-width:1.0;" x1="498" x2="498" y1="169.7422" y2="190.0391"/><line style="stroke:#000000;stroke-width:1.0;" x1="297" x2="525" y1="190.0391" y2="190.0391"/><text fill="#000000" font-family="sans-serif" font-size="14" font-weight="bold" lengthAdjust="spacing" textLength="191" x="302" y="205.0342">WorkloadCaracteristics</text><text fill="#000000" font-family="sans-serif" font-size="14" lengthAdjust="spacing" textLength="12" x="503" y="205.0342">&#160;&#160;&#160;</text><line style="stroke:#000000;stroke-width:1.0;" x1="498" x2="498" y1="190.0391" y2="210.3359"/><rect fill="none" height="81.1875" rx="5" ry="5" style="stroke:#000000;stroke-width:1.5;" width="228" x="297" y="129.1484"/><rect fill="#F1F1F1" height="20.2969" rx="5" ry="5" style="stroke:#F1F1F1;stroke-width:1.5;" width="51" x="608" y="95.5938"/><text fill="#000000" font-family="sans-serif" font-size="14" lengthAdjust="spacing" textLength="41" x="613" y="110.5889">GDPR</text><rect fill="none" height="20.2969" rx="5" ry="5" style="stroke:#000000;stroke-width:1.5;" width="51" x="608" y="95.5938"/><rect fill="#F1F1F1" height="40.5938" rx="5" ry="5" style="stroke:#F1F1F1;stroke-width:1.5;" width="143" x="562" y="134.2422"/><text fill="#000000" font-family="sans-serif" font-size="14" font-weight="bold" lengthAdjust="spacing" textLength="78" x="567" y="149.2373">Embodied</text><text fill="#000000" font-family="sans-serif" font-size="14" lengthAdjust="spacing" textLength="27" x="673" y="149.2373">100</text><line style="stroke:#000000;stroke-width:1.0;" x1="668" x2="668" y1="134.2422" y2="154.5391"/><line style="stroke:#000000;stroke-width:1.0;" x1="562" x2="705" y1="154.5391" y2="154.5391"/><text fill="#000000" font-family="sans-serif" font-size="14" font-weight="bold" lengthAdjust="spacing" textLength="96" x="567" y="169.5342">Operational</text><text fill="#000000" font-family="sans-serif" font-size="14" lengthAdjust="spacing" textLength="17" x="673" y="169.5342">25</text><line style="stroke:#000000;stroke-width:1.0;" x1="668" x2="668" y1="154.5391" y2="174.8359"/><rect fill="none" height="40.5938" rx="5" ry="5" style="stroke:#000000;stroke-width:1.5;" width="143" x="562" y="134.2422"/><rect fill="#F1F1F1" height="60.8906" rx="5" ry="5" style="stroke:#F1F1F1;stroke-width:1.5;" width="28" x="619.5" y="193.2422"/><text fill="#000000" font-family="sans-serif" font-size="14" lengthAdjust="spacing" textLength="18" x="624.5" y="208.2373">70</text><line style="stroke:#000000;stroke-width:1.0;" x1="619.5" x2="647.5" y1="213.5391" y2="213.5391"/><text fill="#000000" font-family="sans-serif" font-size="14" lengthAdjust="spacing" textLength="18" x="624.5" y="228.5342">65</text><line style="stroke:#000000;stroke-width:1.0;" x1="619.5" x2="647.5" y1="233.8359" y2="233.8359"/><text fill="#000000" font-family="sans-serif" font-size="14" lengthAdjust="spacing" textLength="17" x="624.5" y="248.8311">80</text><rect fill="none" height="60.8906" rx="5" ry="5" style="stroke:#000000;stroke-width:1.5;" width="28" x="619.5" y="193.2422"/><rect fill="#F1F1F1" height="20.2969" rx="5" ry="5" style="stroke:#F1F1F1;stroke-width:1.5;" width="141" x="340.5" y="267.5938"/><text fill="#000000" font-family="sans-serif" font-size="14" font-weight="bold" lengthAdjust="spacing" textLength="109" x="345.5" y="282.5889">Aggregatable</text><text fill="#000000" font-family="sans-serif" font-size="14" lengthAdjust="spacing" textLength="12" x="464.5" y="282.5889">&#160;&#160;&#160;</text><line style="stroke:#000000;stroke-width:1.0;" x1="459.5" x2="459.5" y1="267.5938" y2="287.8906"/><rect fill="none" height="20.2969" rx="5" ry="5" style="stroke:#000000;stroke-width:1.5;" width="141" x="340.5" y="267.5938"/><rect fill="#F1F1F1" height="40.5938" rx="5" ry="5" style="stroke:#F1F1F1;stroke-width:1.5;" width="110" x="578.5" y="272.2422"/><text fill="#000000" font-family="sans-serif" font-size="14" font-weight="bold" lengthAdjust="spacing" textLength="77" x="583.5" y="287.2373">MinCount</text><text fill="#000000" font-family="sans-serif" font-size="14" lengthAdjust="spacing" textLength="8" x="674.5" y="287.2373">2</text><line style="stroke:#000000;stroke-width:1.0;" x1="669.5" x2="669.5" y1="272.2422" y2="292.5391"/><line style="stroke:#000000;stroke-width:1.0;" x1="578.5" x2="688.5" y1="292.5391" y2="292.5391"/><text fill="#000000" font-family="sans-serif" font-size="14" font-weight="bold" lengthAdjust="spacing" textLength="81" x="583.5" y="307.5342">MaxCount</text><text fill="#000000" font-family="sans-serif" font-size="14" lengthAdjust="spacing" textLength="9" x="674.5" y="307.5342">5</text><line style="stroke:#000000;stroke-width:1.0;" x1="669.5" x2="669.5" y1="292.5391" y2="312.8359"/><rect fill="none" height="40.5938" rx="5" ry="5" style="stroke:#000000;stroke-width:1.5;" width="110" x="578.5" y="272.2422"/><path d="M248,149.7422 L261,149.7422 C281.8273,149.7422 279.6597,131.2788 297,119.7422 C304.1504,114.985 311.7305,110.3187 319.4474,105.8244 " fill="none" style="stroke:#000000;stroke-width:1.0;stroke-dasharray:3.0,3.0;"/><path d="M320.9406,108.4276 L321.3997,104.7045 L317.9542,103.2212 L325.9553,102.0914 L320.9406,108.4276 " fill="#000000" style="stroke:#000000;stroke-width:1.0;"/><ellipse cx="248" cy="149.7422" fill="#000000" rx="3" ry="3" style="stroke:#000000;stroke-width:1.0;"/><path d="M513,159.7422 L526,159.7422 C548.0079,159.7422 542.8544,136.5953 562,125.7422 C573.809,119.048 588.0115,114.4684 600.6007,111.4001 " fill="none" style="stroke:#000000;stroke-width:1.0;stroke-dasharray:3.0,3.0;"/><path d="M601.289,114.4378 L602.879,110.8839 L599.9125,108.3624 L608.195,109.6795 L601.289,114.4378 " fill="#000000" style="stroke:#000000;stroke-width:1.0;"/><ellipse cx="513" cy="159.7422" fill="#000000" rx="3" ry="3" style="stroke:#000000;stroke-width:1.0;"/><path d="M513,179.7422 L526,179.7422 C536.6949,179.7422 547.8371,178.5432 558.7178,176.6704 " fill="none" style="stroke:#000000;stroke-width:1.0;stroke-dasharray:3.0,3.0;"/><path d="M559.2769,179.6634 L560.9624,176.2511 L558.1587,173.6775 L566.2,175.2727 L559.2769,179.6634 " fill="#000000" style="stroke:#000000;stroke-width:1.0;"/><ellipse cx="513" cy="179.7422" fill="#000000" rx="3" ry="3" style="stroke:#000000;stroke-width:1.0;"/><path d="M513,199.7422 L526,199.7422 C556.6898,199.7422 591.1567,209.2587 612.4746,216.3067 " fill="none" style="stroke:#000000;stroke-width:1.0;stroke-dasharray:3.0,3.0;"/><path d="M611.4896,219.1977 L614.643,217.0455 L613.4597,213.4156 L619.7024,218.7694 L611.4896,219.1977 " fill="#000000" style="stroke:#000000;stroke-width:1.0;"/><ellipse cx="513" cy="199.7422" fill="#000000" rx="3" ry="3" style="stroke:#000000;stroke-width:1.0;"/><path d="M248,169.7422 L261,169.7422 C270.3184,169.7422 279.9635,169.7422 289.6604,169.7422 " fill="none" style="stroke:#000000;stroke-width:1.0;stroke-dasharray:3.0,3.0;"/><path d="M289.6604,172.8552 L291.9952,169.7422 L289.6604,166.6292 L297.443,169.7422 L289.6604,172.8552 " fill="#000000" style="stroke:#000000;stroke-width:1.0;"/><ellipse cx="248" cy="169.7422" fill="#000000" rx="3" ry="3" style="stroke:#000000;stroke-width:1.0;"/><path d="M470.5,277.7422 L483.5,277.7422 C512.4698,277.7422 544.4403,280.5652 571.3558,283.7619 " fill="none" style="stroke:#000000;stroke-width:1.0;stroke-dasharray:3.0,3.0;"/><path d="M570.992,286.7422 L573.5911,284.0347 L571.7196,280.7816 L578.8066,284.6714 L570.992,286.7422 " fill="#000000" style="stroke:#000000;stroke-width:1.0;"/><ellipse cx="470.5" cy="277.7422" fill="#000000" rx="3" ry="3" style="stroke:#000000;stroke-width:1.0;"/><path d="M248,189.7422 L261,189.7422 C281.8273,189.7422 279.6197,208.266 297,219.7422 C323.6087,237.3118 356.222,253.4782 379.6502,264.2546 " fill="none" style="stroke:#000000;stroke-width:1.0;stroke-dasharray:3.0,3.0;"/><path d="M378.3834,267.0383 L381.738,265.2047 L380.917,261.471 L386.6093,267.4216 L378.3834,267.0383 " fill="#000000" style="stroke:#000000;stroke-width:1.0;"/><ellipse cx="248" cy="189.7422" fill="#000000" rx="3" ry="3" style="stroke:#000000;stroke-width:1.0;"/><path d="M54,169.7422 L67,169.7422 C76.292,169.7422 86.0101,169.7422 95.6854,169.7422 " fill="none" style="stroke:#000000;stroke-width:1.0;stroke-dasharray:3.0,3.0;"/><path d="M95.6854,172.8387 L98.0078,169.7422 L95.6854,166.6457 L103.4267,169.7422 L95.6854,172.8387 " fill="#000000" style="stroke:#000000;stroke-width:1.0;"/><ellipse cx="54" cy="169.7422" fill="#000000" rx="3" ry="3" style="stroke:#000000;stroke-width:1.0;"/><!--SRC=[NLB1Rjim3BthAmIV4c0j72FnifowfMc78iQCkcaFmp3GDkTgjQM0fhC6HVvzaXlRIIy2-Hxr-4ZfgcOW_biRBTw4bDwkyXRIHJPUFWD1naYgPfNLFM6fhvGzAyQC6qABUw_py7SuzJvr_3BUM3ZiymWhGtiBpITVWXwzRQicVPwm8IYSuCptM_3mpdancIqIApnpiGP6dJdPm1z4C6j8yJvXq3bGxcxyF9AkvtLyxntJNuDVeDJe6sDuIqhpIHDBhghKv0fpvzNl6rdYX_K4h8o6qdcO7Pb3B_jawAKqa2y_Bd8mzFb4C9mDyTplJ9ulmfIgdNXuYg8WB80XBV7STwJqqZJjDC69wmXUExXtBBhp80xY2dNU_WWHbw1v4wtb3gcsSyh9PU07qyjfYWpXQADVjFcdPMQghIfHigfmB4QtyLhMfg4CPMud9fKsRabZSGSxaFUsjQrRI9UD7gAnJ5OTA5TwfyZe2ZMBkyVelKX-Dvni3RV5uVJYcsAP85bFyZ4Ir_W7cfBjrSo-aYuMSlDmSp4NQz15Ot_JGg8MxS2qjrpo7m00]--></g></svg>