<svg xmlns="http://www.w3.org/2000/svg" xmlns:xlink="http://www.w3.org/1999/xlink" contentStyleType="text/css" height="239px" preserveAspectRatio="none" style="width:1003px;height:239px;background:#FFFFFF;" version="1.1" viewBox="0 0 1003 239" width="1003px" zoomAndPan="magnify"><defs/><g><rect fill="#F1F1F1" height="101.4844" rx="5" ry="5" style="stroke:#F1F1F1;stroke-width:1.5;" width="407.7891" x="10" y="26.7578"/><text fill="#000000" font-family="sans-serif" font-size="14" font-weight="bold" lengthAdjust="spacing" textLength="69.8701" x="15" y="41.7529">$schema</text><text fill="#000000" font-family="sans-serif" font-size="14" lengthAdjust="spacing" textLength="291.2793" x="113.9492" y="41.7529">http://json-schema.org/draft-07/schema#</text><line style="stroke:#000000;stroke-width:1.0;" x1="108.9492" x2="108.9492" y1="26.7578" y2="47.0547"/><line style="stroke:#000000;stroke-width:1.0;" x1="10" x2="417.7891" y1="47.0547" y2="47.0547"/><text fill="#000000" font-family="sans-serif" font-size="14" font-weight="bold" lengthAdjust="spacing" textLength="35.335" x="15" y="62.0498">type</text><text fill="#000000" font-family="sans-serif" font-size="14" lengthAdjust="spacing" textLength="43.1416" x="113.9492" y="62.0498">object</text><line style="stroke:#000000;stroke-width:1.0;" x1="108.9492" x2="108.9492" y1="47.0547" y2="67.3516"/><line style="stroke:#000000;stroke-width:1.0;" x1="10" x2="417.7891" y1="67.3516" y2="67.3516"/><text fill="#000000" font-family="sans-serif" font-size="14" font-weight="bold" lengthAdjust="spacing" textLength="32.4775" x="15" y="82.3467">title</text><text fill="#000000" font-family="sans-serif" font-size="14" lengthAdjust="spacing" textLength="113.251" x="113.9492" y="82.3467">Liqo Credentials</text><line style="stroke:#000000;stroke-width:1.0;" x1="108.9492" x2="108.9492" y1="67.3516" y2="87.6484"/><line style="stroke:#000000;stroke-width:1.0;" x1="10" x2="417.7891" y1="87.6484" y2="87.6484"/><text fill="#000000" font-family="sans-serif" font-size="14" font-weight="bold" lengthAdjust="spacing" textLength="88.9492" x="15" y="102.6436">description</text><text fill="#000000" font-family="sans-serif" font-size="14" lengthAdjust="spacing" textLength="298.8398" x="113.9492" y="102.6436">Liqo credentials to be used for the peering</text><line style="stroke:#000000;stroke-width:1.0;" x1="108.9492" x2="108.9492" y1="87.6484" y2="107.9453"/><line style="stroke:#000000;stroke-width:1.0;" x1="10" x2="417.7891" y1="107.9453" y2="107.9453"/><text fill="#000000" font-family="sans-serif" font-size="14" font-weight="bold" lengthAdjust="spacing" textLength="82.2842" x="15" y="122.9404">properties</text><text fill="#000000" font-family="sans-serif" font-size="14" lengthAdjust="spacing" textLength="13.3506" x="113.9492" y="122.9404">&#160;&#160;&#160;</text><line style="stroke:#000000;stroke-width:1.0;" x1="108.9492" x2="108.9492" y1="107.9453" y2="128.2422"/><rect fill="none" height="101.4844" rx="5" ry="5" style="stroke:#000000;stroke-width:1.5;" width="407.7891" x="10" y="26.7578"/><rect fill="#F1F1F1" height="81.1875" rx="5" ry="5" style="stroke:#F1F1F1;stroke-width:1.5;" width="133.0869" x="455" y="77.9063"/><text fill="#000000" font-family="sans-serif" font-size="14" font-weight="bold" lengthAdjust="spacing" textLength="71.3193" x="460" y="92.9014">clusterID</text><text fill="#000000" font-family="sans-serif" font-size="14" lengthAdjust="spacing" textLength="13.3506" x="569.7363" y="92.9014">&#160;&#160;&#160;</text><line style="stroke:#000000;stroke-width:1.0;" x1="564.7363" x2="564.7363" y1="77.9063" y2="98.2031"/><line style="stroke:#000000;stroke-width:1.0;" x1="455" x2="588.0869" y1="98.2031" y2="98.2031"/><text fill="#000000" font-family="sans-serif" font-size="14" font-weight="bold" lengthAdjust="spacing" textLength="99.7363" x="460" y="113.1982">clusterName</text><text fill="#000000" font-family="sans-serif" font-size="14" lengthAdjust="spacing" textLength="13.3506" x="569.7363" y="113.1982">&#160;&#160;&#160;</text><line style="stroke:#000000;stroke-width:1.0;" x1="564.7363" x2="564.7363" y1="98.2031" y2="118.5"/><line style="stroke:#000000;stroke-width:1.0;" x1="455" x2="588.0869" y1="118.5" y2="118.5"/><text fill="#000000" font-family="sans-serif" font-size="14" font-weight="bold" lengthAdjust="spacing" textLength="70.5811" x="460" y="133.4951">endpoint</text><text fill="#000000" font-family="sans-serif" font-size="14" lengthAdjust="spacing" textLength="13.3506" x="569.7363" y="133.4951">&#160;&#160;&#160;</text><line style="stroke:#000000;stroke-width:1.0;" x1="564.7363" x2="564.7363" y1="118.5" y2="138.7969"/><line style="stroke:#000000;stroke-width:1.0;" x1="455" x2="588.0869" y1="138.7969" y2="138.7969"/><text fill="#000000" font-family="sans-serif" font-size="14" font-weight="bold" lengthAdjust="spacing" textLength="45.083" x="460" y="153.792">token</text><text fill="#000000" font-family="sans-serif" font-size="14" lengthAdjust="spacing" textLength="13.3506" x="569.7363" y="153.792">&#160;&#160;&#160;</text><line style="stroke:#000000;stroke-width:1.0;" x1="564.7363" x2="564.7363" y1="138.7969" y2="159.0938"/><rect fill="none" height="81.1875" rx="5" ry="5" style="stroke:#000000;stroke-width:1.5;" width="133.0869" x="455" y="77.9063"/><rect fill="#F1F1F1" height="40.5938" rx="5" ry="5" style="stroke:#F1F1F1;stroke-width:1.5;" width="352.1582" x="632.5" y="10"/><text fill="#000000" font-family="sans-serif" font-size="14" font-weight="bold" lengthAdjust="spacing" textLength="35.335" x="637.5" y="24.9951">type</text><text fill="#000000" font-family="sans-serif" font-size="14" lengthAdjust="spacing" textLength="40.1885" x="736.4492" y="24.9951">string</text><line style="stroke:#000000;stroke-width:1.0;" x1="731.4492" x2="731.4492" y1="10" y2="30.2969"/><line style="stroke:#000000;stroke-width:1.0;" x1="632.5" x2="984.6582" y1="30.2969" y2="30.2969"/><text fill="#000000" font-family="sans-serif" font-size="14" font-weight="bold" lengthAdjust="spacing" textLength="88.9492" x="637.5" y="45.292">description</text><text fill="#000000" font-family="sans-serif" font-size="14" lengthAdjust="spacing" textLength="243.209" x="736.4492" y="45.292">The unique identifier of the cluster</text><line style="stroke:#000000;stroke-width:1.0;" x1="731.4492" x2="731.4492" y1="30.2969" y2="50.5938"/><rect fill="none" height="40.5938" rx="5" ry="5" style="stroke:#000000;stroke-width:1.5;" width="352.1582" x="632.5" y="10"/><rect fill="#F1F1F1" height="40.5938" rx="5" ry="5" style="stroke:#F1F1F1;stroke-width:1.5;" width="276.5732" x="670" y="69"/><text fill="#000000" font-family="sans-serif" font-size="14" font-weight="bold" lengthAdjust="spacing" textLength="35.335" x="675" y="83.9951">type</text><text fill="#000000" font-family="sans-serif" font-size="14" lengthAdjust="spacing" textLength="40.1885" x="773.9492" y="83.9951">string</text><line style="stroke:#000000;stroke-width:1.0;" x1="768.9492" x2="768.9492" y1="69" y2="89.2969"/><line style="stroke:#000000;stroke-width:1.0;" x1="670" x2="946.5732" y1="89.2969" y2="89.2969"/><text fill="#000000" font-family="sans-serif" font-size="14" font-weight="bold" lengthAdjust="spacing" textLength="88.9492" x="675" y="104.292">description</text><text fill="#000000" font-family="sans-serif" font-size="14" lengthAdjust="spacing" textLength="167.624" x="773.9492" y="104.292">The name of the cluster</text><line style="stroke:#000000;stroke-width:1.0;" x1="768.9492" x2="768.9492" y1="89.2969" y2="109.5938"/><rect fill="none" height="40.5938" rx="5" ry="5" style="stroke:#000000;stroke-width:1.5;" width="276.5732" x="670" y="69"/><rect fill="#F1F1F1" height="40.5938" rx="5" ry="5" style="stroke:#F1F1F1;stroke-width:1.5;" width="298.9473" x="659" y="128"/><text fill="#000000" font-family="sans-serif" font-size="14" font-weight="bold" lengthAdjust="spacing" textLength="35.335" x="664" y="142.9951">type</text><text fill="#000000" font-family="sans-serif" font-size="14" lengthAdjust="spacing" textLength="40.1885" x="762.9492" y="142.9951">string</text><line style="stroke:#000000;stroke-width:1.0;" x1="757.9492" x2="757.9492" y1="128" y2="148.2969"/><line style="stroke:#000000;stroke-width:1.0;" x1="659" x2="957.9473" y1="148.2969" y2="148.2969"/><text fill="#000000" font-family="sans-serif" font-size="14" font-weight="bold" lengthAdjust="spacing" textLength="88.9492" x="664" y="163.292">description</text><text fill="#000000" font-family="sans-serif" font-size="14" lengthAdjust="spacing" textLength="189.998" x="762.9492" y="163.292">The endpoint of the cluster</text><line style="stroke:#000000;stroke-width:1.0;" x1="757.9492" x2="757.9492" y1="148.2969" y2="168.5938"/><rect fill="none" height="40.5938" rx="5" ry="5" style="stroke:#000000;stroke-width:1.5;" width="298.9473" x="659" y="128"/><rect fill="#F1F1F1" height="40.5938" rx="5" ry="5" style="stroke:#F1F1F1;stroke-width:1.5;" width="366.7529" x="625" y="187"/><text fill="#000000" font-family="sans-serif" font-size="14" font-weight="bold" lengthAdjust="spacing" textLength="35.335" x="630" y="201.9951">type</text><text fill="#000000" font-family="sans-serif" font-size="14" lengthAdjust="spacing" textLength="40.1885" x="728.9492" y="201.9951">string</text><line style="stroke:#000000;stroke-width:1.0;" x1="723.9492" x2="723.9492" y1="187" y2="207.2969"/><line style="stroke:#000000;stroke-width:1.0;" x1="625" x2="991.7529" y1="207.2969" y2="207.2969"/><text fill="#000000" font-family="sans-serif" font-size="14" font-weight="bold" lengthAdjust="spacing" textLength="88.9492" x="630" y="222.292">description</text><text fill="#000000" font-family="sans-serif" font-size="14" lengthAdjust="spacing" textLength="257.8037" x="728.9492" y="222.292">The token to be used for the peering</text><line style="stroke:#000000;stroke-width:1.0;" x1="723.9492" x2="723.9492" y1="207.2969" y2="227.5938"/><rect fill="none" height="40.5938" rx="5" ry="5" style="stroke:#000000;stroke-width:1.5;" width="366.7529" x="625" y="187"/><path d="M576,88.5 L589,88.5 C609.5456,88.5 606.2203,67.8334 625,59.5 C629.7411,57.3961 634.6111,55.4422 639.5748,53.6278 " fill="none" style="stroke:#000000;stroke-width:1.0;stroke-dasharray:3.0,3.0;"/><path d="M640.5987,56.5619 L641.7754,52.8598 L638.5508,50.6936 L646.9101,51.0679 L640.5987,56.5619 " fill="#000000" style="stroke:#000000;stroke-width:1.0;"/><ellipse cx="576" cy="88.5" fill="#000000" rx="3" ry="3" style="stroke:#000000;stroke-width:1.0;"/><path d="M576,108.5 L589,108.5 C612.8642,108.5 638.1366,107.3664 662.7055,105.6529 " fill="none" style="stroke:#000000;stroke-width:1.0;stroke-dasharray:3.0,3.0;"/><path d="M662.9254,108.6929 L664.9854,105.488 L662.4855,102.613 L670.3053,105.1032 L662.9254,108.6929 " fill="#000000" style="stroke:#000000;stroke-width:1.0;"/><ellipse cx="576" cy="108.5" fill="#000000" rx="3" ry="3" style="stroke:#000000;stroke-width:1.0;"/><path d="M576,128.5 L589,128.5 C609.3169,128.5 630.6503,129.3642 651.6996,130.7333 " fill="none" style="stroke:#000000;stroke-width:1.0;stroke-dasharray:3.0,3.0;"/><path d="M651.489,133.8292 L654.0216,130.8913 L651.9103,127.6374 L659.4394,131.2599 L651.489,133.8292 " fill="#000000" style="stroke:#000000;stroke-width:1.0;"/><ellipse cx="576" cy="128.5" fill="#000000" rx="3" ry="3" style="stroke:#000000;stroke-width:1.0;"/><path d="M576,148.5 L589,148.5 C609.8273,148.5 606.0337,169.8944 625,178.5 C629.6251,180.5985 634.3758,182.5485 639.219,184.3603 " fill="none" style="stroke:#000000;stroke-width:1.0;stroke-dasharray:3.0,3.0;"/><path d="M638.1963,187.2236 L641.3665,185.1274 L640.2417,181.497 L646.3772,186.9171 L638.1963,187.2236 " fill="#000000" style="stroke:#000000;stroke-width:1.0;"/><ellipse cx="576" cy="148.5" fill="#000000" rx="3" ry="3" style="stroke:#000000;stroke-width:1.0;"/><path d="M406,118.5 L419,118.5 C428.292,118.5 438.0602,118.5 447.719,118.5 " fill="none" style="stroke:#000000;stroke-width:1.0;stroke-dasharray:3.0,3.0;"/><path d="M447.719,121.5846 L450.0324,118.5 L447.719,115.4154 L455.4304,118.5 L447.719,121.5846 " fill="#000000" style="stroke:#000000;stroke-width:1.0;"/><ellipse cx="406" cy="118.5" fill="#000000" rx="3" ry="3" style="stroke:#000000;stroke-width:1.0;"/><!--SRC=[hP9FJm8n4CNl_HIJrGCcB0jA4FTa13NYeaRGUzcTXUBIhksKX1Y-kzrT0VyaXWCzzF1cvlVUfBqqn3NDZPBiWu4xth69PxZWNWZUZ2WFWw2e-fNQK7eQ99gdv3VFWqexykhL9AroBCRKP8unRLL1MIb7ubr1JsE2aWJFpAOXGHDhaPDGSjiMxzg054mGhC44KgM1PWWveXPokY7aMkMeIQ1nW6gDKeypQmZrNV-7_2EheM-WRVLNfB6pj5AyMmHHnae5Qb1fcUNBnDiIrlK_2Hxu0W-GGJhCNhOearm9IGVmtA3syYNrXl80fYNdluVVkRFgNhDBbxJyn-mfuv9UXX4iKHj7XLRZj7dQRdHg8qumi1aqEz2y25ljyAmBB-CU5EKJLhjzYi0egsE4H1HX9xP8TS86VCdXsRgNNs08ZpdAGVz-8y2rN0gjvCBz33Pu7UuQEct_IX2CKBiay3faVKovpSXDn2fnUuJE_SRlieZBgULJnqR9UifnzShLHfy0]--></g></svg>