<?xml version="1.0" encoding="us-ascii" standalone="no"?><svg xmlns="http://www.w3.org/2000/svg" xmlns:xlink="http://www.w3.org/1999/xlink" contentStyleType="text/css" height="736px" preserveAspectRatio="none" style="width:2384px;height:736px;background:#FFFFFF;" version="1.1" viewBox="0 0 2384 736" width="2384px" zoomAndPan="magnify"><defs/><g><rect fill="#F1F1F1" height="101.4844" rx="5" ry="5" style="stroke:#F1F1F1;stroke-width:1.5;" width="416" x="10" y="291.7578"/><text fill="#000000" font-family="sans-serif" font-size="14" font-weight="bold" lengthAdjust="spacing" textLength="72" x="15" y="306.7529">$schema</text><text fill="#000000" font-family="sans-serif" font-size="14" lengthAdjust="spacing" textLength="304" x="117" y="306.7529">http://json-schema.org/draft-07/schema#</text><line style="stroke:#000000;stroke-width:1.0;" x1="112" x2="112" y1="291.7578" y2="312.0547"/><line style="stroke:#000000;stroke-width:1.0;" x1="10" x2="426" y1="312.0547" y2="312.0547"/><text fill="#000000" font-family="sans-serif" font-size="14" font-weight="bold" lengthAdjust="spacing" textLength="36" x="15" y="327.0498">type</text><text fill="#000000" font-family="sans-serif" font-size="14" lengthAdjust="spacing" textLength="47" x="117" y="327.0498">object</text><line style="stroke:#000000;stroke-width:1.0;" x1="112" x2="112" y1="312.0547" y2="332.3516"/><line style="stroke:#000000;stroke-width:1.0;" x1="10" x2="426" y1="332.3516" y2="332.3516"/><text fill="#000000" font-family="sans-serif" font-size="14" font-weight="bold" lengthAdjust="spacing" textLength="35" x="15" y="347.3467">title</text><text fill="#000000" font-family="sans-serif" font-size="14" lengthAdjust="spacing" textLength="52" x="117" y="347.3467">K8Slice</text><line style="stroke:#000000;stroke-width:1.0;" x1="112" x2="112" y1="332.3516" y2="352.6484"/><line style="stroke:#000000;stroke-width:1.0;" x1="10" x2="426" y1="352.6484" y2="352.6484"/><text fill="#000000" font-family="sans-serif" font-size="14" font-weight="bold" lengthAdjust="spacing" textLength="92" x="15" y="367.6436">description</text><text fill="#000000" font-family="sans-serif" font-size="14" lengthAdjust="spacing" textLength="171" x="117" y="367.6436">Kubernetes Flavor Type</text><line style="stroke:#000000;stroke-width:1.0;" x1="112" x2="112" y1="352.6484" y2="372.9453"/><line style="stroke:#000000;stroke-width:1.0;" x1="10" x2="426" y1="372.9453" y2="372.9453"/><text fill="#000000" font-family="sans-serif" font-size="14" font-weight="bold" lengthAdjust="spacing" textLength="84" x="15" y="387.9404">properties</text><text fill="#000000" font-family="sans-serif" font-size="14" lengthAdjust="spacing" textLength="12" x="117" y="387.9404">&#160;&#160;&#160;</text><line style="stroke:#000000;stroke-width:1.0;" x1="112" x2="112" y1="372.9453" y2="393.2422"/><rect fill="none" height="101.4844" rx="5" ry="5" style="stroke:#000000;stroke-width:1.5;" width="416" x="10" y="291.7578"/><rect fill="#F1F1F1" height="40.5938" rx="5" ry="5" style="stroke:#F1F1F1;stroke-width:1.5;" width="157" x="463" y="363"/><text fill="#000000" font-family="sans-serif" font-size="14" font-weight="bold" lengthAdjust="spacing" textLength="125" x="468" y="377.9951">Characteristics</text><text fill="#000000" font-family="sans-serif" font-size="14" lengthAdjust="spacing" textLength="12" x="603" y="377.9951">&#160;&#160;&#160;</text><line style="stroke:#000000;stroke-width:1.0;" x1="598" x2="598" y1="363" y2="383.2969"/><line style="stroke:#000000;stroke-width:1.0;" x1="463" x2="620" y1="383.2969" y2="383.2969"/><text fill="#000000" font-family="sans-serif" font-size="14" font-weight="bold" lengthAdjust="spacing" textLength="48" x="468" y="398.292">Policy</text><text fill="#000000" font-family="sans-serif" font-size="14" lengthAdjust="spacing" textLength="12" x="603" y="398.292">&#160;&#160;&#160;</text><line style="stroke:#000000;stroke-width:1.0;" x1="598" x2="598" y1="383.2969" y2="403.5938"/><rect fill="none" height="40.5938" rx="5" ry="5" style="stroke:#000000;stroke-width:1.5;" width="157" x="463" y="363"/><rect fill="#F1F1F1" height="60.8906" rx="5" ry="5" style="stroke:#F1F1F1;stroke-width:1.5;" width="238" x="657" y="294"/><text fill="#000000" font-family="sans-serif" font-size="14" font-weight="bold" lengthAdjust="spacing" textLength="36" x="662" y="308.9951">type</text><text fill="#000000" font-family="sans-serif" font-size="14" lengthAdjust="spacing" textLength="47" x="839" y="308.9951">object</text><line style="stroke:#000000;stroke-width:1.0;" x1="834" x2="834" y1="294" y2="314.2969"/><line style="stroke:#000000;stroke-width:1.0;" x1="657" x2="895" y1="314.2969" y2="314.2969"/><text fill="#000000" font-family="sans-serif" font-size="14" font-weight="bold" lengthAdjust="spacing" textLength="84" x="662" y="329.292">properties</text><text fill="#000000" font-family="sans-serif" font-size="14" lengthAdjust="spacing" textLength="12" x="839" y="329.292">&#160;&#160;&#160;</text><line style="stroke:#000000;stroke-width:1.0;" x1="834" x2="834" y1="314.2969" y2="334.5938"/><line style="stroke:#000000;stroke-width:1.0;" x1="657" x2="895" y1="334.5938" y2="334.5938"/><text fill="#000000" font-family="sans-serif" font-size="14" font-weight="bold" lengthAdjust="spacing" textLength="167" x="662" y="349.5889">additionalProperties</text><text fill="#000000" font-family="sans-serif" font-size="14" lengthAdjust="spacing" textLength="51" x="839" y="349.5889">&#9744; false</text><line style="stroke:#000000;stroke-width:1.0;" x1="834" x2="834" y1="334.5938" y2="354.8906"/><rect fill="none" height="60.8906" rx="5" ry="5" style="stroke:#000000;stroke-width:1.5;" width="238" x="657" y="294"/><rect fill="#F1F1F1" height="142.0781" rx="5" ry="5" style="stroke:#F1F1F1;stroke-width:1.5;" width="183" x="932" y="155.4609"/><text fill="#000000" font-family="sans-serif" font-size="14" font-weight="bold" lengthAdjust="spacing" textLength="31" x="937" y="170.4561">CPU</text><text fill="#000000" font-family="sans-serif" font-size="14" lengthAdjust="spacing" textLength="12" x="1098" y="170.4561">&#160;&#160;&#160;</text><line style="stroke:#000000;stroke-width:1.0;" x1="1093" x2="1093" y1="155.4609" y2="175.7578"/><line style="stroke:#000000;stroke-width:1.0;" x1="932" x2="1115" y1="175.7578" y2="175.7578"/><text fill="#000000" font-family="sans-serif" font-size="14" font-weight="bold" lengthAdjust="spacing" textLength="39" x="937" y="190.7529">Pods</text><text fill="#000000" font-family="sans-serif" font-size="14" lengthAdjust="spacing" textLength="12" x="1098" y="190.7529">&#160;&#160;&#160;</text><line style="stroke:#000000;stroke-width:1.0;" x1="1093" x2="1093" y1="175.7578" y2="196.0547"/><line style="stroke:#000000;stroke-width:1.0;" x1="932" x2="1115" y1="196.0547" y2="196.0547"/><text fill="#000000" font-family="sans-serif" font-size="14" font-weight="bold" lengthAdjust="spacing" textLength="64" x="937" y="211.0498">Memory</text><text fill="#000000" font-family="sans-serif" font-size="14" lengthAdjust="spacing" textLength="12" x="1098" y="211.0498">&#160;&#160;&#160;</text><line style="stroke:#000000;stroke-width:1.0;" x1="1093" x2="1093" y1="196.0547" y2="216.3516"/><line style="stroke:#000000;stroke-width:1.0;" x1="932" x2="1115" y1="216.3516" y2="216.3516"/><text fill="#000000" font-family="sans-serif" font-size="14" font-weight="bold" lengthAdjust="spacing" textLength="33" x="937" y="231.3467">GPU</text><text fill="#000000" font-family="sans-serif" font-size="14" lengthAdjust="spacing" textLength="12" x="1098" y="231.3467">&#160;&#160;&#160;</text><line style="stroke:#000000;stroke-width:1.0;" x1="1093" x2="1093" y1="216.3516" y2="236.6484"/><line style="stroke:#000000;stroke-width:1.0;" x1="932" x2="1115" y1="236.6484" y2="236.6484"/><text fill="#000000" font-family="sans-serif" font-size="14" font-weight="bold" lengthAdjust="spacing" textLength="64" x="937" y="251.6436">Storage</text><text fill="#000000" font-family="sans-serif" font-size="14" lengthAdjust="spacing" textLength="12" x="1098" y="251.6436">&#160;&#160;&#160;</text><line style="stroke:#000000;stroke-width:1.0;" x1="1093" x2="1093" y1="236.6484" y2="256.9453"/><line style="stroke:#000000;stroke-width:1.0;" x1="932" x2="1115" y1="256.9453" y2="256.9453"/><text fill="#000000" font-family="sans-serif" font-size="14" font-weight="bold" lengthAdjust="spacing" textLength="151" x="937" y="271.9404">SecurityStandards</text><text fill="#000000" font-family="sans-serif" font-size="14" lengthAdjust="spacing" textLength="12" x="1098" y="271.9404">&#160;&#160;&#160;</text><line style="stroke:#000000;stroke-width:1.0;" x1="1093" x2="1093" y1="256.9453" y2="277.2422"/><line style="stroke:#000000;stroke-width:1.0;" x1="932" x2="1115" y1="277.2422" y2="277.2422"/><text fill="#000000" font-family="sans-serif" font-size="14" font-weight="bold" lengthAdjust="spacing" textLength="64" x="937" y="292.2373">Latency</text><text fill="#000000" font-family="sans-serif" font-size="14" lengthAdjust="spacing" textLength="12" x="1098" y="292.2373">&#160;&#160;&#160;</text><line style="stroke:#000000;stroke-width:1.0;" x1="1093" x2="1093" y1="277.2422" y2="297.5391"/><rect fill="none" height="142.0781" rx="5" ry="5" style="stroke:#000000;stroke-width:1.5;" width="183" x="932" y="155.4609"/><rect fill="#F1F1F1" height="40.5938" rx="5" ry="5" style="stroke:#F1F1F1;stroke-width:1.5;" width="293" x="1264.5" y="10"/><text fill="#000000" font-family="sans-serif" font-size="14" font-weight="bold" lengthAdjust="spacing" textLength="36" x="1269.5" y="24.9951">type</text><text fill="#000000" font-family="sans-serif" font-size="14" lengthAdjust="spacing" textLength="53" x="1371.5" y="24.9951">integer</text><line style="stroke:#000000;stroke-width:1.0;" x1="1366.5" x2="1366.5" y1="10" y2="30.2969"/><line style="stroke:#000000;stroke-width:1.0;" x1="1264.5" x2="1557.5" y1="30.2969" y2="30.2969"/><text fill="#000000" font-family="sans-serif" font-size="14" font-weight="bold" lengthAdjust="spacing" textLength="92" x="1269.5" y="45.292">description</text><text fill="#000000" font-family="sans-serif" font-size="14" lengthAdjust="spacing" textLength="181" x="1371.5" y="45.292">The number of CPU cores</text><line style="stroke:#000000;stroke-width:1.0;" x1="1366.5" x2="1366.5" y1="30.2969" y2="50.5938"/><rect fill="none" height="40.5938" rx="5" ry="5" style="stroke:#000000;stroke-width:1.5;" width="293" x="1264.5" y="10"/><rect fill="#F1F1F1" height="40.5938" rx="5" ry="5" style="stroke:#F1F1F1;stroke-width:1.5;" width="257" x="1282.5" y="69"/><text fill="#000000" font-family="sans-serif" font-size="14" font-weight="bold" lengthAdjust="spacing" textLength="36" x="1287.5" y="83.9951">type</text><text fill="#000000" font-family="sans-serif" font-size="14" lengthAdjust="spacing" textLength="53" x="1389.5" y="83.9951">integer</text><line style="stroke:#000000;stroke-width:1.0;" x1="1384.5" x2="1384.5" y1="69" y2="89.2969"/><line style="stroke:#000000;stroke-width:1.0;" x1="1282.5" x2="1539.5" y1="89.2969" y2="89.2969"/><text fill="#000000" font-family="sans-serif" font-size="14" font-weight="bold" lengthAdjust="spacing" textLength="92" x="1287.5" y="104.292">description</text><text fill="#000000" font-family="sans-serif" font-size="14" lengthAdjust="spacing" textLength="145" x="1389.5" y="104.292">The number of pods</text><line style="stroke:#000000;stroke-width:1.0;" x1="1384.5" x2="1384.5" y1="89.2969" y2="109.5938"/><rect fill="none" height="40.5938" rx="5" ry="5" style="stroke:#000000;stroke-width:1.5;" width="257" x="1282.5" y="69"/><rect fill="#F1F1F1" height="40.5938" rx="5" ry="5" style="stroke:#F1F1F1;stroke-width:1.5;" width="281" x="1270.5" y="128"/><text fill="#000000" font-family="sans-serif" font-size="14" font-weight="bold" lengthAdjust="spacing" textLength="36" x="1275.5" y="142.9951">type</text><text fill="#000000" font-family="sans-serif" font-size="14" lengthAdjust="spacing" textLength="53" x="1377.5" y="142.9951">integer</text><line style="stroke:#000000;stroke-width:1.0;" x1="1372.5" x2="1372.5" y1="128" y2="148.2969"/><line style="stroke:#000000;stroke-width:1.0;" x1="1270.5" x2="1551.5" y1="148.2969" y2="148.2969"/><text fill="#000000" font-family="sans-serif" font-size="14" font-weight="bold" lengthAdjust="spacing" textLength="92" x="1275.5" y="163.292">description</text><text fill="#000000" font-family="sans-serif" font-size="14" lengthAdjust="spacing" textLength="169" x="1377.5" y="163.292">The amount of memory</text><line style="stroke:#000000;stroke-width:1.0;" x1="1372.5" x2="1372.5" y1="148.2969" y2="168.5938"/><rect fill="none" height="40.5938" rx="5" ry="5" style="stroke:#000000;stroke-width:1.5;" width="281" x="1270.5" y="128"/><rect fill="#F1F1F1" height="40.5938" rx="5" ry="5" style="stroke:#F1F1F1;stroke-width:1.5;" width="250" x="1286" y="187"/><text fill="#000000" font-family="sans-serif" font-size="14" font-weight="bold" lengthAdjust="spacing" textLength="36" x="1291" y="201.9951">type</text><text fill="#000000" font-family="sans-serif" font-size="14" lengthAdjust="spacing" textLength="53" x="1393" y="201.9951">integer</text><line style="stroke:#000000;stroke-width:1.0;" x1="1388" x2="1388" y1="187" y2="207.2969"/><line style="stroke:#000000;stroke-width:1.0;" x1="1286" x2="1536" y1="207.2969" y2="207.2969"/><text fill="#000000" font-family="sans-serif" font-size="14" font-weight="bold" lengthAdjust="spacing" textLength="92" x="1291" y="222.292">description</text><text fill="#000000" font-family="sans-serif" font-size="14" lengthAdjust="spacing" textLength="138" x="1393" y="222.292">The amount of GPU</text><line style="stroke:#000000;stroke-width:1.0;" x1="1388" x2="1388" y1="207.2969" y2="227.5938"/><rect fill="none" height="40.5938" rx="5" ry="5" style="stroke:#000000;stroke-width:1.5;" width="250" x="1286" y="187"/><rect fill="#F1F1F1" height="40.5938" rx="5" ry="5" style="stroke:#F1F1F1;stroke-width:1.5;" width="276" x="1273" y="246"/><text fill="#000000" font-family="sans-serif" font-size="14" font-weight="bold" lengthAdjust="spacing" textLength="36" x="1278" y="260.9951">type</text><text fill="#000000" font-family="sans-serif" font-size="14" lengthAdjust="spacing" textLength="53" x="1380" y="260.9951">integer</text><line style="stroke:#000000;stroke-width:1.0;" x1="1375" x2="1375" y1="246" y2="266.2969"/><line style="stroke:#000000;stroke-width:1.0;" x1="1273" x2="1549" y1="266.2969" y2="266.2969"/><text fill="#000000" font-family="sans-serif" font-size="14" font-weight="bold" lengthAdjust="spacing" textLength="92" x="1278" y="281.292">description</text><text fill="#000000" font-family="sans-serif" font-size="14" lengthAdjust="spacing" textLength="164" x="1380" y="281.292">The amount of storage</text><line style="stroke:#000000;stroke-width:1.0;" x1="1375" x2="1375" y1="266.2969" y2="286.5938"/><rect fill="none" height="40.5938" rx="5" ry="5" style="stroke:#000000;stroke-width:1.5;" width="276" x="1273" y="246"/><rect fill="#F1F1F1" height="60.8906" rx="5" ry="5" style="stroke:#F1F1F1;stroke-width:1.5;" width="518" x="1152" y="305"/><text fill="#000000" font-family="sans-serif" font-size="14" font-weight="bold" lengthAdjust="spacing" textLength="36" x="1157" y="319.9951">type</text><text fill="#000000" font-family="sans-serif" font-size="14" lengthAdjust="spacing" textLength="36" x="1259" y="319.9951">array</text><line style="stroke:#000000;stroke-width:1.0;" x1="1254" x2="1254" y1="305" y2="325.2969"/><line style="stroke:#000000;stroke-width:1.0;" x1="1152" x2="1670" y1="325.2969" y2="325.2969"/><text fill="#000000" font-family="sans-serif" font-size="14" font-weight="bold" lengthAdjust="spacing" textLength="92" x="1157" y="340.292">description</text><text fill="#000000" font-family="sans-serif" font-size="14" lengthAdjust="spacing" textLength="406" x="1259" y="340.292">Security standards supported by the Flavor (e.g., GDPR).</text><line style="stroke:#000000;stroke-width:1.0;" x1="1254" x2="1254" y1="325.2969" y2="345.5938"/><line style="stroke:#000000;stroke-width:1.0;" x1="1152" x2="1670" y1="345.5938" y2="345.5938"/><text fill="#000000" font-family="sans-serif" font-size="14" font-weight="bold" lengthAdjust="spacing" textLength="46" x="1157" y="360.5889">items</text><text fill="#000000" font-family="sans-serif" font-size="14" lengthAdjust="spacing" textLength="12" x="1259" y="360.5889">&#160;&#160;&#160;</text><line style="stroke:#000000;stroke-width:1.0;" x1="1254" x2="1254" y1="345.5938" y2="365.8906"/><rect fill="none" height="60.8906" rx="5" ry="5" style="stroke:#000000;stroke-width:1.5;" width="518" x="1152" y="305"/><rect fill="#F1F1F1" height="20.2969" rx="5" ry="5" style="stroke:#F1F1F1;stroke-width:1.5;" width="98" x="1724.5" y="345.3516"/><text fill="#000000" font-family="sans-serif" font-size="14" font-weight="bold" lengthAdjust="spacing" textLength="36" x="1729.5" y="360.3467">type</text><text fill="#000000" font-family="sans-serif" font-size="14" lengthAdjust="spacing" textLength="42" x="1775.5" y="360.3467">string</text><line style="stroke:#000000;stroke-width:1.0;" x1="1770.5" x2="1770.5" y1="345.3516" y2="365.6484"/><rect fill="none" height="20.2969" rx="5" ry="5" style="stroke:#000000;stroke-width:1.5;" width="98" x="1724.5" y="345.3516"/><rect fill="#F1F1F1" height="40.5938" rx="5" ry="5" style="stroke:#F1F1F1;stroke-width:1.5;" width="296" x="1263" y="384"/><text fill="#000000" font-family="sans-serif" font-size="14" font-weight="bold" lengthAdjust="spacing" textLength="36" x="1268" y="398.9951">type</text><text fill="#000000" font-family="sans-serif" font-size="14" lengthAdjust="spacing" textLength="53" x="1370" y="398.9951">integer</text><line style="stroke:#000000;stroke-width:1.0;" x1="1365" x2="1365" y1="384" y2="404.2969"/><line style="stroke:#000000;stroke-width:1.0;" x1="1263" x2="1559" y1="404.2969" y2="404.2969"/><text fill="#000000" font-family="sans-serif" font-size="14" font-weight="bold" lengthAdjust="spacing" textLength="92" x="1268" y="419.292">description</text><text fill="#000000" font-family="sans-serif" font-size="14" lengthAdjust="spacing" textLength="184" x="1370" y="419.292">The latency of the Flavor.</text><line style="stroke:#000000;stroke-width:1.0;" x1="1365" x2="1365" y1="404.2969" y2="424.5938"/><rect fill="none" height="40.5938" rx="5" ry="5" style="stroke:#000000;stroke-width:1.5;" width="296" x="1263" y="384"/><rect fill="#F1F1F1" height="40.5938" rx="5" ry="5" style="stroke:#F1F1F1;stroke-width:1.5;" width="151" x="700.5" y="422"/><text fill="#000000" font-family="sans-serif" font-size="14" font-weight="bold" lengthAdjust="spacing" textLength="36" x="705.5" y="436.9951">type</text><text fill="#000000" font-family="sans-serif" font-size="14" lengthAdjust="spacing" textLength="47" x="799.5" y="436.9951">object</text><line style="stroke:#000000;stroke-width:1.0;" x1="794.5" x2="794.5" y1="422" y2="442.2969"/><line style="stroke:#000000;stroke-width:1.0;" x1="700.5" x2="851.5" y1="442.2969" y2="442.2969"/><text fill="#000000" font-family="sans-serif" font-size="14" font-weight="bold" lengthAdjust="spacing" textLength="84" x="705.5" y="457.292">properties</text><text fill="#000000" font-family="sans-serif" font-size="14" lengthAdjust="spacing" textLength="12" x="799.5" y="457.292">&#160;&#160;&#160;</text><line style="stroke:#000000;stroke-width:1.0;" x1="794.5" x2="794.5" y1="442.2969" y2="462.5938"/><rect fill="none" height="40.5938" rx="5" ry="5" style="stroke:#000000;stroke-width:1.5;" width="151" x="700.5" y="422"/><rect fill="#F1F1F1" height="40.5938" rx="5" ry="5" style="stroke:#F1F1F1;stroke-width:1.5;" width="141" x="953" y="463"/><text fill="#000000" font-family="sans-serif" font-size="14" font-weight="bold" lengthAdjust="spacing" textLength="109" x="958" y="477.9951">Aggregatable</text><text fill="#000000" font-family="sans-serif" font-size="14" lengthAdjust="spacing" textLength="12" x="1077" y="477.9951">&#160;&#160;&#160;</text><line style="stroke:#000000;stroke-width:1.0;" x1="1072" x2="1072" y1="463" y2="483.2969"/><line style="stroke:#000000;stroke-width:1.0;" x1="953" x2="1094" y1="483.2969" y2="483.2969"/><text fill="#000000" font-family="sans-serif" font-size="14" font-weight="bold" lengthAdjust="spacing" textLength="107" x="958" y="498.292">Partitionable</text><text fill="#000000" font-family="sans-serif" font-size="14" lengthAdjust="spacing" textLength="12" x="1077" y="498.292">&#160;&#160;&#160;</text><line style="stroke:#000000;stroke-width:1.0;" x1="1072" x2="1072" y1="483.2969" y2="503.5938"/><rect fill="none" height="40.5938" rx="5" ry="5" style="stroke:#000000;stroke-width:1.5;" width="141" x="953" y="463"/><rect fill="#F1F1F1" height="60.8906" rx="5" ry="5" style="stroke:#F1F1F1;stroke-width:1.5;" width="238" x="1292" y="443"/><text fill="#000000" font-family="sans-serif" font-size="14" font-weight="bold" lengthAdjust="spacing" textLength="36" x="1297" y="457.9951">type</text><text fill="#000000" font-family="sans-serif" font-size="14" lengthAdjust="spacing" textLength="47" x="1474" y="457.9951">object</text><line style="stroke:#000000;stroke-width:1.0;" x1="1469" x2="1469" y1="443" y2="463.2969"/><line style="stroke:#000000;stroke-width:1.0;" x1="1292" x2="1530" y1="463.2969" y2="463.2969"/><text fill="#000000" font-family="sans-serif" font-size="14" font-weight="bold" lengthAdjust="spacing" textLength="84" x="1297" y="478.292">properties</text><text fill="#000000" font-family="sans-serif" font-size="14" lengthAdjust="spacing" textLength="12" x="1474" y="478.292">&#160;&#160;&#160;</text><line style="stroke:#000000;stroke-width:1.0;" x1="1469" x2="1469" y1="463.2969" y2="483.5938"/><line style="stroke:#000000;stroke-width:1.0;" x1="1292" x2="1530" y1="483.5938" y2="483.5938"/><text fill="#000000" font-family="sans-serif" font-size="14" font-weight="bold" lengthAdjust="spacing" textLength="167" x="1297" y="498.5889">additionalProperties</text><text fill="#000000" font-family="sans-serif" font-size="14" lengthAdjust="spacing" textLength="51" x="1474" y="498.5889">&#9744; false</text><line style="stroke:#000000;stroke-width:1.0;" x1="1469" x2="1469" y1="483.5938" y2="503.8906"/><rect fill="none" height="60.8906" rx="5" ry="5" style="stroke:#000000;stroke-width:1.5;" width="238" x="1292" y="443"/><rect fill="#F1F1F1" height="40.5938" rx="5" ry="5" style="stroke:#F1F1F1;stroke-width:1.5;" width="113" x="1717" y="438"/><text fill="#000000" font-family="sans-serif" font-size="14" font-weight="bold" lengthAdjust="spacing" textLength="77" x="1722" y="452.9951">MinCount</text><text fill="#000000" font-family="sans-serif" font-size="14" lengthAdjust="spacing" textLength="12" x="1813" y="452.9951">&#160;&#160;&#160;</text><line style="stroke:#000000;stroke-width:1.0;" x1="1808" x2="1808" y1="438" y2="458.2969"/><line style="stroke:#000000;stroke-width:1.0;" x1="1717" x2="1830" y1="458.2969" y2="458.2969"/><text fill="#000000" font-family="sans-serif" font-size="14" font-weight="bold" lengthAdjust="spacing" textLength="81" x="1722" y="473.292">MaxCount</text><text fill="#000000" font-family="sans-serif" font-size="14" lengthAdjust="spacing" textLength="12" x="1813" y="473.292">&#160;&#160;&#160;</text><line style="stroke:#000000;stroke-width:1.0;" x1="1808" x2="1808" y1="458.2969" y2="478.5938"/><rect fill="none" height="40.5938" rx="5" ry="5" style="stroke:#000000;stroke-width:1.5;" width="113" x="1717" y="438"/><rect fill="#F1F1F1" height="40.5938" rx="5" ry="5" style="stroke:#F1F1F1;stroke-width:1.5;" width="492" x="1878.5" y="389"/><text fill="#000000" font-family="sans-serif" font-size="14" font-weight="bold" lengthAdjust="spacing" textLength="36" x="1883.5" y="403.9951">type</text><text fill="#000000" font-family="sans-serif" font-size="14" lengthAdjust="spacing" textLength="53" x="1985.5" y="403.9951">integer</text><line style="stroke:#000000;stroke-width:1.0;" x1="1980.5" x2="1980.5" y1="389" y2="409.2969"/><line style="stroke:#000000;stroke-width:1.0;" x1="1878.5" x2="2370.5" y1="409.2969" y2="409.2969"/><text fill="#000000" font-family="sans-serif" font-size="14" font-weight="bold" lengthAdjust="spacing" textLength="92" x="1883.5" y="424.292">description</text><text fill="#000000" font-family="sans-serif" font-size="14" lengthAdjust="spacing" textLength="380" x="1985.5" y="424.292">Minimum required number of instances of the Flavor.</text><line style="stroke:#000000;stroke-width:1.0;" x1="1980.5" x2="1980.5" y1="409.2969" y2="429.5938"/><rect fill="none" height="40.5938" rx="5" ry="5" style="stroke:#000000;stroke-width:1.5;" width="492" x="1878.5" y="389"/><rect fill="#F1F1F1" height="40.5938" rx="5" ry="5" style="stroke:#F1F1F1;stroke-width:1.5;" width="495" x="1877" y="448"/><text fill="#000000" font-family="sans-serif" font-size="14" font-weight="bold" lengthAdjust="spacing" textLength="36" x="1882" y="462.9951">type</text><text fill="#000000" font-family="sans-serif" font-size="14" lengthAdjust="spacing" textLength="53" x="1984" y="462.9951">integer</text><line style="stroke:#000000;stroke-width:1.0;" x1="1979" x2="1979" y1="448" y2="468.2969"/><line style="stroke:#000000;stroke-width:1.0;" x1="1877" x2="2372" y1="468.2969" y2="468.2969"/><text fill="#000000" font-family="sans-serif" font-size="14" font-weight="bold" lengthAdjust="spacing" textLength="92" x="1882" y="483.292">description</text><text fill="#000000" font-family="sans-serif" font-size="14" lengthAdjust="spacing" textLength="383" x="1984" y="483.292">Maximum required number of instances of the Flavor.</text><line style="stroke:#000000;stroke-width:1.0;" x1="1979" x2="1979" y1="468.2969" y2="488.5938"/><rect fill="none" height="40.5938" rx="5" ry="5" style="stroke:#000000;stroke-width:1.5;" width="495" x="1877" y="448"/><rect fill="#F1F1F1" height="60.8906" rx="5" ry="5" style="stroke:#F1F1F1;stroke-width:1.5;" width="238" x="1292" y="551"/><text fill="#000000" font-family="sans-serif" font-size="14" font-weight="bold" lengthAdjust="spacing" textLength="36" x="1297" y="565.9951">type</text><text fill="#000000" font-family="sans-serif" font-size="14" lengthAdjust="spacing" textLength="47" x="1474" y="565.9951">object</text><line style="stroke:#000000;stroke-width:1.0;" x1="1469" x2="1469" y1="551" y2="571.2969"/><line style="stroke:#000000;stroke-width:1.0;" x1="1292" x2="1530" y1="571.2969" y2="571.2969"/><text fill="#000000" font-family="sans-serif" font-size="14" font-weight="bold" lengthAdjust="spacing" textLength="84" x="1297" y="586.292">properties</text><text fill="#000000" font-family="sans-serif" font-size="14" lengthAdjust="spacing" textLength="12" x="1474" y="586.292">&#160;&#160;&#160;</text><line style="stroke:#000000;stroke-width:1.0;" x1="1469" x2="1469" y1="571.2969" y2="591.5938"/><line style="stroke:#000000;stroke-width:1.0;" x1="1292" x2="1530" y1="591.5938" y2="591.5938"/><text fill="#000000" font-family="sans-serif" font-size="14" font-weight="bold" lengthAdjust="spacing" textLength="167" x="1297" y="606.5889">additionalProperties</text><text fill="#000000" font-family="sans-serif" font-size="14" lengthAdjust="spacing" textLength="51" x="1474" y="606.5889">&#9744; false</text><line style="stroke:#000000;stroke-width:1.0;" x1="1469" x2="1469" y1="591.5938" y2="611.8906"/><rect fill="none" height="60.8906" rx="5" ry="5" style="stroke:#000000;stroke-width:1.5;" width="238" x="1292" y="551"/><rect fill="#F1F1F1" height="81.1875" rx="5" ry="5" style="stroke:#F1F1F1;stroke-width:1.5;" width="133" x="1707" y="555.9063"/><text fill="#000000" font-family="sans-serif" font-size="14" font-weight="bold" lengthAdjust="spacing" textLength="59" x="1712" y="570.9014">CpuMin</text><text fill="#000000" font-family="sans-serif" font-size="14" lengthAdjust="spacing" textLength="12" x="1823" y="570.9014">&#160;&#160;&#160;</text><line style="stroke:#000000;stroke-width:1.0;" x1="1818" x2="1818" y1="555.9063" y2="576.2031"/><line style="stroke:#000000;stroke-width:1.0;" x1="1707" x2="1840" y1="576.2031" y2="576.2031"/><text fill="#000000" font-family="sans-serif" font-size="14" font-weight="bold" lengthAdjust="spacing" textLength="93" x="1712" y="591.1982">MemoryMin</text><text fill="#000000" font-family="sans-serif" font-size="14" lengthAdjust="spacing" textLength="12" x="1823" y="591.1982">&#160;&#160;&#160;</text><line style="stroke:#000000;stroke-width:1.0;" x1="1818" x2="1818" y1="576.2031" y2="596.5"/><line style="stroke:#000000;stroke-width:1.0;" x1="1707" x2="1840" y1="596.5" y2="596.5"/><text fill="#000000" font-family="sans-serif" font-size="14" font-weight="bold" lengthAdjust="spacing" textLength="67" x="1712" y="611.4951">CpuStep</text><text fill="#000000" font-family="sans-serif" font-size="14" lengthAdjust="spacing" textLength="12" x="1823" y="611.4951">&#160;&#160;&#160;</text><line style="stroke:#000000;stroke-width:1.0;" x1="1818" x2="1818" y1="596.5" y2="616.7969"/><line style="stroke:#000000;stroke-width:1.0;" x1="1707" x2="1840" y1="616.7969" y2="616.7969"/><text fill="#000000" font-family="sans-serif" font-size="14" font-weight="bold" lengthAdjust="spacing" textLength="101" x="1712" y="631.792">MemoryStep</text><text fill="#000000" font-family="sans-serif" font-size="14" lengthAdjust="spacing" textLength="12" x="1823" y="631.792">&#160;&#160;&#160;</text><line style="stroke:#000000;stroke-width:1.0;" x1="1818" x2="1818" y1="616.7969" y2="637.0938"/><rect fill="none" height="81.1875" rx="5" ry="5" style="stroke:#000000;stroke-width:1.5;" width="133" x="1707" y="555.9063"/><rect fill="#F1F1F1" height="40.5938" rx="5" ry="5" style="stroke:#F1F1F1;stroke-width:1.5;" width="495" x="1877" y="507"/><text fill="#000000" font-family="sans-serif" font-size="14" font-weight="bold" lengthAdjust="spacing" textLength="36" x="1882" y="521.9951">type</text><text fill="#000000" font-family="sans-serif" font-size="14" lengthAdjust="spacing" textLength="53" x="1984" y="521.9951">integer</text><line style="stroke:#000000;stroke-width:1.0;" x1="1979" x2="1979" y1="507" y2="527.2969"/><line style="stroke:#000000;stroke-width:1.0;" x1="1877" x2="2372" y1="527.2969" y2="527.2969"/><text fill="#000000" font-family="sans-serif" font-size="14" font-weight="bold" lengthAdjust="spacing" textLength="92" x="1882" y="542.292">description</text><text fill="#000000" font-family="sans-serif" font-size="14" lengthAdjust="spacing" textLength="383" x="1984" y="542.292">Minimum required number of CPU cores of the Flavor.</text><line style="stroke:#000000;stroke-width:1.0;" x1="1979" x2="1979" y1="527.2969" y2="547.5938"/><rect fill="none" height="40.5938" rx="5" ry="5" style="stroke:#000000;stroke-width:1.5;" width="495" x="1877" y="507"/><rect fill="#F1F1F1" height="40.5938" rx="5" ry="5" style="stroke:#F1F1F1;stroke-width:1.5;" width="455" x="1897" y="566"/><text fill="#000000" font-family="sans-serif" font-size="14" font-weight="bold" lengthAdjust="spacing" textLength="36" x="1902" y="580.9951">type</text><text fill="#000000" font-family="sans-serif" font-size="14" lengthAdjust="spacing" textLength="53" x="2004" y="580.9951">integer</text><line style="stroke:#000000;stroke-width:1.0;" x1="1999" x2="1999" y1="566" y2="586.2969"/><line style="stroke:#000000;stroke-width:1.0;" x1="1897" x2="2352" y1="586.2969" y2="586.2969"/><text fill="#000000" font-family="sans-serif" font-size="14" font-weight="bold" lengthAdjust="spacing" textLength="92" x="1902" y="601.292">description</text><text fill="#000000" font-family="sans-serif" font-size="14" lengthAdjust="spacing" textLength="343" x="2004" y="601.292">Minimum required amount of RAM of the Flavor.</text><line style="stroke:#000000;stroke-width:1.0;" x1="1999" x2="1999" y1="586.2969" y2="606.5938"/><rect fill="none" height="40.5938" rx="5" ry="5" style="stroke:#000000;stroke-width:1.5;" width="455" x="1897" y="566"/><rect fill="#F1F1F1" height="40.5938" rx="5" ry="5" style="stroke:#F1F1F1;stroke-width:1.5;" width="434" x="1907.5" y="625"/><text fill="#000000" font-family="sans-serif" font-size="14" font-weight="bold" lengthAdjust="spacing" textLength="36" x="1912.5" y="639.9951">type</text><text fill="#000000" font-family="sans-serif" font-size="14" lengthAdjust="spacing" textLength="53" x="2014.5" y="639.9951">integer</text><line style="stroke:#000000;stroke-width:1.0;" x1="2009.5" x2="2009.5" y1="625" y2="645.2969"/><line style="stroke:#000000;stroke-width:1.0;" x1="1907.5" x2="2341.5" y1="645.2969" y2="645.2969"/><text fill="#000000" font-family="sans-serif" font-size="14" font-weight="bold" lengthAdjust="spacing" textLength="92" x="1912.5" y="660.292">description</text><text fill="#000000" font-family="sans-serif" font-size="14" lengthAdjust="spacing" textLength="322" x="2014.5" y="660.292">Incremental value of CPU cores of the Flavor.</text><line style="stroke:#000000;stroke-width:1.0;" x1="2009.5" x2="2009.5" y1="645.2969" y2="665.5938"/><rect fill="none" height="40.5938" rx="5" ry="5" style="stroke:#000000;stroke-width:1.5;" width="434" x="1907.5" y="625"/><rect fill="#F1F1F1" height="40.5938" rx="5" ry="5" style="stroke:#F1F1F1;stroke-width:1.5;" width="395" x="1927" y="684"/><text fill="#000000" font-family="sans-serif" font-size="14" font-weight="bold" lengthAdjust="spacing" textLength="36" x="1932" y="698.9951">type</text><text fill="#000000" font-family="sans-serif" font-size="14" lengthAdjust="spacing" textLength="53" x="2034" y="698.9951">integer</text><line style="stroke:#000000;stroke-width:1.0;" x1="2029" x2="2029" y1="684" y2="704.2969"/><line style="stroke:#000000;stroke-width:1.0;" x1="1927" x2="2322" y1="704.2969" y2="704.2969"/><text fill="#000000" font-family="sans-serif" font-size="14" font-weight="bold" lengthAdjust="spacing" textLength="92" x="1932" y="719.292">description</text><text fill="#000000" font-family="sans-serif" font-size="14" lengthAdjust="spacing" textLength="283" x="2034" y="719.292">Incremental value of RAM of the Flavor.</text><line style="stroke:#000000;stroke-width:1.0;" x1="2029" x2="2029" y1="704.2969" y2="724.5938"/><rect fill="none" height="40.5938" rx="5" ry="5" style="stroke:#000000;stroke-width:1.5;" width="395" x="1927" y="684"/><path d="M1103,165.5 L1116,165.5 C1165.754,165.5 1113.2364,90.6904 1152,59.5 C1181.6044,35.6794 1219.6733,24.3845 1257.4446,19.9548 " fill="none" style="stroke:#000000;stroke-width:1.0;stroke-dasharray:3.0,3.0;"/><path d="M1257.763,22.9738 L1259.7089,19.7159 L1257.1261,16.9357 L1264.9922,19.1587 L1257.763,22.9738 " fill="#000000" style="stroke:#000000;stroke-width:1.0;"/><ellipse cx="1103" cy="165.5" fill="#000000" rx="3" ry="3" style="stroke:#000000;stroke-width:1.0;"/><path d="M1103,185.5 L1116,185.5 C1149.8041,185.5 1124.0001,137.44 1152,118.5 C1187.7284,94.3322 1232.7811,84.1617 1275.2265,80.9079 " fill="none" style="stroke:#000000;stroke-width:1.0;stroke-dasharray:3.0,3.0;"/><path d="M1275.4317,83.9537 L1277.5109,80.754 L1275.0214,77.862 L1282.8412,80.395 L1275.4317,83.9537 " fill="#000000" style="stroke:#000000;stroke-width:1.0;"/><ellipse cx="1103" cy="185.5" fill="#000000" rx="3" ry="3" style="stroke:#000000;stroke-width:1.0;"/><path d="M1103,206.5 L1116,206.5 C1136.5456,206.5 1133.0358,185.4046 1152,177.5 C1186.4405,163.1446 1225.5767,155.0347 1262.7899,150.6343 " fill="none" style="stroke:#000000;stroke-width:1.0;stroke-dasharray:3.0,3.0;"/><path d="M1263.1433,153.798 L1265.1627,150.3692 L1262.4364,147.4705 L1270.6992,149.7506 L1263.1433,153.798 " fill="#000000" style="stroke:#000000;stroke-width:1.0;"/><ellipse cx="1103" cy="206.5" fill="#000000" rx="3" ry="3" style="stroke:#000000;stroke-width:1.0;"/><path d="M1103,226.5 L1116,226.5 C1169.2409,226.5 1227.7838,223.3693 1278.5517,219.6496 " fill="none" style="stroke:#000000;stroke-width:1.0;stroke-dasharray:3.0,3.0;"/><path d="M1278.7826,222.7517 L1280.8783,219.4765 L1278.3208,216.5475 L1286.3069,219.0725 L1278.7826,222.7517 " fill="#000000" style="stroke:#000000;stroke-width:1.0;"/><ellipse cx="1103" cy="226.5" fill="#000000" rx="3" ry="3" style="stroke:#000000;stroke-width:1.0;"/><path d="M1103,246.5 L1116,246.5 C1164.7655,246.5 1217.969,249.2634 1265.5731,252.7359 " fill="none" style="stroke:#000000;stroke-width:1.0;stroke-dasharray:3.0,3.0;"/><path d="M1265.3479,255.7721 L1267.8503,252.9048 L1265.7983,249.6997 L1273.1636,253.299 L1265.3479,255.7721 " fill="#000000" style="stroke:#000000;stroke-width:1.0;"/><ellipse cx="1103" cy="246.5" fill="#000000" rx="3" ry="3" style="stroke:#000000;stroke-width:1.0;"/><path d="M1658,355.5 L1671,355.5 C1685.929,355.5 1702.087,355.5 1717.0456,355.5 " fill="none" style="stroke:#000000;stroke-width:1.0;stroke-dasharray:3.0,3.0;"/><path d="M1717.0456,358.5801 L1719.3556,355.5 L1717.0456,352.4199 L1724.7458,355.5 L1717.0456,358.5801 " fill="#000000" style="stroke:#000000;stroke-width:1.0;"/><ellipse cx="1658" cy="355.5" fill="#000000" rx="3" ry="3" style="stroke:#000000;stroke-width:1.0;"/><path d="M1103,267.5 L1116,267.5 C1136.2698,267.5 1133.3883,287.4708 1152,295.5 C1157.5706,297.9032 1163.2637,300.1644 1169.0515,302.2921 " fill="none" style="stroke:#000000;stroke-width:1.0;stroke-dasharray:3.0,3.0;"/><path d="M1168.0018,305.244 L1171.2654,303.0794 L1170.1011,299.3402 L1176.4311,304.9163 L1168.0018,305.244 " fill="#000000" style="stroke:#000000;stroke-width:1.0;"/><ellipse cx="1103" cy="267.5" fill="#000000" rx="3" ry="3" style="stroke:#000000;stroke-width:1.0;"/><path d="M1103,287.5 L1116,287.5 C1158.2573,287.5 1118.2856,350.0242 1152,375.5 C1181.5171,397.8041 1218.6148,408.8029 1255.4186,413.448 " fill="none" style="stroke:#000000;stroke-width:1.0;stroke-dasharray:3.0,3.0;"/><path d="M1255.06,416.5865 L1257.7725,413.7169 L1255.7772,410.3095 L1263.2649,414.3445 L1255.06,416.5865 " fill="#000000" style="stroke:#000000;stroke-width:1.0;"/><ellipse cx="1103" cy="287.5" fill="#000000" rx="3" ry="3" style="stroke:#000000;stroke-width:1.0;"/><path d="M883,324.5 L896,324.5 C917.8273,324.5 938.1933,315.3145 955.9468,302.5679 " fill="none" style="stroke:#000000;stroke-width:1.0;stroke-dasharray:3.0,3.0;"/><path d="M957.8856,305.1361 L957.873,301.1139 L954.0081,299.9997 L962.3673,297.7211 L957.8856,305.1361 " fill="#000000" style="stroke:#000000;stroke-width:1.0;"/><ellipse cx="883" cy="324.5" fill="#000000" rx="3" ry="3" style="stroke:#000000;stroke-width:1.0;"/><path d="M608,373.5 L621,373.5 C648.2762,373.5 677.047,366.475 702.2701,357.7448 " fill="none" style="stroke:#000000;stroke-width:1.0;stroke-dasharray:3.0,3.0;"/><path d="M703.3221,360.6892 L704.4784,356.9558 L701.2181,354.8005 L709.631,355.1148 L703.3221,360.6892 " fill="#000000" style="stroke:#000000;stroke-width:1.0;"/><ellipse cx="608" cy="373.5" fill="#000000" rx="3" ry="3" style="stroke:#000000;stroke-width:1.0;"/><path d="M1819,448.5 L1832,448.5 C1852.3961,448.5 1856.8616,442.732 1877,439.5 C1895.45,436.539 1914.7174,433.7221 1933.999,431.0851 " fill="none" style="stroke:#000000;stroke-width:1.0;stroke-dasharray:3.0,3.0;"/><path d="M1934.4153,434.1561 L1936.3023,430.773 L1933.5828,428.0142 L1941.6765,430.0446 L1934.4153,434.1561 " fill="#000000" style="stroke:#000000;stroke-width:1.0;"/><ellipse cx="1819" cy="448.5" fill="#000000" rx="3" ry="3" style="stroke:#000000;stroke-width:1.0;"/><path d="M1819,468.5 L1832,468.5 C1844.3954,468.5 1857.0867,468.5 1869.9045,468.5 " fill="none" style="stroke:#000000;stroke-width:1.0;stroke-dasharray:3.0,3.0;"/><path d="M1869.9045,471.5241 L1872.1725,468.5 L1869.9045,465.4759 L1877.4647,468.5 L1869.9045,471.5241 " fill="#000000" style="stroke:#000000;stroke-width:1.0;"/><ellipse cx="1819" cy="468.5" fill="#000000" rx="3" ry="3" style="stroke:#000000;stroke-width:1.0;"/><path d="M1518.5,473.5 L1531.5,473.5 C1592.1095,473.5 1661.111,468.7353 1709.7929,464.5767 " fill="none" style="stroke:#000000;stroke-width:1.0;stroke-dasharray:3.0,3.0;"/><path d="M1710.0575,467.6305 L1712.0832,464.3783 L1709.5283,461.523 L1717.4272,463.9153 L1710.0575,467.6305 " fill="#000000" style="stroke:#000000;stroke-width:1.0;"/><ellipse cx="1518.5" cy="473.5" fill="#000000" rx="3" ry="3" style="stroke:#000000;stroke-width:1.0;"/><path d="M1083,473.5 L1096,473.5 C1158.0523,473.5 1226.9914,473.5 1284.4735,473.5 " fill="none" style="stroke:#000000;stroke-width:1.0;stroke-dasharray:3.0,3.0;"/><path d="M1284.4735,476.5686 L1286.775,473.5 L1284.4735,470.4314 L1292.1451,473.5 L1284.4735,476.5686 " fill="#000000" style="stroke:#000000;stroke-width:1.0;"/><ellipse cx="1083" cy="473.5" fill="#000000" rx="3" ry="3" style="stroke:#000000;stroke-width:1.0;"/><path d="M1828,566.5 L1841,566.5 C1857.4924,566.5 1860.7827,560.5 1877,557.5 C1893.2074,554.5018 1910.0706,551.7309 1927.0341,549.1861 " fill="none" style="stroke:#000000;stroke-width:1.0;stroke-dasharray:3.0,3.0;"/><path d="M1927.4954,552.3058 L1929.3738,548.8401 L1926.5728,546.0665 L1934.8332,548.0328 L1927.4954,552.3058 " fill="#000000" style="stroke:#000000;stroke-width:1.0;"/><ellipse cx="1828" cy="566.5" fill="#000000" rx="3" ry="3" style="stroke:#000000;stroke-width:1.0;"/><path d="M1828,586.5 L1841,586.5 C1856.871,586.5 1873.2426,586.5 1889.7358,586.5 " fill="none" style="stroke:#000000;stroke-width:1.0;stroke-dasharray:3.0,3.0;"/><path d="M1889.7358,589.5341 L1892.0114,586.5 L1889.7358,583.4659 L1897.321,586.5 L1889.7358,589.5341 " fill="#000000" style="stroke:#000000;stroke-width:1.0;"/><ellipse cx="1828" cy="586.5" fill="#000000" rx="3" ry="3" style="stroke:#000000;stroke-width:1.0;"/><path d="M1828,606.5 L1841,606.5 C1857.6058,606.5 1860.7054,613.3001 1877,616.5 C1890.3159,619.1149 1904.0852,621.5249 1917.9958,623.7409 " fill="none" style="stroke:#000000;stroke-width:1.0;stroke-dasharray:3.0,3.0;"/><path d="M1917.5114,626.8371 L1920.3181,624.1042 L1918.4803,620.6446 L1925.7365,624.952 L1917.5114,626.8371 " fill="#000000" style="stroke:#000000;stroke-width:1.0;"/><ellipse cx="1828" cy="606.5" fill="#000000" rx="3" ry="3" style="stroke:#000000;stroke-width:1.0;"/><path d="M1828,626.5 L1841,626.5 C1868.0235,626.5 1853.6433,661.9083 1877,675.5 C1890.3893,683.2915 1904.8772,689.4686 1919.8928,694.3308 " fill="none" style="stroke:#000000;stroke-width:1.0;stroke-dasharray:3.0,3.0;"/><path d="M1918.9797,697.2953 L1922.1161,695.0156 L1920.8058,691.3663 L1927.304,696.6134 L1918.9797,697.2953 " fill="#000000" style="stroke:#000000;stroke-width:1.0;"/><ellipse cx="1828" cy="626.5" fill="#000000" rx="3" ry="3" style="stroke:#000000;stroke-width:1.0;"/><path d="M1518.5,581.5 L1531.5,581.5 C1588.122,581.5 1652.0682,585.6583 1699.929,589.5961 " fill="none" style="stroke:#000000;stroke-width:1.0;stroke-dasharray:3.0,3.0;"/><path d="M1699.6772,592.612 L1702.1909,589.785 L1700.1807,586.5803 L1707.4686,590.2256 L1699.6772,592.612 " fill="#000000" style="stroke:#000000;stroke-width:1.0;"/><ellipse cx="1518.5" cy="581.5" fill="#000000" rx="3" ry="3" style="stroke:#000000;stroke-width:1.0;"/><path d="M1083,493.5 L1096,493.5 C1122.4286,493.5 1126.7528,505.6866 1152,513.5 C1195.059,526.8257 1242.6564,539.8285 1285.1495,550.8351 " fill="none" style="stroke:#000000;stroke-width:1.0;stroke-dasharray:3.0,3.0;"/><path d="M1284.3936,553.7638 L1287.3461,551.402 L1285.9055,547.9064 L1292.4713,552.7249 L1284.3936,553.7638 " fill="#000000" style="stroke:#000000;stroke-width:1.0;"/><ellipse cx="1083" cy="493.5" fill="#000000" rx="3" ry="3" style="stroke:#000000;stroke-width:1.0;"/><path d="M840.5,452.5 L853.5,452.5 C883.9819,452.5 917.0516,457.4112 945.82,463.3239 " fill="none" style="stroke:#000000;stroke-width:1.0;stroke-dasharray:3.0,3.0;"/><path d="M945.1775,466.3657 L948.1013,463.8058 L946.4625,460.2822 L953.4244,464.9303 L945.1775,466.3657 " fill="#000000" style="stroke:#000000;stroke-width:1.0;"/><ellipse cx="840.5" cy="452.5" fill="#000000" rx="3" ry="3" style="stroke:#000000;stroke-width:1.0;"/><path d="M608,393.5 L621,393.5 C657.8623,393.5 697.4545,406.3306 727.3304,418.8606 " fill="none" style="stroke:#000000;stroke-width:1.0;stroke-dasharray:3.0,3.0;"/><path d="M726.13,421.6572 L729.4278,419.7609 L728.5308,416.064 L734.322,421.8616 L726.13,421.6572 " fill="#000000" style="stroke:#000000;stroke-width:1.0;"/><ellipse cx="608" cy="393.5" fill="#000000" rx="3" ry="3" style="stroke:#000000;stroke-width:1.0;"/><path d="M414,383.5 L427,383.5 C436.292,383.5 446.0101,383.5 455.6854,383.5 " fill="none" style="stroke:#000000;stroke-width:1.0;stroke-dasharray:3.0,3.0;"/><path d="M455.6854,386.5965 L458.0078,383.5 L455.6854,380.4035 L463.4267,383.5 L455.6854,386.5965 " fill="#000000" style="stroke:#000000;stroke-width:1.0;"/><ellipse cx="414" cy="383.5" fill="#000000" rx="3" ry="3" style="stroke:#000000;stroke-width:1.0;"/><!--SRC=[nLVVRzem47xtNs5bUm2fG5TLNSLJk_xQEf1G0tqtoH7S9NPslh154__xx8IIjGMMIgJbYToTl_lEz-Nid1aII0z6A_Q7SVlpFffW3edm-joR4wNzNizvEwMrgp7gXIXcr3dyt2jj7xo3SYNbARXbUle00QsjakB2_FtKZsK0Z_OGJ80o9QbLuSscW0e83B-EnK8Z7pkuLN2AEWKa2SR6baGB-yLSe0W8K1gImLFdTavhxnRO2duqsUXu0YqLGGJu37iTzgpEyHouoX9RBDSpRXFmGAFD_sBnyYMUDzAXQPPGwZBKuZA4H6FU11kHw4oHOvEKEMhnkMccLnKPbw0M4vyqYWYQPMDMIUenWY13IRbFGeK2wuX888gy9hD7U4jgXSzDbgOQ2K8-pJbPvgkNkWNTg7l0Rov7T-tkDdX9a6od-8Ic8PGgyZO6BcljpK0GgA0H8SSbj6jNjGNT3IrZEqXw8WobGnNnwDznDHEn0RPXaPqITixc-vw5vr6440aIqxY6j3Vcg9khcZ5INJZ1xunwHPEsDSlcaKcMS8IVcKGhsceWIkL47TXZwNzTt26ogY3n-sqA4h_tM11xHPdrvBhpaBCNaXBX3PLsaMPM1E-ei_LDO3ywAmxEzwYeEg7kpeTxgSMsnYT8cwxacmeG4b0aOhuGSGPDTUNTYdbLGnfyvzdcf_BVaYtP6QYm-2HXerWecWm7V05eR0B-gNjqU7JSFPu2YPFMHFrG-fUoBKfI6GCdcK2RjMv60svqXW7mKBeRmZHpxDhiLYm4lxFwj75zxfvQus6R-rUFHdwb5XArSbl7Rk-7PH3_gibFDHN19yUTBvAu3sWvyViXkuIPo6AoImCTsij8dq_6rvrJDX0gokmLhSz1iMBgOsvz_by0]--></g></svg>