<?xml version="1.0" encoding="us-ascii" standalone="no"?><svg xmlns="http://www.w3.org/2000/svg" xmlns:xlink="http://www.w3.org/1999/xlink" contentStyleType="text/css" height="716px" preserveAspectRatio="none" style="width:2547px;height:716px;background:#FFFFFF;" version="1.1" viewBox="0 0 2547 716" width="2547px" zoomAndPan="magnify"><defs/><g><rect fill="#F1F1F1" height="101.4844" rx="5" ry="5" style="stroke:#F1F1F1;stroke-width:1.5;" width="416" x="10" y="278.7578"/><text fill="#000000" font-family="sans-serif" font-size="14" font-weight="bold" lengthAdjust="spacing" textLength="72" x="15" y="293.7529">$schema</text><text fill="#000000" font-family="sans-serif" font-size="14" lengthAdjust="spacing" textLength="304" x="117" y="293.7529">http://json-schema.org/draft-07/schema#</text><line style="stroke:#000000;stroke-width:1.0;" x1="112" x2="112" y1="278.7578" y2="299.0547"/><line style="stroke:#000000;stroke-width:1.0;" x1="10" x2="426" y1="299.0547" y2="299.0547"/><text fill="#000000" font-family="sans-serif" font-size="14" font-weight="bold" lengthAdjust="spacing" textLength="36" x="15" y="314.0498">type</text><text fill="#000000" font-family="sans-serif" font-size="14" lengthAdjust="spacing" textLength="47" x="117" y="314.0498">object</text><line style="stroke:#000000;stroke-width:1.0;" x1="112" x2="112" y1="299.0547" y2="319.3516"/><line style="stroke:#000000;stroke-width:1.0;" x1="10" x2="426" y1="319.3516" y2="319.3516"/><text fill="#000000" font-family="sans-serif" font-size="14" font-weight="bold" lengthAdjust="spacing" textLength="35" x="15" y="334.3467">title</text><text fill="#000000" font-family="sans-serif" font-size="14" lengthAdjust="spacing" textLength="52" x="117" y="334.3467">K8Slice</text><line style="stroke:#000000;stroke-width:1.0;" x1="112" x2="112" y1="319.3516" y2="339.6484"/><line style="stroke:#000000;stroke-width:1.0;" x1="10" x2="426" y1="339.6484" y2="339.6484"/><text fill="#000000" font-family="sans-serif" font-size="14" font-weight="bold" lengthAdjust="spacing" textLength="92" x="15" y="354.6436">description</text><text fill="#000000" font-family="sans-serif" font-size="14" lengthAdjust="spacing" textLength="171" x="117" y="354.6436">Kubernetes Flavor Type</text><line style="stroke:#000000;stroke-width:1.0;" x1="112" x2="112" y1="339.6484" y2="359.9453"/><line style="stroke:#000000;stroke-width:1.0;" x1="10" x2="426" y1="359.9453" y2="359.9453"/><text fill="#000000" font-family="sans-serif" font-size="14" font-weight="bold" lengthAdjust="spacing" textLength="84" x="15" y="374.9404">properties</text><text fill="#000000" font-family="sans-serif" font-size="14" lengthAdjust="spacing" textLength="12" x="117" y="374.9404">&#160;&#160;&#160;</text><line style="stroke:#000000;stroke-width:1.0;" x1="112" x2="112" y1="359.9453" y2="380.2422"/><rect fill="none" height="101.4844" rx="5" ry="5" style="stroke:#000000;stroke-width:1.5;" width="416" x="10" y="278.7578"/><rect fill="#F1F1F1" height="40.5938" rx="5" ry="5" style="stroke:#F1F1F1;stroke-width:1.5;" width="157" x="463" y="350"/><text fill="#000000" font-family="sans-serif" font-size="14" font-weight="bold" lengthAdjust="spacing" textLength="125" x="468" y="364.9951">Characteristics</text><text fill="#000000" font-family="sans-serif" font-size="14" lengthAdjust="spacing" textLength="12" x="603" y="364.9951">&#160;&#160;&#160;</text><line style="stroke:#000000;stroke-width:1.0;" x1="598" x2="598" y1="350" y2="370.2969"/><line style="stroke:#000000;stroke-width:1.0;" x1="463" x2="620" y1="370.2969" y2="370.2969"/><text fill="#000000" font-family="sans-serif" font-size="14" font-weight="bold" lengthAdjust="spacing" textLength="48" x="468" y="385.292">Policy</text><text fill="#000000" font-family="sans-serif" font-size="14" lengthAdjust="spacing" textLength="12" x="603" y="385.292">&#160;&#160;&#160;</text><line style="stroke:#000000;stroke-width:1.0;" x1="598" x2="598" y1="370.2969" y2="390.5938"/><rect fill="none" height="40.5938" rx="5" ry="5" style="stroke:#000000;stroke-width:1.5;" width="157" x="463" y="350"/><rect fill="#F1F1F1" height="60.8906" rx="5" ry="5" style="stroke:#F1F1F1;stroke-width:1.5;" width="238" x="657" y="284"/><text fill="#000000" font-family="sans-serif" font-size="14" font-weight="bold" lengthAdjust="spacing" textLength="36" x="662" y="298.9951">type</text><text fill="#000000" font-family="sans-serif" font-size="14" lengthAdjust="spacing" textLength="47" x="839" y="298.9951">object</text><line style="stroke:#000000;stroke-width:1.0;" x1="834" x2="834" y1="284" y2="304.2969"/><line style="stroke:#000000;stroke-width:1.0;" x1="657" x2="895" y1="304.2969" y2="304.2969"/><text fill="#000000" font-family="sans-serif" font-size="14" font-weight="bold" lengthAdjust="spacing" textLength="84" x="662" y="319.292">properties</text><text fill="#000000" font-family="sans-serif" font-size="14" lengthAdjust="spacing" textLength="12" x="839" y="319.292">&#160;&#160;&#160;</text><line style="stroke:#000000;stroke-width:1.0;" x1="834" x2="834" y1="304.2969" y2="324.5938"/><line style="stroke:#000000;stroke-width:1.0;" x1="657" x2="895" y1="324.5938" y2="324.5938"/><text fill="#000000" font-family="sans-serif" font-size="14" font-weight="bold" lengthAdjust="spacing" textLength="167" x="662" y="339.5889">additionalProperties</text><text fill="#000000" font-family="sans-serif" font-size="14" lengthAdjust="spacing" textLength="51" x="839" y="339.5889">&#9744; false</text><line style="stroke:#000000;stroke-width:1.0;" x1="834" x2="834" y1="324.5938" y2="344.8906"/><rect fill="none" height="60.8906" rx="5" ry="5" style="stroke:#000000;stroke-width:1.5;" width="238" x="657" y="284"/><rect fill="#F1F1F1" height="142.0781" rx="5" ry="5" style="stroke:#F1F1F1;stroke-width:1.5;" width="183" x="932" y="155.4609"/><text fill="#000000" font-family="sans-serif" font-size="14" font-weight="bold" lengthAdjust="spacing" textLength="31" x="937" y="170.4561">CPU</text><text fill="#000000" font-family="sans-serif" font-size="14" lengthAdjust="spacing" textLength="12" x="1098" y="170.4561">&#160;&#160;&#160;</text><line style="stroke:#000000;stroke-width:1.0;" x1="1093" x2="1093" y1="155.4609" y2="175.7578"/><line style="stroke:#000000;stroke-width:1.0;" x1="932" x2="1115" y1="175.7578" y2="175.7578"/><text fill="#000000" font-family="sans-serif" font-size="14" font-weight="bold" lengthAdjust="spacing" textLength="39" x="937" y="190.7529">Pods</text><text fill="#000000" font-family="sans-serif" font-size="14" lengthAdjust="spacing" textLength="12" x="1098" y="190.7529">&#160;&#160;&#160;</text><line style="stroke:#000000;stroke-width:1.0;" x1="1093" x2="1093" y1="175.7578" y2="196.0547"/><line style="stroke:#000000;stroke-width:1.0;" x1="932" x2="1115" y1="196.0547" y2="196.0547"/><text fill="#000000" font-family="sans-serif" font-size="14" font-weight="bold" lengthAdjust="spacing" textLength="64" x="937" y="211.0498">Memory</text><text fill="#000000" font-family="sans-serif" font-size="14" lengthAdjust="spacing" textLength="12" x="1098" y="211.0498">&#160;&#160;&#160;</text><line style="stroke:#000000;stroke-width:1.0;" x1="1093" x2="1093" y1="196.0547" y2="216.3516"/><line style="stroke:#000000;stroke-width:1.0;" x1="932" x2="1115" y1="216.3516" y2="216.3516"/><text fill="#000000" font-family="sans-serif" font-size="14" font-weight="bold" lengthAdjust="spacing" textLength="33" x="937" y="231.3467">GPU</text><text fill="#000000" font-family="sans-serif" font-size="14" lengthAdjust="spacing" textLength="12" x="1098" y="231.3467">&#160;&#160;&#160;</text><line style="stroke:#000000;stroke-width:1.0;" x1="1093" x2="1093" y1="216.3516" y2="236.6484"/><line style="stroke:#000000;stroke-width:1.0;" x1="932" x2="1115" y1="236.6484" y2="236.6484"/><text fill="#000000" font-family="sans-serif" font-size="14" font-weight="bold" lengthAdjust="spacing" textLength="64" x="937" y="251.6436">Storage</text><text fill="#000000" font-family="sans-serif" font-size="14" lengthAdjust="spacing" textLength="12" x="1098" y="251.6436">&#160;&#160;&#160;</text><line style="stroke:#000000;stroke-width:1.0;" x1="1093" x2="1093" y1="236.6484" y2="256.9453"/><line style="stroke:#000000;stroke-width:1.0;" x1="932" x2="1115" y1="256.9453" y2="256.9453"/><text fill="#000000" font-family="sans-serif" font-size="14" font-weight="bold" lengthAdjust="spacing" textLength="151" x="937" y="271.9404">SecurityStandards</text><text fill="#000000" font-family="sans-serif" font-size="14" lengthAdjust="spacing" textLength="12" x="1098" y="271.9404">&#160;&#160;&#160;</text><line style="stroke:#000000;stroke-width:1.0;" x1="1093" x2="1093" y1="256.9453" y2="277.2422"/><line style="stroke:#000000;stroke-width:1.0;" x1="932" x2="1115" y1="277.2422" y2="277.2422"/><text fill="#000000" font-family="sans-serif" font-size="14" font-weight="bold" lengthAdjust="spacing" textLength="64" x="937" y="292.2373">Latency</text><text fill="#000000" font-family="sans-serif" font-size="14" lengthAdjust="spacing" textLength="12" x="1098" y="292.2373">&#160;&#160;&#160;</text><line style="stroke:#000000;stroke-width:1.0;" x1="1093" x2="1093" y1="277.2422" y2="297.5391"/><rect fill="none" height="142.0781" rx="5" ry="5" style="stroke:#000000;stroke-width:1.5;" width="183" x="932" y="155.4609"/><rect fill="#F1F1F1" height="40.5938" rx="5" ry="5" style="stroke:#F1F1F1;stroke-width:1.5;" width="293" x="1153.5" y="10"/><text fill="#000000" font-family="sans-serif" font-size="14" font-weight="bold" lengthAdjust="spacing" textLength="36" x="1158.5" y="24.9951">type</text><text fill="#000000" font-family="sans-serif" font-size="14" lengthAdjust="spacing" textLength="53" x="1260.5" y="24.9951">integer</text><line style="stroke:#000000;stroke-width:1.0;" x1="1255.5" x2="1255.5" y1="10" y2="30.2969"/><line style="stroke:#000000;stroke-width:1.0;" x1="1153.5" x2="1446.5" y1="30.2969" y2="30.2969"/><text fill="#000000" font-family="sans-serif" font-size="14" font-weight="bold" lengthAdjust="spacing" textLength="92" x="1158.5" y="45.292">description</text><text fill="#000000" font-family="sans-serif" font-size="14" lengthAdjust="spacing" textLength="181" x="1260.5" y="45.292">The number of CPU cores</text><line style="stroke:#000000;stroke-width:1.0;" x1="1255.5" x2="1255.5" y1="30.2969" y2="50.5938"/><rect fill="none" height="40.5938" rx="5" ry="5" style="stroke:#000000;stroke-width:1.5;" width="293" x="1153.5" y="10"/><rect fill="#F1F1F1" height="40.5938" rx="5" ry="5" style="stroke:#F1F1F1;stroke-width:1.5;" width="257" x="1171.5" y="69"/><text fill="#000000" font-family="sans-serif" font-size="14" font-weight="bold" lengthAdjust="spacing" textLength="36" x="1176.5" y="83.9951">type</text><text fill="#000000" font-family="sans-serif" font-size="14" lengthAdjust="spacing" textLength="53" x="1278.5" y="83.9951">integer</text><line style="stroke:#000000;stroke-width:1.0;" x1="1273.5" x2="1273.5" y1="69" y2="89.2969"/><line style="stroke:#000000;stroke-width:1.0;" x1="1171.5" x2="1428.5" y1="89.2969" y2="89.2969"/><text fill="#000000" font-family="sans-serif" font-size="14" font-weight="bold" lengthAdjust="spacing" textLength="92" x="1176.5" y="104.292">description</text><text fill="#000000" font-family="sans-serif" font-size="14" lengthAdjust="spacing" textLength="145" x="1278.5" y="104.292">The number of pods</text><line style="stroke:#000000;stroke-width:1.0;" x1="1273.5" x2="1273.5" y1="89.2969" y2="109.5938"/><rect fill="none" height="40.5938" rx="5" ry="5" style="stroke:#000000;stroke-width:1.5;" width="257" x="1171.5" y="69"/><rect fill="#F1F1F1" height="40.5938" rx="5" ry="5" style="stroke:#F1F1F1;stroke-width:1.5;" width="281" x="1159.5" y="128"/><text fill="#000000" font-family="sans-serif" font-size="14" font-weight="bold" lengthAdjust="spacing" textLength="36" x="1164.5" y="142.9951">type</text><text fill="#000000" font-family="sans-serif" font-size="14" lengthAdjust="spacing" textLength="53" x="1266.5" y="142.9951">integer</text><line style="stroke:#000000;stroke-width:1.0;" x1="1261.5" x2="1261.5" y1="128" y2="148.2969"/><line style="stroke:#000000;stroke-width:1.0;" x1="1159.5" x2="1440.5" y1="148.2969" y2="148.2969"/><text fill="#000000" font-family="sans-serif" font-size="14" font-weight="bold" lengthAdjust="spacing" textLength="92" x="1164.5" y="163.292">description</text><text fill="#000000" font-family="sans-serif" font-size="14" lengthAdjust="spacing" textLength="169" x="1266.5" y="163.292">The amount of memory</text><line style="stroke:#000000;stroke-width:1.0;" x1="1261.5" x2="1261.5" y1="148.2969" y2="168.5938"/><rect fill="none" height="40.5938" rx="5" ry="5" style="stroke:#000000;stroke-width:1.5;" width="281" x="1159.5" y="128"/><rect fill="#F1F1F1" height="40.5938" rx="5" ry="5" style="stroke:#F1F1F1;stroke-width:1.5;" width="250" x="1175" y="187"/><text fill="#000000" font-family="sans-serif" font-size="14" font-weight="bold" lengthAdjust="spacing" textLength="36" x="1180" y="201.9951">type</text><text fill="#000000" font-family="sans-serif" font-size="14" lengthAdjust="spacing" textLength="53" x="1282" y="201.9951">integer</text><line style="stroke:#000000;stroke-width:1.0;" x1="1277" x2="1277" y1="187" y2="207.2969"/><line style="stroke:#000000;stroke-width:1.0;" x1="1175" x2="1425" y1="207.2969" y2="207.2969"/><text fill="#000000" font-family="sans-serif" font-size="14" font-weight="bold" lengthAdjust="spacing" textLength="92" x="1180" y="222.292">description</text><text fill="#000000" font-family="sans-serif" font-size="14" lengthAdjust="spacing" textLength="138" x="1282" y="222.292">The amount of GPU</text><line style="stroke:#000000;stroke-width:1.0;" x1="1277" x2="1277" y1="207.2969" y2="227.5938"/><rect fill="none" height="40.5938" rx="5" ry="5" style="stroke:#000000;stroke-width:1.5;" width="250" x="1175" y="187"/><rect fill="#F1F1F1" height="40.5938" rx="5" ry="5" style="stroke:#F1F1F1;stroke-width:1.5;" width="276" x="1162" y="246"/><text fill="#000000" font-family="sans-serif" font-size="14" font-weight="bold" lengthAdjust="spacing" textLength="36" x="1167" y="260.9951">type</text><text fill="#000000" font-family="sans-serif" font-size="14" lengthAdjust="spacing" textLength="53" x="1269" y="260.9951">integer</text><line style="stroke:#000000;stroke-width:1.0;" x1="1264" x2="1264" y1="246" y2="266.2969"/><line style="stroke:#000000;stroke-width:1.0;" x1="1162" x2="1438" y1="266.2969" y2="266.2969"/><text fill="#000000" font-family="sans-serif" font-size="14" font-weight="bold" lengthAdjust="spacing" textLength="92" x="1167" y="281.292">description</text><text fill="#000000" font-family="sans-serif" font-size="14" lengthAdjust="spacing" textLength="164" x="1269" y="281.292">The amount of storage</text><line style="stroke:#000000;stroke-width:1.0;" x1="1264" x2="1264" y1="266.2969" y2="286.5938"/><rect fill="none" height="40.5938" rx="5" ry="5" style="stroke:#000000;stroke-width:1.5;" width="276" x="1162" y="246"/><rect fill="#F1F1F1" height="40.5938" rx="5" ry="5" style="stroke:#F1F1F1;stroke-width:1.5;" width="102" x="1249" y="305"/><text fill="#000000" font-family="sans-serif" font-size="14" font-weight="bold" lengthAdjust="spacing" textLength="36" x="1254" y="319.9951">type</text><text fill="#000000" font-family="sans-serif" font-size="14" lengthAdjust="spacing" textLength="36" x="1310" y="319.9951">array</text><line style="stroke:#000000;stroke-width:1.0;" x1="1305" x2="1305" y1="305" y2="325.2969"/><line style="stroke:#000000;stroke-width:1.0;" x1="1249" x2="1351" y1="325.2969" y2="325.2969"/><text fill="#000000" font-family="sans-serif" font-size="14" font-weight="bold" lengthAdjust="spacing" textLength="46" x="1254" y="340.292">items</text><text fill="#000000" font-family="sans-serif" font-size="14" lengthAdjust="spacing" textLength="12" x="1310" y="340.292">&#160;&#160;&#160;</text><line style="stroke:#000000;stroke-width:1.0;" x1="1305" x2="1305" y1="325.2969" y2="345.5938"/><rect fill="none" height="40.5938" rx="5" ry="5" style="stroke:#000000;stroke-width:1.5;" width="102" x="1249" y="305"/><rect fill="#F1F1F1" height="40.5938" rx="5" ry="5" style="stroke:#F1F1F1;stroke-width:1.5;" width="518" x="1485" y="315"/><text fill="#000000" font-family="sans-serif" font-size="14" font-weight="bold" lengthAdjust="spacing" textLength="36" x="1490" y="329.9951">type</text><text fill="#000000" font-family="sans-serif" font-size="14" lengthAdjust="spacing" textLength="42" x="1592" y="329.9951">string</text><line style="stroke:#000000;stroke-width:1.0;" x1="1587" x2="1587" y1="315" y2="335.2969"/><line style="stroke:#000000;stroke-width:1.0;" x1="1485" x2="2003" y1="335.2969" y2="335.2969"/><text fill="#000000" font-family="sans-serif" font-size="14" font-weight="bold" lengthAdjust="spacing" textLength="92" x="1490" y="350.292">description</text><text fill="#000000" font-family="sans-serif" font-size="14" lengthAdjust="spacing" textLength="406" x="1592" y="350.292">Security standards supported by the Flavor (e.g., GDPR).</text><line style="stroke:#000000;stroke-width:1.0;" x1="1587" x2="1587" y1="335.2969" y2="355.5938"/><rect fill="none" height="40.5938" rx="5" ry="5" style="stroke:#000000;stroke-width:1.5;" width="518" x="1485" y="315"/><rect fill="#F1F1F1" height="40.5938" rx="5" ry="5" style="stroke:#F1F1F1;stroke-width:1.5;" width="296" x="1152" y="364"/><text fill="#000000" font-family="sans-serif" font-size="14" font-weight="bold" lengthAdjust="spacing" textLength="36" x="1157" y="378.9951">type</text><text fill="#000000" font-family="sans-serif" font-size="14" lengthAdjust="spacing" textLength="53" x="1259" y="378.9951">integer</text><line style="stroke:#000000;stroke-width:1.0;" x1="1254" x2="1254" y1="364" y2="384.2969"/><line style="stroke:#000000;stroke-width:1.0;" x1="1152" x2="1448" y1="384.2969" y2="384.2969"/><text fill="#000000" font-family="sans-serif" font-size="14" font-weight="bold" lengthAdjust="spacing" textLength="92" x="1157" y="399.292">description</text><text fill="#000000" font-family="sans-serif" font-size="14" lengthAdjust="spacing" textLength="184" x="1259" y="399.292">The latency of the Flavor.</text><line style="stroke:#000000;stroke-width:1.0;" x1="1254" x2="1254" y1="384.2969" y2="404.5938"/><rect fill="none" height="40.5938" rx="5" ry="5" style="stroke:#000000;stroke-width:1.5;" width="296" x="1152" y="364"/><rect fill="#F1F1F1" height="40.5938" rx="5" ry="5" style="stroke:#F1F1F1;stroke-width:1.5;" width="151" x="700.5" y="407"/><text fill="#000000" font-family="sans-serif" font-size="14" font-weight="bold" lengthAdjust="spacing" textLength="36" x="705.5" y="421.9951">type</text><text fill="#000000" font-family="sans-serif" font-size="14" lengthAdjust="spacing" textLength="47" x="799.5" y="421.9951">object</text><line style="stroke:#000000;stroke-width:1.0;" x1="794.5" x2="794.5" y1="407" y2="427.2969"/><line style="stroke:#000000;stroke-width:1.0;" x1="700.5" x2="851.5" y1="427.2969" y2="427.2969"/><text fill="#000000" font-family="sans-serif" font-size="14" font-weight="bold" lengthAdjust="spacing" textLength="84" x="705.5" y="442.292">properties</text><text fill="#000000" font-family="sans-serif" font-size="14" lengthAdjust="spacing" textLength="12" x="799.5" y="442.292">&#160;&#160;&#160;</text><line style="stroke:#000000;stroke-width:1.0;" x1="794.5" x2="794.5" y1="427.2969" y2="447.5938"/><rect fill="none" height="40.5938" rx="5" ry="5" style="stroke:#000000;stroke-width:1.5;" width="151" x="700.5" y="407"/><rect fill="#F1F1F1" height="40.5938" rx="5" ry="5" style="stroke:#F1F1F1;stroke-width:1.5;" width="141" x="953" y="443"/><text fill="#000000" font-family="sans-serif" font-size="14" font-weight="bold" lengthAdjust="spacing" textLength="109" x="958" y="457.9951">Aggregatable</text><text fill="#000000" font-family="sans-serif" font-size="14" lengthAdjust="spacing" textLength="12" x="1077" y="457.9951">&#160;&#160;&#160;</text><line style="stroke:#000000;stroke-width:1.0;" x1="1072" x2="1072" y1="443" y2="463.2969"/><line style="stroke:#000000;stroke-width:1.0;" x1="953" x2="1094" y1="463.2969" y2="463.2969"/><text fill="#000000" font-family="sans-serif" font-size="14" font-weight="bold" lengthAdjust="spacing" textLength="107" x="958" y="478.292">Partitionable</text><text fill="#000000" font-family="sans-serif" font-size="14" lengthAdjust="spacing" textLength="12" x="1077" y="478.292">&#160;&#160;&#160;</text><line style="stroke:#000000;stroke-width:1.0;" x1="1072" x2="1072" y1="463.2969" y2="483.5938"/><rect fill="none" height="40.5938" rx="5" ry="5" style="stroke:#000000;stroke-width:1.5;" width="141" x="953" y="443"/><rect fill="#F1F1F1" height="60.8906" rx="5" ry="5" style="stroke:#F1F1F1;stroke-width:1.5;" width="238" x="1181" y="423"/><text fill="#000000" font-family="sans-serif" font-size="14" font-weight="bold" lengthAdjust="spacing" textLength="36" x="1186" y="437.9951">type</text><text fill="#000000" font-family="sans-serif" font-size="14" lengthAdjust="spacing" textLength="47" x="1363" y="437.9951">object</text><line style="stroke:#000000;stroke-width:1.0;" x1="1358" x2="1358" y1="423" y2="443.2969"/><line style="stroke:#000000;stroke-width:1.0;" x1="1181" x2="1419" y1="443.2969" y2="443.2969"/><text fill="#000000" font-family="sans-serif" font-size="14" font-weight="bold" lengthAdjust="spacing" textLength="84" x="1186" y="458.292">properties</text><text fill="#000000" font-family="sans-serif" font-size="14" lengthAdjust="spacing" textLength="12" x="1363" y="458.292">&#160;&#160;&#160;</text><line style="stroke:#000000;stroke-width:1.0;" x1="1358" x2="1358" y1="443.2969" y2="463.5938"/><line style="stroke:#000000;stroke-width:1.0;" x1="1181" x2="1419" y1="463.5938" y2="463.5938"/><text fill="#000000" font-family="sans-serif" font-size="14" font-weight="bold" lengthAdjust="spacing" textLength="167" x="1186" y="478.5889">additionalProperties</text><text fill="#000000" font-family="sans-serif" font-size="14" lengthAdjust="spacing" textLength="51" x="1363" y="478.5889">&#9744; false</text><line style="stroke:#000000;stroke-width:1.0;" x1="1358" x2="1358" y1="463.5938" y2="483.8906"/><rect fill="none" height="60.8906" rx="5" ry="5" style="stroke:#000000;stroke-width:1.5;" width="238" x="1181" y="423"/><rect fill="#F1F1F1" height="40.5938" rx="5" ry="5" style="stroke:#F1F1F1;stroke-width:1.5;" width="113" x="1687.5" y="418"/><text fill="#000000" font-family="sans-serif" font-size="14" font-weight="bold" lengthAdjust="spacing" textLength="77" x="1692.5" y="432.9951">MinCount</text><text fill="#000000" font-family="sans-serif" font-size="14" lengthAdjust="spacing" textLength="12" x="1783.5" y="432.9951">&#160;&#160;&#160;</text><line style="stroke:#000000;stroke-width:1.0;" x1="1778.5" x2="1778.5" y1="418" y2="438.2969"/><line style="stroke:#000000;stroke-width:1.0;" x1="1687.5" x2="1800.5" y1="438.2969" y2="438.2969"/><text fill="#000000" font-family="sans-serif" font-size="14" font-weight="bold" lengthAdjust="spacing" textLength="81" x="1692.5" y="453.292">MaxCount</text><text fill="#000000" font-family="sans-serif" font-size="14" lengthAdjust="spacing" textLength="12" x="1783.5" y="453.292">&#160;&#160;&#160;</text><line style="stroke:#000000;stroke-width:1.0;" x1="1778.5" x2="1778.5" y1="438.2969" y2="458.5938"/><rect fill="none" height="40.5938" rx="5" ry="5" style="stroke:#000000;stroke-width:1.5;" width="113" x="1687.5" y="418"/><rect fill="#F1F1F1" height="40.5938" rx="5" ry="5" style="stroke:#F1F1F1;stroke-width:1.5;" width="492" x="2041.5" y="369"/><text fill="#000000" font-family="sans-serif" font-size="14" font-weight="bold" lengthAdjust="spacing" textLength="36" x="2046.5" y="383.9951">type</text><text fill="#000000" font-family="sans-serif" font-size="14" lengthAdjust="spacing" textLength="53" x="2148.5" y="383.9951">integer</text><line style="stroke:#000000;stroke-width:1.0;" x1="2143.5" x2="2143.5" y1="369" y2="389.2969"/><line style="stroke:#000000;stroke-width:1.0;" x1="2041.5" x2="2533.5" y1="389.2969" y2="389.2969"/><text fill="#000000" font-family="sans-serif" font-size="14" font-weight="bold" lengthAdjust="spacing" textLength="92" x="2046.5" y="404.292">description</text><text fill="#000000" font-family="sans-serif" font-size="14" lengthAdjust="spacing" textLength="380" x="2148.5" y="404.292">Minimum required number of instances of the Flavor.</text><line style="stroke:#000000;stroke-width:1.0;" x1="2143.5" x2="2143.5" y1="389.2969" y2="409.5938"/><rect fill="none" height="40.5938" rx="5" ry="5" style="stroke:#000000;stroke-width:1.5;" width="492" x="2041.5" y="369"/><rect fill="#F1F1F1" height="40.5938" rx="5" ry="5" style="stroke:#F1F1F1;stroke-width:1.5;" width="495" x="2040" y="428"/><text fill="#000000" font-family="sans-serif" font-size="14" font-weight="bold" lengthAdjust="spacing" textLength="36" x="2045" y="442.9951">type</text><text fill="#000000" font-family="sans-serif" font-size="14" lengthAdjust="spacing" textLength="53" x="2147" y="442.9951">integer</text><line style="stroke:#000000;stroke-width:1.0;" x1="2142" x2="2142" y1="428" y2="448.2969"/><line style="stroke:#000000;stroke-width:1.0;" x1="2040" x2="2535" y1="448.2969" y2="448.2969"/><text fill="#000000" font-family="sans-serif" font-size="14" font-weight="bold" lengthAdjust="spacing" textLength="92" x="2045" y="463.292">description</text><text fill="#000000" font-family="sans-serif" font-size="14" lengthAdjust="spacing" textLength="383" x="2147" y="463.292">Maximum required number of instances of the Flavor.</text><line style="stroke:#000000;stroke-width:1.0;" x1="2142" x2="2142" y1="448.2969" y2="468.5938"/><rect fill="none" height="40.5938" rx="5" ry="5" style="stroke:#000000;stroke-width:1.5;" width="495" x="2040" y="428"/><rect fill="#F1F1F1" height="60.8906" rx="5" ry="5" style="stroke:#F1F1F1;stroke-width:1.5;" width="238" x="1181" y="531"/><text fill="#000000" font-family="sans-serif" font-size="14" font-weight="bold" lengthAdjust="spacing" textLength="36" x="1186" y="545.9951">type</text><text fill="#000000" font-family="sans-serif" font-size="14" lengthAdjust="spacing" textLength="47" x="1363" y="545.9951">object</text><line style="stroke:#000000;stroke-width:1.0;" x1="1358" x2="1358" y1="531" y2="551.2969"/><line style="stroke:#000000;stroke-width:1.0;" x1="1181" x2="1419" y1="551.2969" y2="551.2969"/><text fill="#000000" font-family="sans-serif" font-size="14" font-weight="bold" lengthAdjust="spacing" textLength="84" x="1186" y="566.292">properties</text><text fill="#000000" font-family="sans-serif" font-size="14" lengthAdjust="spacing" textLength="12" x="1363" y="566.292">&#160;&#160;&#160;</text><line style="stroke:#000000;stroke-width:1.0;" x1="1358" x2="1358" y1="551.2969" y2="571.5938"/><line style="stroke:#000000;stroke-width:1.0;" x1="1181" x2="1419" y1="571.5938" y2="571.5938"/><text fill="#000000" font-family="sans-serif" font-size="14" font-weight="bold" lengthAdjust="spacing" textLength="167" x="1186" y="586.5889">additionalProperties</text><text fill="#000000" font-family="sans-serif" font-size="14" lengthAdjust="spacing" textLength="51" x="1363" y="586.5889">&#9744; false</text><line style="stroke:#000000;stroke-width:1.0;" x1="1358" x2="1358" y1="571.5938" y2="591.8906"/><rect fill="none" height="60.8906" rx="5" ry="5" style="stroke:#000000;stroke-width:1.5;" width="238" x="1181" y="531"/><rect fill="#F1F1F1" height="81.1875" rx="5" ry="5" style="stroke:#F1F1F1;stroke-width:1.5;" width="133" x="1677.5" y="535.9063"/><text fill="#000000" font-family="sans-serif" font-size="14" font-weight="bold" lengthAdjust="spacing" textLength="59" x="1682.5" y="550.9014">CpuMin</text><text fill="#000000" font-family="sans-serif" font-size="14" lengthAdjust="spacing" textLength="12" x="1793.5" y="550.9014">&#160;&#160;&#160;</text><line style="stroke:#000000;stroke-width:1.0;" x1="1788.5" x2="1788.5" y1="535.9063" y2="556.2031"/><line style="stroke:#000000;stroke-width:1.0;" x1="1677.5" x2="1810.5" y1="556.2031" y2="556.2031"/><text fill="#000000" font-family="sans-serif" font-size="14" font-weight="bold" lengthAdjust="spacing" textLength="93" x="1682.5" y="571.1982">MemoryMin</text><text fill="#000000" font-family="sans-serif" font-size="14" lengthAdjust="spacing" textLength="12" x="1793.5" y="571.1982">&#160;&#160;&#160;</text><line style="stroke:#000000;stroke-width:1.0;" x1="1788.5" x2="1788.5" y1="556.2031" y2="576.5"/><line style="stroke:#000000;stroke-width:1.0;" x1="1677.5" x2="1810.5" y1="576.5" y2="576.5"/><text fill="#000000" font-family="sans-serif" font-size="14" font-weight="bold" lengthAdjust="spacing" textLength="67" x="1682.5" y="591.4951">CpuStep</text><text fill="#000000" font-family="sans-serif" font-size="14" lengthAdjust="spacing" textLength="12" x="1793.5" y="591.4951">&#160;&#160;&#160;</text><line style="stroke:#000000;stroke-width:1.0;" x1="1788.5" x2="1788.5" y1="576.5" y2="596.7969"/><line style="stroke:#000000;stroke-width:1.0;" x1="1677.5" x2="1810.5" y1="596.7969" y2="596.7969"/><text fill="#000000" font-family="sans-serif" font-size="14" font-weight="bold" lengthAdjust="spacing" textLength="101" x="1682.5" y="611.792">MemoryStep</text><text fill="#000000" font-family="sans-serif" font-size="14" lengthAdjust="spacing" textLength="12" x="1793.5" y="611.792">&#160;&#160;&#160;</text><line style="stroke:#000000;stroke-width:1.0;" x1="1788.5" x2="1788.5" y1="596.7969" y2="617.0938"/><rect fill="none" height="81.1875" rx="5" ry="5" style="stroke:#000000;stroke-width:1.5;" width="133" x="1677.5" y="535.9063"/><rect fill="#F1F1F1" height="40.5938" rx="5" ry="5" style="stroke:#F1F1F1;stroke-width:1.5;" width="495" x="2040" y="487"/><text fill="#000000" font-family="sans-serif" font-size="14" font-weight="bold" lengthAdjust="spacing" textLength="36" x="2045" y="501.9951">type</text><text fill="#000000" font-family="sans-serif" font-size="14" lengthAdjust="spacing" textLength="53" x="2147" y="501.9951">integer</text><line style="stroke:#000000;stroke-width:1.0;" x1="2142" x2="2142" y1="487" y2="507.2969"/><line style="stroke:#000000;stroke-width:1.0;" x1="2040" x2="2535" y1="507.2969" y2="507.2969"/><text fill="#000000" font-family="sans-serif" font-size="14" font-weight="bold" lengthAdjust="spacing" textLength="92" x="2045" y="522.292">description</text><text fill="#000000" font-family="sans-serif" font-size="14" lengthAdjust="spacing" textLength="383" x="2147" y="522.292">Minimum required number of CPU cores of the Flavor.</text><line style="stroke:#000000;stroke-width:1.0;" x1="2142" x2="2142" y1="507.2969" y2="527.5938"/><rect fill="none" height="40.5938" rx="5" ry="5" style="stroke:#000000;stroke-width:1.5;" width="495" x="2040" y="487"/><rect fill="#F1F1F1" height="40.5938" rx="5" ry="5" style="stroke:#F1F1F1;stroke-width:1.5;" width="455" x="2060" y="546"/><text fill="#000000" font-family="sans-serif" font-size="14" font-weight="bold" lengthAdjust="spacing" textLength="36" x="2065" y="560.9951">type</text><text fill="#000000" font-family="sans-serif" font-size="14" lengthAdjust="spacing" textLength="53" x="2167" y="560.9951">integer</text><line style="stroke:#000000;stroke-width:1.0;" x1="2162" x2="2162" y1="546" y2="566.2969"/><line style="stroke:#000000;stroke-width:1.0;" x1="2060" x2="2515" y1="566.2969" y2="566.2969"/><text fill="#000000" font-family="sans-serif" font-size="14" font-weight="bold" lengthAdjust="spacing" textLength="92" x="2065" y="581.292">description</text><text fill="#000000" font-family="sans-serif" font-size="14" lengthAdjust="spacing" textLength="343" x="2167" y="581.292">Minimum required amount of RAM of the Flavor.</text><line style="stroke:#000000;stroke-width:1.0;" x1="2162" x2="2162" y1="566.2969" y2="586.5938"/><rect fill="none" height="40.5938" rx="5" ry="5" style="stroke:#000000;stroke-width:1.5;" width="455" x="2060" y="546"/><rect fill="#F1F1F1" height="40.5938" rx="5" ry="5" style="stroke:#F1F1F1;stroke-width:1.5;" width="434" x="2070.5" y="605"/><text fill="#000000" font-family="sans-serif" font-size="14" font-weight="bold" lengthAdjust="spacing" textLength="36" x="2075.5" y="619.9951">type</text><text fill="#000000" font-family="sans-serif" font-size="14" lengthAdjust="spacing" textLength="53" x="2177.5" y="619.9951">integer</text><line style="stroke:#000000;stroke-width:1.0;" x1="2172.5" x2="2172.5" y1="605" y2="625.2969"/><line style="stroke:#000000;stroke-width:1.0;" x1="2070.5" x2="2504.5" y1="625.2969" y2="625.2969"/><text fill="#000000" font-family="sans-serif" font-size="14" font-weight="bold" lengthAdjust="spacing" textLength="92" x="2075.5" y="640.292">description</text><text fill="#000000" font-family="sans-serif" font-size="14" lengthAdjust="spacing" textLength="322" x="2177.5" y="640.292">Incremental value of CPU cores of the Flavor.</text><line style="stroke:#000000;stroke-width:1.0;" x1="2172.5" x2="2172.5" y1="625.2969" y2="645.5938"/><rect fill="none" height="40.5938" rx="5" ry="5" style="stroke:#000000;stroke-width:1.5;" width="434" x="2070.5" y="605"/><rect fill="#F1F1F1" height="40.5938" rx="5" ry="5" style="stroke:#F1F1F1;stroke-width:1.5;" width="395" x="2090" y="664"/><text fill="#000000" font-family="sans-serif" font-size="14" font-weight="bold" lengthAdjust="spacing" textLength="36" x="2095" y="678.9951">type</text><text fill="#000000" font-family="sans-serif" font-size="14" lengthAdjust="spacing" textLength="53" x="2197" y="678.9951">integer</text><line style="stroke:#000000;stroke-width:1.0;" x1="2192" x2="2192" y1="664" y2="684.2969"/><line style="stroke:#000000;stroke-width:1.0;" x1="2090" x2="2485" y1="684.2969" y2="684.2969"/><text fill="#000000" font-family="sans-serif" font-size="14" font-weight="bold" lengthAdjust="spacing" textLength="92" x="2095" y="699.292">description</text><text fill="#000000" font-family="sans-serif" font-size="14" lengthAdjust="spacing" textLength="283" x="2197" y="699.292">Incremental value of RAM of the Flavor.</text><line style="stroke:#000000;stroke-width:1.0;" x1="2192" x2="2192" y1="684.2969" y2="704.5938"/><rect fill="none" height="40.5938" rx="5" ry="5" style="stroke:#000000;stroke-width:1.5;" width="395" x="2090" y="664"/><path d="M1103,165.5 L1116,165.5 C1165.754,165.5 1114.5542,92.2608 1152,59.5 C1153.5468,58.1467 1155.138,56.8493 1156.7694,55.6055 " fill="none" style="stroke:#000000;stroke-width:1.0;stroke-dasharray:3.0,3.0;"/><path d="M1158.5838,58.1988 L1158.7144,54.2447 L1154.955,53.0122 L1163.2526,51.0696 L1158.5838,58.1988 " fill="#000000" style="stroke:#000000;stroke-width:1.0;"/><ellipse cx="1103" cy="165.5" fill="#000000" rx="3" ry="3" style="stroke:#000000;stroke-width:1.0;"/><path d="M1103,185.5 L1116,185.5 C1149.8041,185.5 1124.8041,138.5774 1152,118.5 C1156.1615,115.4278 1160.5628,112.6574 1165.1417,110.1606 " fill="none" style="stroke:#000000;stroke-width:1.0;stroke-dasharray:3.0,3.0;"/><path d="M1166.528,112.8921 L1167.1903,109.1209 L1163.7555,107.4292 L1171.9704,106.695 L1166.528,112.8921 " fill="#000000" style="stroke:#000000;stroke-width:1.0;"/><ellipse cx="1103" cy="185.5" fill="#000000" rx="3" ry="3" style="stroke:#000000;stroke-width:1.0;"/><path d="M1103,206.5 L1116,206.5 C1136.5456,206.5 1133.3775,186.1791 1152,177.5 C1156.5296,175.389 1161.2067,173.4315 1165.9841,171.6164 " fill="none" style="stroke:#000000;stroke-width:1.0;stroke-dasharray:3.0,3.0;"/><path d="M1167.0076,174.4426 L1168.1038,170.8488 L1164.9606,168.7902 L1173.0497,169.0577 L1167.0076,174.4426 " fill="#000000" style="stroke:#000000;stroke-width:1.0;"/><ellipse cx="1103" cy="206.5" fill="#000000" rx="3" ry="3" style="stroke:#000000;stroke-width:1.0;"/><path d="M1103,226.5 L1116,226.5 C1132.6645,226.5 1150.1353,225.7151 1167.3962,224.4644 " fill="none" style="stroke:#000000;stroke-width:1.0;stroke-dasharray:3.0,3.0;"/><path d="M1167.6387,227.6293 L1169.7699,224.2825 L1167.1537,221.2995 L1175.3084,223.8581 L1167.6387,227.6293 " fill="#000000" style="stroke:#000000;stroke-width:1.0;"/><ellipse cx="1103" cy="226.5" fill="#000000" rx="3" ry="3" style="stroke:#000000;stroke-width:1.0;"/><path d="M1103,246.5 L1116,246.5 C1128.5907,246.5 1141.6389,246.9711 1154.7076,247.7686 " fill="none" style="stroke:#000000;stroke-width:1.0;stroke-dasharray:3.0,3.0;"/><path d="M1154.5051,250.8461 L1157.0157,247.9205 L1154.91,244.6912 L1162.4013,248.2749 L1154.5051,250.8461 " fill="#000000" style="stroke:#000000;stroke-width:1.0;"/><ellipse cx="1103" cy="246.5" fill="#000000" rx="3" ry="3" style="stroke:#000000;stroke-width:1.0;"/><path d="M1339.5,335.5 L1352.5,335.5 C1393.0034,335.5 1435.867,335.5 1477.7901,335.5 " fill="none" style="stroke:#000000;stroke-width:1.0;stroke-dasharray:3.0,3.0;"/><path d="M1477.7901,338.5162 L1480.0523,335.5 L1477.7901,332.4838 L1485.3306,335.5 L1477.7901,338.5162 " fill="#000000" style="stroke:#000000;stroke-width:1.0;"/><ellipse cx="1339.5" cy="335.5" fill="#000000" rx="3" ry="3" style="stroke:#000000;stroke-width:1.0;"/><path d="M1103,267.5 L1116,267.5 C1136.2698,267.5 1133.5826,287.0345 1152,295.5 C1179.9973,308.3689 1213.4961,315.7475 1241.4886,319.9634 " fill="none" style="stroke:#000000;stroke-width:1.0;stroke-dasharray:3.0,3.0;"/><path d="M1241.0458,323.0594 L1243.8107,320.2955 L1241.9315,316.8673 L1249.2288,321.0705 L1241.0458,323.0594 " fill="#000000" style="stroke:#000000;stroke-width:1.0;"/><ellipse cx="1103" cy="267.5" fill="#000000" rx="3" ry="3" style="stroke:#000000;stroke-width:1.0;"/><path d="M1103,287.5 L1116,287.5 C1150.1962,287.5 1124.5513,335.1052 1152,355.5 C1154.0948,357.0565 1156.2511,358.5356 1158.4607,359.9411 " fill="none" style="stroke:#000000;stroke-width:1.0;stroke-dasharray:3.0,3.0;"/><path d="M1156.8611,362.6536 L1160.4951,361.1408 L1160.0603,357.2286 L1165.2419,363.9401 L1156.8611,362.6536 " fill="#000000" style="stroke:#000000;stroke-width:1.0;"/><ellipse cx="1103" cy="287.5" fill="#000000" rx="3" ry="3" style="stroke:#000000;stroke-width:1.0;"/><path d="M883,314.5 L896,314.5 C912.6322,314.5 928.6578,309.3377 943.3949,301.5138 " fill="none" style="stroke:#000000;stroke-width:1.0;stroke-dasharray:3.0,3.0;"/><path d="M944.9041,304.185 L945.3983,300.3819 L941.8857,298.8426 L950.0729,297.7407 L944.9041,304.185 " fill="#000000" style="stroke:#000000;stroke-width:1.0;"/><ellipse cx="883" cy="314.5" fill="#000000" rx="3" ry="3" style="stroke:#000000;stroke-width:1.0;"/><path d="M608,360.5 L621,360.5 C646.236,360.5 672.8627,354.7928 696.7693,347.399 " fill="none" style="stroke:#000000;stroke-width:1.0;stroke-dasharray:3.0,3.0;"/><path d="M697.707,350.33 L698.9675,346.6957 L695.8316,344.4681 L704.0967,345.0547 L697.707,350.33 " fill="#000000" style="stroke:#000000;stroke-width:1.0;"/><ellipse cx="608" cy="360.5" fill="#000000" rx="3" ry="3" style="stroke:#000000;stroke-width:1.0;"/><path d="M1789.5,428.5 L1802.5,428.5 C1903.8678,428.5 2016.7818,419.9131 2108.0874,410.7977 " fill="none" style="stroke:#000000;stroke-width:1.0;stroke-dasharray:3.0,3.0;"/><path d="M2108.3954,413.8571 L2110.382,410.5668 L2107.7795,407.7383 L2115.736,410.0279 L2108.3954,413.8571 " fill="#000000" style="stroke:#000000;stroke-width:1.0;"/><ellipse cx="1789.5" cy="428.5" fill="#000000" rx="3" ry="3" style="stroke:#000000;stroke-width:1.0;"/><path d="M1789.5,448.5 L1802.5,448.5 C1877.2143,448.5 1958.4096,448.5 2032.5936,448.5 " fill="none" style="stroke:#000000;stroke-width:1.0;stroke-dasharray:3.0,3.0;"/><path d="M2032.5936,451.5471 L2034.879,448.5 L2032.5936,445.4529 L2040.2115,448.5 L2032.5936,451.5471 " fill="#000000" style="stroke:#000000;stroke-width:1.0;"/><ellipse cx="1789.5" cy="448.5" fill="#000000" rx="3" ry="3" style="stroke:#000000;stroke-width:1.0;"/><path d="M1407.5,453.5 L1420.5,453.5 C1510.7213,453.5 1614.9656,447.588 1680.0665,443.1871 " fill="none" style="stroke:#000000;stroke-width:1.0;stroke-dasharray:3.0,3.0;"/><path d="M1680.278,446.2837 L1682.389,443.0285 L1679.855,440.0905 L1687.808,442.6584 L1680.278,446.2837 " fill="#000000" style="stroke:#000000;stroke-width:1.0;"/><ellipse cx="1407.5" cy="453.5" fill="#000000" rx="3" ry="3" style="stroke:#000000;stroke-width:1.0;"/><path d="M1083,453.5 L1096,453.5 C1121.1618,453.5 1148.0737,453.5 1173.8144,453.5 " fill="none" style="stroke:#000000;stroke-width:1.0;stroke-dasharray:3.0,3.0;"/><path d="M1173.8144,456.5343 L1176.0901,453.5 L1173.8144,450.4657 L1181.4001,453.5 L1173.8144,456.5343 " fill="#000000" style="stroke:#000000;stroke-width:1.0;"/><ellipse cx="1083" cy="453.5" fill="#000000" rx="3" ry="3" style="stroke:#000000;stroke-width:1.0;"/><path d="M1799.5,546.5 L1812.5,546.5 C1911.7892,546.5 2022.3735,537.9131 2111.7917,528.7977 " fill="none" style="stroke:#000000;stroke-width:1.0;stroke-dasharray:3.0,3.0;"/><path d="M2112.0996,531.7939 L2114.0388,528.5668 L2111.4837,525.8016 L2119.2821,528.0279 L2112.0996,531.7939 " fill="#000000" style="stroke:#000000;stroke-width:1.0;"/><ellipse cx="1799.5" cy="546.5" fill="#000000" rx="3" ry="3" style="stroke:#000000;stroke-width:1.0;"/><path d="M1799.5,566.5 L1812.5,566.5 C1890.6499,566.5 1976.04,566.5 2052.5721,566.5 " fill="none" style="stroke:#000000;stroke-width:1.0;stroke-dasharray:3.0,3.0;"/><path d="M2052.5721,569.6413 L2054.9281,566.5 L2052.5721,563.3587 L2060.4253,566.5 L2052.5721,569.6413 " fill="#000000" style="stroke:#000000;stroke-width:1.0;"/><ellipse cx="1799.5" cy="566.5" fill="#000000" rx="3" ry="3" style="stroke:#000000;stroke-width:1.0;"/><path d="M1799.5,586.5 L1812.5,586.5 C1911.7892,586.5 2022.3735,595.0869 2111.7917,604.2023 " fill="none" style="stroke:#000000;stroke-width:1.0;stroke-dasharray:3.0,3.0;"/><path d="M2111.4837,607.1984 L2114.0388,604.4332 L2112.0996,601.2061 L2119.2821,604.9721 L2111.4837,607.1984 " fill="#000000" style="stroke:#000000;stroke-width:1.0;"/><ellipse cx="1799.5" cy="586.5" fill="#000000" rx="3" ry="3" style="stroke:#000000;stroke-width:1.0;"/><path d="M1799.5,606.5 L1812.5,606.5 C1915.9298,606.5 1937.9666,638.5615 2040,655.5 C2055.8827,658.1367 2072.3791,660.6205 2088.9733,662.9401 " fill="none" style="stroke:#000000;stroke-width:1.0;stroke-dasharray:3.0,3.0;"/><path d="M2088.5517,665.9919 L2091.2621,663.2564 L2089.395,659.8884 L2096.6027,663.9943 L2088.5517,665.9919 " fill="#000000" style="stroke:#000000;stroke-width:1.0;"/><ellipse cx="1799.5" cy="606.5" fill="#000000" rx="3" ry="3" style="stroke:#000000;stroke-width:1.0;"/><path d="M1407.5,561.5 L1420.5,561.5 C1506.2709,561.5 1604.7156,566.8431 1670.1534,571.1515 " fill="none" style="stroke:#000000;stroke-width:1.0;stroke-dasharray:3.0,3.0;"/><path d="M1669.9455,574.2769 L1672.4975,571.3074 L1670.3613,568.0261 L1677.9669,571.6713 L1669.9455,574.2769 " fill="#000000" style="stroke:#000000;stroke-width:1.0;"/><ellipse cx="1407.5" cy="561.5" fill="#000000" rx="3" ry="3" style="stroke:#000000;stroke-width:1.0;"/><path d="M1083,473.5 L1096,473.5 C1103.1288,473.5 1170.1713,502.977 1225.3881,527.8106 " fill="none" style="stroke:#000000;stroke-width:1.0;stroke-dasharray:3.0,3.0;"/><path d="M1224.1248,530.6163 L1227.4924,528.7581 L1226.6514,525.0049 L1232.4024,530.9688 L1224.1248,530.6163 " fill="#000000" style="stroke:#000000;stroke-width:1.0;"/><ellipse cx="1083" cy="473.5" fill="#000000" rx="3" ry="3" style="stroke:#000000;stroke-width:1.0;"/><path d="M840.5,437.5 L853.5,437.5 C883.8353,437.5 916.8751,441.619 945.6606,446.5781 " fill="none" style="stroke:#000000;stroke-width:1.0;stroke-dasharray:3.0,3.0;"/><path d="M945.1217,449.6222 L947.9436,446.9823 L946.1995,443.5341 L953.2706,447.9254 L945.1217,449.6222 " fill="#000000" style="stroke:#000000;stroke-width:1.0;"/><ellipse cx="840.5" cy="437.5" fill="#000000" rx="3" ry="3" style="stroke:#000000;stroke-width:1.0;"/><path d="M608,380.5 L621,380.5 C656.9487,380.5 695.645,392.2906 725.3184,404.0608 " fill="none" style="stroke:#000000;stroke-width:1.0;stroke-dasharray:3.0,3.0;"/><path d="M724.1887,406.8434 L727.4054,404.9081 L726.4482,401.2781 L732.275,406.8851 L724.1887,406.8434 " fill="#000000" style="stroke:#000000;stroke-width:1.0;"/><ellipse cx="608" cy="380.5" fill="#000000" rx="3" ry="3" style="stroke:#000000;stroke-width:1.0;"/><path d="M414,370.5 L427,370.5 C436.292,370.5 446.0101,370.5 455.6854,370.5 " fill="none" style="stroke:#000000;stroke-width:1.0;stroke-dasharray:3.0,3.0;"/><path d="M455.6854,373.5965 L458.0078,370.5 L455.6854,367.4035 L463.4267,370.5 L455.6854,373.5965 " fill="#000000" style="stroke:#000000;stroke-width:1.0;"/><ellipse cx="414" cy="370.5" fill="#000000" rx="3" ry="3" style="stroke:#000000;stroke-width:1.0;"/><!--SRC=[nLVVRzem47xtNs5bUm2fG5TLNSLJk_xQEf1G0tqtoH7S9NPslh154__xR4B9Q4ENIgJbYPpFttrVxkDipWm9f0UZ5Vl3kFru7qqmXqHuVUxDYT9-h-TMEqMqgp7gXIXcr3dyt2jY7xo3OYVbARXjUle00MsYak9L-Fkf7yi07kCXc01bIbAhrMes1LH0OFXrB1OQ-TZ1hPDJr2aWIJ0sjo2wYb_C1Og00AKX6MmlxkQqMTq1MyAF9fKBMz1I4KI0Jx0tQKzqZkV0LPPOiLpFk2t00uss_hFDo-TutaY7fbb2gQjGYyiG4erv4sn4eZD5ZarIrAZ5vwQPNfLaN85QJ7pIA29eberP5wd7288C9UK-2HKAh6CYWIZoNSmaGR8ROml744eLxG2gald8rIfSa-KcIrED126VvfpiQrXFY1Pqe-u1lxaStRMxNcM5PQttCn04AcZ4p741xLfMCgyWkqtq2KbFXA5qg28U_JkoPY8sm2essKbXPss-xtbu7aK8aI0nZMlOkx96tLhbd97gmfd-nQnND6bNismTcMG9H_YPIRHUAuUYLCwBWJsQ_jV55qnM2XA_tqQG-Br7GUmLCklPzSM3pbvA2eGtTDf5cbaJlAFFDhU1_VXiTNY-XwBobBex7-v5YssDJv0shUIR2X0IK2HYlX1n1arrvTt4lAeX3VxcMVLJyMt9bkmCLBZwMy96iL0q6Gxu0j3O0lnJz-ZmwBXxF0KI9ws9-g7qBsLRbAGo1auoWJPhtOm6tEWC0-2XT9UGQUROjTcjM0X-P_rfy_hSFRN6mpRthnw3_4ej96hbNXsxlHyMIVoh9Z_Lj4e-EUvyaSHzGCk9tm_P9Sn45fFT6kZGtdVwV3A-xfooWL1HPgzfVGwAhQO-vdRD_mi0]--></g></svg>