<?xml version="1.0" encoding="us-ascii" standalone="no"?><svg xmlns="http://www.w3.org/2000/svg" xmlns:xlink="http://www.w3.org/1999/xlink" contentStyleType="text/css" height="357px" preserveAspectRatio="none" style="width:1493px;height:357px;background:#FFFFFF;" version="1.1" viewBox="0 0 1493 357" width="1493px" zoomAndPan="magnify"><defs/><g><rect fill="#F1F1F1" height="101.4844" rx="5" ry="5" style="stroke:#F1F1F1;stroke-width:1.5;" width="416" x="10" y="160.7578"/><text fill="#000000" font-family="sans-serif" font-size="14" font-weight="bold" lengthAdjust="spacing" textLength="72" x="15" y="175.7529">$schema</text><text fill="#000000" font-family="sans-serif" font-size="14" lengthAdjust="spacing" textLength="304" x="117" y="175.7529">http://json-schema.org/draft-07/schema#</text><line style="stroke:#000000;stroke-width:1.0;" x1="112" x2="112" y1="160.7578" y2="181.0547"/><line style="stroke:#000000;stroke-width:1.0;" x1="10" x2="426" y1="181.0547" y2="181.0547"/><text fill="#000000" font-family="sans-serif" font-size="14" font-weight="bold" lengthAdjust="spacing" textLength="36" x="15" y="196.0498">type</text><text fill="#000000" font-family="sans-serif" font-size="14" lengthAdjust="spacing" textLength="47" x="117" y="196.0498">object</text><line style="stroke:#000000;stroke-width:1.0;" x1="112" x2="112" y1="181.0547" y2="201.3516"/><line style="stroke:#000000;stroke-width:1.0;" x1="10" x2="426" y1="201.3516" y2="201.3516"/><text fill="#000000" font-family="sans-serif" font-size="14" font-weight="bold" lengthAdjust="spacing" textLength="35" x="15" y="216.3467">title</text><text fill="#000000" font-family="sans-serif" font-size="14" lengthAdjust="spacing" textLength="53" x="117" y="216.3467">Service</text><line style="stroke:#000000;stroke-width:1.0;" x1="112" x2="112" y1="201.3516" y2="221.6484"/><line style="stroke:#000000;stroke-width:1.0;" x1="10" x2="426" y1="221.6484" y2="221.6484"/><text fill="#000000" font-family="sans-serif" font-size="14" font-weight="bold" lengthAdjust="spacing" textLength="92" x="15" y="236.6436">description</text><text fill="#000000" font-family="sans-serif" font-size="14" lengthAdjust="spacing" textLength="136" x="117" y="236.6436">Service flavor type</text><line style="stroke:#000000;stroke-width:1.0;" x1="112" x2="112" y1="221.6484" y2="241.9453"/><line style="stroke:#000000;stroke-width:1.0;" x1="10" x2="426" y1="241.9453" y2="241.9453"/><text fill="#000000" font-family="sans-serif" font-size="14" font-weight="bold" lengthAdjust="spacing" textLength="84" x="15" y="256.9404">properties</text><text fill="#000000" font-family="sans-serif" font-size="14" lengthAdjust="spacing" textLength="12" x="117" y="256.9404">&#160;&#160;&#160;</text><line style="stroke:#000000;stroke-width:1.0;" x1="112" x2="112" y1="241.9453" y2="262.2422"/><rect fill="none" height="101.4844" rx="5" ry="5" style="stroke:#000000;stroke-width:1.5;" width="416" x="10" y="160.7578"/><rect fill="#F1F1F1" height="40.5938" rx="5" ry="5" style="stroke:#F1F1F1;stroke-width:1.5;" width="157" x="463" y="232"/><text fill="#000000" font-family="sans-serif" font-size="14" font-weight="bold" lengthAdjust="spacing" textLength="125" x="468" y="246.9951">Characteristics</text><text fill="#000000" font-family="sans-serif" font-size="14" lengthAdjust="spacing" textLength="12" x="603" y="246.9951">&#160;&#160;&#160;</text><line style="stroke:#000000;stroke-width:1.0;" x1="598" x2="598" y1="232" y2="252.2969"/><line style="stroke:#000000;stroke-width:1.0;" x1="463" x2="620" y1="252.2969" y2="252.2969"/><text fill="#000000" font-family="sans-serif" font-size="14" font-weight="bold" lengthAdjust="spacing" textLength="97" x="468" y="267.292">ServiceType</text><text fill="#000000" font-family="sans-serif" font-size="14" lengthAdjust="spacing" textLength="12" x="603" y="267.292">&#160;&#160;&#160;</text><line style="stroke:#000000;stroke-width:1.0;" x1="598" x2="598" y1="252.2969" y2="272.5938"/><rect fill="none" height="40.5938" rx="5" ry="5" style="stroke:#000000;stroke-width:1.5;" width="157" x="463" y="232"/><rect fill="#F1F1F1" height="40.5938" rx="5" ry="5" style="stroke:#F1F1F1;stroke-width:1.5;" width="151" x="657" y="196"/><text fill="#000000" font-family="sans-serif" font-size="14" font-weight="bold" lengthAdjust="spacing" textLength="36" x="662" y="210.9951">type</text><text fill="#000000" font-family="sans-serif" font-size="14" lengthAdjust="spacing" textLength="47" x="756" y="210.9951">object</text><line style="stroke:#000000;stroke-width:1.0;" x1="751" x2="751" y1="196" y2="216.2969"/><line style="stroke:#000000;stroke-width:1.0;" x1="657" x2="808" y1="216.2969" y2="216.2969"/><text fill="#000000" font-family="sans-serif" font-size="14" font-weight="bold" lengthAdjust="spacing" textLength="84" x="662" y="231.292">properties</text><text fill="#000000" font-family="sans-serif" font-size="14" lengthAdjust="spacing" textLength="12" x="756" y="231.292">&#160;&#160;&#160;</text><line style="stroke:#000000;stroke-width:1.0;" x1="751" x2="751" y1="216.2969" y2="236.5938"/><rect fill="none" height="40.5938" rx="5" ry="5" style="stroke:#000000;stroke-width:1.5;" width="151" x="657" y="196"/><rect fill="#F1F1F1" height="101.4844" rx="5" ry="5" style="stroke:#F1F1F1;stroke-width:1.5;" width="125" x="845" y="131.7578"/><text fill="#000000" font-family="sans-serif" font-size="14" font-weight="bold" lengthAdjust="spacing" textLength="45" x="850" y="146.7529">Name</text><text fill="#000000" font-family="sans-serif" font-size="14" lengthAdjust="spacing" textLength="12" x="953" y="146.7529">&#160;&#160;&#160;</text><line style="stroke:#000000;stroke-width:1.0;" x1="948" x2="948" y1="131.7578" y2="152.0547"/><line style="stroke:#000000;stroke-width:1.0;" x1="845" x2="970" y1="152.0547" y2="152.0547"/><text fill="#000000" font-family="sans-serif" font-size="14" font-weight="bold" lengthAdjust="spacing" textLength="93" x="850" y="167.0498">Description</text><text fill="#000000" font-family="sans-serif" font-size="14" lengthAdjust="spacing" textLength="12" x="953" y="167.0498">&#160;&#160;&#160;</text><line style="stroke:#000000;stroke-width:1.0;" x1="948" x2="948" y1="152.0547" y2="172.3516"/><line style="stroke:#000000;stroke-width:1.0;" x1="845" x2="970" y1="172.3516" y2="172.3516"/><text fill="#000000" font-family="sans-serif" font-size="14" font-weight="bold" lengthAdjust="spacing" textLength="40" x="850" y="187.3467">Tags</text><text fill="#000000" font-family="sans-serif" font-size="14" lengthAdjust="spacing" textLength="12" x="953" y="187.3467">&#160;&#160;&#160;</text><line style="stroke:#000000;stroke-width:1.0;" x1="948" x2="948" y1="172.3516" y2="192.6484"/><line style="stroke:#000000;stroke-width:1.0;" x1="845" x2="970" y1="192.6484" y2="192.6484"/><text fill="#000000" font-family="sans-serif" font-size="14" font-weight="bold" lengthAdjust="spacing" textLength="35" x="850" y="207.6436">Plan</text><text fill="#000000" font-family="sans-serif" font-size="14" lengthAdjust="spacing" textLength="12" x="953" y="207.6436">&#160;&#160;&#160;</text><line style="stroke:#000000;stroke-width:1.0;" x1="948" x2="948" y1="192.6484" y2="212.9453"/><line style="stroke:#000000;stroke-width:1.0;" x1="845" x2="970" y1="212.9453" y2="212.9453"/><text fill="#000000" font-family="sans-serif" font-size="14" font-weight="bold" lengthAdjust="spacing" textLength="64" x="850" y="227.9404">Latency</text><text fill="#000000" font-family="sans-serif" font-size="14" lengthAdjust="spacing" textLength="12" x="953" y="227.9404">&#160;&#160;&#160;</text><line style="stroke:#000000;stroke-width:1.0;" x1="948" x2="948" y1="212.9453" y2="233.2422"/><rect fill="none" height="101.4844" rx="5" ry="5" style="stroke:#000000;stroke-width:1.5;" width="125" x="845" y="131.7578"/><rect fill="#F1F1F1" height="40.5938" rx="5" ry="5" style="stroke:#F1F1F1;stroke-width:1.5;" width="251" x="1051" y="10"/><text fill="#000000" font-family="sans-serif" font-size="14" font-weight="bold" lengthAdjust="spacing" textLength="36" x="1056" y="24.9951">type</text><text fill="#000000" font-family="sans-serif" font-size="14" lengthAdjust="spacing" textLength="42" x="1158" y="24.9951">string</text><line style="stroke:#000000;stroke-width:1.0;" x1="1153" x2="1153" y1="10" y2="30.2969"/><line style="stroke:#000000;stroke-width:1.0;" x1="1051" x2="1302" y1="30.2969" y2="30.2969"/><text fill="#000000" font-family="sans-serif" font-size="14" font-weight="bold" lengthAdjust="spacing" textLength="92" x="1056" y="45.292">description</text><text fill="#000000" font-family="sans-serif" font-size="14" lengthAdjust="spacing" textLength="139" x="1158" y="45.292">Name of the flavor.</text><line style="stroke:#000000;stroke-width:1.0;" x1="1153" x2="1153" y1="30.2969" y2="50.5938"/><rect fill="none" height="40.5938" rx="5" ry="5" style="stroke:#000000;stroke-width:1.5;" width="251" x="1051" y="10"/><rect fill="#F1F1F1" height="40.5938" rx="5" ry="5" style="stroke:#F1F1F1;stroke-width:1.5;" width="294" x="1029.5" y="69"/><text fill="#000000" font-family="sans-serif" font-size="14" font-weight="bold" lengthAdjust="spacing" textLength="36" x="1034.5" y="83.9951">type</text><text fill="#000000" font-family="sans-serif" font-size="14" lengthAdjust="spacing" textLength="42" x="1136.5" y="83.9951">string</text><line style="stroke:#000000;stroke-width:1.0;" x1="1131.5" x2="1131.5" y1="69" y2="89.2969"/><line style="stroke:#000000;stroke-width:1.0;" x1="1029.5" x2="1323.5" y1="89.2969" y2="89.2969"/><text fill="#000000" font-family="sans-serif" font-size="14" font-weight="bold" lengthAdjust="spacing" textLength="92" x="1034.5" y="104.292">description</text><text fill="#000000" font-family="sans-serif" font-size="14" lengthAdjust="spacing" textLength="182" x="1136.5" y="104.292">Description of the flavor.</text><line style="stroke:#000000;stroke-width:1.0;" x1="1131.5" x2="1131.5" y1="89.2969" y2="109.5938"/><rect fill="none" height="40.5938" rx="5" ry="5" style="stroke:#000000;stroke-width:1.5;" width="294" x="1029.5" y="69"/><rect fill="#F1F1F1" height="60.8906" rx="5" ry="5" style="stroke:#F1F1F1;stroke-width:1.5;" width="339" x="1007" y="128"/><text fill="#000000" font-family="sans-serif" font-size="14" font-weight="bold" lengthAdjust="spacing" textLength="36" x="1012" y="142.9951">type</text><text fill="#000000" font-family="sans-serif" font-size="14" lengthAdjust="spacing" textLength="36" x="1114" y="142.9951">array</text><line style="stroke:#000000;stroke-width:1.0;" x1="1109" x2="1109" y1="128" y2="148.2969"/><line style="stroke:#000000;stroke-width:1.0;" x1="1007" x2="1346" y1="148.2969" y2="148.2969"/><text fill="#000000" font-family="sans-serif" font-size="14" font-weight="bold" lengthAdjust="spacing" textLength="46" x="1012" y="163.292">items</text><text fill="#000000" font-family="sans-serif" font-size="14" lengthAdjust="spacing" textLength="12" x="1114" y="163.292">&#160;&#160;&#160;</text><line style="stroke:#000000;stroke-width:1.0;" x1="1109" x2="1109" y1="148.2969" y2="168.5938"/><line style="stroke:#000000;stroke-width:1.0;" x1="1007" x2="1346" y1="168.5938" y2="168.5938"/><text fill="#000000" font-family="sans-serif" font-size="14" font-weight="bold" lengthAdjust="spacing" textLength="92" x="1012" y="183.5889">description</text><text fill="#000000" font-family="sans-serif" font-size="14" lengthAdjust="spacing" textLength="227" x="1114" y="183.5889">Tags associated with the flavor.</text><line style="stroke:#000000;stroke-width:1.0;" x1="1109" x2="1109" y1="168.5938" y2="188.8906"/><rect fill="none" height="60.8906" rx="5" ry="5" style="stroke:#000000;stroke-width:1.5;" width="339" x="1007" y="128"/><rect fill="#F1F1F1" height="20.2969" rx="5" ry="5" style="stroke:#F1F1F1;stroke-width:1.5;" width="98" x="1383" y="148.3516"/><text fill="#000000" font-family="sans-serif" font-size="14" font-weight="bold" lengthAdjust="spacing" textLength="36" x="1388" y="163.3467">type</text><text fill="#000000" font-family="sans-serif" font-size="14" lengthAdjust="spacing" textLength="42" x="1434" y="163.3467">string</text><line style="stroke:#000000;stroke-width:1.0;" x1="1429" x2="1429" y1="148.3516" y2="168.6484"/><rect fill="none" height="20.2969" rx="5" ry="5" style="stroke:#000000;stroke-width:1.5;" width="98" x="1383" y="148.3516"/><rect fill="#F1F1F1" height="40.5938" rx="5" ry="5" style="stroke:#F1F1F1;stroke-width:1.5;" width="240" x="1056.5" y="207"/><text fill="#000000" font-family="sans-serif" font-size="14" font-weight="bold" lengthAdjust="spacing" textLength="36" x="1061.5" y="221.9951">type</text><text fill="#000000" font-family="sans-serif" font-size="14" lengthAdjust="spacing" textLength="42" x="1163.5" y="221.9951">string</text><line style="stroke:#000000;stroke-width:1.0;" x1="1158.5" x2="1158.5" y1="207" y2="227.2969"/><line style="stroke:#000000;stroke-width:1.0;" x1="1056.5" x2="1296.5" y1="227.2969" y2="227.2969"/><text fill="#000000" font-family="sans-serif" font-size="14" font-weight="bold" lengthAdjust="spacing" textLength="92" x="1061.5" y="242.292">description</text><text fill="#000000" font-family="sans-serif" font-size="14" lengthAdjust="spacing" textLength="128" x="1163.5" y="242.292">Plan of the flavor.</text><line style="stroke:#000000;stroke-width:1.0;" x1="1158.5" x2="1158.5" y1="227.2969" y2="247.5938"/><rect fill="none" height="40.5938" rx="5" ry="5" style="stroke:#000000;stroke-width:1.5;" width="240" x="1056.5" y="207"/><rect fill="#F1F1F1" height="40.5938" rx="5" ry="5" style="stroke:#F1F1F1;stroke-width:1.5;" width="296" x="1028.5" y="266"/><text fill="#000000" font-family="sans-serif" font-size="14" font-weight="bold" lengthAdjust="spacing" textLength="36" x="1033.5" y="280.9951">type</text><text fill="#000000" font-family="sans-serif" font-size="14" lengthAdjust="spacing" textLength="53" x="1135.5" y="280.9951">integer</text><line style="stroke:#000000;stroke-width:1.0;" x1="1130.5" x2="1130.5" y1="266" y2="286.2969"/><line style="stroke:#000000;stroke-width:1.0;" x1="1028.5" x2="1324.5" y1="286.2969" y2="286.2969"/><text fill="#000000" font-family="sans-serif" font-size="14" font-weight="bold" lengthAdjust="spacing" textLength="92" x="1033.5" y="301.292">description</text><text fill="#000000" font-family="sans-serif" font-size="14" lengthAdjust="spacing" textLength="184" x="1135.5" y="301.292">The latency of the Flavor.</text><line style="stroke:#000000;stroke-width:1.0;" x1="1130.5" x2="1130.5" y1="286.2969" y2="306.5938"/><rect fill="none" height="40.5938" rx="5" ry="5" style="stroke:#000000;stroke-width:1.5;" width="296" x="1028.5" y="266"/><rect fill="#F1F1F1" height="20.2969" rx="5" ry="5" style="stroke:#F1F1F1;stroke-width:1.5;" width="80" x="692.5" y="277.3516"/><text fill="#000000" font-family="sans-serif" font-size="14" font-weight="bold" lengthAdjust="spacing" textLength="48" x="697.5" y="292.3467">oneOf</text><text fill="#000000" font-family="sans-serif" font-size="14" lengthAdjust="spacing" textLength="12" x="755.5" y="292.3467">&#160;&#160;&#160;</text><line style="stroke:#000000;stroke-width:1.0;" x1="750.5" x2="750.5" y1="277.3516" y2="297.6484"/><rect fill="none" height="20.2969" rx="5" ry="5" style="stroke:#000000;stroke-width:1.5;" width="80" x="692.5" y="277.3516"/><rect fill="#F1F1F1" height="20.2969" rx="5" ry="5" style="stroke:#F1F1F1;stroke-width:1.5;" width="22" x="896.5" y="300.3516"/><text fill="#000000" font-family="sans-serif" font-size="14" lengthAdjust="spacing" textLength="12" x="901.5" y="315.3467">&#160;&#160;&#160;</text><rect fill="none" height="20.2969" rx="5" ry="5" style="stroke:#000000;stroke-width:1.5;" width="22" x="896.5" y="300.3516"/><rect fill="#F1F1F1" height="20.2969" rx="5" ry="5" style="stroke:#F1F1F1;stroke-width:1.5;" width="209" x="1072" y="325.3516"/><text fill="#000000" font-family="sans-serif" font-size="14" font-weight="bold" lengthAdjust="spacing" textLength="33" x="1077" y="340.3467">$ref</text><text fill="#000000" font-family="sans-serif" font-size="14" lengthAdjust="spacing" textLength="156" x="1120" y="340.3467">service-types/db.json</text><line style="stroke:#000000;stroke-width:1.0;" x1="1115" x2="1115" y1="325.3516" y2="345.6484"/><rect fill="none" height="20.2969" rx="5" ry="5" style="stroke:#000000;stroke-width:1.5;" width="209" x="1072" y="325.3516"/><path d="M958,141.5 L971,141.5 C1010.802,141.5 975.643,84.0139 1007,59.5 C1017.9825,50.9142 1030.602,44.4991 1043.8921,39.7479 " fill="none" style="stroke:#000000;stroke-width:1.0;stroke-dasharray:3.0,3.0;"/><path d="M1044.8807,42.7264 L1046.126,39.0064 L1042.9035,36.7694 L1051.3383,37.2762 L1044.8807,42.7264 " fill="#000000" style="stroke:#000000;stroke-width:1.0;"/><ellipse cx="958" cy="141.5" fill="#000000" rx="3" ry="3" style="stroke:#000000;stroke-width:1.0;"/><path d="M958,162.5 L971,162.5 C996.267,162.5 985.1677,131.2189 1007,118.5 C1012.0641,115.5498 1017.3488,112.8819 1022.7903,110.4702 " fill="none" style="stroke:#000000;stroke-width:1.0;stroke-dasharray:3.0,3.0;"/><path d="M1023.9581,113.2588 L1024.8817,109.5943 L1021.6224,107.6816 L1029.7618,107.5505 L1023.9581,113.2588 " fill="#000000" style="stroke:#000000;stroke-width:1.0;"/><ellipse cx="958" cy="162.5" fill="#000000" rx="3" ry="3" style="stroke:#000000;stroke-width:1.0;"/><path d="M1334,158.5 L1347,158.5 C1356.2605,158.5 1366.0919,158.5 1375.6496,158.5 " fill="none" style="stroke:#000000;stroke-width:1.0;stroke-dasharray:3.0,3.0;"/><path d="M1375.6496,161.5361 L1377.9267,158.5 L1375.6496,155.4639 L1383.2398,158.5 L1375.6496,161.5361 " fill="#000000" style="stroke:#000000;stroke-width:1.0;"/><ellipse cx="1334" cy="158.5" fill="#000000" rx="3" ry="3" style="stroke:#000000;stroke-width:1.0;"/><path d="M958,182.5 L971,182.5 C980.3307,182.5 989.8841,182.2517 999.5185,181.8056 " fill="none" style="stroke:#000000;stroke-width:1.0;stroke-dasharray:3.0,3.0;"/><path d="M999.6782,184.9021 L1001.8409,181.6858 L999.3588,178.7091 L1007.2597,181.4064 L999.6782,184.9021 " fill="#000000" style="stroke:#000000;stroke-width:1.0;"/><ellipse cx="958" cy="182.5" fill="#000000" rx="3" ry="3" style="stroke:#000000;stroke-width:1.0;"/><path d="M958,202.5 L971,202.5 C996.3719,202.5 1023.3812,204.4103 1049.1838,207.1747 " fill="none" style="stroke:#000000;stroke-width:1.0;stroke-dasharray:3.0,3.0;"/><path d="M1048.8468,210.2159 L1051.4648,207.4275 L1049.5209,204.1334 L1056.787,208.0173 L1048.8468,210.2159 " fill="#000000" style="stroke:#000000;stroke-width:1.0;"/><ellipse cx="958" cy="202.5" fill="#000000" rx="3" ry="3" style="stroke:#000000;stroke-width:1.0;"/><path d="M958,223.5 L971,223.5 C993.0079,223.5 987.313,247.6629 1007,257.5 C1011.6519,259.8244 1016.4558,261.9667 1021.3694,263.9408 " fill="none" style="stroke:#000000;stroke-width:1.0;stroke-dasharray:3.0,3.0;"/><path d="M1020.26,266.8498 L1023.5512,264.7728 L1022.4788,261.0318 L1028.6419,266.7144 L1020.26,266.8498 " fill="#000000" style="stroke:#000000;stroke-width:1.0;"/><ellipse cx="958" cy="223.5" fill="#000000" rx="3" ry="3" style="stroke:#000000;stroke-width:1.0;"/><path d="M796,226.5 L809,226.5 C818.7345,226.5 828.5733,224.6709 838.0694,221.7586 " fill="none" style="stroke:#000000;stroke-width:1.0;stroke-dasharray:3.0,3.0;"/><path d="M839.0397,224.6336 L840.2256,221.0308 L837.099,218.8836 L845.2568,219.3327 L839.0397,224.6336 " fill="#000000" style="stroke:#000000;stroke-width:1.0;"/><ellipse cx="796" cy="226.5" fill="#000000" rx="3" ry="3" style="stroke:#000000;stroke-width:1.0;"/><path d="M608,242.5 L621,242.5 C633.4917,242.5 646.5706,240.9197 659.188,238.5383 " fill="none" style="stroke:#000000;stroke-width:1.0;stroke-dasharray:3.0,3.0;"/><path d="M659.7836,241.4854 L661.3983,238.0917 L658.5925,235.5913 L666.5557,237.0495 L659.7836,241.4854 " fill="#000000" style="stroke:#000000;stroke-width:1.0;"/><ellipse cx="608" cy="242.5" fill="#000000" rx="3" ry="3" style="stroke:#000000;stroke-width:1.0;"/><path d="M906.2306,310.3349 L919.1744,311.5424 C944.2511,313.8816 1007.309,319.7639 1064.6623,325.114 " fill="none" style="stroke:#000000;stroke-width:1.0;stroke-dasharray:3.0,3.0;"/><path d="M1064.3755,328.1887 L1066.9683,325.3291 L1064.9491,322.0393 L1072.349,325.8311 L1064.3755,328.1887 " fill="#000000" style="stroke:#000000;stroke-width:1.0;"/><ellipse cx="906.2306" cy="310.3349" fill="#000000" rx="3" ry="3" style="stroke:#000000;stroke-width:1.0;"/><path d="M761,287.5 L774,287.5 C815.8663,287.5 864.0759,298.7027 889.3827,305.4712 " fill="none" style="stroke:#000000;stroke-width:1.0;stroke-dasharray:3.0,3.0;"/><path d="M888.5739,308.4211 L891.5951,306.0778 L890.1915,302.5213 L896.7574,307.4932 L888.5739,308.4211 " fill="#000000" style="stroke:#000000;stroke-width:1.0;"/><ellipse cx="761" cy="287.5" fill="#000000" rx="3" ry="3" style="stroke:#000000;stroke-width:1.0;"/><path d="M608,262.5 L621,262.5 C646.4451,262.5 674.3869,268.8296 695.8707,275.119 " fill="none" style="stroke:#000000;stroke-width:1.0;stroke-dasharray:3.0,3.0;"/><path d="M694.9857,278.045 L698.0652,275.7828 L696.7557,272.193 L703.1858,277.3315 L694.9857,278.045 " fill="#000000" style="stroke:#000000;stroke-width:1.0;"/><ellipse cx="608" cy="262.5" fill="#000000" rx="3" ry="3" style="stroke:#000000;stroke-width:1.0;"/><path d="M414,252.5 L427,252.5 C436.292,252.5 446.0101,252.5 455.6854,252.5 " fill="none" style="stroke:#000000;stroke-width:1.0;stroke-dasharray:3.0,3.0;"/><path d="M455.6854,255.5965 L458.0078,252.5 L455.6854,249.4035 L463.4267,252.5 L455.6854,255.5965 " fill="#000000" style="stroke:#000000;stroke-width:1.0;"/><ellipse cx="414" cy="252.5" fill="#000000" rx="3" ry="3" style="stroke:#000000;stroke-width:1.0;"/><!--SRC=[hLJBRjim4BppAnPg3ZPGIMbWf8LFGVDe4TXjKCkv53tGqafYAf42kN9W5Fxtab9b-2Ku3Q8RPtQ7CroHLuQufYUZ9Fl3m7xUcObpBBat1YydgiPXw5Y_HGEbip3HF2N__6FOOk-yzsqdhIfqRMhnX35jK4550yzGBqMC7PwWYRMeI2YvnK9QyANIq6Zzgwoqgb2JG6CBMvSDVfrppMD2BGo9U9ViDxHXUsGt_3TUub5cHzkG5ZBRqzvKxOLqag1IeBmB6dW7ZUj3BUzcH-SjBMqflyfPn3DpsXBNcg_w70d2ib_ZMBIZXUkN1NQ6WHkZOi494tWMbFz_x8U2l_KadEIhHZ2nEMIyEcr7IC8CzGlzHDP7qKftjkvwRR7ZgosxtGsFMZDxLrL9_9vQ-EU1T4-cCurfSyIjgkyocZ1P1EwrEcNm5zl5rspDhb0cpJl8t21eFft04hLnz-93S75-CGf62oH-EPZBtr8zIuXLMOa2WKI9GpRuyZ01esfjtx14kC4lQdUIGtRFbnn-rDBLZS6j1j5q2BFR3eHRkHHQoH8biVl7QLi4NnNDAaLDyUN8_om8t16YXiSfky6KrmNPrbWbzXyRmpowyp-n2PTPpJEx4KfshUm6UcMvsLy0]--></g></svg>