<?xml version="1.0" encoding="us-ascii" standalone="no"?><svg xmlns="http://www.w3.org/2000/svg" xmlns:xlink="http://www.w3.org/1999/xlink" contentStyleType="text/css" height="436px" preserveAspectRatio="none" style="width:2243px;height:436px;background:#FFFFFF;" version="1.1" viewBox="0 0 2243 436" width="2243px" zoomAndPan="magnify"><defs/><g><rect fill="#F1F1F1" height="101.4844" rx="5" ry="5" style="stroke:#F1F1F1;stroke-width:1.5;" width="416" x="10" y="197.7578"/><text fill="#000000" font-family="sans-serif" font-size="14" font-weight="bold" lengthAdjust="spacing" textLength="72" x="15" y="212.7529">$schema</text><text fill="#000000" font-family="sans-serif" font-size="14" lengthAdjust="spacing" textLength="304" x="117" y="212.7529">http://json-schema.org/draft-07/schema#</text><line style="stroke:#000000;stroke-width:1.0;" x1="112" x2="112" y1="197.7578" y2="218.0547"/><line style="stroke:#000000;stroke-width:1.0;" x1="10" x2="426" y1="218.0547" y2="218.0547"/><text fill="#000000" font-family="sans-serif" font-size="14" font-weight="bold" lengthAdjust="spacing" textLength="36" x="15" y="233.0498">type</text><text fill="#000000" font-family="sans-serif" font-size="14" lengthAdjust="spacing" textLength="47" x="117" y="233.0498">object</text><line style="stroke:#000000;stroke-width:1.0;" x1="112" x2="112" y1="218.0547" y2="238.3516"/><line style="stroke:#000000;stroke-width:1.0;" x1="10" x2="426" y1="238.3516" y2="238.3516"/><text fill="#000000" font-family="sans-serif" font-size="14" font-weight="bold" lengthAdjust="spacing" textLength="35" x="15" y="253.3467">title</text><text fill="#000000" font-family="sans-serif" font-size="14" lengthAdjust="spacing" textLength="53" x="117" y="253.3467">Service</text><line style="stroke:#000000;stroke-width:1.0;" x1="112" x2="112" y1="238.3516" y2="258.6484"/><line style="stroke:#000000;stroke-width:1.0;" x1="10" x2="426" y1="258.6484" y2="258.6484"/><text fill="#000000" font-family="sans-serif" font-size="14" font-weight="bold" lengthAdjust="spacing" textLength="92" x="15" y="273.6436">description</text><text fill="#000000" font-family="sans-serif" font-size="14" lengthAdjust="spacing" textLength="136" x="117" y="273.6436">Service flavor type</text><line style="stroke:#000000;stroke-width:1.0;" x1="112" x2="112" y1="258.6484" y2="278.9453"/><line style="stroke:#000000;stroke-width:1.0;" x1="10" x2="426" y1="278.9453" y2="278.9453"/><text fill="#000000" font-family="sans-serif" font-size="14" font-weight="bold" lengthAdjust="spacing" textLength="84" x="15" y="293.9404">properties</text><text fill="#000000" font-family="sans-serif" font-size="14" lengthAdjust="spacing" textLength="12" x="117" y="293.9404">&#160;&#160;&#160;</text><line style="stroke:#000000;stroke-width:1.0;" x1="112" x2="112" y1="278.9453" y2="299.2422"/><rect fill="none" height="101.4844" rx="5" ry="5" style="stroke:#000000;stroke-width:1.5;" width="416" x="10" y="197.7578"/><rect fill="#F1F1F1" height="40.5938" rx="5" ry="5" style="stroke:#F1F1F1;stroke-width:1.5;" width="157" x="463" y="269"/><text fill="#000000" font-family="sans-serif" font-size="14" font-weight="bold" lengthAdjust="spacing" textLength="125" x="468" y="283.9951">Characteristics</text><text fill="#000000" font-family="sans-serif" font-size="14" lengthAdjust="spacing" textLength="12" x="603" y="283.9951">&#160;&#160;&#160;</text><line style="stroke:#000000;stroke-width:1.0;" x1="598" x2="598" y1="269" y2="289.2969"/><line style="stroke:#000000;stroke-width:1.0;" x1="463" x2="620" y1="289.2969" y2="289.2969"/><text fill="#000000" font-family="sans-serif" font-size="14" font-weight="bold" lengthAdjust="spacing" textLength="97" x="468" y="304.292">ServiceType</text><text fill="#000000" font-family="sans-serif" font-size="14" lengthAdjust="spacing" textLength="12" x="603" y="304.292">&#160;&#160;&#160;</text><line style="stroke:#000000;stroke-width:1.0;" x1="598" x2="598" y1="289.2969" y2="309.5938"/><rect fill="none" height="40.5938" rx="5" ry="5" style="stroke:#000000;stroke-width:1.5;" width="157" x="463" y="269"/><rect fill="#F1F1F1" height="40.5938" rx="5" ry="5" style="stroke:#F1F1F1;stroke-width:1.5;" width="151" x="913.5" y="229"/><text fill="#000000" font-family="sans-serif" font-size="14" font-weight="bold" lengthAdjust="spacing" textLength="36" x="918.5" y="243.9951">type</text><text fill="#000000" font-family="sans-serif" font-size="14" lengthAdjust="spacing" textLength="47" x="1012.5" y="243.9951">object</text><line style="stroke:#000000;stroke-width:1.0;" x1="1007.5" x2="1007.5" y1="229" y2="249.2969"/><line style="stroke:#000000;stroke-width:1.0;" x1="913.5" x2="1064.5" y1="249.2969" y2="249.2969"/><text fill="#000000" font-family="sans-serif" font-size="14" font-weight="bold" lengthAdjust="spacing" textLength="84" x="918.5" y="264.292">properties</text><text fill="#000000" font-family="sans-serif" font-size="14" lengthAdjust="spacing" textLength="12" x="1012.5" y="264.292">&#160;&#160;&#160;</text><line style="stroke:#000000;stroke-width:1.0;" x1="1007.5" x2="1007.5" y1="249.2969" y2="269.5938"/><rect fill="none" height="40.5938" rx="5" ry="5" style="stroke:#000000;stroke-width:1.5;" width="151" x="913.5" y="229"/><rect fill="#F1F1F1" height="121.7813" rx="5" ry="5" style="stroke:#F1F1F1;stroke-width:1.5;" width="183" x="1358" y="156.5"/><text fill="#000000" font-family="sans-serif" font-size="14" font-weight="bold" lengthAdjust="spacing" textLength="45" x="1363" y="171.4951">Name</text><text fill="#000000" font-family="sans-serif" font-size="14" lengthAdjust="spacing" textLength="12" x="1524" y="171.4951">&#160;&#160;&#160;</text><line style="stroke:#000000;stroke-width:1.0;" x1="1519" x2="1519" y1="156.5" y2="176.7969"/><line style="stroke:#000000;stroke-width:1.0;" x1="1358" x2="1541" y1="176.7969" y2="176.7969"/><text fill="#000000" font-family="sans-serif" font-size="14" font-weight="bold" lengthAdjust="spacing" textLength="93" x="1363" y="191.792">Description</text><text fill="#000000" font-family="sans-serif" font-size="14" lengthAdjust="spacing" textLength="12" x="1524" y="191.792">&#160;&#160;&#160;</text><line style="stroke:#000000;stroke-width:1.0;" x1="1519" x2="1519" y1="176.7969" y2="197.0938"/><line style="stroke:#000000;stroke-width:1.0;" x1="1358" x2="1541" y1="197.0938" y2="197.0938"/><text fill="#000000" font-family="sans-serif" font-size="14" font-weight="bold" lengthAdjust="spacing" textLength="40" x="1363" y="212.0889">Tags</text><text fill="#000000" font-family="sans-serif" font-size="14" lengthAdjust="spacing" textLength="12" x="1524" y="212.0889">&#160;&#160;&#160;</text><line style="stroke:#000000;stroke-width:1.0;" x1="1519" x2="1519" y1="197.0938" y2="217.3906"/><line style="stroke:#000000;stroke-width:1.0;" x1="1358" x2="1541" y1="217.3906" y2="217.3906"/><text fill="#000000" font-family="sans-serif" font-size="14" font-weight="bold" lengthAdjust="spacing" textLength="35" x="1363" y="232.3857">Plan</text><text fill="#000000" font-family="sans-serif" font-size="14" lengthAdjust="spacing" textLength="12" x="1524" y="232.3857">&#160;&#160;&#160;</text><line style="stroke:#000000;stroke-width:1.0;" x1="1519" x2="1519" y1="217.3906" y2="237.6875"/><line style="stroke:#000000;stroke-width:1.0;" x1="1358" x2="1541" y1="237.6875" y2="237.6875"/><text fill="#000000" font-family="sans-serif" font-size="14" font-weight="bold" lengthAdjust="spacing" textLength="64" x="1363" y="252.6826">Latency</text><text fill="#000000" font-family="sans-serif" font-size="14" lengthAdjust="spacing" textLength="12" x="1524" y="252.6826">&#160;&#160;&#160;</text><line style="stroke:#000000;stroke-width:1.0;" x1="1519" x2="1519" y1="237.6875" y2="257.9844"/><line style="stroke:#000000;stroke-width:1.0;" x1="1358" x2="1541" y1="257.9844" y2="257.9844"/><text fill="#000000" font-family="sans-serif" font-size="14" font-weight="bold" lengthAdjust="spacing" textLength="151" x="1363" y="272.9795">SecurityStandards</text><text fill="#000000" font-family="sans-serif" font-size="14" lengthAdjust="spacing" textLength="12" x="1524" y="272.9795">&#160;&#160;&#160;</text><line style="stroke:#000000;stroke-width:1.0;" x1="1519" x2="1519" y1="257.9844" y2="278.2813"/><rect fill="none" height="121.7813" rx="5" ry="5" style="stroke:#000000;stroke-width:1.5;" width="183" x="1358" y="156.5"/><rect fill="#F1F1F1" height="40.5938" rx="5" ry="5" style="stroke:#F1F1F1;stroke-width:1.5;" width="251" x="1711.5" y="10"/><text fill="#000000" font-family="sans-serif" font-size="14" font-weight="bold" lengthAdjust="spacing" textLength="36" x="1716.5" y="24.9951">type</text><text fill="#000000" font-family="sans-serif" font-size="14" lengthAdjust="spacing" textLength="42" x="1818.5" y="24.9951">string</text><line style="stroke:#000000;stroke-width:1.0;" x1="1813.5" x2="1813.5" y1="10" y2="30.2969"/><line style="stroke:#000000;stroke-width:1.0;" x1="1711.5" x2="1962.5" y1="30.2969" y2="30.2969"/><text fill="#000000" font-family="sans-serif" font-size="14" font-weight="bold" lengthAdjust="spacing" textLength="92" x="1716.5" y="45.292">description</text><text fill="#000000" font-family="sans-serif" font-size="14" lengthAdjust="spacing" textLength="139" x="1818.5" y="45.292">Name of the flavor.</text><line style="stroke:#000000;stroke-width:1.0;" x1="1813.5" x2="1813.5" y1="30.2969" y2="50.5938"/><rect fill="none" height="40.5938" rx="5" ry="5" style="stroke:#000000;stroke-width:1.5;" width="251" x="1711.5" y="10"/><rect fill="#F1F1F1" height="40.5938" rx="5" ry="5" style="stroke:#F1F1F1;stroke-width:1.5;" width="294" x="1690" y="69"/><text fill="#000000" font-family="sans-serif" font-size="14" font-weight="bold" lengthAdjust="spacing" textLength="36" x="1695" y="83.9951">type</text><text fill="#000000" font-family="sans-serif" font-size="14" lengthAdjust="spacing" textLength="42" x="1797" y="83.9951">string</text><line style="stroke:#000000;stroke-width:1.0;" x1="1792" x2="1792" y1="69" y2="89.2969"/><line style="stroke:#000000;stroke-width:1.0;" x1="1690" x2="1984" y1="89.2969" y2="89.2969"/><text fill="#000000" font-family="sans-serif" font-size="14" font-weight="bold" lengthAdjust="spacing" textLength="92" x="1695" y="104.292">description</text><text fill="#000000" font-family="sans-serif" font-size="14" lengthAdjust="spacing" textLength="182" x="1797" y="104.292">Description of the flavor.</text><line style="stroke:#000000;stroke-width:1.0;" x1="1792" x2="1792" y1="89.2969" y2="109.5938"/><rect fill="none" height="40.5938" rx="5" ry="5" style="stroke:#000000;stroke-width:1.5;" width="294" x="1690" y="69"/><rect fill="#F1F1F1" height="60.8906" rx="5" ry="5" style="stroke:#F1F1F1;stroke-width:1.5;" width="339" x="1667.5" y="128"/><text fill="#000000" font-family="sans-serif" font-size="14" font-weight="bold" lengthAdjust="spacing" textLength="36" x="1672.5" y="142.9951">type</text><text fill="#000000" font-family="sans-serif" font-size="14" lengthAdjust="spacing" textLength="36" x="1774.5" y="142.9951">array</text><line style="stroke:#000000;stroke-width:1.0;" x1="1769.5" x2="1769.5" y1="128" y2="148.2969"/><line style="stroke:#000000;stroke-width:1.0;" x1="1667.5" x2="2006.5" y1="148.2969" y2="148.2969"/><text fill="#000000" font-family="sans-serif" font-size="14" font-weight="bold" lengthAdjust="spacing" textLength="92" x="1672.5" y="163.292">description</text><text fill="#000000" font-family="sans-serif" font-size="14" lengthAdjust="spacing" textLength="227" x="1774.5" y="163.292">Tags associated with the flavor.</text><line style="stroke:#000000;stroke-width:1.0;" x1="1769.5" x2="1769.5" y1="148.2969" y2="168.5938"/><line style="stroke:#000000;stroke-width:1.0;" x1="1667.5" x2="2006.5" y1="168.5938" y2="168.5938"/><text fill="#000000" font-family="sans-serif" font-size="14" font-weight="bold" lengthAdjust="spacing" textLength="46" x="1672.5" y="183.5889">items</text><text fill="#000000" font-family="sans-serif" font-size="14" lengthAdjust="spacing" textLength="12" x="1774.5" y="183.5889">&#160;&#160;&#160;</text><line style="stroke:#000000;stroke-width:1.0;" x1="1769.5" x2="1769.5" y1="168.5938" y2="188.8906"/><rect fill="none" height="60.8906" rx="5" ry="5" style="stroke:#000000;stroke-width:1.5;" width="339" x="1667.5" y="128"/><rect fill="#F1F1F1" height="20.2969" rx="5" ry="5" style="stroke:#F1F1F1;stroke-width:1.5;" width="98" x="2133" y="168.3516"/><text fill="#000000" font-family="sans-serif" font-size="14" font-weight="bold" lengthAdjust="spacing" textLength="36" x="2138" y="183.3467">type</text><text fill="#000000" font-family="sans-serif" font-size="14" lengthAdjust="spacing" textLength="42" x="2184" y="183.3467">string</text><line style="stroke:#000000;stroke-width:1.0;" x1="2179" x2="2179" y1="168.3516" y2="188.6484"/><rect fill="none" height="20.2969" rx="5" ry="5" style="stroke:#000000;stroke-width:1.5;" width="98" x="2133" y="168.3516"/><rect fill="#F1F1F1" height="40.5938" rx="5" ry="5" style="stroke:#F1F1F1;stroke-width:1.5;" width="240" x="1717" y="207"/><text fill="#000000" font-family="sans-serif" font-size="14" font-weight="bold" lengthAdjust="spacing" textLength="36" x="1722" y="221.9951">type</text><text fill="#000000" font-family="sans-serif" font-size="14" lengthAdjust="spacing" textLength="42" x="1824" y="221.9951">string</text><line style="stroke:#000000;stroke-width:1.0;" x1="1819" x2="1819" y1="207" y2="227.2969"/><line style="stroke:#000000;stroke-width:1.0;" x1="1717" x2="1957" y1="227.2969" y2="227.2969"/><text fill="#000000" font-family="sans-serif" font-size="14" font-weight="bold" lengthAdjust="spacing" textLength="92" x="1722" y="242.292">description</text><text fill="#000000" font-family="sans-serif" font-size="14" lengthAdjust="spacing" textLength="128" x="1824" y="242.292">Plan of the flavor.</text><line style="stroke:#000000;stroke-width:1.0;" x1="1819" x2="1819" y1="227.2969" y2="247.5938"/><rect fill="none" height="40.5938" rx="5" ry="5" style="stroke:#000000;stroke-width:1.5;" width="240" x="1717" y="207"/><rect fill="#F1F1F1" height="40.5938" rx="5" ry="5" style="stroke:#F1F1F1;stroke-width:1.5;" width="296" x="1689" y="266"/><text fill="#000000" font-family="sans-serif" font-size="14" font-weight="bold" lengthAdjust="spacing" textLength="36" x="1694" y="280.9951">type</text><text fill="#000000" font-family="sans-serif" font-size="14" lengthAdjust="spacing" textLength="53" x="1796" y="280.9951">integer</text><line style="stroke:#000000;stroke-width:1.0;" x1="1791" x2="1791" y1="266" y2="286.2969"/><line style="stroke:#000000;stroke-width:1.0;" x1="1689" x2="1985" y1="286.2969" y2="286.2969"/><text fill="#000000" font-family="sans-serif" font-size="14" font-weight="bold" lengthAdjust="spacing" textLength="92" x="1694" y="301.292">description</text><text fill="#000000" font-family="sans-serif" font-size="14" lengthAdjust="spacing" textLength="184" x="1796" y="301.292">The latency of the Flavor.</text><line style="stroke:#000000;stroke-width:1.0;" x1="1791" x2="1791" y1="286.2969" y2="306.5938"/><rect fill="none" height="40.5938" rx="5" ry="5" style="stroke:#000000;stroke-width:1.5;" width="296" x="1689" y="266"/><rect fill="#F1F1F1" height="60.8906" rx="5" ry="5" style="stroke:#F1F1F1;stroke-width:1.5;" width="518" x="1578" y="325"/><text fill="#000000" font-family="sans-serif" font-size="14" font-weight="bold" lengthAdjust="spacing" textLength="36" x="1583" y="339.9951">type</text><text fill="#000000" font-family="sans-serif" font-size="14" lengthAdjust="spacing" textLength="36" x="1685" y="339.9951">array</text><line style="stroke:#000000;stroke-width:1.0;" x1="1680" x2="1680" y1="325" y2="345.2969"/><line style="stroke:#000000;stroke-width:1.0;" x1="1578" x2="2096" y1="345.2969" y2="345.2969"/><text fill="#000000" font-family="sans-serif" font-size="14" font-weight="bold" lengthAdjust="spacing" textLength="92" x="1583" y="360.292">description</text><text fill="#000000" font-family="sans-serif" font-size="14" lengthAdjust="spacing" textLength="406" x="1685" y="360.292">Security standards supported by the Flavor (e.g., GDPR).</text><line style="stroke:#000000;stroke-width:1.0;" x1="1680" x2="1680" y1="345.2969" y2="365.5938"/><line style="stroke:#000000;stroke-width:1.0;" x1="1578" x2="2096" y1="365.5938" y2="365.5938"/><text fill="#000000" font-family="sans-serif" font-size="14" font-weight="bold" lengthAdjust="spacing" textLength="46" x="1583" y="380.5889">items</text><text fill="#000000" font-family="sans-serif" font-size="14" lengthAdjust="spacing" textLength="12" x="1685" y="380.5889">&#160;&#160;&#160;</text><line style="stroke:#000000;stroke-width:1.0;" x1="1680" x2="1680" y1="365.5938" y2="385.8906"/><rect fill="none" height="60.8906" rx="5" ry="5" style="stroke:#000000;stroke-width:1.5;" width="518" x="1578" y="325"/><rect fill="#F1F1F1" height="20.2969" rx="5" ry="5" style="stroke:#F1F1F1;stroke-width:1.5;" width="98" x="2133" y="365.3516"/><text fill="#000000" font-family="sans-serif" font-size="14" font-weight="bold" lengthAdjust="spacing" textLength="36" x="2138" y="380.3467">type</text><text fill="#000000" font-family="sans-serif" font-size="14" lengthAdjust="spacing" textLength="42" x="2184" y="380.3467">string</text><line style="stroke:#000000;stroke-width:1.0;" x1="2179" x2="2179" y1="365.3516" y2="385.6484"/><rect fill="none" height="20.2969" rx="5" ry="5" style="stroke:#000000;stroke-width:1.5;" width="98" x="2133" y="365.3516"/><rect fill="#F1F1F1" height="40.5938" rx="5" ry="5" style="stroke:#F1F1F1;stroke-width:1.5;" width="664" x="657" y="309"/><text fill="#000000" font-family="sans-serif" font-size="14" font-weight="bold" lengthAdjust="spacing" textLength="92" x="662" y="323.9951">description</text><text fill="#000000" font-family="sans-serif" font-size="14" lengthAdjust="spacing" textLength="552" x="764" y="323.9951">ServiceType to describe the specific characteristics of the advertised flavor.</text><line style="stroke:#000000;stroke-width:1.0;" x1="759" x2="759" y1="309" y2="329.2969"/><line style="stroke:#000000;stroke-width:1.0;" x1="657" x2="1321" y1="329.2969" y2="329.2969"/><text fill="#000000" font-family="sans-serif" font-size="14" font-weight="bold" lengthAdjust="spacing" textLength="48" x="662" y="344.292">oneOf</text><text fill="#000000" font-family="sans-serif" font-size="14" lengthAdjust="spacing" textLength="12" x="764" y="344.292">&#160;&#160;&#160;</text><line style="stroke:#000000;stroke-width:1.0;" x1="759" x2="759" y1="329.2969" y2="349.5938"/><rect fill="none" height="40.5938" rx="5" ry="5" style="stroke:#000000;stroke-width:1.5;" width="664" x="657" y="309"/><rect fill="#F1F1F1" height="20.2969" rx="5" ry="5" style="stroke:#F1F1F1;stroke-width:1.5;" width="22" x="1438.5" y="350.3516"/><text fill="#000000" font-family="sans-serif" font-size="14" lengthAdjust="spacing" textLength="12" x="1443.5" y="365.3467">&#160;&#160;&#160;</text><rect fill="none" height="20.2969" rx="5" ry="5" style="stroke:#000000;stroke-width:1.5;" width="22" x="1438.5" y="350.3516"/><rect fill="#F1F1F1" height="20.2969" rx="5" ry="5" style="stroke:#F1F1F1;stroke-width:1.5;" width="209" x="1732.5" y="404.3516"/><text fill="#000000" font-family="sans-serif" font-size="14" font-weight="bold" lengthAdjust="spacing" textLength="33" x="1737.5" y="419.3467">$ref</text><text fill="#000000" font-family="sans-serif" font-size="14" lengthAdjust="spacing" textLength="156" x="1780.5" y="419.3467">service-types/db.json</text><line style="stroke:#000000;stroke-width:1.0;" x1="1775.5" x2="1775.5" y1="404.3516" y2="424.6484"/><rect fill="none" height="20.2969" rx="5" ry="5" style="stroke:#000000;stroke-width:1.5;" width="209" x="1732.5" y="404.3516"/><path d="M1529,166.5 L1542,166.5 C1592.175,166.5 1538.9532,91.0099 1578,59.5 C1613.0494,31.2159 1660.0218,20.568 1704.3083,18.1077 " fill="none" style="stroke:#000000;stroke-width:1.0;stroke-dasharray:3.0,3.0;"/><path d="M1704.4469,21.1702 L1706.6052,18.0037 L1704.1696,15.0452 L1711.9646,17.7611 L1704.4469,21.1702 " fill="#000000" style="stroke:#000000;stroke-width:1.0;"/><ellipse cx="1529" cy="166.5" fill="#000000" rx="3" ry="3" style="stroke:#000000;stroke-width:1.0;"/><path d="M1529,186.5 L1542,186.5 C1576.1962,186.5 1549.7344,137.7467 1578,118.5 C1608.493,97.7366 1645.847,87.2715 1682.5785,82.6465 " fill="none" style="stroke:#000000;stroke-width:1.0;stroke-dasharray:3.0,3.0;"/><path d="M1682.9384,85.7769 L1684.9262,82.3765 L1682.2185,79.5161 L1690.4044,81.7466 L1682.9384,85.7769 " fill="#000000" style="stroke:#000000;stroke-width:1.0;"/><ellipse cx="1529" cy="186.5" fill="#000000" rx="3" ry="3" style="stroke:#000000;stroke-width:1.0;"/><path d="M1995.5,178.5 L2008.5,178.5 C2047.7317,178.5 2091.9677,178.5 2125.8876,178.5 " fill="none" style="stroke:#000000;stroke-width:1.0;stroke-dasharray:3.0,3.0;"/><path d="M2125.8876,181.505 L2128.1414,178.5 L2125.8876,175.495 L2133.4001,178.5 L2125.8876,181.505 " fill="#000000" style="stroke:#000000;stroke-width:1.0;"/><ellipse cx="1995.5" cy="178.5" fill="#000000" rx="3" ry="3" style="stroke:#000000;stroke-width:1.0;"/><path d="M1529,207.5 L1542,207.5 C1558.6058,207.5 1561.7602,200.9672 1578,197.5 C1604.3715,191.8696 1632.426,186.752 1659.9617,182.2124 " fill="none" style="stroke:#000000;stroke-width:1.0;stroke-dasharray:3.0,3.0;"/><path d="M1660.4677,185.3128 L1662.2869,181.8329 L1659.4557,179.1121 L1667.7126,180.9474 L1660.4677,185.3128 " fill="#000000" style="stroke:#000000;stroke-width:1.0;"/><ellipse cx="1529" cy="207.5" fill="#000000" rx="3" ry="3" style="stroke:#000000;stroke-width:1.0;"/><path d="M1529,227.5 L1542,227.5 C1596.9451,227.5 1657.6565,227.5 1709.6107,227.5 " fill="none" style="stroke:#000000;stroke-width:1.0;stroke-dasharray:3.0,3.0;"/><path d="M1709.6107,230.54 L1711.8907,227.5 L1709.6107,224.46 L1717.2108,227.5 L1709.6107,230.54 " fill="#000000" style="stroke:#000000;stroke-width:1.0;"/><ellipse cx="1529" cy="227.5" fill="#000000" rx="3" ry="3" style="stroke:#000000;stroke-width:1.0;"/><path d="M1529,247.5 L1542,247.5 C1558.4924,247.5 1561.7748,253.5432 1578,256.5 C1611.3679,262.5808 1647.3954,267.6751 1681.6532,271.8386 " fill="none" style="stroke:#000000;stroke-width:1.0;stroke-dasharray:3.0,3.0;"/><path d="M1681.2818,274.9348 L1683.9754,272.1172 L1682.0247,268.7424 L1689.3937,272.7673 L1681.2818,274.9348 " fill="#000000" style="stroke:#000000;stroke-width:1.0;"/><ellipse cx="1529" cy="247.5" fill="#000000" rx="3" ry="3" style="stroke:#000000;stroke-width:1.0;"/><path d="M2084,375.5 L2097,375.5 C2106.2605,375.5 2116.0919,375.5 2125.6496,375.5 " fill="none" style="stroke:#000000;stroke-width:1.0;stroke-dasharray:3.0,3.0;"/><path d="M2125.6496,378.5361 L2127.9267,375.5 L2125.6496,372.4639 L2133.2398,375.5 L2125.6496,378.5361 " fill="#000000" style="stroke:#000000;stroke-width:1.0;"/><ellipse cx="2084" cy="375.5" fill="#000000" rx="3" ry="3" style="stroke:#000000;stroke-width:1.0;"/><path d="M1529,268.5 L1542,268.5 C1568.6667,268.5 1555.1075,302.8236 1578,316.5 C1580.8492,318.2021 1583.7465,319.8388 1586.6868,321.4125 " fill="none" style="stroke:#000000;stroke-width:1.0;stroke-dasharray:3.0,3.0;"/><path d="M1585.2634,324.1872 L1588.7678,322.48 L1588.1102,318.6378 L1593.6235,324.971 L1585.2634,324.1872 " fill="#000000" style="stroke:#000000;stroke-width:1.0;"/><ellipse cx="1529" cy="268.5" fill="#000000" rx="3" ry="3" style="stroke:#000000;stroke-width:1.0;"/><path d="M1053.5,259.5 L1066.5,259.5 C1163.5423,259.5 1273.6105,245.9771 1350.6771,234.2779 " fill="none" style="stroke:#000000;stroke-width:1.0;stroke-dasharray:3.0,3.0;"/><path d="M1351.1565,237.4065 L1353.0236,233.9184 L1350.1978,231.1492 L1358.4987,233.0796 L1351.1565,237.4065 " fill="#000000" style="stroke:#000000;stroke-width:1.0;"/><ellipse cx="1053.5" cy="259.5" fill="#000000" rx="3" ry="3" style="stroke:#000000;stroke-width:1.0;"/><path d="M608,279.5 L621,279.5 C719.2485,279.5 831.7833,268.717 906.1606,260.0804 " fill="none" style="stroke:#000000;stroke-width:1.0;stroke-dasharray:3.0,3.0;"/><path d="M906.5133,263.0908 L908.4184,259.8159 L905.808,257.07 L913.6866,259.1987 L906.5133,263.0908 " fill="#000000" style="stroke:#000000;stroke-width:1.0;"/><ellipse cx="608" cy="279.5" fill="#000000" rx="3" ry="3" style="stroke:#000000;stroke-width:1.0;"/><path d="M1448.8134,360.1907 L1461.1359,364.3327 C1483.1562,371.7347 1533.9516,387.9324 1578,395.5 C1625.8926,403.728 1679.3776,408.3953 1725.215,411.0417 " fill="none" style="stroke:#000000;stroke-width:1.0;stroke-dasharray:3.0,3.0;"/><path d="M1725.0456,414.0745 L1727.4896,411.1688 L1725.3844,408.009 L1732.797,411.4652 L1725.0456,414.0745 " fill="#000000" style="stroke:#000000;stroke-width:1.0;"/><ellipse cx="1448.8134" cy="360.1907" fill="#000000" rx="3" ry="3" style="stroke:#000000;stroke-width:1.0;"/><path d="M1309,339.5 L1322,339.5 C1361.5542,339.5 1407.1208,349.538 1431.4793,355.734 " fill="none" style="stroke:#000000;stroke-width:1.0;stroke-dasharray:3.0,3.0;"/><path d="M1430.7057,358.6973 L1433.7018,356.3141 L1432.2528,352.7706 L1438.8876,357.6678 L1430.7057,358.6973 " fill="#000000" style="stroke:#000000;stroke-width:1.0;"/><ellipse cx="1309" cy="339.5" fill="#000000" rx="3" ry="3" style="stroke:#000000;stroke-width:1.0;"/><path d="M608,299.5 L621,299.5 C679.8132,299.5 743.7457,303.364 801.5479,308.3185 " fill="none" style="stroke:#000000;stroke-width:1.0;stroke-dasharray:3.0,3.0;"/><path d="M801.2784,311.4175 L803.8721,308.5206 L801.8174,305.2195 L809.2954,308.9922 L801.2784,311.4175 " fill="#000000" style="stroke:#000000;stroke-width:1.0;"/><ellipse cx="608" cy="299.5" fill="#000000" rx="3" ry="3" style="stroke:#000000;stroke-width:1.0;"/><path d="M414,289.5 L427,289.5 C436.292,289.5 446.0101,289.5 455.6854,289.5 " fill="none" style="stroke:#000000;stroke-width:1.0;stroke-dasharray:3.0,3.0;"/><path d="M455.6854,292.5965 L458.0078,289.5 L455.6854,286.4035 L463.4267,289.5 L455.6854,292.5965 " fill="#000000" style="stroke:#000000;stroke-width:1.0;"/><ellipse cx="414" cy="289.5" fill="#000000" rx="3" ry="3" style="stroke:#000000;stroke-width:1.0;"/><!--SRC=[nLNVRzem47xtNt7A-W1I2Ls5kecdQgNjLC662lHbseFZN88xi2FxGeKc_lVPoO88FmIha9Ottvs_- -wxo_dM4ZVqQhLYlncuBxYmOefp7dGXc19btNRRUrkbDTGcRSU69zIw-jGkRH-2o_8cBJFqrtJqYeBMLacpmZn2iv02AtkCLXYPaTHgmml9Z2-qWGBhRsHcT8Q695eNMB8ix7TJRhWWDDAI57NdOK9hxm7OjVyRd-DUJmtRaf4gtS9UHsqLwI519q3Jgj0msBcusiKAUZMSSrBQG7uNip5FxN5At1Y-F96HHmHkhHQI4yRm9cbQutK0HXBE3rFPfz3UmDL9PGzd_DoTy93lQa7VoQJ4yZWTgGXJDAVsmV6ObT0LhOT_eJL2aHj9on5n5NCJdtbCAdYm5JxOFCkqyJCJBJVuGWF3DBo4nzxmkVaVneVjFsreLcs_SPbWQutjtvG-5aX3wOsmADXcA6GY1OZwRgmQoEE5NtdMIRJ_Rmgqmk-9I_DZfuu3lRimc1IYbBHQNYJRZgFGFnl14JL-ihfznLRi5bLSF4ZC_n4q6VJ1aRP-GNqChw-kEs4dGk8tZOdwfVIR0g7dcPmv0UGScwpnEEo3rRbnZqaiVQkYt4lNP4zymU4vLpwk2_xK60-QCBglZ72l5j9eDKT5xEbbK0R1LqsZJ5CHVDDfVP44lWTeu6N0UfZmV4Rkgj2ncuekJCOFhS-iprMQyzGbGiNkj4jWbiut-WC0]--></g></svg>