<?xml version="1.0" encoding="us-ascii" standalone="no"?><svg xmlns="http://www.w3.org/2000/svg" xmlns:xlink="http://www.w3.org/1999/xlink" contentStyleType="text/css" height="672px" preserveAspectRatio="none" style="width:2635px;height:672px;background:#FFFFFF;" version="1.1" viewBox="0 0 2635 672" width="2635px" zoomAndPan="magnify"><defs/><g><rect fill="#F1F1F1" height="101.4844" rx="5" ry="5" style="stroke:#F1F1F1;stroke-width:1.5;" width="416" x="10" y="326.7578"/><text fill="#000000" font-family="sans-serif" font-size="14" font-weight="bold" lengthAdjust="spacing" textLength="72" x="15" y="341.7529">$schema</text><text fill="#000000" font-family="sans-serif" font-size="14" lengthAdjust="spacing" textLength="304" x="117" y="341.7529">http://json-schema.org/draft-07/schema#</text><line style="stroke:#000000;stroke-width:1.0;" x1="112" x2="112" y1="326.7578" y2="347.0547"/><line style="stroke:#000000;stroke-width:1.0;" x1="10" x2="426" y1="347.0547" y2="347.0547"/><text fill="#000000" font-family="sans-serif" font-size="14" font-weight="bold" lengthAdjust="spacing" textLength="36" x="15" y="362.0498">type</text><text fill="#000000" font-family="sans-serif" font-size="14" lengthAdjust="spacing" textLength="47" x="117" y="362.0498">object</text><line style="stroke:#000000;stroke-width:1.0;" x1="112" x2="112" y1="347.0547" y2="367.3516"/><line style="stroke:#000000;stroke-width:1.0;" x1="10" x2="426" y1="367.3516" y2="367.3516"/><text fill="#000000" font-family="sans-serif" font-size="14" font-weight="bold" lengthAdjust="spacing" textLength="35" x="15" y="382.3467">title</text><text fill="#000000" font-family="sans-serif" font-size="14" lengthAdjust="spacing" textLength="22" x="117" y="382.3467">VM</text><line style="stroke:#000000;stroke-width:1.0;" x1="112" x2="112" y1="367.3516" y2="387.6484"/><line style="stroke:#000000;stroke-width:1.0;" x1="10" x2="426" y1="387.6484" y2="387.6484"/><text fill="#000000" font-family="sans-serif" font-size="14" font-weight="bold" lengthAdjust="spacing" textLength="92" x="15" y="402.6436">description</text><text fill="#000000" font-family="sans-serif" font-size="14" lengthAdjust="spacing" textLength="193" x="117" y="402.6436">Virtual Machine flavor type</text><line style="stroke:#000000;stroke-width:1.0;" x1="112" x2="112" y1="387.6484" y2="407.9453"/><line style="stroke:#000000;stroke-width:1.0;" x1="10" x2="426" y1="407.9453" y2="407.9453"/><text fill="#000000" font-family="sans-serif" font-size="14" font-weight="bold" lengthAdjust="spacing" textLength="84" x="15" y="422.9404">properties</text><text fill="#000000" font-family="sans-serif" font-size="14" lengthAdjust="spacing" textLength="12" x="117" y="422.9404">&#160;&#160;&#160;</text><line style="stroke:#000000;stroke-width:1.0;" x1="112" x2="112" y1="407.9453" y2="428.2422"/><rect fill="none" height="101.4844" rx="5" ry="5" style="stroke:#000000;stroke-width:1.5;" width="416" x="10" y="326.7578"/><rect fill="#F1F1F1" height="60.8906" rx="5" ry="5" style="stroke:#F1F1F1;stroke-width:1.5;" width="157" x="463" y="388"/><text fill="#000000" font-family="sans-serif" font-size="14" font-weight="bold" lengthAdjust="spacing" textLength="125" x="468" y="402.9951">Characteristics</text><text fill="#000000" font-family="sans-serif" font-size="14" lengthAdjust="spacing" textLength="12" x="603" y="402.9951">&#160;&#160;&#160;</text><line style="stroke:#000000;stroke-width:1.0;" x1="598" x2="598" y1="388" y2="408.2969"/><line style="stroke:#000000;stroke-width:1.0;" x1="463" x2="620" y1="408.2969" y2="408.2969"/><text fill="#000000" font-family="sans-serif" font-size="14" font-weight="bold" lengthAdjust="spacing" textLength="84" x="468" y="423.292">Properties</text><text fill="#000000" font-family="sans-serif" font-size="14" lengthAdjust="spacing" textLength="12" x="603" y="423.292">&#160;&#160;&#160;</text><line style="stroke:#000000;stroke-width:1.0;" x1="598" x2="598" y1="408.2969" y2="428.5938"/><line style="stroke:#000000;stroke-width:1.0;" x1="463" x2="620" y1="428.5938" y2="428.5938"/><text fill="#000000" font-family="sans-serif" font-size="14" font-weight="bold" lengthAdjust="spacing" textLength="48" x="468" y="443.5889">Policy</text><text fill="#000000" font-family="sans-serif" font-size="14" lengthAdjust="spacing" textLength="12" x="603" y="443.5889">&#160;&#160;&#160;</text><line style="stroke:#000000;stroke-width:1.0;" x1="598" x2="598" y1="428.5938" y2="448.8906"/><rect fill="none" height="60.8906" rx="5" ry="5" style="stroke:#000000;stroke-width:1.5;" width="157" x="463" y="388"/><rect fill="#F1F1F1" height="40.5938" rx="5" ry="5" style="stroke:#F1F1F1;stroke-width:1.5;" width="151" x="657" y="248"/><text fill="#000000" font-family="sans-serif" font-size="14" font-weight="bold" lengthAdjust="spacing" textLength="36" x="662" y="262.9951">type</text><text fill="#000000" font-family="sans-serif" font-size="14" lengthAdjust="spacing" textLength="47" x="756" y="262.9951">object</text><line style="stroke:#000000;stroke-width:1.0;" x1="751" x2="751" y1="248" y2="268.2969"/><line style="stroke:#000000;stroke-width:1.0;" x1="657" x2="808" y1="268.2969" y2="268.2969"/><text fill="#000000" font-family="sans-serif" font-size="14" font-weight="bold" lengthAdjust="spacing" textLength="84" x="662" y="283.292">properties</text><text fill="#000000" font-family="sans-serif" font-size="14" lengthAdjust="spacing" textLength="12" x="756" y="283.292">&#160;&#160;&#160;</text><line style="stroke:#000000;stroke-width:1.0;" x1="751" x2="751" y1="268.2969" y2="288.5938"/><rect fill="none" height="40.5938" rx="5" ry="5" style="stroke:#000000;stroke-width:1.5;" width="151" x="657" y="248"/><rect fill="#F1F1F1" height="101.4844" rx="5" ry="5" style="stroke:#F1F1F1;stroke-width:1.5;" width="134" x="889.5" y="117.7578"/><text fill="#000000" font-family="sans-serif" font-size="14" font-weight="bold" lengthAdjust="spacing" textLength="102" x="894.5" y="132.7529">Architecture</text><text fill="#000000" font-family="sans-serif" font-size="14" lengthAdjust="spacing" textLength="12" x="1006.5" y="132.7529">&#160;&#160;&#160;</text><line style="stroke:#000000;stroke-width:1.0;" x1="1001.5" x2="1001.5" y1="117.7578" y2="138.0547"/><line style="stroke:#000000;stroke-width:1.0;" x1="889.5" x2="1023.5" y1="138.0547" y2="138.0547"/><text fill="#000000" font-family="sans-serif" font-size="14" font-weight="bold" lengthAdjust="spacing" textLength="31" x="894.5" y="153.0498">CPU</text><text fill="#000000" font-family="sans-serif" font-size="14" lengthAdjust="spacing" textLength="12" x="1006.5" y="153.0498">&#160;&#160;&#160;</text><line style="stroke:#000000;stroke-width:1.0;" x1="1001.5" x2="1001.5" y1="138.0547" y2="158.3516"/><line style="stroke:#000000;stroke-width:1.0;" x1="889.5" x2="1023.5" y1="158.3516" y2="158.3516"/><text fill="#000000" font-family="sans-serif" font-size="14" font-weight="bold" lengthAdjust="spacing" textLength="64" x="894.5" y="173.3467">Memory</text><text fill="#000000" font-family="sans-serif" font-size="14" lengthAdjust="spacing" textLength="12" x="1006.5" y="173.3467">&#160;&#160;&#160;</text><line style="stroke:#000000;stroke-width:1.0;" x1="1001.5" x2="1001.5" y1="158.3516" y2="178.6484"/><line style="stroke:#000000;stroke-width:1.0;" x1="889.5" x2="1023.5" y1="178.6484" y2="178.6484"/><text fill="#000000" font-family="sans-serif" font-size="14" font-weight="bold" lengthAdjust="spacing" textLength="33" x="894.5" y="193.6436">GPU</text><text fill="#000000" font-family="sans-serif" font-size="14" lengthAdjust="spacing" textLength="12" x="1006.5" y="193.6436">&#160;&#160;&#160;</text><line style="stroke:#000000;stroke-width:1.0;" x1="1001.5" x2="1001.5" y1="178.6484" y2="198.9453"/><line style="stroke:#000000;stroke-width:1.0;" x1="889.5" x2="1023.5" y1="198.9453" y2="198.9453"/><text fill="#000000" font-family="sans-serif" font-size="14" font-weight="bold" lengthAdjust="spacing" textLength="64" x="894.5" y="213.9404">Storage</text><text fill="#000000" font-family="sans-serif" font-size="14" lengthAdjust="spacing" textLength="12" x="1006.5" y="213.9404">&#160;&#160;&#160;</text><line style="stroke:#000000;stroke-width:1.0;" x1="1001.5" x2="1001.5" y1="198.9453" y2="219.2422"/><rect fill="none" height="101.4844" rx="5" ry="5" style="stroke:#000000;stroke-width:1.5;" width="134" x="889.5" y="117.7578"/><rect fill="#F1F1F1" height="40.5938" rx="5" ry="5" style="stroke:#F1F1F1;stroke-width:1.5;" width="303" x="1271" y="10"/><text fill="#000000" font-family="sans-serif" font-size="14" font-weight="bold" lengthAdjust="spacing" textLength="36" x="1276" y="24.9951">type</text><text fill="#000000" font-family="sans-serif" font-size="14" lengthAdjust="spacing" textLength="42" x="1378" y="24.9951">string</text><line style="stroke:#000000;stroke-width:1.0;" x1="1373" x2="1373" y1="10" y2="30.2969"/><line style="stroke:#000000;stroke-width:1.0;" x1="1271" x2="1574" y1="30.2969" y2="30.2969"/><text fill="#000000" font-family="sans-serif" font-size="14" font-weight="bold" lengthAdjust="spacing" textLength="92" x="1276" y="45.292">description</text><text fill="#000000" font-family="sans-serif" font-size="14" lengthAdjust="spacing" textLength="191" x="1378" y="45.292">Architecture of the Flavor.</text><line style="stroke:#000000;stroke-width:1.0;" x1="1373" x2="1373" y1="30.2969" y2="50.5938"/><rect fill="none" height="40.5938" rx="5" ry="5" style="stroke:#000000;stroke-width:1.5;" width="303" x="1271" y="10"/><rect fill="#F1F1F1" height="40.5938" rx="5" ry="5" style="stroke:#F1F1F1;stroke-width:1.5;" width="363" x="1241" y="69"/><text fill="#000000" font-family="sans-serif" font-size="14" font-weight="bold" lengthAdjust="spacing" textLength="36" x="1246" y="83.9951">type</text><text fill="#000000" font-family="sans-serif" font-size="14" lengthAdjust="spacing" textLength="53" x="1348" y="83.9951">integer</text><line style="stroke:#000000;stroke-width:1.0;" x1="1343" x2="1343" y1="69" y2="89.2969"/><line style="stroke:#000000;stroke-width:1.0;" x1="1241" x2="1604" y1="89.2969" y2="89.2969"/><text fill="#000000" font-family="sans-serif" font-size="14" font-weight="bold" lengthAdjust="spacing" textLength="92" x="1246" y="104.292">description</text><text fill="#000000" font-family="sans-serif" font-size="14" lengthAdjust="spacing" textLength="251" x="1348" y="104.292">Number of CPU cores of the Flavor.</text><line style="stroke:#000000;stroke-width:1.0;" x1="1343" x2="1343" y1="89.2969" y2="109.5938"/><rect fill="none" height="40.5938" rx="5" ry="5" style="stroke:#000000;stroke-width:1.5;" width="363" x="1241" y="69"/><rect fill="#F1F1F1" height="40.5938" rx="5" ry="5" style="stroke:#F1F1F1;stroke-width:1.5;" width="324" x="1260.5" y="128"/><text fill="#000000" font-family="sans-serif" font-size="14" font-weight="bold" lengthAdjust="spacing" textLength="36" x="1265.5" y="142.9951">type</text><text fill="#000000" font-family="sans-serif" font-size="14" lengthAdjust="spacing" textLength="53" x="1367.5" y="142.9951">integer</text><line style="stroke:#000000;stroke-width:1.0;" x1="1362.5" x2="1362.5" y1="128" y2="148.2969"/><line style="stroke:#000000;stroke-width:1.0;" x1="1260.5" x2="1584.5" y1="148.2969" y2="148.2969"/><text fill="#000000" font-family="sans-serif" font-size="14" font-weight="bold" lengthAdjust="spacing" textLength="92" x="1265.5" y="163.292">description</text><text fill="#000000" font-family="sans-serif" font-size="14" lengthAdjust="spacing" textLength="212" x="1367.5" y="163.292">Amount of RAM of the Flavor.</text><line style="stroke:#000000;stroke-width:1.0;" x1="1362.5" x2="1362.5" y1="148.2969" y2="168.5938"/><rect fill="none" height="40.5938" rx="5" ry="5" style="stroke:#000000;stroke-width:1.5;" width="324" x="1260.5" y="128"/><rect fill="#F1F1F1" height="40.5938" rx="5" ry="5" style="stroke:#F1F1F1;stroke-width:1.5;" width="364" x="1240.5" y="187"/><text fill="#000000" font-family="sans-serif" font-size="14" font-weight="bold" lengthAdjust="spacing" textLength="36" x="1245.5" y="201.9951">type</text><text fill="#000000" font-family="sans-serif" font-size="14" lengthAdjust="spacing" textLength="53" x="1347.5" y="201.9951">integer</text><line style="stroke:#000000;stroke-width:1.0;" x1="1342.5" x2="1342.5" y1="187" y2="207.2969"/><line style="stroke:#000000;stroke-width:1.0;" x1="1240.5" x2="1604.5" y1="207.2969" y2="207.2969"/><text fill="#000000" font-family="sans-serif" font-size="14" font-weight="bold" lengthAdjust="spacing" textLength="92" x="1245.5" y="222.292">description</text><text fill="#000000" font-family="sans-serif" font-size="14" lengthAdjust="spacing" textLength="252" x="1347.5" y="222.292">Number of GPU cores of the Flavor.</text><line style="stroke:#000000;stroke-width:1.0;" x1="1342.5" x2="1342.5" y1="207.2969" y2="227.5938"/><rect fill="none" height="40.5938" rx="5" ry="5" style="stroke:#000000;stroke-width:1.5;" width="364" x="1240.5" y="187"/><rect fill="#F1F1F1" height="40.5938" rx="5" ry="5" style="stroke:#F1F1F1;stroke-width:1.5;" width="276" x="1284.5" y="246"/><text fill="#000000" font-family="sans-serif" font-size="14" font-weight="bold" lengthAdjust="spacing" textLength="36" x="1289.5" y="260.9951">type</text><text fill="#000000" font-family="sans-serif" font-size="14" lengthAdjust="spacing" textLength="53" x="1391.5" y="260.9951">integer</text><line style="stroke:#000000;stroke-width:1.0;" x1="1386.5" x2="1386.5" y1="246" y2="266.2969"/><line style="stroke:#000000;stroke-width:1.0;" x1="1284.5" x2="1560.5" y1="266.2969" y2="266.2969"/><text fill="#000000" font-family="sans-serif" font-size="14" font-weight="bold" lengthAdjust="spacing" textLength="92" x="1289.5" y="281.292">description</text><text fill="#000000" font-family="sans-serif" font-size="14" lengthAdjust="spacing" textLength="164" x="1391.5" y="281.292">The amount of storage</text><line style="stroke:#000000;stroke-width:1.0;" x1="1386.5" x2="1386.5" y1="266.2969" y2="286.5938"/><rect fill="none" height="40.5938" rx="5" ry="5" style="stroke:#000000;stroke-width:1.5;" width="276" x="1284.5" y="246"/><rect fill="#F1F1F1" height="40.5938" rx="5" ry="5" style="stroke:#F1F1F1;stroke-width:1.5;" width="151" x="657" y="398"/><text fill="#000000" font-family="sans-serif" font-size="14" font-weight="bold" lengthAdjust="spacing" textLength="36" x="662" y="412.9951">type</text><text fill="#000000" font-family="sans-serif" font-size="14" lengthAdjust="spacing" textLength="47" x="756" y="412.9951">object</text><line style="stroke:#000000;stroke-width:1.0;" x1="751" x2="751" y1="398" y2="418.2969"/><line style="stroke:#000000;stroke-width:1.0;" x1="657" x2="808" y1="418.2969" y2="418.2969"/><text fill="#000000" font-family="sans-serif" font-size="14" font-weight="bold" lengthAdjust="spacing" textLength="84" x="662" y="433.292">properties</text><text fill="#000000" font-family="sans-serif" font-size="14" lengthAdjust="spacing" textLength="12" x="756" y="433.292">&#160;&#160;&#160;</text><line style="stroke:#000000;stroke-width:1.0;" x1="751" x2="751" y1="418.2969" y2="438.5938"/><rect fill="none" height="40.5938" rx="5" ry="5" style="stroke:#000000;stroke-width:1.5;" width="151" x="657" y="398"/><rect fill="#F1F1F1" height="81.1875" rx="5" ry="5" style="stroke:#F1F1F1;stroke-width:1.5;" width="223" x="845" y="387.9063"/><text fill="#000000" font-family="sans-serif" font-size="14" font-weight="bold" lengthAdjust="spacing" textLength="64" x="850" y="402.9014">Latency</text><text fill="#000000" font-family="sans-serif" font-size="14" lengthAdjust="spacing" textLength="12" x="1051" y="402.9014">&#160;&#160;&#160;</text><line style="stroke:#000000;stroke-width:1.0;" x1="1046" x2="1046" y1="387.9063" y2="408.2031"/><line style="stroke:#000000;stroke-width:1.0;" x1="845" x2="1068" y1="408.2031" y2="408.2031"/><text fill="#000000" font-family="sans-serif" font-size="14" font-weight="bold" lengthAdjust="spacing" textLength="151" x="850" y="423.1982">SecurityStandards</text><text fill="#000000" font-family="sans-serif" font-size="14" lengthAdjust="spacing" textLength="12" x="1051" y="423.1982">&#160;&#160;&#160;</text><line style="stroke:#000000;stroke-width:1.0;" x1="1046" x2="1046" y1="408.2031" y2="428.5"/><line style="stroke:#000000;stroke-width:1.0;" x1="845" x2="1068" y1="428.5" y2="428.5"/><text fill="#000000" font-family="sans-serif" font-size="14" font-weight="bold" lengthAdjust="spacing" textLength="134" x="850" y="443.4951">CarbonFootprint</text><text fill="#000000" font-family="sans-serif" font-size="14" lengthAdjust="spacing" textLength="12" x="1051" y="443.4951">&#160;&#160;&#160;</text><line style="stroke:#000000;stroke-width:1.0;" x1="1046" x2="1046" y1="428.5" y2="448.7969"/><line style="stroke:#000000;stroke-width:1.0;" x1="845" x2="1068" y1="448.7969" y2="448.7969"/><text fill="#000000" font-family="sans-serif" font-size="14" font-weight="bold" lengthAdjust="spacing" textLength="191" x="850" y="463.792">WorkloadCaracteristics</text><text fill="#000000" font-family="sans-serif" font-size="14" lengthAdjust="spacing" textLength="12" x="1051" y="463.792">&#160;&#160;&#160;</text><line style="stroke:#000000;stroke-width:1.0;" x1="1046" x2="1046" y1="448.7969" y2="469.0938"/><rect fill="none" height="81.1875" rx="5" ry="5" style="stroke:#000000;stroke-width:1.5;" width="223" x="845" y="387.9063"/><rect fill="#F1F1F1" height="40.5938" rx="5" ry="5" style="stroke:#F1F1F1;stroke-width:1.5;" width="296" x="1274.5" y="305"/><text fill="#000000" font-family="sans-serif" font-size="14" font-weight="bold" lengthAdjust="spacing" textLength="36" x="1279.5" y="319.9951">type</text><text fill="#000000" font-family="sans-serif" font-size="14" lengthAdjust="spacing" textLength="53" x="1381.5" y="319.9951">integer</text><line style="stroke:#000000;stroke-width:1.0;" x1="1376.5" x2="1376.5" y1="305" y2="325.2969"/><line style="stroke:#000000;stroke-width:1.0;" x1="1274.5" x2="1570.5" y1="325.2969" y2="325.2969"/><text fill="#000000" font-family="sans-serif" font-size="14" font-weight="bold" lengthAdjust="spacing" textLength="92" x="1279.5" y="340.292">description</text><text fill="#000000" font-family="sans-serif" font-size="14" lengthAdjust="spacing" textLength="184" x="1381.5" y="340.292">The latency of the Flavor.</text><line style="stroke:#000000;stroke-width:1.0;" x1="1376.5" x2="1376.5" y1="325.2969" y2="345.5938"/><rect fill="none" height="40.5938" rx="5" ry="5" style="stroke:#000000;stroke-width:1.5;" width="296" x="1274.5" y="305"/><rect fill="#F1F1F1" height="60.8906" rx="5" ry="5" style="stroke:#F1F1F1;stroke-width:1.5;" width="518" x="1163.5" y="364"/><text fill="#000000" font-family="sans-serif" font-size="14" font-weight="bold" lengthAdjust="spacing" textLength="36" x="1168.5" y="378.9951">type</text><text fill="#000000" font-family="sans-serif" font-size="14" lengthAdjust="spacing" textLength="36" x="1270.5" y="378.9951">array</text><line style="stroke:#000000;stroke-width:1.0;" x1="1265.5" x2="1265.5" y1="364" y2="384.2969"/><line style="stroke:#000000;stroke-width:1.0;" x1="1163.5" x2="1681.5" y1="384.2969" y2="384.2969"/><text fill="#000000" font-family="sans-serif" font-size="14" font-weight="bold" lengthAdjust="spacing" textLength="92" x="1168.5" y="399.292">description</text><text fill="#000000" font-family="sans-serif" font-size="14" lengthAdjust="spacing" textLength="406" x="1270.5" y="399.292">Security standards supported by the Flavor (e.g., GDPR).</text><line style="stroke:#000000;stroke-width:1.0;" x1="1265.5" x2="1265.5" y1="384.2969" y2="404.5938"/><line style="stroke:#000000;stroke-width:1.0;" x1="1163.5" x2="1681.5" y1="404.5938" y2="404.5938"/><text fill="#000000" font-family="sans-serif" font-size="14" font-weight="bold" lengthAdjust="spacing" textLength="46" x="1168.5" y="419.5889">items</text><text fill="#000000" font-family="sans-serif" font-size="14" lengthAdjust="spacing" textLength="12" x="1270.5" y="419.5889">&#160;&#160;&#160;</text><line style="stroke:#000000;stroke-width:1.0;" x1="1265.5" x2="1265.5" y1="404.5938" y2="424.8906"/><rect fill="none" height="60.8906" rx="5" ry="5" style="stroke:#000000;stroke-width:1.5;" width="518" x="1163.5" y="364"/><rect fill="#F1F1F1" height="20.2969" rx="5" ry="5" style="stroke:#F1F1F1;stroke-width:1.5;" width="98" x="1792" y="404.3516"/><text fill="#000000" font-family="sans-serif" font-size="14" font-weight="bold" lengthAdjust="spacing" textLength="36" x="1797" y="419.3467">type</text><text fill="#000000" font-family="sans-serif" font-size="14" lengthAdjust="spacing" textLength="42" x="1843" y="419.3467">string</text><line style="stroke:#000000;stroke-width:1.0;" x1="1838" x2="1838" y1="404.3516" y2="424.6484"/><rect fill="none" height="20.2969" rx="5" ry="5" style="stroke:#000000;stroke-width:1.5;" width="98" x="1792" y="404.3516"/><rect fill="#F1F1F1" height="40.5938" rx="5" ry="5" style="stroke:#F1F1F1;stroke-width:1.5;" width="151" x="1347" y="443"/><text fill="#000000" font-family="sans-serif" font-size="14" font-weight="bold" lengthAdjust="spacing" textLength="36" x="1352" y="457.9951">type</text><text fill="#000000" font-family="sans-serif" font-size="14" lengthAdjust="spacing" textLength="47" x="1446" y="457.9951">object</text><line style="stroke:#000000;stroke-width:1.0;" x1="1441" x2="1441" y1="443" y2="463.2969"/><line style="stroke:#000000;stroke-width:1.0;" x1="1347" x2="1498" y1="463.2969" y2="463.2969"/><text fill="#000000" font-family="sans-serif" font-size="14" font-weight="bold" lengthAdjust="spacing" textLength="84" x="1352" y="478.292">properties</text><text fill="#000000" font-family="sans-serif" font-size="14" lengthAdjust="spacing" textLength="12" x="1446" y="478.292">&#160;&#160;&#160;</text><line style="stroke:#000000;stroke-width:1.0;" x1="1441" x2="1441" y1="463.2969" y2="483.5938"/><rect fill="none" height="40.5938" rx="5" ry="5" style="stroke:#000000;stroke-width:1.5;" width="151" x="1347" y="443"/><rect fill="#F1F1F1" height="40.5938" rx="5" ry="5" style="stroke:#F1F1F1;stroke-width:1.5;" width="128" x="1777" y="453"/><text fill="#000000" font-family="sans-serif" font-size="14" font-weight="bold" lengthAdjust="spacing" textLength="78" x="1782" y="467.9951">Embodied</text><text fill="#000000" font-family="sans-serif" font-size="14" lengthAdjust="spacing" textLength="12" x="1888" y="467.9951">&#160;&#160;&#160;</text><line style="stroke:#000000;stroke-width:1.0;" x1="1883" x2="1883" y1="453" y2="473.2969"/><line style="stroke:#000000;stroke-width:1.0;" x1="1777" x2="1905" y1="473.2969" y2="473.2969"/><text fill="#000000" font-family="sans-serif" font-size="14" font-weight="bold" lengthAdjust="spacing" textLength="96" x="1782" y="488.292">Operational</text><text fill="#000000" font-family="sans-serif" font-size="14" lengthAdjust="spacing" textLength="12" x="1888" y="488.292">&#160;&#160;&#160;</text><line style="stroke:#000000;stroke-width:1.0;" x1="1883" x2="1883" y1="473.2969" y2="493.5938"/><rect fill="none" height="40.5938" rx="5" ry="5" style="stroke:#000000;stroke-width:1.5;" width="128" x="1777" y="453"/><rect fill="#F1F1F1" height="40.5938" rx="5" ry="5" style="stroke:#F1F1F1;stroke-width:1.5;" width="664" x="1950.5" y="423"/><text fill="#000000" font-family="sans-serif" font-size="14" font-weight="bold" lengthAdjust="spacing" textLength="36" x="1955.5" y="437.9951">type</text><text fill="#000000" font-family="sans-serif" font-size="14" lengthAdjust="spacing" textLength="53" x="2057.5" y="437.9951">integer</text><line style="stroke:#000000;stroke-width:1.0;" x1="2052.5" x2="2052.5" y1="423" y2="443.2969"/><line style="stroke:#000000;stroke-width:1.0;" x1="1950.5" x2="2614.5" y1="443.2969" y2="443.2969"/><text fill="#000000" font-family="sans-serif" font-size="14" font-weight="bold" lengthAdjust="spacing" textLength="92" x="1955.5" y="458.292">description</text><text fill="#000000" font-family="sans-serif" font-size="14" lengthAdjust="spacing" textLength="552" x="2057.5" y="458.292">Embodied carbon of the node hardware normalized by its expected lifetime.</text><line style="stroke:#000000;stroke-width:1.0;" x1="2052.5" x2="2052.5" y1="443.2969" y2="463.5938"/><rect fill="none" height="40.5938" rx="5" ry="5" style="stroke:#000000;stroke-width:1.5;" width="664" x="1950.5" y="423"/><rect fill="#F1F1F1" height="40.5938" rx="5" ry="5" style="stroke:#F1F1F1;stroke-width:1.5;" width="681" x="1942" y="482"/><text fill="#000000" font-family="sans-serif" font-size="14" font-weight="bold" lengthAdjust="spacing" textLength="36" x="1947" y="496.9951">type</text><text fill="#000000" font-family="sans-serif" font-size="14" lengthAdjust="spacing" textLength="53" x="2049" y="496.9951">integer</text><line style="stroke:#000000;stroke-width:1.0;" x1="2044" x2="2044" y1="482" y2="502.2969"/><line style="stroke:#000000;stroke-width:1.0;" x1="1942" x2="2623" y1="502.2969" y2="502.2969"/><text fill="#000000" font-family="sans-serif" font-size="14" font-weight="bold" lengthAdjust="spacing" textLength="92" x="1947" y="517.292">description</text><text fill="#000000" font-family="sans-serif" font-size="14" lengthAdjust="spacing" textLength="569" x="2049" y="517.292">Forecasted average carbon intensity of the node for the next N windows/hours.</text><line style="stroke:#000000;stroke-width:1.0;" x1="2044" x2="2044" y1="502.2969" y2="522.5938"/><rect fill="none" height="40.5938" rx="5" ry="5" style="stroke:#000000;stroke-width:1.5;" width="681" x="1942" y="482"/><rect fill="#F1F1F1" height="60.8906" rx="5" ry="5" style="stroke:#F1F1F1;stroke-width:1.5;" width="635" x="1105" y="502"/><text fill="#000000" font-family="sans-serif" font-size="14" font-weight="bold" lengthAdjust="spacing" textLength="36" x="1110" y="516.9951">type</text><text fill="#000000" font-family="sans-serif" font-size="14" lengthAdjust="spacing" textLength="36" x="1212" y="516.9951">array</text><line style="stroke:#000000;stroke-width:1.0;" x1="1207" x2="1207" y1="502" y2="522.2969"/><line style="stroke:#000000;stroke-width:1.0;" x1="1105" x2="1740" y1="522.2969" y2="522.2969"/><text fill="#000000" font-family="sans-serif" font-size="14" font-weight="bold" lengthAdjust="spacing" textLength="92" x="1110" y="537.292">description</text><text fill="#000000" font-family="sans-serif" font-size="14" lengthAdjust="spacing" textLength="523" x="1212" y="537.292">Forecasted average utilization of the node for the next N windows/hours.</text><line style="stroke:#000000;stroke-width:1.0;" x1="1207" x2="1207" y1="522.2969" y2="542.5938"/><line style="stroke:#000000;stroke-width:1.0;" x1="1105" x2="1740" y1="542.5938" y2="542.5938"/><text fill="#000000" font-family="sans-serif" font-size="14" font-weight="bold" lengthAdjust="spacing" textLength="46" x="1110" y="557.5889">items</text><text fill="#000000" font-family="sans-serif" font-size="14" lengthAdjust="spacing" textLength="12" x="1212" y="557.5889">&#160;&#160;&#160;</text><line style="stroke:#000000;stroke-width:1.0;" x1="1207" x2="1207" y1="542.5938" y2="562.8906"/><rect fill="none" height="60.8906" rx="5" ry="5" style="stroke:#000000;stroke-width:1.5;" width="635" x="1105" y="502"/><rect fill="#F1F1F1" height="20.2969" rx="5" ry="5" style="stroke:#F1F1F1;stroke-width:1.5;" width="109" x="1786.5" y="542.3516"/><text fill="#000000" font-family="sans-serif" font-size="14" font-weight="bold" lengthAdjust="spacing" textLength="36" x="1791.5" y="557.3467">type</text><text fill="#000000" font-family="sans-serif" font-size="14" lengthAdjust="spacing" textLength="53" x="1837.5" y="557.3467">integer</text><line style="stroke:#000000;stroke-width:1.0;" x1="1832.5" x2="1832.5" y1="542.3516" y2="562.6484"/><rect fill="none" height="20.2969" rx="5" ry="5" style="stroke:#000000;stroke-width:1.5;" width="109" x="1786.5" y="542.3516"/><rect fill="#F1F1F1" height="40.5938" rx="5" ry="5" style="stroke:#F1F1F1;stroke-width:1.5;" width="151" x="657" y="494"/><text fill="#000000" font-family="sans-serif" font-size="14" font-weight="bold" lengthAdjust="spacing" textLength="36" x="662" y="508.9951">type</text><text fill="#000000" font-family="sans-serif" font-size="14" lengthAdjust="spacing" textLength="47" x="756" y="508.9951">object</text><line style="stroke:#000000;stroke-width:1.0;" x1="751" x2="751" y1="494" y2="514.2969"/><line style="stroke:#000000;stroke-width:1.0;" x1="657" x2="808" y1="514.2969" y2="514.2969"/><text fill="#000000" font-family="sans-serif" font-size="14" font-weight="bold" lengthAdjust="spacing" textLength="84" x="662" y="529.292">properties</text><text fill="#000000" font-family="sans-serif" font-size="14" lengthAdjust="spacing" textLength="12" x="756" y="529.292">&#160;&#160;&#160;</text><line style="stroke:#000000;stroke-width:1.0;" x1="751" x2="751" y1="514.2969" y2="534.5938"/><rect fill="none" height="40.5938" rx="5" ry="5" style="stroke:#000000;stroke-width:1.5;" width="151" x="657" y="494"/><rect fill="#F1F1F1" height="20.2969" rx="5" ry="5" style="stroke:#F1F1F1;stroke-width:1.5;" width="141" x="886" y="551.3516"/><text fill="#000000" font-family="sans-serif" font-size="14" font-weight="bold" lengthAdjust="spacing" textLength="109" x="891" y="566.3467">Aggregatable</text><text fill="#000000" font-family="sans-serif" font-size="14" lengthAdjust="spacing" textLength="12" x="1010" y="566.3467">&#160;&#160;&#160;</text><line style="stroke:#000000;stroke-width:1.0;" x1="1005" x2="1005" y1="551.3516" y2="571.6484"/><rect fill="none" height="20.2969" rx="5" ry="5" style="stroke:#000000;stroke-width:1.5;" width="141" x="886" y="551.3516"/><rect fill="#F1F1F1" height="40.5938" rx="5" ry="5" style="stroke:#F1F1F1;stroke-width:1.5;" width="151" x="1347" y="581"/><text fill="#000000" font-family="sans-serif" font-size="14" font-weight="bold" lengthAdjust="spacing" textLength="36" x="1352" y="595.9951">type</text><text fill="#000000" font-family="sans-serif" font-size="14" lengthAdjust="spacing" textLength="47" x="1446" y="595.9951">object</text><line style="stroke:#000000;stroke-width:1.0;" x1="1441" x2="1441" y1="581" y2="601.2969"/><line style="stroke:#000000;stroke-width:1.0;" x1="1347" x2="1498" y1="601.2969" y2="601.2969"/><text fill="#000000" font-family="sans-serif" font-size="14" font-weight="bold" lengthAdjust="spacing" textLength="84" x="1352" y="616.292">properties</text><text fill="#000000" font-family="sans-serif" font-size="14" lengthAdjust="spacing" textLength="12" x="1446" y="616.292">&#160;&#160;&#160;</text><line style="stroke:#000000;stroke-width:1.0;" x1="1441" x2="1441" y1="601.2969" y2="621.5938"/><rect fill="none" height="40.5938" rx="5" ry="5" style="stroke:#000000;stroke-width:1.5;" width="151" x="1347" y="581"/><rect fill="#F1F1F1" height="40.5938" rx="5" ry="5" style="stroke:#F1F1F1;stroke-width:1.5;" width="113" x="1784.5" y="591"/><text fill="#000000" font-family="sans-serif" font-size="14" font-weight="bold" lengthAdjust="spacing" textLength="77" x="1789.5" y="605.9951">MinCount</text><text fill="#000000" font-family="sans-serif" font-size="14" lengthAdjust="spacing" textLength="12" x="1880.5" y="605.9951">&#160;&#160;&#160;</text><line style="stroke:#000000;stroke-width:1.0;" x1="1875.5" x2="1875.5" y1="591" y2="611.2969"/><line style="stroke:#000000;stroke-width:1.0;" x1="1784.5" x2="1897.5" y1="611.2969" y2="611.2969"/><text fill="#000000" font-family="sans-serif" font-size="14" font-weight="bold" lengthAdjust="spacing" textLength="81" x="1789.5" y="626.292">MaxCount</text><text fill="#000000" font-family="sans-serif" font-size="14" lengthAdjust="spacing" textLength="12" x="1880.5" y="626.292">&#160;&#160;&#160;</text><line style="stroke:#000000;stroke-width:1.0;" x1="1875.5" x2="1875.5" y1="611.2969" y2="631.5938"/><rect fill="none" height="40.5938" rx="5" ry="5" style="stroke:#000000;stroke-width:1.5;" width="113" x="1784.5" y="591"/><rect fill="#F1F1F1" height="40.5938" rx="5" ry="5" style="stroke:#F1F1F1;stroke-width:1.5;" width="492" x="2036.5" y="561"/><text fill="#000000" font-family="sans-serif" font-size="14" font-weight="bold" lengthAdjust="spacing" textLength="36" x="2041.5" y="575.9951">type</text><text fill="#000000" font-family="sans-serif" font-size="14" lengthAdjust="spacing" textLength="53" x="2143.5" y="575.9951">integer</text><line style="stroke:#000000;stroke-width:1.0;" x1="2138.5" x2="2138.5" y1="561" y2="581.2969"/><line style="stroke:#000000;stroke-width:1.0;" x1="2036.5" x2="2528.5" y1="581.2969" y2="581.2969"/><text fill="#000000" font-family="sans-serif" font-size="14" font-weight="bold" lengthAdjust="spacing" textLength="92" x="2041.5" y="596.292">description</text><text fill="#000000" font-family="sans-serif" font-size="14" lengthAdjust="spacing" textLength="380" x="2143.5" y="596.292">Minimum required number of instances of the Flavor.</text><line style="stroke:#000000;stroke-width:1.0;" x1="2138.5" x2="2138.5" y1="581.2969" y2="601.5938"/><rect fill="none" height="40.5938" rx="5" ry="5" style="stroke:#000000;stroke-width:1.5;" width="492" x="2036.5" y="561"/><rect fill="#F1F1F1" height="40.5938" rx="5" ry="5" style="stroke:#F1F1F1;stroke-width:1.5;" width="495" x="2035" y="620"/><text fill="#000000" font-family="sans-serif" font-size="14" font-weight="bold" lengthAdjust="spacing" textLength="36" x="2040" y="634.9951">type</text><text fill="#000000" font-family="sans-serif" font-size="14" lengthAdjust="spacing" textLength="53" x="2142" y="634.9951">integer</text><line style="stroke:#000000;stroke-width:1.0;" x1="2137" x2="2137" y1="620" y2="640.2969"/><line style="stroke:#000000;stroke-width:1.0;" x1="2035" x2="2530" y1="640.2969" y2="640.2969"/><text fill="#000000" font-family="sans-serif" font-size="14" font-weight="bold" lengthAdjust="spacing" textLength="92" x="2040" y="655.292">description</text><text fill="#000000" font-family="sans-serif" font-size="14" lengthAdjust="spacing" textLength="383" x="2142" y="655.292">Maximum required number of instances of the Flavor.</text><line style="stroke:#000000;stroke-width:1.0;" x1="2137" x2="2137" y1="640.2969" y2="660.5938"/><rect fill="none" height="40.5938" rx="5" ry="5" style="stroke:#000000;stroke-width:1.5;" width="495" x="2035" y="620"/><path d="M1012,127.5 L1025,127.5 C1071.6646,127.5 1061.9803,77.5801 1105,59.5 C1154.2881,38.7855 1211.5944,29.5855 1263.8201,26.1556 " fill="none" style="stroke:#000000;stroke-width:1.0;stroke-dasharray:3.0,3.0;"/><path d="M1264.006,29.2224 L1266.1202,26.0162 L1263.6341,23.0888 L1271.4871,25.6908 L1264.006,29.2224 " fill="#000000" style="stroke:#000000;stroke-width:1.0;"/><ellipse cx="1012" cy="127.5" fill="#000000" rx="3" ry="3" style="stroke:#000000;stroke-width:1.0;"/><path d="M1012,148.5 L1025,148.5 C1062.9733,148.5 1067.9838,126.9721 1105,118.5 C1146.1644,109.0785 1190.9974,102.6976 1233.6416,98.3817 " fill="none" style="stroke:#000000;stroke-width:1.0;stroke-dasharray:3.0,3.0;"/><path d="M1233.9437,101.4442 L1235.9385,98.1551 L1233.3395,95.3191 L1241.2979,97.6264 L1233.9437,101.4442 " fill="#000000" style="stroke:#000000;stroke-width:1.0;"/><ellipse cx="1012" cy="148.5" fill="#000000" rx="3" ry="3" style="stroke:#000000;stroke-width:1.0;"/><path d="M1012,168.5 L1025,168.5 C1099.908,168.5 1182.6657,164.9044 1253.1497,160.7623 " fill="none" style="stroke:#000000;stroke-width:1.0;stroke-dasharray:3.0,3.0;"/><path d="M1253.3316,163.8243 L1255.4462,160.6259 L1252.9678,157.7004 L1260.8046,160.3075 L1253.3316,163.8243 " fill="#000000" style="stroke:#000000;stroke-width:1.0;"/><ellipse cx="1012" cy="168.5" fill="#000000" rx="3" ry="3" style="stroke:#000000;stroke-width:1.0;"/><path d="M1012,188.5 L1025,188.5 C1092.9368,188.5 1167.3384,191.3103 1233.1835,194.7693 " fill="none" style="stroke:#000000;stroke-width:1.0;stroke-dasharray:3.0,3.0;"/><path d="M1233.0225,197.7989 L1235.4557,194.8901 L1233.3446,191.7397 L1240.7575,195.172 L1233.0225,197.7989 " fill="#000000" style="stroke:#000000;stroke-width:1.0;"/><ellipse cx="1012" cy="188.5" fill="#000000" rx="3" ry="3" style="stroke:#000000;stroke-width:1.0;"/><path d="M1012,209.5 L1025,209.5 C1062.526,209.5 1068.2979,228.6801 1105,236.5 C1160.6402,248.355 1222.7728,255.5267 1277.1868,259.8646 " fill="none" style="stroke:#000000;stroke-width:1.0;stroke-dasharray:3.0,3.0;"/><path d="M1276.9494,262.9148 L1279.4744,260.0427 L1277.4242,256.8145 L1284.8122,260.4581 L1276.9494,262.9148 " fill="#000000" style="stroke:#000000;stroke-width:1.0;"/><ellipse cx="1012" cy="209.5" fill="#000000" rx="3" ry="3" style="stroke:#000000;stroke-width:1.0;"/><path d="M796,278.5 L809,278.5 C849.0249,278.5 885.1523,252.0349 911.5759,225.0671 " fill="none" style="stroke:#000000;stroke-width:1.0;stroke-dasharray:3.0,3.0;"/><path d="M913.8771,227.2627 L913.2226,223.3412 L909.2747,222.8714 L917.065,219.3141 L913.8771,227.2627 " fill="#000000" style="stroke:#000000;stroke-width:1.0;"/><ellipse cx="796" cy="278.5" fill="#000000" rx="3" ry="3" style="stroke:#000000;stroke-width:1.0;"/><path d="M608,398.5 L621,398.5 C674.2801,398.5 707.4214,334.5643 722.4666,296.3683 " fill="none" style="stroke:#000000;stroke-width:1.0;stroke-dasharray:3.0,3.0;"/><path d="M725.3743,297.4757 L723.2971,294.1875 L719.5588,295.261 L725.2349,289.0989 L725.3743,297.4757 " fill="#000000" style="stroke:#000000;stroke-width:1.0;"/><ellipse cx="608" cy="398.5" fill="#000000" rx="3" ry="3" style="stroke:#000000;stroke-width:1.0;"/><path d="M1056,398.5 L1069,398.5 C1093.9246,398.5 1082.939,367.0994 1105,355.5 C1154.068,329.7006 1213.3378,319.5104 1267.287,316.6593 " fill="none" style="stroke:#000000;stroke-width:1.0;stroke-dasharray:3.0,3.0;"/><path d="M1267.4288,319.6895 L1269.5597,316.5529 L1267.1452,313.6291 L1274.8625,316.3048 L1267.4288,319.6895 " fill="#000000" style="stroke:#000000;stroke-width:1.0;"/><ellipse cx="1056" cy="398.5" fill="#000000" rx="3" ry="3" style="stroke:#000000;stroke-width:1.0;"/><path d="M1670,414.5 L1683,414.5 C1716.6349,414.5 1754.3103,414.5 1784.3776,414.5 " fill="none" style="stroke:#000000;stroke-width:1.0;stroke-dasharray:3.0,3.0;"/><path d="M1784.3776,417.648 L1786.7386,414.5 L1784.3776,411.352 L1792.2476,414.5 L1784.3776,417.648 " fill="#000000" style="stroke:#000000;stroke-width:1.0;"/><ellipse cx="1670" cy="414.5" fill="#000000" rx="3" ry="3" style="stroke:#000000;stroke-width:1.0;"/><path d="M1056,418.5 L1069,418.5 C1097.1937,418.5 1126.6249,417.7285 1155.9435,416.4622 " fill="none" style="stroke:#000000;stroke-width:1.0;stroke-dasharray:3.0,3.0;"/><path d="M1156.084,419.6047 L1158.3004,416.3568 L1155.8031,413.3197 L1163.7998,416.111 L1156.084,419.6047 " fill="#000000" style="stroke:#000000;stroke-width:1.0;"/><ellipse cx="1056" cy="418.5" fill="#000000" rx="3" ry="3" style="stroke:#000000;stroke-width:1.0;"/><path d="M1893,463.5 L1906,463.5 C1918.1803,463.5 1930.5794,463.394 1943.1009,463.1976 " fill="none" style="stroke:#000000;stroke-width:1.0;stroke-dasharray:3.0,3.0;"/><path d="M1943.1545,466.3221 L1945.4443,463.1574 L1943.0474,460.073 L1950.9123,463.0637 L1943.1545,466.3221 " fill="#000000" style="stroke:#000000;stroke-width:1.0;"/><ellipse cx="1893" cy="463.5" fill="#000000" rx="3" ry="3" style="stroke:#000000;stroke-width:1.0;"/><path d="M1893,483.5 L1906,483.5 C1915.4122,483.5 1924.9553,483.5601 1934.5848,483.6736 " fill="none" style="stroke:#000000;stroke-width:1.0;stroke-dasharray:3.0,3.0;"/><path d="M1934.5439,486.7697 L1936.9069,483.7043 L1934.6257,480.5775 L1942.3251,483.7759 L1934.5439,486.7697 " fill="#000000" style="stroke:#000000;stroke-width:1.0;"/><ellipse cx="1893" cy="483.5" fill="#000000" rx="3" ry="3" style="stroke:#000000;stroke-width:1.0;"/><path d="M1487,473.5 L1500,473.5 C1593.2079,473.5 1700.7678,473.5 1769.6425,473.5 " fill="none" style="stroke:#000000;stroke-width:1.0;stroke-dasharray:3.0,3.0;"/><path d="M1769.6425,476.6151 L1771.9788,473.5 L1769.6425,470.3849 L1777.4303,473.5 L1769.6425,476.6151 " fill="#000000" style="stroke:#000000;stroke-width:1.0;"/><ellipse cx="1487" cy="473.5" fill="#000000" rx="3" ry="3" style="stroke:#000000;stroke-width:1.0;"/><path d="M1056,438.5 L1069,438.5 C1161.9187,438.5 1268.2524,447.2255 1339.7202,454.3668 " fill="none" style="stroke:#000000;stroke-width:1.0;stroke-dasharray:3.0,3.0;"/><path d="M1339.4106,457.4352 L1342.0215,454.5989 L1340.0297,451.2984 L1347.3912,455.1406 L1339.4106,457.4352 " fill="#000000" style="stroke:#000000;stroke-width:1.0;"/><ellipse cx="1056" cy="438.5" fill="#000000" rx="3" ry="3" style="stroke:#000000;stroke-width:1.0;"/><path d="M1728,552.5 L1741,552.5 C1753.3025,552.5 1766.4607,552.5 1779.0463,552.5 " fill="none" style="stroke:#000000;stroke-width:1.0;stroke-dasharray:3.0,3.0;"/><path d="M1779.0463,555.5998 L1781.3712,552.5 L1779.0463,549.4002 L1786.7959,552.5 L1779.0463,555.5998 " fill="#000000" style="stroke:#000000;stroke-width:1.0;"/><ellipse cx="1728" cy="552.5" fill="#000000" rx="3" ry="3" style="stroke:#000000;stroke-width:1.0;"/><path d="M1056,458.5 L1069,458.5 C1091.3154,458.5 1084.8759,483.8567 1105,493.5 C1109.0043,495.4188 1113.0683,497.2558 1117.1842,499.0141 " fill="none" style="stroke:#000000;stroke-width:1.0;stroke-dasharray:3.0,3.0;"/><path d="M1116.0301,501.8039 L1119.2766,499.8797 L1118.3384,496.2242 L1124.1589,501.8995 L1116.0301,501.8039 " fill="#000000" style="stroke:#000000;stroke-width:1.0;"/><ellipse cx="1056" cy="458.5" fill="#000000" rx="3" ry="3" style="stroke:#000000;stroke-width:1.0;"/><path d="M796,428.5 L809,428.5 C818.2633,428.5 827.8549,428.5 837.4955,428.5 " fill="none" style="stroke:#000000;stroke-width:1.0;stroke-dasharray:3.0,3.0;"/><path d="M837.4955,431.5947 L839.8165,428.5 L837.4955,425.4053 L845.2323,428.5 L837.4955,431.5947 " fill="#000000" style="stroke:#000000;stroke-width:1.0;"/><ellipse cx="796" cy="428.5" fill="#000000" rx="3" ry="3" style="stroke:#000000;stroke-width:1.0;"/><path d="M608,418.5 L621,418.5 C630.2756,418.5 639.9872,418.5 649.6429,418.5 " fill="none" style="stroke:#000000;stroke-width:1.0;stroke-dasharray:3.0,3.0;"/><path d="M649.6429,421.5889 L651.9596,418.5 L649.6429,415.4111 L657.3653,418.5 L649.6429,421.5889 " fill="#000000" style="stroke:#000000;stroke-width:1.0;"/><ellipse cx="608" cy="418.5" fill="#000000" rx="3" ry="3" style="stroke:#000000;stroke-width:1.0;"/><path d="M1886.5,601.5 L1899.5,601.5 C1941.5379,601.5 1986.1392,600.2804 2029.4743,598.4435 " fill="none" style="stroke:#000000;stroke-width:1.0;stroke-dasharray:3.0,3.0;"/><path d="M2029.6043,601.4465 L2031.7266,598.346 L2029.3444,595.4405 L2036.9818,598.1186 L2029.6043,601.4465 " fill="#000000" style="stroke:#000000;stroke-width:1.0;"/><ellipse cx="1886.5" cy="601.5" fill="#000000" rx="3" ry="3" style="stroke:#000000;stroke-width:1.0;"/><path d="M1886.5,621.5 L1899.5,621.5 C1940.9751,621.5 1984.9487,622.6281 2027.7406,624.3346 " fill="none" style="stroke:#000000;stroke-width:1.0;stroke-dasharray:3.0,3.0;"/><path d="M2027.6152,627.4123 L2030.0489,624.4287 L2027.866,621.2569 L2035.4349,624.6481 L2027.6152,627.4123 " fill="#000000" style="stroke:#000000;stroke-width:1.0;"/><ellipse cx="1886.5" cy="621.5" fill="#000000" rx="3" ry="3" style="stroke:#000000;stroke-width:1.0;"/><path d="M1487,611.5 L1500,611.5 C1596.6232,611.5 1708.6694,611.5 1777.055,611.5 " fill="none" style="stroke:#000000;stroke-width:1.0;stroke-dasharray:3.0,3.0;"/><path d="M1777.055,614.5835 L1779.3676,611.5 L1777.055,608.4165 L1784.7637,611.5 L1777.055,614.5835 " fill="#000000" style="stroke:#000000;stroke-width:1.0;"/><ellipse cx="1487" cy="611.5" fill="#000000" rx="3" ry="3" style="stroke:#000000;stroke-width:1.0;"/><path d="M1016,561.5 L1029,561.5 C1063.1297,561.5 1071.1055,568.4995 1105,572.5 C1184.5051,581.8838 1275.5362,589.9335 1339.5913,595.1543 " fill="none" style="stroke:#000000;stroke-width:1.0;stroke-dasharray:3.0,3.0;"/><path d="M1339.3422,598.2244 L1341.8939,595.3411 L1339.8403,592.0842 L1347.2665,595.7769 L1339.3422,598.2244 " fill="#000000" style="stroke:#000000;stroke-width:1.0;"/><ellipse cx="1016" cy="561.5" fill="#000000" rx="3" ry="3" style="stroke:#000000;stroke-width:1.0;"/><path d="M796,524.5 L809,524.5 C849.6369,524.5 894.7335,537.9616 924.125,548.6452 " fill="none" style="stroke:#000000;stroke-width:1.0;stroke-dasharray:3.0,3.0;"/><path d="M923.0665,551.4939 L926.2616,549.4391 L925.1836,545.7965 L931.2468,551.2916 L923.0665,551.4939 " fill="#000000" style="stroke:#000000;stroke-width:1.0;"/><ellipse cx="796" cy="524.5" fill="#000000" rx="3" ry="3" style="stroke:#000000;stroke-width:1.0;"/><path d="M608,438.5 L621,438.5 C639.2388,438.5 676.54,466.7896 702.8543,488.8493 " fill="none" style="stroke:#000000;stroke-width:1.0;stroke-dasharray:3.0,3.0;"/><path d="M700.901,491.1569 L704.585,490.3143 L704.8077,486.5418 L708.6233,493.7327 L700.901,491.1569 " fill="#000000" style="stroke:#000000;stroke-width:1.0;"/><ellipse cx="608" cy="438.5" fill="#000000" rx="3" ry="3" style="stroke:#000000;stroke-width:1.0;"/><path d="M414,418.5 L427,418.5 C436.292,418.5 446.0101,418.5 455.6854,418.5 " fill="none" style="stroke:#000000;stroke-width:1.0;stroke-dasharray:3.0,3.0;"/><path d="M455.6854,421.5965 L458.0078,418.5 L455.6854,415.4035 L463.4267,418.5 L455.6854,421.5965 " fill="#000000" style="stroke:#000000;stroke-width:1.0;"/><ellipse cx="414" cy="418.5" fill="#000000" rx="3" ry="3" style="stroke:#000000;stroke-width:1.0;"/><!--SRC=[lLTRJnf157xVNp7PzW4I0MkCRNZIej0qh2KYzlcmUrX6TsUsPyvoQSD_xymY11KKHUI1PCxrEtSuDGp4jqOhxvydxCV_RC8Xfk3NXJzapkgrckDMvjIgfhWM4GouSlYrDgTzyW_ccZpDqAdf_Ys6lAHAJWhoJR0WHMX2aXbBhGg69CuX4G64GwbG318OQHA5kNkDZ7I6n1ADLPW3BUYD8H24Z2GDo_0XSpEc9NU3sIN_Z2mYjeevuLg91puCarJn8nzBgKT1hveMUY1uYA9P15xrdnYOFRNfDpgzbo59nHWZROdfCa_xI0wDDIv2JMZU12t0LDFqlT6TfJfNx01TdGLlmjNQPyfQEwMioveWnlU6Tsrnm39lvjx9KqJU-jSAKh-pULPsdB8sCAfmke_OaxdfjvK4mvmaJxiCAWAApCi0WGYcMy9RcBTLkRSlJ9vbcXWZqP-ku1KbhCRL0z4wxroLgvlCssMIReQuRb6j5Pnjjto0-berjURCckANCxEsCxRjaANSHThNaSJeMQbNjCocsYpyYB28Sz4-IaSexCM9na3kHIaayk-yN9ADm4bcWxJlH0wGPOfLVwFRsMP4_Y-R371O8Dbtf4sxiK8m3ZICq6s7HSpEdZAkGLUZ7xZ3x1uuON4fnb95UcngGvsJUIxQ7NhjjwQxH4FKUFxKxpICQzAGixJ5BShmYWpiFfoBEcwRiMrMjqxaclswwu-ZE2QCWQ6Vu4SjW42gXhjc-nuBwqUcUIe8_-IIR5UevPsNoYtiS8ixlyse1p3vc81Wyeu1xTgRtlnxvfsYYee_7rud0SMze2ti-1atSr-gHuT7nzNZFZASb7hgJkcnih-mqamcADnsBNkbLgSjZ9sy44KatLdhvoxYilSJHY2kR6AjN5suL-awA8lknO8eBjH8abOfAlP-tWHp8V53SpVJN0YV75U-InPT98j9t0JUEGuWJzYgXlOygBWkUjVDoZUl3IhExSwe2rHUKKwQMbxtFm00]--></g></svg>