<?xml version="1.0" encoding="us-ascii" standalone="no"?><svg xmlns="http://www.w3.org/2000/svg" xmlns:xlink="http://www.w3.org/1999/xlink" contentStyleType="text/css" height="707px" preserveAspectRatio="none" style="width:2478px;height:707px;background:#FFFFFF;" version="1.1" viewBox="0 0 2478 707" width="2478px" zoomAndPan="magnify"><defs/><g><rect fill="#F1F1F1" height="101.4844" rx="5" ry="5" style="stroke:#F1F1F1;stroke-width:1.5;" width="416" x="10" y="371.7578"/><text fill="#000000" font-family="sans-serif" font-size="14" font-weight="bold" lengthAdjust="spacing" textLength="72" x="15" y="386.7529">$schema</text><text fill="#000000" font-family="sans-serif" font-size="14" lengthAdjust="spacing" textLength="304" x="117" y="386.7529">http://json-schema.org/draft-07/schema#</text><line style="stroke:#000000;stroke-width:1.0;" x1="112" x2="112" y1="371.7578" y2="392.0547"/><line style="stroke:#000000;stroke-width:1.0;" x1="10" x2="426" y1="392.0547" y2="392.0547"/><text fill="#000000" font-family="sans-serif" font-size="14" font-weight="bold" lengthAdjust="spacing" textLength="36" x="15" y="407.0498">type</text><text fill="#000000" font-family="sans-serif" font-size="14" lengthAdjust="spacing" textLength="47" x="117" y="407.0498">object</text><line style="stroke:#000000;stroke-width:1.0;" x1="112" x2="112" y1="392.0547" y2="412.3516"/><line style="stroke:#000000;stroke-width:1.0;" x1="10" x2="426" y1="412.3516" y2="412.3516"/><text fill="#000000" font-family="sans-serif" font-size="14" font-weight="bold" lengthAdjust="spacing" textLength="35" x="15" y="427.3467">title</text><text fill="#000000" font-family="sans-serif" font-size="14" lengthAdjust="spacing" textLength="22" x="117" y="427.3467">VM</text><line style="stroke:#000000;stroke-width:1.0;" x1="112" x2="112" y1="412.3516" y2="432.6484"/><line style="stroke:#000000;stroke-width:1.0;" x1="10" x2="426" y1="432.6484" y2="432.6484"/><text fill="#000000" font-family="sans-serif" font-size="14" font-weight="bold" lengthAdjust="spacing" textLength="92" x="15" y="447.6436">description</text><text fill="#000000" font-family="sans-serif" font-size="14" lengthAdjust="spacing" textLength="193" x="117" y="447.6436">Virtual Machine flavor type</text><line style="stroke:#000000;stroke-width:1.0;" x1="112" x2="112" y1="432.6484" y2="452.9453"/><line style="stroke:#000000;stroke-width:1.0;" x1="10" x2="426" y1="452.9453" y2="452.9453"/><text fill="#000000" font-family="sans-serif" font-size="14" font-weight="bold" lengthAdjust="spacing" textLength="84" x="15" y="467.9404">properties</text><text fill="#000000" font-family="sans-serif" font-size="14" lengthAdjust="spacing" textLength="12" x="117" y="467.9404">&#160;&#160;&#160;</text><line style="stroke:#000000;stroke-width:1.0;" x1="112" x2="112" y1="452.9453" y2="473.2422"/><rect fill="none" height="101.4844" rx="5" ry="5" style="stroke:#000000;stroke-width:1.5;" width="416" x="10" y="371.7578"/><rect fill="#F1F1F1" height="60.8906" rx="5" ry="5" style="stroke:#F1F1F1;stroke-width:1.5;" width="157" x="463" y="433"/><text fill="#000000" font-family="sans-serif" font-size="14" font-weight="bold" lengthAdjust="spacing" textLength="125" x="468" y="447.9951">Characteristics</text><text fill="#000000" font-family="sans-serif" font-size="14" lengthAdjust="spacing" textLength="12" x="603" y="447.9951">&#160;&#160;&#160;</text><line style="stroke:#000000;stroke-width:1.0;" x1="598" x2="598" y1="433" y2="453.2969"/><line style="stroke:#000000;stroke-width:1.0;" x1="463" x2="620" y1="453.2969" y2="453.2969"/><text fill="#000000" font-family="sans-serif" font-size="14" font-weight="bold" lengthAdjust="spacing" textLength="84" x="468" y="468.292">Properties</text><text fill="#000000" font-family="sans-serif" font-size="14" lengthAdjust="spacing" textLength="12" x="603" y="468.292">&#160;&#160;&#160;</text><line style="stroke:#000000;stroke-width:1.0;" x1="598" x2="598" y1="453.2969" y2="473.5938"/><line style="stroke:#000000;stroke-width:1.0;" x1="463" x2="620" y1="473.5938" y2="473.5938"/><text fill="#000000" font-family="sans-serif" font-size="14" font-weight="bold" lengthAdjust="spacing" textLength="48" x="468" y="488.5889">Policy</text><text fill="#000000" font-family="sans-serif" font-size="14" lengthAdjust="spacing" textLength="12" x="603" y="488.5889">&#160;&#160;&#160;</text><line style="stroke:#000000;stroke-width:1.0;" x1="598" x2="598" y1="473.5938" y2="493.8906"/><rect fill="none" height="60.8906" rx="5" ry="5" style="stroke:#000000;stroke-width:1.5;" width="157" x="463" y="433"/><rect fill="#F1F1F1" height="40.5938" rx="5" ry="5" style="stroke:#F1F1F1;stroke-width:1.5;" width="151" x="657" y="276"/><text fill="#000000" font-family="sans-serif" font-size="14" font-weight="bold" lengthAdjust="spacing" textLength="36" x="662" y="290.9951">type</text><text fill="#000000" font-family="sans-serif" font-size="14" lengthAdjust="spacing" textLength="47" x="756" y="290.9951">object</text><line style="stroke:#000000;stroke-width:1.0;" x1="751" x2="751" y1="276" y2="296.2969"/><line style="stroke:#000000;stroke-width:1.0;" x1="657" x2="808" y1="296.2969" y2="296.2969"/><text fill="#000000" font-family="sans-serif" font-size="14" font-weight="bold" lengthAdjust="spacing" textLength="84" x="662" y="311.292">properties</text><text fill="#000000" font-family="sans-serif" font-size="14" lengthAdjust="spacing" textLength="12" x="756" y="311.292">&#160;&#160;&#160;</text><line style="stroke:#000000;stroke-width:1.0;" x1="751" x2="751" y1="296.2969" y2="316.5938"/><rect fill="none" height="40.5938" rx="5" ry="5" style="stroke:#000000;stroke-width:1.5;" width="151" x="657" y="276"/><rect fill="#F1F1F1" height="121.7813" rx="5" ry="5" style="stroke:#F1F1F1;stroke-width:1.5;" width="134" x="869.5" y="136.5"/><text fill="#000000" font-family="sans-serif" font-size="14" font-weight="bold" lengthAdjust="spacing" textLength="102" x="874.5" y="151.4951">Architecture</text><text fill="#000000" font-family="sans-serif" font-size="14" lengthAdjust="spacing" textLength="12" x="986.5" y="151.4951">&#160;&#160;&#160;</text><line style="stroke:#000000;stroke-width:1.0;" x1="981.5" x2="981.5" y1="136.5" y2="156.7969"/><line style="stroke:#000000;stroke-width:1.0;" x1="869.5" x2="1003.5" y1="156.7969" y2="156.7969"/><text fill="#000000" font-family="sans-serif" font-size="14" font-weight="bold" lengthAdjust="spacing" textLength="22" x="874.5" y="171.792">OS</text><text fill="#000000" font-family="sans-serif" font-size="14" lengthAdjust="spacing" textLength="12" x="986.5" y="171.792">&#160;&#160;&#160;</text><line style="stroke:#000000;stroke-width:1.0;" x1="981.5" x2="981.5" y1="156.7969" y2="177.0938"/><line style="stroke:#000000;stroke-width:1.0;" x1="869.5" x2="1003.5" y1="177.0938" y2="177.0938"/><text fill="#000000" font-family="sans-serif" font-size="14" font-weight="bold" lengthAdjust="spacing" textLength="31" x="874.5" y="192.0889">CPU</text><text fill="#000000" font-family="sans-serif" font-size="14" lengthAdjust="spacing" textLength="12" x="986.5" y="192.0889">&#160;&#160;&#160;</text><line style="stroke:#000000;stroke-width:1.0;" x1="981.5" x2="981.5" y1="177.0938" y2="197.3906"/><line style="stroke:#000000;stroke-width:1.0;" x1="869.5" x2="1003.5" y1="197.3906" y2="197.3906"/><text fill="#000000" font-family="sans-serif" font-size="14" font-weight="bold" lengthAdjust="spacing" textLength="64" x="874.5" y="212.3857">Memory</text><text fill="#000000" font-family="sans-serif" font-size="14" lengthAdjust="spacing" textLength="12" x="986.5" y="212.3857">&#160;&#160;&#160;</text><line style="stroke:#000000;stroke-width:1.0;" x1="981.5" x2="981.5" y1="197.3906" y2="217.6875"/><line style="stroke:#000000;stroke-width:1.0;" x1="869.5" x2="1003.5" y1="217.6875" y2="217.6875"/><text fill="#000000" font-family="sans-serif" font-size="14" font-weight="bold" lengthAdjust="spacing" textLength="33" x="874.5" y="232.6826">GPU</text><text fill="#000000" font-family="sans-serif" font-size="14" lengthAdjust="spacing" textLength="12" x="986.5" y="232.6826">&#160;&#160;&#160;</text><line style="stroke:#000000;stroke-width:1.0;" x1="981.5" x2="981.5" y1="217.6875" y2="237.9844"/><line style="stroke:#000000;stroke-width:1.0;" x1="869.5" x2="1003.5" y1="237.9844" y2="237.9844"/><text fill="#000000" font-family="sans-serif" font-size="14" font-weight="bold" lengthAdjust="spacing" textLength="64" x="874.5" y="252.9795">Storage</text><text fill="#000000" font-family="sans-serif" font-size="14" lengthAdjust="spacing" textLength="12" x="986.5" y="252.9795">&#160;&#160;&#160;</text><line style="stroke:#000000;stroke-width:1.0;" x1="981.5" x2="981.5" y1="237.9844" y2="258.2813"/><rect fill="none" height="121.7813" rx="5" ry="5" style="stroke:#000000;stroke-width:1.5;" width="134" x="869.5" y="136.5"/><rect fill="#F1F1F1" height="40.5938" rx="5" ry="5" style="stroke:#F1F1F1;stroke-width:1.5;" width="303" x="1172.5" y="10"/><text fill="#000000" font-family="sans-serif" font-size="14" font-weight="bold" lengthAdjust="spacing" textLength="36" x="1177.5" y="24.9951">type</text><text fill="#000000" font-family="sans-serif" font-size="14" lengthAdjust="spacing" textLength="42" x="1279.5" y="24.9951">string</text><line style="stroke:#000000;stroke-width:1.0;" x1="1274.5" x2="1274.5" y1="10" y2="30.2969"/><line style="stroke:#000000;stroke-width:1.0;" x1="1172.5" x2="1475.5" y1="30.2969" y2="30.2969"/><text fill="#000000" font-family="sans-serif" font-size="14" font-weight="bold" lengthAdjust="spacing" textLength="92" x="1177.5" y="45.292">description</text><text fill="#000000" font-family="sans-serif" font-size="14" lengthAdjust="spacing" textLength="191" x="1279.5" y="45.292">Architecture of the Flavor.</text><line style="stroke:#000000;stroke-width:1.0;" x1="1274.5" x2="1274.5" y1="30.2969" y2="50.5938"/><rect fill="none" height="40.5938" rx="5" ry="5" style="stroke:#000000;stroke-width:1.5;" width="303" x="1172.5" y="10"/><rect fill="#F1F1F1" height="40.5938" rx="5" ry="5" style="stroke:#F1F1F1;stroke-width:1.5;" width="428" x="1110" y="69"/><text fill="#000000" font-family="sans-serif" font-size="14" font-weight="bold" lengthAdjust="spacing" textLength="36" x="1115" y="83.9951">type</text><text fill="#000000" font-family="sans-serif" font-size="14" lengthAdjust="spacing" textLength="42" x="1217" y="83.9951">string</text><line style="stroke:#000000;stroke-width:1.0;" x1="1212" x2="1212" y1="69" y2="89.2969"/><line style="stroke:#000000;stroke-width:1.0;" x1="1110" x2="1538" y1="89.2969" y2="89.2969"/><text fill="#000000" font-family="sans-serif" font-size="14" font-weight="bold" lengthAdjust="spacing" textLength="92" x="1115" y="104.292">description</text><text fill="#000000" font-family="sans-serif" font-size="14" lengthAdjust="spacing" textLength="316" x="1217" y="104.292">The Operating System of the advertised VM</text><line style="stroke:#000000;stroke-width:1.0;" x1="1212" x2="1212" y1="89.2969" y2="109.5938"/><rect fill="none" height="40.5938" rx="5" ry="5" style="stroke:#000000;stroke-width:1.5;" width="428" x="1110" y="69"/><rect fill="#F1F1F1" height="40.5938" rx="5" ry="5" style="stroke:#F1F1F1;stroke-width:1.5;" width="363" x="1142.5" y="128"/><text fill="#000000" font-family="sans-serif" font-size="14" font-weight="bold" lengthAdjust="spacing" textLength="36" x="1147.5" y="142.9951">type</text><text fill="#000000" font-family="sans-serif" font-size="14" lengthAdjust="spacing" textLength="53" x="1249.5" y="142.9951">integer</text><line style="stroke:#000000;stroke-width:1.0;" x1="1244.5" x2="1244.5" y1="128" y2="148.2969"/><line style="stroke:#000000;stroke-width:1.0;" x1="1142.5" x2="1505.5" y1="148.2969" y2="148.2969"/><text fill="#000000" font-family="sans-serif" font-size="14" font-weight="bold" lengthAdjust="spacing" textLength="92" x="1147.5" y="163.292">description</text><text fill="#000000" font-family="sans-serif" font-size="14" lengthAdjust="spacing" textLength="251" x="1249.5" y="163.292">Number of CPU cores of the Flavor.</text><line style="stroke:#000000;stroke-width:1.0;" x1="1244.5" x2="1244.5" y1="148.2969" y2="168.5938"/><rect fill="none" height="40.5938" rx="5" ry="5" style="stroke:#000000;stroke-width:1.5;" width="363" x="1142.5" y="128"/><rect fill="#F1F1F1" height="40.5938" rx="5" ry="5" style="stroke:#F1F1F1;stroke-width:1.5;" width="324" x="1162" y="187"/><text fill="#000000" font-family="sans-serif" font-size="14" font-weight="bold" lengthAdjust="spacing" textLength="36" x="1167" y="201.9951">type</text><text fill="#000000" font-family="sans-serif" font-size="14" lengthAdjust="spacing" textLength="53" x="1269" y="201.9951">integer</text><line style="stroke:#000000;stroke-width:1.0;" x1="1264" x2="1264" y1="187" y2="207.2969"/><line style="stroke:#000000;stroke-width:1.0;" x1="1162" x2="1486" y1="207.2969" y2="207.2969"/><text fill="#000000" font-family="sans-serif" font-size="14" font-weight="bold" lengthAdjust="spacing" textLength="92" x="1167" y="222.292">description</text><text fill="#000000" font-family="sans-serif" font-size="14" lengthAdjust="spacing" textLength="212" x="1269" y="222.292">Amount of RAM of the Flavor.</text><line style="stroke:#000000;stroke-width:1.0;" x1="1264" x2="1264" y1="207.2969" y2="227.5938"/><rect fill="none" height="40.5938" rx="5" ry="5" style="stroke:#000000;stroke-width:1.5;" width="324" x="1162" y="187"/><rect fill="#F1F1F1" height="60.8906" rx="5" ry="5" style="stroke:#F1F1F1;stroke-width:1.5;" width="351" x="1148.5" y="246"/><text fill="#000000" font-family="sans-serif" font-size="14" font-weight="bold" lengthAdjust="spacing" textLength="36" x="1153.5" y="260.9951">type</text><text fill="#000000" font-family="sans-serif" font-size="14" lengthAdjust="spacing" textLength="47" x="1255.5" y="260.9951">object</text><line style="stroke:#000000;stroke-width:1.0;" x1="1250.5" x2="1250.5" y1="246" y2="266.2969"/><line style="stroke:#000000;stroke-width:1.0;" x1="1148.5" x2="1499.5" y1="266.2969" y2="266.2969"/><text fill="#000000" font-family="sans-serif" font-size="14" font-weight="bold" lengthAdjust="spacing" textLength="92" x="1153.5" y="281.292">description</text><text fill="#000000" font-family="sans-serif" font-size="14" lengthAdjust="spacing" textLength="239" x="1255.5" y="281.292">GPU characteristics of the Flavor.</text><line style="stroke:#000000;stroke-width:1.0;" x1="1250.5" x2="1250.5" y1="266.2969" y2="286.5938"/><line style="stroke:#000000;stroke-width:1.0;" x1="1148.5" x2="1499.5" y1="286.5938" y2="286.5938"/><text fill="#000000" font-family="sans-serif" font-size="14" font-weight="bold" lengthAdjust="spacing" textLength="84" x="1153.5" y="301.5889">properties</text><text fill="#000000" font-family="sans-serif" font-size="14" lengthAdjust="spacing" textLength="12" x="1255.5" y="301.5889">&#160;&#160;&#160;</text><line style="stroke:#000000;stroke-width:1.0;" x1="1250.5" x2="1250.5" y1="286.5938" y2="306.8906"/><rect fill="none" height="60.8906" rx="5" ry="5" style="stroke:#000000;stroke-width:1.5;" width="351" x="1148.5" y="246"/><rect fill="#F1F1F1" height="40.5938" rx="5" ry="5" style="stroke:#F1F1F1;stroke-width:1.5;" width="113" x="1627.5" y="276"/><text fill="#000000" font-family="sans-serif" font-size="14" font-weight="bold" lengthAdjust="spacing" textLength="81" x="1632.5" y="290.9951">GPUModel</text><text fill="#000000" font-family="sans-serif" font-size="14" lengthAdjust="spacing" textLength="12" x="1723.5" y="290.9951">&#160;&#160;&#160;</text><line style="stroke:#000000;stroke-width:1.0;" x1="1718.5" x2="1718.5" y1="276" y2="296.2969"/><line style="stroke:#000000;stroke-width:1.0;" x1="1627.5" x2="1740.5" y1="296.2969" y2="296.2969"/><text fill="#000000" font-family="sans-serif" font-size="14" font-weight="bold" lengthAdjust="spacing" textLength="78" x="1632.5" y="311.292">GPUCores</text><text fill="#000000" font-family="sans-serif" font-size="14" lengthAdjust="spacing" textLength="12" x="1723.5" y="311.292">&#160;&#160;&#160;</text><line style="stroke:#000000;stroke-width:1.0;" x1="1718.5" x2="1718.5" y1="296.2969" y2="316.5938"/><rect fill="none" height="40.5938" rx="5" ry="5" style="stroke:#000000;stroke-width:1.5;" width="113" x="1627.5" y="276"/><rect fill="#F1F1F1" height="40.5938" rx="5" ry="5" style="stroke:#F1F1F1;stroke-width:1.5;" width="493" x="1879" y="247"/><text fill="#000000" font-family="sans-serif" font-size="14" font-weight="bold" lengthAdjust="spacing" textLength="36" x="1884" y="261.9951">type</text><text fill="#000000" font-family="sans-serif" font-size="14" lengthAdjust="spacing" textLength="42" x="1986" y="261.9951">string</text><line style="stroke:#000000;stroke-width:1.0;" x1="1981" x2="1981" y1="247" y2="267.2969"/><line style="stroke:#000000;stroke-width:1.0;" x1="1879" x2="2372" y1="267.2969" y2="267.2969"/><text fill="#000000" font-family="sans-serif" font-size="14" font-weight="bold" lengthAdjust="spacing" textLength="92" x="1884" y="282.292">description</text><text fill="#000000" font-family="sans-serif" font-size="14" lengthAdjust="spacing" textLength="381" x="1986" y="282.292">The model of the GPU offered for the specific Flavor.</text><line style="stroke:#000000;stroke-width:1.0;" x1="1981" x2="1981" y1="267.2969" y2="287.5938"/><rect fill="none" height="40.5938" rx="5" ry="5" style="stroke:#000000;stroke-width:1.5;" width="493" x="1879" y="247"/><rect fill="#F1F1F1" height="40.5938" rx="5" ry="5" style="stroke:#F1F1F1;stroke-width:1.5;" width="477" x="1887" y="306"/><text fill="#000000" font-family="sans-serif" font-size="14" font-weight="bold" lengthAdjust="spacing" textLength="36" x="1892" y="320.9951">type</text><text fill="#000000" font-family="sans-serif" font-size="14" lengthAdjust="spacing" textLength="53" x="1994" y="320.9951">integer</text><line style="stroke:#000000;stroke-width:1.0;" x1="1989" x2="1989" y1="306" y2="326.2969"/><line style="stroke:#000000;stroke-width:1.0;" x1="1887" x2="2364" y1="326.2969" y2="326.2969"/><text fill="#000000" font-family="sans-serif" font-size="14" font-weight="bold" lengthAdjust="spacing" textLength="92" x="1892" y="341.292">description</text><text fill="#000000" font-family="sans-serif" font-size="14" lengthAdjust="spacing" textLength="365" x="1994" y="341.292">The number of GPU cores advertised by the Flavor.</text><line style="stroke:#000000;stroke-width:1.0;" x1="1989" x2="1989" y1="326.2969" y2="346.5938"/><rect fill="none" height="40.5938" rx="5" ry="5" style="stroke:#000000;stroke-width:1.5;" width="477" x="1887" y="306"/><rect fill="#F1F1F1" height="40.5938" rx="5" ry="5" style="stroke:#F1F1F1;stroke-width:1.5;" width="276" x="1186" y="325"/><text fill="#000000" font-family="sans-serif" font-size="14" font-weight="bold" lengthAdjust="spacing" textLength="36" x="1191" y="339.9951">type</text><text fill="#000000" font-family="sans-serif" font-size="14" lengthAdjust="spacing" textLength="53" x="1293" y="339.9951">integer</text><line style="stroke:#000000;stroke-width:1.0;" x1="1288" x2="1288" y1="325" y2="345.2969"/><line style="stroke:#000000;stroke-width:1.0;" x1="1186" x2="1462" y1="345.2969" y2="345.2969"/><text fill="#000000" font-family="sans-serif" font-size="14" font-weight="bold" lengthAdjust="spacing" textLength="92" x="1191" y="360.292">description</text><text fill="#000000" font-family="sans-serif" font-size="14" lengthAdjust="spacing" textLength="164" x="1293" y="360.292">The amount of storage</text><line style="stroke:#000000;stroke-width:1.0;" x1="1288" x2="1288" y1="345.2969" y2="365.5938"/><rect fill="none" height="40.5938" rx="5" ry="5" style="stroke:#000000;stroke-width:1.5;" width="276" x="1186" y="325"/><rect fill="#F1F1F1" height="40.5938" rx="5" ry="5" style="stroke:#F1F1F1;stroke-width:1.5;" width="151" x="657" y="443"/><text fill="#000000" font-family="sans-serif" font-size="14" font-weight="bold" lengthAdjust="spacing" textLength="36" x="662" y="457.9951">type</text><text fill="#000000" font-family="sans-serif" font-size="14" lengthAdjust="spacing" textLength="47" x="756" y="457.9951">object</text><line style="stroke:#000000;stroke-width:1.0;" x1="751" x2="751" y1="443" y2="463.2969"/><line style="stroke:#000000;stroke-width:1.0;" x1="657" x2="808" y1="463.2969" y2="463.2969"/><text fill="#000000" font-family="sans-serif" font-size="14" font-weight="bold" lengthAdjust="spacing" textLength="84" x="662" y="478.292">properties</text><text fill="#000000" font-family="sans-serif" font-size="14" lengthAdjust="spacing" textLength="12" x="756" y="478.292">&#160;&#160;&#160;</text><line style="stroke:#000000;stroke-width:1.0;" x1="751" x2="751" y1="463.2969" y2="483.5938"/><rect fill="none" height="40.5938" rx="5" ry="5" style="stroke:#000000;stroke-width:1.5;" width="151" x="657" y="443"/><rect fill="#F1F1F1" height="60.8906" rx="5" ry="5" style="stroke:#F1F1F1;stroke-width:1.5;" width="183" x="845" y="443"/><text fill="#000000" font-family="sans-serif" font-size="14" font-weight="bold" lengthAdjust="spacing" textLength="64" x="850" y="457.9951">Latency</text><text fill="#000000" font-family="sans-serif" font-size="14" lengthAdjust="spacing" textLength="12" x="1011" y="457.9951">&#160;&#160;&#160;</text><line style="stroke:#000000;stroke-width:1.0;" x1="1006" x2="1006" y1="443" y2="463.2969"/><line style="stroke:#000000;stroke-width:1.0;" x1="845" x2="1028" y1="463.2969" y2="463.2969"/><text fill="#000000" font-family="sans-serif" font-size="14" font-weight="bold" lengthAdjust="spacing" textLength="151" x="850" y="478.292">SecurityStandards</text><text fill="#000000" font-family="sans-serif" font-size="14" lengthAdjust="spacing" textLength="12" x="1011" y="478.292">&#160;&#160;&#160;</text><line style="stroke:#000000;stroke-width:1.0;" x1="1006" x2="1006" y1="463.2969" y2="483.5938"/><line style="stroke:#000000;stroke-width:1.0;" x1="845" x2="1028" y1="483.5938" y2="483.5938"/><text fill="#000000" font-family="sans-serif" font-size="14" font-weight="bold" lengthAdjust="spacing" textLength="134" x="850" y="498.5889">CarbonFootprint</text><text fill="#000000" font-family="sans-serif" font-size="14" lengthAdjust="spacing" textLength="12" x="1011" y="498.5889">&#160;&#160;&#160;</text><line style="stroke:#000000;stroke-width:1.0;" x1="1006" x2="1006" y1="483.5938" y2="503.8906"/><rect fill="none" height="60.8906" rx="5" ry="5" style="stroke:#000000;stroke-width:1.5;" width="183" x="845" y="443"/><rect fill="#F1F1F1" height="40.5938" rx="5" ry="5" style="stroke:#F1F1F1;stroke-width:1.5;" width="296" x="1176" y="384"/><text fill="#000000" font-family="sans-serif" font-size="14" font-weight="bold" lengthAdjust="spacing" textLength="36" x="1181" y="398.9951">type</text><text fill="#000000" font-family="sans-serif" font-size="14" lengthAdjust="spacing" textLength="53" x="1283" y="398.9951">integer</text><line style="stroke:#000000;stroke-width:1.0;" x1="1278" x2="1278" y1="384" y2="404.2969"/><line style="stroke:#000000;stroke-width:1.0;" x1="1176" x2="1472" y1="404.2969" y2="404.2969"/><text fill="#000000" font-family="sans-serif" font-size="14" font-weight="bold" lengthAdjust="spacing" textLength="92" x="1181" y="419.292">description</text><text fill="#000000" font-family="sans-serif" font-size="14" lengthAdjust="spacing" textLength="184" x="1283" y="419.292">The latency of the Flavor.</text><line style="stroke:#000000;stroke-width:1.0;" x1="1278" x2="1278" y1="404.2969" y2="424.5938"/><rect fill="none" height="40.5938" rx="5" ry="5" style="stroke:#000000;stroke-width:1.5;" width="296" x="1176" y="384"/><rect fill="#F1F1F1" height="60.8906" rx="5" ry="5" style="stroke:#F1F1F1;stroke-width:1.5;" width="518" x="1065" y="443"/><text fill="#000000" font-family="sans-serif" font-size="14" font-weight="bold" lengthAdjust="spacing" textLength="36" x="1070" y="457.9951">type</text><text fill="#000000" font-family="sans-serif" font-size="14" lengthAdjust="spacing" textLength="36" x="1172" y="457.9951">array</text><line style="stroke:#000000;stroke-width:1.0;" x1="1167" x2="1167" y1="443" y2="463.2969"/><line style="stroke:#000000;stroke-width:1.0;" x1="1065" x2="1583" y1="463.2969" y2="463.2969"/><text fill="#000000" font-family="sans-serif" font-size="14" font-weight="bold" lengthAdjust="spacing" textLength="92" x="1070" y="478.292">description</text><text fill="#000000" font-family="sans-serif" font-size="14" lengthAdjust="spacing" textLength="406" x="1172" y="478.292">Security standards supported by the Flavor (e.g., GDPR).</text><line style="stroke:#000000;stroke-width:1.0;" x1="1167" x2="1167" y1="463.2969" y2="483.5938"/><line style="stroke:#000000;stroke-width:1.0;" x1="1065" x2="1583" y1="483.5938" y2="483.5938"/><text fill="#000000" font-family="sans-serif" font-size="14" font-weight="bold" lengthAdjust="spacing" textLength="46" x="1070" y="498.5889">items</text><text fill="#000000" font-family="sans-serif" font-size="14" lengthAdjust="spacing" textLength="12" x="1172" y="498.5889">&#160;&#160;&#160;</text><line style="stroke:#000000;stroke-width:1.0;" x1="1167" x2="1167" y1="483.5938" y2="503.8906"/><rect fill="none" height="60.8906" rx="5" ry="5" style="stroke:#000000;stroke-width:1.5;" width="518" x="1065" y="443"/><rect fill="#F1F1F1" height="20.2969" rx="5" ry="5" style="stroke:#F1F1F1;stroke-width:1.5;" width="98" x="1635" y="483.3516"/><text fill="#000000" font-family="sans-serif" font-size="14" font-weight="bold" lengthAdjust="spacing" textLength="36" x="1640" y="498.3467">type</text><text fill="#000000" font-family="sans-serif" font-size="14" lengthAdjust="spacing" textLength="42" x="1686" y="498.3467">string</text><line style="stroke:#000000;stroke-width:1.0;" x1="1681" x2="1681" y1="483.3516" y2="503.6484"/><rect fill="none" height="20.2969" rx="5" ry="5" style="stroke:#000000;stroke-width:1.5;" width="98" x="1635" y="483.3516"/><rect fill="#F1F1F1" height="40.5938" rx="5" ry="5" style="stroke:#F1F1F1;stroke-width:1.5;" width="151" x="1248.5" y="522"/><text fill="#000000" font-family="sans-serif" font-size="14" font-weight="bold" lengthAdjust="spacing" textLength="36" x="1253.5" y="536.9951">type</text><text fill="#000000" font-family="sans-serif" font-size="14" lengthAdjust="spacing" textLength="47" x="1347.5" y="536.9951">object</text><line style="stroke:#000000;stroke-width:1.0;" x1="1342.5" x2="1342.5" y1="522" y2="542.2969"/><line style="stroke:#000000;stroke-width:1.0;" x1="1248.5" x2="1399.5" y1="542.2969" y2="542.2969"/><text fill="#000000" font-family="sans-serif" font-size="14" font-weight="bold" lengthAdjust="spacing" textLength="84" x="1253.5" y="557.292">properties</text><text fill="#000000" font-family="sans-serif" font-size="14" lengthAdjust="spacing" textLength="12" x="1347.5" y="557.292">&#160;&#160;&#160;</text><line style="stroke:#000000;stroke-width:1.0;" x1="1342.5" x2="1342.5" y1="542.2969" y2="562.5938"/><rect fill="none" height="40.5938" rx="5" ry="5" style="stroke:#000000;stroke-width:1.5;" width="151" x="1248.5" y="522"/><rect fill="#F1F1F1" height="40.5938" rx="5" ry="5" style="stroke:#F1F1F1;stroke-width:1.5;" width="128" x="1620" y="527"/><text fill="#000000" font-family="sans-serif" font-size="14" font-weight="bold" lengthAdjust="spacing" textLength="78" x="1625" y="541.9951">Embodied</text><text fill="#000000" font-family="sans-serif" font-size="14" lengthAdjust="spacing" textLength="12" x="1731" y="541.9951">&#160;&#160;&#160;</text><line style="stroke:#000000;stroke-width:1.0;" x1="1726" x2="1726" y1="527" y2="547.2969"/><line style="stroke:#000000;stroke-width:1.0;" x1="1620" x2="1748" y1="547.2969" y2="547.2969"/><text fill="#000000" font-family="sans-serif" font-size="14" font-weight="bold" lengthAdjust="spacing" textLength="96" x="1625" y="562.292">Operational</text><text fill="#000000" font-family="sans-serif" font-size="14" lengthAdjust="spacing" textLength="12" x="1731" y="562.292">&#160;&#160;&#160;</text><line style="stroke:#000000;stroke-width:1.0;" x1="1726" x2="1726" y1="547.2969" y2="567.5938"/><rect fill="none" height="40.5938" rx="5" ry="5" style="stroke:#000000;stroke-width:1.5;" width="128" x="1620" y="527"/><rect fill="#F1F1F1" height="40.5938" rx="5" ry="5" style="stroke:#F1F1F1;stroke-width:1.5;" width="664" x="1793.5" y="478"/><text fill="#000000" font-family="sans-serif" font-size="14" font-weight="bold" lengthAdjust="spacing" textLength="36" x="1798.5" y="492.9951">type</text><text fill="#000000" font-family="sans-serif" font-size="14" lengthAdjust="spacing" textLength="53" x="1900.5" y="492.9951">integer</text><line style="stroke:#000000;stroke-width:1.0;" x1="1895.5" x2="1895.5" y1="478" y2="498.2969"/><line style="stroke:#000000;stroke-width:1.0;" x1="1793.5" x2="2457.5" y1="498.2969" y2="498.2969"/><text fill="#000000" font-family="sans-serif" font-size="14" font-weight="bold" lengthAdjust="spacing" textLength="92" x="1798.5" y="513.292">description</text><text fill="#000000" font-family="sans-serif" font-size="14" lengthAdjust="spacing" textLength="552" x="1900.5" y="513.292">Embodied carbon of the node hardware normalized by its expected lifetime.</text><line style="stroke:#000000;stroke-width:1.0;" x1="1895.5" x2="1895.5" y1="498.2969" y2="518.5938"/><rect fill="none" height="40.5938" rx="5" ry="5" style="stroke:#000000;stroke-width:1.5;" width="664" x="1793.5" y="478"/><rect fill="#F1F1F1" height="40.5938" rx="5" ry="5" style="stroke:#F1F1F1;stroke-width:1.5;" width="681" x="1785" y="537"/><text fill="#000000" font-family="sans-serif" font-size="14" font-weight="bold" lengthAdjust="spacing" textLength="36" x="1790" y="551.9951">type</text><text fill="#000000" font-family="sans-serif" font-size="14" lengthAdjust="spacing" textLength="36" x="1892" y="551.9951">array</text><line style="stroke:#000000;stroke-width:1.0;" x1="1887" x2="1887" y1="537" y2="557.2969"/><line style="stroke:#000000;stroke-width:1.0;" x1="1785" x2="2466" y1="557.2969" y2="557.2969"/><text fill="#000000" font-family="sans-serif" font-size="14" font-weight="bold" lengthAdjust="spacing" textLength="92" x="1790" y="572.292">description</text><text fill="#000000" font-family="sans-serif" font-size="14" lengthAdjust="spacing" textLength="569" x="1892" y="572.292">Forecasted average carbon intensity of the node for the next N windows/hours.</text><line style="stroke:#000000;stroke-width:1.0;" x1="1887" x2="1887" y1="557.2969" y2="577.5938"/><rect fill="none" height="40.5938" rx="5" ry="5" style="stroke:#000000;stroke-width:1.5;" width="681" x="1785" y="537"/><rect fill="#F1F1F1" height="40.5938" rx="5" ry="5" style="stroke:#F1F1F1;stroke-width:1.5;" width="151" x="657" y="523"/><text fill="#000000" font-family="sans-serif" font-size="14" font-weight="bold" lengthAdjust="spacing" textLength="36" x="662" y="537.9951">type</text><text fill="#000000" font-family="sans-serif" font-size="14" lengthAdjust="spacing" textLength="47" x="756" y="537.9951">object</text><line style="stroke:#000000;stroke-width:1.0;" x1="751" x2="751" y1="523" y2="543.2969"/><line style="stroke:#000000;stroke-width:1.0;" x1="657" x2="808" y1="543.2969" y2="543.2969"/><text fill="#000000" font-family="sans-serif" font-size="14" font-weight="bold" lengthAdjust="spacing" textLength="84" x="662" y="558.292">properties</text><text fill="#000000" font-family="sans-serif" font-size="14" lengthAdjust="spacing" textLength="12" x="756" y="558.292">&#160;&#160;&#160;</text><line style="stroke:#000000;stroke-width:1.0;" x1="751" x2="751" y1="543.2969" y2="563.5938"/><rect fill="none" height="40.5938" rx="5" ry="5" style="stroke:#000000;stroke-width:1.5;" width="151" x="657" y="523"/><rect fill="#F1F1F1" height="20.2969" rx="5" ry="5" style="stroke:#F1F1F1;stroke-width:1.5;" width="141" x="866" y="585.3516"/><text fill="#000000" font-family="sans-serif" font-size="14" font-weight="bold" lengthAdjust="spacing" textLength="109" x="871" y="600.3467">Aggregatable</text><text fill="#000000" font-family="sans-serif" font-size="14" lengthAdjust="spacing" textLength="12" x="990" y="600.3467">&#160;&#160;&#160;</text><line style="stroke:#000000;stroke-width:1.0;" x1="985" x2="985" y1="585.3516" y2="605.6484"/><rect fill="none" height="20.2969" rx="5" ry="5" style="stroke:#000000;stroke-width:1.5;" width="141" x="866" y="585.3516"/><rect fill="#F1F1F1" height="40.5938" rx="5" ry="5" style="stroke:#F1F1F1;stroke-width:1.5;" width="151" x="1248.5" y="589"/><text fill="#000000" font-family="sans-serif" font-size="14" font-weight="bold" lengthAdjust="spacing" textLength="36" x="1253.5" y="603.9951">type</text><text fill="#000000" font-family="sans-serif" font-size="14" lengthAdjust="spacing" textLength="47" x="1347.5" y="603.9951">object</text><line style="stroke:#000000;stroke-width:1.0;" x1="1342.5" x2="1342.5" y1="589" y2="609.2969"/><line style="stroke:#000000;stroke-width:1.0;" x1="1248.5" x2="1399.5" y1="609.2969" y2="609.2969"/><text fill="#000000" font-family="sans-serif" font-size="14" font-weight="bold" lengthAdjust="spacing" textLength="84" x="1253.5" y="624.292">properties</text><text fill="#000000" font-family="sans-serif" font-size="14" lengthAdjust="spacing" textLength="12" x="1347.5" y="624.292">&#160;&#160;&#160;</text><line style="stroke:#000000;stroke-width:1.0;" x1="1342.5" x2="1342.5" y1="609.2969" y2="629.5938"/><rect fill="none" height="40.5938" rx="5" ry="5" style="stroke:#000000;stroke-width:1.5;" width="151" x="1248.5" y="589"/><rect fill="#F1F1F1" height="40.5938" rx="5" ry="5" style="stroke:#F1F1F1;stroke-width:1.5;" width="113" x="1627.5" y="606"/><text fill="#000000" font-family="sans-serif" font-size="14" font-weight="bold" lengthAdjust="spacing" textLength="77" x="1632.5" y="620.9951">MinCount</text><text fill="#000000" font-family="sans-serif" font-size="14" lengthAdjust="spacing" textLength="12" x="1723.5" y="620.9951">&#160;&#160;&#160;</text><line style="stroke:#000000;stroke-width:1.0;" x1="1718.5" x2="1718.5" y1="606" y2="626.2969"/><line style="stroke:#000000;stroke-width:1.0;" x1="1627.5" x2="1740.5" y1="626.2969" y2="626.2969"/><text fill="#000000" font-family="sans-serif" font-size="14" font-weight="bold" lengthAdjust="spacing" textLength="81" x="1632.5" y="641.292">MaxCount</text><text fill="#000000" font-family="sans-serif" font-size="14" lengthAdjust="spacing" textLength="12" x="1723.5" y="641.292">&#160;&#160;&#160;</text><line style="stroke:#000000;stroke-width:1.0;" x1="1718.5" x2="1718.5" y1="626.2969" y2="646.5938"/><rect fill="none" height="40.5938" rx="5" ry="5" style="stroke:#000000;stroke-width:1.5;" width="113" x="1627.5" y="606"/><rect fill="#F1F1F1" height="40.5938" rx="5" ry="5" style="stroke:#F1F1F1;stroke-width:1.5;" width="492" x="1879.5" y="596"/><text fill="#000000" font-family="sans-serif" font-size="14" font-weight="bold" lengthAdjust="spacing" textLength="36" x="1884.5" y="610.9951">type</text><text fill="#000000" font-family="sans-serif" font-size="14" lengthAdjust="spacing" textLength="53" x="1986.5" y="610.9951">integer</text><line style="stroke:#000000;stroke-width:1.0;" x1="1981.5" x2="1981.5" y1="596" y2="616.2969"/><line style="stroke:#000000;stroke-width:1.0;" x1="1879.5" x2="2371.5" y1="616.2969" y2="616.2969"/><text fill="#000000" font-family="sans-serif" font-size="14" font-weight="bold" lengthAdjust="spacing" textLength="92" x="1884.5" y="631.292">description</text><text fill="#000000" font-family="sans-serif" font-size="14" lengthAdjust="spacing" textLength="380" x="1986.5" y="631.292">Minimum required number of instances of the Flavor.</text><line style="stroke:#000000;stroke-width:1.0;" x1="1981.5" x2="1981.5" y1="616.2969" y2="636.5938"/><rect fill="none" height="40.5938" rx="5" ry="5" style="stroke:#000000;stroke-width:1.5;" width="492" x="1879.5" y="596"/><rect fill="#F1F1F1" height="40.5938" rx="5" ry="5" style="stroke:#F1F1F1;stroke-width:1.5;" width="495" x="1878" y="655"/><text fill="#000000" font-family="sans-serif" font-size="14" font-weight="bold" lengthAdjust="spacing" textLength="36" x="1883" y="669.9951">type</text><text fill="#000000" font-family="sans-serif" font-size="14" lengthAdjust="spacing" textLength="53" x="1985" y="669.9951">integer</text><line style="stroke:#000000;stroke-width:1.0;" x1="1980" x2="1980" y1="655" y2="675.2969"/><line style="stroke:#000000;stroke-width:1.0;" x1="1878" x2="2373" y1="675.2969" y2="675.2969"/><text fill="#000000" font-family="sans-serif" font-size="14" font-weight="bold" lengthAdjust="spacing" textLength="92" x="1883" y="690.292">description</text><text fill="#000000" font-family="sans-serif" font-size="14" lengthAdjust="spacing" textLength="383" x="1985" y="690.292">Maximum required number of instances of the Flavor.</text><line style="stroke:#000000;stroke-width:1.0;" x1="1980" x2="1980" y1="675.2969" y2="695.5938"/><rect fill="none" height="40.5938" rx="5" ry="5" style="stroke:#000000;stroke-width:1.5;" width="495" x="1878" y="655"/><path d="M992,146.5 L1005,146.5 C1051.9704,146.5 1024.6981,83.6243 1065,59.5 C1095.0255,41.527 1130.5581,31.7775 1165.513,26.9198 " fill="none" style="stroke:#000000;stroke-width:1.0;stroke-dasharray:3.0,3.0;"/><path d="M1165.8984,29.899 L1167.7474,26.6307 L1165.1276,23.9406 L1172.9611,25.9562 L1165.8984,29.899 " fill="#000000" style="stroke:#000000;stroke-width:1.0;"/><ellipse cx="992" cy="146.5" fill="#000000" rx="3" ry="3" style="stroke:#000000;stroke-width:1.0;"/><path d="M992,166.5 L1005,166.5 C1039.15,166.5 1033.4565,131.5854 1065,118.5 C1077.2304,113.4264 1090.0503,109.1345 1103.164,105.5119 " fill="none" style="stroke:#000000;stroke-width:1.0;stroke-dasharray:3.0,3.0;"/><path d="M1103.9417,108.4374 L1105.3581,104.9286 L1102.3862,102.5864 L1110.4777,103.5675 L1103.9417,108.4374 " fill="#000000" style="stroke:#000000;stroke-width:1.0;"/><ellipse cx="992" cy="166.5" fill="#000000" rx="3" ry="3" style="stroke:#000000;stroke-width:1.0;"/><path d="M992,187.5 L1005,187.5 C1032.0345,187.5 1038.2241,181.2305 1065,177.5 C1087.7025,174.337 1111.5644,171.2882 1135.2335,168.4327 " fill="none" style="stroke:#000000;stroke-width:1.0;stroke-dasharray:3.0,3.0;"/><path d="M1135.6015,171.5032 L1137.5363,168.1567 L1134.8654,165.3622 L1142.9097,167.5125 L1135.6015,171.5032 " fill="#000000" style="stroke:#000000;stroke-width:1.0;"/><ellipse cx="992" cy="187.5" fill="#000000" rx="3" ry="3" style="stroke:#000000;stroke-width:1.0;"/><path d="M992,207.5 L1005,207.5 C1053.5506,207.5 1106.2643,207.5 1154.574,207.5 " fill="none" style="stroke:#000000;stroke-width:1.0;stroke-dasharray:3.0,3.0;"/><path d="M1154.574,210.5857 L1156.8882,207.5 L1154.574,204.4143 L1162.2882,207.5 L1154.574,210.5857 " fill="#000000" style="stroke:#000000;stroke-width:1.0;"/><ellipse cx="992" cy="207.5" fill="#000000" rx="3" ry="3" style="stroke:#000000;stroke-width:1.0;"/><path d="M1729.5,286.5 L1742.5,286.5 C1784.2887,286.5 1828.6138,285.3547 1871.7111,283.6266 " fill="none" style="stroke:#000000;stroke-width:1.0;stroke-dasharray:3.0,3.0;"/><path d="M1871.8381,286.7261 L1874.0357,283.5313 L1871.5841,280.5271 L1879.4599,283.3091 L1871.8381,286.7261 " fill="#000000" style="stroke:#000000;stroke-width:1.0;"/><ellipse cx="1729.5" cy="286.5" fill="#000000" rx="3" ry="3" style="stroke:#000000;stroke-width:1.0;"/><path d="M1729.5,306.5 L1742.5,306.5 C1786.9082,306.5 1834.1769,307.861 1879.7917,309.873 " fill="none" style="stroke:#000000;stroke-width:1.0;stroke-dasharray:3.0,3.0;"/><path d="M1879.655,312.9138 L1882.0723,309.9756 L1879.9285,306.8322 L1887.3937,310.215 L1879.655,312.9138 " fill="#000000" style="stroke:#000000;stroke-width:1.0;"/><ellipse cx="1729.5" cy="306.5" fill="#000000" rx="3" ry="3" style="stroke:#000000;stroke-width:1.0;"/><path d="M1488.5,296.5 L1501.5,296.5 C1540.8632,296.5 1585.0153,296.5 1619.9737,296.5 " fill="none" style="stroke:#000000;stroke-width:1.0;stroke-dasharray:3.0,3.0;"/><path d="M1619.9737,299.6072 L1622.3041,296.5 L1619.9737,293.3928 L1627.7417,296.5 L1619.9737,299.6072 " fill="#000000" style="stroke:#000000;stroke-width:1.0;"/><ellipse cx="1488.5" cy="296.5" fill="#000000" rx="3" ry="3" style="stroke:#000000;stroke-width:1.0;"/><path d="M992,227.5 L1005,227.5 C1006.0058,227.5 1070.4444,237.398 1141.0937,248.2968 " fill="none" style="stroke:#000000;stroke-width:1.0;stroke-dasharray:3.0,3.0;"/><path d="M1140.6157,251.3947 L1143.4171,248.6553 L1141.5717,245.1989 L1148.8385,249.4917 L1140.6157,251.3947 " fill="#000000" style="stroke:#000000;stroke-width:1.0;"/><ellipse cx="992" cy="227.5" fill="#000000" rx="3" ry="3" style="stroke:#000000;stroke-width:1.0;"/><path d="M992,248.5 L1005,248.5 C1044.9728,248.5 1029.5074,297.1124 1065,315.5 C1099.5059,333.3765 1140.0073,342.6268 1178.5797,347.0297 " fill="none" style="stroke:#000000;stroke-width:1.0;stroke-dasharray:3.0,3.0;"/><path d="M1178.2528,350.1042 L1180.8856,347.2748 L1178.9065,343.9551 L1186.2661,347.8467 L1178.2528,350.1042 " fill="#000000" style="stroke:#000000;stroke-width:1.0;"/><ellipse cx="992" cy="248.5" fill="#000000" rx="3" ry="3" style="stroke:#000000;stroke-width:1.0;"/><path d="M796,306.5 L809,306.5 C840.4734,306.5 868.0499,286.9851 889.3924,264.4698 " fill="none" style="stroke:#000000;stroke-width:1.0;stroke-dasharray:3.0,3.0;"/><path d="M891.704,266.586 L890.9795,262.7362 L887.0809,262.3537 L894.6828,258.691 L891.704,266.586 " fill="#000000" style="stroke:#000000;stroke-width:1.0;"/><ellipse cx="796" cy="306.5" fill="#000000" rx="3" ry="3" style="stroke:#000000;stroke-width:1.0;"/><path d="M610,444.5 L610,431.5 C610,383.3227 653.2976,344.6358 688.3052,321.2298 " fill="none" style="stroke:#000000;stroke-width:1.0;stroke-dasharray:3.0,3.0;"/><path d="M689.9817,323.8009 L690.2335,319.9724 L686.6286,318.6586 L694.7331,317.0384 L689.9817,323.8009 " fill="#000000" style="stroke:#000000;stroke-width:1.0;"/><ellipse cx="610" cy="444.5" fill="#000000" rx="3" ry="3" style="stroke:#000000;stroke-width:1.0;"/><path d="M1016,453.5 L1029,453.5 C1047.0917,453.5 1047.7195,439.8565 1065,434.5 C1097.7979,424.3336 1133.9056,417.5594 1168.467,413.0594 " fill="none" style="stroke:#000000;stroke-width:1.0;stroke-dasharray:3.0,3.0;"/><path d="M1168.86,416.1847 L1170.8109,412.7647 L1168.074,409.9342 L1176.28,412.077 L1168.86,416.1847 " fill="#000000" style="stroke:#000000;stroke-width:1.0;"/><ellipse cx="1016" cy="453.5" fill="#000000" rx="3" ry="3" style="stroke:#000000;stroke-width:1.0;"/><path d="M1571,493.5 L1584,493.5 C1598.1379,493.5 1613.4059,493.5 1627.6362,493.5 " fill="none" style="stroke:#000000;stroke-width:1.0;stroke-dasharray:3.0,3.0;"/><path d="M1627.6362,496.6141 L1629.9718,493.5 L1627.6362,490.3859 L1635.4215,493.5 L1627.6362,496.6141 " fill="#000000" style="stroke:#000000;stroke-width:1.0;"/><ellipse cx="1571" cy="493.5" fill="#000000" rx="3" ry="3" style="stroke:#000000;stroke-width:1.0;"/><path d="M1016,473.5 L1029,473.5 C1038.3799,473.5 1047.9278,473.5 1057.5715,473.5 " fill="none" style="stroke:#000000;stroke-width:1.0;stroke-dasharray:3.0,3.0;"/><path d="M1057.5715,476.6013 L1059.8975,473.5 L1057.5715,470.3987 L1065.3247,473.5 L1057.5715,476.6013 " fill="#000000" style="stroke:#000000;stroke-width:1.0;"/><ellipse cx="1016" cy="473.5" fill="#000000" rx="3" ry="3" style="stroke:#000000;stroke-width:1.0;"/><path d="M1736,537.5 L1749,537.5 C1765.4924,537.5 1768.7356,531.2332 1785,528.5 C1803.6544,525.3652 1822.9432,522.5456 1842.4181,520.0116 " fill="none" style="stroke:#000000;stroke-width:1.0;stroke-dasharray:3.0,3.0;"/><path d="M1842.801,523.0004 L1844.6597,519.7244 L1842.0352,517.0227 L1849.8902,519.0543 L1842.801,523.0004 " fill="#000000" style="stroke:#000000;stroke-width:1.0;"/><ellipse cx="1736" cy="537.5" fill="#000000" rx="3" ry="3" style="stroke:#000000;stroke-width:1.0;"/><path d="M1736,557.5 L1749,557.5 C1758.4003,557.5 1767.9327,557.5 1777.5527,557.5 " fill="none" style="stroke:#000000;stroke-width:1.0;stroke-dasharray:3.0,3.0;"/><path d="M1777.5527,560.5932 L1779.8726,557.5 L1777.5527,554.4068 L1785.2857,557.5 L1777.5527,560.5932 " fill="#000000" style="stroke:#000000;stroke-width:1.0;"/><ellipse cx="1736" cy="557.5" fill="#000000" rx="3" ry="3" style="stroke:#000000;stroke-width:1.0;"/><path d="M1388.5,552.5 L1401.5,552.5 C1473.4332,552.5 1555.6714,550.8535 1612.7003,549.4502 " fill="none" style="stroke:#000000;stroke-width:1.0;stroke-dasharray:3.0,3.0;"/><path d="M1612.7752,552.4605 L1614.958,549.394 L1612.6253,546.4399 L1620.226,549.2628 L1612.7752,552.4605 " fill="#000000" style="stroke:#000000;stroke-width:1.0;"/><ellipse cx="1388.5" cy="552.5" fill="#000000" rx="3" ry="3" style="stroke:#000000;stroke-width:1.0;"/><path d="M1016,493.5 L1029,493.5 C1047.3033,493.5 1047.5658,507.9267 1065,513.5 C1122.1938,531.7835 1189.7086,538.8977 1241.3951,541.5128 " fill="none" style="stroke:#000000;stroke-width:1.0;stroke-dasharray:3.0,3.0;"/><path d="M1241.2535,544.516 L1243.6475,541.619 L1241.5367,538.5097 L1248.903,541.8668 L1241.2535,544.516 " fill="#000000" style="stroke:#000000;stroke-width:1.0;"/><ellipse cx="1016" cy="493.5" fill="#000000" rx="3" ry="3" style="stroke:#000000;stroke-width:1.0;"/><path d="M796,473.5 L809,473.5 C818.3078,473.5 827.9993,473.5 837.6949,473.5 " fill="none" style="stroke:#000000;stroke-width:1.0;stroke-dasharray:3.0,3.0;"/><path d="M837.6949,476.6077 L840.0256,473.5 L837.6949,470.3923 L845.4641,473.5 L837.6949,476.6077 " fill="#000000" style="stroke:#000000;stroke-width:1.0;"/><ellipse cx="796" cy="473.5" fill="#000000" rx="3" ry="3" style="stroke:#000000;stroke-width:1.0;"/><path d="M608,463.5 L621,463.5 C630.2756,463.5 639.9872,463.5 649.6429,463.5 " fill="none" style="stroke:#000000;stroke-width:1.0;stroke-dasharray:3.0,3.0;"/><path d="M649.6429,466.5889 L651.9596,463.5 L649.6429,460.4111 L657.3653,463.5 L649.6429,466.5889 " fill="#000000" style="stroke:#000000;stroke-width:1.0;"/><ellipse cx="608" cy="463.5" fill="#000000" rx="3" ry="3" style="stroke:#000000;stroke-width:1.0;"/><path d="M1729.5,616.5 L1742.5,616.5 C1784.4806,616.5 1829.0528,616.5 1872.3767,616.5 " fill="none" style="stroke:#000000;stroke-width:1.0;stroke-dasharray:3.0,3.0;"/><path d="M1872.3767,619.5023 L1874.6285,616.5 L1872.3767,613.4977 L1879.8825,616.5 L1872.3767,619.5023 " fill="#000000" style="stroke:#000000;stroke-width:1.0;"/><ellipse cx="1729.5" cy="616.5" fill="#000000" rx="3" ry="3" style="stroke:#000000;stroke-width:1.0;"/><path d="M1729.5,636.5 L1742.5,636.5 C1761.9047,636.5 1765.8373,643.4451 1785,646.5 C1812.6577,650.9092 1841.6953,654.6789 1870.6599,657.8949 " fill="none" style="stroke:#000000;stroke-width:1.0;stroke-dasharray:3.0,3.0;"/><path d="M1870.3203,660.9997 L1872.9886,658.1496 L1870.9995,654.79 L1878.4221,658.7438 L1870.3203,660.9997 " fill="#000000" style="stroke:#000000;stroke-width:1.0;"/><ellipse cx="1729.5" cy="636.5" fill="#000000" rx="3" ry="3" style="stroke:#000000;stroke-width:1.0;"/><path d="M1388.5,619.5 L1401.5,619.5 C1476.7249,619.5 1563.2025,622.0201 1620.347,624.0361 " fill="none" style="stroke:#000000;stroke-width:1.0;stroke-dasharray:3.0,3.0;"/><path d="M1620.2398,627.0425 L1622.6018,624.1166 L1620.4543,621.0298 L1627.863,624.3044 L1620.2398,627.0425 " fill="#000000" style="stroke:#000000;stroke-width:1.0;"/><ellipse cx="1388.5" cy="619.5" fill="#000000" rx="3" ry="3" style="stroke:#000000;stroke-width:1.0;"/><path d="M996,595.5 L1009,595.5 C1087.911,595.5 1177.8492,599.9532 1241.276,603.8364 " fill="none" style="stroke:#000000;stroke-width:1.0;stroke-dasharray:3.0,3.0;"/><path d="M1241.0878,606.8768 L1243.5563,603.9775 L1241.4641,600.796 L1248.877,604.3068 L1241.0878,606.8768 " fill="#000000" style="stroke:#000000;stroke-width:1.0;"/><ellipse cx="996" cy="595.5" fill="#000000" rx="3" ry="3" style="stroke:#000000;stroke-width:1.0;"/><path d="M796,553.5 L809,553.5 C845.7777,553.5 885.6544,569.5731 910.7214,581.833 " fill="none" style="stroke:#000000;stroke-width:1.0;stroke-dasharray:3.0,3.0;"/><path d="M909.3214,584.6222 L912.8133,582.883 L912.1214,579.0437 L917.6945,585.333 L909.3214,584.6222 " fill="#000000" style="stroke:#000000;stroke-width:1.0;"/><ellipse cx="796" cy="553.5" fill="#000000" rx="3" ry="3" style="stroke:#000000;stroke-width:1.0;"/><path d="M608,483.5 L621,483.5 C636.6508,483.5 669.4121,502.193 695.3069,518.7114 " fill="none" style="stroke:#000000;stroke-width:1.0;stroke-dasharray:3.0,3.0;"/><path d="M693.6509,521.2797 L697.2332,519.9534 L696.9629,516.143 L701.7278,522.8514 L693.6509,521.2797 " fill="#000000" style="stroke:#000000;stroke-width:1.0;"/><ellipse cx="608" cy="483.5" fill="#000000" rx="3" ry="3" style="stroke:#000000;stroke-width:1.0;"/><path d="M414,463.5 L427,463.5 C436.292,463.5 446.0101,463.5 455.6854,463.5 " fill="none" style="stroke:#000000;stroke-width:1.0;stroke-dasharray:3.0,3.0;"/><path d="M455.6854,466.5965 L458.0078,463.5 L455.6854,460.4035 L463.4267,463.5 L455.6854,466.5965 " fill="#000000" style="stroke:#000000;stroke-width:1.0;"/><ellipse cx="414" cy="463.5" fill="#000000" rx="3" ry="3" style="stroke:#000000;stroke-width:1.0;"/><!--SRC=[lLTHRzCm47xFhpW57ZQ9jO0cG7rYbAq8BQDQDjwloIKr97OuNxOLn7_7JfVIbRMBreu-LChPFd_V-RilpdihoFBD6Xty2i3zmkSscLA9uG32gKWrwFVzwC4ysZESzrF6J0vUlktFOy_25_ELCgl8BpEJRvJ88ggaQC9VepQKaarOLQACRWOKIuq5H9XCbIR82hmo34swsnKLcufO55ctO0wqYG-do9W8iRAYahk3wp4jHjUaNOmViKCaRc7DTE-CEtjOOQNpbJqMirP8BwS6au5C2KuQuhtmdmI__yqPVebtZEZ28VZYoe7Yra0yiq9bYmpJArydIocuO-o4RpY-V1YWqa8vSKU4PtKv8VQON79839DzLEaYAWtFTetkg3Ir5W_e_2Xw5AvHbvBTg-Hrc4Q-JdTxP1NPcaGFjCOoviYaL8ImQLftLMvIP-atQl5xQYRBY9qcCsyNBcOhIbIcalLbtr3-PKf3hwsmCwFDGjb4IIyaFLf8UgdP9hFDAbhG2Rf5xrDTB8OnfrstWsU7YvQmjvi4cp7-VLf26exNQt5BWpz58PtCde9xCK_zA2E8AQbPoImMr2boQXy6YCmuwmYlJUzEvJO_sBgg3Ckgv62FUddl1Om-Zi_trtg5Uu-L3zZ4Ikzl8TSXyiJe4sEaSgbaMyFiwdF7vSIaYjAdDeLs7qWQdgryjBC-S4QUNYFx9ownK3_dnwN40jquw_F7LwYCH9NqIE-xlG0OZKLtffkqjuxdYREw1As7ZCxkd3UqZ7tTjFNoNERUMhoc6u4pk5OwDTUsFpKrsrqOOnSRCeMwnokslMFcELEEWfE2_fUO8wM7tfcVMink7rNM9J3zg9L_KVzztIdjpIVfS8Fh8ji8R_uF8RpP8Q5jjHdC_ty7xqcdpJTSC2vGosLq2gwdh0CDhtglNxu-x1rEIF3DtgN-hisrTXUDib85WNUA_M1lD3u5wpef8KYLj-X9xHdl1v_n2k7S5TRD6u1_shk8zY4-ReDmhAyK6rsIbk3prsW-2JuPYIiZpUGtXmSVb41Cx32vpuVW8sLO5-AM9ixgT3w0oukJWtV1AUgyTaOm0D91SvmySsFn7m00]--></g></svg>