<?xml version="1.0" encoding="us-ascii" standalone="no"?><svg xmlns="http://www.w3.org/2000/svg" xmlns:xlink="http://www.w3.org/1999/xlink" contentStyleType="text/css" height="514px" preserveAspectRatio="none" style="width:2615px;height:514px;background:#FFFFFF;" version="1.1" viewBox="0 0 2615 514" width="2615px" zoomAndPan="magnify"><defs/><g><rect fill="#F1F1F1" height="101.4844" rx="5" ry="5" style="stroke:#F1F1F1;stroke-width:1.5;" width="416" x="10" y="243.7578"/><text fill="#000000" font-family="sans-serif" font-size="14" font-weight="bold" lengthAdjust="spacing" textLength="72" x="15" y="258.7529">$schema</text><text fill="#000000" font-family="sans-serif" font-size="14" lengthAdjust="spacing" textLength="304" x="117" y="258.7529">http://json-schema.org/draft-07/schema#</text><line style="stroke:#000000;stroke-width:1.0;" x1="112" x2="112" y1="243.7578" y2="264.0547"/><line style="stroke:#000000;stroke-width:1.0;" x1="10" x2="426" y1="264.0547" y2="264.0547"/><text fill="#000000" font-family="sans-serif" font-size="14" font-weight="bold" lengthAdjust="spacing" textLength="36" x="15" y="279.0498">type</text><text fill="#000000" font-family="sans-serif" font-size="14" lengthAdjust="spacing" textLength="47" x="117" y="279.0498">object</text><line style="stroke:#000000;stroke-width:1.0;" x1="112" x2="112" y1="264.0547" y2="284.3516"/><line style="stroke:#000000;stroke-width:1.0;" x1="10" x2="426" y1="284.3516" y2="284.3516"/><text fill="#000000" font-family="sans-serif" font-size="14" font-weight="bold" lengthAdjust="spacing" textLength="35" x="15" y="299.3467">title</text><text fill="#000000" font-family="sans-serif" font-size="14" lengthAdjust="spacing" textLength="22" x="117" y="299.3467">VM</text><line style="stroke:#000000;stroke-width:1.0;" x1="112" x2="112" y1="284.3516" y2="304.6484"/><line style="stroke:#000000;stroke-width:1.0;" x1="10" x2="426" y1="304.6484" y2="304.6484"/><text fill="#000000" font-family="sans-serif" font-size="14" font-weight="bold" lengthAdjust="spacing" textLength="92" x="15" y="319.6436">description</text><text fill="#000000" font-family="sans-serif" font-size="14" lengthAdjust="spacing" textLength="193" x="117" y="319.6436">Virtual Machine flavor type</text><line style="stroke:#000000;stroke-width:1.0;" x1="112" x2="112" y1="304.6484" y2="324.9453"/><line style="stroke:#000000;stroke-width:1.0;" x1="10" x2="426" y1="324.9453" y2="324.9453"/><text fill="#000000" font-family="sans-serif" font-size="14" font-weight="bold" lengthAdjust="spacing" textLength="84" x="15" y="339.9404">properties</text><text fill="#000000" font-family="sans-serif" font-size="14" lengthAdjust="spacing" textLength="12" x="117" y="339.9404">&#160;&#160;&#160;</text><line style="stroke:#000000;stroke-width:1.0;" x1="112" x2="112" y1="324.9453" y2="345.2422"/><rect fill="none" height="101.4844" rx="5" ry="5" style="stroke:#000000;stroke-width:1.5;" width="416" x="10" y="243.7578"/><rect fill="#F1F1F1" height="40.5938" rx="5" ry="5" style="stroke:#F1F1F1;stroke-width:1.5;" width="157" x="463" y="315"/><text fill="#000000" font-family="sans-serif" font-size="14" font-weight="bold" lengthAdjust="spacing" textLength="125" x="468" y="329.9951">Characteristics</text><text fill="#000000" font-family="sans-serif" font-size="14" lengthAdjust="spacing" textLength="12" x="603" y="329.9951">&#160;&#160;&#160;</text><line style="stroke:#000000;stroke-width:1.0;" x1="598" x2="598" y1="315" y2="335.2969"/><line style="stroke:#000000;stroke-width:1.0;" x1="463" x2="620" y1="335.2969" y2="335.2969"/><text fill="#000000" font-family="sans-serif" font-size="14" font-weight="bold" lengthAdjust="spacing" textLength="48" x="468" y="350.292">Policy</text><text fill="#000000" font-family="sans-serif" font-size="14" lengthAdjust="spacing" textLength="12" x="603" y="350.292">&#160;&#160;&#160;</text><line style="stroke:#000000;stroke-width:1.0;" x1="598" x2="598" y1="335.2969" y2="355.5938"/><rect fill="none" height="40.5938" rx="5" ry="5" style="stroke:#000000;stroke-width:1.5;" width="157" x="463" y="315"/><rect fill="#F1F1F1" height="60.8906" rx="5" ry="5" style="stroke:#F1F1F1;stroke-width:1.5;" width="238" x="657" y="243"/><text fill="#000000" font-family="sans-serif" font-size="14" font-weight="bold" lengthAdjust="spacing" textLength="36" x="662" y="257.9951">type</text><text fill="#000000" font-family="sans-serif" font-size="14" lengthAdjust="spacing" textLength="47" x="839" y="257.9951">object</text><line style="stroke:#000000;stroke-width:1.0;" x1="834" x2="834" y1="243" y2="263.2969"/><line style="stroke:#000000;stroke-width:1.0;" x1="657" x2="895" y1="263.2969" y2="263.2969"/><text fill="#000000" font-family="sans-serif" font-size="14" font-weight="bold" lengthAdjust="spacing" textLength="84" x="662" y="278.292">properties</text><text fill="#000000" font-family="sans-serif" font-size="14" lengthAdjust="spacing" textLength="12" x="839" y="278.292">&#160;&#160;&#160;</text><line style="stroke:#000000;stroke-width:1.0;" x1="834" x2="834" y1="263.2969" y2="283.5938"/><line style="stroke:#000000;stroke-width:1.0;" x1="657" x2="895" y1="283.5938" y2="283.5938"/><text fill="#000000" font-family="sans-serif" font-size="14" font-weight="bold" lengthAdjust="spacing" textLength="167" x="662" y="298.5889">additionalProperties</text><text fill="#000000" font-family="sans-serif" font-size="14" lengthAdjust="spacing" textLength="51" x="839" y="298.5889">&#9744; false</text><line style="stroke:#000000;stroke-width:1.0;" x1="834" x2="834" y1="283.5938" y2="303.8906"/><rect fill="none" height="60.8906" rx="5" ry="5" style="stroke:#000000;stroke-width:1.5;" width="238" x="657" y="243"/><rect fill="#F1F1F1" height="142.0781" rx="5" ry="5" style="stroke:#F1F1F1;stroke-width:1.5;" width="183" x="932" y="155.4609"/><text fill="#000000" font-family="sans-serif" font-size="14" font-weight="bold" lengthAdjust="spacing" textLength="102" x="937" y="170.4561">Architecture</text><text fill="#000000" font-family="sans-serif" font-size="14" lengthAdjust="spacing" textLength="12" x="1098" y="170.4561">&#160;&#160;&#160;</text><line style="stroke:#000000;stroke-width:1.0;" x1="1093" x2="1093" y1="155.4609" y2="175.7578"/><line style="stroke:#000000;stroke-width:1.0;" x1="932" x2="1115" y1="175.7578" y2="175.7578"/><text fill="#000000" font-family="sans-serif" font-size="14" font-weight="bold" lengthAdjust="spacing" textLength="31" x="937" y="190.7529">CPU</text><text fill="#000000" font-family="sans-serif" font-size="14" lengthAdjust="spacing" textLength="12" x="1098" y="190.7529">&#160;&#160;&#160;</text><line style="stroke:#000000;stroke-width:1.0;" x1="1093" x2="1093" y1="175.7578" y2="196.0547"/><line style="stroke:#000000;stroke-width:1.0;" x1="932" x2="1115" y1="196.0547" y2="196.0547"/><text fill="#000000" font-family="sans-serif" font-size="14" font-weight="bold" lengthAdjust="spacing" textLength="64" x="937" y="211.0498">Memory</text><text fill="#000000" font-family="sans-serif" font-size="14" lengthAdjust="spacing" textLength="12" x="1098" y="211.0498">&#160;&#160;&#160;</text><line style="stroke:#000000;stroke-width:1.0;" x1="1093" x2="1093" y1="196.0547" y2="216.3516"/><line style="stroke:#000000;stroke-width:1.0;" x1="932" x2="1115" y1="216.3516" y2="216.3516"/><text fill="#000000" font-family="sans-serif" font-size="14" font-weight="bold" lengthAdjust="spacing" textLength="33" x="937" y="231.3467">GPU</text><text fill="#000000" font-family="sans-serif" font-size="14" lengthAdjust="spacing" textLength="12" x="1098" y="231.3467">&#160;&#160;&#160;</text><line style="stroke:#000000;stroke-width:1.0;" x1="1093" x2="1093" y1="216.3516" y2="236.6484"/><line style="stroke:#000000;stroke-width:1.0;" x1="932" x2="1115" y1="236.6484" y2="236.6484"/><text fill="#000000" font-family="sans-serif" font-size="14" font-weight="bold" lengthAdjust="spacing" textLength="64" x="937" y="251.6436">Storage</text><text fill="#000000" font-family="sans-serif" font-size="14" lengthAdjust="spacing" textLength="12" x="1098" y="251.6436">&#160;&#160;&#160;</text><line style="stroke:#000000;stroke-width:1.0;" x1="1093" x2="1093" y1="236.6484" y2="256.9453"/><line style="stroke:#000000;stroke-width:1.0;" x1="932" x2="1115" y1="256.9453" y2="256.9453"/><text fill="#000000" font-family="sans-serif" font-size="14" font-weight="bold" lengthAdjust="spacing" textLength="151" x="937" y="271.9404">SecurityStandards</text><text fill="#000000" font-family="sans-serif" font-size="14" lengthAdjust="spacing" textLength="12" x="1098" y="271.9404">&#160;&#160;&#160;</text><line style="stroke:#000000;stroke-width:1.0;" x1="1093" x2="1093" y1="256.9453" y2="277.2422"/><line style="stroke:#000000;stroke-width:1.0;" x1="932" x2="1115" y1="277.2422" y2="277.2422"/><text fill="#000000" font-family="sans-serif" font-size="14" font-weight="bold" lengthAdjust="spacing" textLength="64" x="937" y="292.2373">Latency</text><text fill="#000000" font-family="sans-serif" font-size="14" lengthAdjust="spacing" textLength="12" x="1098" y="292.2373">&#160;&#160;&#160;</text><line style="stroke:#000000;stroke-width:1.0;" x1="1093" x2="1093" y1="277.2422" y2="297.5391"/><rect fill="none" height="142.0781" rx="5" ry="5" style="stroke:#000000;stroke-width:1.5;" width="183" x="932" y="155.4609"/><rect fill="#F1F1F1" height="40.5938" rx="5" ry="5" style="stroke:#F1F1F1;stroke-width:1.5;" width="303" x="1182.5" y="10"/><text fill="#000000" font-family="sans-serif" font-size="14" font-weight="bold" lengthAdjust="spacing" textLength="36" x="1187.5" y="24.9951">type</text><text fill="#000000" font-family="sans-serif" font-size="14" lengthAdjust="spacing" textLength="42" x="1289.5" y="24.9951">string</text><line style="stroke:#000000;stroke-width:1.0;" x1="1284.5" x2="1284.5" y1="10" y2="30.2969"/><line style="stroke:#000000;stroke-width:1.0;" x1="1182.5" x2="1485.5" y1="30.2969" y2="30.2969"/><text fill="#000000" font-family="sans-serif" font-size="14" font-weight="bold" lengthAdjust="spacing" textLength="92" x="1187.5" y="45.292">description</text><text fill="#000000" font-family="sans-serif" font-size="14" lengthAdjust="spacing" textLength="191" x="1289.5" y="45.292">Architecture of the Flavor.</text><line style="stroke:#000000;stroke-width:1.0;" x1="1284.5" x2="1284.5" y1="30.2969" y2="50.5938"/><rect fill="none" height="40.5938" rx="5" ry="5" style="stroke:#000000;stroke-width:1.5;" width="303" x="1182.5" y="10"/><rect fill="#F1F1F1" height="40.5938" rx="5" ry="5" style="stroke:#F1F1F1;stroke-width:1.5;" width="363" x="1152.5" y="69"/><text fill="#000000" font-family="sans-serif" font-size="14" font-weight="bold" lengthAdjust="spacing" textLength="36" x="1157.5" y="83.9951">type</text><text fill="#000000" font-family="sans-serif" font-size="14" lengthAdjust="spacing" textLength="53" x="1259.5" y="83.9951">integer</text><line style="stroke:#000000;stroke-width:1.0;" x1="1254.5" x2="1254.5" y1="69" y2="89.2969"/><line style="stroke:#000000;stroke-width:1.0;" x1="1152.5" x2="1515.5" y1="89.2969" y2="89.2969"/><text fill="#000000" font-family="sans-serif" font-size="14" font-weight="bold" lengthAdjust="spacing" textLength="92" x="1157.5" y="104.292">description</text><text fill="#000000" font-family="sans-serif" font-size="14" lengthAdjust="spacing" textLength="251" x="1259.5" y="104.292">Number of CPU cores of the Flavor.</text><line style="stroke:#000000;stroke-width:1.0;" x1="1254.5" x2="1254.5" y1="89.2969" y2="109.5938"/><rect fill="none" height="40.5938" rx="5" ry="5" style="stroke:#000000;stroke-width:1.5;" width="363" x="1152.5" y="69"/><rect fill="#F1F1F1" height="40.5938" rx="5" ry="5" style="stroke:#F1F1F1;stroke-width:1.5;" width="324" x="1172" y="128"/><text fill="#000000" font-family="sans-serif" font-size="14" font-weight="bold" lengthAdjust="spacing" textLength="36" x="1177" y="142.9951">type</text><text fill="#000000" font-family="sans-serif" font-size="14" lengthAdjust="spacing" textLength="53" x="1279" y="142.9951">integer</text><line style="stroke:#000000;stroke-width:1.0;" x1="1274" x2="1274" y1="128" y2="148.2969"/><line style="stroke:#000000;stroke-width:1.0;" x1="1172" x2="1496" y1="148.2969" y2="148.2969"/><text fill="#000000" font-family="sans-serif" font-size="14" font-weight="bold" lengthAdjust="spacing" textLength="92" x="1177" y="163.292">description</text><text fill="#000000" font-family="sans-serif" font-size="14" lengthAdjust="spacing" textLength="212" x="1279" y="163.292">Amount of RAM of the Flavor.</text><line style="stroke:#000000;stroke-width:1.0;" x1="1274" x2="1274" y1="148.2969" y2="168.5938"/><rect fill="none" height="40.5938" rx="5" ry="5" style="stroke:#000000;stroke-width:1.5;" width="324" x="1172" y="128"/><rect fill="#F1F1F1" height="40.5938" rx="5" ry="5" style="stroke:#F1F1F1;stroke-width:1.5;" width="364" x="1152" y="187"/><text fill="#000000" font-family="sans-serif" font-size="14" font-weight="bold" lengthAdjust="spacing" textLength="36" x="1157" y="201.9951">type</text><text fill="#000000" font-family="sans-serif" font-size="14" lengthAdjust="spacing" textLength="53" x="1259" y="201.9951">integer</text><line style="stroke:#000000;stroke-width:1.0;" x1="1254" x2="1254" y1="187" y2="207.2969"/><line style="stroke:#000000;stroke-width:1.0;" x1="1152" x2="1516" y1="207.2969" y2="207.2969"/><text fill="#000000" font-family="sans-serif" font-size="14" font-weight="bold" lengthAdjust="spacing" textLength="92" x="1157" y="222.292">description</text><text fill="#000000" font-family="sans-serif" font-size="14" lengthAdjust="spacing" textLength="252" x="1259" y="222.292">Number of GPU cores of the Flavor.</text><line style="stroke:#000000;stroke-width:1.0;" x1="1254" x2="1254" y1="207.2969" y2="227.5938"/><rect fill="none" height="40.5938" rx="5" ry="5" style="stroke:#000000;stroke-width:1.5;" width="364" x="1152" y="187"/><rect fill="#F1F1F1" height="40.5938" rx="5" ry="5" style="stroke:#F1F1F1;stroke-width:1.5;" width="276" x="1196" y="246"/><text fill="#000000" font-family="sans-serif" font-size="14" font-weight="bold" lengthAdjust="spacing" textLength="36" x="1201" y="260.9951">type</text><text fill="#000000" font-family="sans-serif" font-size="14" lengthAdjust="spacing" textLength="53" x="1303" y="260.9951">integer</text><line style="stroke:#000000;stroke-width:1.0;" x1="1298" x2="1298" y1="246" y2="266.2969"/><line style="stroke:#000000;stroke-width:1.0;" x1="1196" x2="1472" y1="266.2969" y2="266.2969"/><text fill="#000000" font-family="sans-serif" font-size="14" font-weight="bold" lengthAdjust="spacing" textLength="92" x="1201" y="281.292">description</text><text fill="#000000" font-family="sans-serif" font-size="14" lengthAdjust="spacing" textLength="164" x="1303" y="281.292">The amount of storage</text><line style="stroke:#000000;stroke-width:1.0;" x1="1298" x2="1298" y1="266.2969" y2="286.5938"/><rect fill="none" height="40.5938" rx="5" ry="5" style="stroke:#000000;stroke-width:1.5;" width="276" x="1196" y="246"/><rect fill="#F1F1F1" height="40.5938" rx="5" ry="5" style="stroke:#F1F1F1;stroke-width:1.5;" width="102" x="1283" y="305"/><text fill="#000000" font-family="sans-serif" font-size="14" font-weight="bold" lengthAdjust="spacing" textLength="36" x="1288" y="319.9951">type</text><text fill="#000000" font-family="sans-serif" font-size="14" lengthAdjust="spacing" textLength="36" x="1344" y="319.9951">array</text><line style="stroke:#000000;stroke-width:1.0;" x1="1339" x2="1339" y1="305" y2="325.2969"/><line style="stroke:#000000;stroke-width:1.0;" x1="1283" x2="1385" y1="325.2969" y2="325.2969"/><text fill="#000000" font-family="sans-serif" font-size="14" font-weight="bold" lengthAdjust="spacing" textLength="46" x="1288" y="340.292">items</text><text fill="#000000" font-family="sans-serif" font-size="14" lengthAdjust="spacing" textLength="12" x="1344" y="340.292">&#160;&#160;&#160;</text><line style="stroke:#000000;stroke-width:1.0;" x1="1339" x2="1339" y1="325.2969" y2="345.5938"/><rect fill="none" height="40.5938" rx="5" ry="5" style="stroke:#000000;stroke-width:1.5;" width="102" x="1283" y="305"/><rect fill="#F1F1F1" height="40.5938" rx="5" ry="5" style="stroke:#F1F1F1;stroke-width:1.5;" width="518" x="1553" y="315"/><text fill="#000000" font-family="sans-serif" font-size="14" font-weight="bold" lengthAdjust="spacing" textLength="36" x="1558" y="329.9951">type</text><text fill="#000000" font-family="sans-serif" font-size="14" lengthAdjust="spacing" textLength="42" x="1660" y="329.9951">string</text><line style="stroke:#000000;stroke-width:1.0;" x1="1655" x2="1655" y1="315" y2="335.2969"/><line style="stroke:#000000;stroke-width:1.0;" x1="1553" x2="2071" y1="335.2969" y2="335.2969"/><text fill="#000000" font-family="sans-serif" font-size="14" font-weight="bold" lengthAdjust="spacing" textLength="92" x="1558" y="350.292">description</text><text fill="#000000" font-family="sans-serif" font-size="14" lengthAdjust="spacing" textLength="406" x="1660" y="350.292">Security standards supported by the Flavor (e.g., GDPR).</text><line style="stroke:#000000;stroke-width:1.0;" x1="1655" x2="1655" y1="335.2969" y2="355.5938"/><rect fill="none" height="40.5938" rx="5" ry="5" style="stroke:#000000;stroke-width:1.5;" width="518" x="1553" y="315"/><rect fill="#F1F1F1" height="40.5938" rx="5" ry="5" style="stroke:#F1F1F1;stroke-width:1.5;" width="296" x="1186" y="364"/><text fill="#000000" font-family="sans-serif" font-size="14" font-weight="bold" lengthAdjust="spacing" textLength="36" x="1191" y="378.9951">type</text><text fill="#000000" font-family="sans-serif" font-size="14" lengthAdjust="spacing" textLength="53" x="1293" y="378.9951">integer</text><line style="stroke:#000000;stroke-width:1.0;" x1="1288" x2="1288" y1="364" y2="384.2969"/><line style="stroke:#000000;stroke-width:1.0;" x1="1186" x2="1482" y1="384.2969" y2="384.2969"/><text fill="#000000" font-family="sans-serif" font-size="14" font-weight="bold" lengthAdjust="spacing" textLength="92" x="1191" y="399.292">description</text><text fill="#000000" font-family="sans-serif" font-size="14" lengthAdjust="spacing" textLength="184" x="1293" y="399.292">The latency of the Flavor.</text><line style="stroke:#000000;stroke-width:1.0;" x1="1288" x2="1288" y1="384.2969" y2="404.5938"/><rect fill="none" height="40.5938" rx="5" ry="5" style="stroke:#000000;stroke-width:1.5;" width="296" x="1186" y="364"/><rect fill="#F1F1F1" height="60.8906" rx="5" ry="5" style="stroke:#F1F1F1;stroke-width:1.5;" width="151" x="700.5" y="368"/><text fill="#000000" font-family="sans-serif" font-size="14" font-weight="bold" lengthAdjust="spacing" textLength="36" x="705.5" y="382.9951">type</text><text fill="#000000" font-family="sans-serif" font-size="14" lengthAdjust="spacing" textLength="47" x="799.5" y="382.9951">object</text><line style="stroke:#000000;stroke-width:1.0;" x1="794.5" x2="794.5" y1="368" y2="388.2969"/><line style="stroke:#000000;stroke-width:1.0;" x1="700.5" x2="851.5" y1="388.2969" y2="388.2969"/><text fill="#000000" font-family="sans-serif" font-size="14" font-weight="bold" lengthAdjust="spacing" textLength="84" x="705.5" y="403.292">properties</text><text fill="#000000" font-family="sans-serif" font-size="14" lengthAdjust="spacing" textLength="12" x="799.5" y="403.292">&#160;&#160;&#160;</text><line style="stroke:#000000;stroke-width:1.0;" x1="794.5" x2="794.5" y1="388.2969" y2="408.5938"/><line style="stroke:#000000;stroke-width:1.0;" x1="700.5" x2="851.5" y1="408.5938" y2="408.5938"/><text fill="#000000" font-family="sans-serif" font-size="14" font-weight="bold" lengthAdjust="spacing" textLength="67" x="705.5" y="423.5889">required</text><text fill="#000000" font-family="sans-serif" font-size="14" lengthAdjust="spacing" textLength="12" x="799.5" y="423.5889">&#160;&#160;&#160;</text><line style="stroke:#000000;stroke-width:1.0;" x1="794.5" x2="794.5" y1="408.5938" y2="428.8906"/><rect fill="none" height="60.8906" rx="5" ry="5" style="stroke:#000000;stroke-width:1.5;" width="151" x="700.5" y="368"/><rect fill="#F1F1F1" height="20.2969" rx="5" ry="5" style="stroke:#F1F1F1;stroke-width:1.5;" width="141" x="953" y="388.3516"/><text fill="#000000" font-family="sans-serif" font-size="14" font-weight="bold" lengthAdjust="spacing" textLength="109" x="958" y="403.3467">Aggregatable</text><text fill="#000000" font-family="sans-serif" font-size="14" lengthAdjust="spacing" textLength="12" x="1077" y="403.3467">&#160;&#160;&#160;</text><line style="stroke:#000000;stroke-width:1.0;" x1="1072" x2="1072" y1="388.3516" y2="408.6484"/><rect fill="none" height="20.2969" rx="5" ry="5" style="stroke:#000000;stroke-width:1.5;" width="141" x="953" y="388.3516"/><rect fill="#F1F1F1" height="60.8906" rx="5" ry="5" style="stroke:#F1F1F1;stroke-width:1.5;" width="238" x="1215" y="423"/><text fill="#000000" font-family="sans-serif" font-size="14" font-weight="bold" lengthAdjust="spacing" textLength="36" x="1220" y="437.9951">type</text><text fill="#000000" font-family="sans-serif" font-size="14" lengthAdjust="spacing" textLength="47" x="1397" y="437.9951">object</text><line style="stroke:#000000;stroke-width:1.0;" x1="1392" x2="1392" y1="423" y2="443.2969"/><line style="stroke:#000000;stroke-width:1.0;" x1="1215" x2="1453" y1="443.2969" y2="443.2969"/><text fill="#000000" font-family="sans-serif" font-size="14" font-weight="bold" lengthAdjust="spacing" textLength="84" x="1220" y="458.292">properties</text><text fill="#000000" font-family="sans-serif" font-size="14" lengthAdjust="spacing" textLength="12" x="1397" y="458.292">&#160;&#160;&#160;</text><line style="stroke:#000000;stroke-width:1.0;" x1="1392" x2="1392" y1="443.2969" y2="463.5938"/><line style="stroke:#000000;stroke-width:1.0;" x1="1215" x2="1453" y1="463.5938" y2="463.5938"/><text fill="#000000" font-family="sans-serif" font-size="14" font-weight="bold" lengthAdjust="spacing" textLength="167" x="1220" y="478.5889">additionalProperties</text><text fill="#000000" font-family="sans-serif" font-size="14" lengthAdjust="spacing" textLength="51" x="1397" y="478.5889">&#9744; false</text><line style="stroke:#000000;stroke-width:1.0;" x1="1392" x2="1392" y1="463.5938" y2="483.8906"/><rect fill="none" height="60.8906" rx="5" ry="5" style="stroke:#000000;stroke-width:1.5;" width="238" x="1215" y="423"/><rect fill="#F1F1F1" height="40.5938" rx="5" ry="5" style="stroke:#F1F1F1;stroke-width:1.5;" width="113" x="1755.5" y="433"/><text fill="#000000" font-family="sans-serif" font-size="14" font-weight="bold" lengthAdjust="spacing" textLength="77" x="1760.5" y="447.9951">MinCount</text><text fill="#000000" font-family="sans-serif" font-size="14" lengthAdjust="spacing" textLength="12" x="1851.5" y="447.9951">&#160;&#160;&#160;</text><line style="stroke:#000000;stroke-width:1.0;" x1="1846.5" x2="1846.5" y1="433" y2="453.2969"/><line style="stroke:#000000;stroke-width:1.0;" x1="1755.5" x2="1868.5" y1="453.2969" y2="453.2969"/><text fill="#000000" font-family="sans-serif" font-size="14" font-weight="bold" lengthAdjust="spacing" textLength="81" x="1760.5" y="468.292">MaxCount</text><text fill="#000000" font-family="sans-serif" font-size="14" lengthAdjust="spacing" textLength="12" x="1851.5" y="468.292">&#160;&#160;&#160;</text><line style="stroke:#000000;stroke-width:1.0;" x1="1846.5" x2="1846.5" y1="453.2969" y2="473.5938"/><rect fill="none" height="40.5938" rx="5" ry="5" style="stroke:#000000;stroke-width:1.5;" width="113" x="1755.5" y="433"/><rect fill="#F1F1F1" height="40.5938" rx="5" ry="5" style="stroke:#F1F1F1;stroke-width:1.5;" width="492" x="2109.5" y="403"/><text fill="#000000" font-family="sans-serif" font-size="14" font-weight="bold" lengthAdjust="spacing" textLength="36" x="2114.5" y="417.9951">type</text><text fill="#000000" font-family="sans-serif" font-size="14" lengthAdjust="spacing" textLength="53" x="2216.5" y="417.9951">integer</text><line style="stroke:#000000;stroke-width:1.0;" x1="2211.5" x2="2211.5" y1="403" y2="423.2969"/><line style="stroke:#000000;stroke-width:1.0;" x1="2109.5" x2="2601.5" y1="423.2969" y2="423.2969"/><text fill="#000000" font-family="sans-serif" font-size="14" font-weight="bold" lengthAdjust="spacing" textLength="92" x="2114.5" y="438.292">description</text><text fill="#000000" font-family="sans-serif" font-size="14" lengthAdjust="spacing" textLength="380" x="2216.5" y="438.292">Minimum required number of instances of the Flavor.</text><line style="stroke:#000000;stroke-width:1.0;" x1="2211.5" x2="2211.5" y1="423.2969" y2="443.5938"/><rect fill="none" height="40.5938" rx="5" ry="5" style="stroke:#000000;stroke-width:1.5;" width="492" x="2109.5" y="403"/><rect fill="#F1F1F1" height="40.5938" rx="5" ry="5" style="stroke:#F1F1F1;stroke-width:1.5;" width="495" x="2108" y="462"/><text fill="#000000" font-family="sans-serif" font-size="14" font-weight="bold" lengthAdjust="spacing" textLength="36" x="2113" y="476.9951">type</text><text fill="#000000" font-family="sans-serif" font-size="14" lengthAdjust="spacing" textLength="53" x="2215" y="476.9951">integer</text><line style="stroke:#000000;stroke-width:1.0;" x1="2210" x2="2210" y1="462" y2="482.2969"/><line style="stroke:#000000;stroke-width:1.0;" x1="2108" x2="2603" y1="482.2969" y2="482.2969"/><text fill="#000000" font-family="sans-serif" font-size="14" font-weight="bold" lengthAdjust="spacing" textLength="92" x="2113" y="497.292">description</text><text fill="#000000" font-family="sans-serif" font-size="14" lengthAdjust="spacing" textLength="383" x="2215" y="497.292">Maximum required number of instances of the Flavor.</text><line style="stroke:#000000;stroke-width:1.0;" x1="2210" x2="2210" y1="482.2969" y2="502.5938"/><rect fill="none" height="40.5938" rx="5" ry="5" style="stroke:#000000;stroke-width:1.5;" width="495" x="2108" y="462"/><rect fill="#F1F1F1" height="20.2969" rx="5" ry="5" style="stroke:#F1F1F1;stroke-width:1.5;" width="108" x="969.5" y="426.3516"/><text fill="#000000" font-family="sans-serif" font-size="14" lengthAdjust="spacing" textLength="98" x="974.5" y="441.3467">Aggregatable</text><rect fill="none" height="20.2969" rx="5" ry="5" style="stroke:#000000;stroke-width:1.5;" width="108" x="969.5" y="426.3516"/><path d="M1103,165.5 L1116,165.5 C1165.754,165.5 1113.9755,91.5873 1152,59.5 C1159.3124,53.3294 1167.4017,48.2064 1175.9858,43.9703 " fill="none" style="stroke:#000000;stroke-width:1.0;stroke-dasharray:3.0,3.0;"/><path d="M1177.2698,46.7643 L1178.0812,43.0073 L1174.7017,41.1764 L1182.9706,40.7601 L1177.2698,46.7643 " fill="#000000" style="stroke:#000000;stroke-width:1.0;"/><ellipse cx="1103" cy="165.5" fill="#000000" rx="3" ry="3" style="stroke:#000000;stroke-width:1.0;"/><path d="M1103,185.5 L1116,185.5 C1149.8041,185.5 1124.4502,138.0889 1152,118.5 C1154.1455,116.9745 1156.3412,115.5171 1158.5817,114.1252 " fill="none" style="stroke:#000000;stroke-width:1.0;stroke-dasharray:3.0,3.0;"/><path d="M1160.1747,116.8653 L1160.6368,112.9305 L1156.9888,111.3851 L1165.4319,110.1428 L1160.1747,116.8653 " fill="#000000" style="stroke:#000000;stroke-width:1.0;"/><ellipse cx="1103" cy="185.5" fill="#000000" rx="3" ry="3" style="stroke:#000000;stroke-width:1.0;"/><path d="M1103,206.5 L1116,206.5 C1136.2698,206.5 1133.4298,186.6248 1152,178.5 C1157.7834,175.9696 1163.7557,173.6512 1169.8533,171.527 " fill="none" style="stroke:#000000;stroke-width:1.0;stroke-dasharray:3.0,3.0;"/><path d="M1170.8155,174.4117 L1172.0169,170.8054 L1168.8912,168.6423 L1177.0651,169.1215 L1170.8155,174.4117 " fill="#000000" style="stroke:#000000;stroke-width:1.0;"/><ellipse cx="1103" cy="206.5" fill="#000000" rx="3" ry="3" style="stroke:#000000;stroke-width:1.0;"/><path d="M1103,226.5 L1116,226.5 C1125.3465,226.5 1134.9104,226.3237 1144.5631,226.0051 " fill="none" style="stroke:#000000;stroke-width:1.0;stroke-dasharray:3.0,3.0;"/><path d="M1144.6772,229.1083 L1146.8904,225.9195 L1144.4489,222.902 L1152.3209,225.7198 L1144.6772,229.1083 " fill="#000000" style="stroke:#000000;stroke-width:1.0;"/><ellipse cx="1103" cy="226.5" fill="#000000" rx="3" ry="3" style="stroke:#000000;stroke-width:1.0;"/><path d="M1103,246.5 L1116,246.5 C1139.6258,246.5 1164.6347,247.6847 1188.9541,249.4773 " fill="none" style="stroke:#000000;stroke-width:1.0;stroke-dasharray:3.0,3.0;"/><path d="M1188.724,252.4865 L1191.2109,249.6499 L1189.1841,246.4681 L1196.477,250.0526 L1188.724,252.4865 " fill="#000000" style="stroke:#000000;stroke-width:1.0;"/><ellipse cx="1103" cy="246.5" fill="#000000" rx="3" ry="3" style="stroke:#000000;stroke-width:1.0;"/><path d="M1373.5,335.5 L1386.5,335.5 C1437.9259,335.5 1492.8521,335.5 1545.5608,335.5 " fill="none" style="stroke:#000000;stroke-width:1.0;stroke-dasharray:3.0,3.0;"/><path d="M1545.5608,338.604 L1547.8888,335.5 L1545.5608,332.396 L1553.3207,335.5 L1545.5608,338.604 " fill="#000000" style="stroke:#000000;stroke-width:1.0;"/><ellipse cx="1373.5" cy="335.5" fill="#000000" rx="3" ry="3" style="stroke:#000000;stroke-width:1.0;"/><path d="M1103,267.5 L1116,267.5 C1136.5456,267.5 1133.2256,288.1546 1152,296.5 C1191.0647,313.8647 1238.9493,320.9968 1275.724,323.8507 " fill="none" style="stroke:#000000;stroke-width:1.0;stroke-dasharray:3.0,3.0;"/><path d="M1275.5055,326.9193 L1278.0255,324.0145 L1275.9425,320.7821 L1283.3955,324.3968 L1275.5055,326.9193 " fill="#000000" style="stroke:#000000;stroke-width:1.0;"/><ellipse cx="1103" cy="267.5" fill="#000000" rx="3" ry="3" style="stroke:#000000;stroke-width:1.0;"/><path d="M1103,287.5 L1116,287.5 C1150.1962,287.5 1124.1917,335.5983 1152,355.5 C1160.3524,361.4776 1169.4738,366.4105 1179.0386,370.4669 " fill="none" style="stroke:#000000;stroke-width:1.0;stroke-dasharray:3.0,3.0;"/><path d="M1177.9182,373.2823 L1181.1502,371.3073 L1180.1591,367.6515 L1186.0771,373.2681 L1177.9182,373.2823 " fill="#000000" style="stroke:#000000;stroke-width:1.0;"/><ellipse cx="1103" cy="287.5" fill="#000000" rx="3" ry="3" style="stroke:#000000;stroke-width:1.0;"/><path d="M883,273.5 L896,273.5 C905.461,273.5 915.0857,272.3386 924.589,270.3809 " fill="none" style="stroke:#000000;stroke-width:1.0;stroke-dasharray:3.0,3.0;"/><path d="M925.2825,273.4169 L926.866,269.8608 L923.8955,267.345 L932.1789,268.6472 L925.2825,273.4169 " fill="#000000" style="stroke:#000000;stroke-width:1.0;"/><ellipse cx="883" cy="273.5" fill="#000000" rx="3" ry="3" style="stroke:#000000;stroke-width:1.0;"/><path d="M608,325.5 L621,325.5 C650.2323,325.5 681.0268,317.0349 707.3642,306.9356 " fill="none" style="stroke:#000000;stroke-width:1.0;stroke-dasharray:3.0,3.0;"/><path d="M708.5187,309.8577 L709.5558,306.0697 L706.2097,304.0135 L714.6695,304.0494 L708.5187,309.8577 " fill="#000000" style="stroke:#000000;stroke-width:1.0;"/><ellipse cx="608" cy="325.5" fill="#000000" rx="3" ry="3" style="stroke:#000000;stroke-width:1.0;"/><path d="M1857.5,443.5 L1870.5,443.5 C1945.7867,443.5 2027.5979,441.0594 2102.188,437.8833 " fill="none" style="stroke:#000000;stroke-width:1.0;stroke-dasharray:3.0,3.0;"/><path d="M2102.3199,440.9468 L2104.4856,437.7843 L2102.0561,434.8197 L2109.8469,437.5535 L2102.3199,440.9468 " fill="#000000" style="stroke:#000000;stroke-width:1.0;"/><ellipse cx="1857.5" cy="443.5" fill="#000000" rx="3" ry="3" style="stroke:#000000;stroke-width:1.0;"/><path d="M1857.5,463.5 L1870.5,463.5 C1945.2718,463.5 2026.4846,465.7874 2100.6671,468.7748 " fill="none" style="stroke:#000000;stroke-width:1.0;stroke-dasharray:3.0,3.0;"/><path d="M2100.543,471.8219 L2102.9524,468.8679 L2100.7912,465.7278 L2108.2847,469.0851 L2100.543,471.8219 " fill="#000000" style="stroke:#000000;stroke-width:1.0;"/><ellipse cx="1857.5" cy="463.5" fill="#000000" rx="3" ry="3" style="stroke:#000000;stroke-width:1.0;"/><path d="M1441.5,453.5 L1454.5,453.5 C1557.3564,453.5 1676.882,453.5 1748.2413,453.5 " fill="none" style="stroke:#000000;stroke-width:1.0;stroke-dasharray:3.0,3.0;"/><path d="M1748.2413,456.5422 L1750.523,453.5 L1748.2413,450.4578 L1755.8468,453.5 L1748.2413,456.5422 " fill="#000000" style="stroke:#000000;stroke-width:1.0;"/><ellipse cx="1441.5" cy="453.5" fill="#000000" rx="3" ry="3" style="stroke:#000000;stroke-width:1.0;"/><path d="M1083,398.5 L1096,398.5 C1121.8848,398.5 1126.888,408.222 1152,414.5 C1169.9421,418.9855 1188.96,423.4197 1207.6698,427.6001 " fill="none" style="stroke:#000000;stroke-width:1.0;stroke-dasharray:3.0,3.0;"/><path d="M1207.0095,430.5727 L1209.8992,428.0954 L1208.3302,424.6276 L1215.1012,429.251 L1207.0095,430.5727 " fill="#000000" style="stroke:#000000;stroke-width:1.0;"/><ellipse cx="1083" cy="398.5" fill="#000000" rx="3" ry="3" style="stroke:#000000;stroke-width:1.0;"/><path d="M840.5,398.5 L853.5,398.5 C883.6197,398.5 916.7499,398.5 945.6686,398.5 " fill="none" style="stroke:#000000;stroke-width:1.0;stroke-dasharray:3.0,3.0;"/><path d="M945.6686,401.5586 L947.9626,398.5 L945.6686,395.4414 L953.3152,398.5 L945.6686,401.5586 " fill="#000000" style="stroke:#000000;stroke-width:1.0;"/><ellipse cx="840.5" cy="398.5" fill="#000000" rx="3" ry="3" style="stroke:#000000;stroke-width:1.0;"/><path d="M840.5,418.5 L853.5,418.5 C889.663,418.5 929.9245,422.6016 962.1312,426.889 " fill="none" style="stroke:#000000;stroke-width:1.0;stroke-dasharray:3.0,3.0;"/><path d="M961.7181,429.9228 L964.4065,427.1988 L962.5443,423.8553 L969.7156,427.9217 L961.7181,429.9228 " fill="#000000" style="stroke:#000000;stroke-width:1.0;"/><ellipse cx="840.5" cy="418.5" fill="#000000" rx="3" ry="3" style="stroke:#000000;stroke-width:1.0;"/><path d="M608,345.5 L621,345.5 C650.9357,345.5 682.4548,354.5125 709.1608,365.1046 " fill="none" style="stroke:#000000;stroke-width:1.0;stroke-dasharray:3.0,3.0;"/><path d="M708.0119,367.9205 L711.2727,365.9663 L710.3096,362.2888 L716.2004,367.9768 L708.0119,367.9205 " fill="#000000" style="stroke:#000000;stroke-width:1.0;"/><ellipse cx="608" cy="345.5" fill="#000000" rx="3" ry="3" style="stroke:#000000;stroke-width:1.0;"/><path d="M414,335.5 L427,335.5 C436.292,335.5 446.0101,335.5 455.6854,335.5 " fill="none" style="stroke:#000000;stroke-width:1.0;stroke-dasharray:3.0,3.0;"/><path d="M455.6854,338.5965 L458.0078,335.5 L455.6854,332.4035 L463.4267,335.5 L455.6854,338.5965 " fill="#000000" style="stroke:#000000;stroke-width:1.0;"/><ellipse cx="414" cy="335.5" fill="#000000" rx="3" ry="3" style="stroke:#000000;stroke-width:1.0;"/><!--SRC=[lPPBRzf04CVl-ob6RWyW1KYZAAquXUP15U4AXP1BrSDW3sPJUzSTZsbGbU_UjGaa912SLxbbdh_P-JFaC1DakSgiKNyLk8_tCGicbA3N1cyYahPRhSBRc5kRbgDMo3YMnkxdrjpsmTkPPyeifIBDZgueaALLIroQB_s5AQGiO9sAjgPqQ9OSO_0nc6X3C8vnQXdAShSPATkKM3HbBc4EMjgF9iWO2B7EH0UhpirCI- -6iaj_XnsHkCISQMt4IezCM9leGOzbr8EXxvS6EmQP49oMWpUzHmLk7jVqZlh3xKZQ24N45Pc-vyc8kA1nnI6mJDcBq7nABC_UcgwJsDn80NJUyL_4rNtF9-k-wia6OXaZUcky2yU1otVBRfjK8w8WPospWQ09aSDiEniousmJcHDxihb6zI_IkZ4Nh6x2MrZ8yZIrB1J2Q7Pl7L2ZPjJSWUvn_xo-PZVbQrHwdnuAcM3s7XkBvwMt2qaz0UbX6EgYAiRz-sTkZ756QasIrxUnNZFGQsze5355A3YAAyXxRO-glUuEa3P7XUYVZ7h6aZOjo_NHIPu0q-zSizEQMPu3RGej1XNEmHCYkni8h__FG7ZzXWEfPunPJQxLbB-WT-a_jWXonVrJhTQ_KJVga4nO_dka-Z4Q6Vezc19d3XG-DVTsz_QR-oCIFAWDpIzZ_nZt6v2aEYOGdL1TrRhz7cGsvu0WrCLX6-N5b7LrXbE4SxTJ5zU6ug_QXL-7mSd222TcgjcQX8oeiqj_7WJVh0nIAsNmmNxZgnOO43ickFJLCOqnZyMb1ZPqDxGDmulJnXVLGnFbxlItWOmgbSGpvnly0m00]--></g></svg>