<?xml version="1.0" encoding="us-ascii" standalone="no"?><svg xmlns="http://www.w3.org/2000/svg" xmlns:xlink="http://www.w3.org/1999/xlink" contentStyleType="text/css" height="534px" preserveAspectRatio="none" style="width:2364px;height:534px;background:#FFFFFF;" version="1.1" viewBox="0 0 2364 534" width="2364px" zoomAndPan="magnify"><defs/><g><rect fill="#F1F1F1" height="101.4844" rx="5" ry="5" style="stroke:#F1F1F1;stroke-width:1.5;" width="416" x="10" y="251.7578"/><text fill="#000000" font-family="sans-serif" font-size="14" font-weight="bold" lengthAdjust="spacing" textLength="72" x="15" y="266.7529">$schema</text><text fill="#000000" font-family="sans-serif" font-size="14" lengthAdjust="spacing" textLength="304" x="117" y="266.7529">http://json-schema.org/draft-07/schema#</text><line style="stroke:#000000;stroke-width:1.0;" x1="112" x2="112" y1="251.7578" y2="272.0547"/><line style="stroke:#000000;stroke-width:1.0;" x1="10" x2="426" y1="272.0547" y2="272.0547"/><text fill="#000000" font-family="sans-serif" font-size="14" font-weight="bold" lengthAdjust="spacing" textLength="36" x="15" y="287.0498">type</text><text fill="#000000" font-family="sans-serif" font-size="14" lengthAdjust="spacing" textLength="47" x="117" y="287.0498">object</text><line style="stroke:#000000;stroke-width:1.0;" x1="112" x2="112" y1="272.0547" y2="292.3516"/><line style="stroke:#000000;stroke-width:1.0;" x1="10" x2="426" y1="292.3516" y2="292.3516"/><text fill="#000000" font-family="sans-serif" font-size="14" font-weight="bold" lengthAdjust="spacing" textLength="35" x="15" y="307.3467">title</text><text fill="#000000" font-family="sans-serif" font-size="14" lengthAdjust="spacing" textLength="22" x="117" y="307.3467">VM</text><line style="stroke:#000000;stroke-width:1.0;" x1="112" x2="112" y1="292.3516" y2="312.6484"/><line style="stroke:#000000;stroke-width:1.0;" x1="10" x2="426" y1="312.6484" y2="312.6484"/><text fill="#000000" font-family="sans-serif" font-size="14" font-weight="bold" lengthAdjust="spacing" textLength="92" x="15" y="327.6436">description</text><text fill="#000000" font-family="sans-serif" font-size="14" lengthAdjust="spacing" textLength="193" x="117" y="327.6436">Virtual Machine flavor type</text><line style="stroke:#000000;stroke-width:1.0;" x1="112" x2="112" y1="312.6484" y2="332.9453"/><line style="stroke:#000000;stroke-width:1.0;" x1="10" x2="426" y1="332.9453" y2="332.9453"/><text fill="#000000" font-family="sans-serif" font-size="14" font-weight="bold" lengthAdjust="spacing" textLength="84" x="15" y="347.9404">properties</text><text fill="#000000" font-family="sans-serif" font-size="14" lengthAdjust="spacing" textLength="12" x="117" y="347.9404">&#160;&#160;&#160;</text><line style="stroke:#000000;stroke-width:1.0;" x1="112" x2="112" y1="332.9453" y2="353.2422"/><rect fill="none" height="101.4844" rx="5" ry="5" style="stroke:#000000;stroke-width:1.5;" width="416" x="10" y="251.7578"/><rect fill="#F1F1F1" height="40.5938" rx="5" ry="5" style="stroke:#F1F1F1;stroke-width:1.5;" width="157" x="463" y="323"/><text fill="#000000" font-family="sans-serif" font-size="14" font-weight="bold" lengthAdjust="spacing" textLength="125" x="468" y="337.9951">Characteristics</text><text fill="#000000" font-family="sans-serif" font-size="14" lengthAdjust="spacing" textLength="12" x="603" y="337.9951">&#160;&#160;&#160;</text><line style="stroke:#000000;stroke-width:1.0;" x1="598" x2="598" y1="323" y2="343.2969"/><line style="stroke:#000000;stroke-width:1.0;" x1="463" x2="620" y1="343.2969" y2="343.2969"/><text fill="#000000" font-family="sans-serif" font-size="14" font-weight="bold" lengthAdjust="spacing" textLength="48" x="468" y="358.292">Policy</text><text fill="#000000" font-family="sans-serif" font-size="14" lengthAdjust="spacing" textLength="12" x="603" y="358.292">&#160;&#160;&#160;</text><line style="stroke:#000000;stroke-width:1.0;" x1="598" x2="598" y1="343.2969" y2="363.5938"/><rect fill="none" height="40.5938" rx="5" ry="5" style="stroke:#000000;stroke-width:1.5;" width="157" x="463" y="323"/><rect fill="#F1F1F1" height="60.8906" rx="5" ry="5" style="stroke:#F1F1F1;stroke-width:1.5;" width="238" x="657" y="248"/><text fill="#000000" font-family="sans-serif" font-size="14" font-weight="bold" lengthAdjust="spacing" textLength="36" x="662" y="262.9951">type</text><text fill="#000000" font-family="sans-serif" font-size="14" lengthAdjust="spacing" textLength="47" x="839" y="262.9951">object</text><line style="stroke:#000000;stroke-width:1.0;" x1="834" x2="834" y1="248" y2="268.2969"/><line style="stroke:#000000;stroke-width:1.0;" x1="657" x2="895" y1="268.2969" y2="268.2969"/><text fill="#000000" font-family="sans-serif" font-size="14" font-weight="bold" lengthAdjust="spacing" textLength="84" x="662" y="283.292">properties</text><text fill="#000000" font-family="sans-serif" font-size="14" lengthAdjust="spacing" textLength="12" x="839" y="283.292">&#160;&#160;&#160;</text><line style="stroke:#000000;stroke-width:1.0;" x1="834" x2="834" y1="268.2969" y2="288.5938"/><line style="stroke:#000000;stroke-width:1.0;" x1="657" x2="895" y1="288.5938" y2="288.5938"/><text fill="#000000" font-family="sans-serif" font-size="14" font-weight="bold" lengthAdjust="spacing" textLength="167" x="662" y="303.5889">additionalProperties</text><text fill="#000000" font-family="sans-serif" font-size="14" lengthAdjust="spacing" textLength="51" x="839" y="303.5889">&#9744; false</text><line style="stroke:#000000;stroke-width:1.0;" x1="834" x2="834" y1="288.5938" y2="308.8906"/><rect fill="none" height="60.8906" rx="5" ry="5" style="stroke:#000000;stroke-width:1.5;" width="238" x="657" y="248"/><rect fill="#F1F1F1" height="142.0781" rx="5" ry="5" style="stroke:#F1F1F1;stroke-width:1.5;" width="183" x="932" y="155.4609"/><text fill="#000000" font-family="sans-serif" font-size="14" font-weight="bold" lengthAdjust="spacing" textLength="102" x="937" y="170.4561">Architecture</text><text fill="#000000" font-family="sans-serif" font-size="14" lengthAdjust="spacing" textLength="12" x="1098" y="170.4561">&#160;&#160;&#160;</text><line style="stroke:#000000;stroke-width:1.0;" x1="1093" x2="1093" y1="155.4609" y2="175.7578"/><line style="stroke:#000000;stroke-width:1.0;" x1="932" x2="1115" y1="175.7578" y2="175.7578"/><text fill="#000000" font-family="sans-serif" font-size="14" font-weight="bold" lengthAdjust="spacing" textLength="31" x="937" y="190.7529">CPU</text><text fill="#000000" font-family="sans-serif" font-size="14" lengthAdjust="spacing" textLength="12" x="1098" y="190.7529">&#160;&#160;&#160;</text><line style="stroke:#000000;stroke-width:1.0;" x1="1093" x2="1093" y1="175.7578" y2="196.0547"/><line style="stroke:#000000;stroke-width:1.0;" x1="932" x2="1115" y1="196.0547" y2="196.0547"/><text fill="#000000" font-family="sans-serif" font-size="14" font-weight="bold" lengthAdjust="spacing" textLength="64" x="937" y="211.0498">Memory</text><text fill="#000000" font-family="sans-serif" font-size="14" lengthAdjust="spacing" textLength="12" x="1098" y="211.0498">&#160;&#160;&#160;</text><line style="stroke:#000000;stroke-width:1.0;" x1="1093" x2="1093" y1="196.0547" y2="216.3516"/><line style="stroke:#000000;stroke-width:1.0;" x1="932" x2="1115" y1="216.3516" y2="216.3516"/><text fill="#000000" font-family="sans-serif" font-size="14" font-weight="bold" lengthAdjust="spacing" textLength="33" x="937" y="231.3467">GPU</text><text fill="#000000" font-family="sans-serif" font-size="14" lengthAdjust="spacing" textLength="12" x="1098" y="231.3467">&#160;&#160;&#160;</text><line style="stroke:#000000;stroke-width:1.0;" x1="1093" x2="1093" y1="216.3516" y2="236.6484"/><line style="stroke:#000000;stroke-width:1.0;" x1="932" x2="1115" y1="236.6484" y2="236.6484"/><text fill="#000000" font-family="sans-serif" font-size="14" font-weight="bold" lengthAdjust="spacing" textLength="64" x="937" y="251.6436">Storage</text><text fill="#000000" font-family="sans-serif" font-size="14" lengthAdjust="spacing" textLength="12" x="1098" y="251.6436">&#160;&#160;&#160;</text><line style="stroke:#000000;stroke-width:1.0;" x1="1093" x2="1093" y1="236.6484" y2="256.9453"/><line style="stroke:#000000;stroke-width:1.0;" x1="932" x2="1115" y1="256.9453" y2="256.9453"/><text fill="#000000" font-family="sans-serif" font-size="14" font-weight="bold" lengthAdjust="spacing" textLength="151" x="937" y="271.9404">SecurityStandards</text><text fill="#000000" font-family="sans-serif" font-size="14" lengthAdjust="spacing" textLength="12" x="1098" y="271.9404">&#160;&#160;&#160;</text><line style="stroke:#000000;stroke-width:1.0;" x1="1093" x2="1093" y1="256.9453" y2="277.2422"/><line style="stroke:#000000;stroke-width:1.0;" x1="932" x2="1115" y1="277.2422" y2="277.2422"/><text fill="#000000" font-family="sans-serif" font-size="14" font-weight="bold" lengthAdjust="spacing" textLength="64" x="937" y="292.2373">Latency</text><text fill="#000000" font-family="sans-serif" font-size="14" lengthAdjust="spacing" textLength="12" x="1098" y="292.2373">&#160;&#160;&#160;</text><line style="stroke:#000000;stroke-width:1.0;" x1="1093" x2="1093" y1="277.2422" y2="297.5391"/><rect fill="none" height="142.0781" rx="5" ry="5" style="stroke:#000000;stroke-width:1.5;" width="183" x="932" y="155.4609"/><rect fill="#F1F1F1" height="40.5938" rx="5" ry="5" style="stroke:#F1F1F1;stroke-width:1.5;" width="303" x="1259.5" y="10"/><text fill="#000000" font-family="sans-serif" font-size="14" font-weight="bold" lengthAdjust="spacing" textLength="36" x="1264.5" y="24.9951">type</text><text fill="#000000" font-family="sans-serif" font-size="14" lengthAdjust="spacing" textLength="42" x="1366.5" y="24.9951">string</text><line style="stroke:#000000;stroke-width:1.0;" x1="1361.5" x2="1361.5" y1="10" y2="30.2969"/><line style="stroke:#000000;stroke-width:1.0;" x1="1259.5" x2="1562.5" y1="30.2969" y2="30.2969"/><text fill="#000000" font-family="sans-serif" font-size="14" font-weight="bold" lengthAdjust="spacing" textLength="92" x="1264.5" y="45.292">description</text><text fill="#000000" font-family="sans-serif" font-size="14" lengthAdjust="spacing" textLength="191" x="1366.5" y="45.292">Architecture of the Flavor.</text><line style="stroke:#000000;stroke-width:1.0;" x1="1361.5" x2="1361.5" y1="30.2969" y2="50.5938"/><rect fill="none" height="40.5938" rx="5" ry="5" style="stroke:#000000;stroke-width:1.5;" width="303" x="1259.5" y="10"/><rect fill="#F1F1F1" height="40.5938" rx="5" ry="5" style="stroke:#F1F1F1;stroke-width:1.5;" width="363" x="1229.5" y="69"/><text fill="#000000" font-family="sans-serif" font-size="14" font-weight="bold" lengthAdjust="spacing" textLength="36" x="1234.5" y="83.9951">type</text><text fill="#000000" font-family="sans-serif" font-size="14" lengthAdjust="spacing" textLength="53" x="1336.5" y="83.9951">integer</text><line style="stroke:#000000;stroke-width:1.0;" x1="1331.5" x2="1331.5" y1="69" y2="89.2969"/><line style="stroke:#000000;stroke-width:1.0;" x1="1229.5" x2="1592.5" y1="89.2969" y2="89.2969"/><text fill="#000000" font-family="sans-serif" font-size="14" font-weight="bold" lengthAdjust="spacing" textLength="92" x="1234.5" y="104.292">description</text><text fill="#000000" font-family="sans-serif" font-size="14" lengthAdjust="spacing" textLength="251" x="1336.5" y="104.292">Number of CPU cores of the Flavor.</text><line style="stroke:#000000;stroke-width:1.0;" x1="1331.5" x2="1331.5" y1="89.2969" y2="109.5938"/><rect fill="none" height="40.5938" rx="5" ry="5" style="stroke:#000000;stroke-width:1.5;" width="363" x="1229.5" y="69"/><rect fill="#F1F1F1" height="40.5938" rx="5" ry="5" style="stroke:#F1F1F1;stroke-width:1.5;" width="324" x="1249" y="128"/><text fill="#000000" font-family="sans-serif" font-size="14" font-weight="bold" lengthAdjust="spacing" textLength="36" x="1254" y="142.9951">type</text><text fill="#000000" font-family="sans-serif" font-size="14" lengthAdjust="spacing" textLength="53" x="1356" y="142.9951">integer</text><line style="stroke:#000000;stroke-width:1.0;" x1="1351" x2="1351" y1="128" y2="148.2969"/><line style="stroke:#000000;stroke-width:1.0;" x1="1249" x2="1573" y1="148.2969" y2="148.2969"/><text fill="#000000" font-family="sans-serif" font-size="14" font-weight="bold" lengthAdjust="spacing" textLength="92" x="1254" y="163.292">description</text><text fill="#000000" font-family="sans-serif" font-size="14" lengthAdjust="spacing" textLength="212" x="1356" y="163.292">Amount of RAM of the Flavor.</text><line style="stroke:#000000;stroke-width:1.0;" x1="1351" x2="1351" y1="148.2969" y2="168.5938"/><rect fill="none" height="40.5938" rx="5" ry="5" style="stroke:#000000;stroke-width:1.5;" width="324" x="1249" y="128"/><rect fill="#F1F1F1" height="40.5938" rx="5" ry="5" style="stroke:#F1F1F1;stroke-width:1.5;" width="364" x="1229" y="187"/><text fill="#000000" font-family="sans-serif" font-size="14" font-weight="bold" lengthAdjust="spacing" textLength="36" x="1234" y="201.9951">type</text><text fill="#000000" font-family="sans-serif" font-size="14" lengthAdjust="spacing" textLength="53" x="1336" y="201.9951">integer</text><line style="stroke:#000000;stroke-width:1.0;" x1="1331" x2="1331" y1="187" y2="207.2969"/><line style="stroke:#000000;stroke-width:1.0;" x1="1229" x2="1593" y1="207.2969" y2="207.2969"/><text fill="#000000" font-family="sans-serif" font-size="14" font-weight="bold" lengthAdjust="spacing" textLength="92" x="1234" y="222.292">description</text><text fill="#000000" font-family="sans-serif" font-size="14" lengthAdjust="spacing" textLength="252" x="1336" y="222.292">Number of GPU cores of the Flavor.</text><line style="stroke:#000000;stroke-width:1.0;" x1="1331" x2="1331" y1="207.2969" y2="227.5938"/><rect fill="none" height="40.5938" rx="5" ry="5" style="stroke:#000000;stroke-width:1.5;" width="364" x="1229" y="187"/><rect fill="#F1F1F1" height="40.5938" rx="5" ry="5" style="stroke:#F1F1F1;stroke-width:1.5;" width="276" x="1273" y="246"/><text fill="#000000" font-family="sans-serif" font-size="14" font-weight="bold" lengthAdjust="spacing" textLength="36" x="1278" y="260.9951">type</text><text fill="#000000" font-family="sans-serif" font-size="14" lengthAdjust="spacing" textLength="53" x="1380" y="260.9951">integer</text><line style="stroke:#000000;stroke-width:1.0;" x1="1375" x2="1375" y1="246" y2="266.2969"/><line style="stroke:#000000;stroke-width:1.0;" x1="1273" x2="1549" y1="266.2969" y2="266.2969"/><text fill="#000000" font-family="sans-serif" font-size="14" font-weight="bold" lengthAdjust="spacing" textLength="92" x="1278" y="281.292">description</text><text fill="#000000" font-family="sans-serif" font-size="14" lengthAdjust="spacing" textLength="164" x="1380" y="281.292">The amount of storage</text><line style="stroke:#000000;stroke-width:1.0;" x1="1375" x2="1375" y1="266.2969" y2="286.5938"/><rect fill="none" height="40.5938" rx="5" ry="5" style="stroke:#000000;stroke-width:1.5;" width="276" x="1273" y="246"/><rect fill="#F1F1F1" height="60.8906" rx="5" ry="5" style="stroke:#F1F1F1;stroke-width:1.5;" width="518" x="1152" y="305"/><text fill="#000000" font-family="sans-serif" font-size="14" font-weight="bold" lengthAdjust="spacing" textLength="36" x="1157" y="319.9951">type</text><text fill="#000000" font-family="sans-serif" font-size="14" lengthAdjust="spacing" textLength="36" x="1259" y="319.9951">array</text><line style="stroke:#000000;stroke-width:1.0;" x1="1254" x2="1254" y1="305" y2="325.2969"/><line style="stroke:#000000;stroke-width:1.0;" x1="1152" x2="1670" y1="325.2969" y2="325.2969"/><text fill="#000000" font-family="sans-serif" font-size="14" font-weight="bold" lengthAdjust="spacing" textLength="92" x="1157" y="340.292">description</text><text fill="#000000" font-family="sans-serif" font-size="14" lengthAdjust="spacing" textLength="406" x="1259" y="340.292">Security standards supported by the Flavor (e.g., GDPR).</text><line style="stroke:#000000;stroke-width:1.0;" x1="1254" x2="1254" y1="325.2969" y2="345.5938"/><line style="stroke:#000000;stroke-width:1.0;" x1="1152" x2="1670" y1="345.5938" y2="345.5938"/><text fill="#000000" font-family="sans-serif" font-size="14" font-weight="bold" lengthAdjust="spacing" textLength="46" x="1157" y="360.5889">items</text><text fill="#000000" font-family="sans-serif" font-size="14" lengthAdjust="spacing" textLength="12" x="1259" y="360.5889">&#160;&#160;&#160;</text><line style="stroke:#000000;stroke-width:1.0;" x1="1254" x2="1254" y1="345.5938" y2="365.8906"/><rect fill="none" height="60.8906" rx="5" ry="5" style="stroke:#000000;stroke-width:1.5;" width="518" x="1152" y="305"/><rect fill="#F1F1F1" height="20.2969" rx="5" ry="5" style="stroke:#F1F1F1;stroke-width:1.5;" width="98" x="1714.5" y="345.3516"/><text fill="#000000" font-family="sans-serif" font-size="14" font-weight="bold" lengthAdjust="spacing" textLength="36" x="1719.5" y="360.3467">type</text><text fill="#000000" font-family="sans-serif" font-size="14" lengthAdjust="spacing" textLength="42" x="1765.5" y="360.3467">string</text><line style="stroke:#000000;stroke-width:1.0;" x1="1760.5" x2="1760.5" y1="345.3516" y2="365.6484"/><rect fill="none" height="20.2969" rx="5" ry="5" style="stroke:#000000;stroke-width:1.5;" width="98" x="1714.5" y="345.3516"/><rect fill="#F1F1F1" height="40.5938" rx="5" ry="5" style="stroke:#F1F1F1;stroke-width:1.5;" width="296" x="1263" y="384"/><text fill="#000000" font-family="sans-serif" font-size="14" font-weight="bold" lengthAdjust="spacing" textLength="36" x="1268" y="398.9951">type</text><text fill="#000000" font-family="sans-serif" font-size="14" lengthAdjust="spacing" textLength="53" x="1370" y="398.9951">integer</text><line style="stroke:#000000;stroke-width:1.0;" x1="1365" x2="1365" y1="384" y2="404.2969"/><line style="stroke:#000000;stroke-width:1.0;" x1="1263" x2="1559" y1="404.2969" y2="404.2969"/><text fill="#000000" font-family="sans-serif" font-size="14" font-weight="bold" lengthAdjust="spacing" textLength="92" x="1268" y="419.292">description</text><text fill="#000000" font-family="sans-serif" font-size="14" lengthAdjust="spacing" textLength="184" x="1370" y="419.292">The latency of the Flavor.</text><line style="stroke:#000000;stroke-width:1.0;" x1="1365" x2="1365" y1="404.2969" y2="424.5938"/><rect fill="none" height="40.5938" rx="5" ry="5" style="stroke:#000000;stroke-width:1.5;" width="296" x="1263" y="384"/><rect fill="#F1F1F1" height="60.8906" rx="5" ry="5" style="stroke:#F1F1F1;stroke-width:1.5;" width="151" x="700.5" y="378"/><text fill="#000000" font-family="sans-serif" font-size="14" font-weight="bold" lengthAdjust="spacing" textLength="36" x="705.5" y="392.9951">type</text><text fill="#000000" font-family="sans-serif" font-size="14" lengthAdjust="spacing" textLength="47" x="799.5" y="392.9951">object</text><line style="stroke:#000000;stroke-width:1.0;" x1="794.5" x2="794.5" y1="378" y2="398.2969"/><line style="stroke:#000000;stroke-width:1.0;" x1="700.5" x2="851.5" y1="398.2969" y2="398.2969"/><text fill="#000000" font-family="sans-serif" font-size="14" font-weight="bold" lengthAdjust="spacing" textLength="84" x="705.5" y="413.292">properties</text><text fill="#000000" font-family="sans-serif" font-size="14" lengthAdjust="spacing" textLength="12" x="799.5" y="413.292">&#160;&#160;&#160;</text><line style="stroke:#000000;stroke-width:1.0;" x1="794.5" x2="794.5" y1="398.2969" y2="418.5938"/><line style="stroke:#000000;stroke-width:1.0;" x1="700.5" x2="851.5" y1="418.5938" y2="418.5938"/><text fill="#000000" font-family="sans-serif" font-size="14" font-weight="bold" lengthAdjust="spacing" textLength="67" x="705.5" y="433.5889">required</text><text fill="#000000" font-family="sans-serif" font-size="14" lengthAdjust="spacing" textLength="12" x="799.5" y="433.5889">&#160;&#160;&#160;</text><line style="stroke:#000000;stroke-width:1.0;" x1="794.5" x2="794.5" y1="418.5938" y2="438.8906"/><rect fill="none" height="60.8906" rx="5" ry="5" style="stroke:#000000;stroke-width:1.5;" width="151" x="700.5" y="378"/><rect fill="#F1F1F1" height="20.2969" rx="5" ry="5" style="stroke:#F1F1F1;stroke-width:1.5;" width="141" x="953" y="398.3516"/><text fill="#000000" font-family="sans-serif" font-size="14" font-weight="bold" lengthAdjust="spacing" textLength="109" x="958" y="413.3467">Aggregatable</text><text fill="#000000" font-family="sans-serif" font-size="14" lengthAdjust="spacing" textLength="12" x="1077" y="413.3467">&#160;&#160;&#160;</text><line style="stroke:#000000;stroke-width:1.0;" x1="1072" x2="1072" y1="398.3516" y2="418.6484"/><rect fill="none" height="20.2969" rx="5" ry="5" style="stroke:#000000;stroke-width:1.5;" width="141" x="953" y="398.3516"/><rect fill="#F1F1F1" height="60.8906" rx="5" ry="5" style="stroke:#F1F1F1;stroke-width:1.5;" width="238" x="1292" y="443"/><text fill="#000000" font-family="sans-serif" font-size="14" font-weight="bold" lengthAdjust="spacing" textLength="36" x="1297" y="457.9951">type</text><text fill="#000000" font-family="sans-serif" font-size="14" lengthAdjust="spacing" textLength="47" x="1474" y="457.9951">object</text><line style="stroke:#000000;stroke-width:1.0;" x1="1469" x2="1469" y1="443" y2="463.2969"/><line style="stroke:#000000;stroke-width:1.0;" x1="1292" x2="1530" y1="463.2969" y2="463.2969"/><text fill="#000000" font-family="sans-serif" font-size="14" font-weight="bold" lengthAdjust="spacing" textLength="84" x="1297" y="478.292">properties</text><text fill="#000000" font-family="sans-serif" font-size="14" lengthAdjust="spacing" textLength="12" x="1474" y="478.292">&#160;&#160;&#160;</text><line style="stroke:#000000;stroke-width:1.0;" x1="1469" x2="1469" y1="463.2969" y2="483.5938"/><line style="stroke:#000000;stroke-width:1.0;" x1="1292" x2="1530" y1="483.5938" y2="483.5938"/><text fill="#000000" font-family="sans-serif" font-size="14" font-weight="bold" lengthAdjust="spacing" textLength="167" x="1297" y="498.5889">additionalProperties</text><text fill="#000000" font-family="sans-serif" font-size="14" lengthAdjust="spacing" textLength="51" x="1474" y="498.5889">&#9744; false</text><line style="stroke:#000000;stroke-width:1.0;" x1="1469" x2="1469" y1="483.5938" y2="503.8906"/><rect fill="none" height="60.8906" rx="5" ry="5" style="stroke:#000000;stroke-width:1.5;" width="238" x="1292" y="443"/><rect fill="#F1F1F1" height="40.5938" rx="5" ry="5" style="stroke:#F1F1F1;stroke-width:1.5;" width="113" x="1707" y="453"/><text fill="#000000" font-family="sans-serif" font-size="14" font-weight="bold" lengthAdjust="spacing" textLength="77" x="1712" y="467.9951">MinCount</text><text fill="#000000" font-family="sans-serif" font-size="14" lengthAdjust="spacing" textLength="12" x="1803" y="467.9951">&#160;&#160;&#160;</text><line style="stroke:#000000;stroke-width:1.0;" x1="1798" x2="1798" y1="453" y2="473.2969"/><line style="stroke:#000000;stroke-width:1.0;" x1="1707" x2="1820" y1="473.2969" y2="473.2969"/><text fill="#000000" font-family="sans-serif" font-size="14" font-weight="bold" lengthAdjust="spacing" textLength="81" x="1712" y="488.292">MaxCount</text><text fill="#000000" font-family="sans-serif" font-size="14" lengthAdjust="spacing" textLength="12" x="1803" y="488.292">&#160;&#160;&#160;</text><line style="stroke:#000000;stroke-width:1.0;" x1="1798" x2="1798" y1="473.2969" y2="493.5938"/><rect fill="none" height="40.5938" rx="5" ry="5" style="stroke:#000000;stroke-width:1.5;" width="113" x="1707" y="453"/><rect fill="#F1F1F1" height="40.5938" rx="5" ry="5" style="stroke:#F1F1F1;stroke-width:1.5;" width="492" x="1858.5" y="423"/><text fill="#000000" font-family="sans-serif" font-size="14" font-weight="bold" lengthAdjust="spacing" textLength="36" x="1863.5" y="437.9951">type</text><text fill="#000000" font-family="sans-serif" font-size="14" lengthAdjust="spacing" textLength="53" x="1965.5" y="437.9951">integer</text><line style="stroke:#000000;stroke-width:1.0;" x1="1960.5" x2="1960.5" y1="423" y2="443.2969"/><line style="stroke:#000000;stroke-width:1.0;" x1="1858.5" x2="2350.5" y1="443.2969" y2="443.2969"/><text fill="#000000" font-family="sans-serif" font-size="14" font-weight="bold" lengthAdjust="spacing" textLength="92" x="1863.5" y="458.292">description</text><text fill="#000000" font-family="sans-serif" font-size="14" lengthAdjust="spacing" textLength="380" x="1965.5" y="458.292">Minimum required number of instances of the Flavor.</text><line style="stroke:#000000;stroke-width:1.0;" x1="1960.5" x2="1960.5" y1="443.2969" y2="463.5938"/><rect fill="none" height="40.5938" rx="5" ry="5" style="stroke:#000000;stroke-width:1.5;" width="492" x="1858.5" y="423"/><rect fill="#F1F1F1" height="40.5938" rx="5" ry="5" style="stroke:#F1F1F1;stroke-width:1.5;" width="495" x="1857" y="482"/><text fill="#000000" font-family="sans-serif" font-size="14" font-weight="bold" lengthAdjust="spacing" textLength="36" x="1862" y="496.9951">type</text><text fill="#000000" font-family="sans-serif" font-size="14" lengthAdjust="spacing" textLength="53" x="1964" y="496.9951">integer</text><line style="stroke:#000000;stroke-width:1.0;" x1="1959" x2="1959" y1="482" y2="502.2969"/><line style="stroke:#000000;stroke-width:1.0;" x1="1857" x2="2352" y1="502.2969" y2="502.2969"/><text fill="#000000" font-family="sans-serif" font-size="14" font-weight="bold" lengthAdjust="spacing" textLength="92" x="1862" y="517.292">description</text><text fill="#000000" font-family="sans-serif" font-size="14" lengthAdjust="spacing" textLength="383" x="1964" y="517.292">Maximum required number of instances of the Flavor.</text><line style="stroke:#000000;stroke-width:1.0;" x1="1959" x2="1959" y1="502.2969" y2="522.5938"/><rect fill="none" height="40.5938" rx="5" ry="5" style="stroke:#000000;stroke-width:1.5;" width="495" x="1857" y="482"/><rect fill="#F1F1F1" height="20.2969" rx="5" ry="5" style="stroke:#F1F1F1;stroke-width:1.5;" width="108" x="969.5" y="436.3516"/><text fill="#000000" font-family="sans-serif" font-size="14" lengthAdjust="spacing" textLength="98" x="974.5" y="451.3467">Aggregatable</text><rect fill="none" height="20.2969" rx="5" ry="5" style="stroke:#000000;stroke-width:1.5;" width="108" x="969.5" y="436.3516"/><path d="M1103,165.5 L1116,165.5 C1165.754,165.5 1113.2364,90.6904 1152,59.5 C1180.2493,36.7698 1216.2058,25.4448 1252.2566,20.6068 " fill="none" style="stroke:#000000;stroke-width:1.0;stroke-dasharray:3.0,3.0;"/><path d="M1252.6308,23.6834 L1254.564,20.3261 L1251.8823,17.5302 L1259.9481,19.6711 L1252.6308,23.6834 " fill="#000000" style="stroke:#000000;stroke-width:1.0;"/><ellipse cx="1103" cy="165.5" fill="#000000" rx="3" ry="3" style="stroke:#000000;stroke-width:1.0;"/><path d="M1103,185.5 L1116,185.5 C1149.8041,185.5 1124.0001,137.44 1152,118.5 C1173.023,104.2794 1197.2743,94.9051 1222.3232,88.9345 " fill="none" style="stroke:#000000;stroke-width:1.0;stroke-dasharray:3.0,3.0;"/><path d="M1222.9912,91.91 L1224.5548,88.4335 L1221.6552,85.9589 L1229.7621,87.2645 L1222.9912,91.91 " fill="#000000" style="stroke:#000000;stroke-width:1.0;"/><ellipse cx="1103" cy="185.5" fill="#000000" rx="3" ry="3" style="stroke:#000000;stroke-width:1.0;"/><path d="M1103,206.5 L1116,206.5 C1136.5456,206.5 1133.0358,185.4046 1152,177.5 C1179.9559,165.8475 1211.0057,158.3101 1241.6095,153.5313 " fill="none" style="stroke:#000000;stroke-width:1.0;stroke-dasharray:3.0,3.0;"/><path d="M1242.0721,156.6389 L1243.9402,153.1844 L1241.147,150.4238 L1249.3784,152.375 L1242.0721,156.6389 " fill="#000000" style="stroke:#000000;stroke-width:1.0;"/><ellipse cx="1103" cy="206.5" fill="#000000" rx="3" ry="3" style="stroke:#000000;stroke-width:1.0;"/><path d="M1103,226.5 L1116,226.5 C1150.0571,226.5 1186.2837,225.219 1221.257,223.3222 " fill="none" style="stroke:#000000;stroke-width:1.0;stroke-dasharray:3.0,3.0;"/><path d="M1221.4333,226.487 L1223.6307,223.19 L1221.0808,220.1573 L1229.1691,222.8815 L1221.4333,226.487 " fill="#000000" style="stroke:#000000;stroke-width:1.0;"/><ellipse cx="1103" cy="226.5" fill="#000000" rx="3" ry="3" style="stroke:#000000;stroke-width:1.0;"/><path d="M1103,246.5 L1116,246.5 C1164.7655,246.5 1217.969,249.2634 1265.5731,252.7359 " fill="none" style="stroke:#000000;stroke-width:1.0;stroke-dasharray:3.0,3.0;"/><path d="M1265.3479,255.7721 L1267.8503,252.9048 L1265.7983,249.6997 L1273.1636,253.299 L1265.3479,255.7721 " fill="#000000" style="stroke:#000000;stroke-width:1.0;"/><ellipse cx="1103" cy="246.5" fill="#000000" rx="3" ry="3" style="stroke:#000000;stroke-width:1.0;"/><path d="M1658,355.5 L1671,355.5 C1682.661,355.5 1695.1533,355.5 1707.0545,355.5 " fill="none" style="stroke:#000000;stroke-width:1.0;stroke-dasharray:3.0,3.0;"/><path d="M1707.0545,358.5883 L1709.3707,355.5 L1707.0545,352.4117 L1714.7752,355.5 L1707.0545,358.5883 " fill="#000000" style="stroke:#000000;stroke-width:1.0;"/><ellipse cx="1658" cy="355.5" fill="#000000" rx="3" ry="3" style="stroke:#000000;stroke-width:1.0;"/><path d="M1103,267.5 L1116,267.5 C1136.5456,267.5 1133.1895,288.2363 1152,296.5 C1156.6764,298.5544 1161.4412,300.5035 1166.2775,302.3527 " fill="none" style="stroke:#000000;stroke-width:1.0;stroke-dasharray:3.0,3.0;"/><path d="M1165.2222,305.2067 L1168.4181,303.1442 L1167.3329,299.4986 L1173.4127,304.991 L1165.2222,305.2067 " fill="#000000" style="stroke:#000000;stroke-width:1.0;"/><ellipse cx="1103" cy="267.5" fill="#000000" rx="3" ry="3" style="stroke:#000000;stroke-width:1.0;"/><path d="M1103,287.5 L1116,287.5 C1158.2573,287.5 1118.2856,350.0242 1152,375.5 C1181.5171,397.8041 1218.6148,408.8029 1255.4186,413.448 " fill="none" style="stroke:#000000;stroke-width:1.0;stroke-dasharray:3.0,3.0;"/><path d="M1255.06,416.5865 L1257.7725,413.7169 L1255.7772,410.3095 L1263.2649,414.3445 L1255.06,416.5865 " fill="#000000" style="stroke:#000000;stroke-width:1.0;"/><ellipse cx="1103" cy="287.5" fill="#000000" rx="3" ry="3" style="stroke:#000000;stroke-width:1.0;"/><path d="M883,278.5 L896,278.5 C905.6827,278.5 915.4918,277.1895 925.1432,274.9845 " fill="none" style="stroke:#000000;stroke-width:1.0;stroke-dasharray:3.0,3.0;"/><path d="M925.8846,277.9225 L927.3467,274.4285 L924.4017,272.0465 L932.4882,273.1309 L925.8846,277.9225 " fill="#000000" style="stroke:#000000;stroke-width:1.0;"/><ellipse cx="883" cy="278.5" fill="#000000" rx="3" ry="3" style="stroke:#000000;stroke-width:1.0;"/><path d="M608,333.5 L621,333.5 C651.9715,333.5 684.5181,323.5694 711.7092,312.1476 " fill="none" style="stroke:#000000;stroke-width:1.0;stroke-dasharray:3.0,3.0;"/><path d="M712.9459,315.0101 L713.8561,311.2201 L710.4726,309.2851 L718.8655,309.0559 L712.9459,315.0101 " fill="#000000" style="stroke:#000000;stroke-width:1.0;"/><ellipse cx="608" cy="333.5" fill="#000000" rx="3" ry="3" style="stroke:#000000;stroke-width:1.0;"/><path d="M1808,463.5 L1821,463.5 C1830.8124,463.5 1840.8115,463.3789 1850.9087,463.1555 " fill="none" style="stroke:#000000;stroke-width:1.0;stroke-dasharray:3.0,3.0;"/><path d="M1850.9848,466.2511 L1853.2304,463.0984 L1850.8325,460.0599 L1858.6477,462.965 L1850.9848,466.2511 " fill="#000000" style="stroke:#000000;stroke-width:1.0;"/><ellipse cx="1808" cy="463.5" fill="#000000" rx="3" ry="3" style="stroke:#000000;stroke-width:1.0;"/><path d="M1808,483.5 L1821,483.5 C1830.5157,483.5 1840.2074,483.6083 1849.9943,483.8084 " fill="none" style="stroke:#000000;stroke-width:1.0;stroke-dasharray:3.0,3.0;"/><path d="M1849.926,486.8089 L1852.2446,483.8597 L1850.0626,480.8079 L1857.4955,483.9792 L1849.926,486.8089 " fill="#000000" style="stroke:#000000;stroke-width:1.0;"/><ellipse cx="1808" cy="483.5" fill="#000000" rx="3" ry="3" style="stroke:#000000;stroke-width:1.0;"/><path d="M1518.5,473.5 L1531.5,473.5 C1588.4169,473.5 1653.2053,473.5 1699.7388,473.5 " fill="none" style="stroke:#000000;stroke-width:1.0;stroke-dasharray:3.0,3.0;"/><path d="M1699.7388,476.5389 L1702.018,473.5 L1699.7388,470.4611 L1707.3361,473.5 L1699.7388,476.5389 " fill="#000000" style="stroke:#000000;stroke-width:1.0;"/><ellipse cx="1518.5" cy="473.5" fill="#000000" rx="3" ry="3" style="stroke:#000000;stroke-width:1.0;"/><path d="M1083,408.5 L1096,408.5 C1123.4406,408.5 1125.7226,426.5953 1152,434.5 C1194.4358,447.2654 1242.1042,455.9665 1284.8409,461.8466 " fill="none" style="stroke:#000000;stroke-width:1.0;stroke-dasharray:3.0,3.0;"/><path d="M1284.4293,464.9036 L1287.1336,462.1553 L1285.2525,458.7897 L1292.4833,462.8755 L1284.4293,464.9036 " fill="#000000" style="stroke:#000000;stroke-width:1.0;"/><ellipse cx="1083" cy="408.5" fill="#000000" rx="3" ry="3" style="stroke:#000000;stroke-width:1.0;"/><path d="M840.5,408.5 L853.5,408.5 C883.6197,408.5 916.7499,408.5 945.6686,408.5 " fill="none" style="stroke:#000000;stroke-width:1.0;stroke-dasharray:3.0,3.0;"/><path d="M945.6686,411.5586 L947.9626,408.5 L945.6686,405.4414 L953.3152,408.5 L945.6686,411.5586 " fill="#000000" style="stroke:#000000;stroke-width:1.0;"/><ellipse cx="840.5" cy="408.5" fill="#000000" rx="3" ry="3" style="stroke:#000000;stroke-width:1.0;"/><path d="M840.5,428.5 L853.5,428.5 C889.663,428.5 929.9245,432.6016 962.1312,436.889 " fill="none" style="stroke:#000000;stroke-width:1.0;stroke-dasharray:3.0,3.0;"/><path d="M961.7181,439.9228 L964.4065,437.1988 L962.5443,433.8553 L969.7156,437.9217 L961.7181,439.9228 " fill="#000000" style="stroke:#000000;stroke-width:1.0;"/><ellipse cx="840.5" cy="428.5" fill="#000000" rx="3" ry="3" style="stroke:#000000;stroke-width:1.0;"/><path d="M608,353.5 L621,353.5 C651.9715,353.5 684.5181,363.4306 711.7092,374.8524 " fill="none" style="stroke:#000000;stroke-width:1.0;stroke-dasharray:3.0,3.0;"/><path d="M710.4726,377.7149 L713.8561,375.7799 L712.9459,371.9899 L718.8655,377.9441 L710.4726,377.7149 " fill="#000000" style="stroke:#000000;stroke-width:1.0;"/><ellipse cx="608" cy="353.5" fill="#000000" rx="3" ry="3" style="stroke:#000000;stroke-width:1.0;"/><path d="M414,343.5 L427,343.5 C436.292,343.5 446.0101,343.5 455.6854,343.5 " fill="none" style="stroke:#000000;stroke-width:1.0;stroke-dasharray:3.0,3.0;"/><path d="M455.6854,346.5965 L458.0078,343.5 L455.6854,340.4035 L463.4267,343.5 L455.6854,346.5965 " fill="#000000" style="stroke:#000000;stroke-width:1.0;"/><ellipse cx="414" cy="343.5" fill="#000000" rx="3" ry="3" style="stroke:#000000;stroke-width:1.0;"/><!--SRC=[lPPBRzf04CVl-obMRWyW1PD6KLfnIfe7LOGh548kLG-3FPXDxLrtTanZLNpthaqW8O7WlEgRv_6Vt-oEHpwq3CJNrcZnLqZtU1zjEC4Kl8xq9inPfzqklQsvrJSKjoE2CRTsFxVdjW_UpZoJYmpBD3Ewnf2NLiL9PRuA5gO8RKWgOsLqvL34EIGoW72YDCfn0bD3ifAxpSZ8P4YiqBg4EMXbFvu0GSX8oh8ALvsRcPRU3R9B_n4v8dQ9EU7QY9KQbadf-46DPTI3fkzBIpEMF45vLZNkUuy4PeyrlUF-S3kIqemnKascxtawGYffdBWC3Q5z4Lg0gQ7YhUcEKfDhBe4kZe8NSNNVyyYwhpgo0Hk26DyQxz9nmFBSx6sHUaGOvgIu633e22Yoszc028gQP0jv1tMhBssUPOOO8pagxfsWRA0V-pkoUzA_QFgRvDstb6v6NFUThWsSrJgR7Z3gi7YFsqhcqjk7I3m1wK4KgL8Lalxz5JU6nA9Oa-JrJQBMDFJQ_Hd7X34mZ98QexssHjrQTyj7wUDou9-CUiObRReiLqUbUIe9V-UAtD3gvIfGkXpgiCOgU6B8xXg2c__J4DoyOKFY6MtM6zTwax-WT-a_jWpaYlkdMDMVYPauH1rLlqQYdu3cOT2JKoJhGEKdVsztRz_V7o73GMEeVsdpHxlzdsOgGSagnQPeTFizQKrE8Sf8bLjdb9TTDiKvJ45Uk3jrSHrPlZKkWwOSd2wCybHF5HcTecPnVXNCW-GtmuFCS1LyiD_wgbWEa1oJl0h42OuXJzYbXYPo2wuZXvTdhI-Y1phEtThlIDIYcYGgd6_m3m00]--></g></svg>